# Blender v2.62 (sub 0) OBJ File: 'ramjetcraft.blend'
# www.blender.org
o Cube.002
v 0.217933 -1.282978 -2.177905
v -0.222301 -1.283187 -2.179091
v -0.222301 -0.707673 -3.334232
v 0.217933 -0.707673 -3.334232
v -0.222301 -0.715868 -2.967474
v 0.217933 -0.715868 -2.967474
v 0.217933 -1.043747 -2.967474
v -0.222301 -1.043747 -2.967474
v -0.222301 -1.475790 -3.297990
v 0.217933 -1.475371 -3.295617
v 0.217933 -1.053919 -3.334232
v -0.222301 -1.053919 -3.334232
v 0.217933 -1.529509 -3.602645
v 0.217933 -1.220659 -3.637391
v -0.222301 -1.220659 -3.637391
v -0.222301 -1.529927 -3.605018
v -0.193400 -1.517218 -3.643532
v -0.193400 -1.246272 -3.672059
v -0.115697 -1.246272 -3.672059
v -0.113399 -1.517218 -3.643532
v 0.189032 -1.246272 -3.672059
v 0.189032 -1.516855 -3.641471
v 0.111329 -1.246272 -3.672059
v 0.109031 -1.516855 -3.641471
v -0.113399 -1.914110 -5.888770
v 0.109031 -1.914110 -5.888770
v -0.115697 -1.643689 -5.888770
v 0.111329 -1.643689 -5.888770
v -0.115697 -1.778899 -5.832765
v 0.111329 -1.778899 -5.832765
v 0.174938 -2.118066 -6.331945
v -0.183629 -2.118066 -6.331944
v 0.174938 -2.118066 -5.779817
v -0.183629 -2.118066 -5.779817
v 0.174938 -2.145517 -6.429179
v 0.174938 -2.145517 -6.250905
v 0.174938 -2.145517 -5.858595
v 0.174938 -2.145517 -5.699618
v -0.183629 -2.145517 -5.699618
v -0.183629 -2.145517 -5.858595
v -0.183629 -2.145517 -6.250905
v -0.183629 -2.145517 -6.429177
v -0.193400 -1.778899 -6.023981
v 0.189032 -1.778899 -6.023981
v -0.193400 -1.643690 -6.159190
v -0.193400 -1.587683 -6.023980
v -0.193400 -1.643689 -5.888770
v -0.193400 -1.778899 -5.832765
v -0.193400 -1.914110 -5.888770
v -0.193400 -1.970115 -6.023980
v -0.193400 -1.778899 -6.215197
v 0.189032 -1.643689 -6.159190
v 0.189032 -1.587684 -6.023980
v 0.189032 -1.643689 -5.888770
v 0.189032 -1.778899 -5.832765
v 0.189032 -1.914110 -5.888770
v 0.189032 -1.970115 -6.023980
v 0.189032 -1.778899 -6.215197
v -0.004345 -2.018055 -5.925246
v 0.174938 -2.018055 -5.925246
v -0.183629 -2.018055 -5.925244
v -0.004345 -2.029925 -6.266440
v -0.004346 -2.053664 -6.947511
v 0.174938 -2.029925 -6.266440
v -0.004345 -2.006186 -5.308726
v -0.183629 -2.029925 -6.266440
v 0.174938 -2.053664 -6.879025
v 0.174938 -2.006186 -5.308726
v -0.183629 -2.006186 -5.308726
v -0.183629 -2.053664 -6.879024
v 0.174938 -2.145517 -6.879026
v 0.174938 -2.145517 -5.308726
v -0.183629 -2.145517 -5.308726
v -0.183629 -2.145517 -6.879025
v -0.000000 -0.991606 -2.321557
v 0.081516 -1.017689 -2.316958
v 0.131896 -1.139832 -2.590789
v 0.131896 -1.189451 -2.408748
v 0.081516 -1.238675 -2.277992
v -0.000000 -1.258091 -2.233689
v -0.081516 -1.238675 -2.277992
v -0.131896 -1.189451 -2.408748
v -0.131896 -1.139832 -2.590789
v -0.081516 -1.017689 -2.316958
v 0.000000 -0.605902 -0.134126
v 0.081516 -0.631986 -0.129527
v 0.131896 -0.700275 -0.117486
v 0.131896 -0.784683 -0.102602
v 0.081516 -0.852972 -0.090561
v -0.000000 -0.879055 -0.085962
v -0.081516 -0.852971 -0.090561
v -0.131896 -0.784683 -0.102602
v -0.131896 -0.700274 -0.117486
v -0.081516 -0.631986 -0.129527
v -0.000000 -0.742479 -0.110044
vt 0.284158 0.410805
vt 0.284551 0.507300
vt 0.315869 0.473428
vt 0.284551 0.507505
vt 0.284159 0.410908
vt 0.333649 0.470293
vt 0.338215 0.501173
vt 0.320435 0.504309
vt 0.284551 0.534030
vt 0.310943 0.532173
vt 0.284551 0.533825
vt 0.286185 0.536891
vt 0.309309 0.535456
vt 0.286185 0.537069
vt 0.286102 0.731059
vt 0.296604 0.724369
vt 0.308760 0.727064
vt 0.283407 0.743216
vt 0.258143 0.685877
vt 0.263918 0.718629
vt 0.267403 0.724943
vt 0.277931 0.735651
vt 0.266267 0.731950
vt 0.281978 0.764415
vt 0.272063 0.764821
vt 0.275560 0.771206
vt 0.274697 0.779758
vt 0.281343 0.817451
vt 0.281343 0.817450
vt 0.302254 0.756412
vt 0.299429 0.740391
vt 0.312755 0.749722
vt 0.315450 0.737566
vt 0.269817 0.683818
vt 0.289039 0.816093
vt 0.290051 0.821832
vt 0.298895 0.229556
vt 0.308441 0.229556
vt 0.310695 0.229556
vt 0.302541 0.229556
vt 0.295249 0.229556
vt 0.289349 0.229556
vt 0.287096 0.229556
vt 0.302253 0.443286
vt 0.308441 0.418537
vt 0.310695 0.418537
vt 0.287068 0.415112
vt 0.289349 0.418537
vt 0.295406 0.428766
vn 1.000000 0.000000 -0.000000
vn -1.000000 0.000000 -0.000000
vn 0.000000 0.999751 0.022338
vn -0.000000 0.000000 -1.000000
vn -0.000000 0.000000 1.000000
vn 0.000000 -0.984808 0.173649
vn 0.000000 0.876213 -0.481925
vn 0.000003 0.950780 0.309868
vn 0.790013 -0.068694 -0.609229
vn 0.000000 -0.804302 0.594221
vn 0.000000 0.804302 -0.594221
vn -0.788596 -0.064190 -0.611552
vn -0.000000 0.949633 0.313363
vn 0.003206 -0.950204 -0.311612
vn 0.004646 -0.108518 -0.994084
vn 0.000000 0.984306 -0.176469
vn 0.999985 0.005382 -0.001327
vn 0.000000 -0.984733 0.174072
vn 0.999827 0.018335 -0.003241
vn -0.999985 0.005380 -0.001326
vn -0.000004 -0.984733 0.174071
vn -0.999827 0.018335 -0.003241
vn 0.000006 0.923881 -0.382681
vn 0.000000 0.923879 -0.382683
vn 0.000000 -0.923880 0.382683
vn 1.000000 -0.000001 0.000000
vn -1.000000 0.000002 -0.000000
vn -1.000000 0.000002 -0.000001
vn -1.000000 0.000005 0.000002
vn 1.000000 -0.000000 -0.000002
vn 1.000000 -0.000002 0.000000
vn -1.000000 0.000003 -0.000001
vn -1.000000 0.000002 0.000001
vn 0.964327 -0.264553 0.009204
vn 0.999185 -0.028537 -0.028537
vn -0.982370 -0.186836 0.006500
vn -0.999608 -0.019792 -0.019792
vn 0.000000 0.899570 0.436777
vn 0.000003 0.899572 0.436772
vn -0.000001 0.999815 -0.019249
vn 0.000000 0.999815 -0.019248
vn -0.356854 0.000010 -0.934160
vn 0.356849 0.000019 -0.934162
vn -0.000005 -0.597738 -0.801692
vn -0.007004 0.999303 -0.036675
vn 0.007006 0.999303 -0.036675
vn 0.000001 0.173648 0.984808
vn -0.000000 0.173649 0.984808
vn -0.000001 0.173648 0.984808
vn -0.000000 0.173648 0.984808
vn -0.815295 0.570176 -0.100959
vn -0.309017 0.936608 -0.165149
vn 0.000017 -0.985506 0.169639
vn -0.001544 0.910981 0.412446
vn -0.003306 0.913646 0.406497
vn 0.001253 0.915052 0.403334
vn 0.035237 0.930747 0.363962
vn 0.253750 0.925712 0.280480
vn 0.073687 0.962179 0.262262
vn 0.976336 -0.061865 0.207222
vn 0.303360 0.952536 0.025461
vn 0.000000 0.996758 -0.080463
vn -0.303241 0.952518 0.027473
vn -0.973761 -0.077805 0.213859
vn -0.070145 0.962426 0.262330
vn -0.246071 0.927422 0.281668
vn -0.037861 0.930312 0.364810
vn -0.953276 0.302072 0.001282
vn -0.445326 -0.819422 -0.360790
vn 0.445326 -0.819422 -0.360790
vn 0.953276 0.302072 0.001282
vn -0.367962 0.829737 0.419630
vn 0.235755 0.879635 0.413007
vn -0.630238 0.776360 0.000000
vn -0.776208 0.626820 0.067721
vn 0.972808 0.024873 -0.230201
vn 0.756767 0.642537 -0.119968
vn -0.780267 -0.625202 -0.016083
vn 0.780267 -0.625202 -0.016083
vn 0.672262 -0.730430 -0.120334
vn -0.672262 -0.730430 -0.120334
vn -0.677480 -0.728568 0.100864
vn 0.677480 -0.728568 0.100864
vn -0.788476 -0.615040 0.001679
vn 0.788446 -0.615040 0.001679
vn 0.671957 -0.730522 -0.121555
vn -0.671957 -0.730522 -0.121555
vn -0.671407 -0.730674 0.123630
vn 0.671377 -0.730674 0.123661
vn 0.577349 -0.577349 0.577349
vn -0.577349 -0.577349 0.577349
vn -0.629658 -0.610065 -0.480941
vn 0.629658 -0.610065 -0.480941
vn 0.000000 0.762841 -0.646535
vn -0.687796 0.203467 -0.696768
vn 0.688406 0.199316 -0.697378
vn -0.876003 0.357646 -0.323466
vn 0.875973 0.353099 -0.328593
vn 0.630238 0.548967 -0.548967
vn -0.630238 0.548967 -0.548967
vn 0.000305 0.996551 -0.082888
vn 0.000000 0.865413 0.501022
vn 0.452834 0.718802 0.527451
vn 0.615345 0.785058 -0.070772
vn 0.729576 0.341014 0.592761
vn 0.732017 0.622944 0.275796
vn 0.728813 -0.119175 0.674245
vn 0.787652 0.575671 0.219398
vn 0.452132 -0.495956 0.741325
vn 0.750267 0.314035 0.581774
vn 0.000000 -0.641591 0.767022
vn -0.002350 0.033998 0.999390
vn -0.452132 -0.495956 0.741325
vn -0.750511 0.311869 0.582598
vn -0.728813 -0.119175 0.674245
vn -0.785211 0.578356 0.221076
vn -0.729576 0.341014 0.592761
vn -0.734519 0.617512 0.281289
s off
f 1/1/1 10/2/1 7/3/1
f 8/3/2 9/4/2 2/5/2
f 6/6/3 4/7/3 3/7/3 5/6/3
f 12/8/4 3/7/4 4/7/4 11/8/4
f 8/3/2 5/6/2 3/7/2 12/8/2
f 11/8/1 4/7/1 6/6/1 7/3/1
f 7/3/5 6/6/5 5/6/5 8/3/5
f 7/3/1 10/2/1 11/8/1
f 12/8/2 9/4/2 8/3/2
f 16/9/2 9/4/2 12/8/2 15/10/2
f 14/10/1 11/8/1 10/2/1 13/11/1
f 13/11/6 10/2/6 9/4/6 16/9/6
f 15/10/7 12/8/7 11/8/7 14/10/7
f 22/12/8 24/12/8 13/11/8
f 21/13/9 14/10/9 13/11/9 22/12/9
f 23/13/10 21/13/10 14/10/10
f 18/13/11 15/10/11 19/13/11
f 17/14/12 16/9/12 15/10/12 18/13/12
f 20/14/13 17/14/13 16/9/13
f 24/12/14 13/11/14 16/9/14 20/14/14
f 19/13/11 15/10/11 14/10/11 23/13/11
f 24/12/15 20/14/15 19/13/15 23/13/15
f 49/15/2 17/14/2 48/16/2
f 48/16/2 17/14/2 18/13/2 47/17/2
f 47/17/16 18/13/16 19/13/16 27/17/16
f 27/17/17 19/13/17 20/14/17 29/16/17
f 25/15/18 20/14/18 17/14/18 49/15/18
f 29/16/19 20/14/19 25/15/19
f 55/16/1 22/12/1 56/15/1
f 54/17/1 21/13/1 22/12/1 55/16/1
f 28/17/16 23/13/16 21/13/16 54/17/16
f 30/16/20 24/12/20 23/13/20 28/17/20
f 56/15/21 22/12/21 24/12/21 26/15/21
f 26/15/22 24/12/22 30/16/22
f 26/15/23 56/15/23 57/18/23
f 49/15/24 25/15/24 50/18/24
f 25/15/25 50/18/25 57/18/25 26/15/25
f 72/19/1 38/20/1 33/21/1 60/22/1
f 60/22/26 33/21/26 37/23/26
f 64/24/1 60/22/1 37/23/1 36/25/1
f 66/24/27 41/25/27 40/23/27 61/22/27
f 61/22/28 40/23/28 34/21/28
f 61/22/29 34/21/29 39/20/29
f 73/19/27 61/22/27 39/20/27
f 31/26/30 64/24/30 36/25/30
f 35/27/31 64/24/31 31/26/31
f 32/26/32 66/24/32 42/27/32
f 41/25/33 66/24/33 32/26/33
f 71/28/26 64/24/26 35/27/26
f 42/27/27 66/24/27 74/29/27
f 64/24/34 57/18/34 60/22/34
f 64/24/35 58/30/35 44/31/35 57/18/35
f 66/24/36 61/22/36 50/18/36
f 66/24/37 50/18/37 43/31/37 51/30/37
f 50/18/38 59/22/38 57/18/38
f 61/22/39 59/22/39 50/18/39
f 60/22/38 57/18/38 59/22/38
f 43/31/2 45/32/2 51/30/2
f 44/31/1 58/30/1 52/32/1
f 43/31/2 46/33/2 45/32/2
f 44/31/1 52/32/1 53/33/1
f 43/31/2 47/17/2 46/33/2
f 44/31/1 53/33/1 54/17/1
f 43/31/2 48/16/2 47/17/2
f 44/31/1 54/17/1 55/16/1
f 43/31/2 49/15/2 48/16/2
f 44/31/1 55/16/1 56/15/1
f 43/31/2 50/18/2 49/15/2
f 44/31/1 56/15/1 57/18/1
f 68/34/26 72/19/26 60/22/26
f 61/22/27 73/19/27 69/34/27
f 59/22/40 61/22/40 69/34/40 65/34/40
f 60/22/41 59/22/41 65/34/41 68/34/41
f 70/35/42 63/36/42 74/29/42
f 67/35/43 71/28/43 63/36/43
f 63/36/44 71/28/44 74/29/44
f 64/24/26 71/28/26 67/35/26
f 65/34/5 72/19/5 68/34/5
f 69/34/5 73/19/5 65/34/5
f 65/34/5 73/19/5 72/19/5
f 66/24/2 70/35/2 74/29/2
f 70/35/45 66/24/45 62/24/45 63/36/45
f 63/36/46 62/24/46 64/24/46 67/35/46
f 95/37/47 86/38/47 85/39/47
f 95/37/48 87/40/48 86/38/48
f 95/37/48 88/41/48 87/40/48
f 95/37/49 89/42/49 88/41/49
f 95/37/50 90/43/50 89/42/50
f 95/37/47 91/42/47 90/43/47
f 95/37/50 92/41/50 91/42/50
f 95/37/48 93/40/48 92/41/48
f 95/37/50 94/38/50 93/40/50
f 95/37/50 85/39/50 94/38/50
f 83/44/51 93/40/51 94/38/51 84/45/51
f 84/45/52 94/38/52 85/39/52 75/46/52
f 1/1/53 2/5/53 9/4/53 10/2/53
f 1/1/54 80/47/54 2/5/54
f 2/5/55 80/47/55 81/48/55
f 1/1/56 79/48/56 80/47/56
f 1/1/57 78/49/57 79/48/57
f 1/1/58 7/3/58 78/49/58
f 7/3/59 77/44/59 78/49/59
f 7/3/60 76/45/60 77/44/60
f 7/3/61 75/46/61 76/45/61
f 7/3/62 8/3/62 75/46/62
f 8/3/63 84/45/63 75/46/63
f 8/3/64 83/44/64 84/45/64
f 8/3/65 82/49/65 83/44/65
f 2/5/66 82/49/66 8/3/66
f 2/5/67 81/48/67 82/49/67
s 1
f 30/16/68 26/15/69 25/15/70 29/16/71
f 30/16/68 28/17/72 27/17/73 29/16/71
f 27/17/73 46/33/74 47/17/75
f 54/17/76 28/17/72 53/33/77
f 28/17/72 53/33/77 46/33/74 27/17/73
f 32/26/78 31/26/79 36/25/80 41/25/81
f 42/27/82 35/27/83 31/26/79 32/26/78
f 34/21/84 33/21/85 38/20/86 39/20/87
f 40/23/88 37/23/89 33/21/85 34/21/84
f 39/20/87 38/20/86 72/19/90 73/19/91
f 41/25/81 36/25/80 37/23/89 40/23/88
f 74/29/92 71/28/93 35/27/83 42/27/82
f 62/24/94 51/30/95 58/30/96
f 66/24/97 51/30/95 62/24/94
f 64/24/98 62/24/94 58/30/96
f 52/32/99 58/30/96 51/30/95 45/32/100
f 53/33/77 52/32/99 45/32/100 46/33/74
f 75/46/101 85/39/102 86/38/103 76/45/104
f 76/45/104 86/38/103 87/40/105 77/44/106
f 77/44/106 87/40/105 88/41/107 78/49/108
f 78/49/108 88/41/107 89/42/109 79/48/110
f 79/48/110 89/42/109 90/43/111 80/47/112
f 80/47/112 90/43/111 91/42/113 81/48/114
f 81/48/114 91/42/113 92/41/115 82/49/116
f 82/49/116 92/41/115 93/40/117 83/44/118
