o body1
v 19.728687 -14.611761 -95.003395
v 19.728687 -14.611762 -129.697952
v 14.506180 -2.785457 -157.513824
v 14.506180 -2.785457 -157.513824
v -14.551497 -2.778938 -157.513824
v -14.551497 -2.778938 -157.513824
v -19.985239 -14.579114 -129.697952
v -19.985241 -14.579112 -95.003403
v -19.985247 -14.579111 -60.399517
v -19.985247 -14.579111 -60.399517
v 19.728682 -14.611759 -60.399513
v 19.728682 -14.611759 -60.399513
v 29.873146 -7.622707 -60.399513
v -29.937798 -7.524411 -60.399517
v 14.506180 -2.785457 -157.513824
v 19.728687 -14.611761 -95.003395
v -14.503923 3.053286 -157.513824
v 19.728687 -14.611762 -129.697952
v -19.985239 -14.579114 -129.697952
v 14.483328 3.046765 -157.513824
v 19.728682 -14.611759 -60.399513
v -14.551497 -2.778938 -157.513824
v -29.937792 -7.524413 -95.003403
v -29.937792 -7.524414 -129.697952
v 29.873152 -7.622710 -129.697952
v 29.873146 -7.622707 -60.399513
v -19.985241 -14.579112 -95.003403
v 29.873152 -7.622708 -95.003395
v -19.985247 -14.579111 -60.399517
v -29.937798 -7.524411 -60.399517
v 19.728687 -14.611762 -129.697952
v -19.985239 -14.579114 -129.697952
v 19.728687 -14.611761 -95.003395
v -19.985241 -14.579112 -95.003403
v 29.906593 -0.081340 -60.399513
v -29.904356 0.016944 -60.399517
v -14.527710 0.137174 -157.513824
v -29.904356 0.016944 -60.399517
v -29.904358 0.016942 -95.003403
v -29.904358 0.016941 -129.697968
v 14.494754 0.130654 -157.513824
v 29.906593 -0.081340 -60.399513
v 29.906601 -0.081347 -129.697952
v 29.906599 -0.081342 -95.003395
vt 0.387874 0.883927
vt 0.146038 0.884055
vt 0.145847 0.998244
vt 0.388271 0.998116
vt 0.715851 0.104736
vt 0.003944 0.106140
vt 0.122406 0.005331
vt 0.595105 0.004864
vt 0.004342 0.213904
vt 0.716249 0.212499
vt 0.356222 0.005717
vt 0.001493 0.005717
vt 0.001493 0.106601
vt 0.356222 0.106601
vt 0.356222 0.425613
vt 0.002722 0.425613
vt 0.002722 0.998198
vt 0.356222 0.998198
vt 0.714589 0.005717
vt 0.714589 0.106601
vt 0.359128 0.425613
vt 0.000761 0.425613
vt 0.000761 0.998198
vt 0.359128 0.998198
vt 0.998558 0.504684
vt 0.714589 0.425613
vt 0.714589 0.998198
vt 0.998558 0.921854
vt 0.998558 0.174766
vt 0.714589 0.214301
vt 0.998558 0.217028
vt 0.356222 0.214301
vt 0.001493 0.214301
vn 0.000000 0.000000 -1.000000
vn 0.000000 0.000000 1.000000
vn -0.578265 -0.815821 0.000000
vn -0.889340 -0.457198 0.000000
vn -0.000793 -0.999969 0.000000
vn 0.884213 -0.467055 0.000000
vn 0.567339 -0.823481 0.000000
vn -0.564928 -0.796991 -0.213507
vn -0.865474 -0.434187 -0.249763
vn 0.860866 -0.443190 -0.249886
vn 0.554369 -0.804651 -0.212531
vn -0.000519 -0.920408 -0.390881
vn -0.769219 -0.404492 -0.494613
vn 0.764763 -0.412854 -0.494583
vn -0.968291 0.004761 -0.249702
vn -0.875271 0.004761 -0.483566
vn -0.999969 0.004425 0.000000
vn 0.968200 -0.003235 -0.250038
vn 0.874935 -0.001831 -0.484207
vn 0.999969 -0.004425 0.000000
s 1
f 17/1/1 20/2/1 15/3/1 22/4/1
f 26/5/2 30/6/2 29/7/2 21/8/2
f 36/9/2 30/6/2 26/5/2 35/10/2
f 8/11/3 10/12/3 14/13/4 23/14/4
f 1/15/5 12/16/5 9/17/5 27/18/5
f 28/14/6 13/13/6 11/12/7 16/11/7
f 19/19/8 8/11/3 23/14/4 24/20/9
f 2/21/5 33/22/5 34/23/5 7/24/5
f 25/20/10 28/14/6 16/11/7 18/19/11
f 4/25/12 31/26/12 32/27/12 6/28/12
f 19/19/8 24/20/9 5/29/13
f 18/19/11 3/29/14 25/20/10
f 24/20/9 40/30/15 37/31/16 5/29/13
f 23/14/4 39/32/17 40/30/15 24/20/9
f 14/13/4 38/33/17 39/32/17 23/14/4
f 43/30/18 25/20/10 3/29/14 41/31/19
f 42/33/20 13/13/6 28/14/6 44/32/20
f 44/32/20 28/14/6 25/20/10 43/30/18
