o body0
v -2.558466 -2.935050 89.833580
v 4.854778 -1.196970 89.833588
v 4.843942 1.245126 89.833588
v -4.848133 1.229216 89.833588
v -4.837295 -1.212882 89.833580
v 4.843948 1.245123 14.057175
v -4.848126 1.229213 14.057174
v -2.558459 -2.935057 -61.719238
v 2.565120 2.967281 -61.719238
v -2.558465 -2.935054 14.057163
v -2.592064 2.960686 -61.719238
v -4.837294 -1.212885 14.057162
v -4.837287 -1.212888 -61.719238
v 4.854785 -1.196977 -61.719234
v 4.843948 1.245120 -61.719234
v -4.848125 1.229209 -61.719238
v 2.565120 2.967285 14.057175
v 4.854785 -1.196974 14.057175
v 2.598716 -2.928458 14.057163
v 2.598716 -2.928455 89.833580
v -2.592064 2.960690 14.057175
v 2.598723 -2.928461 -61.719234
v -2.592071 2.960693 89.833588
v 2.565113 2.967288 89.833588
v -2.558465 -2.935054 14.057163
v 2.598716 -2.928458 14.057163
v 2.598716 -2.928458 14.057163
v 4.854785 -1.196974 14.057175
v 4.843948 1.245123 14.057175
v 2.565120 2.967285 14.057175
v -2.592064 2.960690 14.057175
v -2.592064 2.960690 14.057175
v -4.848126 1.229213 14.057174
v -4.837294 -1.212885 14.057162
v -2.592064 2.960686 -61.719238
v 2.598723 -2.928461 -61.719234
v 2.598716 -2.928458 14.057163
v 2.598716 -2.928455 89.833580
v -2.592064 2.960690 14.057175
v -2.592071 2.960693 89.833588
vt 0.713803 0.069074
vt 0.002917 0.069074
vt 0.002917 0.030701
vt 0.713803 0.030701
vt 0.713803 0.096160
vt 0.002917 0.096160
vt 0.713803 0.175164
vt 0.002917 0.175164
vt 0.002917 0.003614
vt 0.713803 0.003614
vn -0.894223 -0.447554 0.000000
vn -0.897855 0.440230 0.000000
vn -0.317331 -0.948302 0.000000
vn 0.001251 -0.999969 0.000000
vn 0.897855 -0.440230 0.000000
vn 0.608814 -0.793268 0.000000
vn 0.894223 0.447554 0.000000
vn 0.317331 0.948302 0.000000
vn -0.001251 0.999969 0.000000
vn -0.608814 0.793268 0.000000
s 1
f 12/1/1 5/2/1 4/3/2 7/4/2
f 10/5/3 1/6/3 5/2/1 12/1/1
f 1/6/3 10/5/3 19/7/4 20/8/4
f 18/4/5 2/3/5 38/9/6 37/10/6
f 6/1/7 3/2/7 2/3/5 18/4/5
f 17/5/8 24/6/8 3/2/7 6/1/7
f 21/7/9 23/8/9 24/6/8 17/5/8
f 40/9/10 39/10/10 7/4/2 4/3/2
f 13/1/1 34/2/1 33/3/2 16/4/2
f 8/5/3 25/6/3 34/2/1 13/1/1
f 25/6/3 8/5/3 22/7/4 27/8/4
f 14/4/5 28/3/5 26/9/6 36/10/6
f 15/1/7 29/2/7 28/3/5 14/4/5
f 9/5/8 30/6/8 29/2/7 15/1/7
f 11/7/9 32/8/9 30/6/8 9/5/8
f 16/4/2 33/3/2 31/9/10 35/10/10
