o body1_cv0
v 29.906599 -0.081342 -95.003395
v 29.906601 -0.081347 -129.697952
v 29.906593 -0.081340 -60.399513
v 14.494754 0.130654 -157.513824
v -29.904358 0.016941 -129.697968
v -29.904358 0.016942 -95.003403
v -29.904356 0.016944 -60.399517
v -14.527710 0.137174 -157.513824
v -29.904356 0.016944 -60.399517
v 29.906593 -0.081340 -60.399513
v 19.987482 14.593017 -95.003395
v -19.726437 14.625663 -95.003403
v 29.940042 7.460026 -60.399513
v -19.726442 14.625665 -60.399517
v 29.940048 7.460024 -95.003395
v -29.870922 7.558296 -129.697968
v 19.987482 14.593017 -95.003395
v -19.726437 14.625663 -95.003403
v -29.870924 7.558298 -95.003403
v -29.870914 7.558299 -60.399517
v 29.940048 7.460016 -129.697952
v -19.726435 14.625662 -129.697952
v 19.987476 14.593019 -60.399513
v 19.987482 14.593016 -129.697952
v -29.870914 7.558299 -60.399517
v -19.726442 14.625665 -60.399517
v -19.726442 14.625665 -60.399517
v 19.987476 14.593019 -60.399513
v 19.987476 14.593019 -60.399513
v 29.940042 7.460026 -60.399513
v -14.503923 3.053286 -157.513824
v -14.503923 3.053286 -157.513824
v 14.483328 3.046765 -157.513824
v 14.483328 3.046765 -157.513824
v 19.987482 14.593016 -129.697952
v 19.987482 14.593017 -95.003395
v -19.726435 14.625662 -129.697952
v -19.726437 14.625663 -95.003403
vt 0.004740 0.321667
vt 0.004342 0.213904
vt 0.716249 0.212499
vt 0.716647 0.320263
vt 0.125486 0.422658
vt 0.598186 0.422191
vt 0.356222 0.322002
vt 0.356222 0.214301
vt 0.714589 0.214301
vt 0.714589 0.322002
vt 0.001493 0.322002
vt 0.001493 0.214301
vt 0.998558 0.217028
vt 0.998558 0.259290
vt 0.714589 0.425613
vt 0.356222 0.425613
vt 0.714589 0.998198
vt 0.356222 0.998198
vt 0.001493 0.425613
vt 0.713325 0.425613
vt 0.356095 0.425613
vt 0.356095 0.998198
vt 0.713325 0.998198
vt 0.998558 0.921854
vt 0.998558 0.504684
vn 0.000000 0.000000 1.000000
vn 0.890530 0.454878 0.000000
vn 0.999969 -0.004425 0.000000
vn 0.968078 -0.003235 -0.250526
vn 0.867000 0.431928 -0.248390
vn 0.874447 -0.001831 -0.485061
vn 0.770531 0.405042 -0.492111
vn -0.999969 0.004425 0.000000
vn -0.885403 0.464766 0.000000
vn -0.862575 0.441115 -0.247719
vn -0.968230 0.004761 -0.249886
vn -0.766930 0.413709 -0.490555
vn -0.875057 0.004761 -0.483963
vn -0.558946 0.802332 -0.209296
vn 0.569414 0.794488 -0.210913
vn -0.571612 0.820490 0.000000
vn 0.000671 0.980651 -0.195654
vn 0.000793 0.999969 0.000000
vn 0.582507 0.812799 0.000000
vn 0.000519 0.923429 -0.383740
s 1
f 20/1/1 9/2/1 10/3/1 13/4/1
f 14/5/1 20/1/1 13/4/1 23/6/1
f 15/7/2 1/8/3 2/9/4 21/10/5
f 1/8/3 15/7/2 30/11/2 3/12/3
f 21/10/5 2/9/4 4/13/6 34/14/7
f 7/12/8 25/11/9 19/7/9 6/8/8
f 6/8/8 19/7/9 16/10/10 5/9/11
f 5/9/11 16/10/10 32/14/12 8/13/13
f 22/15/14 32/14/12 16/10/10
f 34/14/7 35/15/15 21/10/5
f 16/10/10 19/7/9 18/16/16 22/15/14
f 37/17/17 12/18/18 11/16/18 24/15/17
f 35/15/15 36/16/19 15/7/2 21/10/5
f 19/7/9 25/11/9 27/19/16 18/16/16
f 38/20/18 26/21/18 29/22/18 17/23/18
f 36/16/19 28/19/19 30/11/2 15/7/2
f 31/24/20 37/17/17 24/15/17 33/25/20
