o front
v 19.987463 14.593025 88.189011
v -19.726450 14.625671 88.189011
v -29.870941 7.558312 88.189011
v -29.904377 0.016956 88.189011
v 29.940029 7.460032 88.189018
v 29.906582 -0.081334 88.189018
v 29.906582 -0.081334 88.189018
v -29.904377 0.016956 88.189011
v -29.937811 -7.524401 88.189011
v 29.873133 -7.622700 88.189018
v 19.728668 -14.611753 88.189018
v -19.985254 -14.579104 88.189011
vt 0.593838 0.424446
vt 0.119121 0.423976
vt 0.000153 0.321443
vt 0.715100 0.322855
vt 0.000553 0.213038
vt 0.715499 0.214451
vt 0.000953 0.104634
vt 0.715899 0.106047
vt 0.596932 0.004639
vt 0.122214 0.004169
vn 0.000000 0.000000 -1.000000
s 1
f 2/1/1 1/2/1 5/3/1 3/4/1
f 5/3/1 6/5/1 4/6/1 3/4/1
f 7/5/1 10/7/1 9/8/1 8/6/1
f 12/9/1 9/8/1 10/7/1 11/10/1
