# 3ds Max Wavefront OBJ Exporter v0.94b - (c)2007 guruware
# File Created: 06.12.2010 20:18:06

#
# object cockpit
#

v  0.0000 1.6788 0.1796
v  -0.0123 1.6445 0.1961
v  0.0000 1.6029 0.2191
v  -0.0384 1.5230 0.2481
v  0.0000 1.4906 0.2666
v  0.0000 1.5279 0.2518
v  -0.0322 1.5307 0.2460
v  -0.1175 1.4423 0.2561
v  -0.0918 1.4888 0.2475
v  -0.1138 1.4838 0.2398
v  -0.0723 1.5262 0.2377
v  -0.0785 1.5253 0.2360
v  -0.0879 1.5181 0.2353
v  -0.0657 1.5182 0.2436
v  -0.0764 1.6025 0.2007
v  -0.0697 1.6025 0.2034
v  -0.0686 1.6300 0.1892
v  -0.0755 1.6216 0.1909
v  -0.0908 1.5062 0.2405
v  -0.0576 1.4906 0.2582
v  -0.1010 1.5013 0.2377
v  -0.0782 1.5348 0.2316
v  -0.0721 1.5347 0.2341
v  -0.0282 1.5450 0.2408
v  -0.0071 1.6787 0.1787
v  -0.1271 1.4606 0.2403
v  -0.1339 1.4569 0.2372
v  -0.1573 1.4591 0.2177
v  -0.1608 1.4453 0.2212
v  -0.1628 1.4656 0.2089
v  -0.1710 1.4531 0.2024
v  -0.1122 1.5233 0.2221
v  -0.1030 1.5160 0.2303
v  -0.0973 1.5184 0.2316
v  -0.1088 1.5284 0.2221
v  -0.1254 1.5340 0.2079
v  -0.1203 1.5379 0.2094
v  -0.0982 1.5098 0.2351
v  -0.1208 1.6023 0.1737
v  -0.0959 1.6112 0.1874
v  -0.0868 1.6230 0.1850
v  -0.0784 1.6572 0.1690
v  -0.1244 1.5434 0.2034
v  -0.1320 1.5396 0.1987
v  -0.1389 1.5382 0.1931
v  -0.1239 1.5513 0.1994
v  -0.1052 1.5936 0.1906
v  -0.0507 1.6746 0.1718
v  -0.0480 1.6922 0.1633
v  -0.0667 1.6526 0.1775
v  -0.0295 1.6897 0.1684
v  -0.0149 1.6909 0.1706
v  0.0000 1.7109 0.1636
v  -0.1445 1.5292 0.1910
v  -0.1485 1.5371 0.1801
v  -0.1655 1.4922 0.1857
v  -0.1534 1.4978 0.1999
v  -0.0564 1.5185 0.2469
v  -0.0194 1.6028 0.2165
v  0.0123 1.6445 0.1961
v  0.0384 1.5230 0.2481
v  0.0322 1.5307 0.2460
v  0.1175 1.4423 0.2561
v  0.1137 1.4838 0.2398
v  0.0917 1.4888 0.2475
v  0.0722 1.5262 0.2377
v  0.0656 1.5182 0.2436
v  0.0879 1.5181 0.2353
v  0.0784 1.5253 0.2360
v  0.0763 1.6025 0.2007
v  0.0754 1.6216 0.1909
v  0.0685 1.6300 0.1892
v  0.0696 1.6025 0.2034
v  0.0908 1.5062 0.2405
v  0.0576 1.4906 0.2582
v  0.1009 1.5013 0.2377
v  0.0721 1.5347 0.2341
v  0.0782 1.5348 0.2316
v  0.0282 1.5450 0.2408
v  0.0071 1.6787 0.1787
v  0.1271 1.4606 0.2403
v  0.1338 1.4569 0.2372
v  0.1608 1.4453 0.2212
v  0.1572 1.4591 0.2177
v  0.1628 1.4656 0.2089
v  0.1710 1.4531 0.2024
v  0.1122 1.5233 0.2221
v  0.1087 1.5284 0.2221
v  0.0972 1.5184 0.2316
v  0.1030 1.5160 0.2303
v  0.1253 1.5340 0.2079
v  0.1203 1.5379 0.2094
v  0.0981 1.5098 0.2351
v  0.1208 1.6023 0.1737
v  0.0783 1.6572 0.1690
v  0.0868 1.6230 0.1850
v  0.0958 1.6112 0.1874
v  0.1244 1.5434 0.2034
v  0.1319 1.5396 0.1987
v  0.1389 1.5382 0.1931
v  0.1238 1.5513 0.1994
v  0.1051 1.5936 0.1906
v  0.0506 1.6746 0.1718
v  0.0666 1.6526 0.1775
v  0.0479 1.6922 0.1633
v  0.0149 1.6909 0.1706
v  0.0294 1.6897 0.1684
v  0.1445 1.5292 0.1910
v  0.1534 1.4978 0.1999
v  0.1654 1.4922 0.1857
v  0.1484 1.5371 0.1801
v  0.0563 1.5185 0.2469
v  0.0194 1.6028 0.2165
# 113 vertices

vn 0.0000 0.4566 0.8896
vn -0.1012 0.4589 0.8827
vn 0.0000 0.4291 0.9033
vn -0.1392 0.3672 0.9197
vn -0.0000 0.3693 0.9293
vn -0.0000 0.3788 0.9255
vn -0.1342 0.3649 0.9213
vn -0.5256 0.3476 0.7765
vn -0.3528 0.3714 0.8588
vn -0.4161 0.3678 0.8316
vn -0.3103 0.3673 0.8768
vn -0.3005 0.3288 0.8953
vn -0.3326 0.4156 0.8466
vn -0.3103 0.3824 0.8704
vn -0.3387 0.4222 0.8408
vn -0.3395 0.4184 0.8424
vn -0.3566 0.4524 0.8174
vn -0.3477 0.4518 0.8216
vn -0.3512 0.3995 0.8468
vn -0.2189 0.3733 0.9015
vn -0.3983 0.3754 0.8369
vn -0.3419 0.4004 0.8502
vn -0.3331 0.3963 0.8555
vn -0.1223 0.3878 0.9136
vn -0.1330 0.4542 0.8809
vn -0.5585 0.3545 0.7499
vn -0.5801 0.3188 0.7496
vn -0.6312 0.3349 0.6996
vn -0.6567 0.3157 0.6849
vn -0.7998 0.3063 0.5162
vn -0.8186 0.2746 0.5045
vn -0.4816 0.3400 0.8077
vn -0.3602 0.4218 0.8321
vn -0.3548 0.3452 0.8689
vn -0.4915 0.3313 0.8054
vn -0.5526 0.3944 0.7342
vn -0.5254 0.3977 0.7522
vn -0.3733 0.4097 0.8324
vn -0.5734 0.4280 0.6986
vn -0.5472 0.5127 0.6616
vn -0.4683 0.4755 0.7447
vn -0.4088 0.4702 0.7822
vn -0.6050 0.3939 0.6920
vn -0.6198 0.4188 0.6636
vn -0.7169 0.3755 0.5874
vn -0.6145 0.3852 0.6884
vn -0.5559 0.4091 0.7237
vn -0.3246 0.4560 0.8287
vn -0.2235 0.4514 0.8639
vn -0.3835 0.4718 0.7939
vn -0.1717 0.4822 0.8591
vn -0.1864 0.4472 0.8748
vn 0.0001 0.4516 0.8922
vn -0.7663 0.3558 0.5350
vn -0.7631 0.3635 0.5343
vn -0.7819 0.3595 0.5093
vn -0.7744 0.3674 0.5150
vn -0.2348 0.3736 0.8974
vn -0.1224 0.4252 0.8968
vn 0.1012 0.4589 0.8827
vn 0.1394 0.3673 0.9196
vn 0.1342 0.3649 0.9213
vn 0.5257 0.3486 0.7760
vn 0.4158 0.3684 0.8315
vn 0.3534 0.3707 0.8589
vn 0.3096 0.3671 0.8772
vn 0.3096 0.3833 0.8702
vn 0.3326 0.4161 0.8463
vn 0.3007 0.3306 0.8946
vn 0.3387 0.4224 0.8407
vn 0.3467 0.4512 0.8223
vn 0.3551 0.4523 0.8181
vn 0.3394 0.4187 0.8423
vn 0.3531 0.3991 0.8462
vn 0.2192 0.3735 0.9014
vn 0.4004 0.3747 0.8362
vn 0.3333 0.3949 0.8562
vn 0.3421 0.3993 0.8506
vn 0.1223 0.3878 0.9136
vn 0.1330 0.4542 0.8809
vn 0.5599 0.3533 0.7494
vn 0.5806 0.3206 0.7484
vn 0.6551 0.3185 0.6851
vn 0.6258 0.3389 0.7025
vn 0.7995 0.3075 0.5160
vn 0.8188 0.2752 0.5037
vn 0.4777 0.3470 0.8071
vn 0.4877 0.3364 0.8056
vn 0.3535 0.3596 0.8635
vn 0.3575 0.4254 0.8314
vn 0.5566 0.3888 0.7342
vn 0.5303 0.3905 0.7525
vn 0.3756 0.4085 0.8319
vn 0.5724 0.4275 0.6997
vn 0.4086 0.4708 0.7819
vn 0.4679 0.4754 0.7450
vn 0.5459 0.5092 0.6654
vn 0.6078 0.3916 0.6908
vn 0.6223 0.3853 0.6814
vn 0.7182 0.3752 0.5860
vn 0.6125 0.3871 0.6892
vn 0.5542 0.4086 0.7252
vn 0.3246 0.4560 0.8287
vn 0.3830 0.4722 0.7939
vn 0.2236 0.4513 0.8639
vn 0.1867 0.4472 0.8747
vn 0.1726 0.4789 0.8607
vn 0.7691 0.3570 0.5302
vn 0.7768 0.3671 0.5117
vn 0.7841 0.3595 0.5060
vn 0.7659 0.3641 0.5298
vn 0.2350 0.3743 0.8970
vn 0.1224 0.4252 0.8968
# 113 vertex normals

vt 0.6909 0.6883 0.4617
vt 0.6884 0.6813 0.4658
vt 0.6909 0.6729 0.4714
vt 0.6836 0.6568 0.4786
vt 0.6909 0.6503 0.4831
vt 0.6909 0.6578 0.4795
vt 0.6848 0.6584 0.4780
vt 0.6696 0.6406 0.4805
vt 0.6738 0.6500 0.4784
vt 0.6696 0.6489 0.4765
vt 0.6771 0.6575 0.4760
vt 0.6759 0.6573 0.4756
vt 0.6741 0.6559 0.4754
vt 0.6785 0.6559 0.4775
vt 0.6755 0.6729 0.4669
vt 0.6769 0.6729 0.4676
vt 0.6771 0.6784 0.4641
vt 0.6757 0.6767 0.4645
vt 0.6738 0.6535 0.4767
vt 0.6803 0.6503 0.4811
vt 0.6718 0.6525 0.4760
vt 0.6758 0.6592 0.4745
vt 0.6771 0.6592 0.4751
vt 0.6855 0.6613 0.4768
vt 0.6895 0.6882 0.4615
vt 0.6673 0.6443 0.4767
vt 0.6661 0.6435 0.4759
vt 0.6612 0.6440 0.4711
vt 0.6608 0.6412 0.4720
vt 0.6599 0.6453 0.4689
vt 0.6584 0.6428 0.4673
vt 0.6692 0.6569 0.4722
vt 0.6712 0.6554 0.4742
vt 0.6723 0.6559 0.4745
vt 0.6699 0.6579 0.4722
vt 0.6663 0.6591 0.4687
vt 0.6673 0.6598 0.4690
vt 0.6723 0.6542 0.4754
vt 0.6666 0.6728 0.4602
vt 0.6716 0.6746 0.4636
vt 0.6734 0.6770 0.4630
vt 0.6751 0.6839 0.4591
vt 0.6664 0.6610 0.4676
vt 0.6648 0.6602 0.4664
vt 0.6634 0.6599 0.4650
vt 0.6663 0.6626 0.4666
vt 0.6697 0.6711 0.4644
vt 0.6807 0.6874 0.4598
vt 0.6812 0.6909 0.4577
vt 0.6775 0.6830 0.4612
vt 0.6850 0.6905 0.4590
vt 0.6879 0.6907 0.4595
vt 0.6909 0.6947 0.4578
vt 0.6624 0.6581 0.4645
vt 0.6613 0.6597 0.4618
vt 0.6586 0.6506 0.4632
vt 0.6612 0.6518 0.4667
vt 0.6803 0.6559 0.4783
vt 0.6870 0.6729 0.4708
vt 0.6934 0.6813 0.4658
vt 0.6982 0.6568 0.4786
vt 0.6970 0.6584 0.4780
vt 0.7123 0.6406 0.4805
vt 0.7122 0.6489 0.4765
vt 0.7080 0.6500 0.4784
vt 0.7047 0.6575 0.4760
vt 0.7033 0.6559 0.4775
vt 0.7077 0.6559 0.4754
vt 0.7059 0.6573 0.4756
vt 0.7063 0.6729 0.4669
vt 0.7061 0.6767 0.4645
vt 0.7047 0.6784 0.4641
vt 0.7050 0.6729 0.4676
vt 0.7081 0.6535 0.4767
vt 0.7016 0.6503 0.4811
vt 0.7100 0.6525 0.4760
vt 0.7048 0.6592 0.4751
vt 0.7060 0.6592 0.4745
vt 0.6963 0.6613 0.4768
vt 0.6923 0.6882 0.4615
vt 0.7145 0.6443 0.4767
vt 0.7158 0.6435 0.4759
vt 0.7211 0.6412 0.4720
vt 0.7206 0.6440 0.4711
vt 0.7219 0.6453 0.4689
vt 0.7235 0.6428 0.4673
vt 0.7126 0.6569 0.4722
vt 0.7120 0.6579 0.4722
vt 0.7095 0.6559 0.4745
vt 0.7106 0.6554 0.4742
vt 0.7155 0.6591 0.4687
vt 0.7145 0.6598 0.4690
vt 0.7096 0.6542 0.4754
vt 0.7153 0.6728 0.4602
vt 0.7067 0.6839 0.4591
vt 0.7084 0.6770 0.4630
vt 0.7102 0.6746 0.4636
vt 0.7155 0.6610 0.4676
vt 0.7170 0.6602 0.4664
vt 0.7184 0.6599 0.4650
vt 0.7155 0.6626 0.4666
vt 0.7121 0.6711 0.4644
vt 0.7011 0.6874 0.4598
vt 0.7043 0.6830 0.4612
vt 0.7006 0.6909 0.4577
vt 0.6939 0.6907 0.4595
vt 0.6968 0.6905 0.4590
vt 0.7195 0.6581 0.4645
vt 0.7207 0.6518 0.4667
vt 0.7232 0.6506 0.4632
vt 0.7205 0.6597 0.4618
vt 0.7016 0.6559 0.4783
vt 0.6948 0.6729 0.4708
# 113 texture coords

g cockpit
s 17
f 1/1/1 2/2/2 3/3/3 
s 16
f 4/4/4 5/5/5 6/6/6 7/7/7 
f 8/8/8 9/9/9 10/10/10 
f 11/11/11 12/12/12 13/13/13 14/14/14 
s 17
f 15/15/15 16/16/16 17/17/17 18/18/18 
s 16
f 19/19/19 9/9/9 20/20/20 14/14/14 
f 21/21/21 10/10/10 9/9/9 
f 16/16/16 15/15/15 22/22/22 23/23/23 
f 6/6/6 3/3/3 24/24/24 
s 17
f 25/25/25 2/2/2 1/1/1 
s 16
f 10/10/10 26/26/26 8/8/8 
f 26/26/26 27/27/27 8/8/8 
f 8/8/8 27/27/27 28/28/28 29/29/29 
f 30/30/30 31/31/31 29/29/29 28/28/28 
f 32/32/32 33/33/33 34/34/34 35/35/35 
f 19/19/19 21/21/21 9/9/9 
f 5/5/5 4/4/4 20/20/20 
f 36/36/36 32/32/32 35/35/35 37/37/37 
f 33/33/33 38/38/38 13/13/13 34/34/34 
f 12/12/12 11/11/11 23/23/23 22/22/22 
s 17
f 39/39/39 40/40/40 41/41/41 42/42/42 
s 16
f 43/43/43 44/44/44 36/36/36 37/37/37 
f 45/45/45 44/44/44 43/43/43 46/46/46 
f 46/46/46 47/47/47 39/39/39 
s 17
f 48/48/48 49/49/49 42/42/42 50/50/50 
f 49/49/49 51/51/51 52/52/52 53/53/53 
f 41/41/41 18/18/18 17/17/17 50/50/50 
f 50/50/50 42/42/42 41/41/41 
s 16
f 6/6/6 24/24/24 7/7/7 
s 17
f 53/53/53 52/52/52 25/25/25 1/1/1 
f 51/51/51 49/49/49 48/48/48 
f 40/40/40 39/39/39 47/47/47 
s 16
f 54/54/54 55/55/55 56/56/56 57/57/57 
f 56/56/56 31/31/31 30/30/30 57/57/57 
f 45/45/45 46/46/46 39/39/39 55/55/55 
f 45/45/45 55/55/55 54/54/54 
f 21/21/21 19/19/19 38/38/38 
f 19/19/19 14/14/14 13/13/13 
f 19/19/19 13/13/13 38/38/38 
f 20/20/20 4/4/4 58/58/58 14/14/14 
f 24/24/24 3/3/3 59/59/59 
s 17
f 3/3/3 2/2/2 59/59/59 
f 1/1/1 3/3/3 60/60/60 
s 16
f 61/61/61 62/62/62 6/6/6 5/5/5 
f 63/63/63 64/64/64 65/65/65 
f 66/66/66 67/67/67 68/68/68 69/69/69 
s 17
f 70/70/70 71/71/71 72/72/72 73/73/73 
s 16
f 74/74/74 67/67/67 75/75/75 65/65/65 
f 76/76/76 65/65/65 64/64/64 
f 73/73/73 77/77/77 78/78/78 70/70/70 
f 6/6/6 79/79/79 3/3/3 
s 17
f 80/80/80 1/1/1 60/60/60 
s 16
f 64/64/64 63/63/63 81/81/81 
f 81/81/81 63/63/63 82/82/82 
f 63/63/63 83/83/83 84/84/84 82/82/82 
f 85/85/85 84/84/84 83/83/83 86/86/86 
f 87/87/87 88/88/88 89/89/89 90/90/90 
f 74/74/74 65/65/65 76/76/76 
f 5/5/5 75/75/75 61/61/61 
f 91/91/91 92/92/92 88/88/88 87/87/87 
f 90/90/90 89/89/89 68/68/68 93/93/93 
f 69/69/69 78/78/78 77/77/77 66/66/66 
s 17
f 94/94/94 95/95/95 96/96/96 97/97/97 
s 16
f 98/98/98 92/92/92 91/91/91 99/99/99 
f 100/100/100 101/101/101 98/98/98 99/99/99 
f 101/101/101 94/94/94 102/102/102 
s 17
f 103/103/103 104/104/104 95/95/95 105/105/105 
f 105/105/105 53/53/53 106/106/106 107/107/107 
f 96/96/96 104/104/104 72/72/72 71/71/71 
f 104/104/104 96/96/96 95/95/95 
s 16
f 6/6/6 62/62/62 79/79/79 
s 17
f 53/53/53 1/1/1 80/80/80 106/106/106 
f 107/107/107 103/103/103 105/105/105 
f 97/97/97 102/102/102 94/94/94 
s 16
f 108/108/108 109/109/109 110/110/110 111/111/111 
f 110/110/110 109/109/109 85/85/85 86/86/86 
f 100/100/100 111/111/111 94/94/94 101/101/101 
f 100/100/100 108/108/108 111/111/111 
f 76/76/76 93/93/93 74/74/74 
f 74/74/74 68/68/68 67/67/67 
f 74/74/74 93/93/93 68/68/68 
f 75/75/75 67/67/67 112/112/112 61/61/61 
f 79/79/79 113/113/113 3/3/3 
s 17
f 3/3/3 113/113/113 60/60/60 
# 44 polygons - 40 triangles

