# Blender3D v249 OBJ File: 
# www.blender3d.org
o boa2_cpit
v 0.000800 3.587200 -2.697000
v -1.221400 3.399700 -2.801100
v -1.221400 4.368200 -2.906600
v 0.000800 4.575300 -2.851000
v 1.223000 3.399700 -2.801100
v 1.223000 4.368200 -2.906600
vt 0.659100 0.737700
vt 0.704900 0.730700
vt 0.704900 0.767000
vt 0.659100 0.774800
vt 0.613200 0.730700
vt 0.613200 0.767000
vn 0.085674 -0.130993 -0.987674
vn -0.085674 -0.130993 -0.987674
usemtl (null)
s off
f 1/1/1 2/2/1 3/3/1 4/4/1
f 5/5/2 1/1/2 4/4/2 6/6/2
