# 3ds Max Wavefront OBJ Exporter v0.97b - (c)2007 guruware
# File Created: 11.05.2012 09:45:24

mtllib laser.mtl

#
# object Object01
#

v  -0.2500 -0.0700 -1.3775
v  -0.2500 -0.0700 -1.8492
v  -0.2500 -0.4300 -1.8492
v  -0.2500 -0.4300 -1.3775
v  0.2500 -0.0700 -1.3775
v  0.2500 -0.4300 -1.3775
v  0.2500 -0.4300 -1.8492
v  0.2500 -0.0700 -1.8492
v  0.1892 0.0000 -1.3467
v  0.0000 0.0000 -1.2508
v  0.0000 -0.5000 -1.2508
v  0.1892 -0.5000 -1.3467
v  -0.1892 -0.5000 -1.3467
v  -0.1892 0.0000 -1.3467
v  0.2500 -0.2500 0.9116
v  0.2500 0.0000 0.9116
v  -0.2500 0.0000 0.9116
v  -0.2500 -0.2500 0.9116
v  0.2500 -0.4400 0.5351
v  -0.2500 -0.4400 0.5351
v  -0.2500 -0.4401 0.2966
v  0.2500 -0.4401 0.2966
v  0.2500 -0.0599 0.2966
v  -0.2500 -0.0599 0.2966
v  -0.2500 -0.0600 0.5351
v  0.2500 -0.0600 0.5351
v  -0.2500 -0.5000 0.9116
v  0.2500 -0.5000 0.9116
v  0.2500 -0.2500 -1.0258
v  0.2500 -0.4392 -1.1216
v  0.1800 -0.5000 -1.1524
v  -0.2500 -0.4392 -1.1216
v  -0.1800 -0.5000 -1.1524
v  -0.2500 -0.2500 -1.0258
v  -0.2500 -0.0608 -1.1216
v  -0.1800 0.0000 -1.1524
v  0.1800 0.0000 -1.1524
v  0.2500 -0.0608 -1.1216
v  -0.2500 -0.2500 0.3040
v  -0.2500 -0.2500 0.5861
v  -0.2500 -0.5000 0.5648
v  -0.2500 0.0000 0.5648
v  0.2500 -0.5000 0.5648
v  0.1800 -0.5000 0.2643
v  -0.1800 -0.5000 0.2643
v  -0.1800 0.0000 0.2643
v  0.1800 0.0000 0.2643
v  0.2500 0.0000 0.5648
v  -0.1800 -0.5000 -1.8492
v  0.1800 -0.5000 -1.8492
v  0.2500 -0.2500 0.3040
v  0.2500 -0.2500 0.5861
v  -0.1800 0.0000 -1.8492
v  0.1800 0.0000 -1.8492
v  -0.2500 -0.4300 -1.4989
v  -0.1800 -0.5000 -1.4989
v  0.1800 -0.5000 -1.4989
v  0.2500 -0.4300 -1.4989
v  0.2500 -0.0700 -1.4989
v  0.1800 0.0000 -1.4989
v  -0.1800 0.0000 -1.4989
v  -0.2500 -0.0700 -1.4989
v  0.0000 0.0000 -1.8492
v  0.0000 -0.5000 -1.8492
v  -0.2500 -0.2500 -1.4989
v  0.2500 -0.2500 -1.4989
v  0.1750 -0.2474 -0.9532
v  0.0875 -0.3989 -0.9532
v  0.0875 -0.3989 -2.0860
v  0.1750 -0.2474 -2.0860
v  -0.0875 -0.3989 -0.9532
v  -0.0875 -0.3989 -2.0860
v  -0.1750 -0.2474 -0.9532
v  -0.1750 -0.2474 -2.0860
v  -0.0875 -0.0958 -0.9532
v  -0.0875 -0.0958 -2.0860
v  0.0875 -0.0958 -0.9532
v  0.0875 -0.0958 -2.0860
v  -0.2500 -0.4300 -1.5444
v  0.2500 -0.4300 -1.5444
v  0.1800 -0.5000 -1.5444
v  -0.1800 -0.5000 -1.5444
v  0.2500 -0.0700 -1.5444
v  -0.2500 -0.0700 -1.5444
v  -0.1800 0.0000 -1.5444
v  0.1800 0.0000 -1.5444
v  -0.2500 -0.2500 -1.5444
v  0.2500 -0.2500 -1.5444
v  0.1800 -0.5000 -1.7889
v  0.2500 -0.4300 -1.7889
v  0.2500 -0.0700 -1.7889
v  0.1800 0.0000 -1.7889
v  -0.1800 0.0000 -1.7889
v  -0.2500 -0.0700 -1.7889
v  -0.2500 -0.4300 -1.7889
v  -0.1800 -0.5000 -1.7889
v  0.0000 0.0000 -1.7889
v  0.0000 -0.5000 -1.7889
# 98 vertices

vn -0.9227 0.3856 -0.0000
vn -0.9252 0.3793 -0.0056
vn -0.9252 -0.3793 -0.0056
vn -0.9227 -0.3856 -0.0000
vn 0.9203 0.3912 -0.0065
vn 0.9203 -0.3912 -0.0065
vn 0.9239 -0.3827 -0.0000
vn 0.9239 0.3827 -0.0000
vn 0.4946 0.0000 0.8691
vn 0.0000 0.0000 1.0000
vn -0.4946 0.0000 0.8691
vn 0.0000 -1.0000 0.0002
vn -0.2540 -0.9420 0.2194
vn 0.2540 -0.9420 0.2194
vn 0.2541 0.9419 0.2196
vn -0.2541 0.9419 0.2196
vn 0.0000 1.0000 0.0002
vn -0.0000 -0.0000 -1.0000
vn -0.0000 0.4946 -0.8691
vn 0.0000 0.4946 -0.8691
vn 0.0000 0.0000 -1.0000
vn 0.0000 -0.4946 -0.8691
vn -0.0000 -0.4946 -0.8691
vn -1.0000 0.0000 -0.0000
vn 0.0000 -1.0000 -0.0000
vn -0.3049 -0.9524 -0.0000
vn 0.3049 -0.9524 -0.0000
vn 0.2591 -0.8734 0.4124
vn -0.2591 -0.8734 0.4124
vn 0.3048 0.9524 -0.0002
vn -0.3048 0.9524 -0.0002
vn -0.2590 0.8734 0.4125
vn 0.2590 0.8734 0.4125
vn 0.0000 1.0000 -0.0000
vn 0.0000 -0.4857 -0.8741
vn 0.0000 0.4857 -0.8741
vn -0.7071 -0.7071 -0.0115
vn -0.7482 -0.6634 -0.0016
vn 0.7517 -0.6594 -0.0122
vn 0.7122 -0.7019 -0.0014
vn -0.6561 0.7547 -0.0004
vn -0.6558 -0.7549 -0.0000
vn 1.0000 0.0000 -0.0000
vn -0.7482 0.6634 -0.0016
vn -0.7071 0.7071 -0.0115
vn 0.7122 0.7019 -0.0014
vn 0.7517 0.6594 -0.0122
vn 0.6561 0.7547 -0.0004
vn 0.6558 -0.7549 -0.0000
vn 0.5000 -0.8660 0.0000
vn 1.0000 -0.0000 0.0000
vn -0.5000 -0.8660 0.0000
vn -1.0000 0.0000 0.0000
vn -0.5000 0.8660 -0.0000
vn 0.5000 0.8660 -0.0000
# 55 vertex normals

vt 0.2349 0.2725 0.0000
vt 0.2349 0.5232 0.0000
vt 0.0436 0.5232 0.0000
vt 0.0436 0.2725 0.0000
vt 0.2679 0.0492 0.0000
vt 0.2679 0.1419 0.0000
vt 0.0101 0.1419 0.0000
vt 0.0101 0.0492 0.0000
vt 0.0101 0.2347 0.0000
vt 0.2679 0.2347 0.0000
vt 0.2318 0.2708 0.0000
vt 0.0462 0.2708 0.0000
vt 0.2333 0.6833 0.0000
vt 0.2333 0.8000 0.0000
vt 0.0000 0.8000 0.0000
vt 0.0000 0.6833 0.0000
vt 0.7476 0.1880 0.0000
vt 0.9898 0.1880 0.0000
vt 0.9898 0.3036 0.0000
vt 0.7476 0.3036 0.0000
vt 0.0000 0.5667 0.0000
vt 0.2333 0.5667 0.0000
vt 0.4860 0.6762 0.0000
vt 0.4860 0.5825 0.0000
vt 0.4514 0.5524 0.0000
vt 0.2384 0.5825 0.0000
vt 0.2731 0.5524 0.0000
vt 0.2384 0.6762 0.0000
vt 0.2384 0.7699 0.0000
vt 0.2731 0.8000 0.0000
vt 0.4514 0.8000 0.0000
vt 0.4860 0.7699 0.0000
vt 0.6265 0.9443 0.0000
vt 0.5348 0.9907 0.0000
vt 0.5344 0.3036 0.0000
vt 0.6265 0.3000 0.0000
vt 0.5054 0.0056 0.0000
vt 0.6265 0.0056 0.0000
vt 0.6265 0.1633 0.0000
vt 0.5054 0.1736 0.0000
vt 0.7476 0.0056 0.0000
vt 0.7476 0.1736 0.0000
vt 0.7476 0.9907 0.0000
vt 0.9898 0.0056 0.0000
vt 0.9898 0.1736 0.0000
vt 0.9559 1.0056 0.0000
vt 0.7815 1.0056 0.0000
vt 0.7815 0.3192 0.0000
vt 0.9559 0.3192 0.0000
vt 0.5344 0.1880 0.0000
vt 0.0064 0.5232 0.0000
vt 0.0064 0.2561 0.0000
vt 0.9898 0.9907 0.0000
vt 0.6247 0.0056 0.0000
vt 0.2721 0.2561 0.0000
vt 0.2721 0.5232 0.0000
vt 0.2318 0.0131 0.0000
vt 0.0462 0.0131 0.0000
vt 0.0101 0.0492 0.5000
vt 0.0462 0.0131 0.5000
vt 0.2318 0.0131 0.5000
vt 0.2679 0.0492 0.5000
vt 0.2679 0.2347 0.5000
vt 0.2318 0.2708 0.5000
vt 0.0462 0.2708 0.5000
vt 0.0101 0.2347 0.5000
vt 0.0101 0.1419 0.5000
vt 0.2679 0.1419 0.5000
vt 0.4946 0.0064 0.9990
vt 0.4242 0.0064 0.9990
vt 0.4242 0.4110 0.9990
vt 0.4946 0.4110 0.9990
vt 0.3538 0.0064 0.9990
vt 0.3538 0.4110 0.9990
vt 0.2834 0.0064 0.9990
vt 0.2834 0.4110 0.9990
vt 0.1599 0.8155 0.0000
vt 0.0662 0.8155 0.0000
vt 0.0194 0.8966 0.0000
vt 0.1599 0.9778 0.0000
vt 0.0662 0.9778 0.0000
vt 0.2068 0.8966 0.0000
# 82 texture coords

g Object01
usemtl 01___Default
s 1
f 1/1/1 2/2/2 3/3/3 4/4/4 
f 5/1/5 6/4/6 7/3/7 8/2/8 
s 2
f 9/5/9 10/6/10 11/7/10 12/8/9 
f 13/9/11 14/10/11 1/11/11 4/12/11 
s 1
f 15/13/10 16/14/10 17/15/10 18/16/10 
s 2
f 19/17/12 20/18/12 21/19/13 22/20/14 
f 23/19/15 24/20/16 25/17/17 26/18/17 
s 1
f 15/13/10 18/16/10 27/21/10 28/22/10 
f 29/23/18 30/24/19 31/25/19 32/26/20 
f 31/25/19 33/27/20 32/26/20 
f 34/28/21 29/23/18 32/26/20 
f 35/29/22 36/30/22 37/31/23 29/23/18 
f 37/31/23 38/32/23 29/23/18 
f 34/28/21 35/29/22 29/23/18 
s 8
f 34/33/24 32/34/24 21/35/24 39/36/24 
f 27/37/24 18/38/24 40/39/24 41/40/24 
f 40/39/24 18/38/24 17/41/24 42/42/24 
f 24/20/24 35/43/24 34/33/24 39/36/24 
s 4
f 28/41/25 27/44/25 41/45/25 43/42/25 
s 2
f 33/46/26 31/47/27 44/48/28 45/49/29 
f 37/46/30 36/47/31 46/48/32 47/49/33 
s 4
f 17/41/34 16/44/34 48/45/34 42/42/34 
s 2
f 45/49/29 44/48/28 22/20/14 21/19/13 
s 1
f 20/18/35 19/17/35 43/42/35 41/45/35 
f 42/42/36 48/45/36 26/18/36 25/17/36 
s 2
f 24/20/16 23/19/15 47/49/33 46/48/32 
s 8
f 41/40/24 40/39/24 20/50/24 
f 20/50/24 40/39/24 39/36/24 21/35/24 
f 42/42/24 25/17/24 40/39/24 
f 39/36/24 40/39/24 25/17/24 24/20/24 
s 1
f 3/3/3 49/51/37 13/52/38 4/4/4 
f 6/4/6 12/52/39 50/51/40 7/3/7 
s 2
f 36/47/31 35/43/41 24/20/16 46/48/32 
f 45/49/29 21/19/13 32/53/42 33/46/26 
s 8
f 29/33/43 51/36/43 22/20/43 30/43/43 
f 28/41/43 43/42/43 52/39/43 15/54/43 
f 52/39/43 48/40/43 16/37/43 15/54/43 
f 23/35/43 51/36/43 29/33/43 38/34/43 
f 43/42/43 19/17/43 52/39/43 
f 19/17/43 22/20/43 51/36/43 52/39/43 
f 48/40/43 52/39/43 26/50/43 
f 51/36/43 23/35/43 26/50/43 52/39/43 
s 1
f 2/2/2 1/1/1 14/55/44 53/56/45 
f 5/1/5 8/2/8 54/56/46 9/55/47 
s 2
f 37/46/30 47/49/33 23/19/15 38/53/48 
f 44/48/28 31/47/27 30/43/49 22/20/14 
f 50/8/21 54/5/21 8/57/21 7/58/21 
f 53/10/21 49/9/21 3/12/21 2/11/21 
s 32
f 55/59/10 56/60/10 57/61/10 58/62/10 
f 59/63/10 60/64/10 61/65/10 62/66/10 
s 2
f 63/6/21 64/7/21 49/9/21 53/10/21 
f 64/7/21 63/6/21 54/5/21 50/8/21 
s 32
f 65/67/10 55/59/10 58/62/10 66/68/10 
f 66/68/10 59/63/10 62/66/10 65/67/10 
s 2
f 11/7/10 10/6/10 14/10/11 13/9/11 
f 6/58/9 5/57/9 9/5/9 12/8/9 
s 8
f 67/69/43 68/70/50 69/71/50 70/72/51 
f 68/70/50 71/73/52 72/74/52 69/71/50 
f 71/73/52 73/75/53 74/76/24 72/74/52 
f 73/75/53 75/73/54 76/74/54 74/76/24 
f 75/73/54 77/70/55 78/71/55 76/74/54 
f 77/70/55 67/69/43 70/72/51 78/71/55 
s 1
f 69/77/21 72/78/21 74/79/21 78/80/21 
f 74/79/21 76/81/21 78/80/21 
f 70/82/21 69/77/21 78/80/21 
s 32
f 79/59/21 80/62/21 81/61/21 82/60/21 
f 83/63/21 84/66/21 85/65/21 86/64/21 
f 87/67/21 88/68/21 80/62/21 79/59/21 
f 88/68/21 87/67/21 84/66/21 83/63/21 
s 2
f 89/8/10 90/58/10 91/57/10 92/5/10 
f 93/10/10 94/11/10 95/12/10 96/9/10 
f 97/6/10 93/10/10 96/9/10 98/7/10 
f 98/7/10 89/8/10 92/5/10 97/6/10 
# 63 polygons - 10 triangles

