# Blender v2.62 (sub 0) OBJ File: 'test_gun.blend'
# www.blender.org
mtllib test_gun.mtl
o Cube_Cube.002
v 0.000000 -0.126889 -0.947180
v 0.038124 -0.111097 -0.947180
v 0.053916 -0.072973 -0.947180
v 0.038124 -0.034848 -0.947180
v -0.000000 -0.019057 -0.947179
v -0.038124 -0.034848 -0.947180
v -0.053916 -0.072973 -0.947180
v -0.038124 -0.111097 -0.947180
v -0.000000 -0.126889 -1.434317
v 0.038124 -0.111097 -1.434317
v 0.053916 -0.072973 -1.434317
v 0.038124 -0.034848 -1.434317
v -0.000000 -0.019057 -1.434317
v -0.038124 -0.034848 -1.434317
v -0.053916 -0.072973 -1.434317
v -0.038124 -0.111097 -1.434317
v 0.000000 -0.072973 -1.434317
v 0.000000 -0.010579 -0.981179
v 0.055694 0.012490 -0.981179
v 0.078764 0.068185 -0.981179
v 0.055694 0.123879 -0.981179
v -0.000000 0.146948 -0.981179
v -0.055694 0.123879 -0.981179
v -0.078764 0.068185 -0.981179
v -0.055694 0.012490 -0.981179
v -0.000000 -0.010579 -1.959513
v 0.055694 0.012490 -1.959513
v 0.078764 0.068185 -1.959513
v 0.055694 0.123879 -1.959513
v -0.000000 0.146948 -1.959513
v -0.055694 0.123879 -1.959513
v -0.078764 0.068185 -1.959513
v -0.055694 0.012490 -1.959513
v 0.000000 0.068185 -1.959513
v 0.222988 -0.279678 -0.825493
v 0.222988 -0.279678 0.956065
v -0.222988 -0.279678 0.956065
v -0.222988 -0.279678 -0.825493
v 0.179133 0.279678 -0.936811
v 0.179133 0.279678 1.000001
v -0.179133 0.279678 1.000000
v -0.179133 0.279678 -0.936811
v 0.222988 0.231445 1.000000
v 0.222988 0.231445 -1.000000
v -0.222988 0.231445 1.000000
v -0.222988 0.231445 -1.000000
v 0.222988 -0.156234 1.000000
v 0.222988 -0.156234 -1.000000
v -0.222988 -0.156234 1.000000
v -0.222988 -0.156234 -1.000000
v -0.000000 -0.126889 -1.434317
v -0.038124 -0.111097 -1.434317
v -0.053916 -0.072973 -1.434317
v -0.038124 -0.034848 -1.434317
v -0.000000 -0.019057 -1.434317
v 0.038124 -0.034848 -1.434317
v 0.053916 -0.072973 -1.434317
v 0.038124 -0.111097 -1.434317
v -0.000000 -0.010579 -1.959513
v -0.055694 0.012490 -1.959513
v -0.078764 0.068185 -1.959513
v -0.055694 0.123879 -1.959513
v -0.000000 0.146948 -1.959513
v 0.055694 0.123879 -1.959513
v 0.078764 0.068185 -1.959513
v 0.055694 0.012490 -1.959513
v 0.222988 -0.279678 0.956065
v 0.222988 -0.279678 0.956065
v 0.222988 -0.279678 -0.825493
v 0.222988 -0.279678 -0.825493
v -0.222988 -0.279678 -0.825493
v -0.222988 -0.279678 -0.825493
v -0.222988 -0.279678 0.956065
v -0.222988 -0.279678 0.956065
v -0.222988 -0.156234 1.000000
v -0.222988 0.231445 1.000000
v -0.179133 0.279678 1.000000
v 0.179133 0.279678 1.000001
v 0.222988 0.231445 1.000000
v 0.222988 -0.156234 1.000000
v -0.222988 -0.156234 -1.000000
v -0.222988 0.231445 -1.000000
v -0.179133 0.279678 -0.936811
v 0.179133 0.279678 -0.936811
v 0.222988 0.231445 -1.000000
v 0.222988 -0.156234 -1.000000
vt 0.127739 0.725367
vt 0.159058 0.704909
vt 0.159055 0.735712
vt 0.140715 0.686090
vt 0.114771 0.690278
vt 0.096423 0.715021
vt 0.096421 0.745825
vt 0.114764 0.764644
vt 0.140708 0.760455
vt 0.657072 0.769719
vt 0.656816 0.686380
vt 0.686065 0.686290
vt 0.686321 0.769629
vt 0.448601 0.686290
vt 0.448857 0.769629
vt 0.425536 0.769700
vt 0.425281 0.686362
vt 0.402216 0.769772
vt 0.401960 0.686433
vt 0.401960 0.686470
vt 0.401704 0.769808
vt 0.372455 0.769719
vt 0.372711 0.686380
vt 0.343206 0.769629
vt 0.343461 0.686290
vt 0.627567 0.686433
vt 0.627311 0.769772
vt 0.603991 0.769700
vt 0.604246 0.686362
vt 0.580670 0.769629
vt 0.580926 0.686290
vt 0.627823 0.769808
vt 0.627567 0.686470
vt 0.045752 0.743468
vt 0.091504 0.713582
vt 0.091500 0.758581
vt 0.064707 0.686090
vt 0.026807 0.692209
vt 0.000004 0.728355
vt 0.000000 0.773354
vt 0.026797 0.800846
vt 0.064697 0.794727
vt 0.270950 0.853592
vt 0.270436 0.686221
vt 0.313165 0.686090
vt 0.313679 0.853461
vt 0.227194 0.686090
vt 0.227707 0.853461
vt 0.193639 0.853566
vt 0.193126 0.686194
vt 0.159571 0.853670
vt 0.159058 0.686299
vt 0.686835 0.853682
vt 0.686321 0.686310
vt 0.729050 0.686179
vt 0.729564 0.853550
vt 0.771779 0.686048
vt 0.772293 0.853419
vt 0.840942 0.686257
vt 0.840429 0.853628
vt 0.806361 0.853524
vt 0.806874 0.686152
vt 0.772806 0.686048
vt 0.228221 0.853723
vt 0.227707 0.686352
vt 0.686321 0.001008
vt 0.991107 0.000073
vt 0.992156 0.342229
vt 0.687371 0.343164
vt 0.308544 0.332292
vt 0.033679 0.331449
vt 0.034695 0.000103
vt 0.309560 0.000946
vt 0.342156 0.343206
vt 0.343206 0.001050
vt 0.343206 0.030434
vt 0.376761 0.000843
vt 0.651626 0.000000
vt 0.685362 0.029385
vt 0.001050 0.000000
vt 0.000000 0.342156
vt 0.651626 0.343164
vt 0.685362 0.372551
vt 0.343206 0.373601
vt 0.376761 0.344007
vt 0.000935 0.372828
vt 0.076537 0.343206
vt 0.075487 0.685362
vt 0.000000 0.677614
vt 0.313679 0.343933
vt 0.312629 0.686090
vt 0.344165 0.343164
vt 0.343933 0.267447
vt 0.686089 0.266397
vt 0.686321 0.342114
vt 1.000000 0.677572
vt 0.924513 0.685320
vt 0.923463 0.343164
vt 0.999065 0.372787
vt 0.687371 0.686048
vt 0.686321 0.343892
vt 0.686089 0.609693
vt 0.343933 0.610743
vt 0.686321 0.685241
vt 0.344165 0.686290
vn 0.000000 0.000000 -0.999969
vn 0.000000 0.000000 -1.000000
vn 0.000000 -1.000000 0.000000
vn 0.707083 -0.707083 0.000000
vn 1.000000 0.000000 0.000000
vn 0.707083 0.707083 0.000000
vn 0.000000 1.000000 0.000000
vn -0.707083 0.707083 0.000000
vn -1.000000 0.000000 0.000000
vn -0.707083 -0.707083 0.000000
vn 0.000000 -0.999969 0.000000
vn 0.482284 0.875973 0.000000
vn -0.482284 0.875973 0.000000
vn -0.404492 0.914518 0.000000
vn 0.404492 0.914518 0.000000
vn 0.970336 0.241676 0.000000
vn 0.932707 0.360607 0.000000
vn 0.000000 0.000000 1.000000
vn -0.932707 0.360607 0.000000
vn -0.970336 0.241676 0.000000
vn 0.000000 0.794885 -0.606739
vn 0.000000 0.357067 -0.934049
vn 0.999969 0.000000 0.000000
vn 0.000000 -0.335307 0.942106
vn 0.000000 -0.170110 0.985412
vn -0.999969 0.000000 0.000000
vn 0.000000 -0.459609 -0.888089
vn 0.000000 -0.816370 -0.577502
g Cube_Cube.002_GunMaterial_white.png
usemtl GunMaterial_white.png
s 1
f 17/1/1 10/2/2 9/3/1
f 17/1/1 11/4/2 10/2/2
f 17/1/1 12/5/2 11/4/2
f 17/1/1 13/6/2 12/5/2
f 17/1/1 14/7/2 13/6/2
f 17/1/1 15/8/2 14/7/2
f 17/1/1 16/9/2 15/8/2
f 17/1/1 9/3/1 16/9/2
f 1/10/3 51/11/3 58/12/4 2/13/4
f 2/14/4 58/15/4 57/16/5 3/17/5
f 3/17/5 57/16/5 56/18/6 4/19/6
f 4/20/6 56/21/6 55/22/7 5/23/7
f 5/23/7 55/22/7 54/24/8 6/25/8
f 6/26/8 54/27/8 53/28/9 7/29/9
f 7/29/9 53/28/9 52/30/10 8/31/10
f 51/11/3 1/10/3 8/32/10 52/33/10
f 34/34/2 27/35/2 26/36/2
f 34/34/2 28/37/2 27/35/2
f 34/34/2 29/38/2 28/37/2
f 34/34/2 30/39/2 29/38/2
f 34/34/2 31/40/2 30/39/2
f 34/34/2 32/41/2 31/40/2
f 34/34/2 33/42/2 32/41/2
f 34/34/2 26/36/2 33/42/2
f 18/43/3 59/44/3 66/45/4 19/46/4
f 19/47/4 66/48/4 65/49/5 20/50/5
f 20/50/5 65/49/5 64/51/6 21/52/6
f 21/53/6 64/54/6 63/55/7 22/56/7
f 22/56/7 63/55/7 62/57/8 23/58/8
f 23/59/8 62/60/8 61/61/9 24/62/9
f 24/62/9 61/61/9 60/58/10 25/63/10
f 59/44/3 18/43/3 25/64/10 60/65/10
f 35/66/11 36/67/3 37/68/11 38/69/3
f 39/70/12 42/71/13 41/72/14 40/73/15
f 44/74/16 39/70/12 40/73/15 43/75/17
f 79/76/18 78/77/18 77/78/18 45/79/18
f 76/80/19 41/72/14 42/71/13 46/81/20
f 84/82/21 85/83/22 82/84/22 83/85/21
f 70/86/23 48/87/5 47/88/5 68/89/23
f 48/87/5 44/90/16 43/91/17 47/88/5
f 67/92/24 80/93/25 49/94/25 74/95/24
f 80/93/25 79/76/18 45/79/18 49/94/25
f 73/96/9 75/97/9 50/98/9 72/99/26
f 75/97/9 76/100/19 46/101/20 50/98/9
f 85/83/22 86/102/27 81/103/27 82/84/22
f 86/102/27 69/104/28 71/105/28 81/103/27
