o gearl
v -2.962500 -2.970650 2.138380
v -2.962500 -2.970649 6.266730
v -3.328125 -2.923746 2.318846
v -3.328125 -2.923746 6.266730
v -3.693750 -2.876842 2.499312
v -3.693750 -2.876842 6.266730
v -4.059375 -2.829938 2.679778
v -4.425000 -2.783034 2.860244
v -4.425000 -2.783034 6.266730
v -4.059375 -2.829937 6.266730
vt 0.281114 0.291281
vt 0.272806 0.295348
vt 0.272806 0.202310
vt 0.281114 0.202310
vt 0.289421 0.287214
vt 0.289421 0.202310
vt 0.297729 0.283147
vt 0.297729 0.202310
vt 0.306036 0.279080
vt 0.306036 0.202310
vn -0.127241 -0.991872 0.000000
vn -0.127242 -0.991872 0.000000
s off
f 3/1/1 1/2/1 2/3/1
f 2/3/1 4/4/1 3/1/1
f 4/4/2 5/5/2 3/1/2
f 4/4/2 6/6/2 5/5/2
f 6/6/2 7/7/2 5/5/2
f 6/6/2 10/8/2 7/7/2
f 10/8/1 8/9/1 7/7/1
f 10/8/1 9/10/1 8/9/1
