o win_on
v -4.259545 2.268721 -5.812062
v -6.032290 2.268721 -4.569499
v -6.032290 3.251073 -4.569499
v -4.259545 3.251073 -5.812062
v 6.141381 3.269587 -4.523590
v 4.363610 3.269587 -5.758953
v 4.363610 4.251938 -5.758953
v 6.141381 4.251939 -4.523590
v 8.430150 2.268721 -2.933141
v 6.652380 2.268721 -4.168502
v 6.652380 3.251073 -4.168502
v 8.430150 3.251073 -2.933141
v -0.409718 2.268721 -6.101525
v -3.260580 2.268721 -6.101526
v -3.260580 3.251073 -6.101526
v -0.409718 3.251073 -6.101525
v -3.260581 2.268721 6.138167
v -0.409718 2.268721 6.138168
v -0.409718 3.251073 6.138168
v -3.260581 3.251073 6.138167
v -6.541840 3.251073 -4.212338
v -8.314586 3.251073 -2.969774
v -8.314586 2.268721 -2.969774
v -6.541840 2.268721 -4.212338
v 6.141381 3.251073 -4.523590
v 4.363610 3.251073 -5.758953
v 4.363610 2.268721 -5.758953
v 6.141381 2.268721 -4.523590
v 0.409725 3.251073 6.138167
v 3.260588 3.251073 6.138167
v 3.260588 2.268721 6.138167
v 0.409725 2.268721 6.138167
v -8.916595 4.251939 0.291364
v -8.916595 4.251939 2.294338
v -8.916595 3.269588 2.294338
v -8.916595 3.269588 0.291364
v 8.907599 3.251073 2.294338
v 8.907600 3.251073 0.291364
v 8.907600 2.268721 0.291364
v 8.907599 2.268721 2.294338
v 8.907599 4.251939 -0.284364
v 8.907599 4.251939 -2.287338
v 8.907599 3.269587 -2.287338
v 8.907599 3.269587 -0.284364
v -8.916595 4.251939 -2.287338
v -8.916595 4.251939 -0.284364
v -8.916595 3.269587 -0.284364
v -8.916595 3.269587 -2.287338
v -8.916595 3.251073 -2.287338
v -8.916595 3.251073 -0.284364
v -8.916595 2.268721 -0.284364
v -8.916595 2.268721 -2.287338
v 0.409725 4.251939 6.138167
v 3.260588 4.251939 6.138167
v 3.260588 3.269588 6.138167
v 0.409725 3.269588 6.138167
v -0.409718 4.251938 -6.101525
v -3.260580 4.251938 -6.101526
v -3.260580 3.269587 -6.101526
v -0.409718 3.269587 -6.101525
vt -1.006246 0.006250
vt 0.993754 0.006250
vt 0.993754 1.006250
vt -1.006246 1.006250
vn -0.573971 0.000000 -0.818876
vn 0.570645 0.000000 -0.821197
vn 0.000000 0.000000 -1.000000
vn -0.000000 0.000000 1.000000
vn -0.573971 -0.000000 -0.818875
vn -1.000000 0.000000 0.000000
vn 1.000000 0.000000 0.000000
usemtl 001
s off
f 1/1/1 2/2/1 3/3/1 4/4/1
f 5/1/2 6/2/2 7/3/2 8/4/2
f 9/1/2 10/2/2 11/3/2 12/4/2
f 13/1/3 14/2/3 15/3/3 16/4/3
f 17/1/4 18/2/4 19/3/4 20/4/4
f 22/3/5 21/4/5 24/1/5 23/2/5
f 28/1/2 27/2/2 26/3/2 25/4/2
f 32/1/4 31/2/4 30/3/4 29/4/4
f 36/1/6 35/2/6 34/3/6 33/4/6
f 40/1/7 39/2/7 38/3/7 37/4/7
f 44/1/7 43/2/7 42/3/7 41/4/7
f 48/1/6 47/2/6 46/3/6 45/4/6
f 52/1/6 51/2/6 50/3/6 49/4/6
f 56/1/4 55/2/4 54/3/4 53/4/4
f 60/1/3 59/2/3 58/3/3 57/4/3
