o win_4_0
v -0.409718 5.918149 3.049043
v -3.260580 5.918149 3.049043
v -3.260580 4.935797 3.049043
v -0.409718 4.935797 3.049043
v 3.260587 4.935797 3.049043
v 0.409724 4.935797 3.049042
v 0.409724 5.918149 3.049042
v 3.260587 5.918149 3.049043
v 0.409725 5.918149 -3.020241
v 3.260587 5.918149 -3.020240
v 3.260587 4.935797 -3.020240
v 0.409725 4.935797 -3.020241
v -3.260580 5.918149 -3.020241
v -0.409718 5.918149 -3.020240
v -0.409718 4.935797 -3.020240
v -3.260580 4.935797 -3.020241
v 6.175535 2.268722 4.512779
v 4.402791 2.268722 5.755342
v 4.402791 3.251074 5.755342
v 6.175535 3.251074 4.512778
v 8.457830 3.251073 2.913054
v 6.685085 3.251073 4.155619
v 6.685085 2.268722 4.155619
v 8.457830 2.268721 2.913054
v 8.457830 3.269588 2.913054
v 6.685085 3.269588 4.155619
v 6.685085 4.251940 4.155619
v 8.457830 4.251940 2.913054
v 6.175535 3.269588 4.512778
v 4.402791 3.269588 5.755342
v 4.402791 4.251940 5.755342
v 6.175535 4.251940 4.512778
vt 0.993754 1.006250
vt -1.006246 1.006250
vt -1.006246 0.006250
vt 0.993754 0.006250
vn 0.000000 0.000000 1.000000
vn 0.000000 0.000000 -1.000000
vn 0.573962 0.000000 0.818873
s off
f 1/1/1 2/2/1 3/3/1 4/4/1
f 6/3/1 5/4/1 8/1/1 7/2/1
f 9/1/2 10/2/2 11/3/2 12/4/2
f 13/1/2 14/2/2 15/3/2 16/4/2
f 18/3/3 17/4/3 20/1/3 19/2/3
f 21/1/3 22/2/3 23/3/3 24/4/3
f 26/3/3 25/4/3 28/1/3 27/2/3
f 30/3/3 29/4/3 32/1/3 31/2/3
