# Dump of LMR model 'spacestation_door' LOD 2 [static]
mtllib spacestation_door_lod2_static.mtl
o spacestation_door_lod2_static
v -100.000000 0.000000 50.000000
v 100.000000 0.000000 50.000000
v 100.000000 0.000000 -50.000000
v -100.000000 0.000000 -50.000000
v -100.000000 0.000000 -50.000000
v 100.000000 0.000000 -50.000000
v 100.000000 0.000000 50.000000
v -100.000000 0.000000 50.000000
v -10.000000 0.000000 -20.000000
v -30.000000 0.000000 -20.000000
v -70.000000 0.000000 20.000000
v -50.000000 0.000000 20.000000
v 30.000000 0.000000 -20.000000
v 10.000000 0.000000 -20.000000
v -30.000000 0.000000 20.000000
v -10.000000 0.000000 20.000000
v 70.000000 0.000000 -20.000000
v 50.000000 0.000000 -20.000000
v 10.000000 0.000000 20.000000
v 30.000000 0.000000 20.000000
v 10.000000 0.000000 -20.000000
v 30.000000 0.000000 -20.000000
v 70.000000 0.000000 20.000000
v 50.000000 0.000000 20.000000
v -30.000000 0.000000 -20.000000
v -10.000000 0.000000 -20.000000
v 30.000000 0.000000 20.000000
v 10.000000 0.000000 20.000000
v -70.000000 0.000000 -20.000000
v -50.000000 0.000000 -20.000000
v -10.000000 0.000000 20.000000
v -30.000000 0.000000 20.000000
# 32 vertices
vt -9.000000 -0.500000
vt 8.000000 -0.500000
vt 8.000000 -0.500000
vt -9.000000 -0.500000
vt -9.000000 -0.500000
vt 8.000000 -0.500000
vt 8.000000 -0.500000
vt -9.000000 -0.500000
vt -1.350000 -0.500000
vt -3.050000 -0.500000
vt -6.450000 -0.500000
vt -4.750000 -0.500000
vt 2.050000 -0.500000
vt 0.350000 -0.500000
vt -3.050000 -0.500000
vt -1.350000 -0.500000
vt 5.450000 -0.500000
vt 3.750000 -0.500000
vt 0.350000 -0.500000
vt 2.050000 -0.500000
vt 0.350000 -0.500000
vt 2.050000 -0.500000
vt 5.450000 -0.500000
vt 3.750000 -0.500000
vt -3.050000 -0.500000
vt -1.350000 -0.500000
vt 2.050000 -0.500000
vt 0.350000 -0.500000
vt -6.450000 -0.500000
vt -4.750000 -0.500000
vt -1.350000 -0.500000
vt -3.050000 -0.500000
# 32 texture coords
vn 0.000000 1.000000 0.000000
vn 0.000000 1.000000 0.000000
vn 0.000000 1.000000 0.000000
vn 0.000000 1.000000 0.000000
vn -0.000000 -1.000000 0.000000
vn -0.000000 -1.000000 0.000000
vn -0.000000 -1.000000 0.000000
vn -0.000000 -1.000000 0.000000
vn -0.000000 1.000000 0.000000
vn -0.000000 1.000000 0.000000
vn -0.000000 1.000000 0.000000
vn -0.000000 1.000000 0.000000
vn -0.000000 1.000000 0.000000
vn -0.000000 1.000000 0.000000
vn -0.000000 1.000000 0.000000
vn -0.000000 1.000000 0.000000
vn -0.000000 1.000000 0.000000
vn -0.000000 1.000000 0.000000
vn -0.000000 1.000000 0.000000
vn -0.000000 1.000000 0.000000
vn -0.000000 -1.000000 0.000000
vn -0.000000 -1.000000 0.000000
vn -0.000000 -1.000000 0.000000
vn -0.000000 -1.000000 0.000000
vn -0.000000 -1.000000 0.000000
vn -0.000000 -1.000000 0.000000
vn -0.000000 -1.000000 0.000000
vn -0.000000 -1.000000 0.000000
vn -0.000000 -1.000000 0.000000
vn -0.000000 -1.000000 0.000000
vn -0.000000 -1.000000 0.000000
vn -0.000000 -1.000000 0.000000
# 32 vertex normals
# draw elements 0-11 (4 tris)
usemtl spacestation_door_lod2_static_mat0
f 1/1/1 2/2/2 3/3/3
f 1/1/1 3/3/3 4/4/4
f 5/5/5 6/6/6 7/7/7
f 5/5/5 7/7/7 8/8/8
s 1
# draw elements 12-29 (6 tris)
usemtl spacestation_door_lod2_static_mat1
f 9/9/9 10/10/10 11/11/11
f 9/9/9 11/11/11 12/12/12
f 13/13/13 14/14/14 15/15/15
f 13/13/13 15/15/15 16/16/16
f 17/17/17 18/18/18 19/19/19
f 17/17/17 19/19/19 20/20/20
s 1
# draw elements 30-47 (6 tris)
usemtl spacestation_door_lod2_static_mat2
f 21/21/21 22/22/22 23/23/23
f 21/21/21 23/23/23 24/24/24
f 25/25/25 26/26/26 27/27/27
f 25/25/25 27/27/27 28/28/28
f 29/29/29 30/30/30 31/31/31
f 29/29/29 31/31/31 32/32/32
s 1
