o body
v -0.248505 -0.001176 1.346307
v -0.000093 -0.000036 1.076254
v 0.174759 0.176430 1.346307
v 0.176379 -0.174882 1.346307
v -0.174939 -0.176502 1.751915
v -0.248505 -0.001176 2.157523
v -0.248505 -0.001176 1.751915
v -0.176559 0.174816 2.157523
v -0.001233 0.248382 2.157523
v 0.248325 0.001110 2.157523
v 0.174759 0.176430 2.157523
v 0.176379 -0.174882 2.157523
v 0.001053 -0.248454 2.157523
v -0.174939 -0.176502 2.157523
v 0.001053 -0.248454 1.751915
v -0.174939 -0.176502 1.346307
v -0.176559 0.174816 1.751915
v -0.001233 0.248382 1.751915
v -0.176559 0.174816 1.346307
v -0.001233 0.248382 1.346307
v 0.174759 0.176430 1.751915
v 0.248325 0.001110 1.751915
v 0.248325 0.001110 1.346307
v 0.176379 -0.174882 1.751915
v 0.001053 -0.248454 1.346307
v -0.130737 -0.129954 1.276013
v -0.184917 -0.000834 1.276013
v -0.184917 -0.000834 -0.984161
v -0.131919 0.128778 -0.984161
v -0.131925 0.128778 1.276013
v -0.002805 0.182964 -0.984161
v -0.002805 0.182964 1.276013
v 0.126813 0.129972 1.276013
v 0.180993 0.000852 1.276013
v 0.180993 0.000852 -0.984161
v 0.128001 -0.128760 1.276013
v -0.001119 -0.182946 1.276013
v 0.128001 -0.128760 -0.984161
v -0.001119 -0.182946 -0.984161
v 0.126813 0.129972 -0.984161
v -0.130737 -0.129954 -0.984161
vt 0.255098 -0.255804
vt 0.254781 -0.431535
vt 0.462276 -0.556875
vt 0.254332 -0.680050
vt -0.369638 0.051774
vt -0.162460 -0.249298
vt -0.162143 -0.073565
vt -0.161694 0.174953
vt -0.369638 0.479278
vt -0.162460 0.178206
vt -0.162143 0.353932
vt -0.161695 0.602446
vt -0.161377 0.778182
vt 1.294189 -0.123961
vt 1.086246 -0.000781
vt 1.086694 -0.249298
vt -0.368872 -0.252551
vt -0.369189 -0.428282
vt -0.056887 -0.254178
vt -0.057204 -0.429909
vt -0.369638 -0.676797
vt -0.057653 -0.678424
vt 0.461510 -0.252551
vt 0.461827 -0.076818
vt 0.149525 -0.250925
vt 0.149842 -0.075191
vt 0.462276 0.171700
vt 0.150291 0.173326
vt 0.461510 0.174953
vt 0.461827 0.350679
vt 0.149525 0.176579
vt 0.149842 0.352305
vt 0.462276 0.599194
vt 0.150291 0.600820
vt 0.462593 0.774929
vt 0.150608 0.776556
vt 0.462276 -0.004034
vt 0.462724 -0.252552
vt 0.774261 -0.002407
vt 0.774709 -0.250925
vt -0.369074 0.778182
vt 1.369170 0.916664
vt -0.369308 0.907601
vt 1.369404 0.787246
vt -0.369074 1.421212
vt -0.369404 1.238187
vt 1.369404 1.412150
vt 1.369074 1.229121
vt -0.369638 1.108759
vt 1.368840 1.099697
vt 1.368840 -0.872146
vt 1.369171 -0.689113
vt -0.369638 -0.863083
vt -0.369307 -0.680050
vt 1.369638 1.430276
vt 1.369404 1.559695
vt -0.368840 1.421212
vt -0.369074 1.550631
vt 1.369074 1.742720
vt -0.369404 1.733657
vt 1.368840 1.872146
vt -0.369638 1.863083
vt -0.369638 1.090633
vn -0.662038 -0.666219 -0.343211
vn -0.939238 -0.002960 -0.343211
vn 0.000000 0.000000 -1.000000
vn -0.666219 0.662038 -0.343242
vn -0.002930 0.939238 -0.343211
vn 0.662038 0.666219 -0.343242
vn 0.939238 0.002960 -0.343211
vn 0.666219 -0.662038 -0.343242
vn 0.002960 -0.939238 -0.343211
vn -0.700674 -0.713462 0.000000
vn -0.999939 -0.009033 0.000000
vn -0.703848 -0.710318 0.000000
vn -0.999969 -0.004578 0.000000
vn -0.713462 0.700644 0.000000
vn -0.710349 0.703818 0.000000
vn -0.009033 0.999939 0.000000
vn -0.004578 0.999969 0.000000
vn 0.700674 0.713462 0.000000
vn 0.703818 0.710349 0.000000
vn 0.999939 0.009064 0.000000
vn 0.999969 0.004608 0.000000
vn 0.713492 -0.700644 0.000000
vn 0.710349 -0.703818 0.000000
vn 0.009033 -0.999939 0.000000
vn 0.004578 -0.999969 0.000000
vn -0.706992 -0.707205 0.000000
vn -1.000000 -0.000122 0.000000
vn -0.713462 0.700674 0.000000
vn -0.707175 0.706992 0.000000
vn -0.009064 0.999939 0.000000
vn -0.000153 1.000000 0.000000
vn 0.706992 0.707205 0.000000
vn 0.999939 0.009033 0.000000
vn 1.000000 0.000122 0.000000
vn 0.713462 -0.700644 0.000000
vn 0.707205 -0.706992 0.000000
vn 0.009064 -0.999939 0.000000
vn 0.000153 -1.000000 0.000000
usemtl 002
s 1
f 16/1/1 1/2/2 2/3/3
f 2/3/3 1/2/2 19/4/4
f 2/5/3 19/6/4 20/7/5
f 2/5/3 20/7/5 3/8/6
f 2/9/3 3/10/6 23/11/7
f 2/9/3 23/11/7 4/12/8
f 2/9/3 4/12/8 25/13/9
f 2/14/3 25/15/9 16/16/1
f 14/17/10 6/18/11 5/19/12
f 7/20/13 5/19/12 6/18/11
f 6/18/11 8/21/14 7/20/13
f 17/22/15 7/20/13 8/21/14
f 8/23/14 9/24/16 17/25/15
f 18/26/17 17/25/15 9/24/16
f 9/24/16 11/27/18 18/26/17
f 21/28/19 18/26/17 11/27/18
f 11/29/18 10/30/20 21/31/19
f 22/32/21 21/31/19 10/30/20
f 10/30/20 12/33/22 22/32/21
f 24/34/23 22/32/21 12/33/22
f 12/33/22 13/35/24 24/34/23
f 15/36/25 24/34/23 13/35/24
f 13/37/24 14/38/10 15/39/25
f 5/40/12 15/39/25 14/38/10
f 5/19/12 7/20/13 16/1/1
f 1/2/2 16/1/1 7/20/13
f 17/22/15 1/2/2 7/20/13
f 19/4/4 1/2/2 17/22/15
f 17/25/15 18/26/17 19/6/4
f 20/7/5 19/6/4 18/26/17
f 18/26/17 21/28/19 20/7/5
f 3/8/6 20/7/5 21/28/19
f 21/31/19 22/32/21 3/10/6
f 23/11/7 3/10/6 22/32/21
f 22/32/21 24/34/23 23/11/7
f 4/12/8 23/11/7 24/34/23
f 24/34/23 15/36/25 4/12/8
f 25/13/9 4/12/8 15/36/25
f 15/39/25 5/40/12 25/15/9
f 16/16/1 25/15/9 5/40/12
f 27/41/11 41/42/26 26/43/10
f 28/44/27 41/42/26 27/41/11
f 27/45/11 30/46/28 28/47/27
f 29/48/29 28/47/27 30/46/28
f 30/46/28 32/49/30 29/48/29
f 31/50/31 29/48/29 32/49/30
f 32/51/30 33/52/18 31/53/31
f 40/54/32 31/53/31 33/52/18
f 33/55/18 34/56/33 40/57/32
f 35/58/34 40/57/32 34/56/33
f 34/56/33 36/59/35 35/58/34
f 38/60/36 35/58/34 36/59/35
f 36/59/35 37/61/37 38/60/36
f 39/62/38 38/60/36 37/61/37
f 37/63/37 26/43/10 39/50/38
f 41/42/26 39/50/38 26/43/10
