o head
v -0.000837 -0.066276 -2.118973
v -0.001131 -0.000696 -2.157522
v 0.045021 0.045894 -2.119022
v -0.066723 -0.000996 -2.119064
v 0.045453 -0.046854 -2.118959
v 0.064443 -0.000390 -2.118973
v 0.177999 0.000168 -1.889590
v 0.124941 0.126624 -1.889718
v -0.001443 0.064890 -2.119064
v -0.047727 0.045468 -2.119079
v -0.047295 -0.047280 -2.119022
v -0.000351 -0.179832 -1.889590
v 0.126105 -0.126768 -1.889548
v -0.000117 -0.245352 -1.547381
v 0.172629 -0.172866 -1.547311
v 0.243519 0.000534 -1.547381
v -0.002001 0.178524 -1.889828
v -0.002367 0.244170 -1.547698
v -0.175113 0.171684 -1.547766
v -0.180351 -0.001482 -1.889828
v -0.128457 0.125454 -1.889877
v -0.127287 -0.127938 -1.889718
v -0.000189 -0.245274 -1.316178
v 0.172551 -0.172794 -1.316108
v 0.243441 0.000612 -1.316178
v 0.171033 0.173280 -1.547535
v -0.246003 -0.001716 -1.547698
v -0.246075 -0.001644 -1.316500
v -0.173517 -0.174462 -1.547535
v -0.173589 -0.174384 -1.316332
v -0.001119 -0.182946 -1.190507
v -0.002439 0.244242 -1.316500
v 0.170961 0.173352 -1.316332
v -0.175185 0.171756 -1.316564
v -0.002805 0.182964 -1.190507
v -0.131919 0.128778 -1.190507
v -0.130737 -0.129954 -1.190507
v -0.184917 -0.000834 -1.190507
v 0.126813 0.129972 -1.190507
v 0.180993 0.000852 -1.190507
v 0.128001 -0.128760 -1.190507
vt 0.505524 0.504177
vt 0.505871 0.421738
vt 0.446901 0.445620
vt 0.564632 0.446152
vt 0.588724 0.504546
vt 0.564082 0.562714
vt 0.505103 0.586591
vt 0.446354 0.562175
vt 0.422256 0.503785
vt 0.326001 0.325353
vt 0.506434 0.252257
vt 0.686208 0.326968
vt 0.759605 0.505272
vt 0.684541 0.682896
vt 0.504086 0.755957
vt 0.324359 0.681220
vt 0.250977 0.502957
vt 0.206550 0.207809
vt 0.506731 0.086107
vt 0.805836 0.210445
vt 0.926860 0.505945
vt 0.803052 0.800319
vt 0.502820 0.921897
vt 0.203856 0.797494
vt 0.082879 0.502120
vt 0.154204 0.157126
vt 0.506548 0.014205
vt 0.857638 0.160171
vt 0.998955 0.506255
vt 0.854385 0.850999
vt 0.501950 0.993732
vt 0.151060 0.847650
vt 0.009829 0.501767
vt 0.212686 0.217093
vt 0.504405 0.098822
vt 0.795072 0.219648
vt 0.912818 0.506922
vt 0.792418 0.793121
vt 0.500596 0.911290
vt 0.210046 0.790364
vt 0.092388 0.503193
vn 0.000519 -0.000488 -0.999969
vn 0.002380 -0.754509 -0.656270
vn -0.531480 -0.535142 -0.656575
vn 0.535020 -0.532090 -0.656178
vn 0.754540 0.001648 -0.656240
vn 0.532273 0.534349 -0.656575
vn -0.001648 0.753990 -0.656850
vn -0.534501 0.531663 -0.656972
vn -0.753960 -0.002411 -0.656880
vn -0.667714 -0.674062 -0.315775
vn 0.004395 -0.948882 -0.315531
vn 0.674001 -0.667959 -0.315470
vn 0.948882 0.004028 -0.315561
vn 0.668111 0.673696 -0.315775
vn -0.004059 0.948729 -0.315989
vn -0.673818 0.667837 -0.316080
vn -0.948729 -0.004425 -0.315989
vn -0.700644 -0.707266 -0.094028
vn 0.004608 -0.995575 -0.093753
vn 0.707205 -0.700766 -0.093661
vn 0.995575 0.004456 -0.093753
vn 0.700797 0.707083 -0.094028
vn -0.004486 0.995514 -0.094302
vn -0.707144 0.700705 -0.094394
vn -0.995514 -0.004608 -0.094302
vn -0.685263 -0.694296 0.219794
vn 0.006317 -0.975005 0.221961
vn 0.693564 -0.684957 0.223029
vn 0.974914 0.005737 0.222358
vn 0.685781 0.693625 0.220374
vn -0.005554 0.975860 0.218207
vn -0.693289 0.686880 0.217933
vn -0.975799 -0.004822 0.218574
vn -0.632099 -0.637532 0.440382
vn 0.003906 -0.895840 0.444319
vn 0.635853 -0.629658 0.446272
vn 0.895505 0.004730 0.444960
vn 0.630970 0.637989 0.441328
vn -0.008850 0.899228 0.437330
vn -0.642506 0.630451 0.435469
vn -0.899594 -0.003998 0.436689
usemtl 001
s 1
f 2/1/1 1/2/2 11/3/3
f 5/4/4 1/2/2 2/1/1
f 2/1/1 6/5/5 5/4/4
f 2/1/1 3/6/6 6/5/5
f 2/1/1 9/7/7 3/6/6
f 2/1/1 10/8/8 9/7/7
f 2/1/1 4/9/9 10/8/8
f 2/1/1 11/3/3 4/9/9
f 11/3/3 1/2/2 22/10/10
f 22/10/10 1/2/2 12/11/11
f 1/2/2 5/4/4 12/11/11
f 13/12/12 12/11/11 5/4/4
f 5/4/4 6/5/5 13/12/12
f 7/13/13 13/12/12 6/5/5
f 6/5/5 3/6/6 7/13/13
f 8/14/14 7/13/13 3/6/6
f 3/6/6 9/7/7 8/14/14
f 17/15/15 8/14/14 9/7/7
f 9/7/7 10/8/8 17/15/15
f 21/16/16 17/15/15 10/8/8
f 10/8/8 4/9/9 21/16/16
f 20/17/17 21/16/16 4/9/9
f 4/9/9 11/3/3 20/17/17
f 22/10/10 20/17/17 11/3/3
f 22/10/10 12/11/11 29/18/18
f 14/19/19 29/18/18 12/11/11
f 12/11/11 13/12/12 14/19/19
f 15/20/20 14/19/19 13/12/12
f 13/12/12 7/13/13 15/20/20
f 16/21/21 15/20/20 7/13/13
f 7/13/13 8/14/14 16/21/21
f 26/22/22 16/21/21 8/14/14
f 8/14/14 17/15/15 26/22/22
f 18/23/23 26/22/22 17/15/15
f 17/15/15 21/16/16 18/23/23
f 19/24/24 18/23/23 21/16/16
f 21/16/16 20/17/17 19/24/24
f 27/25/25 19/24/24 20/17/17
f 20/17/17 22/10/10 27/25/25
f 29/18/18 27/25/25 22/10/10
f 29/18/18 14/19/19 30/26/26
f 23/27/27 30/26/26 14/19/19
f 14/19/19 15/20/20 23/27/27
f 24/28/28 23/27/27 15/20/20
f 15/20/20 16/21/21 24/28/28
f 25/29/29 24/28/28 16/21/21
f 16/21/21 26/22/22 25/29/29
f 33/30/30 25/29/29 26/22/22
f 26/22/22 18/23/23 33/30/30
f 32/31/31 33/30/30 18/23/23
f 18/23/23 19/24/24 32/31/31
f 34/32/32 32/31/31 19/24/24
f 19/24/24 27/25/25 34/32/32
f 28/33/33 34/32/32 27/25/25
f 27/25/25 29/18/18 28/33/33
f 30/26/26 28/33/33 29/18/18
f 30/26/26 23/27/27 37/34/34
f 31/35/35 37/34/34 23/27/27
f 23/27/27 24/28/28 31/35/35
f 41/36/36 31/35/35 24/28/28
f 24/28/28 25/29/29 41/36/36
f 40/37/37 41/36/36 25/29/29
f 25/29/29 33/30/30 40/37/37
f 39/38/38 40/37/37 33/30/30
f 33/30/30 32/31/31 39/38/38
f 35/39/39 39/38/38 32/31/31
f 32/31/31 34/32/32 35/39/39
f 36/40/40 35/39/39 34/32/32
f 34/32/32 28/33/33 36/40/40
f 38/41/41 36/40/40 28/33/33
f 28/33/33 30/26/26 38/41/41
f 37/34/34 38/41/41 30/26/26
