o wins2
v 0.029858 1.166892 -0.436645
v 0.029858 1.107910 -0.539963
v -0.076353 1.107910 -0.539963
v -0.076353 1.166892 -0.436645
v 0.480517 0.207287 -0.712994
v 0.514703 0.207287 -0.712994
v 0.514703 0.082131 -0.712994
v 0.480517 0.082131 -0.712994
v 0.430245 0.207287 -0.712994
v 0.464432 0.207287 -0.712994
v 0.464432 0.082131 -0.712994
v 0.430245 0.082131 -0.712994
v -0.504761 0.821351 -0.712994
v -0.471312 0.821351 -0.712994
v -0.471312 0.697136 -0.712994
v -0.504761 0.697136 -0.712994
v -0.555618 0.821351 -0.712994
v -0.522168 0.821351 -0.712994
v -0.522168 0.697136 -0.712994
v -0.555618 0.697136 -0.712994
v -0.093124 0.818137 -0.710420
v -0.031102 0.818137 -0.710420
v -0.031102 0.619113 -0.710420
v -0.093124 0.619113 -0.710420
v -0.011071 0.818137 -0.710420
v 0.050950 0.818137 -0.710420
v 0.050950 0.619113 -0.710420
v -0.011071 0.619113 -0.710420
v -0.093124 0.515676 0.699839
v -0.093124 0.316653 0.699839
v -0.031102 0.316653 0.699839
v -0.031102 0.515676 0.699839
v -0.011071 0.515676 0.699839
v -0.011071 0.316653 0.699839
v 0.050950 0.316653 0.699839
v 0.050950 0.515676 0.699839
v 0.430245 0.207288 0.702413
v 0.430245 0.082131 0.702413
v 0.464432 0.082131 0.702413
v 0.464432 0.207288 0.702413
v 0.480517 0.207288 0.702413
v 0.480517 0.082131 0.702413
v 0.514703 0.082131 0.702413
v 0.514703 0.207288 0.702413
v -0.855228 0.696733 0.075195
v -0.855228 0.819788 0.075195
v -0.855228 0.819788 0.009730
v -0.855228 0.696733 0.009730
v -0.855228 0.696733 -0.022508
v -0.855228 0.819788 -0.022508
v -0.855228 0.819788 -0.087972
v -0.855229 0.696733 -0.087972
v -0.855229 0.518767 0.359144
v -0.855228 0.518767 0.326547
v -0.855228 0.394492 0.326547
v -0.855229 0.394492 0.359144
v -0.855228 0.518767 0.408704
v -0.855229 0.518767 0.376107
v -0.855229 0.394492 0.376107
v -0.855229 0.394492 0.408704
v -0.855228 0.821459 -0.348648
v -0.855229 0.821459 -0.381245
v -0.855229 0.697184 -0.381245
v -0.855229 0.697184 -0.348648
v -0.855229 0.821459 -0.398208
v -0.855228 0.821459 -0.430805
v -0.855228 0.697184 -0.430805
v -0.855229 0.697184 -0.398208
v 0.808736 0.207165 0.365030
v 0.808736 0.081946 0.365030
v 0.808736 0.081946 0.331715
v 0.808736 0.207165 0.331715
v 0.808736 0.207165 0.414021
v 0.808736 0.081946 0.414021
v 0.808736 0.081946 0.380705
v 0.808736 0.207165 0.380705
v 0.808736 0.395302 0.075195
v 0.808736 0.395302 0.009730
v 0.808736 0.518357 0.009730
v 0.808736 0.518357 0.075195
v 0.808736 0.395302 -0.022508
v 0.808736 0.395302 -0.087972
v 0.808736 0.518357 -0.087972
v 0.808736 0.518357 -0.022508
vt 0.492658 0.998914
vt 0.376809 0.998914
vt 0.376809 0.883065
vt 0.492658 0.883065
vt 0.656250 0.421875
vt 0.656250 0.320313
vt 0.628906 0.320313
vt 0.628906 0.421875
vt 0.617188 0.421875
vt 0.617188 0.320313
vt 0.589844 0.320313
vt 0.589844 0.421875
vt 0.160156 0.179688
vt 0.160156 0.078125
vt 0.132813 0.078125
vt 0.132813 0.179688
vt 0.121094 0.179688
vt 0.121094 0.078125
vt 0.093750 0.078125
vt 0.093750 0.179688
vt 0.367188 0.425781
vt 0.367188 0.265625
vt 0.320313 0.265625
vt 0.320313 0.425781
vt 0.429688 0.425781
vt 0.429688 0.265625
vt 0.382813 0.265625
vt 0.382813 0.425781
vt 0.562500 0.675781
vt 0.613281 0.675781
vt 0.613281 0.578125
vt 0.562500 0.578125
vt 0.636719 0.675781
vt 0.687500 0.675781
vt 0.687500 0.578125
vt 0.636719 0.578125
vn 0.000000 0.868446 -0.495783
vn 0.000000 0.000000 -1.000000
vn 0.000000 0.000000 1.000000
vn -1.000000 0.000000 0.000000
vn -1.000000 0.000004 0.000008
vn -1.000000 -0.000000 -0.000033
vn -1.000000 0.000004 0.000016
vn 1.000000 0.000000 0.000000
s off
f 4/1/1 1/2/1 2/3/1 3/4/1
f 6/5/2 7/6/2 8/7/2 5/8/2
f 10/9/2 11/10/2 12/11/2 9/12/2
f 14/13/2 15/14/2 16/15/2 13/16/2
f 18/17/2 19/18/2 20/19/2 17/20/2
f 22/21/2 23/22/2 24/23/2 21/24/2
f 26/25/2 27/26/2 28/27/2 25/28/2
f 30/23/3 31/22/3 32/21/3 29/24/3
f 34/27/3 35/26/3 36/25/3 33/28/3
f 38/11/3 39/10/3 40/9/3 37/12/3
f 42/7/3 43/6/3 44/5/3 41/8/3
f 46/29/4 47/30/4 48/31/4 45/32/4
f 50/33/5 51/34/5 52/35/5 49/36/5
f 54/13/6 55/14/6 56/15/6 53/16/6
f 58/17/7 59/18/7 60/19/7 57/20/7
f 62/17/7 63/18/7 64/19/7 61/20/7
f 66/13/6 67/14/6 68/15/6 65/16/6
f 70/7/8 71/6/8 72/5/8 69/8/8
f 74/11/8 75/10/8 76/9/8 73/12/8
f 78/31/8 79/30/8 80/29/8 77/32/8
f 82/35/8 83/34/8 84/33/8 81/36/8
