o cage_r
v 30.839979 -11.801079 18.268524
v 32.327873 -11.801079 18.268530
v 31.583925 -11.800971 18.268530
v 32.477524 -11.798846 7.990558
v 30.690342 -11.798846 7.990556
v 31.583933 -11.799913 7.990558
v 30.839979 -12.951978 18.268524
v 30.690342 -13.398848 7.990556
v 30.839979 -12.951978 18.268524
v 31.583925 -13.099957 18.268530
v 32.477524 -13.398848 7.990558
v 32.327873 -12.951978 18.268530
v 32.327873 -12.951978 18.268530
v 31.583925 -11.800970 18.268530
v 32.327873 -11.801078 18.268530
v 32.327873 -11.801078 18.268530
v 32.477524 -11.798845 7.990558
v 32.477524 -11.798845 7.990558
v 31.583933 -11.799912 7.990558
v 30.690342 -11.798845 7.990556
v 30.690342 -11.798845 7.990556
v 30.839979 -11.801078 18.268524
v 30.839979 -11.801078 18.268524
v 30.690342 -13.398848 7.990556
v 32.477524 -13.398848 7.990558
v 31.583933 -13.576594 7.990558
vt 0.250000 0.250000
vt 1.000000 0.000000
vt 0.500000 0.500000
vn 0.000519 -0.999969 -0.000122
vn 0.000000 -1.000000 -0.000092
vn 0.000000 -1.000000 -0.000183
vn 0.001190 -0.999969 -0.000183
vn -0.000519 -0.999969 -0.000122
vn -0.001190 -0.999969 -0.000183
vn 0.000000 0.000000 -1.000000
vn -0.999878 0.000000 -0.014557
vn 0.999878 0.000000 -0.014557
vn 0.000000 0.000000 1.000000
s 1
f 2/1/1 3/2/2 6/2/3
f 4/3/4 2/1/1 6/2/3
f 1/2/5 5/2/6 6/3/3
f 3/1/2 1/2/5 6/3/3
f 9/1/7 23/2/7 14/2/7
f 10/3/7 9/1/7 14/2/7
f 14/2/7 16/2/7 13/3/7
f 10/1/7 14/2/7 13/3/7
f 12/1/8 15/2/8 18/2/8
f 11/3/8 12/1/8 18/2/8
f 22/2/9 7/3/9 21/2/9
f 21/2/9 7/3/9 8/1/9
f 25/1/10 17/2/10 19/2/10
f 26/3/10 25/1/10 19/2/10
f 19/2/10 20/2/10 24/3/10
f 26/1/10 19/2/10 24/3/10
