o c_cage_r
v 32.510456 -11.799959 7.975842
v 30.657459 -11.799959 7.975842
v 32.327232 -11.799982 18.306026
v 30.840687 -11.799984 18.306026
v 32.510456 -13.392694 7.975842
v 31.583958 -13.576986 7.975842
v 30.657459 -13.392694 7.975842
v 32.327232 -12.950345 18.306026
v 31.583961 -13.098192 18.306026
v 30.840687 -12.950346 18.306026
vt 0.242490 0.226486
vt 0.233115 0.251486
vt 0.233115 0.301486
vt 0.242490 0.326486
vt 0.245615 0.276486
vt 0.158115 0.301486
vt 0.158115 0.251486
vt 0.148740 0.226486
vt 0.148349 0.326486
vt 0.145615 0.276486
vn 0.696921 0.000000 -0.717124
vn 0.572802 -0.576128 -0.583026
vn -0.572802 -0.576128 -0.583026
vn -0.696921 0.000000 -0.717124
vn 0.000000 0.000000 -1.000000
vn -0.581774 -0.578600 0.571551
vn 0.581774 -0.578600 0.571551
vn 0.709464 0.000000 0.704703
vn -0.709464 0.000000 0.704703
vn 0.000000 0.000000 1.000000
usemtl Material
s 1
f 10/1/1 4/2/2 3/3/3 8/4/4
f 10/1/1 8/4/4 9/5/5
f 1/6/6 2/7/7 7/8/8 5/9/9
f 7/8/8 6/10/10 5/9/9
f 1/6/6 3/3/3 4/2/2 2/7/7
f 3/3/3 1/6/6 5/9/9 8/4/4
f 10/1/1 7/8/8 2/7/7 4/2/2
