o e_inside_r
v 30.337233 -11.665154 19.931149
v 32.817528 -10.638486 19.931154
v 30.234999 -11.151748 19.931149
v 30.239378 -11.158216 21.470449
v 31.066357 -12.395269 21.470449
v 31.578978 -12.497194 21.470449
v 32.817528 -11.665154 19.931154
v 32.816536 -11.670656 21.470449
v 32.091011 -9.912579 19.931154
v 32.091599 -9.921273 21.470449
v 31.577333 -9.810443 19.931154
v 31.578978 -9.819337 21.470449
v 31.063662 -9.912584 19.931149
v 30.626966 -10.211841 21.469501
v 32.526196 -12.105028 21.470449
v 30.337233 -10.638486 19.931149
v 30.341345 -10.645868 21.470444
v 32.816536 -10.645868 21.470449
v 32.526527 -10.203321 19.931154
v 32.526196 -10.211496 21.470449
v 30.631746 -12.105028 21.470449
v 31.063667 -12.391086 19.931149
v 31.577333 -12.493196 19.931149
v 32.091011 -12.391086 19.931149
v 32.085297 -12.393613 21.469501
v 32.526527 -12.100313 19.931149
v 31.066357 -9.921273 21.470449
v 30.628164 -10.203321 19.931149
v 30.628164 -12.100313 19.931149
v 30.341345 -11.670656 21.470449
v 32.919720 -11.151748 19.931154
v 32.918545 -11.158216 21.470449
v 32.526196 -12.105028 21.470449
v 32.526527 -12.100313 19.931149
v 32.817528 -11.665154 19.931154
v 32.816536 -11.670656 21.470449
v 30.337233 -10.638486 19.931149
v 30.341345 -10.645868 21.470444
v 30.234999 -11.151748 19.931149
v 30.239378 -11.158216 21.470449
v 32.526527 -10.203321 19.931154
v 32.526196 -10.211496 21.470449
v 32.919720 -11.151748 19.931154
v 32.918545 -11.158216 21.470449
v 30.337233 -11.665154 19.931149
v 30.341345 -11.670656 21.470449
v 30.626966 -10.211841 21.469501
v 30.628164 -10.203321 19.931149
v 31.063662 -9.912584 19.931149
v 31.066357 -9.921273 21.470449
v 31.577333 -9.810443 19.931154
v 31.578978 -9.819337 21.470449
v 32.091011 -12.391086 19.931149
v 32.085297 -12.393613 21.469501
v 31.578978 -12.497194 21.470449
v 31.577333 -12.493196 19.931149
v 31.066357 -12.395269 21.470449
v 31.063667 -12.391086 19.931149
v 30.631746 -12.105028 21.470449
v 30.628164 -12.100313 19.931149
v 32.091011 -9.912579 19.931154
v 32.091599 -9.921273 21.470449
v 32.817528 -10.638486 19.931154
v 32.816536 -10.645868 21.470449
vt 0.999373 0.000000
vt 0.997486 0.999996
vt 0.768687 1.000000
vt 0.770108 0.000000
vt 0.232277 0.999379
vt 0.229274 0.000004
vt 0.499694 0.000000
vt 0.498825 1.000000
vt 0.000176 1.000000
vt 0.000000 0.000004
vt 0.770110 0.000004
vt 0.499694 0.000004
vt 1.000000 0.999384
vt 0.999373 0.000004
vt 0.767290 0.999991
vt 0.771172 0.000003
vt 1.000000 0.000003
vt 0.995520 0.999383
vt 0.229274 0.000007
vt 0.000000 0.000007
vt 0.228961 1.000000
vt 0.497875 0.999996
vt 0.501276 0.000004
vt 0.000000 1.000000
vt 0.228412 1.000000
vt 0.231305 0.000004
vt 0.002479 0.000004
vt 1.000000 0.000006
vt 0.771172 0.000006
vt 0.767290 0.999995
vt 0.995701 0.999999
vt 0.497875 1.000000
vt 0.501276 0.000007
vt 0.231305 0.000000
vt 0.228412 0.999996
vt 0.000000 0.999996
vt 0.002479 0.000000
vn 0.194993 0.980802 0.002332
vn -0.195022 -0.980784 -0.005462
vn 0.555320 0.831636 0.001273
vn 0.833328 -0.552768 -0.003645
vn -0.555284 -0.831649 -0.004511
vn 0.980757 0.195225 -0.001946
vn -0.551455 0.834204 0.000880
vn 0.553409 -0.832895 -0.004926
vn 0.831323 0.555789 -0.000233
vn -0.980758 0.195226 0.000069
vn 0.195028 -0.980780 -0.005876
vn -0.197678 0.980265 0.001817
vn -0.831317 -0.555789 -0.003166
vn -0.980748 -0.195269 -0.001569
vn 0.980743 -0.195268 -0.003584
vn -0.831319 0.555794 0.001487
s off
f 22/1/1 5/2/1 6/3/1 23/4/1
f 9/5/2 10/6/2 12/7/2 11/8/2
f 57/9/3 58/10/3 29/6/3 21/5/3
f 28/3/4 14/11/4 17/12/4 16/8/4
f 19/11/5 20/3/5 62/13/5 61/14/5
f 30/15/6 1/16/6 3/17/6 4/18/6
f 24/19/7 25/20/7 15/9/7 26/21/7
f 47/12/8 48/19/8 13/21/8 27/8/8
f 45/8/9 46/7/9 59/4/9 60/3/9
f 7/22/10 8/23/10 32/16/10 31/15/10
f 51/24/11 52/25/11 50/26/11 49/27/11
f 56/28/12 55/29/12 54/30/12 53/31/12
f 2/32/13 18/30/13 42/29/13 41/33/13
f 64/33/14 63/26/14 43/25/14 44/32/14
f 37/34/15 38/35/15 40/36/15 39/37/15
f 34/35/16 33/34/16 36/23/16 35/22/16
