o engine_r
v 32.816532 -10.645867 21.470448
v 32.526188 -10.211494 21.470448
v 32.091591 -9.921272 21.470448
v 31.578970 -9.819335 21.470448
v 31.066351 -9.921272 21.470448
v 30.626961 -10.211839 21.469498
v 30.341339 -10.645867 21.470442
v 30.239372 -11.158216 21.470449
v 30.341339 -11.670654 21.470449
v 30.631741 -12.105025 21.470449
v 31.066351 -12.395266 21.470449
v 31.578970 -12.497191 21.470449
v 32.085293 -12.393610 21.469500
v 32.526188 -12.105025 21.470449
v 32.816532 -11.670654 21.470449
v 32.918541 -11.158216 21.470449
v 33.901821 -10.195824 6.080956
v 33.357967 -9.381892 6.080956
v 32.544029 -8.838037 6.080956
v 31.583935 -8.647061 6.080956
v 31.583923 -9.342229 21.081039
v 30.623833 -8.838037 6.080956
v 29.809904 -9.381892 6.080956
v 29.266041 -10.195824 6.080956
v 29.075071 -11.155925 6.080956
v 29.266047 -12.116025 6.080956
v 29.809904 -12.929955 6.080956
v 30.623833 -13.473810 6.080956
v 31.583935 -13.664787 6.080956
v 32.544033 -13.473810 6.080956
v 33.357967 -12.929955 6.080956
v 33.901821 -12.116025 6.080956
v 34.092800 -11.155925 6.080956
v 29.587172 -11.983009 13.581001
v 33.259552 -11.849993 21.081041
v 32.866398 -12.438393 21.081047
v 30.301447 -12.438393 21.081047
v 29.770233 -11.155924 21.081045
v 29.908297 -10.461856 21.081039
v 31.583925 -13.099957 18.268530
v 32.277988 -9.480291 21.081045
v 32.866398 -9.873453 21.081039
v 33.259556 -10.461856 21.081039
v 33.397610 -11.155924 21.081039
v 32.277988 -12.831555 21.081047
v 31.583923 -12.969611 21.081047
v 30.889860 -12.831555 21.081041
v 29.908297 -11.849993 21.081047
v 30.301447 -9.873453 21.081039
v 30.889860 -9.480291 21.081039
v 30.839979 -12.951978 18.268524
v 32.327873 -12.951978 18.268530
v 31.583923 -9.342229 21.081039
v 32.277988 -9.480291 21.081045
v 32.866398 -9.873453 21.081039
v 33.259556 -10.461856 21.081039
v 33.397610 -11.155924 21.081039
v 33.259552 -11.849993 21.081041
v 32.866398 -12.438393 21.081047
v 32.277988 -12.831555 21.081047
v 31.583923 -12.969611 21.081047
v 30.889860 -12.831555 21.081041
v 30.301447 -12.438393 21.081047
v 29.908297 -11.849993 21.081047
v 29.770233 -11.155924 21.081045
v 29.908297 -10.461856 21.081039
v 30.301447 -9.873453 21.081039
v 30.889860 -9.480291 21.081039
v 30.690342 -13.398848 7.990556
v 31.583933 -13.576594 7.990558
v 32.477524 -13.398848 7.990558
vt 0.000000 0.000000
vt 1.000000 0.000000
vt 1.000000 1.000000
vt -0.406250 1.461000
vt -0.410569 1.222510
vt -0.281248 -0.412367
vt 1.348069 1.222509
vt 1.343750 1.461000
vt 1.218749 1.461000
vt 1.343752 -0.061111
vt -0.281250 1.461000
vt -0.031250 1.461000
vt -0.156250 1.461000
vt -0.156250 -0.412367
vt -0.031250 -0.412367
vt 0.718748 -0.412366
vt 0.593747 -0.412367
vt 0.718382 -0.461000
vt 0.592922 -0.461000
vt 0.343749 -0.412366
vt 0.218747 -0.412366
vt 0.342393 -0.461000
vt 0.216591 -0.460881
vt -0.031793 -0.461000
vt -0.156257 -0.461000
vt -0.280733 -0.461000
vt -0.406249 -0.412366
vt -0.531248 -0.412367
vt -0.530072 -0.461000
vt -0.405324 -0.461000
vt 1.218750 -0.412367
vt 1.093750 -0.412366
vt 1.094668 -0.461000
vt 1.219902 -0.461000
vt 0.843749 1.461000
vt 0.718750 1.461000
vt 0.843749 -0.412366
vt 1.343752 -0.412367
vt 0.343749 1.461000
vt 0.218750 1.461000
vt 0.468750 1.461000
vt 0.468747 -0.412366
vt 0.593749 1.461000
vt 0.968749 -0.412366
vt 0.969296 -0.461000
vt 1.346240 -0.460881
vt 0.093749 -0.412366
vt 0.092733 -0.460999
vt -0.406250 -0.061110
vt 1.468751 -0.061111
vt 1.468752 -0.412367
vt -0.531249 -0.061111
vt 1.468749 1.461000
vt 1.468750 1.222509
vt 1.589431 1.222510
vt 1.593750 1.461000
vt 0.843860 -0.461000
vt 1.469928 -0.461000
vt 0.093749 1.461000
vt 1.093750 1.461000
vt 0.968750 1.461000
vt 0.467567 -0.461000
vn -0.921293 -0.386090 0.046266
vn -0.706320 -0.706320 0.046266
vn -0.646474 -0.761437 0.047151
vn -0.382458 -0.922666 0.048555
vn -0.380932 -0.923307 0.048311
vn 0.384899 -0.921628 0.049287
vn 0.382183 -0.922727 0.049532
vn 0.698965 -0.713614 0.046510
vn 0.391614 -0.918943 0.046236
vn -0.998901 0.000000 0.046266
vn -0.924467 -0.378430 0.046266
vn 0.448439 0.442946 0.776299
vn 0.241432 0.582965 0.775750
vn 0.445509 0.445875 0.776299
vn 0.237617 0.584552 0.775750
vn -0.239082 0.587176 0.773309
vn -0.449599 0.451888 0.770470
vn -0.243782 0.585345 0.773247
vn -0.451827 0.449599 0.770501
vn -0.638661 0.003937 0.769463
vn -0.591784 -0.241096 0.769158
vn -0.638691 -0.003998 0.769433
vn -0.590320 -0.244636 0.769158
vn -0.448683 -0.454329 0.769555
vn -0.451643 -0.451430 0.769555
vn -0.240364 -0.590411 0.770440
vn 0.005249 -0.635853 0.771752
vn -0.001648 -0.636036 0.771630
vn -0.247719 -0.587420 0.770409
vn 0.450209 -0.444868 0.774194
vn 0.585009 -0.238166 0.775231
vn 0.581988 -0.245552 0.775201
vn 0.443617 -0.451064 0.774407
vn 0.921293 0.386090 0.046266
vn 0.706320 0.706320 0.046266
vn 0.924436 0.378430 0.046266
vn 0.703391 -0.709250 0.046266
vn 0.378430 -0.924467 0.046266
vn -0.378430 0.924436 0.046266
vn -0.706320 0.706320 0.046266
vn -0.386090 0.921293 0.046266
vn 0.000000 0.998901 0.046266
vn 0.382275 0.922880 0.046266
vn 0.630726 0.003937 0.775964
vn 0.630726 -0.003967 0.775964
vn 0.242347 -0.582202 0.776055
vn 0.234840 -0.585345 0.775994
vn -0.588946 0.244453 0.770287
vn -0.591235 0.238746 0.770318
vn -0.384594 -0.921903 0.046236
vn -0.378430 -0.924467 0.046266
vn 0.000000 -0.998901 0.046266
vn 0.000000 -0.998932 0.046113
vn 0.582263 0.241157 0.776391
vn -0.922880 0.382244 0.046266
vn 0.924436 -0.378430 0.046266
vn 0.998901 0.004120 0.046266
vn 0.998901 -0.004120 0.046266
vn 0.921293 -0.386090 0.046266
vn 0.003784 0.632282 0.774712
vn -0.004120 0.632313 0.774682
s 1
f 26/1/1 27/2/2 63/3/3
f 28/4/4 69/5/5 63/6/3
f 71/7/6 30/8/7 31/9/8
f 52/10/9 71/7/6 31/9/8
f 27/11/2 28/4/4 63/6/3
f 25/12/10 26/13/1 48/14/11
f 25/12/10 48/14/11 65/15/10
f 55/16/12 41/17/13 2/18/14
f 41/17/13 3/19/15 2/18/14
f 50/20/16 49/21/17 5/22/18
f 49/21/17 6/23/19 5/22/18
f 38/15/20 64/14/21 8/24/22
f 64/14/21 9/25/23 8/24/22
f 64/14/21 37/6/24 10/26/25
f 64/14/21 10/26/25 9/25/23
f 62/27/26 46/28/27 12/29/28
f 62/27/26 12/29/28 11/30/29
f 59/31/30 35/32/31 15/33/32
f 59/31/30 15/33/32 14/34/33
f 17/35/34 18/36/35 42/16/35
f 17/35/34 42/16/35 56/37/36
f 36/31/37 45/38/38 52/10/9
f 36/31/37 52/10/9 31/9/8
f 22/39/39 23/40/40 68/20/41
f 23/40/40 67/21/40 68/20/41
f 20/41/42 22/39/39 21/42/42
f 22/39/39 68/20/41 21/42/42
f 18/36/35 19/43/43 42/16/35
f 19/43/43 54/17/43 42/16/35
f 35/32/31 44/44/44 16/45/45
f 35/32/31 16/45/45 15/33/32
f 60/38/46 59/31/30 14/34/33
f 60/38/46 14/34/33 13/46/47
f 39/47/48 38/15/20 7/48/49
f 38/15/20 8/24/22 7/48/49
f 49/21/17 39/47/48 6/23/19
f 39/47/48 7/48/49 6/23/19
f 69/5/5 51/49/50 63/6/3
f 51/49/50 47/27/51 63/6/3
f 52/10/9 45/38/38 40/50/52
f 45/38/38 61/51/52 40/50/52
f 61/28/52 47/27/51 40/52/52
f 47/27/51 51/49/50 40/52/52
f 30/8/7 71/7/6 29/53/53
f 71/7/6 70/54/53 29/53/53
f 70/54/53 69/55/5 29/53/53
f 69/55/5 28/56/4 29/53/53
f 43/37/54 1/57/54 44/44/44
f 44/44/44 1/57/54 16/45/45
f 46/51/27 60/38/46 13/46/47
f 46/51/27 13/46/47 12/58/28
f 19/43/43 20/41/42 21/42/42
f 19/43/43 21/42/42 54/17/43
f 23/40/40 24/59/55 66/47/55
f 23/40/40 66/47/55 67/21/40
f 32/60/56 33/61/57 57/44/58
f 32/60/56 57/44/58 58/32/59
f 31/9/8 32/60/56 58/32/59
f 31/9/8 58/32/59 36/31/37
f 24/59/55 25/12/10 66/47/55
f 25/12/10 65/15/10 66/47/55
f 33/61/57 17/35/34 56/37/36
f 33/61/57 56/37/36 57/44/58
f 37/6/24 62/27/26 11/30/29
f 37/6/24 11/30/29 10/26/25
f 53/42/60 50/20/16 4/62/61
f 50/20/16 5/22/18 4/62/61
f 41/17/13 53/42/60 3/19/15
f 53/42/60 4/62/61 3/19/15
f 55/16/12 1/57/54 43/37/54
f 2/18/14 1/57/54 55/16/12
f 26/13/1 63/6/3 48/14/11
