o c_flap_rr
v -0.744572 -0.051225 5.181530
v -0.001298 0.096483 5.174980
v -0.925131 -0.180694 -5.162473
v -0.925055 -0.080788 -5.158129
v -0.744648 -0.151131 5.177186
v 0.001446 0.103331 -5.166294
v -0.001374 -0.003423 5.170636
v 0.001370 0.003424 -5.170638
v -0.925055 -0.080788 -5.158129
v -0.925055 -0.080788 -5.158129
v -0.744572 -0.051225 5.181530
v -0.744572 -0.051225 5.181530
v -0.001298 0.096483 5.174980
v -0.001298 0.096483 5.174980
v 0.001446 0.103331 -5.166294
v 0.001446 0.103331 -5.166294
v -0.744648 -0.151131 5.177186
v -0.744648 -0.151131 5.177186
v -0.925131 -0.180694 -5.162473
v -0.001374 -0.003423 5.170636
v -0.001374 -0.003423 5.170636
v 0.001370 0.003424 -5.170638
v -0.925131 -0.180694 -5.162473
v 0.001370 0.003424 -5.170638
vt 0.999023 0.537109
vt 0.999023 0.506836
vt 0.875977 0.506836
vt 0.875977 0.537109
vn 0.194891 -0.980804 -0.000580
vn -0.194891 0.980804 0.000580
vn -0.999847 0.000000 0.017426
vn 0.017426 -0.043428 0.998901
vn 0.999969 -0.000763 0.000244
vn -0.017426 0.043428 -0.998901
usemtl Material
s 1
f 3/1/1 8/2/1 7/3/1 5/4/1
f 4/1/2 1/4/2 2/3/2 6/2/2
f 12/4/3 10/1/3 19/1/3 18/4/3
f 17/4/4 20/3/4 14/3/4 11/4/4
f 21/3/5 22/2/5 16/2/5 13/3/5
f 24/2/6 23/1/6 9/1/6 15/2/6
