o c_flap_lr
v 0.001454 0.103331 -5.166292
v -0.925045 -0.080787 -5.158127
v -0.744570 -0.051223 5.181532
v -0.001296 0.096483 5.174982
v -0.001296 0.096483 5.174982
v -0.001372 -0.003422 5.170638
v 0.001378 0.003424 -5.170636
v 0.001454 0.103331 -5.166292
v -0.744646 -0.151129 5.177188
v -0.001372 -0.003422 5.170638
v -0.001296 0.096483 5.174982
v -0.744570 -0.051223 5.181532
v -0.925121 -0.180693 -5.162471
v -0.925045 -0.080787 -5.158127
v 0.001454 0.103331 -5.166292
v 0.001378 0.003424 -5.170636
v 0.001378 0.003424 -5.170636
v -0.001372 -0.003422 5.170638
v -0.744646 -0.151129 5.177188
v -0.925121 -0.180693 -5.162471
v -0.744646 -0.151129 5.177188
v -0.925121 -0.180693 -5.162471
v -0.744570 -0.051223 5.181532
v -0.925045 -0.080787 -5.158127
vt 0.999023 0.506836
vt 0.999023 0.537109
vt 0.875977 0.537109
vt 0.875977 0.506836
vn -0.194891 0.980804 0.000580
vn 0.999969 -0.000763 0.000244
vn 0.017426 -0.043428 0.998901
vn -0.017426 0.043428 -0.998901
vn 0.194891 -0.980804 -0.000580
vn -0.999847 0.000000 0.017426
usemtl Material
s 1
f 1/1/1 2/2/1 3/3/1 4/4/1
f 5/4/2 6/4/2 7/1/2 8/1/2
f 9/3/3 10/4/3 11/4/3 23/3/3
f 13/2/4 24/2/4 15/1/4 16/1/4
f 17/1/5 18/4/5 19/3/5 20/2/5
f 12/3/6 14/2/6 22/2/6 21/3/6
