o c_flap_rl
v 0.001372 -0.003424 5.170637
v 0.744645 -0.151130 5.177186
v 0.925046 -0.080788 -5.158128
v 0.925122 -0.180693 -5.162472
v 0.744569 -0.051224 5.181530
v 0.001296 0.096482 5.174980
v -0.001453 0.103330 -5.166293
v -0.001377 0.003425 -5.170637
v -0.001453 0.103330 -5.166293
v -0.001453 0.103330 -5.166293
v 0.925046 -0.080788 -5.158128
v 0.001296 0.096482 5.174980
v 0.001296 0.096482 5.174980
v 0.744569 -0.051224 5.181530
v 0.001372 -0.003424 5.170637
v 0.001372 -0.003424 5.170637
v 0.744645 -0.151130 5.177186
v 0.744645 -0.151130 5.177186
v 0.744569 -0.051224 5.181530
v 0.925122 -0.180693 -5.162472
v 0.925122 -0.180693 -5.162472
v -0.001377 0.003425 -5.170637
v 0.925046 -0.080788 -5.158128
v -0.001377 0.003425 -5.170637
vt 0.875977 0.537109
vt 0.999023 0.537109
vt 0.999023 0.567383
vt 0.875977 0.567383
vn 0.999847 0.000000 0.017426
vn 0.194891 0.980804 0.000580
vn -0.999969 -0.000763 0.000244
vn -0.017426 -0.043428 0.998901
vn 0.017426 0.043428 -0.998901
vn -0.194891 -0.980804 -0.000580
usemtl Material
s 1
f 17/1/1 20/2/1 23/2/1 19/1/1
f 10/3/2 13/4/2 14/1/2 11/2/2
f 24/3/3 16/4/3 12/4/3 9/3/3
f 6/4/4 1/4/4 2/1/4 5/1/4
f 4/2/5 8/3/5 7/3/5 3/2/5
f 18/1/6 15/4/6 22/3/6 21/2/6
