o flap_ll
v 0.818765 0.275037 5.142220
v 0.818765 0.074631 5.142220
v -0.074820 -0.222609 -5.142218
v 0.818765 0.074631 5.142220
v -0.074820 -0.022203 -5.142218
v -0.074820 -0.222609 -5.142218
v -0.074820 -0.222609 -5.142218
v -0.074820 -0.022203 -5.142218
v 0.818765 0.275037 5.142220
v 0.818773 -0.199949 -5.142218
v 0.818773 -0.199949 -5.142218
v 0.818773 -0.400356 -5.142218
v 0.818773 -0.400356 -5.142218
v 0.074818 0.222609 5.142220
v 0.074818 0.222609 5.142220
v 0.074818 0.222609 5.142220
v 0.074818 0.423015 5.142220
v 0.074818 0.423015 5.142220
v 0.818773 -0.400356 -5.142218
v 0.818773 -0.199949 -5.142218
v 0.818765 0.275037 5.142220
v -0.074820 -0.022203 -5.142218
v 0.074818 0.423015 5.142220
v 0.818765 0.074631 5.142220
v 0.818769 -0.162862 0.000001
v -0.000001 0.000000 0.000001
vt 0.436487 0.522934
vt 0.423041 -0.436583
vt 0.687310 -0.436583
vt 0.678629 0.522934
vt 0.449931 1.482452
vt 0.669946 1.482452
vt 0.406755 -0.464225
vt 0.665258 -0.446535
vt 0.406757 1.458138
vt 0.665260 1.475828
vt 0.387878 0.330785
vt 0.400056 0.269563
vt 0.671659 0.330785
vt 0.683837 0.269563
vt 0.405374 0.230786
vt 0.391568 0.169565
vt 0.659436 0.169565
vt 0.673243 0.230786
vt 0.680132 -0.439321
vt 0.680132 1.459800
vt 0.423792 -0.428937
vt 0.423792 1.470140
vt 0.415266 1.488702
vt 0.415264 -0.433910
vt 0.673788 1.477120
vt 0.673786 -0.445492
vn -0.194861 -0.979766 0.045228
vn 0.000000 0.000000 -1.000000
vn 0.000000 0.000000 1.000000
vn -0.999878 0.000000 0.014527
vn 1.000000 0.000000 0.000000
vn 0.194861 0.979766 -0.045228
s 1
f 26/1/1 3/2/1 25/3/1
f 3/1/1 13/3/1 25/4/1
f 16/5/1 26/1/1 4/4/1
f 26/5/1 25/4/1 4/6/1
f 6/7/2 22/8/2 10/9/2
f 6/8/2 10/10/2 12/9/2
f 24/11/3 21/12/3 14/13/3
f 21/12/3 23/14/3 14/13/3
f 15/15/4 17/16/4 5/17/4
f 15/15/4 5/17/4 7/18/4
f 1/19/5 2/20/5 20/21/5
f 2/20/5 19/22/5 20/21/5
f 11/23/6 8/24/6 9/25/6
f 8/24/6 18/26/6 9/25/6
