o lwpt_5
v -27.828569 -8.066055 7.576200
v -27.800339 -7.717700 10.717468
v -27.815287 -7.730155 8.258605
v -30.051357 -9.559225 11.682521
v -30.048750 -9.859115 12.498743
v -30.051357 -9.559225 9.432767
v -30.048750 -9.859109 8.780404
v -27.795654 -8.039767 11.560324
vt 0.101282 0.198581
vt 0.096408 0.178424
vt 0.166207 0.198384
vt 0.171366 0.219275
vt 0.103068 0.252201
vt 0.172850 0.277895
vt 0.098784 0.268778
vt 0.167724 0.295295
vn -0.582629 0.796655 0.160680
vn -0.522660 0.799676 0.295480
vn -0.521378 0.798273 0.301431
vn -0.585986 0.795923 0.151952
vn -0.671957 0.725211 -0.149998
vn -0.673116 0.722922 -0.155828
vn -0.693411 0.652638 -0.305246
vn -0.693197 0.651875 -0.307382
s 1
f 4/1/1 5/2/2 8/3/3
f 4/1/1 8/3/3 2/4/4
f 6/5/5 4/1/1 2/4/4
f 6/5/5 2/4/4 3/6/6
f 3/6/6 7/7/7 6/5/5
f 1/8/8 7/7/7 3/6/6
