o lwpt_3
v -25.416992 -5.767927 9.695685
v -23.022339 -4.184453 4.969347
v -25.446793 -6.142498 6.284345
v -25.440058 -5.787292 7.011389
v -22.992893 -3.784804 8.656429
v -25.411982 -6.114995 10.567532
v -22.984495 -4.154829 9.556493
v -23.014902 -3.803565 5.737957
vt 0.322573 0.333001
vt 0.241675 0.323738
vt 0.246962 0.305187
vt 0.316942 0.352634
vt 0.320990 0.263487
vt 0.245565 0.241191
vt 0.315236 0.241030
vt 0.240052 0.219504
vn -0.673849 0.721397 -0.159551
vn -0.693991 0.648549 -0.312540
vn -0.672781 0.723594 -0.154027
vn -0.693777 0.647908 -0.314371
vn -0.581347 0.796838 0.164525
vn -0.578021 0.797449 0.173009
vn -0.509415 0.796350 0.326029
vn -0.510697 0.797754 0.320505
s 1
f 8/1/1 3/2/2 4/3/3
f 8/1/1 2/4/4 3/2/2
f 5/5/5 8/1/1 4/3/3
f 4/3/3 1/6/6 5/5/5
f 1/6/6 7/7/7 5/5/5
f 1/6/6 6/8/8 7/7/7
