o lwpb_4
v -27.818157 -8.387820 8.261865
v -27.828569 -8.066055 7.576200
v -27.791559 -8.366737 10.714342
v -27.795654 -8.039766 11.560324
v -25.440262 -6.484566 7.013947
v -25.446793 -6.142498 6.284346
v -25.416672 -6.466015 9.695885
v -25.411982 -6.114995 10.567532
vt -2.318815 0.989893
vt -2.609020 1.035988
vt -2.298627 0.911329
vt -2.627636 1.109929
vt -2.320690 1.259871
vt -2.628697 1.356820
vt -2.298627 1.351852
vt -2.608865 1.445937
vn 0.546617 -0.813379 -0.198920
vn 0.444929 -0.808710 -0.384686
vn 0.445509 -0.809046 -0.383312
vn 0.548997 -0.813013 -0.193854
vn 0.653737 -0.744591 0.134800
vn 0.654653 -0.742759 0.140263
vn 0.670156 -0.690451 0.272256
vn 0.670461 -0.690909 0.270272
s 1
f 5/1/1 2/2/2 6/3/3
f 1/4/4 2/2/2 5/1/1
f 7/5/5 1/4/4 5/1/1
f 3/6/6 1/4/4 7/5/5
f 8/7/7 3/6/6 7/5/5
f 3/6/6 8/7/7 4/8/8
