o lwpb_3
v -25.440262 -6.484566 7.013947
v -25.446793 -6.142498 6.284346
v -25.416672 -6.466015 9.695885
v -25.411982 -6.114995 10.567532
v -22.984495 -4.154829 9.556493
v -22.984737 -4.519617 8.652953
v -23.007368 -4.537271 5.737159
v -23.022339 -4.184454 4.969347
vt -2.298512 1.350591
vt -2.320647 1.258326
vt -1.981597 1.254469
vt -2.004269 1.158730
vt -2.318775 0.987513
vt -2.001838 0.864309
vt -2.298527 0.908705
vt -1.981597 0.781409
vn 0.670675 -0.689261 0.273965
vn 0.654958 -0.742180 0.141942
vn 0.670370 -0.688833 0.275857
vn 0.654042 -0.744011 0.136570
vn 0.549699 -0.812891 -0.192297
vn 0.547410 -0.813257 -0.197241
vn 0.446699 -0.809046 -0.381878
vn 0.447218 -0.809381 -0.380627
s 1
f 4/1/1 3/2/2 5/3/3
f 5/3/3 3/2/2 6/4/4
f 3/2/2 1/5/5 6/4/4
f 6/4/4 1/5/5 7/6/6
f 2/7/7 8/8/8 7/6/6
f 1/5/5 2/7/7 7/6/6
