o lwpt_2
v -23.022339 -4.184454 4.969347
v -22.992893 -3.784804 8.656429
v -20.592043 -2.221912 3.656199
v -20.567858 -1.801125 7.621787
v -22.984495 -4.154829 9.556493
v -23.014902 -3.803565 5.737957
v -20.577526 -1.810055 4.463123
v -20.561964 -2.198870 8.552521
vt 0.316942 0.352634
vt 0.398382 0.360405
vt 0.392462 0.381090
vt 0.320990 0.263487
vt 0.315236 0.241030
vt 0.390111 0.262510
vt 0.396114 0.285690
vt 0.322573 0.333001
vn -0.693869 0.647084 -0.315867
vn -0.673940 0.720939 -0.161229
vn -0.693655 0.646535 -0.317515
vn -0.576159 0.797601 0.178350
vn -0.505356 0.796411 0.332102
vn -0.504227 0.794977 0.337199
vn -0.579394 0.797052 0.170141
vn -0.672933 0.723075 -0.155858
s 1
f 1/1/1 7/2/2 3/3/3
f 2/4/4 5/5/5 8/6/6
f 2/4/4 8/6/6 4/7/7
f 6/8/8 2/4/4 4/7/7
f 6/8/8 4/7/7 7/2/2
f 1/1/1 6/8/8 7/2/2
