o lwpb2_lwpb_2
v -22.984495 -4.154829 9.556493
v -22.984737 -4.519617 8.652953
v -23.007368 -4.537271 5.737159
v -23.022339 -4.184454 4.969347
v -20.571371 -2.587704 4.463770
v -20.592043 -2.221912 3.656199
v -20.562235 -2.580981 7.619090
v -20.561964 -2.198869 8.552521
vt -1.683905 0.740154
vt -1.981900 0.781101
vt -1.663482 0.652650
vt -2.001984 0.864347
vt -1.687631 1.059852
vt -2.003579 1.159804
vt -1.663482 1.159158
vt -1.980561 1.255816
vn 0.548357 -0.813013 -0.195654
vn 0.448866 -0.809107 -0.379254
vn 0.449293 -0.809381 -0.378124
vn 0.550615 -0.812647 -0.190832
vn 0.654103 -0.743614 0.138279
vn 0.654988 -0.741844 0.143590
vn 0.670186 -0.687582 0.279336
vn 0.670522 -0.687979 0.277566
s 1
f 5/1/1 4/2/2 6/3/3
f 3/4/4 4/2/2 5/1/1
f 5/1/1 7/5/5 3/4/4
f 7/5/5 2/6/6 3/4/4
f 8/7/7 2/6/6 7/5/5
f 8/7/7 1/8/8 2/6/6
