o nazzle
v -0.000000 -15.421061 -0.303957
v -0.151968 -15.421061 -0.263217
v -0.000006 -14.051168 -0.830374
v 0.415163 -14.051168 -0.719132
v 0.719116 -14.051165 -0.415185
v 0.151962 -15.421061 -0.263217
v 0.830333 -14.051165 0.000003
v 0.263177 -15.421061 -0.151952
v 0.303915 -15.421061 0.000003
v 0.719116 -14.051165 0.415186
v 0.415163 -14.051168 0.719133
v 0.263177 -15.421061 0.151964
v -0.000006 -14.051168 0.830392
v 0.151962 -15.421061 0.263218
v -0.415207 -14.051168 0.719133
v -0.000000 -15.421061 0.303950
v -0.719155 -14.051168 0.415186
v -0.151968 -15.421061 0.263218
v -0.830397 -14.051168 0.000003
v -0.263239 -15.421061 0.151964
v -0.719155 -14.051168 -0.415185
v -0.303973 -15.421061 0.000003
v -0.415207 -14.051168 -0.719138
v -0.263239 -15.421061 -0.151952
v -0.000000 -16.221802 0.000003
vt 0.464670 0.437921
vt 0.447626 0.460318
vt 0.176153 0.159113
vt 0.380158 0.041343
vt 0.615741 0.041354
vt 0.490630 0.427049
vt 0.819730 0.159147
vt 0.518546 0.430612
vt 0.540942 0.447654
vt 0.937507 0.363139
vt 0.937505 0.598710
vt 0.551816 0.473614
vt 0.819741 0.802708
vt 0.548254 0.501530
vt 0.615728 0.920506
vt 0.531211 0.523928
vt 0.380146 0.920512
vt 0.505251 0.534802
vt 0.176138 0.802727
vt 0.477329 0.531241
vt 0.058348 0.598715
vt 0.454934 0.514197
vt 0.058348 0.363127
vt 0.444062 0.488240
vt 0.497941 0.480924
vn 0.002167 -0.356792 -0.934172
vn -0.465194 -0.356792 -0.810083
vn -0.004273 -0.358684 -0.933439
vn 0.463088 -0.358684 -0.810450
vn 0.806330 -0.358715 -0.470229
vn 0.469069 -0.356792 -0.807855
vn 0.933439 -0.358684 -0.004303
vn 0.810144 -0.356792 -0.465102
vn 0.934172 -0.356761 0.002136
vn 0.810450 -0.358715 0.463088
vn 0.470443 -0.358684 0.806207
vn 0.807917 -0.356792 0.468978
vn 0.004242 -0.358715 0.933409
vn 0.465285 -0.356792 0.810053
vn -0.463057 -0.358715 0.810450
vn -0.002167 -0.356792 0.934172
vn -0.806238 -0.358715 0.470382
vn -0.468978 -0.356792 0.807917
vn -0.933439 -0.358684 0.004273
vn -0.810053 -0.356792 0.465224
vn -0.810450 -0.358715 -0.463088
vn -0.934141 -0.356792 -0.002167
vn -0.470351 -0.358715 -0.806269
vn -0.807886 -0.356792 -0.469008
vn 0.000000 -1.000000 0.000000
s 1
f 1/1/1 2/2/2 3/3/3
f 4/4/4 1/1/1 3/3/3
f 4/4/4 5/5/5 6/6/6
f 6/6/6 1/1/1 4/4/4
f 5/5/5 7/7/7 8/8/8
f 8/8/8 6/6/6 5/5/5
f 9/9/9 7/7/7 10/10/10
f 9/9/9 8/8/8 7/7/7
f 10/10/10 11/11/11 12/12/12
f 12/12/12 9/9/9 10/10/10
f 11/11/11 13/13/13 14/14/14
f 14/14/14 12/12/12 11/11/11
f 13/13/13 15/15/15 16/16/16
f 16/16/16 14/14/14 13/13/13
f 15/15/15 17/17/17 18/18/18
f 16/16/16 15/15/15 18/18/18
f 17/17/17 19/19/19 20/20/20
f 20/20/20 18/18/18 17/17/17
f 19/19/19 21/21/21 22/22/22
f 22/22/22 20/20/20 19/19/19
f 21/21/21 23/23/23 24/24/24
f 24/24/24 22/22/22 21/21/21
f 2/2/2 23/23/23 3/3/3
f 2/2/2 24/24/24 23/23/23
f 1/1/1 6/6/6 25/25/25
f 6/6/6 8/8/8 25/25/25
f 8/8/8 9/9/9 25/25/25
f 9/9/9 12/12/12 25/25/25
f 12/12/12 14/14/14 25/25/25
f 14/14/14 16/16/16 25/25/25
f 16/16/16 18/18/18 25/25/25
f 18/18/18 20/20/20 25/25/25
f 20/20/20 22/22/22 25/25/25
f 22/22/22 24/24/24 25/25/25
f 24/24/24 2/2/2 25/25/25
f 2/2/2 1/1/1 25/25/25
