# Blender3D v249 OBJ File: courier_2012-3.blend
# www.blender3d.org
v 20.592045 -2.221912 3.656199
v 23.022005 -4.184454 4.969347
v 20.577526 -1.810055 4.463123
v 23.014576 -3.803565 5.737957
v 20.567852 -1.801125 7.621787
v 22.984169 -4.154829 9.556493
v 20.561962 -2.198868 8.552521
v 22.992567 -3.784804 8.656429
v 23.022005 -4.184454 4.969347
v 23.007368 -4.537271 5.737159
v 22.984732 -4.519617 8.652953
v 22.984169 -4.154829 9.556493
v 20.561962 -2.198868 8.552521
v 20.562229 -2.580981 7.619090
v 20.592045 -2.221912 3.656199
v 20.571369 -2.587704 4.463770
vt 0.114254 0.005013
vt 0.122041 0.021563
vt 0.015864 0.043860
vt 0.009457 0.026929
vt 0.015784 0.100645
vt 0.122217 0.081885
vt 0.007709 0.119147
vt 0.112571 0.101735
vt 0.121042 0.082252
vt 0.016088 0.100479
vt 0.009126 0.119728
vt 0.113418 0.101946
vt 0.122948 0.022721
vt 0.015749 0.043791
vt 0.114160 0.003608
vt 0.009056 0.028278
vn 0.693899 0.647023 -0.315897
vn 0.673696 0.721335 -0.160466
vn 0.578295 0.797601 0.171361
vn 0.504257 0.794916 0.337291
vn -0.654805 -0.742485 0.141118
vn -0.670217 -0.687582 0.279244
vn -0.549028 -0.812952 -0.193915
vn -0.448958 -0.809107 -0.379131
usemtl Material
s 1
f 1/1/1 3/2/2 4/3/2 2/4/1
f 8/5/3 4/3/2 3/2/2 5/6/3
f 6/7/4 8/5/3 5/6/3 7/8/4
f 14/9/5 11/10/5 12/11/6 13/12/6
f 16/13/7 10/14/7 11/10/5 14/9/5
f 15/15/8 9/16/8 10/14/7 16/13/7
