o rwpb_2
v 20.571371 -2.587704 4.463770
v 20.592043 -2.221912 3.656199
v 20.562229 -2.580981 7.619090
v 20.561964 -2.198869 8.552521
v 22.984495 -4.154829 9.556493
v 22.984732 -4.519617 8.652953
v 23.007368 -4.537271 5.737159
v 23.022331 -4.184454 4.969347
vt 3.055721 0.884473
vt 2.757951 0.841916
vt 2.738002 0.754304
vt 3.075353 0.967826
vt 2.759949 1.161630
vt 3.075353 1.263288
vt 2.735265 1.260803
vt 3.051816 1.359174
vn -0.448866 -0.809107 -0.379254
vn -0.548357 -0.813013 -0.195624
vn -0.449293 -0.809381 -0.378124
vn -0.550615 -0.812647 -0.190832
vn -0.654103 -0.743614 0.138279
vn -0.654988 -0.741844 0.143590
vn -0.670186 -0.687582 0.279336
vn -0.670522 -0.687979 0.277566
s 1
f 8/1/1 1/2/2 2/3/3
f 1/2/2 8/1/1 7/4/4
f 1/2/2 7/4/4 3/5/5
f 3/5/5 7/4/4 6/6/6
f 4/7/7 3/5/5 6/6/6
f 5/8/8 4/7/7 6/6/6
