o rwpb_5
v 27.828569 -8.066055 7.576200
v 30.048750 -9.859109 8.780404
v 27.818157 -8.387820 8.261865
v 30.049284 -10.173624 9.432767
v 27.791559 -8.366737 10.714342
v 30.049179 -10.173623 11.682521
v 27.795654 -8.039766 11.560324
v 30.048750 -9.859114 12.498743
vt 3.686472 1.142465
vt 3.973332 1.263744
vt 3.703726 1.216647
vt 3.991076 1.334368
vt 3.700324 1.463238
vt 3.991076 1.560574
vt 3.678905 1.551882
vt 3.970161 1.646003
vn -0.443617 -0.808679 -0.386242
vn -0.443037 -0.808313 -0.387677
vn -0.545824 -0.813501 -0.200629
vn -0.548235 -0.813135 -0.195502
vn -0.653432 -0.745201 0.132908
vn -0.654378 -0.743370 0.138371
vn -0.669942 -0.692129 0.268532
vn -0.670247 -0.692587 0.266518
s 1
f 1/1/1 2/2/2 3/3/3
f 3/3/3 4/4/4 5/5/5
f 5/5/5 4/4/4 6/6/6
f 7/7/7 5/5/5 6/6/6
f 8/8/8 7/7/7 6/6/6
f 2/2/2 4/4/4 3/3/3
