o rwpt_3
v 25.440060 -5.787292 7.011395
v 25.446793 -6.142498 6.284345
v 25.416992 -5.767927 9.695685
v 23.014904 -3.803565 5.737957
v 25.411983 -6.114995 10.567532
v 22.992893 -3.784804 8.656429
v 22.984497 -4.154829 9.556493
v 23.022331 -4.184454 4.969347
vt 0.322563 0.333400
vt 0.246960 0.305638
vt 0.241685 0.324186
vt 0.316945 0.353030
vt 0.320939 0.263907
vt 0.245525 0.241664
vt 0.315174 0.241461
vt 0.240001 0.219988
vn 0.673849 0.721397 -0.159551
vn 0.672781 0.723594 -0.154027
vn 0.693991 0.648549 -0.312540
vn 0.693777 0.647908 -0.314371
vn 0.581347 0.796838 0.164525
vn 0.578021 0.797449 0.173009
vn 0.509415 0.796350 0.325999
vn 0.510697 0.797754 0.320505
s 1
f 4/1/1 1/2/2 2/3/3
f 2/3/3 8/4/4 4/1/1
f 6/5/5 1/2/2 4/1/1
f 1/2/2 6/5/5 3/6/6
f 3/6/6 6/5/5 7/7/7
f 7/7/7 5/8/8 3/6/6
