o rwpt_4_twpt_4
v 27.800339 -7.717700 10.717468
v 27.828569 -8.066055 7.576200
v 25.440058 -5.787292 7.011395
v 25.446793 -6.142498 6.284345
v 25.416992 -5.767927 9.695685
v 27.795654 -8.039766 11.560324
v 27.815287 -7.730155 8.258605
v 25.411982 -6.114995 10.567532
vt 0.171340 0.219800
vt 0.240001 0.219988
vt 0.166171 0.198920
vt 0.245525 0.241664
vt 0.172858 0.278398
vt 0.246960 0.305638
vt 0.167744 0.295795
vt 0.241685 0.324186
vn 0.580248 0.797082 0.167119
vn 0.515366 0.797357 0.313944
vn 0.516678 0.798791 0.308084
vn 0.583605 0.796411 0.158391
vn 0.672384 0.724387 -0.152074
vn 0.673482 0.722129 -0.157781
vn 0.693716 0.650533 -0.309030
vn 0.693503 0.649800 -0.311045
s 1
f 1/1/1 8/2/2 6/3/3
f 1/1/1 5/4/4 8/2/2
f 5/4/4 1/1/1 7/5/5
f 7/5/5 3/6/6 5/4/4
f 7/5/5 2/7/7 3/6/6
f 3/6/6 2/7/7 4/8/8
