# Blender3D v249 OBJ File: courier_2012-3.blend
# www.blender3d.org
v 27.827795 -8.066055 7.576200
v 30.048901 -9.859109 8.780404
v 27.814512 -7.730155 8.258605
v 30.051508 -9.559225 9.432767
v 27.799564 -7.717700 10.717468
v 30.048901 -9.859112 12.498743
v 27.794880 -8.039763 11.560324
v 30.051508 -9.559222 11.682521
v 30.048901 -9.859112 12.498743
v 27.794880 -8.039763 11.560324
v 30.049179 -10.173621 11.682521
v 27.791559 -8.366737 10.714342
v 30.049284 -10.173624 9.432767
v 27.818157 -8.387820 8.261865
v 30.048901 -9.859109 8.780404
v 27.827795 -8.066055 7.576200
vt 0.738205 0.004446
vt 0.745874 0.021986
vt 0.630894 0.046721
vt 0.623803 0.031131
vt 0.630953 0.101499
vt 0.745916 0.080657
vt 0.623358 0.121171
vt 0.735596 0.102119
vt 0.615676 0.123645
vt 0.734031 0.103062
vt 0.743960 0.081185
vt 0.623069 0.103074
vt 0.746076 0.022457
vt 0.623067 0.047978
vt 0.738540 0.005862
vt 0.613676 0.031776
vn 0.693258 0.652760 -0.305368
vn 0.672597 0.723594 -0.154881
vn 0.584765 0.796655 0.152745
vn 0.521226 0.798334 0.301553
vn -0.669820 -0.692282 0.268380
vn -0.654073 -0.744163 0.135563
vn -0.546678 -0.813471 -0.198370
vn -0.443098 -0.808374 -0.387463
usemtl Material
s 1
f 1/1/1 3/2/2 4/3/2 2/4/1
f 8/5/3 4/3/2 3/2/2 5/6/3
f 6/7/4 8/5/3 5/6/3 7/8/4
f 9/9/5 10/10/5 12/11/6 11/12/6
f 14/13/7 13/14/7 11/12/6 12/11/6
f 16/15/8 15/16/8 13/14/7 14/13/7
