o rwpb_3
v 23.022331 -4.184453 4.969347
v 23.007370 -4.537271 5.737159
v 22.984734 -4.519616 8.652953
v 22.984497 -4.154828 9.556493
v 25.411983 -6.114994 10.567532
v 25.416672 -6.466015 9.695885
v 25.440262 -6.484566 7.013947
v 25.446793 -6.142498 6.284345
vt 0.000000 0.000000
vt 1.000000 0.000000
vt 1.000000 1.000000
vn -0.547410 -0.813257 -0.197241
vn -0.446699 -0.809046 -0.381878
vn -0.549699 -0.812891 -0.192297
vn -0.447218 -0.809381 -0.380627
vn -0.654042 -0.744011 0.136570
vn -0.654958 -0.742180 0.141972
vn -0.670370 -0.688833 0.275857
vn -0.670675 -0.689261 0.273965
s 1
f 2/1/1 8/2/2 7/3/3
f 1/1/4 8/2/2 2/3/1
f 2/1/1 7/2/3 3/3/5
f 7/1/3 6/2/6 3/3/5
f 3/1/5 6/2/6 4/3/7
f 4/1/7 6/2/6 5/3/8
