o sledge_r
v 31.755033 -15.741847 6.065950
v 31.880758 -16.039316 5.894207
v 31.840904 -15.867573 5.917216
v 31.732023 -15.741847 5.980079
v 31.669161 -15.741847 5.917216
v 31.732023 -15.867573 5.808335
v 31.755033 -16.039316 5.768481
v 31.583288 -16.039316 5.722463
v 31.583288 -15.867573 5.768481
v 31.583288 -15.741847 5.894207
v 31.583288 -15.695828 6.065950
v 31.497417 -15.741847 5.917216
v 31.434555 -15.867573 5.808335
v 31.411545 -16.039316 5.768482
v 31.285820 -16.039316 5.894207
v 31.325674 -15.867573 5.917216
v 31.434555 -15.741847 5.980079
v 31.411545 -15.741847 6.065950
v 31.285820 -15.867573 6.065950
v 31.239801 -16.039316 6.065950
v 31.285820 -16.039316 6.237694
v 31.325674 -15.867573 6.214685
v 31.434555 -15.741847 6.151823
v 31.497417 -15.741847 6.214685
v 31.434555 -15.867573 6.323566
v 31.411545 -16.039316 6.363420
v 31.583288 -15.867573 6.363420
v 31.583288 -15.741847 6.237694
v 31.669161 -15.741847 6.214685
v 31.732023 -15.867573 6.323566
v 31.755033 -16.039316 6.363420
v 31.880758 -16.039316 6.237694
v 31.840904 -15.867573 6.214685
v 31.732023 -15.741847 6.151823
v 31.880758 -15.867573 6.065950
v 31.926777 -16.039316 6.065950
v 31.875023 -16.223989 9.998596
v 31.875023 -16.131975 10.341990
v 31.875023 -16.475370 10.434003
v 31.875023 -16.567383 10.090610
v 31.293560 -16.223988 9.998597
v 31.293560 -16.131977 10.341990
v 31.293560 -16.475370 10.434003
v 31.293560 -16.567383 10.090610
v 31.875025 -16.223988 1.693252
v 31.875025 -16.131975 2.036645
v 31.875025 -16.475370 2.128657
v 31.875025 -16.567383 1.785264
v 31.293562 -16.223988 1.693252
v 31.293562 -16.131975 2.036645
v 31.293562 -16.475370 2.128657
v 31.293562 -16.567383 1.785264
v 31.293562 -16.223989 5.847432
v 31.293562 -16.131977 6.190825
v 31.293562 -16.475370 6.282838
v 31.293562 -16.567383 5.939444
v 31.875025 -16.223989 5.847431
v 31.875025 -16.131977 6.190825
v 31.875025 -16.475370 6.282837
v 31.875025 -16.567383 5.939444
v 31.673845 -16.120546 11.113605
v 31.764616 -16.064404 11.113606
v 31.673845 -16.008261 11.113605
v 31.492306 -16.008261 11.113605
v 31.401535 -16.064404 11.113606
v 31.492306 -16.120544 11.113605
v 31.678703 -16.123550 1.013680
v 31.774334 -16.064402 1.013680
v 31.678703 -16.005253 1.013679
v 31.487446 -16.005253 1.013679
v 31.391815 -16.064402 1.013680
v 31.487446 -16.123550 1.013680
v 31.583075 -16.064404 11.113606
v 31.583075 -16.064402 1.013680
v 32.176575 -16.188543 1.413774
v 32.011955 -16.004999 1.413773
v 31.154194 -16.004999 1.413773
v 30.989574 -16.188543 1.413774
v 32.011955 -16.372087 1.413773
v 31.154194 -16.372087 1.413773
v 32.176579 -16.188545 10.714616
v 32.011955 -16.004999 10.714615
v 31.154196 -16.004999 10.714616
v 30.989574 -16.188543 10.714616
v 32.011955 -16.372089 10.714615
v 31.154196 -16.372089 10.714615
v 31.583288 -16.039316 6.409438
v 30.989574 -16.188543 1.413774
v 31.391815 -16.064402 1.013680
v 31.487446 -16.005253 1.013679
v 31.678703 -16.005253 1.013679
v 31.774334 -16.064402 1.013680
v 32.176575 -16.188543 1.413774
v 32.176579 -16.188545 10.714616
v 31.764616 -16.064404 11.113606
v 31.673845 -16.008261 11.113605
v 31.492306 -16.008261 11.113605
v 31.401535 -16.064404 11.113606
v 30.989574 -16.188543 10.714616
vt 0.461090 0.430693
vt 0.504999 0.440777
vt 0.461328 0.517571
vt 0.538528 0.472357
vt 0.552063 0.517322
vt 0.538774 0.562360
vt 0.505419 0.594123
vt 0.461566 0.604446
vt 0.417658 0.594363
vt 0.384129 0.562784
vt 0.370593 0.517820
vt 0.383882 0.472780
vt 0.417238 0.441017
vt 0.242989 -0.529780
vt 0.751798 1.530578
vt 0.730118 -0.516130
vt 0.263313 1.516724
vt 0.434515 -0.702550
vt 0.547033 -0.697569
vt 0.028263 -0.558188
vt 0.370935 -0.723527
vt 0.028264 1.530041
vt 0.966289 -0.574728
vt 0.615575 -0.734855
vt 0.752277 -0.572647
vt 0.553944 -0.732911
vt 0.982875 1.597754
vt 0.752658 1.598833
vt 0.448213 -0.738986
vt 0.236734 -0.590910
vt 0.241184 1.580240
vt 0.386726 -0.744334
vt 0.016521 -0.599270
vt 0.016520 1.572734
vt 0.937268 -0.540644
vt 0.612999 -0.714634
vt 0.995502 1.548364
vt 0.564058 1.709110
vt 0.442363 1.703146
vt 0.369506 1.721431
vt 0.612947 1.755874
vt 0.546711 1.751156
vt 0.433737 1.743687
vt 0.367645 1.744913
vt 0.634037 1.731908
vt 0.491585 -0.721113
vt 0.432748 -0.743788
vt 0.434914 1.748956
vt 0.502329 1.729041
vt 0.566459 1.753931
vt 0.553156 -0.739531
vt 0.978332 0.985753
vt 0.029003 0.036428
vt 0.978332 0.036428
vt 0.029003 0.985753
vt 0.977649 0.971182
vt 0.050167 0.043699
vt 0.977649 0.043702
vt 0.050165 0.971182
vt 0.033851 0.030322
vt 0.973485 0.969957
vt 0.033857 0.969957
vt 0.973485 0.030322
vt 0.966389 0.964328
vt 0.035826 0.033770
vt 0.966386 0.033770
vt 0.035826 0.964324
vt 0.969603 0.972287
vt 0.027493 0.030179
vt 0.969603 0.030172
vt 0.027492 0.972287
vt 0.982160 0.984129
vt 0.020058 0.022028
vt 0.982160 0.022028
vt 0.020055 0.984129
vt 0.287328 0.233139
vt 0.460399 0.178011
vt 0.366458 0.356415
vt 0.460825 0.333905
vt 0.297152 0.424761
vt 0.173413 0.360571
vt 0.137766 0.518457
vt 0.270006 0.518095
vt 0.297663 0.611278
vt 0.174278 0.676145
vt 0.288889 0.802950
vt 0.367344 0.679242
vt 0.461831 0.701236
vt 0.462259 0.857128
vt 0.635329 0.802002
vt 0.556198 0.678724
vt 0.625505 0.610380
vt 0.749244 0.674570
vt 0.784892 0.516684
vt 0.652650 0.517047
vt 0.624992 0.423862
vt 0.748379 0.358995
vt 0.633768 0.232190
vt 0.555313 0.355898
vn 0.532609 0.846339 0.000000
vn 0.462691 0.845668 -0.265908
vn 0.000000 1.000000 0.000000
vn 0.267739 0.845668 -0.461623
vn 0.000000 0.845027 -0.534715
vn -0.267739 0.845668 -0.461623
vn -0.462691 0.845668 -0.265908
vn -0.532609 0.846339 0.000000
vn -0.462691 0.845668 0.265908
vn -0.267739 0.845668 0.461623
vn 0.000000 0.845027 0.534715
vn 0.267739 0.845668 0.461623
vn 0.462691 0.845668 0.265908
vn -0.398755 -0.848872 0.346904
vn 0.398053 -0.850063 -0.344798
vn 0.398663 -0.848170 0.348704
vn -0.397992 -0.849391 -0.346568
vn -0.186407 -0.519333 0.833949
vn 0.186987 -0.517991 0.834681
vn -0.637532 -0.611011 0.469222
vn -0.224586 -0.363109 0.904233
vn -0.640187 -0.613788 -0.461928
vn -0.720237 0.645985 0.252785
vn -0.569353 0.684713 0.454909
vn -0.468062 0.864284 0.184027
vn -0.254097 0.941099 0.223029
vn -0.722404 0.647908 -0.241401
vn -0.467452 0.865780 -0.178503
vn 0.250954 0.942564 0.220374
vn 0.468062 0.864284 0.183996
vn 0.467452 0.865780 -0.178503
vn 0.569353 0.684713 0.454909
vn 0.720237 0.645985 0.252785
vn 0.722404 0.647908 -0.241401
vn 0.637532 -0.611011 0.469222
vn 0.224586 -0.363109 0.904263
vn 0.640187 -0.613788 -0.461928
vn 0.188330 -0.523118 -0.831172
vn -0.188879 -0.521775 -0.831874
vn -0.226753 -0.366619 -0.902280
vn -0.573382 0.689230 -0.442885
vn -0.252205 0.944456 -0.210669
vn 0.255348 0.942991 -0.213294
vn 0.573382 0.689230 -0.442885
vn 0.226753 -0.366619 -0.902280
vn 0.000000 0.000000 1.000000
vn 0.000000 0.000000 -1.000000
vn 1.000000 0.000000 0.000000
vn -1.000000 0.000000 0.000000
vn 0.834376 0.258797 0.486618
vn 0.965911 0.258797 0.000000
vn 0.757134 0.485733 0.436750
vn 0.872890 0.487869 0.000000
vn 0.437300 0.485733 0.756828
vn 0.479263 0.258797 0.838618
vn 0.000000 0.258797 0.965911
vn 0.000000 0.483627 0.875271
vn -0.437300 0.485733 0.756828
vn -0.479263 0.258797 0.838618
vn -0.834376 0.258797 0.486618
vn -0.757134 0.485733 0.436750
vn -0.872890 0.487869 0.000000
vn -0.965911 0.258797 0.000000
vn -0.834376 0.258797 -0.486618
vn -0.757134 0.485733 -0.436750
vn -0.437300 0.485733 -0.756828
vn -0.479263 0.258797 -0.838618
vn 0.000000 0.258797 -0.965911
vn 0.000000 0.483627 -0.875271
vn 0.437300 0.485733 -0.756828
vn 0.479263 0.258797 -0.838618
vn 0.834376 0.258797 -0.486618
vn 0.757134 0.485733 -0.436750
s 1
f 1/1/1 4/2/2 11/3/3
f 4/2/2 5/4/4 11/3/3
f 5/4/4 10/5/5 11/3/3
f 10/5/5 12/6/6 11/3/3
f 12/6/6 17/7/7 11/3/3
f 17/7/7 18/8/8 11/3/3
f 18/8/8 23/9/9 11/3/3
f 23/9/9 24/10/10 11/3/3
f 24/10/10 28/11/11 11/3/3
f 28/11/11 29/12/12 11/3/3
f 29/12/12 34/13/13 11/3/3
f 34/13/13 1/1/1 11/3/3
f 86/14/14 79/15/15 85/16/16
f 86/14/14 80/17/17 79/15/15
f 85/16/16 66/18/18 86/14/14
f 85/16/16 61/19/19 66/18/18
f 86/14/14 66/18/18 84/20/20
f 84/20/20 66/18/18 65/21/21
f 80/17/17 86/14/14 78/22/22
f 78/22/22 86/14/14 84/20/20
f 99/23/23 98/24/24 83/25/25
f 83/25/25 98/24/24 64/26/26
f 88/27/27 83/25/25 77/28/28
f 88/27/27 99/23/23 83/25/25
f 83/25/25 63/29/29 82/30/30
f 83/25/25 64/26/26 63/29/29
f 77/28/28 82/30/30 76/31/31
f 77/28/28 83/25/25 82/30/30
f 82/30/30 62/32/32 81/33/33
f 82/30/30 63/29/29 62/32/32
f 76/31/31 82/30/30 75/34/34
f 75/34/34 82/30/30 81/33/33
f 61/19/19 94/35/35 95/36/36
f 61/19/19 85/16/16 94/35/35
f 93/37/37 85/16/16 79/15/15
f 93/37/37 94/35/35 85/16/16
f 80/17/17 67/38/38 79/15/15
f 80/17/17 72/39/39 67/38/38
f 72/39/39 78/22/22 89/40/40
f 72/39/39 80/17/17 78/22/22
f 71/41/41 77/28/28 70/42/42
f 71/41/41 88/27/27 77/28/28
f 70/42/42 76/31/31 69/43/43
f 70/42/42 77/28/28 76/31/31
f 69/43/43 76/31/31 68/44/44
f 68/44/44 76/31/31 75/34/34
f 92/45/45 93/37/37 67/38/38
f 67/38/38 93/37/37 79/15/15
f 66/18/18 61/19/19 73/46/46
f 73/46/46 61/19/19 95/36/36
f 97/47/46 65/21/21 73/46/46
f 73/46/46 65/21/21 66/18/18
f 90/48/47 74/49/47 89/40/40
f 89/40/40 74/49/47 72/39/39
f 92/45/45 74/49/47 91/50/47
f 91/50/47 74/49/47 90/48/47
f 95/36/36 96/51/46 73/46/46
f 73/46/46 96/51/46 97/47/46
f 92/45/45 67/38/38 74/49/47
f 74/49/47 67/38/38 72/39/39
f 58/52/48 60/53/48 57/54/48
f 58/52/48 59/55/48 60/53/48
f 56/56/49 54/57/49 53/58/49
f 56/56/49 55/59/49 54/57/49
f 52/60/49 50/61/49 49/62/49
f 52/60/49 51/63/49 50/61/49
f 46/64/48 48/65/48 45/66/48
f 46/64/48 47/67/48 48/65/48
f 44/68/49 42/69/49 41/70/49
f 44/68/49 43/71/49 42/69/49
f 38/72/48 40/73/48 37/74/48
f 38/72/48 39/75/48 40/73/48
f 32/76/50 36/77/51 33/78/52
f 33/78/52 36/77/51 35/79/53
f 1/1/1 34/13/13 35/79/53
f 35/79/53 34/13/13 33/78/52
f 30/80/54 33/78/52 29/12/12
f 29/12/12 33/78/52 34/13/13
f 31/81/55 32/76/50 30/80/54
f 30/80/54 32/76/50 33/78/52
f 87/82/56 31/81/55 27/83/57
f 27/83/57 31/81/55 30/80/54
f 27/83/57 30/80/54 28/11/11
f 28/11/11 30/80/54 29/12/12
f 25/84/58 28/11/11 24/10/10
f 25/84/58 27/83/57 28/11/11
f 26/85/59 27/83/57 25/84/58
f 26/85/59 87/82/56 27/83/57
f 21/86/60 25/84/58 22/87/61
f 21/86/60 26/85/59 25/84/58
f 22/87/61 24/10/10 23/9/9
f 22/87/61 25/84/58 24/10/10
f 19/88/62 23/9/9 18/8/8
f 19/88/62 22/87/61 23/9/9
f 20/89/63 22/87/61 19/88/62
f 20/89/63 21/86/60 22/87/61
f 15/90/64 20/89/63 16/91/65
f 16/91/65 20/89/63 19/88/62
f 16/91/65 19/88/62 17/7/7
f 17/7/7 19/88/62 18/8/8
f 13/92/66 16/91/65 12/6/6
f 12/6/6 16/91/65 17/7/7
f 14/93/67 15/90/64 13/92/66
f 13/92/66 15/90/64 16/91/65
f 8/94/68 14/93/67 9/95/69
f 9/95/69 14/93/67 13/92/66
f 9/95/69 13/92/66 10/5/5
f 10/5/5 13/92/66 12/6/6
f 6/96/70 10/5/5 5/4/4
f 6/96/70 9/95/69 10/5/5
f 7/97/71 9/95/69 6/96/70
f 7/97/71 8/94/68 9/95/69
f 2/98/72 6/96/70 3/99/73
f 2/98/72 7/97/71 6/96/70
f 3/99/73 5/4/4 4/2/2
f 3/99/73 6/96/70 5/4/4
f 4/2/2 1/1/1 35/79/53
f 35/79/53 3/99/73 4/2/2
f 36/77/51 3/99/73 35/79/53
f 36/77/51 2/98/72 3/99/73
