o tip_n_out
v 0.351498 6.243999 3.176709
v 0.405866 6.243999 3.379615
v 0.405508 6.009703 3.379615
v 0.351188 6.009703 3.176888
v 0.354977 5.667960 3.379615
v 0.307427 5.667960 3.202154
v -0.405400 6.009703 3.379615
v -0.351079 6.009703 3.176888
v -0.307318 5.667960 3.202154
v -0.354868 5.667960 3.379615
v -0.405757 6.243999 3.379615
v -0.351389 6.243999 3.176709
v -0.351389 6.243999 3.582521
v -0.351079 6.009703 3.582343
v -0.307318 5.667960 3.557076
v -0.150487 5.005187 3.379615
v -0.130319 5.005187 3.454886
v -0.177407 5.667960 3.686987
v -0.075217 5.005187 3.509988
v -0.202673 6.009703 3.730749
v -0.202851 6.243999 3.731058
v 0.000054 6.243999 3.785427
v 0.000054 6.009703 3.785069
v 0.000054 5.667960 3.734538
v 0.000054 5.005187 3.530157
v 0.177516 5.667960 3.686987
v 0.075325 5.005187 3.509988
v 0.202782 6.009703 3.730749
v 0.202960 6.243999 3.731058
v 0.351498 6.243999 3.582521
v 0.351188 6.009703 3.582343
v 0.307427 5.667960 3.557076
v 0.130427 5.005187 3.454886
v 0.150596 5.005187 3.379615
v -3.189308 6.243999 0.351442
v -3.392214 6.243999 0.405811
v -3.392213 6.009703 0.405453
v -3.189487 6.009703 0.351132
v -3.392213 5.667959 0.354921
v -3.214752 5.667959 0.307370
v -3.392214 6.009703 -0.405456
v -3.189487 6.009703 -0.351135
v -3.214752 5.667959 -0.307374
v -3.392213 5.667960 -0.354924
v -3.392213 6.243999 -0.405813
v -3.189308 6.243999 -0.351445
v -3.595119 6.243999 -0.351445
v -3.594941 6.009703 -0.351135
v -3.569675 5.667959 -0.307374
v -3.392213 5.005187 -0.150543
v -3.467485 5.005187 -0.130374
v -3.699586 5.667959 -0.177463
v -3.522586 5.005187 -0.075273
v -3.743347 6.009703 -0.202729
v -3.743657 6.243999 -0.202907
v -3.798025 6.243999 -0.000001
v -3.797668 6.009703 -0.000001
v -3.747136 5.667959 -0.000001
v -3.542755 5.005187 -0.000002
v -3.699586 5.667959 0.177460
v -3.522586 5.005187 0.075269
v -3.743347 6.009703 0.202726
v -3.743657 6.243999 0.202905
v -3.595119 6.243999 0.351442
v -3.594941 6.009703 0.351132
v -3.569675 5.667959 0.307370
v -3.467485 5.005187 0.130372
v -3.392213 5.005187 0.150540
v 3.185760 6.243999 -0.351471
v 3.388665 6.243999 -0.405839
v 3.388665 6.009703 -0.405482
v 3.185939 6.009703 -0.351161
v 3.388665 5.667959 -0.354950
v 3.211205 5.667959 -0.307400
v 3.388665 6.009703 0.405427
v 3.185939 6.009703 0.351107
v 3.211205 5.667959 0.307345
v 3.388665 5.667959 0.354896
v 3.388665 6.243999 0.405785
v 3.185760 6.243999 0.351416
v 3.591571 6.243999 0.351416
v 3.591393 6.009703 0.351107
v 3.566127 5.667959 0.307345
v 3.388665 5.005187 0.150515
v 3.463937 5.005187 0.130346
v 3.696038 5.667959 0.177434
v 3.519039 5.005187 0.075243
v 3.739800 6.009703 0.202700
v 3.740109 6.243999 0.202879
v 3.794477 6.243999 -0.000027
v 3.794120 6.009703 -0.000027
v 3.743589 5.667959 -0.000027
v 3.539207 5.005187 -0.000027
v 3.696038 5.667959 -0.177488
v 3.519039 5.005187 -0.075298
v 3.739800 6.009703 -0.202755
v 3.740109 6.243999 -0.202933
v 3.591571 6.243999 -0.351471
v 3.591393 6.009703 -0.351161
v 3.566128 5.667959 -0.307400
v 3.463937 5.005187 -0.130400
v 3.388665 5.005187 -0.150569
v -0.351389 6.243999 -3.177648
v -0.405758 6.243998 -3.380554
v -0.405400 6.009703 -3.380554
v -0.351079 6.009703 -3.177826
v -0.354868 5.667959 -3.380554
v -0.307318 5.667959 -3.203092
v 0.405508 6.009703 -3.380554
v 0.351188 6.009703 -3.177826
v 0.307427 5.667959 -3.203092
v 0.354977 5.667959 -3.380554
v 0.405866 6.243999 -3.380554
v 0.351498 6.243999 -3.177648
v 0.351498 6.243999 -3.583460
v 0.351188 6.009703 -3.583281
v 0.307427 5.667959 -3.558015
v 0.150596 5.005187 -3.380554
v 0.130427 5.005187 -3.455825
v 0.177516 5.667959 -3.687926
v 0.075325 5.005187 -3.510927
v 0.202782 6.009703 -3.731687
v 0.202960 6.243999 -3.731997
v 0.000054 6.243999 -3.786366
v 0.000054 6.009703 -3.786009
v 0.000054 5.667959 -3.735476
v 0.000054 5.005187 -3.531096
v -0.177407 5.667959 -3.687926
v -0.075217 5.005187 -3.510927
v -0.202673 6.009703 -3.731687
v -0.202852 6.243998 -3.731997
v -0.351389 6.243998 -3.583460
v -0.351079 6.009703 -3.583282
v -0.307318 5.667959 -3.558015
v -0.130319 5.005187 -3.455825
v -0.150488 5.005187 -3.380554
vt 0.851413 0.706830
vt 0.906339 0.501846
vt 0.905978 0.501846
vt 0.851101 0.706649
vt 0.854929 0.501846
vt 0.806892 0.681124
vt 0.086765 0.501846
vt 0.141641 0.706649
vt 0.185851 0.681124
vt 0.137813 0.501846
vt 0.086404 0.501846
vt 0.141329 0.706830
vt 0.141329 0.296862
vt 0.141641 0.297043
vt 0.185851 0.322567
vt 0.344288 0.501846
vt 0.364663 0.425804
vt 0.317092 0.191326
vt 0.420329 0.370138
vt 0.291568 0.147116
vt 0.291387 0.146803
vt 0.496371 0.091879
vt 0.496371 0.092239
vt 0.496371 0.143288
vt 0.496371 0.349762
vt 0.675650 0.191326
vt 0.572413 0.370138
vt 0.701175 0.147116
vt 0.701355 0.146803
vt 0.851413 0.296862
vt 0.851101 0.297043
vt 0.806892 0.322567
vt 0.628079 0.425804
vt 0.648455 0.501846
vt 0.704756 0.150563
vt 0.499772 0.095638
vt 0.499772 0.095999
vt 0.704575 0.150876
vt 0.499772 0.147048
vt 0.679051 0.195086
vt 0.499772 0.915213
vt 0.704576 0.860335
vt 0.679051 0.816127
vt 0.499772 0.864164
vt 0.499772 0.915574
vt 0.704756 0.860648
vt 0.294788 0.860648
vt 0.294969 0.860335
vt 0.320493 0.816127
vt 0.499772 0.657690
vt 0.423730 0.637314
vt 0.189252 0.684885
vt 0.368064 0.581647
vt 0.145042 0.710409
vt 0.144729 0.710589
vt 0.089804 0.505606
vt 0.090165 0.505606
vt 0.141214 0.505606
vt 0.347688 0.505606
vt 0.189252 0.326327
vt 0.368064 0.429564
vt 0.145042 0.300803
vt 0.144729 0.300622
vt 0.294788 0.150563
vt 0.294969 0.150876
vt 0.320493 0.195086
vt 0.423730 0.373897
vt 0.499772 0.353522
vt 0.291747 0.860650
vt 0.496731 0.915576
vt 0.496731 0.915215
vt 0.291927 0.860338
vt 0.496731 0.864166
vt 0.317453 0.816128
vt 0.496731 0.096001
vt 0.291927 0.150878
vt 0.317453 0.195087
vt 0.496731 0.147050
vt 0.496731 0.095640
vt 0.291747 0.150566
vt 0.701714 0.150566
vt 0.701534 0.150878
vt 0.676009 0.195087
vt 0.496731 0.353524
vt 0.572772 0.373900
vt 0.807252 0.326329
vt 0.628438 0.429566
vt 0.851460 0.300805
vt 0.851773 0.300624
vt 0.906699 0.505608
vt 0.906337 0.505607
vt 0.855289 0.505607
vt 0.648815 0.505607
vt 0.807252 0.684887
vt 0.628438 0.581650
vt 0.851460 0.710411
vt 0.851773 0.710592
vt 0.701714 0.860650
vt 0.701534 0.860338
vt 0.676009 0.816128
vt 0.572772 0.637316
vt 0.496731 0.657692
vt 0.141329 0.296433
vt 0.086404 0.501416
vt 0.086765 0.501416
vt 0.141641 0.296613
vt 0.137814 0.501416
vt 0.185852 0.322138
vt 0.905978 0.501416
vt 0.851102 0.296613
vt 0.806892 0.322138
vt 0.854929 0.501416
vt 0.906340 0.501416
vt 0.851415 0.296432
vt 0.851415 0.706400
vt 0.851102 0.706221
vt 0.806892 0.680695
vt 0.648456 0.501416
vt 0.628081 0.577458
vt 0.675651 0.811938
vt 0.572414 0.633124
vt 0.701175 0.856147
vt 0.701356 0.856459
vt 0.496372 0.911384
vt 0.496372 0.911024
vt 0.496372 0.859974
vt 0.496372 0.653500
vt 0.317093 0.811938
vt 0.420330 0.633125
vt 0.291568 0.856147
vt 0.291389 0.856459
vt 0.141329 0.706401
vt 0.141641 0.706221
vt 0.185852 0.680695
vt 0.364664 0.577458
vt 0.344288 0.501416
vn 0.965911 -0.001465 -0.258797
vn 0.999969 -0.001495 0.004242
vn 0.997253 -0.073824 0.000000
vn 0.963164 -0.075259 -0.258065
vn 0.984649 -0.165593 0.054689
vn 0.956206 -0.141362 -0.256203
vn -0.997253 -0.073824 0.000000
vn -0.963683 -0.067904 -0.258217
vn -0.956206 -0.141362 -0.256203
vn -0.984710 -0.163915 0.058809
vn -0.999969 -0.001495 -0.004242
vn -0.965911 -0.001465 -0.258797
vn -0.868129 -0.001495 0.496292
vn -0.863643 -0.073824 0.498642
vn -0.844722 -0.220252 0.487747
vn -0.925718 -0.285440 0.248024
vn -0.825434 -0.294656 0.481429
vn -0.487655 -0.220252 0.844783
vn -0.474105 -0.294656 0.829676
vn -0.498611 -0.073824 0.863643
vn -0.503677 -0.001495 0.863887
vn -0.004242 -0.001495 0.999969
vn 0.000000 -0.073824 0.997253
vn 0.000031 -0.220252 0.975433
vn 0.004212 -0.294656 0.955565
vn 0.487747 -0.220252 0.844722
vn 0.481460 -0.294656 0.825434
vn 0.498642 -0.073824 0.863643
vn 0.496292 -0.001495 0.868129
vn 0.863887 -0.001495 0.503677
vn 0.863643 -0.073824 0.498611
vn 0.844783 -0.220252 0.487655
vn 0.829676 -0.294656 0.474105
vn 0.925718 -0.285470 0.248024
vn 0.258797 -0.001465 0.965911
vn 0.258065 -0.075259 0.963164
vn -0.054689 -0.165593 0.984649
vn 0.256203 -0.141362 0.956206
vn 0.000000 -0.073824 -0.997253
vn 0.258217 -0.067904 -0.963683
vn 0.256203 -0.141362 -0.956206
vn -0.058809 -0.163915 -0.984710
vn 0.004242 -0.001495 -0.999969
vn 0.258797 -0.001465 -0.965911
vn -0.496292 -0.001495 -0.868129
vn -0.498642 -0.073824 -0.863643
vn -0.487747 -0.220252 -0.844722
vn -0.248024 -0.285470 -0.925718
vn -0.481460 -0.294656 -0.825434
vn -0.844783 -0.220252 -0.487655
vn -0.829676 -0.294656 -0.474105
vn -0.863643 -0.073824 -0.498611
vn -0.863887 -0.001495 -0.503677
vn -0.975433 -0.220252 0.000031
vn -0.955565 -0.294656 0.004212
vn -0.825434 -0.294656 0.481460
vn -0.868129 -0.001526 0.496292
vn -0.248024 -0.285470 0.925718
vn -0.258797 -0.001465 -0.965911
vn -0.258065 -0.075259 -0.963164
vn 0.054689 -0.165593 -0.984649
vn -0.256203 -0.141362 -0.956206
vn -0.258217 -0.067904 0.963683
vn -0.256203 -0.141362 0.956206
vn 0.058809 -0.163915 0.984710
vn -0.258797 -0.001465 0.965911
vn 0.248024 -0.285470 0.925718
vn 0.863887 -0.001495 0.503647
vn 0.975433 -0.220252 -0.000031
vn 0.955565 -0.294656 -0.004212
vn 0.844722 -0.220252 -0.487747
vn 0.825434 -0.294656 -0.481460
vn 0.863643 -0.073824 -0.498642
vn 0.868129 -0.001495 -0.496292
vn 0.503647 -0.001495 -0.863887
vn 0.498611 -0.073824 -0.863643
vn 0.487655 -0.220252 -0.844783
vn 0.474105 -0.294656 -0.829676
vn 0.248024 -0.285470 -0.925718
vn -0.965911 -0.001465 0.258797
vn -0.963164 -0.075259 0.258065
vn -0.984649 -0.165593 -0.054689
vn -0.956206 -0.141362 0.256203
vn 0.963683 -0.067904 0.258217
vn 0.956206 -0.141362 0.256203
vn 0.984710 -0.163915 -0.058809
vn 0.965911 -0.001465 0.258797
vn 0.868129 -0.001526 -0.496292
vn 0.925718 -0.285470 -0.248024
vn 0.503677 -0.001526 -0.863887
vn -0.000031 -0.220252 -0.975433
vn -0.004212 -0.294656 -0.955565
vn -0.496292 -0.001526 -0.868129
vn -0.925718 -0.285440 -0.248024
s 1
f 1/1/1 2/2/2 3/3/3
f 1/1/1 3/3/3 4/4/4
f 4/4/4 3/3/3 5/5/5
f 4/4/4 5/5/5 6/6/6
f 7/7/7 8/8/8 9/9/9
f 7/7/7 9/9/9 10/10/10
f 11/11/11 12/12/12 8/8/8
f 11/11/11 8/8/8 7/7/7
f 13/13/13 11/11/11 7/7/7
f 13/13/13 7/7/7 14/14/14
f 14/14/14 7/7/7 10/10/10
f 14/14/14 10/10/10 15/15/15
f 15/15/15 10/10/10 16/16/16
f 15/15/15 16/16/16 17/17/17
f 18/18/18 15/15/15 17/17/17
f 18/18/18 17/17/17 19/19/19
f 20/20/20 14/14/14 15/15/15
f 20/20/20 15/15/15 18/18/18
f 21/21/21 13/13/13 14/14/14
f 21/21/21 14/14/14 20/20/20
f 22/22/22 21/21/21 20/20/20
f 22/22/22 20/20/20 23/23/23
f 23/23/23 20/20/20 18/18/18
f 23/23/23 18/18/18 24/24/24
f 24/24/24 18/18/18 19/19/19
f 24/24/24 19/19/19 25/25/25
f 26/26/26 24/24/24 25/25/25
f 26/26/26 25/25/25 27/27/27
f 28/28/28 23/23/23 24/24/24
f 28/28/28 24/24/24 26/26/26
f 29/29/29 22/22/22 23/23/23
f 29/29/29 23/23/23 28/28/28
f 30/30/30 29/29/29 28/28/28
f 30/30/30 28/28/28 31/31/31
f 31/31/31 28/28/28 26/26/26
f 31/31/31 26/26/26 32/32/32
f 32/32/32 26/26/26 27/27/27
f 32/32/32 27/27/27 33/33/33
f 33/33/33 34/34/34 5/5/5
f 33/33/33 5/5/5 32/32/32
f 3/3/3 31/31/31 32/32/32
f 3/3/3 32/32/32 5/5/5
f 2/2/2 30/30/30 31/31/31
f 2/2/2 31/31/31 3/3/3
f 35/35/35 36/36/22 37/37/23
f 35/35/35 37/37/23 38/38/36
f 38/38/36 37/37/23 39/39/37
f 38/38/36 39/39/37 40/40/38
f 41/41/39 42/42/40 43/43/41
f 41/41/39 43/43/41 44/44/42
f 45/45/43 46/46/44 42/42/40
f 45/45/43 42/42/40 41/41/39
f 47/47/45 45/45/43 41/41/39
f 47/47/45 41/41/39 48/48/46
f 48/48/46 41/41/39 44/44/42
f 48/48/46 44/44/42 49/49/47
f 49/49/47 44/44/42 50/50/48
f 49/49/47 50/50/48 51/51/49
f 52/52/50 49/49/47 51/51/49
f 52/52/50 51/51/49 53/53/51
f 54/54/52 48/48/46 49/49/47
f 54/54/52 49/49/47 52/52/50
f 55/55/53 47/47/45 48/48/46
f 55/55/53 48/48/46 54/54/52
f 56/56/11 55/55/53 54/54/52
f 56/56/11 54/54/52 57/57/7
f 57/57/7 54/54/52 52/52/50
f 57/57/7 52/52/50 58/58/54
f 58/58/54 52/52/50 53/53/51
f 58/58/54 53/53/51 59/59/55
f 60/60/15 58/58/54 59/59/55
f 60/60/15 59/59/55 61/61/56
f 62/62/14 57/57/7 58/58/54
f 62/62/14 58/58/54 60/60/15
f 63/63/57 56/56/11 57/57/7
f 63/63/57 57/57/7 62/62/14
f 64/64/21 63/63/57 62/62/14
f 64/64/21 62/62/14 65/65/20
f 65/65/20 62/62/14 60/60/15
f 65/65/20 60/60/15 66/66/18
f 66/66/18 60/60/15 61/61/56
f 66/66/18 61/61/56 67/67/19
f 67/67/19 68/68/58 39/39/37
f 67/67/19 39/39/37 66/66/18
f 37/37/23 65/65/20 66/66/18
f 37/37/23 66/66/18 39/39/37
f 36/36/22 64/64/21 65/65/20
f 36/36/22 65/65/20 37/37/23
f 69/69/59 70/70/43 71/71/39
f 69/69/59 71/71/39 72/72/60
f 72/72/60 71/71/39 73/73/61
f 72/72/60 73/73/61 74/74/62
f 75/75/23 76/76/63 77/77/64
f 75/75/23 77/77/64 78/78/65
f 79/79/22 80/80/66 76/76/63
f 79/79/22 76/76/63 75/75/23
f 81/81/29 79/79/22 75/75/23
f 81/81/29 75/75/23 82/82/28
f 82/82/28 75/75/23 78/78/65
f 82/82/28 78/78/65 83/83/26
f 83/83/26 78/78/65 84/84/67
f 83/83/26 84/84/67 85/85/27
f 86/86/32 83/83/26 85/85/27
f 86/86/32 85/85/27 87/87/33
f 88/88/31 82/82/28 83/83/26
f 88/88/31 83/83/26 86/86/32
f 89/89/68 81/81/29 82/82/28
f 89/89/68 82/82/28 88/88/31
f 90/90/2 89/89/68 88/88/31
f 90/90/2 88/88/31 91/91/3
f 91/91/3 88/88/31 86/86/32
f 91/91/3 86/86/32 92/92/69
f 92/92/69 86/86/32 87/87/33
f 92/92/69 87/87/33 93/93/70
f 94/94/71 92/92/69 93/93/70
f 94/94/71 93/93/70 95/95/72
f 96/96/73 91/91/3 92/92/69
f 96/96/73 92/92/69 94/94/71
f 97/97/74 90/90/2 91/91/3
f 97/97/74 91/91/3 96/96/73
f 98/98/75 97/97/74 96/96/73
f 98/98/75 96/96/73 99/99/76
f 99/99/76 96/96/73 94/94/71
f 99/99/76 94/94/71 100/100/77
f 100/100/77 94/94/71 95/95/72
f 100/100/77 95/95/72 101/101/78
f 101/101/78 102/102/79 73/73/61
f 101/101/78 73/73/61 100/100/77
f 71/71/39 99/99/76 100/100/77
f 71/71/39 100/100/77 73/73/61
f 70/70/43 98/98/75 99/99/76
f 70/70/43 99/99/76 71/71/39
f 103/103/80 104/104/11 105/105/7
f 103/103/80 105/105/7 106/106/81
f 106/106/81 105/105/7 107/107/82
f 106/106/81 107/107/82 108/108/83
f 109/109/3 110/110/84 111/111/85
f 109/109/3 111/111/85 112/112/86
f 113/113/2 114/114/87 110/110/84
f 113/113/2 110/110/84 109/109/3
f 115/115/88 113/113/2 109/109/3
f 115/115/88 109/109/3 116/116/73
f 116/116/73 109/109/3 112/112/86
f 116/116/73 112/112/86 117/117/71
f 117/117/71 112/112/86 118/118/89
f 117/117/71 118/118/89 119/119/72
f 120/120/77 117/117/71 119/119/72
f 120/120/77 119/119/72 121/121/78
f 122/122/76 116/116/73 117/117/71
f 122/122/76 117/117/71 120/120/77
f 123/123/90 115/115/88 116/116/73
f 123/123/90 116/116/73 122/122/76
f 124/124/43 123/123/90 122/122/76
f 124/124/43 122/122/76 125/125/39
f 125/125/39 122/122/76 120/120/77
f 125/125/39 120/120/77 126/126/91
f 126/126/91 120/120/77 121/121/78
f 126/126/91 121/121/78 127/127/92
f 128/128/47 126/126/91 127/127/92
f 128/128/47 127/127/92 129/129/49
f 130/130/46 125/125/39 126/126/91
f 130/130/46 126/126/91 128/128/47
f 131/131/93 124/124/43 125/125/39
f 131/131/93 125/125/39 130/130/46
f 132/132/53 131/131/93 130/130/46
f 132/132/53 130/130/46 133/133/52
f 133/133/52 130/130/46 128/128/47
f 133/133/52 128/128/47 134/134/50
f 134/134/50 128/128/47 129/129/49
f 134/134/50 129/129/49 135/135/51
f 135/135/51 136/136/94 107/107/82
f 135/135/51 107/107/82 134/134/50
f 105/105/7 133/133/52 134/134/50
f 105/105/7 134/134/50 107/107/82
f 104/104/11 132/132/53 133/133/52
f 104/104/11 133/133/52 105/105/7
