o tip3
v -2.402893 3.387801 2.332925
v -2.309238 3.387923 2.417007
v -2.546437 3.458246 2.471592
v -2.346576 3.458959 2.625395
v -2.195429 3.388038 2.452741
v -2.117478 3.462036 2.678794
v -2.099068 3.392229 2.459952
v -1.931900 3.488322 2.702556
v -2.401919 3.380337 2.097662
v -2.443279 3.387562 2.121840
v -2.585336 3.440070 1.958612
v -2.664732 3.459132 2.040765
v -2.450656 3.388469 2.221277
v -2.660419 3.459545 2.252541
v -2.718798 3.625227 2.645444
v -2.391935 3.626516 2.879304
v -2.029264 3.634212 2.949444
v -1.766537 3.688977 2.947098
v -2.830277 3.590841 1.794648
v -2.931273 3.625215 1.956652
v -2.912246 3.626276 2.299811
v -2.864030 3.959210 2.801452
v -2.418949 3.959909 3.104314
v -1.939229 3.971873 3.180218
v -1.605901 4.081605 3.139747
v -3.057795 3.873008 1.639237
v -3.168226 3.946294 1.878569
v -3.132643 3.957664 2.341323
v -2.895074 4.674065 2.860771
v -2.352260 4.671830 3.209538
v -1.783208 4.685236 3.273773
v -1.387658 4.896853 3.155369
v -3.188714 4.472103 1.466026
v -3.282335 4.638409 1.758723
v -3.226534 4.668741 2.313440
v -2.629978 6.009891 2.651129
v -2.058726 6.001909 2.994379
v -1.468993 6.017373 3.027251
v -1.046525 6.361485 2.819562
v -3.037809 5.651021 1.199745
v -3.061002 5.956336 1.501834
v -2.985541 6.004519 2.087719
v -2.062366 8.002615 2.107952
v -1.555785 7.994869 2.394348
v -1.019143 8.025764 2.391913
v -0.607254 8.444381 2.126293
v -2.440133 7.550808 0.802741
v -2.409502 7.971230 1.063699
v -2.371116 8.000350 1.607266
v -1.398876 10.436381 1.395705
v -0.979107 10.436381 1.627326
v -0.483669 10.436381 1.608738
v -0.045317 10.436381 1.344921
v -1.348097 10.436381 0.047196
v -1.611914 10.436381 0.480498
v -1.630498 10.436381 0.975936
v -0.920573 12.420534 0.917396
v -0.586414 12.420534 1.089989
v -0.180221 12.420534 1.054772
v 0.189149 12.420534 0.821181
v -0.824358 12.420534 -0.192326
v -1.057948 12.420534 0.177050
v -1.093165 12.420534 0.583237
v -0.631034 14.350795 0.627863
v -0.357786 14.350795 0.777138
v -0.033775 14.350795 0.762441
v 0.254164 14.350795 0.587716
v -0.590887 14.350795 -0.257341
v -0.765612 14.350795 0.035659
v -0.780309 14.350795 0.354609
v -0.397476 18.376305 0.394304
v -0.236443 18.376305 0.477401
v -0.040626 18.376305 0.460304
v 0.137499 18.376305 0.347585
v -0.350756 18.376305 -0.140676
v -0.463481 18.376305 0.042510
v -0.480573 18.376305 0.233270
v -0.209599 23.160126 0.206427
v -0.142457 23.160126 0.246989
v -0.066723 23.160126 0.250101
v -0.002694 23.160126 0.214927
v -0.218104 23.160126 0.002487
v -0.253278 23.160126 0.063557
v -0.250160 23.160126 0.139286
v -2.281543 3.366406 2.271839
v -0.012026 23.563549 0.012968
v 2.403011 3.387799 -2.337996
v 2.309358 3.387921 -2.422079
v 2.546556 3.458242 -2.476666
v 2.346695 3.458955 -2.630468
v 2.195546 3.388035 -2.457813
v 2.117596 3.462031 -2.683867
v 2.099184 3.392226 -2.465024
v 1.932017 3.488318 -2.707629
v 2.402038 3.380336 -2.102734
v 2.443398 3.387561 -2.126912
v 2.585455 3.440066 -1.963685
v 2.664852 3.459129 -2.045838
v 2.450776 3.388467 -2.226348
v 2.660537 3.459541 -2.257613
v 2.718900 3.625232 -2.650516
v 2.392052 3.626515 -2.884375
v 2.029382 3.634209 -2.954516
v 1.766651 3.688975 -2.952172
v 2.830369 3.590851 -1.799733
v 2.931355 3.625229 -1.961739
v 2.912330 3.626287 -2.304889
v 2.864089 3.959220 -2.806525
v 2.419068 3.959910 -3.109386
v 1.939347 3.971873 -3.185290
v 1.606016 4.081604 -3.144819
v 3.057955 3.872967 -1.644165
v 3.168331 3.946270 -1.883522
v 3.132568 3.957689 -2.346411
v 2.895085 4.674056 -2.865847
v 2.352380 4.671831 -3.214611
v 1.783325 4.685236 -3.278841
v 1.387772 4.896853 -3.160437
v 3.189118 4.472228 -1.469706
v 3.282567 4.638446 -1.762836
v 3.226297 4.668755 -2.318543
v 2.630000 6.009868 -2.656198
v 2.058846 6.001912 -2.999454
v 1.469108 6.017375 -3.032324
v 1.046638 6.361486 -2.824635
v 3.038591 5.651020 -1.200239
v 3.061163 5.956344 -1.505037
v 2.985147 6.004476 -2.092813
v 2.062453 8.002604 -2.113022
v 1.555900 7.994871 -2.399430
v 1.019255 8.025763 -2.396991
v 0.607367 8.444380 -2.131366
v 2.440648 7.550950 -0.801738
v 2.409617 7.971254 -1.066564
v 2.370987 8.000302 -1.612280
v 1.398995 10.436376 -1.400779
v 0.979221 10.436376 -1.632400
v 0.483788 10.436376 -1.613812
v 0.045430 10.436376 -1.349994
v 1.348211 10.436376 -0.042159
v 1.612029 10.436376 -0.485571
v 1.630611 10.436376 -0.981009
v 0.920681 12.420534 -0.922471
v 0.586527 12.420534 -1.095062
v 0.180346 12.420534 -1.059851
v -0.189036 12.420534 -0.826255
v 0.824466 12.420534 0.187253
v 1.058062 12.420534 -0.182124
v 1.093284 12.420534 -0.588312
v 0.631153 14.350795 -0.632931
v 0.357899 14.350795 -0.782212
v 0.033889 14.350795 -0.767514
v -0.254056 14.350795 -0.592790
v 0.591000 14.350795 0.252267
v 0.765736 14.350795 -0.030623
v 0.780428 14.350795 -0.359684
v 0.397595 18.376305 -0.399374
v 0.236561 18.376305 -0.482475
v 0.040745 18.376305 -0.465378
v -0.137391 18.376305 -0.352659
v 0.350880 18.376305 0.135608
v 0.463589 18.376305 -0.037474
v 0.480692 18.376305 -0.238345
v 0.209718 23.160126 -0.211503
v 0.142576 23.160126 -0.252063
v 0.066848 23.160126 -0.255170
v 0.002807 23.160126 -0.220002
v 0.218212 23.160126 -0.001637
v 0.253386 23.160126 -0.068627
v 0.250279 23.160126 -0.144361
v 2.281661 3.366405 -2.276911
v 0.012145 23.563549 -0.009816
vt 0.175937 1.205899
vt 0.185807 1.205889
vt 0.175667 1.200366
vt 0.195305 1.200310
vt 0.194111 1.205880
vt 0.210993 1.200069
vt 0.199863 1.205551
vt 0.222617 1.198005
vt 0.162927 1.206485
vt 0.161973 1.205917
vt 0.145021 1.201794
vt 0.145174 1.200297
vt 0.167085 1.205846
vt 0.157173 1.200265
vt 0.175749 1.187253
vt 0.206886 1.187152
vt 0.230920 1.186548
vt 0.245379 1.182247
vt 0.122314 1.189954
vt 0.125702 1.187254
vt 0.145814 1.187171
vt 0.176348 1.161025
vt 0.217881 1.160970
vt 0.248735 1.160031
vt 0.264997 1.151413
vt 0.101050 1.167795
vt 0.108208 1.162040
vt 0.135881 1.161147
vt 0.177918 1.104887
vt 0.227427 1.105062
vt 0.262594 1.104010
vt 0.277984 1.087391
vt 0.084162 1.120747
vt 0.095217 1.107687
vt 0.129119 1.105305
vt 0.180997 0.999983
vt 0.231780 1.000610
vt 0.266353 0.999395
vt 0.278279 0.972372
vt 0.077755 1.028166
vt 0.093242 1.004189
vt 0.129967 1.000405
vt 0.182354 0.843492
vt 0.226388 0.844100
vt 0.256053 0.841674
vt 0.264175 0.808800
vt 0.088899 0.878973
vt 0.105090 0.845957
vt 0.137406 0.843670
vt 0.179647 0.652366
vt 0.215818 0.652366
vt 0.242298 0.652366
vt 0.251990 0.652366
vt 0.107584 0.652366
vt 0.116995 0.652366
vt 0.143475 0.652366
vt 0.179646 0.496548
vt 0.207786 0.496548
vt 0.228387 0.496548
vt 0.235926 0.496548
vt 0.123366 0.496548
vt 0.130907 0.496548
vt 0.151507 0.496548
vt 0.179647 0.344963
vt 0.203109 0.344963
vt 0.220286 0.344963
vt 0.226572 0.344963
vt 0.132721 0.344963
vt 0.139289 0.344963
vt 0.156184 0.344963
vt 0.179647 0.028835
vt 0.193203 0.028835
vt 0.203128 0.028835
vt 0.206759 0.028835
vt 0.152534 0.028835
vt 0.156446 0.028835
vt 0.166090 0.028835
vt 0.179647 -0.346844
vt 0.185628 -0.346844
vt 0.190006 -0.346844
vt 0.191608 -0.346844
vt 0.167850 -0.346844
vt 0.169288 -0.346844
vt 0.173666 -0.346844
vt 0.179284 1.207579
vt 0.179875 -0.378525
vt 0.183433 1.205899
vt 0.173564 1.205889
vt 0.183704 1.200367
vt 0.164065 1.200311
vt 0.165259 1.205881
vt 0.148378 1.200069
vt 0.159508 1.205551
vt 0.136753 1.198005
vt 0.196443 1.206485
vt 0.197397 1.205918
vt 0.214350 1.201794
vt 0.214197 1.200297
vt 0.192285 1.205847
vt 0.202197 1.200265
vt 0.183620 1.187253
vt 0.152484 1.187152
vt 0.128450 1.186548
vt 0.113991 1.182247
vt 0.237054 1.189953
vt 0.233666 1.187253
vt 0.213554 1.187170
vt 0.183019 1.161025
vt 0.141490 1.160970
vt 0.110636 1.160031
vt 0.094373 1.151414
vt 0.258331 1.167798
vt 0.251168 1.162042
vt 0.223478 1.161145
vt 0.181447 1.104888
vt 0.131943 1.105063
vt 0.096777 1.104010
vt 0.081387 1.087391
vt 0.275302 1.120738
vt 0.264214 1.107684
vt 0.230230 1.105304
vt 0.178368 0.999985
vt 0.127591 1.000610
vt 0.093018 0.999395
vt 0.081091 0.972372
vt 0.281906 1.028166
vt 0.266235 1.004188
vt 0.229374 1.000408
vt 0.177015 0.843493
vt 0.132982 0.844101
vt 0.103317 0.841675
vt 0.095195 0.808800
vt 0.270832 0.878962
vt 0.254403 0.845955
vt 0.221954 0.843674
vt 0.179724 0.652366
vt 0.143552 0.652366
vt 0.117073 0.652366
vt 0.107381 0.652366
vt 0.252348 0.652366
vt 0.242375 0.652366
vt 0.215895 0.652366
vt 0.179724 0.496548
vt 0.151584 0.496548
vt 0.130984 0.496548
vt 0.123444 0.496548
vt 0.236004 0.496548
vt 0.228464 0.496548
vt 0.207864 0.496548
vt 0.179724 0.344963
vt 0.156261 0.344963
vt 0.139085 0.344963
vt 0.132798 0.344963
vt 0.226649 0.344963
vt 0.220644 0.344963
vt 0.203187 0.344963
vt 0.179724 0.028835
vt 0.166167 0.028835
vt 0.156243 0.028835
vt 0.152610 0.028835
vt 0.206838 0.028835
vt 0.203485 0.028835
vt 0.193280 0.028835
vt 0.179724 -0.346844
vt 0.173743 -0.346844
vt 0.169365 -0.346844
vt 0.167762 -0.346844
vt 0.191849 -0.346844
vt 0.190083 -0.346844
vt 0.185704 -0.346844
vt 0.180087 1.207579
vt 0.179952 -0.378525
vn -0.209601 -0.966704 0.146733
vn -0.126164 -0.967437 0.219367
vn -0.357677 -0.885281 0.297128
vn -0.194128 -0.888668 0.415357
vn -0.020417 -0.974670 0.222694
vn -0.008545 -0.901639 0.432386
vn 0.036866 -0.972198 0.231147
vn 0.090884 -0.882504 0.461409
vn -0.194647 -0.980041 -0.040132
vn -0.218085 -0.975433 -0.030213
vn -0.328043 -0.937376 -0.116977
vn -0.418958 -0.905545 -0.066652
vn -0.235969 -0.970794 0.042756
vn -0.434400 -0.893643 0.112339
vn -0.543992 -0.683828 0.486221
vn -0.280953 -0.692801 0.664113
vn 0.012909 -0.713950 0.700034
vn 0.170782 -0.662893 0.728935
vn -0.553301 -0.810389 -0.192480
vn -0.674429 -0.733482 -0.084353
vn -0.684072 -0.700613 0.202887
vn -0.693991 -0.313517 0.648091
vn -0.346263 -0.328410 0.878750
vn 0.040773 -0.363140 0.930815
vn 0.237556 -0.281259 0.929746
vn -0.817194 -0.521104 -0.246132
vn -0.917783 -0.386914 -0.088900
vn -0.896847 -0.335826 0.287790
vn -0.714774 0.078738 0.694876
vn -0.336436 0.057405 0.939940
vn 0.086276 0.005615 0.996246
vn 0.286569 0.048097 0.956816
vn -0.953307 -0.139225 -0.267983
vn -0.996307 -0.004730 -0.085391
vn -0.947050 0.055086 0.316233
vn -0.668172 0.306619 0.677847
vn -0.282876 0.278054 0.917936
vn 0.132359 0.210761 0.968505
vn 0.312906 0.201758 0.928068
vn -0.956084 0.131687 -0.261727
vn -0.970580 0.226569 -0.081423
vn -0.912046 0.287179 0.292642
vn -0.659963 0.369152 0.654317
vn -0.240822 0.338939 0.909452
vn 0.181585 0.264290 0.947172
vn 0.429823 0.203223 0.879727
vn -0.922788 0.245216 -0.297098
vn -0.940916 0.257088 -0.220344
vn -0.910581 0.338359 0.237312
vn -0.670309 0.345988 0.656453
vn -0.217963 0.317240 0.922941
vn 0.275979 0.231819 0.932768
vn 0.513657 0.168065 0.841334
vn -0.882992 0.206946 -0.421216
vn -0.939177 0.236976 -0.248543
vn -0.923368 0.315806 0.218238
vn -0.681539 0.265023 0.682089
vn -0.198401 0.234870 0.951537
vn 0.292978 0.165471 0.941679
vn 0.528245 0.116245 0.841090
vn -0.839991 0.125736 -0.527787
vn -0.941130 0.173254 -0.290201
vn -0.950621 0.237617 0.199561
vn -0.700461 0.144322 0.698935
vn -0.214545 0.131748 0.967772
vn 0.286721 0.097354 0.953032
vn 0.522477 0.072115 0.849574
vn -0.851772 0.081484 -0.517502
vn -0.954680 0.098270 -0.280892
vn -0.968719 0.127689 0.212653
vn -0.705435 0.068545 0.705405
vn -0.224097 0.063906 0.972442
vn 0.260018 0.055269 0.963988
vn 0.514328 0.044710 0.856410
vn -0.852351 0.055422 -0.519974
vn -0.953795 0.058718 -0.294565
vn -0.977111 0.065188 0.202338
vn -0.662160 0.296304 0.688253
vn -0.244057 0.271767 0.930876
vn 0.229286 0.249611 0.940794
vn 0.468703 0.228523 0.853236
vn -0.844722 0.218879 -0.488357
vn -0.938963 0.265511 -0.218665
vn -0.911863 0.301828 0.278176
vn -0.087191 -0.992462 0.085849
vn -0.547990 0.639119 0.539598
vn 0.209601 -0.966704 -0.146733
vn 0.126164 -0.967437 -0.219337
vn 0.357707 -0.885281 -0.297128
vn 0.194128 -0.888668 -0.415357
vn 0.020417 -0.974670 -0.222663
vn 0.008545 -0.901639 -0.432386
vn -0.036866 -0.972198 -0.231147
vn -0.090884 -0.882504 -0.461409
vn 0.194647 -0.980041 0.040132
vn 0.218055 -0.975433 0.030213
vn 0.328074 -0.937346 0.116977
vn 0.419019 -0.905515 0.066652
vn 0.235969 -0.970794 -0.042756
vn 0.434462 -0.893643 -0.112369
vn 0.544053 -0.683767 -0.486221
vn 0.280984 -0.692801 -0.664113
vn -0.012909 -0.713950 -0.700064
vn -0.170782 -0.662893 -0.728965
vn 0.553240 -0.810450 0.192419
vn 0.674398 -0.733512 0.084292
vn 0.684194 -0.700491 -0.202918
vn 0.694113 -0.313456 -0.648000
vn 0.346294 -0.328410 -0.878750
vn -0.040773 -0.363140 -0.930815
vn -0.237556 -0.281228 -0.929746
vn 0.817011 -0.521592 0.245735
vn 0.917783 -0.387066 0.088443
vn 0.896908 -0.335582 -0.287912
vn 0.714927 0.078768 -0.694723
vn 0.336467 0.057405 -0.939909
vn -0.086276 0.005615 -0.996246
vn -0.286569 0.048097 -0.956816
vn 0.953459 -0.140019 0.266976
vn 0.996399 -0.004822 0.084384
vn 0.946989 0.055269 -0.316385
vn 0.668355 0.306589 -0.677694
vn 0.282907 0.278054 -0.917936
vn -0.132359 0.210761 -0.968505
vn -0.312906 0.201758 -0.928068
vn 0.956847 0.131657 0.258980
vn 0.970641 0.227027 0.079348
vn 0.912076 0.287210 -0.292550
vn 0.659963 0.369152 -0.654317
vn 0.240822 0.338939 -0.909452
vn -0.181585 0.264290 -0.947172
vn -0.429823 0.203223 -0.879727
vn 0.923795 0.246254 0.293100
vn 0.941710 0.258705 0.214911
vn 0.910672 0.338237 -0.237068
vn 0.670278 0.345988 -0.656484
vn 0.217963 0.317240 -0.922941
vn -0.275979 0.231819 -0.932768
vn -0.513657 0.168065 -0.841334
vn 0.885495 0.209479 0.414686
vn 0.939085 0.237129 0.248665
vn 0.923429 0.315744 -0.218085
vn 0.681539 0.265023 -0.682089
vn 0.198431 0.234870 -0.951537
vn -0.292947 0.165471 -0.941679
vn -0.528245 0.116214 -0.841090
vn 0.840938 0.129704 0.525346
vn 0.941313 0.172704 0.289987
vn 0.950652 0.237556 -0.199438
vn 0.700461 0.144322 -0.698935
vn 0.214545 0.131748 -0.967772
vn -0.286721 0.097354 -0.953032
vn -0.522477 0.072115 -0.849574
vn 0.846583 0.077944 0.526444
vn 0.951750 0.096713 0.291147
vn 0.968261 0.127934 -0.214606
vn 0.705466 0.068545 -0.705405
vn 0.224097 0.063906 -0.972442
vn -0.260018 0.055300 -0.963988
vn -0.514267 0.044710 -0.856441
vn 0.840663 0.056429 0.538560
vn 0.950224 0.058626 0.305948
vn 0.976653 0.065218 -0.204535
vn 0.661061 0.300394 -0.687521
vn 0.243568 0.277291 -0.929380
vn -0.228980 0.256142 -0.939085
vn -0.467757 0.235725 -0.851802
vn 0.862758 0.198706 0.464919
vn 0.942717 0.266274 0.200903
vn 0.911130 0.303720 -0.278481
vn 0.087191 -0.992462 -0.085818
vn 0.537492 0.643452 -0.545000
s 1
f 1/1/1 2/2/2 3/3/3
f 4/4/4 3/3/3 2/2/2
f 5/5/5 4/4/4 2/2/2
f 6/6/6 4/4/4 5/5/5
f 5/5/5 7/7/7 6/6/6
f 8/8/8 6/6/6 7/7/7
f 9/9/9 10/10/10 11/11/11
f 12/12/12 11/11/11 10/10/10
f 10/10/10 13/13/13 12/12/12
f 14/14/14 12/12/12 13/13/13
f 13/13/13 1/1/1 14/14/14
f 14/14/14 1/1/1 3/3/3
f 3/3/3 4/4/4 15/15/15
f 15/15/15 4/4/4 16/16/16
f 4/4/4 6/6/6 16/16/16
f 17/17/17 16/16/16 6/6/6
f 6/6/6 8/8/8 17/17/17
f 18/18/18 17/17/17 8/8/8
f 11/11/11 12/12/12 19/19/19
f 20/20/20 19/19/19 12/12/12
f 12/12/12 14/14/14 20/20/20
f 21/21/21 20/20/20 14/14/14
f 14/14/14 3/3/3 21/21/21
f 15/15/15 21/21/21 3/3/3
f 15/15/15 16/16/16 22/22/22
f 23/23/23 22/22/22 16/16/16
f 16/16/16 17/17/17 23/23/23
f 24/24/24 23/23/23 17/17/17
f 17/17/17 18/18/18 24/24/24
f 25/25/25 24/24/24 18/18/18
f 19/19/19 20/20/20 26/26/26
f 27/27/27 26/26/26 20/20/20
f 20/20/20 21/21/21 27/27/27
f 28/28/28 27/27/27 21/21/21
f 21/21/21 15/15/15 28/28/28
f 22/22/22 28/28/28 15/15/15
f 22/22/22 23/23/23 29/29/29
f 30/30/30 29/29/29 23/23/23
f 23/23/23 24/24/24 30/30/30
f 31/31/31 30/30/30 24/24/24
f 24/24/24 25/25/25 31/31/31
f 32/32/32 31/31/31 25/25/25
f 26/26/26 27/27/27 33/33/33
f 34/34/34 33/33/33 27/27/27
f 27/27/27 28/28/28 34/34/34
f 35/35/35 34/34/34 28/28/28
f 28/28/28 22/22/22 35/35/35
f 29/29/29 35/35/35 22/22/22
f 29/29/29 30/30/30 36/36/36
f 37/37/37 36/36/36 30/30/30
f 30/30/30 31/31/31 37/37/37
f 38/38/38 37/37/37 31/31/31
f 31/31/31 32/32/32 38/38/38
f 39/39/39 38/38/38 32/32/32
f 33/33/33 34/34/34 40/40/40
f 41/41/41 40/40/40 34/34/34
f 34/34/34 35/35/35 41/41/41
f 42/42/42 41/41/41 35/35/35
f 35/35/35 29/29/29 42/42/42
f 36/36/36 42/42/42 29/29/29
f 36/36/36 37/37/37 43/43/43
f 44/44/44 43/43/43 37/37/37
f 37/37/37 38/38/38 44/44/44
f 45/45/45 44/44/44 38/38/38
f 38/38/38 39/39/39 45/45/45
f 46/46/46 45/45/45 39/39/39
f 40/40/40 41/41/41 47/47/47
f 48/48/48 47/47/47 41/41/41
f 41/41/41 42/42/42 48/48/48
f 49/49/49 48/48/48 42/42/42
f 42/42/42 36/36/36 49/49/49
f 43/43/43 49/49/49 36/36/36
f 43/43/43 44/44/44 50/50/50
f 51/51/51 50/50/50 44/44/44
f 44/44/44 45/45/45 51/51/51
f 52/52/52 51/51/51 45/45/45
f 45/45/45 46/46/46 52/52/52
f 53/53/53 52/52/52 46/46/46
f 47/47/47 48/48/48 54/54/54
f 55/55/55 54/54/54 48/48/48
f 48/48/48 49/49/49 55/55/55
f 56/56/56 55/55/55 49/49/49
f 49/49/49 43/43/43 56/56/56
f 50/50/50 56/56/56 43/43/43
f 50/50/50 51/51/51 57/57/57
f 58/58/58 57/57/57 51/51/51
f 51/51/51 52/52/52 58/58/58
f 59/59/59 58/58/58 52/52/52
f 52/52/52 53/53/53 59/59/59
f 60/60/60 59/59/59 53/53/53
f 54/54/54 55/55/55 61/61/61
f 62/62/62 61/61/61 55/55/55
f 55/55/55 56/56/56 62/62/62
f 63/63/63 62/62/62 56/56/56
f 56/56/56 50/50/50 63/63/63
f 57/57/57 63/63/63 50/50/50
f 57/57/57 58/58/58 64/64/64
f 65/65/65 64/64/64 58/58/58
f 58/58/58 59/59/59 65/65/65
f 66/66/66 65/65/65 59/59/59
f 59/59/59 60/60/60 66/66/66
f 67/67/67 66/66/66 60/60/60
f 61/61/61 62/62/62 68/68/68
f 69/69/69 68/68/68 62/62/62
f 62/62/62 63/63/63 69/69/69
f 70/70/70 69/69/69 63/63/63
f 63/63/63 57/57/57 70/70/70
f 64/64/64 70/70/70 57/57/57
f 64/64/64 65/65/65 71/71/71
f 72/72/72 71/71/71 65/65/65
f 65/65/65 66/66/66 72/72/72
f 73/73/73 72/72/72 66/66/66
f 66/66/66 67/67/67 73/73/73
f 74/74/74 73/73/73 67/67/67
f 68/68/68 69/69/69 75/75/75
f 76/76/76 75/75/75 69/69/69
f 69/69/69 70/70/70 76/76/76
f 77/77/77 76/76/76 70/70/70
f 70/70/70 64/64/64 77/77/77
f 71/71/71 77/77/77 64/64/64
f 71/71/71 72/72/72 78/78/78
f 79/79/79 78/78/78 72/72/72
f 72/72/72 73/73/73 79/79/79
f 80/80/80 79/79/79 73/73/73
f 73/73/73 74/74/74 80/80/80
f 81/81/81 80/80/80 74/74/74
f 75/75/75 76/76/76 82/82/82
f 83/83/83 82/82/82 76/76/76
f 76/76/76 77/77/77 83/83/83
f 84/84/84 83/83/83 77/77/77
f 77/77/77 71/71/71 84/84/84
f 78/78/78 84/84/84 71/71/71
f 2/2/2 1/1/1 85/85/85
f 86/86/86 78/78/78 79/79/79
f 85/85/85 5/5/5 2/2/2
f 86/86/86 79/79/79 80/80/80
f 85/85/85 7/7/7 5/5/5
f 86/86/86 80/80/80 81/81/81
f 85/85/85 10/10/10 9/9/9
f 86/86/86 82/82/82 83/83/83
f 85/85/85 13/13/13 10/10/10
f 86/86/86 83/83/83 84/84/84
f 85/85/85 1/1/1 13/13/13
f 86/86/86 84/84/84 78/78/78
f 87/87/87 88/88/88 89/89/89
f 90/90/90 89/89/89 88/88/88
f 88/88/88 91/91/91 90/90/90
f 92/92/92 90/90/90 91/91/91
f 91/91/91 93/93/93 92/92/92
f 94/94/94 92/92/92 93/93/93
f 95/95/95 96/96/96 97/97/97
f 98/98/98 97/97/97 96/96/96
f 96/96/96 99/99/99 98/98/98
f 100/100/100 98/98/98 99/99/99
f 100/100/100 99/99/99 87/87/87
f 89/89/89 100/100/100 87/87/87
f 89/89/89 90/90/90 101/101/101
f 102/102/102 101/101/101 90/90/90
f 90/90/90 92/92/92 102/102/102
f 103/103/103 102/102/102 92/92/92
f 92/92/92 94/94/94 103/103/103
f 104/104/104 103/103/103 94/94/94
f 97/97/97 98/98/98 105/105/105
f 106/106/106 105/105/105 98/98/98
f 98/98/98 100/100/100 106/106/106
f 107/107/107 106/106/106 100/100/100
f 100/100/100 89/89/89 107/107/107
f 101/101/101 107/107/107 89/89/89
f 101/101/101 102/102/102 108/108/108
f 109/109/109 108/108/108 102/102/102
f 102/102/102 103/103/103 109/109/109
f 110/110/110 109/109/109 103/103/103
f 103/103/103 104/104/104 110/110/110
f 111/111/111 110/110/110 104/104/104
f 105/105/105 106/106/106 112/112/112
f 113/113/113 112/112/112 106/106/106
f 106/106/106 107/107/107 113/113/113
f 114/114/114 113/113/113 107/107/107
f 107/107/107 101/101/101 114/114/114
f 108/108/108 114/114/114 101/101/101
f 108/108/108 109/109/109 115/115/115
f 116/116/116 115/115/115 109/109/109
f 109/109/109 110/110/110 116/116/116
f 117/117/117 116/116/116 110/110/110
f 110/110/110 111/111/111 117/117/117
f 118/118/118 117/117/117 111/111/111
f 112/112/112 113/113/113 119/119/119
f 120/120/120 119/119/119 113/113/113
f 113/113/113 114/114/114 120/120/120
f 121/121/121 120/120/120 114/114/114
f 114/114/114 108/108/108 121/121/121
f 115/115/115 121/121/121 108/108/108
f 115/115/115 116/116/116 122/122/122
f 123/123/123 122/122/122 116/116/116
f 116/116/116 117/117/117 123/123/123
f 124/124/124 123/123/123 117/117/117
f 117/117/117 118/118/118 124/124/124
f 125/125/125 124/124/124 118/118/118
f 119/119/119 120/120/120 126/126/126
f 127/127/127 126/126/126 120/120/120
f 120/120/120 121/121/121 127/127/127
f 128/128/128 127/127/127 121/121/121
f 121/121/121 115/115/115 128/128/128
f 122/122/122 128/128/128 115/115/115
f 122/122/122 123/123/123 129/129/129
f 130/130/130 129/129/129 123/123/123
f 123/123/123 124/124/124 130/130/130
f 131/131/131 130/130/130 124/124/124
f 124/124/124 125/125/125 131/131/131
f 132/132/132 131/131/131 125/125/125
f 126/126/126 127/127/127 133/133/133
f 134/134/134 133/133/133 127/127/127
f 127/127/127 128/128/128 134/134/134
f 135/135/135 134/134/134 128/128/128
f 128/128/128 122/122/122 135/135/135
f 129/129/129 135/135/135 122/122/122
f 129/129/129 130/130/130 136/136/136
f 137/137/137 136/136/136 130/130/130
f 130/130/130 131/131/131 137/137/137
f 138/138/138 137/137/137 131/131/131
f 131/131/131 132/132/132 138/138/138
f 139/139/139 138/138/138 132/132/132
f 133/133/133 134/134/134 140/140/140
f 141/141/141 140/140/140 134/134/134
f 134/134/134 135/135/135 141/141/141
f 142/142/142 141/141/141 135/135/135
f 135/135/135 129/129/129 142/142/142
f 136/136/136 142/142/142 129/129/129
f 136/136/136 137/137/137 143/143/143
f 144/144/144 143/143/143 137/137/137
f 137/137/137 138/138/138 144/144/144
f 145/145/145 144/144/144 138/138/138
f 138/138/138 139/139/139 145/145/145
f 146/146/146 145/145/145 139/139/139
f 140/140/140 141/141/141 147/147/147
f 148/148/148 147/147/147 141/141/141
f 141/141/141 142/142/142 148/148/148
f 149/149/149 148/148/148 142/142/142
f 142/142/142 136/136/136 149/149/149
f 143/143/143 149/149/149 136/136/136
f 143/143/143 144/144/144 150/150/150
f 151/151/151 150/150/150 144/144/144
f 144/144/144 145/145/145 151/151/151
f 152/152/152 151/151/151 145/145/145
f 145/145/145 146/146/146 152/152/152
f 153/153/153 152/152/152 146/146/146
f 147/147/147 148/148/148 154/154/154
f 155/155/155 154/154/154 148/148/148
f 148/148/148 149/149/149 155/155/155
f 156/156/156 155/155/155 149/149/149
f 149/149/149 143/143/143 156/156/156
f 150/150/150 156/156/156 143/143/143
f 150/150/150 151/151/151 157/157/157
f 158/158/158 157/157/157 151/151/151
f 151/151/151 152/152/152 158/158/158
f 159/159/159 158/158/158 152/152/152
f 152/152/152 153/153/153 159/159/159
f 160/160/160 159/159/159 153/153/153
f 154/154/154 155/155/155 161/161/161
f 162/162/162 161/161/161 155/155/155
f 155/155/155 156/156/156 162/162/162
f 163/163/163 162/162/162 156/156/156
f 156/156/156 150/150/150 163/163/163
f 157/157/157 163/163/163 150/150/150
f 157/157/157 158/158/158 164/164/164
f 165/165/165 164/164/164 158/158/158
f 158/158/158 159/159/159 165/165/165
f 166/166/166 165/165/165 159/159/159
f 159/159/159 160/160/160 166/166/166
f 167/167/167 166/166/166 160/160/160
f 161/161/161 162/162/162 168/168/168
f 169/169/169 168/168/168 162/162/162
f 162/162/162 163/163/163 169/169/169
f 170/170/170 169/169/169 163/163/163
f 163/163/163 157/157/157 170/170/170
f 164/164/164 170/170/170 157/157/157
f 171/171/171 88/88/88 87/87/87
f 172/172/172 164/164/164 165/165/165
f 171/171/171 91/91/91 88/88/88
f 172/172/172 165/165/165 166/166/166
f 171/171/171 93/93/93 91/91/91
f 172/172/172 166/166/166 167/167/167
f 171/171/171 96/96/96 95/95/95
f 172/172/172 168/168/168 169/169/169
f 171/171/171 99/99/99 96/96/96
f 172/172/172 169/169/169 170/170/170
f 99/99/99 171/171/171 87/87/87
f 172/172/172 170/170/170 164/164/164
