o tip2
v -2.402893 3.387796 -2.337996
v -2.546437 3.458240 -2.476664
v -2.309238 3.387917 -2.422079
v -2.346577 3.458952 -2.630467
v -2.195429 3.388032 -2.457813
v -2.117478 3.462030 -2.683866
v -2.099068 3.392223 -2.465024
v -1.931901 3.488317 -2.707627
v -2.401920 3.380333 -2.102733
v -2.585337 3.440069 -1.963683
v -2.443280 3.387558 -2.126911
v -2.664733 3.459131 -2.045837
v -2.450656 3.388465 -2.226348
v -2.660418 3.459541 -2.257612
v -2.718782 3.625227 -2.650516
v -2.391935 3.626509 -2.884376
v -2.029265 3.634205 -2.954515
v -1.766537 3.688970 -2.952171
v -2.830250 3.590853 -1.799732
v -2.931235 3.625228 -1.961736
v -2.912210 3.626285 -2.304887
v -2.863971 3.959213 -2.806525
v -2.418949 3.959903 -3.109386
v -1.939230 3.971865 -3.185291
v -1.605901 4.081597 -3.144819
v -3.057836 3.872963 -1.644164
v -3.168211 3.946265 -1.883521
v -3.132450 3.957683 -2.346411
v -2.894962 4.674050 -2.865844
v -2.352261 4.671824 -3.214611
v -1.783209 4.685230 -3.278841
v -1.387658 4.896847 -3.160437
v -3.189000 4.472222 -1.469703
v -3.282448 4.638443 -1.762836
v -3.226176 4.668752 -2.318542
v -2.629879 6.009864 -2.656196
v -2.058726 6.001906 -2.999452
v -1.468994 6.017371 -3.032324
v -1.046525 6.361482 -2.824636
v -3.038475 5.651018 -1.200238
v -3.061048 5.956344 -1.505036
v -2.985031 6.004475 -2.092812
v -2.062337 8.002603 -2.113020
v -1.555783 7.994868 -2.399427
v -1.019142 8.025763 -2.396992
v -0.607254 8.444377 -2.131367
v -2.440534 7.550950 -0.801736
v -2.409508 7.971257 -1.066563
v -2.370876 8.000304 -1.612279
v -1.398876 10.436376 -1.400779
v -0.979107 10.436376 -1.632400
v -0.483669 10.436376 -1.613812
v -0.045317 10.436376 -1.349994
v -1.348097 10.436376 -0.042159
v -1.611909 10.436376 -0.485571
v -1.630498 10.436376 -0.981009
v -0.920573 12.420534 -0.922471
v -0.586414 12.420534 -1.095062
v -0.180232 12.420534 -1.059851
v 0.189149 12.420534 -0.826255
v -0.824358 12.420534 0.187253
v -1.057948 12.420534 -0.182124
v -1.093165 12.420534 -0.588312
v -0.631034 14.350795 -0.632931
v -0.357786 14.350795 -0.782212
v -0.033775 14.350795 -0.767514
v 0.254170 14.350795 -0.592790
v -0.590887 14.350799 0.252267
v -0.765612 14.350799 -0.030623
v -0.780309 14.350795 -0.359684
v -0.397476 18.376299 -0.399379
v -0.236443 18.376299 -0.482475
v -0.040626 18.376299 -0.465378
v 0.137499 18.376299 -0.352659
v -0.350756 18.376299 0.135608
v -0.463481 18.376310 -0.037474
v -0.480578 18.376299 -0.238345
v -0.209599 23.160120 -0.211503
v -0.142457 23.160120 -0.252063
v -0.066723 23.160120 -0.255175
v -0.002694 23.160120 -0.220002
v -0.218104 23.160120 -0.001637
v -0.253278 23.160120 -0.068632
v -0.250160 23.160120 -0.144361
v -2.281544 3.366399 -2.276911
v -0.012026 23.563560 -0.009816
v 2.403009 3.387801 2.332926
v 2.546555 3.458244 2.471596
v 2.309355 3.387923 2.417010
v 2.346693 3.458958 2.625400
v 2.195543 3.388037 2.452744
v 2.117594 3.462035 2.678799
v 2.099182 3.392229 2.459955
v 1.932016 3.488323 2.702560
v 2.402036 3.380336 2.097665
v 2.585453 3.440068 1.958616
v 2.443396 3.387561 2.121843
v 2.664848 3.459130 2.040769
v 2.450773 3.388468 2.221279
v 2.660535 3.459544 2.252543
v 2.718916 3.625226 2.645449
v 2.392052 3.626516 2.879308
v 2.029381 3.634212 2.949446
v 1.766651 3.688977 2.947101
v 2.830394 3.590840 1.794653
v 2.931389 3.625214 1.956656
v 2.912364 3.626274 2.299814
v 2.864146 3.959210 2.801456
v 2.419067 3.959909 3.104318
v 1.939344 3.971872 3.180223
v 1.606012 4.081604 3.139751
v 3.057913 3.873005 1.639241
v 3.168343 3.946292 1.878573
v 3.132759 3.957660 2.341328
v 2.895194 4.674065 2.860777
v 2.352376 4.671828 3.209546
v 1.783319 4.685234 3.273775
v 1.387768 4.896851 3.155366
v 3.188833 4.472100 1.466031
v 3.282453 4.638407 1.758729
v 3.226651 4.668739 2.313444
v 2.630096 6.009890 2.651134
v 2.058839 6.001910 2.994385
v 1.469103 6.017373 3.027253
v 1.046634 6.361484 2.819563
v 3.037926 5.651018 1.199750
v 3.061117 5.956333 1.501838
v 2.985657 6.004517 2.087723
v 2.062476 8.002612 2.107955
v 1.555895 7.994870 2.394358
v 1.019253 8.025764 2.391920
v 0.607367 8.444379 2.126295
v 2.440246 7.550805 0.802744
v 2.409615 7.971226 1.063700
v 2.371230 8.000346 1.607266
v 1.398995 10.436376 1.395705
v 0.979221 10.436376 1.627326
v 0.483788 10.436376 1.608738
v 0.045425 10.436376 1.344926
v 1.348205 10.436376 0.047196
v 1.612029 10.436376 0.480498
v 1.630611 10.436376 0.975936
v 0.920681 12.420534 0.917396
v 0.586527 12.420534 1.089994
v 0.180340 12.420534 1.054777
v -0.189036 12.420534 0.821181
v 0.824466 12.420534 -0.192321
v 1.058062 12.420534 0.177056
v 1.093284 12.420534 0.583243
v 0.631153 14.350795 0.627863
v 0.357899 14.350795 0.777138
v 0.033889 14.350795 0.762446
v -0.254056 14.350795 0.587716
v 0.591000 14.350795 -0.257341
v 0.765736 14.350795 0.035659
v 0.780428 14.350795 0.354609
v 0.397595 18.376305 0.394304
v 0.236561 18.376305 0.477401
v 0.040745 18.376305 0.460304
v -0.137391 18.376305 0.347590
v 0.350875 18.376305 -0.140676
v 0.463589 18.376305 0.042510
v 0.480692 18.376305 0.233270
v 0.209718 23.160114 0.206427
v 0.142576 23.160114 0.246989
v 0.066842 23.160114 0.250101
v 0.002807 23.160114 0.214927
v 0.218212 23.160114 0.002487
v 0.253386 23.160114 0.063557
v 0.250279 23.160114 0.139286
v 2.281659 3.366405 2.271841
v 0.012145 23.563549 0.012968
vt 0.201354 1.194991
vt 0.201602 1.189925
vt 0.192314 1.194983
vt 0.183615 1.189874
vt 0.184709 1.194974
vt 0.169248 1.189652
vt 0.179442 1.194673
vt 0.158602 1.187762
vt 0.213269 1.195528
vt 0.229668 1.191232
vt 0.214143 1.195009
vt 0.229528 1.189861
vt 0.209461 1.194943
vt 0.218539 1.189831
vt 0.201525 1.177915
vt 0.173009 1.177823
vt 0.150998 1.177269
vt 0.137755 1.173330
vt 0.250462 1.180387
vt 0.247359 1.177915
vt 0.228940 1.177839
vt 0.200975 1.153894
vt 0.162940 1.153844
vt 0.134682 1.152984
vt 0.119789 1.145092
vt 0.269948 1.160097
vt 0.263388 1.154825
vt 0.238029 1.154004
vt 0.199534 1.102481
vt 0.154197 1.102641
vt 0.121990 1.101677
vt 0.107895 1.086457
vt 0.285491 1.116997
vt 0.275336 1.105042
vt 0.244213 1.102862
vt 0.196715 1.006406
vt 0.150211 1.006978
vt 0.118547 1.005866
vt 0.107624 0.981117
vt 0.291540 1.032215
vt 0.277187 1.010255
vt 0.243429 1.006793
vt 0.195475 0.863083
vt 0.155148 0.863639
vt 0.127980 0.861418
vt 0.120541 0.831310
vt 0.281397 0.895567
vt 0.266351 0.865338
vt 0.236633 0.863249
vt 0.197956 0.688040
vt 0.164829 0.688040
vt 0.140578 0.688040
vt 0.131701 0.688040
vt 0.264469 0.688040
vt 0.255335 0.688040
vt 0.231084 0.688040
vt 0.197957 0.545334
vt 0.172185 0.545334
vt 0.153318 0.545334
vt 0.146413 0.545334
vt 0.249500 0.545334
vt 0.242595 0.545334
vt 0.223728 0.545334
vt 0.197957 0.406505
vt 0.176468 0.406505
vt 0.160737 0.406505
vt 0.154979 0.406505
vt 0.240933 0.406505
vt 0.235432 0.406505
vt 0.219445 0.406505
vt 0.197956 0.116981
vt 0.185541 0.116981
vt 0.176451 0.116981
vt 0.173125 0.116981
vt 0.222788 0.116981
vt 0.219718 0.116980
vt 0.210372 0.116981
vt 0.197956 -0.227083
vt 0.192479 -0.227083
vt 0.188469 -0.227083
vt 0.187001 -0.227083
vt 0.209062 -0.227083
vt 0.207443 -0.227083
vt 0.203434 -0.227083
vt 0.198289 1.196530
vt 0.198165 -0.256100
vt 0.194489 1.194991
vt 0.194241 1.189924
vt 0.203528 1.194982
vt 0.212227 1.189873
vt 0.211134 1.194974
vt 0.226594 1.189652
vt 0.216401 1.194673
vt 0.237241 1.187761
vt 0.182574 1.195528
vt 0.166174 1.191232
vt 0.181700 1.195008
vt 0.166315 1.189861
vt 0.186382 1.194943
vt 0.177304 1.189831
vt 0.194317 1.177915
vt 0.222833 1.177822
vt 0.244845 1.177269
vt 0.258087 1.173330
vt 0.145379 1.180388
vt 0.148481 1.177916
vt 0.166901 1.177840
vt 0.194865 1.153894
vt 0.232903 1.153844
vt 0.261160 1.152983
vt 0.276054 1.145091
vt 0.125904 1.160094
vt 0.132460 1.154823
vt 0.157804 1.154005
vt 0.196303 1.102480
vt 0.241646 1.102641
vt 0.273853 1.101676
vt 0.287948 1.086457
vt 0.110437 1.117006
vt 0.120561 1.105044
vt 0.151610 1.102863
vt 0.199123 1.006404
vt 0.245632 1.006978
vt 0.277296 1.005866
vt 0.288219 0.981116
vt 0.104569 1.032215
vt 0.118753 1.010256
vt 0.152387 1.006790
vt 0.200366 0.863082
vt 0.240695 0.863639
vt 0.267863 0.861417
vt 0.275301 0.831309
vt 0.114775 0.895578
vt 0.129604 0.865340
vt 0.159200 0.863245
vt 0.197886 0.688040
vt 0.231014 0.688040
vt 0.255264 0.688040
vt 0.264142 0.688040
vt 0.131888 0.688040
vt 0.140507 0.688040
vt 0.164758 0.688040
vt 0.197886 0.545334
vt 0.223658 0.545334
vt 0.242524 0.545334
vt 0.249430 0.545334
vt 0.146343 0.545334
vt 0.153248 0.545334
vt 0.172114 0.545334
vt 0.197886 0.406505
vt 0.219374 0.406505
vt 0.235105 0.406505
vt 0.240863 0.406505
vt 0.154909 0.406505
vt 0.160924 0.406505
vt 0.176397 0.406505
vt 0.197886 0.116981
vt 0.210301 0.116981
vt 0.219390 0.116981
vt 0.222718 0.116981
vt 0.173054 0.116981
vt 0.176638 0.116981
vt 0.185470 0.116981
vt 0.197886 -0.227083
vt 0.203363 -0.227083
vt 0.207373 -0.227083
vt 0.208841 -0.227083
vt 0.187082 -0.227083
vt 0.188399 -0.227083
vt 0.192408 -0.227083
vt 0.197554 1.196530
vt 0.198095 -0.256099
vn -0.209601 -0.966704 -0.146733
vn -0.357707 -0.885281 -0.297128
vn -0.126164 -0.967437 -0.219367
vn -0.194128 -0.888668 -0.415357
vn -0.020417 -0.974670 -0.222694
vn -0.008545 -0.901639 -0.432386
vn 0.036866 -0.972198 -0.231147
vn 0.090884 -0.882504 -0.461409
vn -0.194647 -0.980041 0.040132
vn -0.328074 -0.937346 0.117008
vn -0.218085 -0.975433 0.030213
vn -0.419019 -0.905515 0.066683
vn -0.235969 -0.970794 -0.042756
vn -0.434462 -0.893643 -0.112339
vn -0.544053 -0.683767 -0.486221
vn -0.280984 -0.692801 -0.664113
vn 0.012909 -0.713950 -0.700034
vn 0.170782 -0.662893 -0.728935
vn -0.553240 -0.810480 0.192419
vn -0.674398 -0.733512 0.084292
vn -0.684164 -0.700491 -0.202918
vn -0.694113 -0.313456 -0.648000
vn -0.346294 -0.328410 -0.878750
vn 0.040773 -0.363140 -0.930815
vn 0.237556 -0.281259 -0.929746
vn -0.817011 -0.521592 0.245735
vn -0.917783 -0.387066 0.088443
vn -0.896908 -0.335582 -0.287912
vn -0.714927 0.078768 -0.694723
vn -0.336467 0.057405 -0.939909
vn 0.086276 0.005615 -0.996246
vn 0.286569 0.048097 -0.956816
vn -0.953459 -0.140019 0.266976
vn -0.996399 -0.004822 0.084384
vn -0.946989 0.055269 -0.316416
vn -0.668325 0.306589 -0.677694
vn -0.282907 0.278054 -0.917936
vn 0.132359 0.210761 -0.968505
vn 0.312906 0.201758 -0.928068
vn -0.956847 0.131657 0.258980
vn -0.970641 0.227027 0.079348
vn -0.912076 0.287210 -0.292581
vn -0.659963 0.369152 -0.654317
vn -0.240822 0.338939 -0.909452
vn 0.181585 0.264290 -0.947172
vn 0.429823 0.203223 -0.879727
vn -0.923795 0.246254 0.293130
vn -0.941710 0.258705 0.214911
vn -0.910672 0.338237 -0.237068
vn -0.670309 0.345958 -0.656484
vn -0.217963 0.317240 -0.922941
vn 0.275979 0.231819 -0.932768
vn 0.513657 0.168065 -0.841334
vn -0.885495 0.209479 0.414686
vn -0.939085 0.237129 0.248665
vn -0.923429 0.315744 -0.218085
vn -0.681539 0.265023 -0.682089
vn -0.198431 0.234870 -0.951537
vn 0.292947 0.165471 -0.941679
vn 0.528245 0.116214 -0.841090
vn -0.840938 0.129704 0.525315
vn -0.941313 0.172704 0.289987
vn -0.950652 0.237556 -0.199469
vn -0.700430 0.144322 -0.698935
vn -0.214545 0.131748 -0.967772
vn 0.286721 0.097354 -0.953032
vn 0.522477 0.072115 -0.849574
vn -0.846614 0.077975 0.526444
vn -0.951750 0.096713 0.291208
vn -0.968261 0.127934 -0.214637
vn -0.705435 0.068545 -0.705405
vn -0.224097 0.063906 -0.972442
vn 0.260018 0.055269 -0.963988
vn 0.514328 0.044710 -0.856410
vn -0.840663 0.056429 0.538560
vn -0.950194 0.058626 0.306009
vn -0.976653 0.065218 -0.204535
vn -0.661061 0.300394 -0.687521
vn -0.243599 0.277291 -0.929380
vn 0.228980 0.256172 -0.939085
vn 0.467879 0.235694 -0.851741
vn -0.862758 0.198675 0.464888
vn -0.942717 0.266274 0.200812
vn -0.911100 0.303720 -0.278542
vn -0.087191 -0.992462 -0.085849
vn -0.537431 0.643452 -0.545061
vn 0.209601 -0.966704 0.146733
vn 0.357677 -0.885281 0.297128
vn 0.126164 -0.967437 0.219337
vn 0.194128 -0.888668 0.415357
vn 0.020417 -0.974670 0.222663
vn 0.008545 -0.901639 0.432386
vn -0.036866 -0.972198 0.231147
vn -0.090884 -0.882504 0.461409
vn 0.194647 -0.980041 -0.040132
vn 0.328043 -0.937376 -0.116977
vn 0.218085 -0.975433 -0.030213
vn 0.418958 -0.905545 -0.066652
vn 0.235969 -0.970794 0.042787
vn 0.434400 -0.893643 0.112339
vn 0.543992 -0.683828 0.486221
vn 0.280953 -0.692801 0.664113
vn -0.012909 -0.713950 0.700034
vn -0.170782 -0.662893 0.728935
vn 0.553301 -0.810389 -0.192480
vn 0.674429 -0.733482 -0.084353
vn 0.684042 -0.700613 0.202887
vn 0.693991 -0.313517 0.648091
vn 0.346263 -0.328410 0.878750
vn -0.040773 -0.363170 0.930815
vn -0.237556 -0.281259 0.929746
vn 0.817194 -0.521104 -0.246132
vn 0.917783 -0.386914 -0.088900
vn 0.896847 -0.335826 0.287790
vn 0.714774 0.078738 0.694876
vn 0.336436 0.057405 0.939940
vn -0.086276 0.005615 0.996246
vn -0.286599 0.048097 0.956816
vn 0.953307 -0.139225 -0.267953
vn 0.996307 -0.004730 -0.085391
vn 0.947050 0.055086 0.316233
vn 0.668172 0.306619 0.677847
vn 0.282876 0.278054 0.917936
vn -0.132359 0.210761 0.968505
vn -0.312906 0.201758 0.928068
vn 0.956084 0.131687 -0.261727
vn 0.970580 0.226569 -0.081423
vn 0.912046 0.287179 0.292642
vn 0.659963 0.369152 0.654317
vn 0.240822 0.338939 0.909452
vn -0.181585 0.264290 0.947172
vn -0.429823 0.203223 0.879727
vn 0.922788 0.245216 -0.297098
vn 0.940916 0.257088 -0.220344
vn 0.910581 0.338359 0.237312
vn 0.670278 0.345988 0.656484
vn 0.217963 0.317240 0.922941
vn -0.275979 0.231819 0.932768
vn -0.513627 0.168065 0.841365
vn 0.882992 0.206946 -0.421216
vn 0.939177 0.236976 -0.248543
vn 0.923368 0.315806 0.218238
vn 0.681539 0.265023 0.682089
vn 0.198401 0.234870 0.951537
vn -0.292947 0.165471 0.941679
vn -0.528245 0.116245 0.841060
vn 0.839991 0.125736 -0.527787
vn 0.941130 0.173223 -0.290201
vn 0.950621 0.237587 0.199561
vn 0.700461 0.144322 0.698904
vn 0.214515 0.131748 0.967772
vn -0.286721 0.097354 0.953032
vn -0.522477 0.072115 0.849574
vn 0.851772 0.081484 -0.517502
vn 0.954680 0.098270 -0.280862
vn 0.968719 0.127689 0.212622
vn 0.705435 0.068545 0.705405
vn 0.224097 0.063906 0.972442
vn -0.259987 0.055269 0.964019
vn -0.514298 0.044710 0.856410
vn 0.852351 0.055422 -0.519974
vn 0.953825 0.058718 -0.294534
vn 0.977142 0.065188 0.202338
vn 0.662160 0.296304 0.688253
vn 0.244057 0.271767 0.930876
vn -0.229286 0.249611 0.940794
vn -0.468673 0.228523 0.853267
vn 0.844722 0.218909 -0.488357
vn 0.938963 0.265481 -0.218757
vn 0.911863 0.301798 0.278115
vn 0.087191 -0.992462 0.085849
vn 0.548021 0.639119 0.539598
s 1
f 1/1/1 2/2/2 3/3/3
f 4/4/4 3/3/3 2/2/2
f 3/3/3 4/4/4 5/5/5
f 5/5/5 4/4/4 6/6/6
f 5/5/5 6/6/6 7/7/7
f 8/8/8 7/7/7 6/6/6
f 9/9/9 10/10/10 11/11/11
f 12/12/12 11/11/11 10/10/10
f 11/11/11 12/12/12 13/13/13
f 14/14/14 13/13/13 12/12/12
f 14/14/14 1/1/1 13/13/13
f 2/2/2 1/1/1 14/14/14
f 15/15/15 4/4/4 2/2/2
f 16/16/16 4/4/4 15/15/15
f 4/4/4 16/16/16 6/6/6
f 17/17/17 6/6/6 16/16/16
f 6/6/6 17/17/17 8/8/8
f 18/18/18 8/8/8 17/17/17
f 10/10/10 19/19/19 12/12/12
f 20/20/20 12/12/12 19/19/19
f 12/12/12 20/20/20 14/14/14
f 21/21/21 14/14/14 20/20/20
f 14/14/14 21/21/21 2/2/2
f 15/15/15 2/2/2 21/21/21
f 15/15/15 22/22/22 16/16/16
f 23/23/23 16/16/16 22/22/22
f 16/16/16 23/23/23 17/17/17
f 24/24/24 17/17/17 23/23/23
f 17/17/17 24/24/24 18/18/18
f 25/25/25 18/18/18 24/24/24
f 19/19/19 26/26/26 20/20/20
f 27/27/27 20/20/20 26/26/26
f 20/20/20 27/27/27 21/21/21
f 28/28/28 21/21/21 27/27/27
f 21/21/21 28/28/28 15/15/15
f 22/22/22 15/15/15 28/28/28
f 22/22/22 29/29/29 23/23/23
f 30/30/30 23/23/23 29/29/29
f 23/23/23 30/30/30 24/24/24
f 31/31/31 24/24/24 30/30/30
f 24/24/24 31/31/31 25/25/25
f 32/32/32 25/25/25 31/31/31
f 26/26/26 33/33/33 27/27/27
f 34/34/34 27/27/27 33/33/33
f 27/27/27 34/34/34 28/28/28
f 35/35/35 28/28/28 34/34/34
f 28/28/28 35/35/35 22/22/22
f 29/29/29 22/22/22 35/35/35
f 29/29/29 36/36/36 30/30/30
f 37/37/37 30/30/30 36/36/36
f 30/30/30 37/37/37 31/31/31
f 38/38/38 31/31/31 37/37/37
f 31/31/31 38/38/38 32/32/32
f 39/39/39 32/32/32 38/38/38
f 33/33/33 40/40/40 34/34/34
f 41/41/41 34/34/34 40/40/40
f 34/34/34 41/41/41 35/35/35
f 42/42/42 35/35/35 41/41/41
f 35/35/35 42/42/42 29/29/29
f 36/36/36 29/29/29 42/42/42
f 36/36/36 43/43/43 37/37/37
f 44/44/44 37/37/37 43/43/43
f 37/37/37 44/44/44 38/38/38
f 45/45/45 38/38/38 44/44/44
f 38/38/38 45/45/45 39/39/39
f 46/46/46 39/39/39 45/45/45
f 40/40/40 47/47/47 41/41/41
f 48/48/48 41/41/41 47/47/47
f 41/41/41 48/48/48 42/42/42
f 49/49/49 42/42/42 48/48/48
f 42/42/42 49/49/49 36/36/36
f 43/43/43 36/36/36 49/49/49
f 43/43/43 50/50/50 44/44/44
f 51/51/51 44/44/44 50/50/50
f 44/44/44 51/51/51 45/45/45
f 52/52/52 45/45/45 51/51/51
f 45/45/45 52/52/52 46/46/46
f 53/53/53 46/46/46 52/52/52
f 47/47/47 54/54/54 48/48/48
f 55/55/55 48/48/48 54/54/54
f 48/48/48 55/55/55 49/49/49
f 56/56/56 49/49/49 55/55/55
f 49/49/49 56/56/56 43/43/43
f 50/50/50 43/43/43 56/56/56
f 50/50/50 57/57/57 51/51/51
f 58/58/58 51/51/51 57/57/57
f 51/51/51 58/58/58 52/52/52
f 59/59/59 52/52/52 58/58/58
f 52/52/52 59/59/59 53/53/53
f 60/60/60 53/53/53 59/59/59
f 54/54/54 61/61/61 55/55/55
f 62/62/62 55/55/55 61/61/61
f 55/55/55 62/62/62 56/56/56
f 63/63/63 56/56/56 62/62/62
f 56/56/56 63/63/63 50/50/50
f 57/57/57 50/50/50 63/63/63
f 57/57/57 64/64/64 58/58/58
f 65/65/65 58/58/58 64/64/64
f 58/58/58 65/65/65 59/59/59
f 66/66/66 59/59/59 65/65/65
f 59/59/59 66/66/66 60/60/60
f 67/67/67 60/60/60 66/66/66
f 61/61/61 68/68/68 62/62/62
f 69/69/69 62/62/62 68/68/68
f 62/62/62 69/69/69 63/63/63
f 70/70/70 63/63/63 69/69/69
f 63/63/63 70/70/70 57/57/57
f 64/64/64 57/57/57 70/70/70
f 64/64/64 71/71/71 65/65/65
f 72/72/72 65/65/65 71/71/71
f 65/65/65 72/72/72 66/66/66
f 73/73/73 66/66/66 72/72/72
f 66/66/66 73/73/73 67/67/67
f 74/74/74 67/67/67 73/73/73
f 68/68/68 75/75/75 69/69/69
f 76/76/76 69/69/69 75/75/75
f 69/69/69 76/76/76 70/70/70
f 77/77/77 70/70/70 76/76/76
f 70/70/70 77/77/77 64/64/64
f 71/71/71 64/64/64 77/77/77
f 71/71/71 78/78/78 72/72/72
f 79/79/79 72/72/72 78/78/78
f 72/72/72 79/79/79 73/73/73
f 80/80/80 73/73/73 79/79/79
f 73/73/73 80/80/80 74/74/74
f 81/81/81 74/74/74 80/80/80
f 75/75/75 82/82/82 76/76/76
f 83/83/83 76/76/76 82/82/82
f 76/76/76 83/83/83 77/77/77
f 84/84/84 77/77/77 83/83/83
f 77/77/77 84/84/84 71/71/71
f 78/78/78 71/71/71 84/84/84
f 85/85/85 1/1/1 3/3/3
f 86/86/86 79/79/79 78/78/78
f 85/85/85 3/3/3 5/5/5
f 86/86/86 80/80/80 79/79/79
f 85/85/85 5/5/5 7/7/7
f 86/86/86 81/81/81 80/80/80
f 85/85/85 9/9/9 11/11/11
f 86/86/86 83/83/83 82/82/82
f 85/85/85 11/11/11 13/13/13
f 86/86/86 84/84/84 83/83/83
f 13/13/13 1/1/1 85/85/85
f 86/86/86 78/78/78 84/84/84
f 87/87/87 88/88/88 89/89/89
f 90/90/90 89/89/89 88/88/88
f 89/89/89 90/90/90 91/91/91
f 92/92/92 91/91/91 90/90/90
f 91/91/91 92/92/92 93/93/93
f 94/94/94 93/93/93 92/92/92
f 95/95/95 96/96/96 97/97/97
f 98/98/98 97/97/97 96/96/96
f 97/97/97 98/98/98 99/99/99
f 100/100/100 99/99/99 98/98/98
f 100/100/100 87/87/87 99/99/99
f 88/88/88 87/87/87 100/100/100
f 88/88/88 101/101/101 90/90/90
f 102/102/102 90/90/90 101/101/101
f 90/90/90 102/102/102 92/92/92
f 103/103/103 92/92/92 102/102/102
f 92/92/92 103/103/103 94/94/94
f 104/104/104 94/94/94 103/103/103
f 96/96/96 105/105/105 98/98/98
f 106/106/106 98/98/98 105/105/105
f 98/98/98 106/106/106 100/100/100
f 107/107/107 100/100/100 106/106/106
f 100/100/100 107/107/107 88/88/88
f 101/101/101 88/88/88 107/107/107
f 101/101/101 108/108/108 102/102/102
f 109/109/109 102/102/102 108/108/108
f 102/102/102 109/109/109 103/103/103
f 110/110/110 103/103/103 109/109/109
f 103/103/103 110/110/110 104/104/104
f 111/111/111 104/104/104 110/110/110
f 105/105/105 112/112/112 106/106/106
f 113/113/113 106/106/106 112/112/112
f 106/106/106 113/113/113 107/107/107
f 114/114/114 107/107/107 113/113/113
f 107/107/107 114/114/114 101/101/101
f 108/108/108 101/101/101 114/114/114
f 108/108/108 115/115/115 109/109/109
f 116/116/116 109/109/109 115/115/115
f 109/109/109 116/116/116 110/110/110
f 117/117/117 110/110/110 116/116/116
f 110/110/110 117/117/117 111/111/111
f 118/118/118 111/111/111 117/117/117
f 112/112/112 119/119/119 113/113/113
f 120/120/120 113/113/113 119/119/119
f 113/113/113 120/120/120 114/114/114
f 121/121/121 114/114/114 120/120/120
f 114/114/114 121/121/121 108/108/108
f 115/115/115 108/108/108 121/121/121
f 115/115/115 122/122/122 116/116/116
f 123/123/123 116/116/116 122/122/122
f 116/116/116 123/123/123 117/117/117
f 124/124/124 117/117/117 123/123/123
f 117/117/117 124/124/124 118/118/118
f 125/125/125 118/118/118 124/124/124
f 119/119/119 126/126/126 120/120/120
f 127/127/127 120/120/120 126/126/126
f 120/120/120 127/127/127 121/121/121
f 128/128/128 121/121/121 127/127/127
f 121/121/121 128/128/128 115/115/115
f 122/122/122 115/115/115 128/128/128
f 122/122/122 129/129/129 123/123/123
f 130/130/130 123/123/123 129/129/129
f 123/123/123 130/130/130 124/124/124
f 131/131/131 124/124/124 130/130/130
f 124/124/124 131/131/131 125/125/125
f 132/132/132 125/125/125 131/131/131
f 126/126/126 133/133/133 127/127/127
f 134/134/134 127/127/127 133/133/133
f 127/127/127 134/134/134 128/128/128
f 135/135/135 128/128/128 134/134/134
f 128/128/128 135/135/135 122/122/122
f 129/129/129 122/122/122 135/135/135
f 129/129/129 136/136/136 130/130/130
f 137/137/137 130/130/130 136/136/136
f 130/130/130 137/137/137 131/131/131
f 138/138/138 131/131/131 137/137/137
f 131/131/131 138/138/138 132/132/132
f 139/139/139 132/132/132 138/138/138
f 133/133/133 140/140/140 134/134/134
f 141/141/141 134/134/134 140/140/140
f 134/134/134 141/141/141 135/135/135
f 142/142/142 135/135/135 141/141/141
f 135/135/135 142/142/142 129/129/129
f 136/136/136 129/129/129 142/142/142
f 136/136/136 143/143/143 137/137/137
f 144/144/144 137/137/137 143/143/143
f 137/137/137 144/144/144 138/138/138
f 145/145/145 138/138/138 144/144/144
f 138/138/138 145/145/145 139/139/139
f 146/146/146 139/139/139 145/145/145
f 140/140/140 147/147/147 141/141/141
f 148/148/148 141/141/141 147/147/147
f 141/141/141 148/148/148 142/142/142
f 149/149/149 142/142/142 148/148/148
f 142/142/142 149/149/149 136/136/136
f 143/143/143 136/136/136 149/149/149
f 143/143/143 150/150/150 144/144/144
f 151/151/151 144/144/144 150/150/150
f 144/144/144 151/151/151 145/145/145
f 152/152/152 145/145/145 151/151/151
f 145/145/145 152/152/152 146/146/146
f 153/153/153 146/146/146 152/152/152
f 147/147/147 154/154/154 148/148/148
f 155/155/155 148/148/148 154/154/154
f 148/148/148 155/155/155 149/149/149
f 156/156/156 149/149/149 155/155/155
f 149/149/149 156/156/156 143/143/143
f 150/150/150 143/143/143 156/156/156
f 150/150/150 157/157/157 151/151/151
f 158/158/158 151/151/151 157/157/157
f 151/151/151 158/158/158 152/152/152
f 159/159/159 152/152/152 158/158/158
f 152/152/152 159/159/159 153/153/153
f 160/160/160 153/153/153 159/159/159
f 154/154/154 161/161/161 155/155/155
f 162/162/162 155/155/155 161/161/161
f 155/155/155 162/162/162 156/156/156
f 163/163/163 156/156/156 162/162/162
f 156/156/156 163/163/163 150/150/150
f 157/157/157 150/150/150 163/163/163
f 157/157/157 164/164/164 158/158/158
f 165/165/165 158/158/158 164/164/164
f 158/158/158 165/165/165 159/159/159
f 166/166/166 159/159/159 165/165/165
f 159/159/159 166/166/166 160/160/160
f 167/167/167 160/160/160 166/166/166
f 161/161/161 168/168/168 162/162/162
f 169/169/169 162/162/162 168/168/168
f 162/162/162 169/169/169 163/163/163
f 170/170/170 163/163/163 169/169/169
f 163/163/163 170/170/170 157/157/157
f 164/164/164 157/157/157 170/170/170
f 171/171/171 87/87/87 89/89/89
f 172/172/172 165/165/165 164/164/164
f 171/171/171 89/89/89 91/91/91
f 172/172/172 166/166/166 165/165/165
f 171/171/171 91/91/91 93/93/93
f 172/172/172 167/167/167 166/166/166
f 171/171/171 95/95/95 97/97/97
f 172/172/172 169/169/169 168/168/168
f 171/171/171 97/97/97 99/99/99
f 172/172/172 170/170/170 169/169/169
f 99/99/99 87/87/87 171/171/171
f 172/172/172 164/164/164 170/170/170
