o tip_n_in
v -0.128091 5.613039 -3.454539
v 0.000054 5.554374 -3.380554
v -0.073930 5.613039 -3.508699
v 0.000054 5.613039 -3.528523
v 0.074038 5.613039 -3.508699
v 0.128200 5.613039 -3.454539
v -0.345383 6.241847 -3.181116
v -0.398470 6.011555 -3.380554
v -0.398822 6.241847 -3.380554
v -0.345079 6.011555 -3.181292
v -0.348803 5.819438 -3.380554
v -0.302065 5.819438 -3.206125
v -0.147915 5.613039 -3.380554
v 0.348911 5.819438 -3.380554
v 0.128200 5.613039 -3.306569
v 0.302173 5.819438 -3.206125
v 0.148024 5.613039 -3.380554
v 0.398579 6.011555 -3.380554
v 0.345187 6.011555 -3.181292
v 0.398930 6.241847 -3.380554
v 0.345491 6.241847 -3.181116
v 0.345491 6.241847 -3.579992
v 0.345187 6.011555 -3.579816
v 0.302173 5.819438 -3.554982
v 0.174483 5.819438 -3.682672
v 0.199317 6.011555 -3.725687
v 0.199492 6.241847 -3.725990
v 0.000054 6.241847 -3.779431
v 0.000054 6.011555 -3.779079
v 0.000054 5.819438 -3.729411
v -0.174374 5.819438 -3.682673
v -0.199209 6.011555 -3.725687
v -0.199384 6.241847 -3.725990
v -0.345383 6.241847 -3.579992
v -0.345079 6.011555 -3.579816
v -0.302065 5.819438 -3.554982
v 3.462650 5.613039 -0.128173
v 3.388665 5.554373 -0.000027
v 3.516811 5.613039 -0.074012
v 3.536635 5.613039 -0.000027
v 3.516811 5.613039 0.073957
v 3.462650 5.613039 0.128117
v 3.189227 6.241848 -0.345464
v 3.388665 6.011555 -0.398553
v 3.388665 6.241847 -0.398904
v 3.189404 6.011555 -0.345160
v 3.388665 5.819438 -0.348884
v 3.214237 5.819438 -0.302146
v 3.388665 5.613039 -0.147996
v 3.388665 5.819438 0.348830
v 3.314681 5.613039 0.128117
v 3.214237 5.819438 0.302092
v 3.388665 5.613039 0.147942
v 3.388665 6.011555 0.398497
v 3.189403 6.011555 0.345106
v 3.388665 6.241847 0.398849
v 3.189227 6.241847 0.345410
v 3.588104 6.241847 0.345410
v 3.587928 6.011555 0.345106
v 3.563094 5.819438 0.302092
v 3.690785 5.819438 0.174401
v 3.733798 6.011555 0.199235
v 3.734103 6.241847 0.199411
v 3.787542 6.241847 -0.000027
v 3.787191 6.011555 -0.000027
v 3.737523 5.819438 -0.000027
v 3.690786 5.819438 -0.174456
v 3.733798 6.011555 -0.199290
v 3.734103 6.241847 -0.199465
v 3.588104 6.241847 -0.345464
v 3.587928 6.011555 -0.345160
v 3.563094 5.819438 -0.302146
v -3.466198 5.613040 0.128144
v -3.392213 5.554373 -0.000001
v -3.520359 5.613040 0.073983
v -3.540183 5.613040 -0.000001
v -3.520359 5.613040 -0.073987
v -3.466199 5.613040 -0.128147
v -3.192776 6.241847 0.345436
v -3.392213 6.011555 0.398523
v -3.392214 6.241847 0.398875
v -3.192951 6.011555 0.345132
v -3.392213 5.819438 0.348856
v -3.217785 5.819438 0.302118
v -3.392213 5.613040 0.147968
v -3.392213 5.819438 -0.348859
v -3.318229 5.613040 -0.128147
v -3.217785 5.819438 -0.302121
v -3.392213 5.613040 -0.147971
v -3.392214 6.011555 -0.398527
v -3.192951 6.011555 -0.345134
v -3.392213 6.241848 -0.398878
v -3.192776 6.241848 -0.345438
v -3.591652 6.241848 -0.345438
v -3.591476 6.011555 -0.345134
v -3.566642 5.819438 -0.302121
v -3.694333 5.819438 -0.174430
v -3.737346 6.011555 -0.199264
v -3.737651 6.241848 -0.199439
v -3.791090 6.241848 -0.000001
v -3.790739 6.011555 -0.000001
v -3.741070 5.819438 -0.000001
v -3.694333 5.819438 0.174427
v -3.737346 6.011555 0.199262
v -3.737651 6.241848 0.199437
v -3.591652 6.241848 0.345436
v -3.591476 6.011555 0.345132
v -3.566642 5.819438 0.302118
v 0.128200 5.613039 3.453599
v 0.000054 5.554373 3.379615
v 0.074038 5.613039 3.507761
v 0.000054 5.613039 3.527584
v -0.073930 5.613039 3.507761
v -0.128091 5.613039 3.453599
v 0.345491 6.241847 3.180177
v 0.398579 6.011555 3.379615
v 0.398930 6.241847 3.379615
v 0.345187 6.011555 3.180353
v 0.348912 5.819438 3.379615
v 0.302173 5.819438 3.205187
v 0.148024 5.613039 3.379615
v -0.348803 5.819438 3.379615
v -0.128091 5.613039 3.305630
v -0.302065 5.819438 3.205187
v -0.147915 5.613039 3.379615
v -0.398470 6.011555 3.379615
v -0.345078 6.011555 3.180353
v -0.398821 6.241847 3.379615
v -0.345382 6.241847 3.180177
v -0.345382 6.241847 3.579053
v -0.345079 6.011555 3.578878
v -0.302065 5.819438 3.554044
v -0.174374 5.819438 3.681734
v -0.199208 6.011555 3.724748
v -0.199383 6.241847 3.725052
v 0.000054 6.241847 3.778491
v 0.000054 6.011555 3.778140
v 0.000054 5.819438 3.728472
v 0.174483 5.819438 3.681734
v 0.199317 6.011555 3.724748
v 0.199492 6.241847 3.725052
v 0.345491 6.241847 3.579053
v 0.345187 6.011555 3.578878
v 0.302173 5.819438 3.554044
vt 0.366914 0.576160
vt 0.496372 0.501416
vt 0.421630 0.630874
vt 0.496372 0.650900
vt 0.571114 0.630874
vt 0.625829 0.576160
vt 0.147397 0.299936
vt 0.093765 0.501416
vt 0.093411 0.501416
vt 0.147704 0.300114
vt 0.143941 0.501416
vt 0.191158 0.325202
vt 0.346887 0.501416
vt 0.848801 0.501416
vt 0.625829 0.426675
vt 0.801585 0.325202
vt 0.645857 0.501416
vt 0.898978 0.501416
vt 0.845039 0.300114
vt 0.899333 0.501416
vt 0.845347 0.299936
vt 0.845347 0.702898
vt 0.845039 0.702720
vt 0.801585 0.677631
vt 0.672587 0.806631
vt 0.697675 0.850085
vt 0.697852 0.850391
vt 0.496372 0.904378
vt 0.496372 0.904022
vt 0.496372 0.853846
vt 0.320157 0.806631
vt 0.295068 0.850085
vt 0.294891 0.850391
vt 0.147397 0.702898
vt 0.147704 0.702720
vt 0.191158 0.677631
vt 0.571473 0.635066
vt 0.496731 0.505607
vt 0.626189 0.580351
vt 0.646216 0.505607
vt 0.626189 0.430865
vt 0.571473 0.376151
vt 0.295250 0.854583
vt 0.496731 0.908214
vt 0.496731 0.908569
vt 0.295428 0.854276
vt 0.496731 0.858038
vt 0.320516 0.810821
vt 0.496731 0.655093
vt 0.496731 0.153178
vt 0.421989 0.376151
vt 0.320516 0.200395
vt 0.496731 0.356124
vt 0.496731 0.103002
vt 0.295428 0.156940
vt 0.496731 0.102647
vt 0.295250 0.156633
vt 0.698211 0.156633
vt 0.698033 0.156940
vt 0.672946 0.200395
vt 0.801944 0.329393
vt 0.845398 0.304305
vt 0.845705 0.304127
vt 0.899692 0.505608
vt 0.899337 0.505607
vt 0.849161 0.505607
vt 0.801944 0.681823
vt 0.845398 0.706911
vt 0.845705 0.707089
vt 0.698211 0.854583
vt 0.698033 0.854276
vt 0.672946 0.810821
vt 0.425030 0.376148
vt 0.499772 0.505606
vt 0.370314 0.430864
vt 0.350287 0.505606
vt 0.370314 0.580349
vt 0.425030 0.635063
vt 0.701253 0.156631
vt 0.499772 0.103000
vt 0.499772 0.102645
vt 0.701075 0.156939
vt 0.499772 0.153177
vt 0.675987 0.200393
vt 0.499772 0.356121
vt 0.499772 0.858037
vt 0.574515 0.635063
vt 0.675987 0.810819
vt 0.499772 0.655091
vt 0.499772 0.908212
vt 0.701075 0.854274
vt 0.499772 0.908567
vt 0.701253 0.854581
vt 0.298292 0.854581
vt 0.298469 0.854274
vt 0.323557 0.810819
vt 0.194559 0.681821
vt 0.151105 0.706910
vt 0.150797 0.707086
vt 0.096811 0.505606
vt 0.097166 0.505606
vt 0.147342 0.505606
vt 0.194559 0.329391
vt 0.151105 0.304303
vt 0.150797 0.304126
vt 0.298292 0.156631
vt 0.298469 0.156939
vt 0.323557 0.200393
vt 0.625828 0.427104
vt 0.496371 0.501846
vt 0.571114 0.372388
vt 0.496371 0.352362
vt 0.421629 0.372388
vt 0.366914 0.427104
vt 0.845346 0.703326
vt 0.898978 0.501846
vt 0.899332 0.501846
vt 0.845039 0.703149
vt 0.848801 0.501846
vt 0.801585 0.678061
vt 0.645855 0.501846
vt 0.143941 0.501846
vt 0.366914 0.576588
vt 0.191158 0.678061
vt 0.346887 0.501846
vt 0.093764 0.501846
vt 0.147704 0.703150
vt 0.093410 0.501846
vt 0.147397 0.703327
vt 0.147397 0.300366
vt 0.147704 0.300543
vt 0.191158 0.325631
vt 0.320156 0.196633
vt 0.295068 0.153178
vt 0.294891 0.152871
vt 0.496371 0.098885
vt 0.496371 0.099240
vt 0.496371 0.149416
vt 0.672586 0.196633
vt 0.697675 0.153178
vt 0.697852 0.152871
vt 0.845346 0.300366
vt 0.845039 0.300543
vt 0.801585 0.325631
vn 0.511093 0.771386 0.379040
vn 0.000000 0.941160 0.337901
vn 0.289590 0.816614 0.499222
vn 0.001160 0.816614 0.577136
vn -0.287545 0.816614 0.500412
vn -0.508896 0.771172 0.382458
vn 0.965911 0.001465 -0.258797
vn 0.992035 0.125736 -0.000031
vn 0.999969 0.001526 0.004242
vn 0.958129 0.126682 -0.256722
vn 0.879177 0.476455 -0.000275
vn 0.847835 0.479080 -0.227149
vn 0.716605 0.697470 0.000000
vn -0.879177 0.476455 0.000275
vn -0.703726 0.684957 -0.188543
vn -0.849788 0.475356 -0.227699
vn -0.716605 0.697439 0.004120
vn -0.992035 0.125736 0.000031
vn -0.959075 0.118839 -0.256966
vn -0.999969 0.001495 -0.004242
vn -0.965911 0.001465 -0.258797
vn -0.868129 0.001526 0.496292
vn -0.859127 0.125736 0.496048
vn -0.761223 0.476455 0.439833
vn -0.439314 0.476485 0.761528
vn -0.495987 0.125736 0.859157
vn -0.503677 0.001495 0.863887
vn -0.004242 0.001495 0.999969
vn 0.000031 0.125736 0.992035
vn 0.000275 0.476485 0.879177
vn 0.439833 0.476455 0.761223
vn 0.496048 0.125736 0.859127
vn 0.496292 0.001495 0.868129
vn 0.863887 0.001526 0.503647
vn 0.859157 0.125736 0.495987
vn 0.761528 0.476455 0.439314
vn -0.379040 0.771386 0.511093
vn -0.337901 0.941160 0.000000
vn -0.499222 0.816614 0.289590
vn -0.577136 0.816614 0.001160
vn -0.500412 0.816614 -0.287545
vn -0.382458 0.771172 -0.508896
vn 0.258797 0.001465 0.965911
vn 0.256722 0.126713 0.958129
vn 0.000275 0.476455 0.879177
vn 0.227180 0.479080 0.847835
vn 0.000000 0.697470 0.716605
vn -0.000275 0.476455 -0.879177
vn 0.188543 0.684957 -0.703726
vn 0.227699 0.475356 -0.849788
vn -0.004120 0.697439 -0.716575
vn -0.000031 0.125736 -0.992035
vn 0.256966 0.118839 -0.959075
vn 0.004242 0.001526 -0.999969
vn 0.258797 0.001465 -0.965911
vn -0.496292 0.001495 -0.868129
vn -0.496048 0.125736 -0.859127
vn -0.439833 0.476485 -0.761223
vn -0.761528 0.476485 -0.439314
vn -0.859157 0.125736 -0.495987
vn -0.863887 0.001526 -0.503677
vn 0.379040 0.771386 -0.511093
vn 0.337901 0.941160 0.000000
vn 0.499222 0.816614 -0.289590
vn 0.577136 0.816614 -0.001160
vn 0.500412 0.816614 0.287545
vn 0.382458 0.771172 0.508896
vn -0.258797 0.001465 -0.965911
vn -0.256722 0.126682 -0.958129
vn -0.000275 0.476485 -0.879177
vn -0.227180 0.479080 -0.847835
vn 0.000000 0.697470 -0.716605
vn -0.188543 0.684957 0.703726
vn -0.227699 0.475356 0.849788
vn 0.004120 0.697470 0.716575
vn -0.256966 0.118839 0.959075
vn -0.258797 0.001465 0.965911
vn 0.496292 0.001526 0.868129
vn 0.761528 0.476485 0.439314
vn 0.999969 0.001495 0.004242
vn 0.879177 0.476485 -0.000275
vn 0.761223 0.476455 -0.439833
vn 0.859127 0.125736 -0.496048
vn 0.868129 0.001526 -0.496292
vn 0.503677 0.001526 -0.863887
vn 0.495987 0.125736 -0.859157
vn 0.439314 0.476455 -0.761528
vn -0.511093 0.771386 -0.379040
vn 0.000000 0.941160 -0.337901
vn -0.289590 0.816614 -0.499222
vn -0.001160 0.816614 -0.577136
vn 0.287545 0.816614 -0.500412
vn 0.508896 0.771172 -0.382458
vn -0.965911 0.001465 0.258797
vn -0.958129 0.126682 0.256722
vn -0.847835 0.479080 0.227180
vn -0.716605 0.697470 0.000000
vn 0.703726 0.684957 0.188543
vn 0.849788 0.475356 0.227699
vn 0.716575 0.697439 -0.004120
vn 0.959075 0.118839 0.256966
vn 0.965911 0.001465 0.258797
vn 0.868129 0.001495 -0.496292
vn 0.439314 0.476485 -0.761528
vn 0.503677 0.001495 -0.863887
vn 0.004242 0.001495 -0.999969
vn -0.863887 0.001495 -0.503677
vn -0.761528 0.476455 -0.439314
s 1
f 1/1/1 2/2/2 3/3/3
f 3/3/3 2/2/2 4/4/4
f 4/4/4 2/2/2 5/5/5
f 5/5/5 2/2/2 6/6/6
f 7/7/7 8/8/8 9/9/9
f 7/7/7 10/10/10 8/8/8
f 10/10/10 11/11/11 8/8/8
f 10/10/10 12/12/12 11/11/11
f 13/13/13 11/11/11 12/12/12
f 14/14/14 15/15/15 16/16/16
f 14/14/14 17/17/17 15/15/15
f 18/18/18 16/16/16 19/19/19
f 18/18/18 14/14/14 16/16/16
f 20/20/20 19/19/19 21/21/21
f 20/20/20 18/18/18 19/19/19
f 22/22/22 18/18/18 20/20/20
f 22/22/22 23/23/23 18/18/18
f 23/23/23 14/14/14 18/18/18
f 23/23/23 24/24/24 14/14/14
f 24/24/24 17/17/17 14/14/14
f 24/24/24 6/6/6 17/17/17
f 25/25/25 6/6/6 24/24/24
f 25/25/25 5/5/5 6/6/6
f 26/26/26 24/24/24 23/23/23
f 26/26/26 25/25/25 24/24/24
f 27/27/27 23/23/23 22/22/22
f 27/27/27 26/26/26 23/23/23
f 28/28/28 26/26/26 27/27/27
f 28/28/28 29/29/29 26/26/26
f 29/29/29 25/25/25 26/26/26
f 29/29/29 30/30/30 25/25/25
f 30/30/30 5/5/5 25/25/25
f 30/30/30 4/4/4 5/5/5
f 31/31/31 4/4/4 30/30/30
f 31/31/31 3/3/3 4/4/4
f 32/32/32 30/30/30 29/29/29
f 32/32/32 31/31/31 30/30/30
f 33/33/33 29/29/29 28/28/28
f 33/33/33 32/32/32 29/29/29
f 34/34/34 32/32/32 33/33/33
f 34/34/34 35/35/35 32/32/32
f 35/35/35 31/31/31 32/32/32
f 35/35/35 36/36/36 31/31/31
f 36/36/36 3/3/3 31/31/31
f 36/36/36 1/1/1 3/3/3
f 13/13/13 1/1/1 11/11/11
f 1/1/1 36/36/36 11/11/11
f 8/8/8 36/36/36 35/35/35
f 8/8/8 11/11/11 36/36/36
f 9/9/9 35/35/35 34/34/34
f 9/9/9 8/8/8 35/35/35
f 37/37/37 38/38/38 39/39/39
f 39/39/39 38/38/38 40/40/40
f 40/40/40 38/38/38 41/41/41
f 41/41/41 38/38/38 42/42/42
f 43/43/43 44/44/29 45/45/28
f 43/43/43 46/46/44 44/44/29
f 46/46/44 47/47/45 44/44/29
f 46/46/44 48/48/46 47/47/45
f 49/49/47 47/47/45 48/48/46
f 50/50/48 51/51/49 52/52/50
f 50/50/48 53/53/51 51/51/49
f 54/54/52 52/52/50 55/55/53
f 54/54/52 50/50/48 52/52/50
f 56/56/54 55/55/53 57/57/55
f 56/56/54 54/54/52 55/55/53
f 58/58/56 54/54/52 56/56/54
f 58/58/56 59/59/57 54/54/52
f 59/59/57 50/50/48 54/54/52
f 59/59/57 60/60/58 50/50/48
f 60/60/58 53/53/51 50/50/48
f 60/60/58 42/42/42 53/53/51
f 61/61/59 42/42/42 60/60/58
f 61/61/59 41/41/41 42/42/42
f 62/62/60 60/60/58 59/59/57
f 62/62/60 61/61/59 60/60/58
f 63/63/61 59/59/57 58/58/56
f 63/63/61 62/62/60 59/59/57
f 64/64/20 62/62/60 63/63/61
f 64/64/20 65/65/18 62/62/60
f 65/65/18 61/61/59 62/62/60
f 65/65/18 66/66/14 61/61/59
f 66/66/14 41/41/41 61/61/59
f 66/66/14 40/40/40 41/41/41
f 67/67/24 40/40/40 66/66/14
f 67/67/24 39/39/39 40/40/40
f 68/68/23 66/66/14 65/65/18
f 68/68/23 67/67/24 66/66/14
f 69/69/22 65/65/18 64/64/20
f 69/69/22 68/68/23 65/65/18
f 70/70/27 68/68/23 69/69/22
f 70/70/27 71/71/26 68/68/23
f 71/71/26 67/67/24 68/68/23
f 71/71/26 72/72/25 67/67/24
f 72/72/25 39/39/39 67/67/24
f 72/72/25 37/37/37 39/39/39
f 37/37/37 47/47/45 49/49/47
f 37/37/37 72/72/25 47/47/45
f 44/44/29 72/72/25 71/71/26
f 44/44/29 47/47/45 72/72/25
f 45/45/28 71/71/26 70/70/27
f 45/45/28 44/44/29 71/71/26
f 73/73/62 74/74/63 75/75/64
f 75/75/64 74/74/63 76/76/65
f 76/76/65 74/74/63 77/77/66
f 77/77/66 74/74/63 78/78/67
f 79/79/68 80/80/52 81/81/54
f 79/79/68 82/82/69 80/80/52
f 82/82/69 83/83/70 80/80/52
f 82/82/69 84/84/71 83/83/70
f 85/85/72 83/83/70 84/84/71
f 86/86/45 87/87/73 88/88/74
f 86/86/45 89/89/75 87/87/73
f 90/90/29 88/88/74 91/91/76
f 90/90/29 86/86/45 88/88/74
f 92/92/28 91/91/76 93/93/77
f 92/92/28 90/90/29 91/91/76
f 94/94/78 90/90/29 92/92/28
f 94/94/78 95/95/32 90/90/29
f 95/95/32 86/86/45 90/90/29
f 95/95/32 96/96/31 86/86/45
f 96/96/31 89/89/75 86/86/45
f 96/96/31 78/78/67 89/89/75
f 97/97/79 78/78/67 96/96/31
f 97/97/79 77/77/66 78/78/67
f 98/98/35 96/96/31 95/95/32
f 98/98/35 97/97/79 96/96/31
f 99/99/34 95/95/32 94/94/78
f 99/99/34 98/98/35 95/95/32
f 100/100/80 98/98/35 99/99/34
f 100/100/80 101/101/8 98/98/35
f 101/101/8 97/97/79 98/98/35
f 101/101/8 102/102/81 97/97/79
f 102/102/81 77/77/66 97/97/79
f 102/102/81 76/76/65 77/77/66
f 103/103/82 76/76/65 102/102/81
f 103/103/82 75/75/64 76/76/65
f 104/104/83 102/102/81 101/101/8
f 104/104/83 103/103/82 102/102/81
f 105/105/84 101/101/8 100/100/80
f 105/105/84 104/104/83 101/101/8
f 106/106/85 104/104/83 105/105/84
f 106/106/85 107/107/86 104/104/83
f 107/107/86 103/103/82 104/104/83
f 107/107/86 108/108/87 103/103/82
f 108/108/87 75/75/64 103/103/82
f 108/108/87 73/73/62 75/75/64
f 73/73/62 83/83/70 85/85/72
f 73/73/62 108/108/87 83/83/70
f 80/80/52 108/108/87 107/107/86
f 80/80/52 83/83/70 108/108/87
f 81/81/54 107/107/86 106/106/85
f 81/81/54 80/80/52 107/107/86
f 109/109/88 110/110/89 111/111/90
f 111/111/90 110/110/89 112/112/91
f 112/112/91 110/110/89 113/113/92
f 113/113/92 110/110/89 114/114/93
f 115/115/94 116/116/18 117/117/20
f 115/115/94 118/118/95 116/116/18
f 118/118/95 119/119/14 116/116/18
f 118/118/95 120/120/96 119/119/14
f 121/121/97 119/119/14 120/120/96
f 122/122/11 123/123/98 124/124/99
f 122/122/11 125/125/100 123/123/98
f 126/126/8 124/124/99 127/127/101
f 126/126/8 122/122/11 124/124/99
f 128/128/80 127/127/101 129/129/102
f 128/128/80 126/126/8 127/127/101
f 130/130/103 126/126/8 128/128/80
f 130/130/103 131/131/83 126/126/8
f 131/131/83 122/122/11 126/126/8
f 131/131/83 132/132/82 122/122/11
f 132/132/82 125/125/100 122/122/11
f 132/132/82 114/114/93 125/125/100
f 133/133/104 114/114/93 132/132/82
f 133/133/104 113/113/92 114/114/93
f 134/134/86 132/132/82 131/131/83
f 134/134/86 133/133/104 132/132/82
f 135/135/105 131/131/83 130/130/103
f 135/135/105 134/134/86 131/131/83
f 136/136/106 134/134/86 135/135/105
f 136/136/106 137/137/52 134/134/86
f 137/137/52 133/133/104 134/134/86
f 137/137/52 138/138/48 133/133/104
f 138/138/48 113/113/92 133/133/104
f 138/138/48 112/112/91 113/113/92
f 139/139/58 112/112/91 138/138/48
f 139/139/58 111/111/90 112/112/91
f 140/140/57 138/138/48 137/137/52
f 140/140/57 139/139/58 138/138/48
f 141/141/56 137/137/52 136/136/106
f 141/141/56 140/140/57 137/137/52
f 142/142/107 140/140/57 141/141/56
f 142/142/107 143/143/60 140/140/57
f 143/143/60 139/139/58 140/140/57
f 143/143/60 144/144/108 139/139/58
f 144/144/108 111/111/90 139/139/58
f 144/144/108 109/109/88 111/111/90
f 109/109/88 119/119/14 121/121/97
f 109/109/88 144/144/108 119/119/14
f 116/116/18 144/144/108 143/143/60
f 116/116/18 119/119/14 144/144/108
f 117/117/20 143/143/60 142/142/107
f 117/117/20 116/116/18 143/143/60
