o wheels_r
v 32.002022 -16.297443 5.870184
v 32.002022 -16.401917 5.870184
v 31.583023 -16.695662 6.157839
v 31.929047 -16.668329 6.150515
v 31.583023 -16.434755 6.087929
v 31.164022 -16.544630 6.117371
v 31.237000 -16.668329 6.150515
v 31.583023 -16.695662 5.972428
v 31.929047 -16.668329 5.979752
v 32.002022 -16.544630 6.012897
v 31.237000 -16.668329 5.979752
v 31.583023 -16.602955 5.811858
v 31.929047 -16.582947 5.831867
v 32.002022 -16.492393 5.922421
v 31.164022 -16.492393 5.922421
v 31.237000 -16.582947 5.831867
v 31.583023 -16.442385 5.719153
v 31.929047 -16.435062 5.746485
v 31.583023 -16.372477 5.980059
v 31.164022 -16.401917 5.870184
v 31.237000 -16.435062 5.746485
v 31.583023 -16.256975 5.719153
v 31.929047 -16.264299 5.746485
v 31.237000 -16.264299 5.746485
v 31.583023 -16.256975 6.411115
v 31.929047 -16.264299 6.383782
v 32.002022 -16.297443 6.260084
v 31.583023 -16.326885 6.150208
v 31.164022 -16.297443 6.260084
v 31.237000 -16.264299 6.383782
v 31.583023 -16.442385 6.411115
v 31.929047 -16.435062 6.383782
v 32.002022 -16.401917 6.260084
v 31.237000 -16.435062 6.383782
v 31.583023 -16.602955 6.318409
v 31.929047 -16.582947 6.298400
v 31.583023 -16.411959 6.127413
v 31.164022 -16.492393 6.207847
v 31.237000 -16.582947 6.298400
v 32.002022 -16.544630 6.117371
v 32.002022 -16.492393 6.207847
v 31.583023 -16.372477 6.150208
v 31.583023 -16.326885 5.980059
v 31.583023 -16.411959 6.002855
v 31.583023 -16.434755 6.042338
v 31.164022 -16.401917 6.260084
v 31.164022 -16.297443 5.870184
v 31.164022 -16.544630 6.012897
v 31.583023 -16.695660 2.003659
v 31.929047 -16.668327 1.996335
v 32.002022 -16.544628 1.963190
v 31.237000 -16.668327 1.996335
v 31.583023 -16.695660 1.818249
v 31.929047 -16.668327 1.825572
v 31.237000 -16.668327 1.825572
v 31.583023 -16.602955 1.657678
v 31.929047 -16.582945 1.677687
v 32.002022 -16.492392 1.768240
v 31.583023 -16.411959 1.848675
v 31.164024 -16.492392 1.768240
v 31.237000 -16.582947 1.677687
v 31.583023 -16.442385 1.564973
v 31.929047 -16.435061 1.592305
v 32.002022 -16.401917 1.716003
v 31.237000 -16.435061 1.592305
v 31.583023 -16.256973 1.564973
v 31.929047 -16.264297 1.592305
v 32.002022 -16.297441 1.716003
v 31.583023 -16.326883 1.825879
v 31.237000 -16.264297 1.592305
v 31.583023 -16.256973 2.256934
v 31.929047 -16.264297 2.229602
v 31.583023 -16.326883 1.996028
v 31.237000 -16.264297 2.229602
v 31.583023 -16.442385 2.256934
v 31.929047 -16.435061 2.229602
v 31.237000 -16.435061 2.229602
v 31.583023 -16.602955 2.164229
v 31.929047 -16.582945 2.144220
v 32.002022 -16.492392 2.053667
v 31.164024 -16.492392 2.053667
v 31.237000 -16.582945 2.144220
v 32.002022 -16.401917 2.105904
v 32.002022 -16.297441 2.105904
v 32.002022 -16.544628 1.858717
v 31.583023 -16.434753 1.933749
v 31.583023 -16.411959 1.973232
v 31.583023 -16.372475 1.996028
v 31.583023 -16.372475 1.825879
v 31.583023 -16.434753 1.888158
v 31.164024 -16.544630 1.963190
v 31.164024 -16.401917 2.105904
v 31.164024 -16.297441 2.105904
v 31.164024 -16.297443 1.716003
v 31.164024 -16.401917 1.716003
v 31.164024 -16.544628 1.858717
v 31.583025 -16.695662 10.309006
v 31.929049 -16.668327 10.301682
v 32.002022 -16.544630 10.268538
v 31.583025 -16.434755 10.239097
v 31.237001 -16.668329 10.301682
v 31.583025 -16.695662 10.123595
v 31.929049 -16.668327 10.130919
v 32.002022 -16.544630 10.164064
v 31.583025 -16.434755 10.193505
v 31.237001 -16.668329 10.130919
v 31.583025 -16.602955 9.963025
v 31.929049 -16.582947 9.983034
v 31.583025 -16.411959 10.154021
v 31.164024 -16.492393 10.073587
v 31.237001 -16.582947 9.983034
v 31.583025 -16.442385 9.870320
v 31.929049 -16.435061 9.897653
v 31.583025 -16.372477 10.131226
v 31.164024 -16.401917 10.021351
v 31.237001 -16.435062 9.897653
v 31.583025 -16.256975 9.870319
v 31.929049 -16.264297 9.897653
v 32.002022 -16.297443 10.021351
v 31.164024 -16.297443 10.021351
v 31.237001 -16.264297 9.897653
v 31.583025 -16.256975 10.562282
v 31.929049 -16.264297 10.534949
v 32.002022 -16.297443 10.411250
v 31.583025 -16.326885 10.301375
v 31.237001 -16.264299 10.534949
v 31.583025 -16.442385 10.562282
v 31.929049 -16.435062 10.534949
v 32.002022 -16.401917 10.411251
v 31.237001 -16.435062 10.534949
v 31.583025 -16.602955 10.469576
v 31.929049 -16.582947 10.449568
v 32.002022 -16.492393 10.359014
v 31.164024 -16.492393 10.359014
v 31.237001 -16.582947 10.449568
v 32.002022 -16.401917 10.021351
v 32.002022 -16.492393 10.073587
v 31.583025 -16.411959 10.278580
v 31.583025 -16.372475 10.301375
v 31.583025 -16.326885 10.131226
v 31.164024 -16.544630 10.268538
v 31.164024 -16.401917 10.411251
v 31.164024 -16.297443 10.411251
v 31.164024 -16.544630 10.164064
v 31.164024 -16.492393 10.073587
v 31.164024 -16.544630 10.164064
v 31.164024 -16.544630 10.268538
v 31.164024 -16.492393 10.359014
v 31.164024 -16.401917 10.411251
v 31.164024 -16.297443 10.411251
v 31.164024 -16.401917 10.021351
v 31.164024 -16.297443 10.021351
v 32.002022 -16.401917 10.021351
v 32.002022 -16.297443 10.021351
v 32.002022 -16.492393 10.073587
v 32.002022 -16.544630 10.164064
v 32.002022 -16.544630 10.268538
v 32.002022 -16.492393 10.359014
v 32.002022 -16.401917 10.411251
v 32.002022 -16.297443 10.411250
v 31.164024 -16.401917 2.105904
v 31.164024 -16.492392 2.053667
v 31.164024 -16.544630 1.963190
v 31.164024 -16.544628 1.858717
v 31.164024 -16.492392 1.768240
v 31.164024 -16.401917 1.716003
v 31.164024 -16.297443 1.716003
v 31.164024 -16.297441 2.105904
v 32.002022 -16.401917 2.105904
v 32.002022 -16.492392 2.053667
v 32.002022 -16.544628 1.963190
v 32.002022 -16.544628 1.858717
v 32.002022 -16.492392 1.768240
v 32.002022 -16.401917 1.716003
v 32.002022 -16.297441 1.716003
v 32.002022 -16.297441 2.105904
v 32.002022 -16.297443 6.260084
v 32.002022 -16.401917 6.260084
v 32.002022 -16.492393 6.207847
v 32.002022 -16.544630 6.117371
v 32.002022 -16.544630 6.012897
v 32.002022 -16.492393 5.922421
v 32.002022 -16.401917 5.870184
v 32.002022 -16.297443 5.870184
v 31.164022 -16.544630 6.117371
v 31.164022 -16.492393 6.207847
v 31.164022 -16.401917 6.260084
v 31.164022 -16.297443 6.260084
v 31.164022 -16.544630 6.012897
v 31.164022 -16.492393 5.922421
v 31.164022 -16.401917 5.870184
v 31.164022 -16.297443 5.870184
vt 0.145227 0.508219
vt 0.376119 0.909562
vt 0.366047 0.508220
vt 0.172743 0.909562
vt 0.421700 0.994207
vt 0.297276 0.994207
vt 0.462188 0.508219
vt 0.407890 0.508220
vt 0.421700 0.022234
vt 0.297276 0.022234
vt 0.376119 0.106877
vt 0.172743 0.106877
vt 0.017736 0.508219
vt 0.055324 0.909562
vt 0.225437 0.994207
vt 0.376541 0.508219
vt 0.225437 0.022234
vt 0.055324 0.106877
vt 0.225438 0.022234
vt 0.931752 0.909562
vt 0.969340 0.508219
vt 0.969341 0.508220
vt 0.761639 0.994207
vt 0.610536 0.508220
vt 0.761639 0.022234
vt 0.931752 0.106877
vt 0.841850 0.508220
vt 0.814333 0.909562
vt 0.689801 0.994207
vt 0.579187 0.508219
vt 0.689801 0.022234
vt 0.814333 0.106877
vt 0.621029 0.508220
vt 0.610957 0.909562
vt 0.565375 0.994207
vt 0.524887 0.508219
vt 0.565375 0.022234
vt 0.610958 0.106877
vt 0.143551 0.499032
vt 0.383058 0.905778
vt 0.372610 0.499032
vt 0.172095 0.905778
vt 0.430341 0.991561
vt 0.301272 0.991561
vt 0.472339 0.499032
vt 0.416014 0.499032
vt 0.430341 0.006501
vt 0.301272 0.006501
vt 0.383058 0.092286
vt 0.172095 0.092286
vt 0.011305 0.499032
vt 0.050295 0.905778
vt 0.226755 0.991561
vt 0.383495 0.499032
vt 0.226755 0.006501
vt 0.050295 0.092286
vt 0.959420 0.905778
vt 0.998410 0.499032
vt 0.782960 0.991561
vt 0.626219 0.499032
vt 0.782960 0.006502
vt 0.959420 0.092286
vt 0.866164 0.499032
vt 0.837621 0.905778
vt 0.708444 0.991561
vt 0.593700 0.499032
vt 0.708444 0.006501
vt 0.837621 0.092286
vt 0.637104 0.499032
vt 0.626658 0.905778
vt 0.579375 0.991561
vt 0.537376 0.499032
vt 0.579375 0.006501
vt 0.626658 0.092286
vt 0.143928 0.513819
vt 0.380512 0.904075
vt 0.370192 0.513819
vt 0.172123 0.904075
vt 0.427216 0.986382
vt 0.299724 0.986382
vt 0.468703 0.513819
vt 0.413066 0.513819
vt 0.427216 0.041257
vt 0.299724 0.041257
vt 0.380512 0.123563
vt 0.172123 0.123563
vt 0.013296 0.513819
vt 0.051811 0.904075
vt 0.226116 0.986382
vt 0.380944 0.513819
vt 0.226116 0.041257
vt 0.051811 0.123563
vt 0.949838 0.904075
vt 0.988353 0.513819
vt 0.775532 0.986382
vt 0.620705 0.513819
vt 0.949838 0.123563
vt 0.775532 0.041257
vt 0.857720 0.513819
vt 0.829525 0.904075
vt 0.701924 0.986382
vt 0.588583 0.513819
vt 0.701924 0.041257
vt 0.829525 0.123563
vt 0.631457 0.513819
vt 0.621137 0.904075
vt 0.574432 0.986382
vt 0.532946 0.513819
vt 0.574432 0.041257
vt 0.621137 0.123563
vn 0.000488 -0.708274 0.705893
vn -0.500259 -0.835963 0.225471
vn -0.000519 -0.966338 0.257149
vn -0.498642 -0.612232 0.613575
vn -0.868801 -0.479263 0.124271
vn -0.868801 -0.350078 0.350078
vn 0.000000 0.965911 -0.258797
vn -0.261971 0.685385 -0.679403
vn 0.000000 0.707083 -0.707114
vn -0.261971 0.933256 -0.245674
vn 0.261971 0.931059 -0.253853
vn 0.261971 0.679373 -0.685385
vn 0.498947 -0.836970 0.224769
vn 0.868831 -0.352886 0.347240
vn 0.501602 -0.611347 0.612049
vn 0.868831 -0.479232 0.124271
vn 0.000000 -0.258797 0.965911
vn -0.500259 -0.223640 0.836482
vn -0.868801 -0.124271 0.479263
vn -0.261971 0.253853 -0.931059
vn 0.000000 0.258797 -0.965911
vn 0.261971 0.245674 -0.933256
vn 0.868831 -0.131962 0.477157
vn 0.500259 -0.224555 0.836238
vn -0.003723 0.000000 0.999969
vn -0.533647 0.000000 0.845698
vn -0.861263 0.000000 0.508103
vn -0.253639 0.000000 -0.967284
vn 0.004242 0.000000 -0.999969
vn 0.253639 0.000000 -0.967284
vn 0.861293 0.000000 0.508103
vn 0.525834 0.000000 0.850551
vn -0.525834 0.000000 -0.850581
vn 0.000000 -0.258797 -0.965911
vn -0.500259 -0.224555 -0.836238
vn 0.003723 0.000000 -0.999969
vn -0.861263 0.000000 -0.508103
vn -0.868801 -0.131993 -0.477187
vn 0.000000 0.000000 1.000000
vn -0.261971 0.245674 0.933256
vn -0.001129 0.259926 0.965606
vn -0.253639 0.000000 0.967284
vn 0.253639 0.000000 0.967284
vn 0.261971 0.249763 0.932157
vn 0.533647 0.000000 -0.845668
vn 0.868831 -0.124271 -0.479232
vn 0.500259 -0.223640 -0.836482
vn 0.861293 0.000000 -0.508103
vn 0.000000 -0.707083 -0.707083
vn -0.500259 -0.612568 -0.611927
vn -0.868801 -0.352886 -0.347270
vn -0.261971 0.679403 0.685385
vn 0.000000 0.707083 0.707083
vn 0.261971 0.685385 0.679403
vn 0.868831 -0.350078 -0.350078
vn 0.498642 -0.612232 -0.613575
vn 0.000000 -0.965911 -0.258797
vn -0.501846 -0.835688 -0.222938
vn -0.868831 -0.478225 -0.128117
vn -0.261971 0.931059 0.253853
vn 0.000000 0.965911 0.258797
vn 0.261971 0.933256 0.245674
vn 0.501846 -0.835200 -0.224769
vn 0.868831 -0.478195 -0.128117
vn -0.498642 -0.837001 0.225257
vn -0.500259 -0.611927 0.612568
vn -0.868831 -0.478225 0.128117
vn -0.868801 -0.347240 0.352886
vn -0.261971 0.685385 -0.679373
vn 0.000000 0.707083 -0.707083
vn 0.868801 -0.352886 0.347240
vn 0.868801 -0.479232 0.124271
vn -0.868801 -0.124271 0.479232
vn 0.868801 -0.131993 0.477187
vn 0.861263 0.000000 0.508103
vn -0.525834 0.000000 -0.850551
vn -0.500259 -0.224525 -0.836238
vn -0.001129 0.259896 0.965606
vn 0.533647 0.000000 -0.845698
vn 0.868801 -0.124271 -0.479232
vn 0.861263 0.000000 -0.508103
vn -0.868801 -0.352886 -0.347240
vn -0.261971 0.679373 0.685385
vn 0.261971 0.685385 0.679373
vn 0.868801 -0.347240 -0.352886
vn 0.500259 -0.611927 -0.612568
vn 0.868801 -0.477187 -0.131993
vn 0.500259 -0.836238 -0.224555
vn 0.000000 -0.707083 0.707083
vn -0.500259 -0.836238 0.224555
vn 0.000000 -0.965911 0.258797
vn -0.868801 -0.477187 0.131993
vn -0.868801 -0.347270 0.352886
vn 0.261971 0.679403 -0.685385
vn 0.500259 -0.836482 0.223640
vn 0.500259 -0.612568 0.611927
vn -0.004242 0.000000 0.999969
vn 0.000000 0.258797 0.965911
vn 0.261971 0.253853 0.931059
vn -0.500259 -0.836482 -0.223640
vn -0.868801 -0.479263 -0.124271
s 1
f 131/1/1 101/2/2 97/3/3
f 131/1/1 135/4/4 101/2/2
f 141/5/5 101/2/2 134/6/6
f 134/6/6 101/2/2 135/4/4
f 100/7/7 148/6/8 138/8/9
f 100/7/7 147/5/10 148/6/8
f 99/9/11 138/8/9 133/10/12
f 99/9/11 100/7/7 138/8/9
f 98/11/13 158/10/14 132/12/15
f 98/11/13 157/9/16 158/10/14
f 97/3/3 98/11/13 131/1/1
f 131/1/1 98/11/13 132/12/15
f 135/4/4 127/13/17 130/14/18
f 135/4/4 131/1/1 127/13/17
f 134/6/6 130/14/18 142/15/19
f 134/6/6 135/4/4 130/14/18
f 138/8/9 149/15/20 139/16/21
f 138/8/9 148/6/8 149/15/20
f 133/10/12 139/16/21 129/17/22
f 133/10/12 138/8/9 139/16/21
f 132/12/15 159/17/23 128/18/24
f 132/12/15 158/10/14 159/17/23
f 131/1/1 128/18/24 127/13/17
f 131/1/1 132/12/15 128/18/24
f 130/14/18 122/13/25 126/14/26
f 130/14/18 127/13/17 122/13/25
f 142/15/19 126/14/26 143/15/27
f 142/15/19 130/14/18 126/14/26
f 139/16/21 150/15/28 125/16/29
f 139/16/21 149/15/20 150/15/28
f 129/17/22 125/16/29 124/19/30
f 129/17/22 139/16/21 125/16/29
f 128/18/24 160/19/31 123/18/32
f 128/18/24 159/17/23 160/19/31
f 127/13/17 123/18/32 122/13/25
f 127/13/17 128/18/24 123/18/32
f 121/20/33 112/21/34 116/20/35
f 121/20/33 117/22/36 112/21/34
f 120/23/37 116/20/35 115/23/38
f 120/23/37 121/20/33 116/20/35
f 140/24/39 151/23/40 114/24/41
f 140/24/39 152/23/42 151/23/40
f 119/25/43 140/24/39 136/25/44
f 136/25/44 140/24/39 114/24/41
f 118/26/45 153/25/46 113/26/47
f 118/26/45 154/25/48 153/25/46
f 117/22/36 113/26/47 112/21/34
f 117/22/36 118/26/45 113/26/47
f 116/20/35 107/27/49 111/28/50
f 116/20/35 112/21/34 107/27/49
f 115/23/38 111/28/50 110/29/51
f 115/23/38 116/20/35 111/28/50
f 114/24/41 145/29/52 109/30/53
f 114/24/41 151/23/40 145/29/52
f 136/25/44 109/30/53 137/31/54
f 136/25/44 114/24/41 109/30/53
f 113/26/47 155/31/55 108/32/56
f 113/26/47 153/25/46 155/31/55
f 112/21/34 108/32/56 107/27/49
f 112/21/34 113/26/47 108/32/56
f 111/28/50 102/33/57 106/34/58
f 111/28/50 107/27/49 102/33/57
f 110/29/51 106/34/58 144/35/59
f 110/29/51 111/28/50 106/34/58
f 109/30/53 146/35/60 105/36/61
f 109/30/53 145/29/52 146/35/60
f 137/31/54 105/36/61 104/37/62
f 137/31/54 109/30/53 105/36/61
f 108/32/56 155/31/55 103/38/63
f 103/38/63 155/31/55 156/37/64
f 107/27/49 103/38/63 102/33/57
f 107/27/49 108/32/56 103/38/63
f 97/3/3 106/34/58 102/33/57
f 97/3/3 101/2/2 106/34/58
f 144/35/59 106/34/58 141/5/5
f 141/5/5 106/34/58 101/2/2
f 105/36/61 147/5/10 100/7/7
f 105/36/61 146/35/60 147/5/10
f 104/37/62 100/7/7 99/9/11
f 104/37/62 105/36/61 100/7/7
f 103/38/63 157/9/16 98/11/13
f 103/38/63 156/37/64 157/9/16
f 102/33/57 98/11/13 97/3/3
f 102/33/57 103/38/63 98/11/13
f 78/39/1 52/40/65 49/41/3
f 78/39/1 82/42/66 52/40/65
f 91/43/67 82/42/66 81/44/68
f 91/43/67 52/40/65 82/42/66
f 86/45/7 162/44/69 87/46/70
f 86/45/7 163/43/10 162/44/69
f 51/47/11 87/46/70 80/48/12
f 51/47/11 86/45/7 87/46/70
f 50/49/13 170/48/71 79/50/15
f 50/49/13 171/47/72 170/48/71
f 49/41/3 50/49/13 78/39/1
f 78/39/1 50/49/13 79/50/15
f 82/42/66 75/51/17 77/52/18
f 82/42/66 78/39/1 75/51/17
f 81/44/68 77/52/18 92/53/73
f 81/44/68 82/42/66 77/52/18
f 87/46/70 161/53/20 88/54/21
f 87/46/70 162/44/69 161/53/20
f 80/48/12 88/54/21 83/55/22
f 80/48/12 87/46/70 88/54/21
f 79/50/15 169/55/74 76/56/24
f 79/50/15 170/48/71 169/55/74
f 78/39/1 76/56/24 75/51/17
f 78/39/1 79/50/15 76/56/24
f 77/52/18 71/51/25 74/52/26
f 77/52/18 75/51/17 71/51/25
f 92/53/73 74/52/26 93/53/27
f 92/53/73 77/52/18 74/52/26
f 88/54/21 168/53/28 73/54/29
f 88/54/21 161/53/20 168/53/28
f 83/55/22 73/54/29 84/55/30
f 83/55/22 88/54/21 73/54/29
f 76/56/24 176/55/75 72/56/32
f 76/56/24 169/55/74 176/55/75
f 75/51/17 72/56/32 71/51/25
f 75/51/17 76/56/24 72/56/32
f 70/57/76 62/58/34 65/57/77
f 70/57/76 66/58/36 62/58/34
f 94/59/37 65/57/77 95/59/38
f 94/59/37 70/57/76 65/57/77
f 69/60/39 166/59/40 89/60/78
f 69/60/39 167/59/42 166/59/40
f 68/61/43 69/60/39 64/61/44
f 64/61/44 69/60/39 89/60/78
f 67/62/79 174/61/80 63/62/47
f 67/62/79 175/61/81 174/61/80
f 66/58/36 63/62/47 62/58/34
f 66/58/36 67/62/79 63/62/47
f 65/57/77 56/63/49 61/64/50
f 65/57/77 62/58/34 56/63/49
f 95/59/38 61/64/50 60/65/82
f 95/59/38 65/57/77 61/64/50
f 89/60/78 165/65/83 59/66/53
f 89/60/78 166/59/40 165/65/83
f 64/61/44 59/66/53 58/67/84
f 64/61/44 89/60/78 59/66/53
f 63/62/47 173/67/85 57/68/86
f 63/62/47 174/61/80 173/67/85
f 62/58/34 57/68/86 56/63/49
f 62/58/34 63/62/47 57/68/86
f 61/64/50 53/69/57 55/70/58
f 61/64/50 56/63/49 53/69/57
f 60/65/82 55/70/58 96/71/59
f 60/65/82 61/64/50 55/70/58
f 59/66/53 164/71/60 90/72/61
f 59/66/53 165/65/83 164/71/60
f 58/67/84 90/72/61 85/73/62
f 58/67/84 59/66/53 90/72/61
f 57/68/86 172/73/87 54/74/88
f 57/68/86 173/67/85 172/73/87
f 56/63/49 54/74/88 53/69/57
f 56/63/49 57/68/86 54/74/88
f 49/41/3 55/70/58 53/69/57
f 49/41/3 52/40/65 55/70/58
f 96/71/59 55/70/58 91/43/67
f 91/43/67 55/70/58 52/40/65
f 90/72/61 163/43/10 86/45/7
f 90/72/61 164/71/60 163/43/10
f 85/73/62 86/45/7 51/47/11
f 85/73/62 90/72/61 86/45/7
f 54/74/88 171/47/72 50/49/13
f 54/74/88 172/73/87 171/47/72
f 53/69/57 50/49/13 49/41/3
f 53/69/57 54/74/88 50/49/13
f 35/75/89 7/76/90 3/77/91
f 35/75/89 39/78/66 7/76/90
f 6/79/92 39/78/66 38/80/93
f 6/79/92 7/76/90 39/78/66
f 5/81/7 186/80/8 37/82/70
f 5/81/7 185/79/10 186/80/8
f 40/83/11 37/82/70 41/84/94
f 40/83/11 5/81/7 37/82/70
f 4/85/95 179/84/71 36/86/96
f 4/85/95 180/83/72 179/84/71
f 3/77/91 36/86/96 35/75/89
f 3/77/91 4/85/95 36/86/96
f 39/78/66 31/87/17 34/88/18
f 39/78/66 35/75/89 31/87/17
f 38/80/93 34/88/18 46/89/19
f 38/80/93 39/78/66 34/88/18
f 37/82/70 187/89/20 42/90/21
f 37/82/70 186/80/8 187/89/20
f 41/84/94 42/90/21 33/91/22
f 41/84/94 37/82/70 42/90/21
f 36/86/96 178/91/74 32/92/24
f 36/86/96 179/84/71 178/91/74
f 35/75/89 32/92/24 31/87/17
f 35/75/89 36/86/96 32/92/24
f 34/88/18 25/87/25 30/88/26
f 34/88/18 31/87/17 25/87/25
f 46/89/19 30/88/26 29/89/27
f 46/89/19 34/88/18 30/88/26
f 42/90/21 188/89/28 28/90/29
f 42/90/21 187/89/20 188/89/28
f 33/91/22 28/90/29 27/91/30
f 33/91/22 42/90/21 28/90/29
f 32/92/24 177/91/75 26/92/32
f 32/92/24 178/91/74 177/91/75
f 31/87/17 26/92/32 25/87/25
f 31/87/17 32/92/24 26/92/32
f 24/93/33 17/94/34 21/93/35
f 24/93/33 22/94/36 17/94/34
f 47/95/37 21/93/35 20/95/38
f 47/95/37 24/93/33 21/93/35
f 43/96/97 191/95/40 19/96/98
f 43/96/97 192/95/42 191/95/40
f 23/97/79 2/98/80 18/97/47
f 23/97/79 1/98/81 2/98/80
f 22/94/36 18/97/47 17/94/34
f 22/94/36 23/97/79 18/97/47
f 21/93/35 12/99/49 16/100/50
f 21/93/35 17/94/34 12/99/49
f 20/95/38 16/100/50 15/101/51
f 20/95/38 21/93/35 16/100/50
f 19/96/98 190/101/52 44/102/53
f 19/96/98 191/95/40 190/101/52
f 183/98/99 44/102/53 14/103/54
f 183/98/99 19/96/98 44/102/53
f 18/97/47 182/103/85 13/104/86
f 18/97/47 2/98/80 182/103/85
f 17/94/34 13/104/86 12/99/49
f 17/94/34 18/97/47 13/104/86
f 16/100/50 8/105/57 11/106/100
f 16/100/50 12/99/49 8/105/57
f 15/101/51 11/106/100 48/107/101
f 15/101/51 16/100/50 11/106/100
f 44/102/53 189/107/60 45/108/61
f 44/102/53 190/101/52 189/107/60
f 14/103/54 45/108/61 10/109/62
f 14/103/54 44/102/53 45/108/61
f 13/104/86 181/109/87 9/110/88
f 13/104/86 182/103/85 181/109/87
f 12/99/49 9/110/88 8/105/57
f 12/99/49 13/104/86 9/110/88
f 3/77/91 11/106/100 8/105/57
f 3/77/91 7/76/90 11/106/100
f 48/107/101 7/76/90 6/79/92
f 48/107/101 11/106/100 7/76/90
f 45/108/61 185/79/10 5/81/7
f 45/108/61 189/107/60 185/79/10
f 10/109/62 5/81/7 40/83/11
f 10/109/62 45/108/61 5/81/7
f 9/110/88 180/83/72 4/85/95
f 9/110/88 181/109/87 180/83/72
f 8/105/57 4/85/95 3/77/91
f 8/105/57 9/110/88 4/85/95
f 19/96/98 184/98/43 43/96/97
f 183/98/99 184/98/43 19/96/98
