o c_wheels_l
v -31.165297 -12.473313 12.943693
v -31.165297 -12.577786 12.943693
v -31.584297 -12.871531 13.231348
v -31.238274 -12.844199 13.224025
v -31.584297 -12.610625 13.161439
v -32.003296 -12.720500 13.190880
v -31.930321 -12.844199 13.224025
v -31.584297 -12.871531 13.045938
v -31.238274 -12.844199 13.053262
v -31.165297 -12.720500 13.086407
v -31.930321 -12.844199 13.053262
v -31.584297 -12.778825 12.885367
v -31.238274 -12.758817 12.905375
v -31.165297 -12.668263 12.995930
v -32.003296 -12.668263 12.995930
v -31.930321 -12.758817 12.905375
v -31.584297 -12.618255 12.792663
v -31.238274 -12.610932 12.819995
v -31.584297 -12.548347 13.053569
v -32.003296 -12.577786 12.943693
v -31.930321 -12.610932 12.819995
v -31.584297 -12.432845 12.792663
v -31.238274 -12.440169 12.819995
v -31.930321 -12.440169 12.819995
v -31.584297 -12.432845 13.484624
v -31.238274 -12.440169 13.457292
v -31.165297 -12.473313 13.333593
v -31.584297 -12.502755 13.223718
v -32.003296 -12.473313 13.333593
v -31.930321 -12.440169 13.457292
v -31.584297 -12.618255 13.484624
v -31.238274 -12.610932 13.457292
v -31.165297 -12.577786 13.333593
v -31.930321 -12.610932 13.457292
v -31.584297 -12.778825 13.391919
v -31.238274 -12.758817 13.371910
v -31.584297 -12.587829 13.200922
v -32.003296 -12.668263 13.281357
v -31.930321 -12.758817 13.371910
v -31.165297 -12.720500 13.190880
v -31.165297 -12.668263 13.281357
v -31.584297 -12.548347 13.223718
v -31.584297 -12.502755 13.053569
v -31.584297 -12.587829 13.076365
v -31.584297 -12.610625 13.115848
v -32.003296 -12.577786 13.333593
v -32.003296 -12.473313 12.943693
v -32.003296 -12.720500 13.086407
v -31.584297 -12.871531 9.077169
v -31.238274 -12.844198 9.069844
v -31.165297 -12.720499 9.036699
v -31.930321 -12.844198 9.069844
v -31.584297 -12.871531 8.891758
v -31.238274 -12.844198 8.899081
v -31.930321 -12.844198 8.899081
v -31.584297 -12.778826 8.731187
v -31.238274 -12.758816 8.751196
v -31.165297 -12.668262 8.841749
v -31.584297 -12.587830 8.922184
v -32.003296 -12.668262 8.841749
v -31.930321 -12.758818 8.751196
v -31.584297 -12.618256 8.638482
v -31.238274 -12.610931 8.665814
v -31.165297 -12.577787 8.789513
v -31.930321 -12.610931 8.665814
v -31.584297 -12.432844 8.638482
v -31.238274 -12.440168 8.665814
v -31.165297 -12.473312 8.789513
v -31.584297 -12.502754 8.899388
v -31.930321 -12.440168 8.665814
v -31.584297 -12.432844 9.330443
v -31.238274 -12.440168 9.303111
v -31.584297 -12.502754 9.069537
v -31.930321 -12.440168 9.303111
v -31.584297 -12.618256 9.330443
v -31.238274 -12.610931 9.303111
v -31.930321 -12.610931 9.303111
v -31.584297 -12.778826 9.237739
v -31.238274 -12.758816 9.217730
v -31.165297 -12.668262 9.127176
v -32.003296 -12.668262 9.127176
v -31.930321 -12.758816 9.217730
v -31.165297 -12.577787 9.179413
v -31.165297 -12.473312 9.179413
v -31.165297 -12.720499 8.932226
v -31.584297 -12.610624 9.007258
v -31.584297 -12.587830 9.046741
v -31.584297 -12.548346 9.069537
v -31.584297 -12.548346 8.899388
v -31.584297 -12.610624 8.961667
v -32.003296 -12.720501 9.036699
v -32.003296 -12.577787 9.179413
v -32.003296 -12.473312 9.179413
v -32.003296 -12.473314 8.789513
v -32.003296 -12.577787 8.789513
v -32.003296 -12.720499 8.932226
v -31.584295 -12.871531 17.382515
v -31.238274 -12.844197 17.375191
v -31.165297 -12.720500 17.342047
v -31.584295 -12.610625 17.312605
v -31.930319 -12.844199 17.375191
v -31.584295 -12.871531 17.197104
v -31.238274 -12.844197 17.204428
v -31.165297 -12.720500 17.237574
v -31.584295 -12.610625 17.267014
v -31.930319 -12.844199 17.204428
v -31.584295 -12.778825 17.036533
v -31.238274 -12.758817 17.056543
v -31.584295 -12.587829 17.227530
v -32.003296 -12.668263 17.147097
v -31.930319 -12.758817 17.056543
v -31.584295 -12.618255 16.943829
v -31.238274 -12.610930 16.971161
v -31.584295 -12.548347 17.204735
v -32.003296 -12.577786 17.094860
v -31.930319 -12.610932 16.971161
v -31.584295 -12.432845 16.943829
v -31.238274 -12.440167 16.971161
v -31.165297 -12.473313 17.094860
v -32.003296 -12.473313 17.094860
v -31.930319 -12.440167 16.971161
v -31.584295 -12.432845 17.635790
v -31.238274 -12.440167 17.608458
v -31.165297 -12.473313 17.484758
v -31.584295 -12.502755 17.374884
v -31.930319 -12.440169 17.608458
v -31.584295 -12.618255 17.635790
v -31.238274 -12.610932 17.608458
v -31.165297 -12.577786 17.484760
v -31.930319 -12.610932 17.608458
v -31.584295 -12.778825 17.543085
v -31.238274 -12.758817 17.523077
v -31.165297 -12.668263 17.432522
v -32.003296 -12.668263 17.432522
v -31.930319 -12.758817 17.523077
v -31.165297 -12.577786 17.094860
v -31.165297 -12.668263 17.147097
v -31.584295 -12.587829 17.352089
v -31.584295 -12.548345 17.374884
v -31.584295 -12.502755 17.204735
v -32.003296 -12.720500 17.342047
v -32.003296 -12.577786 17.484760
v -32.003296 -12.473313 17.484760
v -32.003296 -12.720500 17.237574
v -32.003296 -12.668263 17.147097
v -32.003296 -12.720500 17.237574
v -32.003296 -12.720500 17.342047
v -32.003296 -12.668263 17.432522
v -32.003296 -12.577786 17.484760
v -32.003296 -12.473313 17.484760
v -32.003296 -12.577786 17.094860
v -32.003296 -12.473313 17.094860
v -31.165297 -12.577786 17.094860
v -31.165297 -12.473313 17.094860
v -31.165297 -12.668263 17.147097
v -31.165297 -12.720500 17.237574
v -31.165297 -12.720500 17.342047
v -31.165297 -12.668263 17.432522
v -31.165297 -12.577786 17.484760
v -31.165297 -12.473313 17.484758
v -32.003296 -12.577787 9.179413
v -32.003296 -12.668262 9.127176
v -32.003296 -12.720501 9.036699
v -32.003296 -12.720499 8.932226
v -32.003296 -12.668262 8.841749
v -32.003296 -12.577787 8.789513
v -32.003296 -12.473314 8.789513
v -32.003296 -12.473312 9.179413
v -31.165297 -12.577787 9.179413
v -31.165297 -12.668262 9.127176
v -31.165297 -12.720499 9.036699
v -31.165297 -12.720499 8.932226
v -31.165297 -12.668262 8.841749
v -31.165297 -12.577787 8.789513
v -31.165297 -12.473312 8.789513
v -31.165297 -12.473312 9.179413
v -31.165297 -12.473313 13.333593
v -31.165297 -12.577786 13.333593
v -31.165297 -12.668263 13.281357
v -31.165297 -12.720500 13.190880
v -31.165297 -12.720500 13.086407
v -31.165297 -12.668263 12.995930
v -31.165297 -12.577786 12.943693
v -31.165297 -12.473313 12.943693
v -32.003296 -12.720500 13.190880
v -32.003296 -12.668263 13.281357
v -32.003296 -12.577786 13.333593
v -32.003296 -12.473313 13.333593
v -32.003296 -12.720500 13.086407
v -32.003296 -12.668263 12.995930
v -32.003296 -12.577786 12.943693
v -32.003296 -12.473313 12.943693
vt 0.000000 0.000000
vt 1.000000 0.000000
vt 1.000000 1.000000
vn 0.000488 -0.708274 0.705893
vn -0.500259 -0.835963 0.225471
vn -0.000519 -0.966338 0.257149
vn -0.498642 -0.612232 0.613575
vn -0.868801 -0.479263 0.124271
vn -0.868831 -0.350078 0.350078
vn 0.000000 0.965911 -0.258797
vn -0.261971 0.685385 -0.679373
vn 0.000000 0.707083 -0.707114
vn -0.261971 0.933256 -0.245674
vn 0.261971 0.931059 -0.253853
vn 0.261971 0.679373 -0.685385
vn 0.498917 -0.836970 0.224769
vn 0.868801 -0.352916 0.347240
vn 0.501572 -0.611347 0.612049
vn 0.868801 -0.479263 0.124271
vn 0.000000 -0.258797 0.965911
vn -0.500259 -0.223640 0.836482
vn -0.868801 -0.124271 0.479263
vn -0.261971 0.253853 -0.931059
vn 0.000000 0.258797 -0.965911
vn 0.261971 0.245674 -0.933256
vn 0.868801 -0.131993 0.477187
vn 0.498703 -0.225227 0.836970
vn -0.003723 0.000000 0.999969
vn -0.533647 0.000000 0.845698
vn -0.861263 0.000000 0.508103
vn -0.253639 0.000000 -0.967284
vn 0.004242 0.000000 -0.999969
vn 0.253639 0.000000 -0.967284
vn 0.861263 0.000000 0.508103
vn 0.525834 0.000000 0.850581
vn -0.525834 0.000000 -0.850581
vn 0.000000 -0.258797 -0.965911
vn -0.501541 -0.223457 -0.835749
vn 0.003723 0.000000 -0.999969
vn -0.861263 0.000000 -0.508103
vn -0.868801 -0.131993 -0.477187
vn 0.000000 0.000000 1.000000
vn -0.261971 0.245674 0.933256
vn -0.001129 0.259896 0.965606
vn -0.253639 0.000000 0.967284
vn 0.253639 0.000000 0.967284
vn 0.261971 0.249763 0.932157
vn 0.533647 0.000000 -0.845698
vn 0.868801 -0.124271 -0.479263
vn 0.500259 -0.223640 -0.836482
vn 0.861263 0.000000 -0.508103
vn 0.000488 -0.708243 -0.705924
vn -0.500259 -0.612568 -0.611927
vn -0.868801 -0.352886 -0.347270
vn -0.261971 0.679373 0.685385
vn 0.000000 0.707083 0.707083
vn 0.261971 0.682516 0.682272
vn 0.868801 -0.347362 -0.352794
vn 0.498642 -0.612232 -0.613575
vn 0.000000 -0.965911 -0.258797
vn -0.501846 -0.835688 -0.222938
vn -0.868831 -0.478225 -0.128117
vn -0.261971 0.931059 0.253853
vn -0.001099 0.966186 0.257759
vn 0.261971 0.933256 0.245674
vn 0.500320 -0.836177 -0.224555
vn 0.868801 -0.478225 -0.128117
vn 0.000519 -0.705985 0.708213
vn -0.499924 -0.836512 0.224189
vn -0.500259 -0.611927 0.612568
vn -0.868831 -0.478225 0.128117
vn -0.868801 -0.347240 0.352886
vn 0.000000 0.707083 -0.707083
vn 0.498642 -0.837489 0.223457
vn 0.868801 -0.350200 0.349956
vn -0.868801 -0.124271 0.479232
vn 0.500259 -0.224555 0.836238
vn -0.525834 0.000000 -0.850551
vn -0.500259 -0.224525 -0.836238
vn -0.001160 0.259896 0.965606
vn 0.000000 -0.707083 -0.707083
vn -0.868831 -0.352886 -0.347240
vn 0.261971 0.685385 0.679373
vn 0.868801 -0.347240 -0.352886
vn 0.500259 -0.611927 -0.612568
vn 0.000000 0.965911 0.258797
vn 0.868801 -0.477187 -0.131993
vn 0.500259 -0.836238 -0.224555
vn 0.000000 -0.707083 0.707083
vn -0.500259 -0.836238 0.224555
vn 0.000000 -0.965911 0.258797
vn -0.868801 -0.477187 0.131993
vn -0.261971 0.685385 -0.679403
vn 0.261971 0.679403 -0.685385
vn 0.500259 -0.836482 0.223640
vn 0.868801 -0.352886 0.347270
vn 0.500259 -0.612568 0.611927
vn -0.500259 -0.224555 -0.836238
vn -0.004242 0.000000 0.999969
vn 0.000000 0.258797 0.965911
vn -0.868801 -0.352886 -0.347240
vn -0.261971 0.679403 0.685385
vn 0.261971 0.253853 0.931059
vn 0.261971 0.685385 0.679403
vn -0.500259 -0.836482 -0.223640
vn -0.868801 -0.479232 -0.124271
usemtl Material
s 1
f 131/1/1 101/2/2 97/3/3
f 131/1/1 135/2/4 101/3/2
f 141/1/5 101/2/2 134/3/6
f 134/1/6 101/2/2 135/3/4
f 100/1/7 148/2/8 138/3/9
f 100/1/7 147/2/10 148/3/8
f 99/1/11 138/2/9 133/3/12
f 99/1/11 100/2/7 138/3/9
f 98/1/13 158/2/14 132/3/15
f 98/1/13 157/2/16 158/3/14
f 97/1/3 98/2/13 131/3/1
f 131/1/1 98/2/13 132/3/15
f 135/1/4 127/2/17 130/3/18
f 135/1/4 131/2/1 127/3/17
f 134/1/6 130/2/18 142/3/19
f 134/1/6 135/2/4 130/3/18
f 138/1/9 149/2/20 139/3/21
f 138/1/9 148/2/8 149/3/20
f 133/1/12 139/2/21 129/3/22
f 133/1/12 138/2/9 139/3/21
f 132/1/15 159/2/23 128/3/24
f 132/1/15 158/2/14 159/3/23
f 131/1/1 128/2/24 127/3/17
f 131/1/1 132/2/15 128/3/24
f 130/1/18 122/2/25 126/3/26
f 130/1/18 127/2/17 122/3/25
f 142/1/19 126/2/26 143/3/27
f 142/1/19 130/2/18 126/3/26
f 139/1/21 150/2/28 125/3/29
f 139/1/21 149/2/20 150/3/28
f 129/1/22 125/2/29 124/3/30
f 129/1/22 139/2/21 125/3/29
f 128/1/24 160/2/31 123/3/32
f 128/1/24 159/2/23 160/3/31
f 127/1/17 123/2/32 122/3/25
f 127/1/17 128/2/24 123/3/32
f 121/1/33 112/2/34 116/3/35
f 121/1/33 117/2/36 112/3/34
f 120/1/37 116/2/35 115/3/38
f 120/1/37 121/2/33 116/3/35
f 140/1/39 151/2/40 114/3/41
f 140/1/39 152/2/42 151/3/40
f 119/1/43 140/2/39 136/3/44
f 136/1/44 140/2/39 114/3/41
f 118/1/45 153/2/46 113/3/47
f 118/1/45 154/2/48 153/3/46
f 117/1/36 113/2/47 112/3/34
f 117/1/36 118/2/45 113/3/47
f 116/1/35 107/2/49 111/3/50
f 116/1/35 112/2/34 107/3/49
f 115/1/38 111/2/50 110/3/51
f 115/1/38 116/2/35 111/3/50
f 114/1/41 145/2/52 109/3/53
f 114/1/41 151/2/40 145/3/52
f 136/1/44 109/2/53 137/3/54
f 136/1/44 114/2/41 109/3/53
f 113/1/47 155/2/55 108/3/56
f 113/1/47 153/2/46 155/3/55
f 112/1/34 108/2/56 107/3/49
f 112/1/34 113/2/47 108/3/56
f 111/1/50 102/2/57 106/3/58
f 111/1/50 107/2/49 102/3/57
f 110/1/51 106/2/58 144/3/59
f 110/1/51 111/2/50 106/3/58
f 109/1/53 146/2/60 105/3/61
f 109/1/53 145/2/52 146/3/60
f 137/1/54 105/2/61 104/3/62
f 137/1/54 109/2/53 105/3/61
f 108/1/56 155/2/55 103/3/63
f 103/1/63 155/2/55 156/3/64
f 107/1/49 103/2/63 102/3/57
f 107/1/49 108/2/56 103/3/63
f 97/1/3 106/2/58 102/3/57
f 97/1/3 101/2/2 106/3/58
f 144/1/59 106/2/58 141/3/5
f 141/1/5 106/2/58 101/3/2
f 105/1/61 147/2/10 100/3/7
f 105/1/61 146/2/60 147/3/10
f 104/1/62 100/2/7 99/3/11
f 104/1/62 105/2/61 100/3/7
f 103/1/63 157/2/16 98/3/13
f 103/1/63 156/2/64 157/3/16
f 102/1/57 98/2/13 97/3/3
f 102/1/57 103/2/63 98/3/13
f 78/1/65 52/2/66 49/3/3
f 78/1/65 82/2/67 52/3/66
f 91/1/68 82/2/67 81/3/69
f 91/1/68 52/2/66 82/3/67
f 86/1/7 162/2/8 87/3/70
f 86/1/7 163/2/10 162/3/8
f 51/1/11 87/2/70 80/3/12
f 51/1/11 86/2/7 87/3/70
f 50/1/71 170/2/72 79/3/15
f 50/1/71 171/2/16 170/3/72
f 49/1/3 50/2/71 78/3/65
f 78/1/65 50/2/71 79/3/15
f 82/1/67 75/2/17 77/3/18
f 82/1/67 78/2/65 75/3/17
f 81/1/69 77/2/18 92/3/73
f 81/1/69 82/2/67 77/3/18
f 87/1/70 161/2/20 88/3/21
f 87/1/70 162/2/8 161/3/20
f 80/1/12 88/2/21 83/3/22
f 80/1/12 87/2/70 88/3/21
f 79/1/15 169/2/23 76/3/74
f 79/1/15 170/2/72 169/3/23
f 78/1/65 76/2/74 75/3/17
f 78/1/65 79/2/15 76/3/74
f 77/1/18 71/2/25 74/3/26
f 77/1/18 75/2/17 71/3/25
f 92/1/73 74/2/26 93/3/27
f 92/1/73 77/2/18 74/3/26
f 88/1/21 168/2/28 73/3/29
f 88/1/21 161/2/20 168/3/28
f 83/1/22 73/2/29 84/3/30
f 83/1/22 88/2/21 73/3/29
f 76/1/74 176/2/31 72/3/32
f 76/1/74 169/2/23 176/3/31
f 75/1/17 72/2/32 71/3/25
f 75/1/17 76/2/74 72/3/32
f 70/1/75 62/2/34 65/3/76
f 70/1/75 66/2/36 62/3/34
f 94/1/37 65/2/76 95/3/38
f 94/1/37 70/2/75 65/3/76
f 69/1/39 166/2/40 89/3/77
f 69/1/39 167/2/42 166/3/40
f 68/1/43 69/2/39 64/3/44
f 64/1/44 69/2/39 89/3/77
f 67/1/45 174/2/46 63/3/47
f 67/1/45 175/2/48 174/3/46
f 66/1/36 63/2/47 62/3/34
f 66/1/36 67/2/45 63/3/47
f 65/1/76 56/2/78 61/3/50
f 65/1/76 62/2/34 56/3/78
f 95/1/38 61/2/50 60/3/79
f 95/1/38 65/2/76 61/3/50
f 89/1/77 165/2/52 59/3/53
f 89/1/77 166/2/40 165/3/52
f 64/1/44 59/2/53 58/3/80
f 64/1/44 89/2/77 59/3/53
f 63/1/47 173/2/81 57/3/82
f 63/1/47 174/2/46 173/3/81
f 62/1/34 57/2/82 56/3/78
f 62/1/34 63/2/47 57/3/82
f 61/1/50 53/2/57 55/3/58
f 61/1/50 56/2/78 53/3/57
f 60/1/79 55/2/58 96/3/59
f 60/1/79 61/2/50 55/3/58
f 59/1/53 164/2/60 90/3/83
f 59/1/53 165/2/52 164/3/60
f 58/1/80 90/2/83 85/3/62
f 58/1/80 59/2/53 90/3/83
f 57/1/82 172/2/84 54/3/85
f 57/1/82 173/2/81 172/3/84
f 56/1/78 54/2/85 53/3/57
f 56/1/78 57/2/82 54/3/85
f 49/1/3 55/2/58 53/3/57
f 49/1/3 52/2/66 55/3/58
f 96/1/59 55/2/58 91/3/68
f 91/1/68 55/2/58 52/3/66
f 90/1/83 163/2/10 86/3/7
f 90/1/83 164/2/60 163/3/10
f 85/1/62 86/2/7 51/3/11
f 85/1/62 90/2/83 86/3/7
f 54/1/85 171/2/16 50/3/71
f 54/1/85 172/2/84 171/3/16
f 53/1/57 50/2/71 49/3/3
f 53/1/57 54/2/85 50/3/71
f 35/1/86 7/2/87 3/3/88
f 35/1/86 39/2/67 7/3/87
f 6/1/89 39/2/67 38/3/69
f 6/1/89 7/2/87 39/3/67
f 5/1/7 186/2/90 37/3/70
f 5/1/7 185/2/10 186/3/90
f 40/1/11 37/2/70 41/3/91
f 40/1/11 5/2/7 37/3/70
f 4/1/92 179/2/93 36/3/94
f 4/1/92 180/2/16 179/3/93
f 3/1/88 36/2/94 35/3/86
f 3/1/88 4/2/92 36/3/94
f 39/1/67 31/2/17 34/3/18
f 39/1/67 35/2/86 31/3/17
f 38/1/69 34/2/18 46/3/73
f 38/1/69 39/2/67 34/3/18
f 37/1/70 187/2/20 42/3/21
f 37/1/70 186/2/90 187/3/20
f 41/1/91 42/2/21 33/3/22
f 41/1/91 37/2/70 42/3/21
f 36/1/94 178/2/23 32/3/74
f 36/1/94 179/2/93 178/3/23
f 35/1/86 32/2/74 31/3/17
f 35/1/86 36/2/94 32/3/74
f 34/1/18 25/2/25 30/3/26
f 34/1/18 31/2/17 25/3/25
f 46/1/73 30/2/26 29/3/27
f 46/1/73 34/2/18 30/3/26
f 42/1/21 188/2/28 28/3/29
f 42/1/21 187/2/20 188/3/28
f 33/1/22 28/2/29 27/3/30
f 33/1/22 42/2/21 28/3/29
f 32/1/74 177/2/31 26/3/32
f 32/1/74 178/2/23 177/3/31
f 31/1/17 26/2/32 25/3/25
f 31/1/17 32/2/74 26/3/32
f 24/1/75 17/2/34 21/3/95
f 24/1/75 22/2/36 17/3/34
f 47/1/37 21/2/95 20/3/38
f 47/1/37 24/2/75 21/3/95
f 43/1/96 191/2/40 19/3/97
f 43/1/96 192/2/42 191/3/40
f 23/1/45 2/2/46 18/3/47
f 23/1/45 1/2/48 2/3/46
f 22/1/36 18/2/47 17/3/34
f 22/1/36 23/2/45 18/3/47
f 21/1/95 12/2/78 16/3/50
f 21/1/95 17/2/34 12/3/78
f 20/1/38 16/2/50 15/3/98
f 20/1/38 21/2/95 16/3/50
f 19/1/97 190/2/99 44/3/53
f 19/1/97 191/2/40 190/3/99
f 183/1/100 44/2/53 14/3/101
f 183/1/100 19/2/97 44/3/53
f 18/1/47 182/2/81 13/3/82
f 18/1/47 2/2/46 182/3/81
f 17/1/34 13/2/82 12/3/78
f 17/1/34 18/2/47 13/3/82
f 16/1/50 8/2/57 11/3/102
f 16/1/50 12/2/78 8/3/57
f 15/1/98 11/2/102 48/3/103
f 15/1/98 16/2/50 11/3/102
f 44/1/53 189/2/60 45/3/83
f 44/1/53 190/2/99 189/3/60
f 14/1/101 45/2/83 10/3/62
f 14/1/101 44/2/53 45/3/83
f 13/1/82 181/2/84 9/3/85
f 13/1/82 182/2/81 181/3/84
f 12/1/78 9/2/85 8/3/57
f 12/1/78 13/2/82 9/3/85
f 3/1/88 11/2/102 8/3/57
f 3/1/88 7/2/87 11/3/102
f 48/1/103 7/2/87 6/3/89
f 48/1/103 11/2/102 7/3/87
f 45/1/83 185/2/10 5/3/7
f 45/1/83 189/2/60 185/3/10
f 10/1/62 5/2/7 40/3/11
f 10/1/62 45/2/83 5/3/7
f 9/1/85 180/2/16 4/3/92
f 9/1/85 181/2/84 180/3/16
f 8/1/57 4/2/92 3/3/88
f 8/1/57 9/2/85 4/3/92
f 19/1/97 184/2/43 43/3/96
f 183/1/100 184/2/43 19/3/97
