o c_win
v -0.370411 3.136561 -17.477022
v 0.000000 3.178406 -17.643953
v -0.370411 2.607840 -18.944834
v 0.000000 2.632774 -19.654768
v 0.370417 2.607840 -18.944834
v 0.370411 3.136561 -17.477022
v -0.964514 2.834900 -15.708570
v 0.964514 2.834900 -15.708570
vt 0.000000 0.000000
vt 1.000000 0.000000
vt 1.000000 1.000000
vn -0.564562 0.783685 -0.258889
vn -0.716605 0.656178 -0.236335
vn -0.829707 0.525132 -0.189154
vn 0.716605 0.656178 -0.236335
vn 0.564562 0.783685 -0.258889
vn 0.829707 0.525132 -0.189154
vn 0.000000 0.958647 -0.284585
vn 0.000000 0.965087 -0.261849
usemtl Material
s 1
f 1/1/1 3/2/2 7/3/3
f 5/1/4 6/2/5 8/3/6
f 6/1/5 5/2/4 4/3/7
f 4/1/7 2/2/8 6/3/5
f 1/1/1 2/2/8 4/3/7
f 3/1/2 1/2/1 4/3/7
