o win
v -0.370411 3.102384 -17.602551
v -0.370411 3.136562 -17.477022
v 0.000000 3.178407 -17.643953
v 0.000000 3.146580 -17.779688
v -0.770291 2.853722 -16.245937
v -0.370411 2.659178 -18.908974
v 0.000000 2.671947 -19.488266
v -0.370411 2.607841 -18.944834
v 0.000000 2.632775 -19.654768
v -0.964514 2.834901 -15.708570
v 0.370417 2.659178 -18.908974
v 0.370411 3.102384 -17.602551
v 0.770291 2.853722 -16.245937
v 0.964514 2.834901 -15.708570
v 0.370417 2.607841 -18.944834
v 0.370411 3.136562 -17.477022
v -0.964514 2.834901 -15.708570
v 0.964514 2.834901 -15.708570
vt 0.000000 0.000000
vt 1.000000 0.000000
vt 1.000000 1.000000
vn -0.570635 0.786035 -0.237678
vn -0.808496 0.529191 -0.257424
vn 0.000000 0.972777 -0.231666
vn 0.000000 0.964538 -0.263863
vn -0.867000 0.446059 -0.222053
vn -0.924161 -0.173772 -0.340098
vn -0.716422 0.643941 -0.268380
vn 0.000000 0.917692 -0.397259
vn -0.776299 0.507645 -0.373638
vn 0.000000 0.973418 -0.229011
vn -0.801477 0.570238 -0.180090
vn 0.716422 0.643941 -0.268380
vn 0.570635 0.786035 -0.237678
vn 0.867000 0.446059 -0.222053
vn 0.801477 0.570238 -0.180090
vn 0.776299 0.507645 -0.373638
vn 0.924161 -0.173772 -0.340098
vn 0.808496 0.529191 -0.257424
s 1
f 1/1/1 2/2/2 3/3/3
f 1/1/1 3/2/3 4/3/4
f 1/1/1 5/2/5 2/3/2
f 10/1/6 2/2/2 5/3/5
f 6/1/7 7/2/8 8/3/9
f 7/1/8 9/2/10 8/3/9
f 8/1/9 17/2/11 6/3/7
f 5/1/5 6/2/7 17/3/11
f 4/1/4 7/2/8 6/3/7
f 1/1/1 4/2/4 6/3/7
f 1/1/1 6/2/7 5/3/5
f 11/1/12 12/2/13 13/3/14
f 4/1/4 12/2/13 11/3/12
f 7/1/8 4/2/4 11/3/12
f 11/1/12 13/2/14 14/3/15
f 15/1/16 11/2/12 14/3/15
f 9/1/10 7/2/8 15/3/16
f 7/1/8 11/2/12 15/3/16
f 18/1/17 13/2/14 16/3/18
f 13/1/14 12/2/13 16/3/18
f 3/1/3 12/2/13 4/3/4
f 16/1/18 12/2/13 3/3/3
