o t_e_inside
v -1.233192 11.977697 28.445787
v -1.334797 11.466890 28.445787
v -1.233189 10.956084 28.445787
v -0.943839 10.523044 28.445787
v -0.510799 10.233696 28.445787
v 0.000008 10.132092 28.445787
v 0.510813 10.233699 28.445787
v 0.943853 10.523048 28.445787
v 1.233202 10.956089 28.445787
v 1.334804 11.466896 28.445787
v 1.233199 11.977702 28.445787
v 0.943850 12.410742 28.445787
v 0.510807 12.700089 28.445787
v 0.000002 12.801693 28.445787
v -0.510806 12.700086 28.445787
v -0.943842 12.410738 28.445787
v -0.510806 12.700086 26.906492
v 0.000002 12.801693 26.906492
v 0.510807 12.700089 26.906492
v 0.943850 12.410742 26.906492
v 1.233199 11.977701 26.906492
v 1.334804 11.466895 26.906492
v 1.233202 10.956089 26.906492
v 0.943853 10.523046 26.906492
v 0.510813 10.233699 26.906492
v 0.000008 10.132092 26.906492
v -0.510799 10.233696 26.906492
v -0.943839 10.523044 26.906492
v -1.233189 10.956084 26.906492
v -1.334797 11.466890 26.906492
v -1.233192 11.977696 26.906492
v -0.943842 12.410738 26.906492
vt 0.844826 0.891733
vt 0.844826 0.833266
vt 0.837289 0.833266
vt 0.837289 0.891733
vt 0.830209 0.833266
vt 0.830209 0.891733
vt 0.822901 0.833266
vt 0.822901 0.891733
vt 0.815593 0.833266
vt 0.815593 0.891733
vt 0.808284 0.833266
vt 0.808284 0.891733
vt 0.800976 0.833266
vt 0.800976 0.891733
vt 0.852134 0.833266
vt 0.852134 0.891733
vt 0.859443 0.833266
vt 0.859443 0.891733
vn 0.707083 -0.707083 0.000000
vn 0.382672 -0.923856 0.000000
vn 0.000000 -1.000000 0.000000
vn -0.382672 -0.923856 0.000000
vn -0.707083 -0.707083 0.000000
vn -0.923856 -0.382672 0.000000
vn -1.000000 0.000000 0.000000
vn -0.923856 0.382672 0.000000
vn -0.707083 0.707083 0.000000
vn -0.382672 0.923856 0.000000
vn 0.000000 1.000000 0.000000
vn 0.382672 0.923856 0.000000
vn 0.707083 0.707083 0.000000
vn 0.923856 0.382672 0.000000
vn 1.000000 0.000000 0.000000
vn 0.923856 -0.382672 0.000000
usemtl Material
s 1
f 16/1/1 32/2/1 17/3/2 15/4/2
f 15/4/2 17/3/2 18/5/3 14/6/3
f 14/6/3 18/5/3 19/7/4 13/8/4
f 13/8/4 19/7/4 20/9/5 12/10/5
f 12/10/5 20/9/5 21/11/6 11/12/6
f 11/12/6 21/11/6 22/13/7 10/14/7
f 10/14/7 22/13/7 23/11/8 9/12/8
f 9/12/8 23/11/8 24/9/9 8/10/9
f 8/10/9 24/9/9 25/7/10 7/8/10
f 7/8/10 25/7/10 26/5/11 6/6/11
f 6/6/11 26/5/11 27/3/12 5/4/12
f 5/4/12 27/3/12 28/2/13 4/1/13
f 4/1/13 28/2/13 29/15/14 3/16/14
f 3/16/14 29/15/14 30/17/15 2/18/15
f 31/15/16 1/16/16 2/18/15 30/17/15
f 1/16/16 31/15/16 32/2/1 16/1/1
