o t_e_inside
v -1.246695 10.956717 26.906490
v 1.335793 11.470124 26.906494
v 1.233601 11.983386 26.906494
v 1.232609 11.976004 28.445789
v 0.942600 12.418550 26.906494
v 0.942268 12.410376 28.445789
v -1.348928 11.470124 26.906490
v -1.344549 11.463655 28.445789
v -0.952181 10.516844 28.445789
v -0.955763 10.521559 26.906490
v -1.242582 10.951216 28.445789
v -0.520260 10.230786 26.906490
v -0.517570 10.226603 28.445789
v -0.006594 10.128675 26.906490
v -0.004950 10.124678 28.445789
v 0.507084 10.230786 26.906490
v 0.501369 10.228259 28.444843
v 1.233601 10.956717 26.906494
v 1.232609 10.951216 28.445789
v 1.334618 11.463655 28.445789
v 0.507084 12.709293 26.906494
v 0.507671 12.700599 28.445789
v -0.006594 12.811429 26.906494
v -0.004950 12.802535 28.445789
v -0.520266 12.709288 26.906490
v -0.956961 12.410031 28.444843
v -0.955763 12.418550 26.906490
v -0.517570 12.700599 28.445789
v 0.942600 10.521559 26.906490
v 0.942268 10.516844 28.445789
v -1.246695 11.983386 26.906490
v -1.242582 11.976004 28.445786
v 1.233601 11.983386 26.906494
v 1.232609 11.976004 28.445789
v 0.942600 12.418550 26.906494
v 0.942268 12.410376 28.445789
v -0.952181 10.516844 28.445789
v -0.955763 10.521559 26.906490
v -0.520260 10.230786 26.906490
v -0.517570 10.226603 28.445789
v -0.006594 10.128675 26.906490
v -0.004950 10.124678 28.445789
v 0.507084 10.230786 26.906490
v 0.501369 10.228259 28.444843
v 0.507084 12.709293 26.906494
v 0.507671 12.700599 28.445789
v -0.006594 12.811429 26.906494
v -0.004950 12.802535 28.445789
v -0.956961 12.410031 28.444843
v -0.955763 12.418550 26.906490
v 0.942600 10.521559 26.906490
v 0.942268 10.516844 28.445789
v 1.233601 10.956717 26.906494
v 1.232609 10.951216 28.445789
v -0.520266 12.709288 26.906490
v -0.517570 12.700599 28.445789
v -1.246695 11.983386 26.906490
v -1.242582 11.976004 28.445786
v -1.348928 11.470124 26.906490
v -1.344549 11.463655 28.445789
v 1.335793 11.470124 26.906494
v 1.334618 11.463655 28.445789
v -1.246695 10.956717 26.906490
v -1.242582 10.951216 28.445789
vt 0.999373 0.000000
vt 0.997486 0.999996
vt 0.768687 1.000000
vt 0.770108 0.000000
vt 0.232277 0.999379
vt 0.229274 0.000004
vt 0.499694 0.000000
vt 0.498825 1.000000
vt 0.000176 1.000000
vt 0.000000 0.000004
vt 0.770110 0.000004
vt 0.499694 0.000004
vt 1.000000 0.999384
vt 0.999373 0.000004
vt 0.767290 0.999991
vt 0.771172 0.000003
vt 1.000000 0.000003
vt 0.995520 0.999383
vt 0.229274 0.000007
vt 0.000000 0.000007
vt 0.228961 1.000000
vt 0.497875 0.999996
vt 0.501276 0.000004
vt 0.000000 1.000000
vt 0.228412 1.000000
vt 0.231305 0.000004
vt 0.002479 0.000004
vt 1.000000 0.000006
vt 0.771172 0.000006
vt 0.767290 0.999995
vt 0.995701 0.999999
vt 0.497875 1.000000
vt 0.501276 0.000007
vt 0.231305 0.000000
vt 0.228412 0.999996
vt 0.000000 0.999996
vt 0.002479 0.000000
vn -0.831317 -0.555789 -0.003166
vn 0.194993 0.980802 0.002332
vn -0.197678 0.980265 0.001817
vn -0.195022 -0.980784 -0.005462
vn 0.195028 -0.980780 -0.005876
vn 0.831323 0.555789 -0.000233
vn 0.555320 0.831636 0.001273
vn -0.551454 0.834204 0.000880
vn -0.831319 0.555794 0.001487
vn 0.553409 -0.832895 -0.004926
vn 0.833328 -0.552768 -0.003645
vn 0.980743 -0.195268 -0.003584
vn -0.980758 0.195226 0.000069
vn -0.555284 -0.831649 -0.004511
vn -0.980748 -0.195269 -0.001569
vn 0.980757 0.195225 -0.001946
s off
f 3/1/1 4/2/1 6/3/1 5/4/1
f 12/5/2 13/6/2 15/7/2 14/8/2
f 41/9/3 42/10/3 17/6/3 16/5/3
f 21/3/4 22/11/4 24/12/4 23/8/4
f 47/11/5 48/3/5 28/13/5 25/14/5
f 1/15/6 11/16/6 9/17/6 10/18/6
f 40/19/7 39/20/7 38/9/7 37/21/7
f 43/12/8 44/19/8 30/21/8 29/8/8
f 51/8/9 52/7/9 19/4/9 18/3/9
f 26/22/10 27/23/10 55/16/10 56/15/10
f 50/24/11 49/25/11 32/26/11 31/27/11
f 57/28/12 58/29/12 8/30/12 7/31/12
f 53/32/13 54/30/13 20/29/13 2/33/13
f 35/33/14 36/26/14 46/25/14 45/32/14
f 34/34/15 33/35/15 61/36/15 62/37/15
f 64/35/16 63/34/16 59/23/16 60/22/16
