o t_eng
v -1.774050 9.692842 13.056288
v -0.960109 9.148984 13.056289
v 0.000001 8.958005 13.056289
v 0.960111 9.148984 13.056289
v 1.774052 9.692842 13.056289
v 2.317910 10.506782 13.056289
v 2.508888 11.466892 13.056288
v 2.317912 12.427001 13.056288
v 1.774053 13.240943 13.056287
v 0.960111 13.784801 13.056287
v 0.000001 13.975780 13.056287
v -0.960109 13.784801 13.056287
v -1.774051 13.240943 13.056287
v -2.317909 12.427001 13.056287
v -2.508887 11.466890 13.056287
v -2.317909 10.506782 13.056288
v -0.943846 10.523046 28.445784
v -0.510804 10.233697 28.445784
v 0.000002 10.132092 28.445784
v 0.510808 10.233700 28.445784
v 0.943849 10.523049 28.445784
v 1.233197 10.956089 28.445784
v 1.334801 11.466897 28.445784
v 1.233194 11.977701 28.445784
v 0.943845 12.410741 28.445784
v 0.510804 12.700090 28.445784
v -0.000003 12.801693 28.445784
v -0.510809 12.700088 28.445784
v -0.943849 12.410738 28.445784
v -1.233196 11.977696 28.445784
v -1.334800 11.466890 28.445784
v -1.233193 10.956082 28.445784
v -0.694052 9.791300 28.056377
v -1.282442 10.184449 28.056377
v 0.000003 9.653243 28.056377
v 0.694057 9.791300 28.056377
v 1.282447 10.184452 28.056377
v 1.675596 10.772842 28.056377
v 1.813651 11.466897 28.056377
v 1.675593 12.160951 28.056377
v 1.282443 12.749341 28.056377
v 0.694050 13.142490 28.056377
v -0.000003 13.280544 28.056377
v -0.694057 13.142485 28.056377
v -1.282447 12.749335 28.056377
v -1.675596 12.160941 28.056377
v -1.813649 11.466888 28.056377
v -1.675591 10.772834 28.056377
v -0.694052 9.791300 28.056377
v 0.000003 9.653243 28.056377
v 0.694057 9.791300 28.056377
v 1.282447 10.184452 28.056377
v 1.675596 10.772842 28.056377
v 1.813651 11.466897 28.056377
v 1.675593 12.160951 28.056377
v 1.282443 12.749341 28.056377
v 0.694050 13.142490 28.056377
v -0.000003 13.280544 28.056377
v -0.694057 13.142485 28.056377
v -1.282447 12.749335 28.056377
v -1.675596 12.160941 28.056377
v -1.813649 11.466888 28.056377
v -1.675591 10.772834 28.056377
v -1.282442 10.184449 28.056377
vt 0.999999 0.062670
vt 0.999999 0.031513
vt 0.757811 0.031513
vt 0.757811 0.062670
vt 0.749999 0.031513
vt 0.749999 0.062670
vt 0.999999 0.000357
vt 0.757811 0.000357
vt 0.749999 0.000357
vt 0.999999 0.093826
vt 0.757811 0.093826
vt 0.749999 0.093826
vt 0.999999 0.124982
vt 0.757811 0.124982
vt 0.749999 0.124982
vt 0.999999 0.156139
vt 0.757811 0.156139
vt 0.749999 0.156139
vt 0.999999 0.187295
vt 0.757811 0.187295
vt 0.749999 0.187295
vt 0.999999 0.218451
vt 0.757811 0.218451
vt 0.749999 0.218451
vt 0.999999 0.249608
vt 0.757811 0.249608
vt 0.749999 0.249608
vn -0.706320 -0.706320 0.046297
vn -0.382244 -0.922880 0.046297
vn -0.446120 -0.446120 0.775842
vn -0.241432 -0.582873 0.775842
vn 0.000000 -0.998901 0.046297
vn 0.000000 -0.630909 0.775842
vn 0.382244 -0.922880 0.046297
vn 0.241432 -0.582873 0.775842
vn 0.706320 -0.706320 0.046297
vn 0.446120 -0.446120 0.775842
vn 0.922880 -0.382244 0.046297
vn 0.582873 -0.241432 0.775842
vn 0.998901 0.000000 0.046297
vn 0.630909 0.000000 0.775842
vn 0.922880 0.382244 0.046297
vn 0.582873 0.241432 0.775842
vn 0.706320 0.706320 0.046297
vn 0.446120 0.446120 0.775842
vn 0.382244 0.922880 0.046297
vn 0.241432 0.582873 0.775842
vn 0.000000 0.998901 0.046297
vn 0.000000 0.630909 0.775842
vn -0.382244 0.922880 0.046297
vn -0.241432 0.582873 0.775842
vn -0.706320 0.706320 0.046297
vn -0.446120 0.446120 0.775842
vn -0.922880 0.382244 0.046297
vn -0.582873 0.241432 0.775842
vn -0.998901 0.000000 0.046297
vn -0.630909 0.000000 0.775842
vn -0.922880 -0.382275 0.046297
vn -0.582873 -0.241432 0.775842
usemtl Material
s 1
f 1/1/1 2/2/2 33/3/2 64/4/1
f 34/4/3 49/3/4 18/5/4 17/6/3
f 2/2/2 3/7/5 35/8/5 33/3/2
f 49/3/4 50/8/6 19/9/6 18/5/4
f 3/7/5 4/2/7 36/3/7 35/8/5
f 50/8/6 51/3/8 20/5/8 19/9/6
f 4/2/7 5/1/9 37/4/9 36/3/7
f 51/3/8 52/4/10 21/6/10 20/5/8
f 5/1/9 6/10/11 38/11/11 37/4/9
f 52/4/10 53/11/12 22/12/12 21/6/10
f 6/10/11 7/13/13 39/14/13 38/11/11
f 53/11/12 54/14/14 23/15/14 22/12/12
f 7/13/13 8/16/15 40/17/15 39/14/13
f 54/14/14 55/17/16 24/18/16 23/15/14
f 8/16/15 9/19/17 41/20/17 40/17/15
f 55/17/16 56/20/18 25/21/18 24/18/16
f 9/19/17 10/22/19 42/23/19 41/20/17
f 56/20/18 57/23/20 26/24/20 25/21/18
f 10/22/19 11/25/21 43/26/21 42/23/19
f 57/23/20 58/26/22 27/27/22 26/24/20
f 11/25/21 12/22/23 44/23/23 43/26/21
f 58/26/22 59/23/24 28/24/24 27/27/22
f 12/22/23 13/19/25 45/20/25 44/23/23
f 59/23/24 60/20/26 29/21/26 28/24/24
f 13/19/25 14/16/27 46/17/27 45/20/25
f 60/20/26 61/17/28 30/18/28 29/21/26
f 14/16/27 15/13/29 47/14/29 46/17/27
f 61/17/28 62/14/30 31/15/30 30/18/28
f 15/13/29 16/10/31 63/11/31 47/14/29
f 62/14/30 48/11/32 32/12/32 31/15/30
f 17/6/3 32/12/32 48/11/32 34/4/3
f 16/10/31 1/1/1 64/4/1 63/11/31
