# 3ds Max Wavefront OBJ Exporter v0.97b - (c)2007 guruware
# File Created: 03.01.2013 10:32:11

mtllib DSMinerCollision.mtl

#
# object colision
#

v  -4.7061 -2.9071 5.8478
v  4.4300 -2.9071 5.8478
v  4.4300 -2.9071 6.4249
v  -4.7061 -2.9071 6.4249
v  4.4300 3.4663 6.4249
v  4.4300 3.4663 5.8478
v  -4.7061 3.4663 5.8478
v  -4.7061 3.4663 6.4249
v  -4.3826 -2.7556 29.2617
v  4.1065 -2.7556 29.2617
v  4.1065 2.0132 29.2617
v  -4.3826 2.0132 29.2617
v  13.5578 -2.9071 5.8478
v  13.5578 3.4663 5.8478
v  13.5578 3.4663 6.4249
v  13.5578 -2.9071 6.4249
v  -13.8339 -2.9071 5.8478
v  -13.8339 3.4663 5.8478
v  -13.8339 3.4663 -22.6118
v  -13.8339 -2.9071 -22.6118
v  4.4300 -2.9071 -22.6118
v  -4.7061 -2.9071 -22.6118
v  -4.7061 -2.9071 -22.8300
v  4.4300 -2.9071 -22.8300
v  -4.7061 3.4663 -22.6118
v  4.4300 3.4663 -22.6118
v  4.4300 3.4663 -22.8300
v  -4.7061 3.4663 -22.8300
v  -6.7095 -3.0543 -22.8300
v  -6.7095 -7.1249 -26.6590
v  6.4334 -7.1249 -26.6590
v  6.4334 -3.0543 -22.8300
v  6.4334 4.2211 -22.8300
v  6.4334 4.1320 -28.4951
v  -6.7095 4.1320 -28.4951
v  -6.7095 4.2211 -22.8300
v  -6.7095 -2.3518 -34.1603
v  6.4334 -2.3518 -34.1603
v  6.4334 -7.1249 -34.1603
v  -6.7095 -7.1249 -34.1603
v  -4.7061 -6.9997 6.4249
v  4.4300 -6.9997 6.4249
v  4.4300 -6.9997 25.2664
v  -4.7061 -6.9997 25.2664
v  14.3757 -2.9071 6.4249
v  14.3757 3.4663 6.4249
v  14.3757 3.4663 25.2664
v  14.3757 -2.9071 25.2664
v  2.0734 12.9666 16.3878
v  -2.3495 12.9666 16.3878
v  -2.3495 12.9666 19.3537
v  2.0734 12.9666 19.3537
v  -14.6518 3.4663 6.4249
v  -14.6518 -2.9071 6.4249
v  -14.6518 -2.9071 25.2664
v  -14.6518 3.4663 25.2664
v  9.9001 3.4663 6.4249
v  9.9001 -2.9071 6.4249
v  2.8005 6.6201 20.2363
v  5.7622 6.6201 20.2363
v  5.7622 6.6201 10.8247
v  2.8005 6.6201 10.8247
v  8.4694 -2.7677 29.2617
v  9.1894 1.0826 29.2617
v  5.4698 -9.2092 18.2426
v  6.1654 -9.2092 18.2426
v  6.1654 -9.2092 21.9013
v  5.4698 -9.2092 21.9013
v  -10.1762 -2.9071 6.4249
v  -10.1762 3.4663 6.4249
v  -5.7452 -9.2092 21.9013
v  -6.4408 -9.2092 21.9013
v  -6.4408 -9.2092 18.2426
v  -5.7452 -9.2092 18.2426
v  -9.4655 1.0826 29.2617
v  -8.7455 -2.7677 29.2617
v  -3.0767 6.6201 10.8247
v  -6.0383 6.6201 10.8247
v  -6.0383 6.6201 20.2363
v  -3.0767 6.6201 20.2363
v  9.9001 3.4663 25.2664
v  11.8055 -1.2854 29.2617
v  11.8055 0.5200 29.2617
v  9.9001 -2.9071 25.2664
v  -10.1762 -2.9071 25.2664
v  -12.0816 0.5200 29.2617
v  -12.0816 -1.2854 29.2617
v  -10.1762 3.4663 25.2664
v  9.9001 -6.9997 6.4249
v  9.9001 -6.9997 25.2664
v  4.1065 -5.4184 29.2617
v  5.7549 -5.4184 29.2617
v  -4.3826 -5.4184 29.2617
v  -6.0310 -5.4184 29.2617
v  -10.1762 -6.9997 6.4249
v  -10.1762 -6.9997 25.2664
v  -4.7061 3.4663 7.4249
v  4.4300 3.4663 7.4249
v  -8.8304 3.4663 7.4249
v  -8.8304 3.4663 21.3084
v  -4.7061 3.4663 25.2664
v  -4.7061 3.4663 21.3084
v  4.4300 3.4663 25.2664
v  4.4300 3.4663 21.3084
v  8.5543 3.4663 21.3084
v  8.5543 3.4663 7.4249
v  -4.7061 4.4857 7.4249
v  4.4300 4.4857 7.4249
v  -8.8304 4.4857 7.4249
v  -8.8304 4.4857 21.3084
v  -4.7061 4.4857 21.3084
v  4.4300 4.4857 21.3084
v  8.5543 4.4857 21.3084
v  8.5543 4.4857 7.4249
v  2.8005 7.8701 10.8247
v  2.8005 7.8701 20.2363
v  -3.0767 7.8701 10.8247
v  -3.0767 7.8701 20.2363
v  2.8005 10.7676 12.4063
v  2.8005 10.7676 20.2363
v  -3.0767 10.7676 12.4063
v  -3.0767 10.7676 20.2363
v  6.7425 11.0126 19.3371
v  6.7425 11.0126 15.8750
v  6.7425 11.5020 16.0909
v  6.7425 11.5020 19.3371
v  -3.0767 12.1128 13.0935
v  2.8005 12.1128 13.0935
v  -7.0186 11.0126 15.8750
v  -7.0186 11.0126 19.3371
v  -7.0186 11.5020 19.3371
v  -7.0186 11.5020 16.0909
v  2.8005 12.1128 20.2363
v  -3.0767 12.1128 20.2363
v  2.4579 12.1128 16.1299
v  2.4579 12.1128 19.6116
v  -2.7340 12.1128 16.1299
v  -2.7340 12.1128 19.6116
v  2.8005 10.8568 15.5615
v  2.8005 10.8568 19.6317
v  2.8005 11.6578 15.8152
v  2.8005 11.6578 19.6317
v  -3.0767 10.8568 19.6317
v  -3.0767 10.8568 15.5615
v  -3.0767 11.6578 19.6317
v  -3.0767 11.6578 15.8152
v  5.4511 10.8568 15.5615
v  5.4511 10.8568 19.6317
v  5.4511 11.6578 15.8152
v  5.4511 11.6578 19.6317
v  -5.7272 10.8568 19.6317
v  -5.7272 10.8568 15.5615
v  -5.7272 11.6578 19.6317
v  -5.7272 11.6578 15.8152
v  13.5578 3.4663 -22.6118
v  13.5578 -2.9071 -22.6118
v  7.2136 7.8105 5.8478
v  10.4115 7.8105 5.8478
v  10.4115 7.8105 -22.6118
v  7.2136 7.8105 -22.6118
v  -7.3619 -7.8506 5.8478
v  -10.2649 -7.8506 5.8478
v  -10.2649 -7.8506 -22.6118
v  -7.3619 -7.8506 -22.6118
v  -13.8339 3.4663 6.4249
v  -13.8339 -2.9071 6.4249
v  7.0858 -7.8506 -22.6118
v  9.9888 -7.8506 -22.6118
v  9.9888 -7.8506 5.8478
v  7.0858 -7.8506 5.8478
v  -7.4897 7.8105 -22.6118
v  -10.6876 7.8105 -22.6118
v  -10.6876 7.8105 5.8478
v  -7.4897 7.8105 5.8478
v  -4.7061 2.6915 25.2664
v  4.4300 2.6915 25.2664
v  -10.1762 1.5989 25.2664
v  -12.9917 0.9384 25.2664
v  -12.9917 -1.1811 25.2664
v  -9.4014 -2.9213 25.2664
v  -6.4800 -6.0333 25.2664
v  -4.7061 -6.0333 25.2664
v  4.4300 -6.0333 25.2664
v  6.2039 -6.0333 25.2664
v  9.1253 -2.9213 25.2664
v  12.7156 -1.1811 25.2664
v  12.7156 0.9384 25.2664
v  9.9001 1.5989 25.2664
v  5.4698 -6.9997 18.2426
v  5.4698 -6.9997 21.9013
v  6.1654 -6.9997 18.2426
v  6.1654 -6.9997 21.9013
v  -5.7452 -6.9997 21.9013
v  -5.7452 -6.9997 18.2426
v  -6.4408 -6.9997 21.9013
v  -6.4408 -6.9997 18.2426
# 196 vertices

vn 0.0000 -1.0000 -0.0000
vn 0.0000 1.0000 -0.0000
vn 0.0000 0.0000 1.0000
vn 1.0000 0.0000 -0.0000
vn -1.0000 0.0000 -0.0000
vn 0.0000 -0.6852 0.7284
vn 0.0000 0.9999 -0.0157
vn 0.0000 0.0000 -1.0000
vn 0.0000 0.6580 -0.7531
vn 0.0000 0.8469 -0.5317
vn -0.6073 0.7945 -0.0000
vn 0.0000 0.4489 0.8936
vn 0.6073 0.7945 -0.0000
vn 0.0000 0.4791 -0.8777
vn 0.0000 0.4549 -0.8905
vn 0.9118 0.4106 -0.0000
vn 0.0000 0.2891 -0.9573
vn -0.9118 0.4106 -0.0000
vn 0.0000 0.2891 0.9573
vn 0.0000 0.3020 -0.9533
vn 0.1197 -0.9928 -0.0000
vn 0.2096 0.3343 -0.9189
vn 0.1197 0.9928 -0.0000
vn 0.2224 0.0000 0.9750
vn -0.1197 -0.9928 -0.0000
vn -0.2224 0.0000 0.9750
vn -0.1197 0.9928 -0.0000
vn -0.2096 0.3343 -0.9189
vn -0.8420 0.5395 -0.0000
vn 0.8099 0.5866 -0.0000
vn 0.8809 -0.4733 -0.0000
vn -0.8108 -0.5854 -0.0000
vn 0.8108 -0.5854 -0.0000
vn -0.8809 -0.4733 -0.0000
vn -0.8099 0.5866 -0.0000
vn 0.8420 0.5395 -0.0000
vn 0.0000 0.9859 0.1674
vn -0.1856 0.9680 0.1687
vn -0.2170 0.9635 0.1567
vn -0.9750 0.0000 0.2221
vn -0.4202 -0.9032 0.0879
vn -0.7053 -0.6897 0.1639
vn 0.0000 -0.9884 0.1521
vn 0.7053 -0.6897 0.1639
vn 0.4202 -0.9032 0.0879
vn 0.9750 0.0000 0.2221
vn 0.2170 0.9635 0.1567
vn 0.1856 0.9680 0.1687
# 48 vertex normals

vt 1.0000 0.0200 0.0000
vt 0.0000 0.0200 0.0000
vt 0.0000 0.0000 0.0000
vt 1.0000 0.0000 0.0000
vt 1.0000 1.0000 0.0000
vt 0.0000 1.0000 0.0000
vt 0.0200 0.0000 0.0000
vt 0.0200 1.0000 0.0000
vt 0.9800 0.0000 0.0000
vt 0.9800 1.0000 0.0000
vt 0.5000 0.5000 0.0000
vt 0.4500 0.5500 0.0000
vt 0.5500 0.5500 0.0000
# 13 texture coords

g colision
usemtl wire_087225087
s 2
f 1/1/1 2/2/1 3/3/1 4/4/1 
s 4
f 5/4/2 6/1/2 7/2/2 8/3/2 
s 8
f 9/3/3 10/4/3 11/5/3 12/6/3 
s 16
f 13/7/4 14/8/4 15/6/4 16/3/4 
s 64
f 17/9/5 18/10/5 19/6/5 20/3/5 
s off
f 21/6/1 22/5/1 23/5/1 24/6/1 
f 25/6/2 26/5/2 27/5/2 28/6/2 
f 26/5/4 21/4/4 24/4/4 27/5/4 
f 22/3/5 25/6/5 28/6/5 23/3/5 
f 29/5/6 30/5/6 31/11/6 32/6/6 
f 33/5/7 34/5/7 35/6/7 36/6/7 
f 32/4/4 31/4/4 34/5/4 33/5/4 
f 36/6/5 35/6/5 30/11/5 29/3/5 
f 37/6/8 38/5/8 39/4/8 40/5/8 
f 24/6/3 23/5/3 29/5/3 32/6/3 
f 23/3/3 28/6/3 36/6/3 29/3/3 
f 28/6/3 27/5/3 33/5/3 36/6/3 
f 27/5/3 24/4/3 32/4/3 33/5/3 
f 40/5/1 39/4/1 31/11/1 30/5/1 
f 38/5/9 37/6/9 35/6/9 34/5/9 
f 39/4/4 38/5/4 34/5/4 31/4/4 
f 37/6/5 40/5/5 30/11/5 35/6/5 
f 41/4/1 42/3/1 43/4/1 44/3/1 
f 45/3/4 46/6/4 47/5/4 48/4/4 
f 49/4/2 50/3/2 51/6/2 52/5/2 
f 53/5/5 54/4/5 55/3/5 56/6/5 
f 5/6/8 57/6/8 58/3/8 3/3/8 
f 59/5/2 60/5/2 61/12/2 62/4/2 
f 10/4/3 63/4/3 64/5/3 11/5/3 
f 65/3/1 66/3/1 67/4/1 68/4/1 
f 4/4/8 69/4/8 70/5/8 8/5/8 
f 71/3/1 72/3/1 73/4/1 74/4/1 
f 12/6/3 75/6/3 76/3/3 9/3/3 
f 77/3/2 78/13/2 79/6/2 80/6/2 
f 46/6/8 45/3/8 58/3/8 57/6/8 
f 47/5/2 46/6/2 57/12/2 81/5/2 
f 82/4/3 83/5/3 64/5/3 63/4/3 
f 45/3/1 48/4/1 84/4/1 58/3/1 
f 54/4/8 53/5/8 70/5/8 69/4/8 
f 55/3/1 54/4/1 69/4/1 85/3/1 
f 86/6/3 87/3/3 76/3/3 75/6/3 
f 53/5/2 56/6/2 88/6/2 70/13/2 
f 4/4/8 3/3/8 42/3/8 41/4/8 
f 3/3/8 58/3/8 89/3/8 42/3/8 
f 58/3/4 84/4/4 90/4/4 89/3/4 
f 63/4/3 10/4/3 91/4/3 92/4/3 
f 10/4/3 9/3/3 93/3/3 91/4/3 
f 9/3/3 76/3/3 94/3/3 93/3/3 
f 85/3/5 69/4/5 95/4/5 96/3/5 
f 69/4/8 4/4/8 41/4/8 95/4/8 
f 5/4/2 8/3/2 97/3/2 98/4/2 
f 8/5/2 70/5/2 99/13/2 97/3/2 
f 70/13/2 88/6/2 100/6/2 99/13/2 
f 88/6/2 101/6/2 102/6/2 100/6/2 
f 101/6/2 103/5/2 104/5/2 102/6/2 
f 103/5/2 81/5/2 105/5/2 104/5/2 
f 81/5/2 57/12/2 106/12/2 105/5/2 
f 57/6/2 5/6/2 98/4/2 106/12/2 
f 98/4/8 97/3/8 107/3/8 108/4/8 
f 97/3/8 99/13/8 109/13/8 107/3/8 
f 99/13/5 100/6/5 110/6/5 109/13/5 
f 100/6/3 102/6/3 111/6/3 110/6/3 
f 102/6/3 104/5/3 112/5/3 111/6/3 
f 104/5/3 105/5/3 113/5/3 112/5/3 
f 105/5/4 106/12/4 114/12/4 113/5/4 
f 106/12/8 98/4/8 108/4/8 114/12/8 
f 108/4/10 107/3/10 77/3/10 62/4/10 
f 107/3/10 109/13/10 78/13/10 77/3/10 
f 109/13/11 110/6/11 79/6/11 78/13/11 
f 110/6/12 111/6/12 80/6/12 79/6/12 
f 111/6/12 112/5/12 59/5/12 80/6/12 
f 112/5/12 113/5/12 60/5/12 59/5/12 
f 113/5/13 114/12/13 61/12/13 60/5/13 
f 114/12/10 108/4/10 62/4/10 61/12/10 
f 59/5/4 62/4/4 115/4/4 116/5/4 
f 62/4/8 77/3/8 117/3/8 115/4/8 
f 77/3/5 80/6/5 118/6/5 117/3/5 
f 80/6/3 59/5/3 116/5/3 118/6/3 
f 116/5/4 115/4/4 119/4/4 120/5/4 
f 115/4/14 117/3/14 121/3/14 119/4/14 
f 117/3/5 118/6/5 122/6/5 121/3/5 
f 118/6/3 116/5/3 120/5/3 122/6/3 
f 123/5/4 124/4/4 125/4/4 126/5/4 
f 119/4/15 121/3/15 127/3/15 128/4/15 
f 129/3/5 130/6/5 131/6/5 132/3/5 
f 122/6/3 120/5/3 133/5/3 134/6/3 
f 133/5/2 128/4/2 135/4/2 136/5/2 
f 128/4/2 127/3/2 137/3/2 135/4/2 
f 127/3/2 134/6/2 138/6/2 137/3/2 
f 134/6/2 133/5/2 136/5/2 138/6/2 
f 136/5/16 135/4/16 49/4/16 52/5/16 
f 135/4/17 137/3/17 50/3/17 49/4/17 
f 137/3/18 138/6/18 51/6/18 50/3/18 
f 138/6/19 136/5/19 52/5/19 51/6/19 
f 120/5/4 119/4/4 139/4/4 140/5/4 
f 119/4/4 128/4/4 141/4/4 139/4/4 
f 128/4/4 133/5/4 142/5/4 141/4/4 
f 133/5/4 120/5/4 140/5/4 142/5/4 
f 121/3/5 122/6/5 143/6/5 144/3/5 
f 122/6/5 134/6/5 145/6/5 143/6/5 
f 134/6/5 127/3/5 146/3/5 145/6/5 
f 127/3/5 121/3/5 144/3/5 146/3/5 
f 140/5/1 139/4/1 147/4/1 148/5/1 
f 139/4/20 141/4/20 149/4/20 147/4/20 
f 141/4/2 142/5/2 150/5/2 149/4/2 
f 142/5/3 140/5/3 148/5/3 150/5/3 
f 144/3/1 143/6/1 151/6/1 152/3/1 
f 143/6/3 145/6/3 153/6/3 151/6/3 
f 145/6/2 146/3/2 154/3/2 153/6/2 
f 146/3/20 144/3/20 152/3/20 154/3/20 
f 148/5/21 147/4/21 124/4/21 123/5/21 
f 147/4/22 149/4/22 125/4/22 124/4/22 
f 149/4/23 150/5/23 126/5/23 125/4/23 
f 150/5/24 148/5/24 123/5/24 126/5/24 
f 152/3/25 151/6/25 130/6/25 129/3/25 
f 151/6/26 153/6/26 131/6/26 130/6/26 
f 153/6/27 154/3/27 132/3/27 131/6/27 
f 154/3/28 152/3/28 129/3/28 132/3/28 
f 2/2/1 13/7/1 16/3/1 3/3/1 
f 21/4/8 26/5/8 155/5/8 156/4/8 
f 157/1/2 158/8/2 159/5/2 160/5/2 
f 5/6/3 3/3/3 16/3/3 15/6/3 
f 161/1/1 162/9/1 163/3/1 164/5/1 
f 4/4/3 8/5/3 165/5/3 166/4/3 
f 7/2/2 18/10/2 165/5/2 8/3/2 
f 25/6/8 22/3/8 20/3/8 19/6/8 
s 2
f 22/5/1 21/6/1 2/2/1 1/1/1 
s 4
f 26/5/2 25/6/2 7/2/2 6/1/2 
s 16
f 156/4/4 155/5/4 14/8/4 13/7/4 
s 64
f 166/4/5 165/5/5 18/10/5 17/9/5 
s off
f 167/6/1 168/4/1 169/7/1 170/2/1 
f 5/4/2 15/6/2 14/8/2 6/1/2 
f 4/4/1 166/4/1 17/9/1 1/1/1 
f 171/6/2 172/6/2 173/10/2 174/2/2 
f 26/5/29 6/1/29 157/1/29 160/5/29 
f 6/1/3 14/8/3 158/8/3 157/1/3 
f 14/8/30 155/5/30 159/5/30 158/8/30 
f 155/5/8 26/5/8 160/5/8 159/5/8 
f 22/5/31 1/1/31 161/1/31 164/5/31 
f 1/1/3 17/9/3 162/9/3 161/1/3 
f 17/9/32 20/3/32 163/3/32 162/9/32 
f 20/3/8 22/3/8 164/5/8 163/3/8 
f 21/4/8 156/4/8 168/4/8 167/6/8 
f 156/4/33 13/7/33 169/7/33 168/4/33 
f 13/7/3 2/2/3 170/2/3 169/7/3 
f 2/2/34 21/6/34 167/6/34 170/2/34 
f 25/6/8 19/6/8 172/6/8 171/6/8 
f 19/6/35 18/10/35 173/10/35 172/6/35 
f 18/10/3 7/2/3 174/2/3 173/10/3 
f 7/2/36 25/6/36 171/6/36 174/2/36 
f 103/5/3 101/6/3 175/6/3 176/5/3 
f 101/6/3 88/6/3 177/6/3 175/6/3 
f 88/6/3 56/6/3 178/6/3 177/6/3 
f 56/6/3 55/3/3 179/3/3 178/6/3 
f 179/3/3 55/3/3 85/3/3 180/3/3 
f 85/3/3 96/3/3 181/3/3 180/3/3 
f 96/3/3 44/3/3 182/3/3 181/3/3 
f 44/3/3 43/4/3 183/4/3 182/3/3 
f 43/4/3 90/4/3 184/4/3 183/4/3 
f 90/4/3 84/4/3 185/4/3 184/4/3 
f 84/4/3 48/4/3 186/4/3 185/4/3 
f 48/4/3 47/5/3 187/5/3 186/4/3 
f 47/5/3 81/5/3 188/5/3 187/5/3 
f 81/5/3 103/5/3 176/5/3 188/5/3 
f 176/5/37 175/6/37 12/6/37 11/5/37 
f 175/6/38 177/6/38 75/6/38 12/6/38 
f 177/6/39 178/6/39 86/6/39 75/6/39 
f 178/6/40 179/3/40 87/3/40 86/6/40 
f 179/3/41 180/3/41 76/3/41 87/3/41 
f 180/3/42 181/3/42 94/3/42 76/3/42 
f 181/3/43 182/3/43 93/3/43 94/3/43 
f 182/3/43 183/4/43 91/4/43 93/3/43 
f 183/4/43 184/4/43 92/4/43 91/4/43 
f 184/4/44 185/4/44 63/4/44 92/4/44 
f 185/4/45 186/4/45 82/4/45 63/4/45 
f 186/4/46 187/5/46 83/5/46 82/4/46 
f 187/5/47 188/5/47 64/5/47 83/5/47 
f 188/5/48 176/5/48 11/5/48 64/5/48 
f 43/4/1 42/3/1 189/3/1 190/4/1 
f 42/3/1 89/3/1 191/3/1 189/3/1 
f 89/3/1 90/4/1 192/4/1 191/3/1 
f 90/4/1 43/4/1 190/4/1 192/4/1 
f 41/4/1 44/3/1 193/3/1 194/4/1 
f 44/3/1 96/3/1 195/3/1 193/3/1 
f 96/3/1 95/4/1 196/4/1 195/3/1 
f 95/4/1 41/4/1 194/4/1 196/4/1 
f 190/4/5 189/3/5 65/3/5 68/4/5 
f 189/3/8 191/3/8 66/3/8 65/3/8 
f 191/3/4 192/4/4 67/4/4 66/3/4 
f 192/4/3 190/4/3 68/4/3 67/4/3 
f 194/4/4 193/3/4 71/3/4 74/4/4 
f 193/3/3 195/3/3 72/3/3 71/3/3 
f 195/3/5 196/4/5 73/4/5 72/3/5 
f 196/4/8 194/4/8 74/4/8 73/4/8 
# 194 polygons

