o hands_m
v -0.338724 0.357996 -0.499706
v -0.262141 0.389840 -0.508959
v -0.348892 0.389378 -0.325867
v 0.349085 0.389378 -0.325867
v 0.369964 0.380695 -0.387118
v -0.369772 0.380695 -0.387118
v -0.274766 0.420201 -0.325867
v 0.256965 0.376930 -0.417413
v 0.251622 0.429905 -0.387118
v -0.251430 0.429905 -0.387118
v 0.274958 0.420201 -0.325867
v 0.346173 0.375446 -0.499706
v 0.338916 0.357996 -0.499706
v -0.269398 0.407291 -0.508959
v -0.256773 0.376930 -0.417413
v -0.345980 0.375446 -0.499706
v -0.256773 0.376930 -0.325867
v -0.351779 0.337424 -0.387285
v -0.330899 0.346107 -0.325867
v 0.262334 0.389840 -0.508959
v 0.269590 0.407291 -0.508959
v 0.351971 0.337424 -0.387285
v 0.331091 0.346107 -0.325867
v 0.256965 0.376930 -0.325867
vt 0.111807 0.946689
vt 0.107747 0.946689
vt 0.117800 0.878518
vt 0.114811 0.895468
vt 0.417913 0.947098
vt 0.413853 0.947098
vt 0.407860 0.878928
vt 0.410849 0.895878
vt 0.068959 0.941511
vt 0.064899 0.941511
vt 0.061655 0.878611
vt 0.051588 0.878518
vt 0.073337 0.844248
vt 0.063270 0.844248
vt 0.114811 0.844248
vt 0.104744 0.844248
vt 0.420917 0.844658
vt 0.462390 0.844658
vt 0.474072 0.878928
vt 0.410849 0.844658
vt 0.460761 0.941921
vt 0.464005 0.879021
vt 0.452323 0.844658
vt 0.456701 0.941921
vn 0.688498 -0.323374 -0.649129
vn 0.230201 0.677236 -0.698813
vn 0.627430 0.777947 0.032685
vn 0.793451 -0.605365 -0.062716
vn -0.230201 0.677236 -0.698813
vn -0.688498 -0.323374 -0.649129
vn -0.627430 0.777947 0.032685
vn -0.793451 -0.605365 -0.062716
vn -0.319010 -0.696951 -0.642201
vn -0.717429 0.278603 -0.638478
vn -0.464003 -0.885403 0.026368
vn -0.954283 0.297159 0.031953
vn -0.340831 -0.907743 0.244514
vn -0.884182 0.397870 0.244667
vn 0.937529 -0.337077 0.085971
vn 0.327250 0.906034 0.268227
vn -0.327250 0.906034 0.268227
vn 0.884182 0.397870 0.244667
vn 0.954283 0.297159 0.031953
vn -0.937529 -0.337077 0.085971
vn 0.717429 0.278603 -0.638478
vn 0.464003 -0.885403 0.026368
vn 0.340831 -0.907743 0.244514
vn 0.319010 -0.696951 -0.642201
s 1
f 2/1/1 14/2/2 10/3/3
f 10/3/3 15/4/4 2/1/1
f 21/5/5 20/6/6 9/7/7
f 20/6/6 8/8/8 9/7/7
f 2/1/1 1/9/9 16/10/10 14/2/2
f 16/10/10 1/9/9 18/11/11 6/12/12
f 6/12/12 18/11/11 19/13/13 3/14/14
f 1/9/9 2/1/1 15/4/4 18/11/11
f 18/11/11 15/4/4 17/15/15 19/13/13
f 6/12/12 10/3/3 14/2/2 16/10/10
f 15/4/4 10/3/3 17/15/15
f 17/15/15 10/3/3 7/16/16
f 6/12/12 7/16/16 10/3/3
f 7/16/16 6/12/12 3/14/14
f 11/17/17 4/18/18 5/19/19
f 5/19/19 9/7/7 11/17/17
f 24/20/20 11/17/17 9/7/7
f 8/8/8 24/20/20 9/7/7
f 5/19/19 12/21/21 21/5/5 9/7/7
f 24/20/20 8/8/8 22/22/22 23/23/23
f 8/8/8 20/6/6 13/24/24 22/22/22
f 5/19/19 4/18/18 23/23/23 22/22/22
f 12/21/21 5/19/19 22/22/22 13/24/24
f 20/6/6 21/5/5 12/21/21 13/24/24
