o head
v -0.071800 0.982978 0.196798
v -0.050327 0.979434 0.250180
v -0.000952 1.010697 0.181546
v 0.049883 0.979434 0.250180
v 0.071800 0.982978 0.196798
v -0.103963 0.843357 0.154488
v -0.076624 0.841456 0.278623
v -0.113206 0.921097 0.190623
v -0.068820 0.910666 0.278576
v 0.081796 0.841456 0.278623
v 0.107802 0.843357 0.154488
v 0.113206 0.921097 0.190623
v 0.068376 0.910666 0.278576
v -0.068820 0.782200 0.244765
v -0.077195 0.772474 0.136658
v 0.068376 0.782200 0.244765
v 0.077195 0.772474 0.136658
v -0.065360 0.724000 0.170000
v -0.027073 0.717093 0.214697
v 0.065360 0.724000 0.170000
v 0.027073 0.717093 0.214697
v 0.000000 0.706755 0.134975
v 0.054646 0.735800 0.103609
v 0.069133 0.990748 0.136690
v 0.022318 0.999487 0.080144
v 0.027073 0.746433 0.024841
v -0.027073 0.746433 0.024841
v -0.022318 0.999487 0.080144
v -0.069133 0.990748 0.136690
v -0.054646 0.735800 0.103609
v -0.072775 0.786113 0.076859
v -0.028981 0.817062 0.012074
v 0.072775 0.786113 0.076859
v 0.028981 0.817062 0.012074
v -0.094379 0.859213 0.093657
v 0.098218 0.859213 0.093657
v -0.094649 0.939024 0.107696
v 0.094649 0.939024 0.107696
v -0.043732 0.950415 0.047723
v 0.043732 0.950415 0.047723
v 0.009821 0.867428 0.031092
v 0.011872 0.829858 -0.002064
v -0.006081 0.867428 0.031092
v -0.008033 0.829858 -0.002064
v 0.000000 0.950415 0.047723
v 0.027754 0.908922 0.039408
v -0.025885 0.908922 0.039408
v 0.001870 0.867428 0.031092
v -0.000075 0.978875 0.259938
v 0.002145 0.840642 0.303418
v -0.000075 0.909852 0.303370
v -0.000075 0.781386 0.269559
v 0.000000 0.717093 0.214697
v -0.000075 0.978875 0.259938
v -0.000075 0.909852 0.303370
v 0.002145 0.840642 0.303418
v -0.000075 0.781386 0.269559
v 0.000000 0.717093 0.214697
vt 0.734375 0.062500
vt 0.742188 0.039063
vt 0.507947 0.003277
vt 0.247901 0.040569
vt 0.265625 0.054688
vt 0.819138 0.561750
vt 0.960938 0.351563
vt 0.882813 0.140625
vt 0.937500 0.070313
vt 0.039063 0.351563
vt 0.197238 0.561750
vt 0.140625 0.117188
vt 0.078125 0.062500
vt 0.960938 0.648438
vt 0.742705 0.703002
vt 0.039063 0.648438
vt 0.271544 0.706127
vt 0.740601 0.996723
vt 0.841497 0.996723
vt 0.236116 0.996723
vt 0.158503 0.996723
vt 0.502484 0.996627
vt 0.321875 0.950000
vt 0.281250 0.070313
vt 0.390813 0.062500
vt 0.415625 0.950000
vt 0.593750 0.950000
vt 0.625188 0.062500
vt 0.726563 0.078125
vt 0.687500 0.950000
vt 0.662500 0.803125
vt 0.615816 0.668750
vt 0.328125 0.790625
vt 0.393559 0.668750
vt 0.740258 0.487875
vt 0.265491 0.487875
vt 0.807750 0.200625
vt 0.214000 0.188125
vt 0.625188 0.218812
vt 0.390813 0.218812
vt 0.472145 0.521875
vt 0.468750 0.593750
vt 0.541230 0.521875
vt 0.546875 0.593750
vt 0.507813 0.216812
vt 0.412250 0.358625
vt 0.599750 0.353938
vt 0.508250 0.521875
vt 0.763884 0.003277
vt 0.220593 0.003277
vt 0.003277 0.352536
vt 0.003277 0.003277
vt 0.996723 0.352536
vt 0.996723 0.003277
vt 0.996723 0.647465
vt 0.003277 0.647465
vt 0.003277 0.996723
vt 0.996723 0.996723
vn -0.681204 0.696280 0.226051
vn -0.452925 0.702963 0.548326
vn -0.004212 0.993835 0.110569
vn 0.450484 0.703757 0.549303
vn 0.677755 0.699149 0.227577
vn -0.979614 -0.194891 -0.048616
vn -0.679708 -0.197272 0.706412
vn -0.967009 0.207617 0.147496
vn -0.635395 0.264962 0.725272
vn 0.695914 -0.195227 0.691031
vn 0.980041 -0.194189 -0.042329
vn 0.960784 0.234352 0.148076
vn 0.621540 0.285348 0.729545
vn -0.759056 -0.457137 0.463485
vn -0.949309 -0.308023 -0.062349
vn 0.755364 -0.477309 0.448927
vn 0.943144 -0.328104 -0.052889
vn -0.845393 -0.534104 -0.003327
vn -0.355235 -0.614704 0.704184
vn 0.846431 -0.532426 -0.002289
vn 0.355785 -0.613330 0.705130
vn 0.000000 -0.955443 -0.295144
vn 0.690237 -0.672689 -0.266427
vn 0.619282 0.774102 -0.131260
vn 0.267495 0.831538 -0.486801
vn 0.412305 -0.591510 -0.692862
vn -0.413343 -0.592425 -0.691488
vn -0.267556 0.831233 -0.487289
vn -0.620869 0.772668 -0.132176
vn -0.690237 -0.672689 -0.266427
vn -0.884182 -0.286630 -0.368786
vn -0.466506 -0.122623 -0.875942
vn 0.874844 -0.305368 -0.375927
vn 0.491501 -0.127842 -0.861415
vn -0.823084 0.044832 -0.566118
vn 0.830714 0.030671 -0.555803
vn -0.885189 0.292642 -0.361614
vn 0.880856 0.313273 -0.354839
vn -0.441725 0.342143 -0.829310
vn 0.437178 0.351695 -0.827723
vn 0.468062 0.357860 -0.807978
vn 0.334788 0.070376 -0.939634
vn -0.444929 0.340068 -0.828455
vn -0.292428 0.069063 -0.953764
vn 0.000000 0.378979 -0.925382
vn 0.306528 0.065096 -0.949614
vn -0.305643 0.051912 -0.950713
vn 0.000000 0.196478 -0.980499
vn -0.115177 0.762261 0.636891
vn 0.115757 0.762658 0.636341
vn 0.296121 -0.197028 0.934599
vn 0.302042 0.302408 0.904019
vn -0.298593 -0.201880 0.932768
vn -0.302652 0.292367 0.907132
vn -0.181860 -0.581378 0.793023
vn 0.176183 -0.586169 0.790765
vn 0.000000 -0.649098 0.760674
s 1
f 1/1/1 2/2/2 3/3/3
f 4/4/4 5/5/5 3/3/3
f 6/6/6 7/7/7 8/8/8
f 7/7/7 9/9/9 8/8/8
f 10/10/10 11/11/11 12/12/12
f 10/10/10 12/12/12 13/13/13
f 14/14/14 7/7/7 6/6/6
f 6/6/6 15/15/15 14/14/14
f 11/11/11 10/10/10 16/16/16
f 16/16/16 17/17/17 11/11/11
f 18/18/18 19/19/19 14/14/14
f 14/14/14 15/15/15 18/18/18
f 20/20/20 17/17/17 16/16/16
f 16/16/16 21/21/21 20/20/20
f 22/22/22 23/23/23 20/20/20
f 5/5/5 24/24/24 3/3/3
f 24/24/24 25/25/25 3/3/3
f 22/22/22 26/26/26 23/23/23
f 22/22/22 27/27/27 26/26/26
f 25/25/25 28/28/28 3/3/3
f 28/28/28 29/29/29 3/3/3
f 22/22/22 30/30/30 27/27/27
f 22/22/22 18/18/18 30/30/30
f 29/29/29 1/1/1 3/3/3
f 27/27/27 30/30/30 31/31/31
f 27/27/27 31/31/31 32/32/32
f 23/23/23 26/26/26 33/33/33
f 26/26/26 34/34/34 33/33/33
f 31/31/31 15/15/15 35/35/35
f 15/15/15 6/6/6 35/35/35
f 17/17/17 33/33/33 36/36/36
f 17/17/17 36/36/36 11/11/11
f 30/30/30 18/18/18 15/15/15
f 15/15/15 31/31/31 30/30/30
f 23/23/23 33/33/33 17/17/17
f 17/17/17 20/20/20 23/23/23
f 35/35/35 6/6/6 37/37/37
f 6/6/6 8/8/8 37/37/37
f 11/11/11 36/36/36 38/38/38
f 11/11/11 38/38/38 12/12/12
f 8/8/8 1/1/1 29/29/29
f 29/29/29 37/37/37 8/8/8
f 24/24/24 5/5/5 12/12/12
f 12/12/12 38/38/38 24/24/24
f 39/39/39 37/37/37 28/28/28
f 37/37/37 29/29/29 28/28/28
f 38/38/38 40/40/40 25/25/25
f 38/38/38 25/25/25 24/24/24
f 36/36/36 33/33/33 34/34/34
f 32/32/32 31/31/31 35/35/35
f 41/41/41 36/36/36 34/34/34
f 34/34/34 42/42/42 41/41/41
f 43/43/43 44/44/44 32/32/32
f 32/32/32 35/35/35 43/43/43
f 45/45/45 40/40/40 46/46/46
f 47/47/47 39/39/39 45/45/45
f 46/46/46 41/41/41 48/48/48
f 48/48/48 43/43/43 47/47/47
f 47/47/47 45/45/45 48/48/48
f 46/46/46 48/48/48 45/45/45
f 2/2/2 49/49/49 3/3/3
f 54/50/50 4/4/4 3/3/3
f 56/51/51 10/10/10 13/13/13
f 56/51/51 13/13/13 51/52/52
f 7/7/7 50/53/53 9/9/9
f 50/53/53 55/54/54 9/9/9
f 50/53/53 7/7/7 57/55/55
f 7/7/7 14/14/14 57/55/55
f 10/10/10 56/51/51 52/56/56
f 10/10/10 52/56/56 16/16/16
f 53/57/57 21/21/21 52/56/56
f 21/21/21 16/16/16 52/56/56
f 19/19/19 58/58/57 57/55/55
f 19/19/19 57/55/55 14/14/14
f 44/44/44 43/43/43 41/41/41
f 44/44/44 41/41/41 42/42/42
f 34/34/34 32/32/32 44/44/44
f 34/34/34 44/44/44 42/42/42
f 26/26/26 27/27/27 32/32/32
f 26/26/26 32/32/32 34/34/34
f 5/5/5 4/4/4 13/13/13
f 13/13/13 12/12/12 5/5/5
f 4/4/4 54/50/50 51/52/52
f 51/52/52 13/13/13 4/4/4
f 2/2/2 9/9/9 55/54/54
f 55/54/54 49/49/49 2/2/2
f 1/1/1 8/8/8 9/9/9
f 2/2/2 1/1/1 9/9/9
f 40/40/40 45/45/45 25/25/25
f 28/28/28 25/25/25 45/45/45
f 28/28/28 45/45/45 39/39/39
f 47/47/47 43/43/43 35/35/35
f 36/36/36 41/41/41 46/46/46
f 40/40/40 38/38/38 36/36/36
f 36/36/36 46/46/46 40/40/40
f 39/39/39 47/47/47 35/35/35
f 35/35/35 37/37/37 39/39/39
