o sign_f
v -0.143616 0.534268 -0.016931
v -0.140400 0.579588 0.018611
v -0.068170 0.535628 -0.058358
v -0.058528 0.580243 -0.001339
v -0.143012 0.556982 -0.000796
v -0.111669 0.535628 -0.058357
v -0.019020 0.535025 -0.039968
v -0.066025 0.512738 -0.069098
v -0.065244 0.558046 -0.033218
v -0.015028 0.579922 0.008441
v -0.081342 0.602473 0.029499
v -0.104983 0.580243 -0.001339
v -0.018462 0.512121 -0.050310
v -0.019579 0.557381 -0.012970
v -0.040641 0.602472 0.029534
v -0.112889 0.558046 -0.033218
v -0.108159 0.602478 0.029362
v -0.106492 0.512743 -0.069246
v -0.142078 0.511415 -0.028805
vt 0.742188 0.000000
vt 0.632813 0.250000
vt 1.000000 0.187500
vt 0.507813 0.000000
vt 0.375000 0.250000
vt 0.625000 0.531250
vt 1.000000 0.453125
vt 0.640625 0.750000
vt 1.000000 0.734375
vt 0.382813 0.531250
vt 0.367188 0.750000
vt 0.195313 0.000000
vt 0.000000 0.187500
vt 0.000000 0.453125
vt 0.000000 0.734375
vt 0.640625 1.000000
vt 1.000000 1.000000
vt 0.000000 1.000000
vt 0.367188 1.000000
vn -0.169774 0.789697 -0.589496
vn -0.283090 0.777398 -0.561663
vn -0.365978 0.687521 -0.627155
vn 0.001740 0.810694 -0.585437
vn 0.147191 0.762993 -0.629383
vn -0.386334 0.716330 -0.580981
vn -0.524796 0.658010 -0.539994
vn -0.406171 0.502976 -0.762871
vn -0.716330 0.421857 -0.555742
vn 0.128758 0.769127 -0.625935
vn 0.153691 0.577013 -0.802118
vn 0.074465 0.788293 -0.610736
vn 0.159001 0.712058 -0.683859
vn 0.228645 0.719077 -0.656209
vn 0.293405 0.587725 -0.753960
vn -0.408979 0.314982 -0.856441
vn -0.759484 0.197302 -0.619831
vn 0.331706 0.410657 -0.849269
vn 0.168035 0.431745 -0.886196
s 1
f 17/1/1 12/2/2 2/3/3
f 11/4/4 4/5/5 12/2/2
f 11/4/4 12/2/2 17/1/1
f 12/2/2 16/6/6 5/7/7
f 12/2/2 5/7/7 2/3/3
f 6/8/8 1/9/9 16/6/6
f 16/6/6 1/9/9 5/7/7
f 4/5/5 9/10/10 12/2/2
f 9/10/10 16/6/6 12/2/2
f 9/10/10 3/11/11 16/6/6
f 3/11/11 6/8/8 16/6/6
f 15/12/12 10/13/13 4/5/5
f 15/12/12 4/5/5 11/4/4
f 10/13/13 14/14/14 4/5/5
f 14/14/14 9/10/10 4/5/5
f 14/14/14 7/15/15 9/10/10
f 7/15/15 3/11/11 9/10/10
f 6/8/8 18/16/16 19/17/17
f 19/17/17 1/9/9 6/8/8
f 7/15/15 13/18/18 3/11/11
f 13/18/18 8/19/19 3/11/11
f 8/19/19 18/16/16 6/8/8
f 6/8/8 3/11/11 8/19/19
