o wins
v 0.348980 8.835000 13.186860
v -0.348930 8.835000 13.186860
v 4.265050 8.835000 9.447199
v 4.265050 8.835000 8.773809
v -4.264990 8.835000 8.773809
v -4.264990 7.996810 10.120569
v -4.264990 8.835000 9.447199
v 6.591410 8.835000 2.061990
v 6.591410 7.996810 0.883590
v 6.591410 8.835000 1.556960
v 6.591410 8.834999 -7.885350
v 6.591410 7.996809 -9.232110
v 6.591410 8.834999 -8.558750
v -6.591360 8.835000 -3.508451
v -6.591360 7.996810 -2.161700
v -6.591360 8.835000 -2.835080
v 1.046900 7.996810 13.186860
v -1.046840 7.996810 13.186860
v 0.000030 7.996810 13.186860
v 4.265050 7.996810 8.100450
v 4.265050 7.996810 9.110510
v -4.264990 7.996810 8.100450
v -4.264990 7.996810 9.110510
v 6.591410 7.996810 1.725310
v 6.591410 7.996809 -8.222060
v -6.591360 7.996810 -4.181810
v -6.591360 7.996810 -3.171750
v -1.046840 4.133361 13.186860
v 1.046900 4.133361 13.186860
v 4.265050 4.133360 10.120569
v 4.265050 4.133360 8.100450
v 4.265050 7.996810 10.120569
v -4.264990 4.133360 8.100450
v -4.264990 4.133360 10.120569
v 6.591410 4.133360 2.735370
v 6.591410 4.133360 0.883590
v 6.591410 7.996810 2.735370
v 6.591410 4.133360 -7.212000
v 6.591410 4.133360 -9.232110
v 6.591410 7.996810 -7.212000
v -6.591360 4.133360 -4.181810
v -6.591360 4.133360 -2.161700
vt 0.839844 0.216797
vt 0.781250 0.216797
vt 0.810547 0.216797
vt 0.716797 0.218750
vt 0.652344 0.218750
vt 0.685547 0.218750
vt 0.527344 0.216797
vt 0.589844 0.216797
vt 0.558594 0.216797
vt 0.589844 0.142578
vt 0.527344 0.142578
vt 0.652344 0.142578
vt 0.716797 0.142578
vt 0.839844 0.142578
vt 0.781250 0.142578
vt 0.568359 0.228516
vt 0.548828 0.228516
vt 0.675781 0.230469
vt 0.695313 0.230469
vt 0.826172 0.226563
vt 0.794922 0.226563
vn 0.000000 0.000000 1.000000
vn 0.000000 0.000000 0.000000
vn 1.000000 0.000000 0.000000
vn -1.000000 0.000000 0.000000
s 1
f 17/1/1 18/2/1 19/3/2
f 32/4/3 20/5/3 21/6/2
f 22/4/4 6/5/4 23/6/2
f 37/7/3 9/8/3 24/9/4
f 40/8/3 12/7/3 25/9/4
f 26/7/4 15/8/4 27/9/2
f 42/10/4 15/8/4 26/7/4
f 42/10/4 26/7/4 41/11/4
f 39/11/3 12/7/3 40/8/3
f 39/11/3 40/8/3 38/10/3
f 36/10/3 9/8/3 37/7/3
f 36/10/3 37/7/3 35/11/3
f 34/12/4 6/5/4 22/4/4
f 34/12/4 22/4/4 33/13/4
f 31/12/3 20/5/3 32/4/3
f 31/12/3 32/4/3 30/13/3
f 29/14/1 17/1/1 18/2/1
f 29/14/1 18/2/1 28/15/1
f 16/16/4 14/17/4 26/7/4
f 16/16/4 26/7/4 15/8/4
f 10/16/3 8/17/3 9/8/3
f 8/17/3 37/7/3 9/8/3
f 4/18/3 3/19/3 20/5/3
f 3/19/3 32/4/3 20/5/3
f 13/17/3 11/16/3 40/8/3
f 13/17/3 40/8/3 12/7/3
f 7/18/4 5/19/4 22/4/4
f 7/18/4 22/4/4 6/5/4
f 17/1/1 1/20/1 18/2/1
f 1/20/1 2/21/1 18/2/1
