o flap_r
v -0.003856 0.035083 0.249660
v 0.000908 0.017806 0.251131
v 0.099752 0.045495 0.302439
v 0.094988 0.062772 0.300966
v 0.132846 0.008224 -0.300208
v -0.000907 -0.017806 -0.251131
v 0.003855 -0.035083 -0.249659
v 0.137610 -0.009053 -0.298735
v 0.000908 0.017806 0.251131
v 0.000908 0.017806 0.251131
v -0.003856 0.035083 0.249660
v -0.003856 0.035083 0.249660
v -0.000907 -0.017806 -0.251131
v -0.000907 -0.017806 -0.251131
v 0.003855 -0.035083 -0.249659
v 0.003855 -0.035083 -0.249659
v 0.137610 -0.009053 -0.298735
v 0.137610 -0.009053 -0.298735
v 0.099752 0.045495 0.302439
v 0.099752 0.045495 0.302439
v 0.094988 0.062772 0.300966
v 0.094988 0.062772 0.300966
v 0.132846 0.008224 -0.300208
v 0.132846 0.008224 -0.300208
vt 0.028975 0.886334
vt 0.026376 0.886389
vt 0.026357 0.813573
vt 0.028956 0.813517
vt 0.027509 0.888729
vt 0.012820 0.896448
vt 0.011687 0.894107
vt 0.048770 0.806737
vt 0.043668 0.894045
vt 0.006539 0.806803
vt 0.009089 0.894204
vt 0.003941 0.806899
vt 0.007270 0.804308
vt 0.027088 0.811078
vn -0.964282 -0.263946 0.022200
vn -0.449558 -0.047967 0.891962
vn 0.222901 -0.969409 0.102767
vn -0.222903 0.969409 -0.102768
vn 0.962596 0.268503 0.036255
vn -0.311161 -0.165514 -0.935833
s 1
f 2/1/1 1/2/1 6/3/1 7/4/1
f 12/2/2 10/5/2 20/6/2 4/7/2
f 9/1/3 16/4/3 8/8/3 3/9/3
f 11/2/4 22/7/4 5/10/4 14/3/4
f 19/11/5 18/12/5 23/10/5 21/7/5
f 24/10/6 17/13/6 15/14/6 13/3/6
