o wheel_r_l_1
v 0.377718 -0.126663 0.014769
v 0.143317 -0.044751 0.189943
v -0.080168 0.003675 0.191151
v -0.081517 -0.069448 -0.209728
v 0.329931 -0.160808 -0.224275
v 0.427379 -0.210125 -0.382389
v 0.455860 -0.115219 0.172922
vt 0.225651 0.085703
vt 0.219919 0.042531
vt 0.239434 0.014691
vt 0.237902 0.114479
vt 0.145308 0.042964
vt 0.181155 0.115879
vt 0.140709 0.114913
vn -0.205420 -0.962493 0.177190
vn -0.206763 -0.962310 0.176550
vn -0.207556 -0.962188 0.176244
vn -0.207465 -0.962218 0.176153
vn -0.205359 -0.962493 0.177160
s 1
f 1/1/1 5/2/2 6/3/3 7/4/3
f 4/5/4 5/2/2 2/6/5 3/7/4
f 5/2/2 1/1/1 2/6/5
