o wheel_r_r_1
v -0.431761 -0.200774 -0.382493
v -0.455801 -0.113416 0.174267
v -0.378783 -0.123360 0.015463
v -0.142511 -0.046087 0.190229
v -0.332846 -0.154585 -0.224343
v 0.079521 -0.067247 -0.211206
v 0.081420 0.000249 0.190655
vt 0.239434 0.014691
vt 0.219919 0.042531
vt 0.225651 0.085703
vt 0.237902 0.114479
vt 0.181155 0.115879
vt 0.145308 0.042964
vt 0.140709 0.114913
vn 0.199683 -0.966460 0.161412
vn 0.198889 -0.966552 0.161718
vn 0.197546 -0.966735 0.162358
vn 0.197516 -0.966735 0.162328
vn 0.199591 -0.966491 0.161321
s 1
f 1/1/1 5/2/2 3/3/3 2/4/1
f 4/5/4 5/2/2 6/6/5 7/7/5
f 4/5/4 3/3/3 5/2/2
