o flap_l
v 0.002114 -0.021424 -0.250841
v -0.002302 -0.038772 -0.249133
v -0.002115 0.021425 0.250841
v -0.101672 0.047837 0.301436
v -0.136392 -0.016183 -0.298993
v -0.131975 0.001164 -0.300701
v 0.002302 0.038771 0.249133
v -0.097256 0.065184 0.299727
v -0.002302 -0.038772 -0.249133
v -0.002302 -0.038772 -0.249133
v 0.002114 -0.021424 -0.250841
v 0.002114 -0.021424 -0.250841
v -0.131975 0.001164 -0.300701
v -0.131975 0.001164 -0.300701
v -0.136392 -0.016183 -0.298993
v -0.136392 -0.016183 -0.298993
v -0.101672 0.047837 0.301436
v -0.101672 0.047837 0.301436
v -0.002115 0.021425 0.250841
v -0.097256 0.065184 0.299727
v 0.002302 0.038771 0.249133
v 0.002302 0.038771 0.249133
v -0.002115 0.021425 0.250841
v -0.097256 0.065184 0.299727
vt 0.006539 0.806803
vt 0.026357 0.813573
vt 0.027088 0.811078
vt 0.007270 0.804308
vt 0.026376 0.886389
vt 0.028975 0.886334
vt 0.028956 0.813517
vt 0.012820 0.896448
vt 0.027509 0.888729
vt 0.011687 0.894107
vt 0.048770 0.806737
vt 0.043668 0.894045
vt 0.003941 0.806899
vt 0.009089 0.894204
vn 0.317608 -0.172659 -0.932370
vn 0.969359 -0.243929 0.029005
vn 0.447433 -0.025869 0.893943
vn -0.203516 -0.972152 0.116194
vn 0.203517 0.972152 -0.116192
vn -0.967975 0.249322 0.029389
s 1
f 6/1/1 1/2/1 2/3/1 5/4/1
f 12/2/2 7/5/2 3/6/2 10/7/2
f 4/8/3 23/9/3 22/5/3 8/10/3
f 16/11/4 9/7/4 19/6/4 18/12/4
f 21/5/5 11/2/5 14/1/5 24/10/5
f 13/1/6 15/13/6 17/14/6 20/10/6
