o e_glow
v -0.098728 0.108213 1.945437
v 0.000598 0.161699 1.945267
v 0.000527 -0.146125 1.945264
v 0.100073 0.108167 1.945550
v -0.099866 -0.080718 1.945438
v -0.127568 0.062367 1.945488
v -0.127234 -0.032822 1.945487
v 0.128892 0.062307 1.945633
v 0.128514 -0.032881 1.945631
v 0.101124 -0.080765 1.945552
vt 0.495140 1.034216
vt 0.150253 0.848498
vt 0.050113 0.689308
vt 0.940612 0.689100
vt 0.840545 0.848338
vt 0.494894 -0.034633
vt 0.844194 0.192315
vt 0.939300 0.358581
vt 0.051273 0.358786
vt 0.146302 0.192478
vn -0.000549 0.000031 0.999969
vn 0.001679 0.000031 0.999969
vn 0.001465 0.000000 0.999969
vn -0.002594 0.000000 0.999969
vn -0.002808 0.000031 0.999969
vn -0.000549 0.000000 0.999969
vn -0.002838 0.000000 0.999969
vn 0.001709 0.000000 0.999969
s 1
f 2/1/1 1/2/2 6/3/3
f 8/4/4 4/5/5 2/1/1
f 3/6/6 10/7/7 9/8/7 8/4/4
f 6/3/3 3/6/6 8/4/4 2/1/1
f 7/9/8 5/10/8 3/6/6 6/3/3
