# 3ds Max Wavefront OBJ Exporter v0.94b - (c)2007 guruware
# File Created: 21.10.2010 05:59:19

#
# object glass
#

v  -8.1482 0.8614 -97.0581
v  -8.1482 3.1890 -97.0581
v  -5.3069 3.1890 -97.0581
v  -5.3069 0.8614 -97.0581
v  -8.1482 -4.8213 -97.0581
v  -8.1482 -1.9800 -97.0581
v  -5.3069 -1.9800 -97.0581
v  -5.3069 -4.8213 -97.0581
v  -13.8308 0.8613 -97.0581
v  -13.8308 3.1890 -97.0581
v  -10.9895 3.1890 -97.0581
v  -10.9895 0.8613 -97.0581
v  -16.6721 0.8613 -97.0581
v  -16.6721 3.1890 -97.0581
v  -0.0000 -4.8213 -97.0581
v  -0.0000 -1.9800 -97.0581
v  -0.0000 0.8614 -97.0581
v  -0.0000 3.1890 -97.0581
v  8.1482 0.8614 -97.0581
v  5.3068 0.8614 -97.0581
v  5.3068 3.1890 -97.0581
v  8.1482 3.1890 -97.0581
v  8.1482 -4.8213 -97.0581
v  5.3068 -4.8213 -97.0581
v  5.3068 -1.9800 -97.0581
v  8.1482 -1.9800 -97.0581
v  13.8308 0.8614 -97.0581
v  10.9895 0.8614 -97.0581
v  10.9895 3.1890 -97.0581
v  13.8308 3.1890 -97.0581
v  16.6721 0.8614 -97.0581
v  16.6721 3.1890 -97.0581
# 32 vertices

vn 0.0000 0.0000 -1.0000
# 1 vertex normals

vt 0.4109 0.8063 0.0000
vt 0.4109 0.7777 0.0000
vt 0.4458 0.7777 0.0000
vt 0.4458 0.8063 0.0000
vt 0.4109 0.8763 0.0000
vt 0.4109 0.8413 0.0000
vt 0.4458 0.8413 0.0000
vt 0.4458 0.8763 0.0000
vt 0.3409 0.8063 0.0000
vt 0.3409 0.7777 0.0000
vt 0.3759 0.7777 0.0000
vt 0.3759 0.8063 0.0000
vt 0.3060 0.8063 0.0000
vt 0.3060 0.7777 0.0000
vt 0.5111 0.8763 0.0000
vt 0.5111 0.8413 0.0000
vt 0.5111 0.8063 0.0000
vt 0.5111 0.7777 0.0000
vt 0.6114 0.8063 0.0000
vt 0.5764 0.8063 0.0000
vt 0.5764 0.7777 0.0000
vt 0.6114 0.7777 0.0000
vt 0.6114 0.8763 0.0000
vt 0.5764 0.8763 0.0000
vt 0.5764 0.8413 0.0000
vt 0.6114 0.8413 0.0000
vt 0.6813 0.8063 0.0000
vt 0.6463 0.8063 0.0000
vt 0.6463 0.7777 0.0000
vt 0.6813 0.7777 0.0000
vt 0.7163 0.8063 0.0000
vt 0.7163 0.7777 0.0000
# 32 texture coords

g glass
s off
f 1/1/1 2/2/1 3/3/1 4/4/1 
f 5/5/1 6/6/1 7/7/1 8/8/1 
f 9/9/1 10/10/1 11/11/1 12/12/1 
f 13/13/1 14/14/1 10/10/1 9/9/1 
f 15/15/1 8/8/1 7/7/1 16/16/1 
f 17/17/1 4/4/1 3/3/1 18/18/1 
f 19/19/1 20/20/1 21/21/1 22/22/1 
f 23/23/1 24/24/1 25/25/1 26/26/1 
f 27/27/1 28/28/1 29/29/1 30/30/1 
f 31/31/1 27/27/1 30/30/1 32/32/1 
f 15/15/1 16/16/1 25/25/1 24/24/1 
f 17/17/1 18/18/1 21/21/1 20/20/1 
# 12 polygons

