# 3ds Max Wavefront OBJ Exporter v0.94b - (c)2007 guruware
# File Created: 20.10.2010 03:59:18

#
# object Box01
#

v  -2.0000 2.0148 -9.0768
v  -2.0000 0.2265 -9.0768
v  -2.0000 0.2265 9.0768
v  -2.0000 2.0148 -4.5384
v  -2.0000 2.0148 9.0768
v  -2.0000 2.0148 4.5384
v  -2.0000 2.0148 0.0000
v  1.8752 2.0148 4.5384
v  1.8752 2.0148 9.0768
v  1.8752 0.2265 9.0768
v  1.8752 2.0148 0.0000
v  1.8753 2.0148 -4.5384
v  1.8753 2.0148 -9.0768
v  1.8753 0.2265 -9.0768
v  0.9064 2.0148 -9.0768
v  -0.0624 2.0148 -9.0768
v  -1.0312 2.0148 -9.0768
v  0.9064 2.0148 9.0768
v  -0.0624 2.0148 9.0768
v  -1.0312 2.0148 9.0768
v  0.9064 2.0148 4.5384
v  0.9064 2.0148 0.0000
v  0.6553 13.5965 0.0000
v  -0.0624 13.5965 0.0000
v  -0.0624 13.5965 4.2431
v  0.6553 13.5965 4.2431
v  -0.0624 2.0148 4.5384
v  0.9064 2.0148 -4.5384
v  -0.0624 2.0148 -4.5384
v  -0.0624 13.5965 -4.2431
v  0.6553 13.5965 -4.2431
v  -1.0312 2.0148 -4.5384
v  -1.0312 2.0148 0.0000
v  -0.7801 13.5965 0.0000
v  -0.7801 13.5965 -4.2431
v  -1.0312 2.0148 4.5384
v  -0.7801 13.5965 4.2431
v  0.9064 7.8057 0.0000
v  0.9064 7.8057 4.5384
v  0.9064 7.8057 -4.5384
v  -0.0624 7.8057 -4.5384
v  -1.0312 7.8057 -4.5384
v  -1.0312 7.8057 0.0000
v  -1.0312 7.8057 4.5384
v  -0.0624 7.8057 4.5384
v  0.6553 7.8057 0.0000
v  0.6553 7.8057 4.2431
v  0.6553 7.8057 -4.2431
v  -0.0624 7.8057 -4.2431
v  -0.7801 7.8057 -4.2431
v  -0.7801 7.8057 0.0000
v  -0.7801 7.8057 4.2431
v  -0.0624 7.8057 4.2431
# 53 vertices

vn -1.0000 0.0000 -0.0000
vn 1.0000 -0.0000 0.0000
vn 0.0000 -0.0000 -1.0000
vn -0.0000 -1.0000 0.0000
vn -0.0000 0.0000 1.0000
vn 0.0000 1.0000 0.0000
# 6 vertex normals

vt 1.0000 0.0000 0.0000
vt -0.5441 0.0000 0.0000
vt -0.5441 12.2937 0.0000
vt 1.0000 3.0734 0.0000
vt 1.0000 12.2937 0.0000
vt 1.0000 9.2203 0.0000
vt 1.0000 6.1469 0.0000
vt 0.0000 9.2203 0.0000
vt 0.0000 12.2937 0.0000
vt 1.5441 12.2937 0.0000
vt 0.0000 6.1469 0.0000
vt 0.0000 3.0734 0.0000
vt 0.0000 0.0000 0.0000
vt 1.5441 0.0000 0.0000
vt 0.0000 -2.3151 0.0000
vt 0.0000 -3.0867 0.0000
vt 1.5441 -3.0867 0.0000
vt 0.0000 -1.5434 0.0000
vt 0.0000 -0.7717 0.0000
vt 12.2937 -3.0867 0.0000
vt 12.2937 0.0000 0.0000
vt 1.5441 -2.3151 0.0000
vt 1.5441 -1.5434 0.0000
vt 1.5441 -0.7717 0.0000
vt 3.0734 -3.0867 0.0000
vt 3.0734 -2.3151 0.0000
vt 6.1469 -3.0867 0.0000
vt 6.1469 -2.3151 0.0000
vt 6.1469 -1.5434 0.0000
vt 3.0734 -1.5434 0.0000
vt 9.2203 -3.0867 0.0000
vt 12.2937 -2.3151 0.0000
vt 9.2203 -2.3151 0.0000
vt 12.2937 -1.5434 0.0000
vt 9.2203 -1.5434 0.0000
vt 12.2937 -0.7717 0.0000
vt 9.2203 0.0000 0.0000
vt 9.2203 -0.7717 0.0000
vt 6.1469 0.0000 0.0000
vt 6.1469 -0.7717 0.0000
vt 3.0734 0.0000 0.0000
vt 3.0734 -0.7717 0.0000
# 42 texture coords

g Box01
s 2
f 1/1/1 2/2/1 3/3/1 4/4/1 
f 3/3/1 5/5/1 6/6/1 7/7/1 
f 3/3/1 7/7/1 4/4/1 
s 4
f 8/8/2 9/9/2 10/10/2 11/11/2 
f 12/12/2 11/11/2 10/10/2 13/13/2 
f 13/13/2 10/10/2 14/14/2 
s 8
f 15/15/3 13/16/3 14/17/3 16/18/3 
f 17/19/3 16/18/3 14/17/3 1/13/3 
f 1/13/3 14/17/3 2/14/3 
s 16
f 2/13/4 14/16/4 10/20/4 3/21/4 
s 32
f 3/13/5 10/16/5 9/17/5 18/22/5 
f 3/13/5 18/22/5 19/23/5 20/24/5 
f 3/13/5 20/24/5 5/14/5 
s 64
f 18/15/6 9/16/6 8/25/6 21/26/6 
f 8/25/6 11/27/6 22/28/6 21/26/6 
f 23/28/6 24/29/6 25/30/6 26/26/6 
f 27/30/6 19/18/6 18/15/6 21/26/6 
f 12/31/6 13/20/6 15/32/6 28/33/6 
f 15/32/6 16/34/6 29/35/6 28/33/6 
f 30/35/6 24/29/6 23/28/6 31/33/6 
f 22/28/6 11/27/6 12/31/6 28/33/6 
f 17/36/6 1/21/6 4/37/6 32/38/6 
f 4/37/6 7/39/6 33/40/6 32/38/6 
f 34/40/6 24/29/6 30/35/6 35/38/6 
f 29/35/6 16/34/6 17/36/6 32/38/6 
f 6/41/6 5/13/6 20/19/6 36/42/6 
f 20/19/6 19/18/6 27/30/6 36/42/6 
f 25/30/6 24/29/6 34/40/6 37/42/6 
f 33/40/6 7/39/6 6/41/6 36/42/6 
s off
f 21/26/2 22/28/2 38/28/2 39/26/2 
f 22/28/2 28/33/2 40/33/2 38/28/2 
f 28/33/3 29/35/3 41/35/3 40/33/3 
f 29/35/3 32/38/3 42/38/3 41/35/3 
f 32/38/1 33/40/1 43/40/1 42/38/1 
f 33/40/1 36/42/1 44/42/1 43/40/1 
f 36/42/5 27/30/5 45/30/5 44/42/5 
f 27/30/5 21/26/5 39/26/5 45/30/5 
f 39/26/6 38/28/6 46/28/6 47/26/6 
f 38/28/6 40/33/6 48/33/6 46/28/6 
f 40/33/6 41/35/6 49/35/6 48/33/6 
f 41/35/6 42/38/6 50/38/6 49/35/6 
f 42/38/6 43/40/6 51/40/6 50/38/6 
f 43/40/6 44/42/6 52/42/6 51/40/6 
f 44/42/6 45/30/6 53/30/6 52/42/6 
f 45/30/6 39/26/6 47/26/6 53/30/6 
f 47/26/2 46/28/2 23/28/2 26/26/2 
f 46/28/2 48/33/2 31/33/2 23/28/2 
f 48/33/3 49/35/3 30/35/3 31/33/3 
f 49/35/3 50/38/3 35/38/3 30/35/3 
f 50/38/1 51/40/1 34/40/1 35/38/1 
f 51/40/1 52/42/1 37/42/1 34/40/1 
f 52/42/5 53/30/5 25/30/5 37/42/5 
f 53/30/5 47/26/5 26/26/5 25/30/5 
# 49 polygons - 4 triangles

