# 3ds Max Wavefront OBJ Exporter v0.94b - (c)2007 guruware
# File Created: 21.10.2010 04:15:57

#
# object Object01
#

v  -18.5125 -9.8500 5.7840
v  -18.5125 -9.8500 1.0840
v  -13.8625 -9.8500 1.0840
v  -13.8625 -9.8500 5.7840
v  -18.5125 -9.8500 10.7340
v  -13.8625 -9.8500 10.7340
v  -18.5125 -9.8500 15.6840
v  -13.8625 -9.8500 15.6840
v  -18.5125 -9.8500 20.3840
v  -13.8625 -9.8500 20.3840
v  -23.2625 -9.8500 5.7840
v  -23.2625 -9.8500 1.0840
v  -18.6125 -9.8500 1.0840
v  -18.6125 -9.8500 5.7840
v  -23.2625 -9.8500 10.7340
v  -18.6125 -9.8500 10.7340
v  -23.2625 -9.8500 15.6840
v  -18.6125 -9.8500 15.6840
v  -23.2625 -9.8500 20.3840
v  -18.6125 -9.8500 20.3840
v  18.5125 -9.8500 5.7840
v  13.8625 -9.8500 5.7840
v  13.8625 -9.8500 1.0840
v  18.5125 -9.8500 1.0840
v  18.5125 -9.8500 10.7340
v  13.8625 -9.8500 10.7340
v  18.5125 -9.8500 15.6840
v  13.8625 -9.8500 15.6840
v  18.5125 -9.8500 20.3840
v  13.8625 -9.8500 20.3840
v  23.2625 -9.8500 5.7840
v  18.6125 -9.8500 5.7840
v  18.6125 -9.8500 1.0840
v  23.2625 -9.8500 1.0840
v  23.2625 -9.8500 10.7340
v  18.6125 -9.8500 10.7340
v  23.2625 -9.8500 15.6840
v  18.6125 -9.8500 15.6840
v  23.2625 -9.8500 20.3840
v  18.6125 -9.8500 20.3840
v  -18.5125 -14.8500 1.0840
v  -13.8625 -14.8500 1.0840
v  -13.8625 -14.8500 5.7840
v  -13.8625 -14.8500 10.7340
v  -13.8625 -14.8500 15.6840
v  -13.8625 -14.8500 20.3840
v  -18.5125 -14.8500 20.3840
v  -18.6125 -14.8500 20.3840
v  -23.2625 -14.8500 20.3840
v  -23.2625 -14.8500 15.6840
v  -23.2625 -14.8500 10.7340
v  -23.2625 -14.8500 5.7840
v  -23.2625 -14.8500 1.0840
v  -18.6125 -14.8500 1.0840
v  13.8625 -14.8500 5.7840
v  13.8625 -14.8500 1.0840
v  18.5125 -14.8500 1.0840
v  18.5125 -14.8500 20.3840
v  13.8625 -14.8500 20.3840
v  13.8625 -14.8500 15.6840
v  13.8625 -14.8500 10.7340
v  18.6125 -14.8500 1.0840
v  23.2625 -14.8500 1.0840
v  23.2625 -14.8500 5.7840
v  23.2625 -14.8500 10.7340
v  23.2625 -14.8500 15.6840
v  23.2625 -14.8500 20.3840
v  18.6125 -14.8500 20.3840
# 68 vertices

vn 0.0000 -1.0000 0.0000
vn 0.0000 0.0000 1.0000
vn -1.0000 0.0000 0.0000
vn 0.0000 0.0000 -1.0000
vn 1.0000 0.0000 0.0000
# 5 vertex normals

vt 0.3601 0.6036 0.0000
vt 0.3601 0.5677 0.0000
vt 0.3956 0.5677 0.0000
vt 0.3956 0.6036 0.0000
vt 0.3601 0.6413 0.0000
vt 0.3956 0.6413 0.0000
vt 0.3601 0.6791 0.0000
vt 0.3956 0.6791 0.0000
vt 0.3601 0.7150 0.0000
vt 0.3956 0.7150 0.0000
vt 0.3239 0.6036 0.0000
vt 0.3239 0.5677 0.0000
vt 0.3593 0.5677 0.0000
vt 0.3593 0.6036 0.0000
vt 0.3239 0.6413 0.0000
vt 0.3593 0.6413 0.0000
vt 0.3239 0.6791 0.0000
vt 0.3593 0.6791 0.0000
vt 0.3239 0.7150 0.0000
vt 0.3593 0.7150 0.0000
vt 0.6426 0.6036 0.0000
vt 0.6071 0.6036 0.0000
vt 0.6071 0.5677 0.0000
vt 0.6426 0.5677 0.0000
vt 0.6426 0.6413 0.0000
vt 0.6071 0.6413 0.0000
vt 0.6426 0.6791 0.0000
vt 0.6071 0.6791 0.0000
vt 0.6426 0.7150 0.0000
vt 0.6071 0.7150 0.0000
vt 0.6788 0.6036 0.0000
vt 0.6434 0.6036 0.0000
vt 0.6434 0.5677 0.0000
vt 0.6788 0.5677 0.0000
vt 0.6788 0.6413 0.0000
vt 0.6434 0.6413 0.0000
vt 0.6788 0.6791 0.0000
vt 0.6434 0.6791 0.0000
vt 0.6788 0.7150 0.0000
vt 0.6434 0.7150 0.0000
# 40 texture coords

g Object01
s 16
f 1/1/1 2/2/1 3/3/1 4/4/1 
f 5/5/1 1/1/1 4/4/1 6/6/1 
f 7/7/1 5/5/1 6/6/1 8/8/1 
f 9/9/1 7/7/1 8/8/1 10/10/1 
f 11/11/1 12/12/1 13/13/1 14/14/1 
f 15/15/1 11/11/1 14/14/1 16/16/1 
f 17/17/1 15/15/1 16/16/1 18/18/1 
f 19/19/1 17/17/1 18/18/1 20/20/1 
f 21/21/1 22/22/1 23/23/1 24/24/1 
f 25/25/1 26/26/1 22/22/1 21/21/1 
f 27/27/1 28/28/1 26/26/1 25/25/1 
f 29/29/1 30/30/1 28/28/1 27/27/1 
f 31/31/1 32/32/1 33/33/1 34/34/1 
f 35/35/1 36/36/1 32/32/1 31/31/1 
f 37/37/1 38/38/1 36/36/1 35/35/1 
f 39/39/1 40/40/1 38/38/1 37/37/1 
s off
f 41/2/2 42/3/2 3/3/2 2/2/2 
f 42/3/3 43/4/3 4/4/3 3/3/3 
f 43/4/3 44/6/3 6/6/3 4/4/3 
f 44/6/3 45/8/3 8/8/3 6/6/3 
f 45/8/3 46/10/3 10/10/3 8/8/3 
f 46/10/4 47/9/4 9/9/4 10/10/4 
f 48/20/4 49/19/4 19/19/4 20/20/4 
f 49/19/5 50/17/5 17/17/5 19/19/5 
f 50/17/5 51/15/5 15/15/5 17/17/5 
f 51/15/5 52/11/5 11/11/5 15/15/5 
f 52/11/5 53/12/5 12/12/5 11/11/5 
f 53/12/2 54/13/2 13/13/2 12/12/2 
f 55/22/5 56/23/5 23/23/5 22/22/5 
f 56/23/2 57/24/2 24/24/2 23/23/2 
f 58/29/4 59/30/4 30/30/4 29/29/4 
f 59/30/5 60/28/5 28/28/5 30/30/5 
f 60/28/5 61/26/5 26/26/5 28/28/5 
f 61/26/5 55/22/5 22/22/5 26/26/5 
f 62/33/2 63/34/2 34/34/2 33/33/2 
f 63/34/3 64/31/3 31/31/3 34/34/3 
f 64/31/3 65/35/3 35/35/3 31/31/3 
f 65/35/3 66/37/3 37/37/3 35/35/3 
f 66/37/3 67/39/3 39/39/3 37/37/3 
f 67/39/4 68/40/4 40/40/4 39/39/4 
# 40 polygons

