o back
v 5.684038 2.929989 8.715314
v -5.684048 2.929989 8.715312
v -6.220465 2.774481 8.715312
v -5.684052 -2.920310 8.715313
v 5.684042 -2.920310 8.715314
v 6.226546 -2.781074 8.715314
v 3.609143 1.914670 8.715313
v -1.558524 -0.955528 8.715313
v 1.551780 0.968444 8.715313
v 8.168537 0.238940 8.715314
v 6.220455 2.774481 8.715314
v -8.258641 -0.001209 8.715312
v -5.971997 -1.916391 8.715313
v -3.609153 1.914670 8.715312
v 5.971988 1.914670 8.715314
v 5.971988 -1.916391 8.715314
v -2.408094 -0.001219 8.715313
v 1.558514 -0.955528 8.715313
v -3.609153 -1.916391 8.715313
v -5.971997 1.914670 8.715312
v 2.408085 -0.001219 8.715313
v -1.551790 0.968444 8.715313
v 3.609143 -1.916391 8.715313
v 8.258631 -0.001209 8.715314
v 8.168537 -0.240491 8.715314
v -6.226557 -2.781074 8.715313
v -8.168548 -0.240491 8.715313
v -8.168548 0.238940 8.715312
vt 0.406843 0.350816
vt 0.283281 0.206022
vt 0.716741 0.206022
vt 0.593179 0.350816
vt 0.592776 0.645749
vt 0.716741 0.788299
vt 0.283281 0.788299
vt 0.407246 0.645749
vt 0.143984 0.788299
vt 0.011698 0.533921
vt 0.011698 0.460427
vt 0.143984 0.206022
vt 0.988324 0.460427
vt 0.988324 0.533921
vt 0.856038 0.788299
vt 0.856038 0.206022
vt 0.127789 0.070972
vt 0.160220 0.049628
vt 0.839801 0.049628
vt 0.872232 0.070972
vt 0.839801 0.946441
vt 0.871868 0.922603
vt 0.160221 0.946441
vt 0.128154 0.922603
vt 0.006312 0.497107
vt 0.993709 0.497107
vt 0.643966 0.497106
vt 0.356056 0.497106
vn 0.000000 0.000000 1.000000
s 1
f 8/1/1 19/2/1 23/3/1 18/4/1
f 9/5/1 7/6/1 14/7/1 22/8/1
f 20/9/1 28/10/1 27/11/1 13/12/1
f 25/13/1 10/14/1 15/15/1 16/16/1
f 13/12/1 26/17/1 4/18/1 19/2/1
f 5/19/1 6/20/1 16/16/1 23/3/1
f 5/19/1 23/3/1 19/2/1 4/18/1
f 1/21/1 7/6/1 15/15/1 11/22/1
f 1/21/1 2/23/1 14/7/1 7/6/1
f 20/9/1 14/7/1 2/23/1 3/24/1
f 28/10/1 12/25/1 27/11/1
f 24/26/1 10/14/1 25/13/1
f 21/27/1 18/4/1 23/3/1
f 17/28/1 19/2/1 8/1/1
f 19/2/1 17/28/1 14/7/1
f 7/6/1 21/27/1 23/3/1
f 17/28/1 22/8/1 14/7/1
f 21/27/1 7/6/1 9/5/1
f 27/11/1 26/17/1 13/12/1
f 3/24/1 28/10/1 20/9/1
f 16/16/1 6/20/1 25/13/1
f 15/15/1 10/14/1 11/22/1
