o door
v -8.354717 -1.009463 -10.580843
v -8.354717 -1.009464 -11.645727
v -7.705653 -1.820158 -10.167493
v -7.705653 -1.820158 -10.167493
v -7.093693 -2.584513 -10.580843
v -7.093693 -2.584513 -11.645727
v -7.705653 -1.820159 -12.080440
v -7.705653 -1.820158 -11.123965
v -7.705653 -1.820158 -11.123965
v -8.354717 -1.009463 -11.113284
v -7.093693 -2.584513 -11.113283
v -7.093693 -2.584513 -11.113283
vt 0.110902 0.487586
vt 0.303487 0.988530
vt 0.477277 0.988530
vt 0.476407 0.487586
vt 0.841914 0.487586
vt 0.641238 0.988530
vt 0.477277 0.015276
vt 0.637961 0.015276
vt 0.303487 0.015276
vn -0.780602 -0.624989 0.000000
s 1
f 3/1/1 1/2/1 10/3/1 8/4/1
f 7/5/1 8/4/1 10/3/1 2/6/1
f 11/7/1 8/4/1 7/5/1 6/8/1
f 9/4/1 12/7/1 5/9/1 4/1/1
