o f_leg
v 0.293653 -0.116263 0.000499
v 0.293653 -0.058093 -0.100180
v -0.965726 -0.116263 0.000499
v -0.965726 -0.058093 -0.100180
v 0.293653 0.058246 -0.100180
v -0.965726 0.058246 -0.100180
v 0.293653 0.116416 0.000499
v -0.965726 0.116416 0.000499
v 0.293653 0.058246 0.101179
v -0.965726 0.058246 0.101179
v 0.293653 -0.058093 0.101179
v -0.965726 -0.058093 0.101179
v 0.131292 -0.065857 1.628390
v 0.131292 -0.032992 1.571453
v -0.203311 -0.065857 1.628390
v -0.203311 -0.032992 1.571453
v 0.131292 0.032751 1.571453
v -0.203311 0.032751 1.571453
v 0.131292 0.065616 1.628390
v -0.203311 0.065616 1.628390
v 0.131291 0.032751 1.685327
v -0.203311 0.032751 1.685327
v 0.131291 -0.032992 1.685327
v -0.203311 -0.032992 1.685327
v -0.203311 -0.000120 1.628390
v -0.000000 0.000000 2.598108
v 0.059750 -0.082751 2.645900
v 0.000000 0.000000 0.000001
v 0.059750 -0.082751 0.000001
v 0.179092 -0.082675 2.741482
v 0.179092 -0.082675 0.000001
v 0.238842 0.000152 2.788815
v 0.238842 0.000152 0.000001
v 0.178932 0.082903 2.741482
v 0.178933 0.082903 0.000001
v 0.059591 0.082827 2.645900
v 0.059591 0.082827 0.000001
v -0.215580 -0.000001 2.597905
v -0.215580 -0.082751 2.645736
v -0.000160 -0.000001 2.597905
v 0.059432 -0.082751 2.645736
v -0.215580 -0.082674 2.741263
v 0.179092 -0.082674 2.741263
v -0.215580 0.000152 2.788962
v 0.238683 0.000152 2.788962
v -0.215580 0.082904 2.741131
v 0.178932 0.082904 2.741131
v -0.215580 0.082827 2.645606
v 0.059432 0.082827 2.645606
vt 0.000000 0.000000
vt 1.000000 0.000000
vt 1.000000 1.000000
vt 0.000000 1.000000
vn -0.571612 -0.820490 0.000000
vn -0.569475 -0.411023 -0.711844
vn 0.000000 -0.500015 -0.865993
vn 0.000000 -1.000000 0.000000
vn -0.571612 0.410291 -0.710562
vn 0.000000 0.500015 -0.865993
vn -0.569475 0.821986 0.000000
vn 0.000000 1.000000 0.000000
vn -0.571612 0.410291 0.710562
vn 0.000000 0.500015 0.865993
vn -0.569475 -0.411023 0.711844
vn 0.000000 -0.500015 0.865993
vn -1.000000 0.000000 0.000000
vn -0.999969 -0.000824 0.000000
vn -0.455000 -0.890469 0.000000
vn 0.455763 -0.890072 0.000000
vn 0.999969 0.000824 0.000000
vn 0.454451 0.890744 0.000000
vn -0.456343 0.889798 0.000000
vn 0.000000 -0.000793 -0.999969
vn 0.000000 -0.866329 -0.499405
vn 0.000000 -0.865535 0.500809
vn 0.000000 0.000763 0.999969
vn 0.000000 0.866329 0.499435
vn 0.000000 0.865535 -0.500809
vn 0.000000 -0.499832 -0.866085
vn 0.000000 0.499863 -0.866085
vn 0.000000 0.499863 0.866085
vn 0.000000 -0.499863 0.866085
s 1
f 15/1/1 16/2/2 14/3/3 13/4/4
f 16/1/2 18/2/5 17/3/6 14/4/3
f 18/1/5 20/2/7 19/3/8 17/4/6
f 20/1/7 22/2/9 21/3/10 19/4/8
f 22/1/9 24/2/11 23/3/12 21/4/10
f 24/1/11 15/2/1 13/3/4 23/4/12
f 25/1/13 18/2/5 16/3/2 15/4/1
f 25/1/13 22/2/9 20/3/7 18/4/5
f 25/1/13 15/2/1 24/3/11 22/4/9
f 28/1/14 29/2/15 27/3/15 26/4/14
f 29/1/15 31/2/16 30/3/16 27/4/15
f 31/1/16 33/2/17 32/3/17 30/4/16
f 33/1/17 35/2/18 34/3/18 32/4/17
f 35/1/18 37/2/19 36/3/19 34/4/18
f 37/1/19 28/2/14 26/3/14 36/4/19
f 40/1/20 41/2/21 39/3/21 38/4/20
f 41/1/21 43/2/22 42/3/22 39/4/21
f 43/1/22 45/2/23 44/3/23 42/4/22
f 45/1/23 47/2/24 46/3/24 44/4/23
f 47/1/24 49/2/25 48/3/25 46/4/24
f 49/1/25 40/2/20 38/3/20 48/4/25
f 2/1/26 1/2/4 3/3/4 4/4/26
f 4/1/26 6/2/27 5/3/27 2/4/26
f 6/1/27 8/2/8 7/3/8 5/4/27
f 8/1/8 10/2/28 9/3/28 7/4/8
f 10/1/28 12/2/29 11/3/29 9/4/28
f 1/1/4 11/2/29 12/3/29 3/4/4
