o f_w_centre
v 0.156230 -0.185004 -0.049211
v 0.156230 -0.135615 -0.135111
v 0.156230 -0.184830 0.049875
v 0.156230 -0.049879 -0.184806
v 0.156230 -0.135122 0.135596
v 0.156230 0.049214 -0.184986
v 0.156230 -0.049216 0.184983
v 0.156230 0.135123 -0.135596
v 0.156230 0.049879 0.184804
v 0.156230 0.185004 0.049210
v 0.156230 0.135615 0.135111
v 0.156230 0.184829 -0.049876
v -0.156230 -0.185004 0.049211
v -0.156230 -0.135615 0.135110
v -0.156230 -0.184830 -0.049876
v -0.156230 -0.049879 0.184804
v -0.156230 -0.135122 -0.135596
v -0.156230 0.049214 0.184986
v -0.156230 -0.049216 -0.184983
v -0.156230 0.135123 0.135596
v -0.156230 0.049879 -0.184806
v -0.156230 0.185004 -0.049211
v -0.156230 0.135615 -0.135111
v -0.156230 0.184829 0.049875
vt 0.430208 0.234273
vt 0.575035 0.234018
vt 0.700592 0.306208
vt 0.773227 0.431523
vt 0.304914 0.306928
vt 0.773491 0.576362
vt 0.232726 0.432492
vt 0.701300 0.701929
vt 0.232989 0.577333
vt 0.576007 0.774583
vt 0.305622 0.702649
vt 0.431180 0.774839
vt 0.576007 0.234273
vt 0.431177 0.234018
vt 0.305624 0.306208
vt 0.232989 0.431523
vt 0.701300 0.306928
vt 0.232723 0.576362
vt 0.773486 0.432492
vt 0.304914 0.701929
vt 0.773227 0.577333
vt 0.430208 0.774583
vt 0.700592 0.702649
vt 0.575035 0.774839
vn 1.000000 0.000000 0.000000
vn -1.000000 0.000000 0.000000
s 1
f 3/1/1 1/2/1 2/3/1 4/4/1
f 5/5/1 3/1/1 4/4/1 6/6/1
f 7/7/1 5/5/1 6/6/1 8/8/1
f 9/9/1 7/7/1 8/8/1 12/10/1
f 11/11/1 9/9/1 12/10/1 10/12/1
f 15/13/2 13/14/2 14/15/2 16/16/2
f 17/17/2 15/13/2 16/16/2 18/18/2
f 19/19/2 17/17/2 18/18/2 20/20/2
f 21/21/2 19/19/2 20/20/2 24/22/2
f 23/23/2 21/21/2 24/22/2 22/24/2
