o f_wheel
v -0.286861 -0.075366 -0.283282
v -0.286861 -0.206919 -0.207650
v -0.286861 -0.283044 -0.076378
v -0.286861 -0.283315 0.075362
v -0.286861 -0.207677 0.206906
v -0.286862 -0.076381 0.283008
v -0.286862 0.075366 0.283284
v -0.286862 0.206920 0.207653
v -0.286861 0.283044 0.076379
v -0.286861 0.283313 -0.075360
v -0.286861 0.207676 -0.206905
v -0.286861 -0.075366 -0.283282
v -0.286861 0.076379 -0.283008
v 0.155342 -0.049216 0.184984
v 0.285993 -0.075874 0.283146
v 0.155342 -0.135122 0.135597
v 0.285993 -0.207298 0.207279
v 0.155342 -0.184829 0.049875
v 0.285993 -0.283179 0.075869
v 0.155342 -0.185004 -0.049210
v 0.285993 -0.283179 -0.075869
v 0.155342 -0.135614 -0.135111
v 0.285993 -0.207298 -0.207278
v 0.155342 -0.049879 -0.184805
v 0.285993 -0.075874 -0.283146
v 0.155342 0.049215 -0.184985
v 0.285993 0.075873 -0.283146
v 0.155342 0.135123 -0.135595
v 0.285993 0.207298 -0.207278
v 0.155342 0.184829 -0.049875
v 0.285993 0.283179 -0.075869
v 0.155342 0.185005 0.049210
v 0.285993 0.283179 0.075869
v 0.155342 0.135615 0.135112
v 0.285993 0.207298 0.207279
v 0.155342 0.049879 0.184805
v 0.155342 -0.049216 0.184984
v 0.285993 0.075873 0.283146
v 0.285993 -0.075874 0.283146
v -0.157118 -0.049216 -0.184983
v -0.157118 -0.135122 -0.135595
v -0.157118 -0.184829 -0.049875
v -0.157118 -0.185004 0.049212
v -0.157118 -0.135614 0.135111
v -0.157118 -0.049879 0.184805
v -0.157118 0.049215 0.184986
v -0.157118 0.135123 0.135597
v -0.157118 0.184829 0.049875
v -0.157118 0.185005 -0.049210
v -0.157118 0.135615 -0.135111
v -0.157118 0.049879 -0.184805
v -0.157118 -0.049216 -0.184983
v -0.286861 -0.075366 -0.283282
v -0.286861 -0.206919 -0.207650
v -0.286861 -0.283044 -0.076378
v -0.286861 -0.283315 0.075362
v -0.286861 -0.207677 0.206906
v -0.286862 -0.076381 0.283008
v -0.286862 0.075366 0.283284
v -0.286862 0.206920 0.207653
v -0.286861 0.283044 0.076379
v -0.286861 0.283313 -0.075360
v -0.286861 0.207676 -0.206905
v -0.286861 0.076379 -0.283008
v -0.286861 -0.075366 -0.283282
v -0.286822 -0.120981 -0.454731
v -0.159211 -0.147394 -0.554007
v -0.286822 -0.332161 -0.333324
v -0.159211 -0.404681 -0.406096
v -0.286822 -0.454328 -0.122606
v -0.159211 -0.553528 -0.149370
v -0.286822 -0.454777 0.120966
v -0.159211 -0.554066 0.147378
v -0.286822 -0.333347 0.332125
v -0.159211 -0.406135 0.404637
v -0.286822 -0.122615 0.454292
v -0.159211 -0.149388 0.553476
v -0.286822 0.120980 0.454731
v -0.159211 0.147392 0.554007
v -0.286822 0.332159 0.333324
v -0.159211 0.404682 0.406096
v -0.286822 0.454328 0.122609
v -0.159211 0.553527 0.149370
v -0.286822 0.454776 -0.120966
v -0.159211 0.554066 -0.147376
v -0.286822 0.333347 -0.332123
v -0.159211 0.406134 -0.404637
v -0.286822 0.122614 -0.454292
v -0.286822 -0.120981 -0.454731
v -0.159211 0.149390 -0.553475
v -0.159211 -0.147394 -0.554007
v 0.285993 -0.075874 -0.283146
v 0.285993 -0.207298 -0.207278
v 0.285993 -0.283179 -0.075869
v 0.285993 -0.283179 0.075869
v 0.285993 -0.207298 0.207279
v 0.285993 -0.075874 0.283146
v 0.285993 0.075873 0.283146
v 0.285993 0.207298 0.207279
v 0.285993 0.283179 0.075869
v 0.285993 0.283179 -0.075869
v 0.285993 0.207298 -0.207278
v 0.285993 0.075873 -0.283146
v 0.285993 -0.075874 -0.283146
v 0.286862 -0.120981 -0.454731
v 0.286862 -0.332161 -0.333324
v 0.286861 -0.454328 -0.122606
v 0.286861 -0.454777 0.120966
v 0.286861 -0.333347 0.332125
v 0.286861 -0.122615 0.454292
v 0.286861 0.120980 0.454731
v 0.286861 0.332159 0.333324
v 0.286861 0.454328 0.122609
v 0.286861 0.454776 -0.120966
v 0.286862 0.333347 -0.332123
v 0.286862 0.122614 -0.454292
v 0.286862 -0.120981 -0.454731
v 0.159651 -0.147394 -0.554007
v -0.159211 -0.147394 -0.554007
v 0.159651 -0.404681 -0.406096
v -0.159211 -0.404681 -0.406096
v 0.159651 -0.553528 -0.149370
v -0.159211 -0.553528 -0.149370
v 0.159651 -0.554066 0.147378
v -0.159211 -0.554066 0.147378
v 0.159651 -0.406135 0.404637
v -0.159211 -0.406135 0.404637
v 0.159651 -0.149388 0.553476
v -0.159211 -0.149388 0.553476
v 0.159651 0.147392 0.554007
v -0.159211 0.147392 0.554007
v 0.159651 0.404682 0.406096
v -0.159211 0.404682 0.406096
v 0.159651 0.553527 0.149370
v -0.159211 0.553527 0.149370
v 0.159651 0.554066 -0.147376
v -0.159211 0.554066 -0.147376
v 0.159651 0.406134 -0.404637
v -0.159211 0.406134 -0.404637
v 0.159651 0.149390 -0.553475
v 0.159651 -0.147394 -0.554007
v -0.159211 -0.147394 -0.554007
v -0.159211 0.149390 -0.553475
vt 0.295938 0.297143
vt 0.219052 0.430883
vt 0.180852 0.420095
vt 0.268251 0.268695
vt 0.429390 0.219758
vt 0.419634 0.181280
vt 0.583646 0.219486
vt 0.594437 0.181280
vt 0.717377 0.296376
vt 0.745819 0.268695
vt 0.794742 0.429849
vt 0.833219 0.420095
vt 0.795023 0.584119
vt 0.833219 0.594907
vt 0.718132 0.717862
vt 0.745819 0.746309
vt 0.584682 0.795246
vt 0.594437 0.833723
vt 0.430425 0.795519
vt 0.419634 0.833723
vt 0.296692 0.718628
vt 0.268251 0.746309
vt 0.219330 0.585153
vt 0.180852 0.594907
vt 0.833377 0.420680
vt 0.746248 0.269132
vt 0.718132 0.297143
vt 0.795018 0.430883
vt 0.584682 0.219758
vt 0.595023 0.181436
vt 0.430423 0.219486
vt 0.420219 0.181124
vt 0.296694 0.296376
vt 0.268680 0.268259
vt 0.219330 0.429849
vt 0.181012 0.419511
vt 0.219047 0.584119
vt 0.180694 0.594323
vt 0.295938 0.717862
vt 0.267820 0.745873
vt 0.429390 0.795246
vt 0.419047 0.833567
vt 0.583646 0.795519
vt 0.593849 0.833877
vt 0.717377 0.718628
vt 0.745390 0.746743
vt 0.794742 0.585153
vt 0.833060 0.595490
vt 0.900118 0.402922
vt 0.795170 0.220373
vt 0.613020 0.114768
vt 0.402470 0.114380
vt 0.219939 0.219348
vt 0.114333 0.401510
vt 0.113953 0.612080
vt 0.218901 0.794629
vt 0.401050 0.900236
vt 0.611602 0.900622
vt 0.794132 0.795656
vt 0.899738 0.613493
vt 0.985934 0.380090
vt 0.858076 0.157684
vt 0.636156 0.029016
vt 0.379638 0.028551
vt 0.157256 0.156428
vt 0.028596 0.378367
vt 0.028137 0.634912
vt 0.155995 0.857320
vt 0.377916 0.985986
vt 0.634431 0.986452
vt 0.856815 0.858575
vt 0.985475 0.636638
vn 0.614307 0.557482 -0.558367
vn 0.601032 0.399060 -0.692434
vn 0.614338 0.761986 -0.204779
vn 0.614338 0.762261 0.203681
vn 0.614307 0.558275 0.557573
vn 0.614307 0.204718 0.762017
vn 0.614307 -0.203650 0.762322
vn 0.614307 -0.557482 0.558367
vn 0.614338 -0.761986 0.204779
vn 0.614338 -0.762261 -0.203681
vn 0.614307 -0.558275 -0.557573
vn 0.614307 -0.204718 -0.762017
vn 0.601032 -0.000549 -0.799219
vn -0.603687 0.397320 0.691122
vn -0.616962 0.555406 0.557482
vn -0.616993 0.759728 0.205054
vn -0.616993 0.760491 -0.202307
vn -0.616993 0.557421 -0.555498
vn -0.616962 0.205023 -0.759789
vn -0.616962 -0.202277 -0.760521
vn -0.616993 -0.555406 -0.557482
vn -0.616993 -0.759728 -0.205054
vn -0.616993 -0.760491 0.202307
vn -0.616993 -0.557421 0.555498
vn -0.616962 -0.204993 0.759789
vn -0.603687 -0.001434 0.797204
vn -1.000000 -0.000153 -0.000122
vn -1.000000 -0.000092 -0.000183
vn -0.898221 -0.219031 -0.381024
vn -0.864040 -0.355296 -0.356609
vn -1.000000 -0.000214 -0.000031
vn -0.864040 -0.486007 -0.131169
vn -1.000000 -0.000183 0.000061
vn -0.864040 -0.486465 0.129398
vn -1.000000 -0.000122 0.000153
vn -0.864040 -0.356578 0.355327
vn -1.000000 -0.000031 0.000214
vn -0.864009 -0.131138 0.486038
vn -1.000000 0.000061 0.000183
vn -0.864009 0.129398 0.486496
vn -1.000000 0.000153 0.000122
vn -0.864040 0.355296 0.356609
vn -1.000000 0.000214 0.000031
vn -0.864040 0.486007 0.131169
vn -1.000000 0.000183 -0.000061
vn -0.864040 0.486465 -0.129398
vn -1.000000 0.000122 -0.000153
vn -0.864040 0.356578 -0.355327
vn -1.000000 0.000031 -0.000214
vn -0.864009 0.131138 -0.486038
vn -1.000000 0.000000 -0.000214
vn -0.898221 0.000763 -0.439497
vn -0.613849 -0.393445 -0.684378
vn -0.627094 -0.549760 -0.551775
vn -0.627125 -0.751976 -0.202948
vn -0.627125 -0.752708 0.200232
vn -0.627094 -0.551744 0.549791
vn -0.627064 -0.202918 0.752037
vn -0.627064 0.200232 0.752770
vn -0.627094 0.549760 0.551775
vn -0.627125 0.751976 0.202948
vn -0.627125 0.752708 -0.200232
vn -0.627094 0.551744 -0.549791
vn -0.627064 0.202918 -0.752037
vn -0.613819 0.001404 -0.789422
vn 0.899716 -0.217505 -0.378338
vn 0.999969 0.002503 0.004364
vn 0.999969 0.003449 0.003449
vn 0.864925 -0.354198 -0.355510
vn 0.999969 0.004700 0.001251
vn 0.864925 -0.484512 -0.130772
vn 0.999969 0.004700 -0.001251
vn 0.864925 -0.484970 0.129002
vn 0.999969 0.003449 -0.003449
vn 0.864925 -0.355480 0.354228
vn 0.999969 0.001251 -0.004700
vn 0.864925 -0.130741 0.484542
vn 0.999969 -0.001251 -0.004700
vn 0.864925 0.129002 0.485000
vn 0.999969 -0.003449 -0.003449
vn 0.864925 0.354198 0.355510
vn 0.999969 -0.004700 -0.001251
vn 0.864925 0.484512 0.130772
vn 0.999969 -0.004700 0.001251
vn 0.864925 0.484970 -0.129002
vn 0.999969 -0.003449 0.003449
vn 0.864925 0.355480 -0.354228
vn 0.999969 -0.001251 0.004700
vn 0.864925 0.130741 -0.484542
vn 0.999969 0.000000 0.005036
vn 0.899716 0.000763 -0.436415
vn 0.325205 -0.471297 -0.819819
vn 0.318766 -0.668966 -0.671438
vn 0.318766 -0.915067 -0.246956
vn 0.318796 -0.915952 0.243660
vn 0.318766 -0.671377 0.669027
vn 0.318766 -0.246925 0.915067
vn 0.318766 0.243629 0.915952
vn 0.318766 0.668966 0.671438
vn 0.318766 0.915067 0.246956
vn 0.318796 0.915952 -0.243660
vn 0.318766 0.671377 -0.669027
vn 0.318766 0.246925 -0.915067
vn 0.325175 0.001679 -0.945616
vn 0.000000 -0.498367 -0.866939
vn 0.000000 -0.705802 -0.708396
vn 0.000000 -0.965453 -0.260567
vn 0.000000 -0.966369 0.257088
vn 0.000000 -0.708335 0.705863
vn 0.000000 -0.260537 0.965453
vn 0.000000 0.257057 0.966369
vn 0.000000 0.705802 0.708396
vn 0.000000 0.965453 0.260567
vn 0.000000 0.966369 -0.257088
vn 0.000000 0.708335 -0.705863
vn 0.000000 0.260537 -0.965453
vn 0.000000 0.001770 -0.999969
s 1
f 16/1/1 14/2/2 15/3/2 17/4/1
f 18/5/3 16/1/1 17/4/1 19/6/3
f 20/7/4 18/5/3 19/6/3 21/8/4
f 22/9/5 20/7/4 21/8/4 23/10/5
f 24/11/6 22/9/5 23/10/5 25/12/6
f 26/13/7 24/11/6 25/12/6 27/14/7
f 28/15/8 26/13/7 27/14/7 29/16/8
f 30/17/9 28/15/8 29/16/8 31/18/9
f 32/19/10 30/17/9 31/18/9 33/20/10
f 34/21/11 32/19/10 33/20/10 35/22/11
f 36/23/12 34/21/11 35/22/11 38/24/12
f 37/2/13 36/23/12 38/24/12 39/3/13
f 1/25/14 2/26/15 41/27/15 40/28/14
f 42/29/16 41/27/15 2/26/15 3/30/16
f 43/31/17 42/29/16 3/30/16 4/32/17
f 44/33/18 43/31/17 4/32/17 5/34/18
f 45/35/19 44/33/18 5/34/18 6/36/19
f 46/37/20 45/35/19 6/36/19 7/38/20
f 47/39/21 46/37/20 7/38/20 8/40/21
f 48/41/22 47/39/21 8/40/21 9/42/22
f 49/43/23 48/41/22 9/42/22 10/44/23
f 50/45/24 49/43/23 10/44/23 11/46/24
f 51/47/25 50/45/24 11/46/24 13/48/25
f 52/28/26 51/47/25 13/48/25 12/25/26
f 54/26/27 53/25/28 66/49/29 68/50/30
f 55/30/31 54/26/27 68/50/30 70/51/32
f 56/32/33 55/30/31 70/51/32 72/52/34
f 57/34/35 56/32/33 72/52/34 74/53/36
f 58/36/37 57/34/35 74/53/36 76/54/38
f 59/38/39 58/36/37 76/54/38 78/55/40
f 60/40/41 59/38/39 78/55/40 80/56/42
f 61/42/43 60/40/41 80/56/42 82/57/44
f 62/44/45 61/42/43 82/57/44 84/58/46
f 63/46/47 62/44/45 84/58/46 86/59/48
f 64/48/49 63/46/47 86/59/48 88/60/50
f 65/25/51 64/48/49 88/60/50 89/49/52
f 68/50/30 66/49/29 67/61/53 69/62/54
f 70/51/32 68/50/30 69/62/54 71/63/55
f 72/52/34 70/51/32 71/63/55 73/64/56
f 74/53/36 72/52/34 73/64/56 75/65/57
f 76/54/38 74/53/36 75/65/57 77/66/58
f 78/55/40 76/54/38 77/66/58 79/67/59
f 80/56/42 78/55/40 79/67/59 81/68/60
f 82/57/44 80/56/42 81/68/60 83/69/61
f 84/58/46 82/57/44 83/69/61 85/70/62
f 86/59/48 84/58/46 85/70/62 87/71/63
f 88/60/50 86/59/48 87/71/63 90/72/64
f 89/49/52 88/60/50 90/72/64 91/61/65
f 105/49/66 92/12/67 93/10/68 106/50/69
f 106/50/69 93/10/68 94/8/70 107/51/71
f 107/51/71 94/8/70 95/6/72 108/52/73
f 108/52/73 95/6/72 96/4/74 109/53/75
f 109/53/75 96/4/74 97/3/76 110/54/77
f 110/54/77 97/3/76 98/24/78 111/55/79
f 111/55/79 98/24/78 99/22/80 112/56/81
f 112/56/81 99/22/80 100/20/82 113/57/83
f 113/57/83 100/20/82 101/18/84 114/58/85
f 114/58/85 101/18/84 102/16/86 115/59/87
f 115/59/87 102/16/86 103/14/88 116/60/89
f 116/60/89 103/14/88 104/12/90 117/49/91
f 118/61/92 105/49/66 106/50/69 120/62/93
f 120/62/93 106/50/69 107/51/71 122/63/94
f 122/63/94 107/51/71 108/52/73 124/64/95
f 124/64/95 108/52/73 109/53/75 126/65/96
f 126/65/96 109/53/75 110/54/77 128/66/97
f 128/66/97 110/54/77 111/55/79 130/67/98
f 130/67/98 111/55/79 112/56/81 132/68/99
f 132/68/99 112/56/81 113/57/83 134/69/100
f 134/69/100 113/57/83 114/58/85 136/70/101
f 136/70/101 114/58/85 115/59/87 138/71/102
f 138/71/102 115/59/87 116/60/89 140/72/103
f 140/72/103 116/60/89 117/49/91 141/61/104
f 119/61/105 118/61/92 120/62/93 121/62/106
f 121/62/106 120/62/93 122/63/94 123/63/107
f 123/63/107 122/63/94 124/64/95 125/64/108
f 125/64/108 124/64/95 126/65/96 127/65/109
f 127/65/109 126/65/96 128/66/97 129/66/110
f 129/66/110 128/66/97 130/67/98 131/67/111
f 131/67/111 130/67/98 132/68/99 133/68/112
f 133/68/112 132/68/99 134/69/100 135/69/113
f 135/69/113 134/69/100 136/70/101 137/70/114
f 137/70/114 136/70/101 138/71/102 139/71/115
f 140/72/103 143/72/116 139/71/115 138/71/102
f 143/72/116 140/72/103 141/61/104 142/61/117
