o gun
v 0.110201 0.109799 -25.325260
v 0.156941 -0.002422 -25.325260
v 0.110201 -0.114644 -25.325260
v -0.002638 -0.161127 -25.325260
v -0.115478 -0.114643 -25.325260
v -0.162219 -0.002422 -25.325260
v -0.115478 0.109799 -25.325260
v -0.002638 0.156282 -25.325260
v -0.115478 0.109799 -25.325260
v -0.162219 -0.002422 -25.325260
v -0.115478 -0.114643 -25.325260
v 0.110201 -0.114644 -25.325260
v 0.110201 0.109799 -25.325260
v -0.002638 0.156282 -25.325260
v -0.002638 -0.161127 -25.325260
v 0.156941 -0.002422 -25.325260
v -0.002638 -0.002422 -25.325260
v -0.115478 -0.114643 -24.334520
v -0.002638 -0.161127 -24.334520
v 0.110201 -0.114644 -24.334520
v 0.156941 -0.002422 -24.334520
v 0.110201 0.109799 -24.334520
v -0.002638 0.156282 -24.334520
v -0.115478 0.109799 -24.334520
v -0.162219 -0.002422 -24.334520
vt 0.000000 0.460793
vt 0.146449 0.460793
vt 0.146450 0.987200
vt 0.000001 0.987200
vt 0.853553 0.987200
vt 0.500001 0.987200
vt 0.500001 0.460793
vt 0.853552 0.460793
vt 1.000000 0.987200
vt 1.000000 0.460793
vn -1.000000 0.000000 0.000000
vn -0.705710 0.708457 0.000000
vn 0.705710 0.708457 0.000000
vn 0.000000 1.000000 0.000000
vn 1.000000 0.000000 0.000000
vn 0.000000 -1.000000 0.000000
vn -0.705710 -0.708457 0.000000
vn 0.000000 0.000000 -1.000000
vn 0.705710 -0.708457 0.000000
s 1
f 25/1/1 24/2/2 7/3/2 10/4/1
f 1/5/3 8/6/4 23/7/4 22/8/3
f 2/9/5 1/5/3 22/8/3 21/10/5
f 19/7/6 18/2/7 5/3/7 15/6/6
f 6/4/8 9/3/8 17/6/8 11/3/8
f 17/6/8 13/5/8 16/9/8 3/5/8
f 17/6/8 9/3/8 14/6/8 13/5/8
f 4/6/8 11/3/8 17/6/8 3/5/8
f 10/4/1 5/3/7 18/2/7 25/1/1
f 20/8/9 19/7/6 15/6/6 12/5/9
f 21/10/5 20/8/9 12/5/9 2/9/5
f 24/2/2 23/7/4 8/6/4 7/3/2
