o head
v 8.168539 -0.240428 -8.706014
v 8.258632 -0.000776 -8.706014
v 8.168539 0.238736 -8.706014
v 6.220427 2.774473 -8.706014
v 5.684039 2.929988 -8.706014
v -5.684046 2.929988 -8.706015
v -6.220433 2.774473 -8.706015
v -8.168546 0.238736 -8.706016
v -8.258637 -0.000776 -8.706015
v -8.168546 -0.240428 -8.706015
v -6.226604 -2.781063 -8.706015
v -5.684050 -2.920310 -8.706015
v 5.684044 -2.920310 -8.706014
v 8.884213 0.238724 -9.249842
v -5.983961 3.356708 -9.249844
v 6.226599 -2.781063 -8.706015
v 1.737120 -4.221285 -8.038834
v 2.839478 -3.343837 -8.038834
v -1.752720 -4.221285 -8.038834
v -2.855079 -3.343837 -8.038835
v -0.000002 -0.245129 -24.814358
v 5.983956 3.358933 -13.074252
v -5.983961 3.358933 -13.074252
v 4.940386 0.240181 -22.185989
v 5.044739 0.000157 -22.185595
v 4.938699 -0.249813 -22.185810
v 4.954917 -1.090911 -20.613520
v 5.629069 -0.246072 -20.615419
v 5.722553 -0.000099 -20.616072
v 5.628536 0.237775 -20.615448
v 4.954917 1.088255 -20.613520
v -4.940390 0.240181 -22.185989
v -5.044743 0.000157 -22.185595
v -4.938703 -0.249813 -22.185812
v -4.954922 -1.090911 -20.613522
v -5.629073 -0.246072 -20.615423
v -5.722557 -0.000099 -20.616072
v -5.628540 0.237775 -20.615448
v -4.954922 1.088255 -20.613522
v -2.835849 2.235454 -17.296642
v 2.835844 2.235454 -17.296642
v -3.909384 0.000585 -24.814590
v 3.909380 0.000585 -24.814590
v -0.000002 0.239292 -24.814713
v 4.908893 -1.798031 -18.944304
v -4.908897 -1.798031 -18.944305
v 8.979567 -0.001328 -13.074251
v 8.884216 -0.248116 -13.074251
v 8.884215 0.237869 -13.074251
v -8.979572 -0.001328 -13.074253
v -8.884222 -0.248116 -13.074253
v -8.884221 0.237869 -13.074253
v 5.983958 -3.350934 -13.074252
v 6.566232 3.155119 -13.074251
v -5.983963 -3.350934 -13.074252
v -6.568743 -3.161466 -13.074253
v -6.566236 3.155119 -13.074253
v 1.772127 -3.348734 -3.264803
v -1.772134 -3.348734 -3.264804
v -7.588171 -1.854211 7.555917
v -7.588171 -1.854211 6.362715
v -7.588171 1.851557 7.555917
v -7.588171 1.851557 6.362715
v 7.588161 -1.854211 7.555918
v 7.588161 -1.854211 6.362716
v 7.588161 1.851557 7.555918
v 7.588161 1.851557 6.362716
v 7.588162 1.851556 -7.559564
v 7.588162 1.851556 -6.366361
v 7.588162 -1.854211 -7.559564
v 7.588162 -1.854211 -6.366361
v -7.588169 1.851556 -7.559565
v -7.588169 1.851556 -6.366363
v -7.588169 -1.854211 -7.559565
v -7.588169 -1.854211 -6.366362
v -3.834977 0.239292 -24.814714
v 0.598438 -3.350933 -9.374407
v -0.598444 -3.350933 -9.374407
v 0.598438 -3.350933 -12.951090
v -0.598444 -3.350933 -12.951090
v -0.000003 -3.350933 -12.951090
v 9.083067 -0.240900 -7.555582
v 8.882549 0.238452 -6.016541
v 3.833827 -0.245129 -24.814358
v -6.572206 -3.162428 -9.249843
v 9.083067 -0.240900 -6.370343
v -9.083074 -0.240899 6.366696
v 8.882548 0.238453 7.905739
v 9.083065 0.238245 7.551936
v 9.083065 0.238245 6.366698
v -9.083074 -0.240900 -6.370345
v -8.882557 0.238453 6.012895
v -9.083074 0.238245 6.366696
v 9.083065 -0.240899 6.366698
v 8.882549 0.238452 -7.909385
v -8.884222 -0.239878 -9.249845
v -8.882556 -0.241107 7.910864
v -3.005292 -3.348086 -8.038835
v 8.882549 -0.241107 -7.909385
v 9.083067 0.238245 -6.370343
v 9.083067 0.238245 -7.555582
v -9.083075 -0.240899 7.551935
v 8.882548 0.238453 6.012896
v 8.882549 -0.241107 -6.016541
v -9.083073 -0.240900 -7.555583
v -8.882556 -0.241107 -7.909386
v -9.083075 0.238245 7.551935
v -8.882557 0.238453 7.905737
v 8.882548 -0.241107 7.905739
v 9.083067 -0.240899 7.557063
v -1.777896 -4.325079 -8.038834
v -9.083074 0.238245 -6.370345
v -8.882556 0.238452 -6.016542
v -8.882556 0.238452 -7.909386
v 8.979567 -0.001328 -9.249842
v 3.834973 0.239292 -24.814713
v 8.884216 -0.239878 -9.249843
v 6.572200 -3.162428 -9.249843
v 5.983960 -3.350933 -9.249843
v -0.000003 -3.350933 -9.249843
v -5.983966 -3.350933 -9.249843
v -8.979573 -0.001328 -9.249845
v -8.884219 0.238724 -9.249845
v -6.566261 3.155126 -9.249844
v 5.983955 3.356708 -9.249843
v 6.566255 3.155126 -9.249842
v -3.833831 -0.245129 -24.814358
v 6.568738 -3.161466 -13.074251
v -8.882557 -0.241107 6.012895
v -8.882556 -0.241107 -6.016542
v 8.882548 -0.241107 6.012896
v -0.000002 3.358933 -13.074252
v -2.835065 3.358932 -16.345270
v 2.835061 3.358932 -16.345268
v -9.083073 0.238245 -7.555584
v 1.777889 -4.325079 -8.038834
v 3.005286 -3.348086 -8.038834
v -6.566236 3.155119 -13.074253
v -6.566261 3.155126 -9.249844
v -6.566261 3.155126 -9.249844
v -6.566261 3.155126 -9.249844
v -8.884219 0.238724 -9.249845
v -8.979573 -0.001328 -9.249845
v -8.884222 -0.239878 -9.249845
v -6.572206 -3.162428 -9.249843
v -6.572206 -3.162428 -9.249843
v -6.572206 -3.162428 -9.249843
v -6.226604 -2.781063 -8.706015
v -5.983966 -3.350933 -9.249843
v -0.000003 -3.350933 -9.249843
v 5.983960 -3.350933 -9.249843
v 6.572200 -3.162428 -9.249843
v 6.572200 -3.162428 -9.249843
v 8.884216 -0.239878 -9.249843
v 8.979567 -0.001328 -9.249842
v 8.884213 0.238724 -9.249842
v 6.566255 3.155126 -9.249842
v 6.566255 3.155126 -9.249842
v 6.566255 3.155126 -9.249842
v 6.220427 2.774473 -8.706014
v 5.983955 3.356708 -9.249843
v -5.983961 3.356708 -9.249844
v 6.566232 3.155119 -13.074251
v 3.834973 0.239292 -24.814713
v 6.568738 -3.161466 -13.074251
v 3.833827 -0.245129 -24.814358
v -6.568743 -3.161466 -13.074253
v -3.833831 -0.245129 -24.814358
v -6.220433 2.774473 -8.706015
v -3.834977 0.239292 -24.814714
v 8.882548 0.238453 7.905739
v 9.083065 0.238245 7.551936
v 9.083065 0.238245 6.366698
v 8.882548 0.238453 6.012896
v 9.083067 -0.240900 -7.555582
v 8.882549 -0.241107 -7.909385
v 9.083067 -0.240900 -6.370343
v 8.882549 -0.241107 -6.016541
v -8.882557 0.238453 6.012895
v -9.083074 0.238245 6.366696
v -9.083075 0.238245 7.551935
v -8.882557 0.238453 7.905737
v 9.083067 0.238245 -6.370343
v 8.882549 0.238452 -6.016541
v 9.083067 0.238245 -7.555582
v 8.882549 0.238452 -7.909385
v -9.083073 -0.240900 -7.555583
v -9.083074 -0.240900 -6.370345
v -8.882556 -0.241107 -6.016542
v -8.882556 -0.241107 -7.909386
v 8.882548 -0.241107 7.905739
v 9.083067 -0.240899 7.557063
v 9.083065 -0.240899 6.366698
v 8.882548 -0.241107 6.012896
v -9.083074 0.238245 -6.370345
v -9.083073 0.238245 -7.555584
v -8.882556 0.238452 -7.909386
v -8.882556 0.238452 -6.016542
v -3.005292 -3.348086 -8.038835
v -1.777896 -4.325079 -8.038834
v 1.777889 -4.325079 -8.038834
v 3.005286 -3.348086 -8.038834
v -8.882556 -0.241107 7.910864
v -9.083075 -0.240899 7.551935
v -9.083074 -0.240899 6.366696
v -8.882557 -0.241107 6.012895
v -0.000002 3.358933 -13.074252
v -2.835065 3.358932 -16.345270
v 2.835061 3.358932 -16.345268
v 6.226599 -2.781063 -8.706015
v 6.572200 -3.162428 -9.249843
v 3.833827 -0.245129 -24.814358
v -3.833831 -0.245129 -24.814358
vt 0.700038 0.758547
vt 0.652560 0.967144
vt 0.699817 0.967144
vt 0.836719 0.967144
vt 0.883975 0.967144
vt 0.836497 0.758547
vt 0.857324 0.338665
vt 0.642693 0.338665
vt 0.750009 0.195741
vt 0.523498 0.028637
vt 0.976519 0.028637
vt 0.642578 0.379070
vt 0.749023 0.709302
vt 0.605469 0.709302
vt 0.857422 0.379070
vt 0.893555 0.709302
vt 0.173828 0.997674
vt 0.459617 0.905497
vt 0.619141 0.869767
vt 0.173828 0.718605
vt 0.619141 0.845349
vt 0.459617 0.810261
vt 0.619004 0.847303
vt 0.519273 0.847098
vt 0.619018 0.868519
vt 0.459617 0.905700
vt 0.519279 0.868558
vt 0.619004 0.868454
vt 0.519273 0.868660
vt 0.619018 0.847239
vt 0.519279 0.847200
vt 0.459617 0.810057
vt 0.028461 0.847264
vt 0.028461 0.857777
vt 0.007827 0.857753
vt 0.007827 0.847263
vt 0.028461 0.719536
vt 0.007827 0.736207
vt 0.501456 0.028637
vt 0.514547 0.004875
vt 0.534851 0.004875
vt 0.018555 0.005814
vt 0.004883 0.027907
vt 0.027344 0.027907
vt 0.037109 0.005814
vt 0.007827 0.868249
vt 0.028461 0.868224
vt 0.028461 0.996222
vt 0.007827 0.979519
vt 0.007827 0.858005
vt 0.028460 0.857981
vt 0.028460 0.868494
vt 0.007827 0.868494
vt 0.028460 0.996222
vt 0.007827 0.979551
vt 0.985470 0.004875
vt 0.998561 0.028637
vt 0.965166 0.004875
vt 0.487305 0.005814
vt 0.466797 0.005814
vt 0.479492 0.029070
vt 0.500977 0.029070
vt 0.007827 0.847509
vt 0.028461 0.847533
vt 0.007827 0.736238
vt 0.700786 0.967144
vt 0.835149 0.967144
vt 0.877591 0.967144
vt 0.658344 0.967144
vt 0.976519 0.195741
vt 0.523498 0.195741
vt 0.027344 0.197674
vt 0.005859 0.180233
vt 0.108398 0.706977
vt 0.067383 0.453488
vt 0.976563 0.197674
vt 0.998047 0.179070
vt 0.501953 0.179070
vt 0.524414 0.196512
vt 0.229492 0.033721
vt 0.229492 0.190698
vt 0.479492 0.197674
vt 0.274414 0.033721
vt 0.274414 0.190698
vt 0.500977 0.197674
vt 0.975586 0.029070
vt 0.997070 0.029070
vt 0.997070 0.197674
vt 0.975586 0.197674
vt 0.173565 0.847172
vt 0.459689 0.847262
vt 0.459714 0.858035
vt 0.173565 0.857981
vt 0.459690 0.868452
vt 0.173565 0.868457
vt 0.619013 0.858065
vt 0.519264 0.858046
vt 0.173565 0.719578
vt 0.173565 0.996222
vt 0.004883 0.197674
vt 0.502930 0.197674
vt 0.502930 0.029070
vt 0.523438 0.029070
vt 0.523438 0.197674
vt 0.173565 0.868585
vt 0.173565 0.857777
vt 0.459714 0.857723
vt 0.459690 0.868496
vt 0.173565 0.847301
vt 0.459690 0.847305
vt 0.519264 0.857712
vt 0.619013 0.857693
vt 0.173565 0.996180
vt 0.173565 0.719536
vt 0.519179 0.626788
vt 0.519333 0.698738
vt 0.533046 0.626798
vt 0.459717 0.626798
vt 0.473233 0.698738
vt 0.473386 0.626788
vt 0.519179 0.605420
vt 0.532848 0.605410
vt 0.519333 0.533470
vt 0.459717 0.605410
vt 0.473386 0.605420
vt 0.473233 0.533470
vt 0.519377 0.626788
vt 0.532848 0.626798
vt 0.533203 0.605814
vt 0.519531 0.533721
vt 0.519531 0.605814
vt 0.473633 0.605814
vt 0.473633 0.533721
vt 0.459961 0.605814
vt 0.533203 0.626744
vt 0.519531 0.626744
vt 0.519531 0.698837
vt 0.473633 0.626744
vt 0.459961 0.626744
vt 0.473633 0.698837
vt 0.473352 0.626704
vt 0.459682 0.626714
vt 0.532813 0.626714
vt 0.519144 0.626704
vt 0.532813 0.605327
vt 0.459682 0.605327
vt 0.473352 0.605336
vt 0.519144 0.605336
vt 0.251953 0.708140
vt 0.397461 0.708140
vt 0.251953 0.190698
vt 0.108398 0.708140
vt 0.397461 0.706977
vt 0.500977 0.180233
vt 0.438477 0.453488
vt 0.252930 0.029070
vn -0.325083 -0.926420 0.189856
vn -0.614856 -0.772454 0.158696
vn 0.325083 -0.926420 0.189856
vn 0.614856 -0.772454 0.158696
vn 0.000000 1.000000 0.000000
vn 0.000000 1.000000 0.000305
vn -0.166540 0.986023 0.000275
vn 0.166540 0.986023 0.000275
vn -0.029786 0.964690 -0.261666
vn 0.000000 0.966491 -0.256600
vn -0.032868 0.964446 -0.262185
vn 0.029786 0.964690 -0.261666
vn 0.032868 0.964446 -0.262185
vn -0.772362 -0.608875 -0.180853
vn -0.755516 -0.572619 -0.318217
vn -0.816126 -0.463149 -0.345531
vn 0.772362 -0.608875 -0.180853
vn 0.816126 -0.463149 -0.345531
vn 0.755516 -0.572619 -0.318217
vn 0.820429 -0.453536 -0.348064
vn 0.817347 0.460707 -0.345897
vn 0.753594 0.575091 -0.318339
vn 0.820185 0.454421 -0.347484
vn 0.772149 0.610065 -0.177648
vn -0.820429 -0.453536 -0.348064
vn -0.817347 0.460707 -0.345897
vn -0.820185 0.454421 -0.347484
vn -0.753563 0.575091 -0.318339
vn -0.772149 0.610065 -0.177648
vn -0.578265 0.335398 0.743675
vn -0.603626 -0.000275 0.797235
vn -0.561266 0.439161 0.701468
vn -0.114536 0.755181 0.645375
vn -0.227393 0.712424 0.663839
vn -0.208747 -0.720206 0.661580
vn -0.105014 -0.756767 0.645161
vn -0.101321 -0.757897 0.644429
vn -0.578539 -0.334910 0.743675
vn -0.562120 -0.437696 0.701712
vn 0.603626 -0.000275 0.797235
vn 0.578265 0.335398 0.743675
vn 0.561266 0.439161 0.701468
vn 0.227393 0.712424 0.663839
vn 0.114536 0.755181 0.645375
vn 0.208747 -0.720206 0.661580
vn 0.101321 -0.757897 0.644429
vn 0.105014 -0.756767 0.645161
vn 0.578539 -0.334910 0.743675
vn 0.562120 -0.437696 0.701712
vn 0.000000 0.000000 -1.000000
vn 0.181616 0.980590 -0.073550
vn 0.000000 0.999969 0.000305
vn -0.181616 0.980590 -0.073550
vn -0.159642 -0.982757 -0.093142
vn -0.303995 -0.940916 -0.148991
vn -0.294534 -0.909116 -0.294443
vn 0.200812 0.970122 -0.136021
vn -0.200812 0.970122 -0.136021
vn 0.000000 -1.000000 0.000000
vn -0.151189 -0.988495 -0.000122
vn 0.159642 -0.982757 -0.093142
vn 0.151189 -0.988495 -0.000122
vn 0.303995 -0.940916 -0.148991
vn 0.306681 -0.951781 -0.000244
vn 0.328745 0.944395 0.000244
vn 0.856349 -0.484634 -0.178228
vn 0.812189 -0.466018 -0.350871
vn 0.918027 0.005554 -0.396405
vn 0.980255 0.003510 -0.197607
vn 0.810053 0.470595 -0.349681
vn 0.854518 0.488418 -0.176611
vn 0.919858 0.002716 -0.392163
vn 0.866604 -0.498947 0.000305
vn 0.999969 0.002136 0.000183
vn 0.783532 -0.621296 0.000214
vn 0.865261 0.501297 -0.000031
vn 0.782891 0.622150 -0.000061
vn -0.306681 -0.951781 -0.000244
vn -0.328745 0.944395 0.000244
vn -0.856349 -0.484634 -0.178228
vn -0.980255 0.003510 -0.197607
vn -0.918027 0.005554 -0.396405
vn -0.812189 -0.466018 -0.350871
vn -0.854518 0.488418 -0.176611
vn -0.810053 0.470595 -0.349681
vn -0.919858 0.002716 -0.392163
vn -0.866604 -0.498947 0.000305
vn -0.999969 0.002136 0.000183
vn -0.783532 -0.621296 0.000214
vn -0.865261 0.501297 -0.000031
vn -0.782891 0.622150 -0.000061
vn -0.719932 -0.666616 0.193182
vn -0.679220 -0.628437 0.379070
vn -0.677786 -0.627094 -0.383770
vn -0.719565 -0.666250 -0.195654
vn -0.719565 0.666250 0.195654
vn -0.677786 0.627094 0.383770
vn -0.677786 0.627094 -0.383770
vn -0.719565 0.666250 -0.195654
vn 0.718894 -0.666280 0.198035
vn 0.675802 -0.626484 0.388256
vn 0.677786 -0.627094 -0.383770
vn 0.719565 -0.666250 -0.195654
vn 0.719565 0.666250 0.195654
vn 0.677786 0.627094 0.383770
vn 0.677786 0.627094 -0.383770
vn 0.719565 0.666250 -0.195654
vn 0.719565 -0.666250 0.195654
vn 0.677786 -0.627094 0.383770
vn -0.719565 -0.666250 0.195654
vn -0.677786 -0.627094 0.383770
vn -0.001007 0.999969 0.000000
vn -0.001007 -0.999969 0.000000
vn 0.001007 0.999969 0.000000
vn 0.001007 -0.999969 0.000000
vn 0.000000 -0.967132 -0.254219
vn -0.003174 -0.967132 -0.254219
vn 0.000000 -0.992065 -0.125523
vn 0.003174 -0.967132 -0.254219
vn 0.294534 -0.909116 -0.294443
vn 0.000000 -0.783959 0.620777
s 1
f 59/1/1 98/2/2 111/3/1
f 136/4/3 137/5/4 58/6/3
f 134/7/5 133/8/5 132/9/5
f 207/9/6 15/10/7 125/11/8
f 40/12/9 44/13/10 170/14/11
f 41/15/12 164/16/13 44/13/10
f 40/12/9 41/15/12 44/13/10
f 56/17/14 35/18/15 127/19/16
f 128/20/17 84/21/18 27/22/19
f 84/23/18 26/24/20 27/22/19
f 116/25/21 31/26/22 24/27/23
f 54/17/24 31/26/22 116/19/21
f 127/28/16 35/18/15 34/29/25
f 76/30/26 32/31/27 39/32/28
f 57/20/29 76/21/26 39/32/28
f 123/33/30 122/34/31 9/35/31 8/36/30
f 124/37/32 123/33/30 8/36/30 7/38/32
f 162/10/33 140/39/34 169/40/34 6/41/33
f 11/42/35 85/43/35 121/44/36 12/45/37
f 10/46/38 96/47/38 147/48/39 148/49/39
f 9/35/31 122/34/31 96/47/38 10/46/38
f 2/50/40 115/51/40 14/52/41 3/53/41
f 3/53/41 14/52/41 126/54/42 4/55/42
f 160/56/43 159/57/43 161/11/44 5/58/44
f 16/59/45 13/60/46 119/61/47 118/62/45
f 2/50/40 1/63/48 117/64/48 115/51/40
f 162/10/33 6/41/33 5/58/44 161/11/44
f 1/63/48 210/65/49 211/37/49 117/64/48
f 111/3/1 136/4/3 58/6/3 59/1/1
f 200/3/50 19/66/50 17/67/50 201/4/50
f 201/4/50 17/67/50 18/68/50 202/5/50
f 200/3/50 199/2/50 20/69/50 19/66/50
f 207/9/6 125/11/8 22/70/51 209/7/52
f 23/71/53 15/10/7 207/9/6 208/8/52
f 55/72/54 167/73/55 168/74/56 46/75/56
f 41/15/12 22/76/51 163/77/57 164/16/13
f 40/12/9 170/14/11 138/78/58 23/79/53
f 78/80/59 149/44/60 55/72/54 80/81/59
f 53/82/61 151/61/62 77/83/59 79/84/59
f 151/61/62 53/82/61 165/85/63 153/62/64
f 125/86/8 158/87/65 163/88/57 22/89/51
f 48/90/66 28/91/67 29/92/68 47/93/69
f 29/92/68 30/94/70 49/95/71 47/93/69
f 26/24/20 84/23/18 43/96/72 25/97/72
f 43/96/72 116/25/21 24/27/23 25/97/72
f 154/64/73 48/90/66 47/93/69 155/51/74
f 152/37/75 128/98/17 48/90/66 154/64/73
f 156/52/76 49/95/71 54/99/24 157/54/77
f 155/51/74 47/93/69 49/95/71 156/52/76
f 128/98/17 27/22/19 28/91/67 48/90/66
f 54/99/24 49/95/71 30/94/70 31/26/22
f 167/100/55 55/72/54 149/44/60 146/43/78
f 138/101/58 139/102/79 15/103/7 23/104/53
f 51/105/80 50/106/81 37/107/82 36/108/83
f 37/107/82 50/106/81 52/109/84 38/110/85
f 34/29/25 33/111/86 42/112/86 127/28/16
f 42/112/86 33/111/86 32/31/27 76/30/26
f 50/106/81 51/105/80 144/47/87 143/34/88
f 51/105/80 56/113/14 145/48/89 144/47/87
f 57/114/29 52/109/84 142/33/90 141/37/91
f 52/109/84 50/106/81 143/34/88 142/33/90
f 56/113/14 51/105/80 36/108/83 35/18/15
f 57/114/29 39/32/28 38/110/85 52/109/84
f 102/115/92 60/116/92 97/117/93
f 129/118/94 61/119/95 87/120/95
f 107/121/96 108/122/97 62/123/96
f 92/124/98 93/125/99 63/126/99
f 110/127/100 109/128/101 64/116/100
f 131/118/102 94/120/103 65/119/103
f 89/121/104 66/123/104 88/122/105
f 103/124/106 67/126/107 90/125/107
f 95/129/106 68/130/107 101/131/107
f 100/132/104 69/133/104 83/134/105
f 99/135/102 82/136/103 70/137/103
f 86/138/108 104/139/109 71/140/108
f 114/129/98 135/131/99 72/130/99
f 112/132/96 113/134/97 73/133/96
f 106/135/94 74/137/95 105/136/95
f 91/138/110 75/140/110 130/139/111
f 61/119/95 60/116/92 102/115/92 87/120/95
f 63/126/99 93/125/99 107/121/96 62/123/96
f 65/119/103 94/120/103 110/127/100 64/116/100
f 67/126/107 66/123/104 89/121/104 90/125/107
f 68/130/107 69/133/104 100/132/104 101/131/107
f 70/137/103 82/136/103 86/138/108 71/140/108
f 72/130/99 135/131/99 112/132/96 73/133/96
f 91/138/110 105/136/95 74/137/95 75/140/110
f 175/141/112 176/142/112 178/143/112 177/144/112
f 184/145/113 186/146/113 185/147/113 183/148/113
f 187/141/114 188/144/114 189/143/114 190/142/114
f 196/147/115 197/146/115 198/145/115 195/148/115
f 204/115/114 203/117/114 206/118/114 205/120/114
f 179/124/115 182/122/115 181/121/115 180/125/115
f 191/128/112 192/127/112 193/120/112 194/118/112
f 171/122/113 174/124/113 173/125/113 172/121/113
f 21/149/116 212/150/117 53/82/61 81/151/118
f 21/149/116 81/151/118 55/72/54 213/152/119
f 166/153/120 165/154/63 53/82/61 45/155/120
f 120/156/121 13/60/46 12/45/37
f 121/44/36 120/156/121 12/45/37
f 120/156/121 119/61/47 13/60/46
f 77/83/59 150/156/59 78/80/59
f 149/44/60 78/80/59 150/156/59
f 77/83/59 151/61/62 150/156/59
f 55/72/54 81/151/118 80/81/59
f 53/82/61 79/84/59 81/151/118
