o non_cv
v 0.250302 3.681844 -6.616489
v 0.681503 3.341565 -6.019783
v -0.249369 3.681844 -6.617766
v -0.683627 3.341565 -6.023279
v -0.402558 3.681844 -7.093384
v -1.102145 3.341565 -7.322677
v 0.002439 3.681843 -7.386049
v 0.004327 3.341565 -8.122246
v 0.405928 3.681844 -7.091311
v 1.106683 3.341565 -7.317012
v 4.801799 3.681843 6.536012
v 4.803687 3.341565 5.799815
v 4.549992 3.681844 7.304293
v 4.115734 3.341566 7.898781
v 4.396802 3.681844 6.828677
v 3.697215 3.341566 6.599383
v 5.205288 3.681844 6.830750
v 5.906044 3.341566 6.605047
v 5.049663 3.681844 7.305571
v 5.480863 3.341566 7.902277
v -4.552022 3.681844 7.306594
v -4.120822 3.341566 7.903301
v -5.051694 3.681844 7.305317
v -5.485952 3.341566 7.899806
v -5.904470 3.341566 6.600407
v -5.204883 3.681844 6.829700
v -4.396397 3.681844 6.831775
v -3.695641 3.341566 6.606071
v -4.799886 3.681843 6.537036
v -4.797998 3.341565 5.800838
v -4.799886 3.681843 6.537036
v -4.396397 3.681844 6.831775
v -4.552022 3.681844 7.306594
v -5.051694 3.681844 7.305317
v 5.049663 3.681844 7.305571
v 4.549992 3.681844 7.304293
v 4.396802 3.681844 6.828677
v 4.801799 3.681843 6.536012
v 5.205288 3.681844 6.830750
v 0.405928 3.681844 -7.091311
v 0.250302 3.681844 -6.616489
v -0.249369 3.681844 -6.617766
v -0.402558 3.681844 -7.093384
v 0.002439 3.681843 -7.386049
v 1.106683 3.341565 -7.317012
v 0.681503 3.341565 -6.019783
v -0.683627 3.341565 -6.023279
v -1.102145 3.341565 -7.322677
v 0.004327 3.341565 -8.122246
v 4.803687 3.341565 5.799815
v 3.697215 3.341566 6.599383
v 4.115734 3.341566 7.898781
v 5.480863 3.341566 7.902277
v 5.906044 3.341566 6.605047
v -3.695641 3.341566 6.606071
v -4.120822 3.341566 7.903301
v -5.485952 3.341566 7.899806
v -5.904470 3.341566 6.600407
v -4.797998 3.341565 5.800838
v -5.204883 3.681844 6.829700
v -3.789483 -0.192576 -24.814100
v 3.834973 0.239292 -24.814711
v 3.909380 0.000585 -24.814590
v -3.834977 0.239292 -24.814711
v -3.909383 0.000585 -24.814590
v -3.833831 -0.245129 -24.814358
v 3.833827 -0.245129 -24.814358
v -4.396397 -3.686687 -7.091713
v 0.401938 -3.686686 6.832582
v 0.246312 -3.686686 7.307404
v -4.797998 -3.346409 -8.122649
v -5.904470 -3.346409 -7.323081
v -5.485952 -3.346409 -6.023682
v -3.695641 -3.346409 -7.317416
v -4.120822 -3.346409 -6.020187
v 5.480863 -3.346409 -6.020078
v 5.906044 -3.346409 -7.317308
v 4.115734 -3.346409 -6.023574
v 3.697215 -3.346409 -7.322972
v 4.803687 -3.346409 -8.122540
v 0.000337 -3.346408 5.801647
v -1.106135 -3.346408 6.601215
v -0.687617 -3.346408 7.900614
v 1.102693 -3.346408 6.606880
v 0.677513 -3.346408 7.904109
v 5.205288 -3.686687 -7.091604
v 4.801799 -3.686687 -7.386343
v 4.396802 -3.686687 -7.093678
v 4.549992 -3.686687 -6.618062
v 5.049663 -3.686687 -6.616784
v -0.253359 -3.686686 7.306126
v -0.406548 -3.686686 6.830508
v -0.001551 -3.686686 6.537844
v -5.204883 -3.686687 -7.093787
v -4.799886 -3.686687 -7.386451
v -4.552022 -3.686687 -6.616893
v -5.051694 -3.686687 -6.618170
v 3.789536 0.187796 -24.814104
v -3.789539 0.187796 -24.814104
v -3.839439 0.001148 -24.814104
v 3.789479 -0.192576 -24.814100
v 3.839435 0.001148 -24.814104
v -3.789483 -0.192576 -24.814100
v -3.789483 -0.192576 -24.814100
v 3.834973 0.239292 -24.814711
v -3.834977 0.239292 -24.814711
v -3.833831 -0.245129 -24.814358
v 3.833827 -0.245129 -24.814358
v -0.000002 -0.245129 -24.814358
v -0.000002 -0.245129 -24.814358
v 3.789536 0.187796 -24.814104
v -3.789539 0.187796 -24.814104
v 3.789479 -0.192576 -24.814100
v 3.789479 -0.192576 -24.814100
v -4.797998 -3.346409 -8.122649
v -4.799886 -3.686687 -7.386451
v -5.904470 -3.346409 -7.323081
v -5.204883 -3.686687 -7.093787
v -5.485952 -3.346409 -6.023682
v -5.051694 -3.686687 -6.618170
v -4.120822 -3.346409 -6.020187
v -4.552022 -3.686687 -6.616893
v -4.396397 -3.686687 -7.091713
v -3.695641 -3.346409 -7.317416
v 5.480863 -3.346409 -6.020078
v 5.049663 -3.686687 -6.616784
v 4.115734 -3.346409 -6.023574
v 4.549992 -3.686687 -6.618062
v 3.697215 -3.346409 -7.322972
v 4.396802 -3.686687 -7.093678
v 4.803687 -3.346409 -8.122540
v 4.801799 -3.686687 -7.386343
v 5.906044 -3.346409 -7.317308
v 5.205288 -3.686687 -7.091604
v 0.401938 -3.686686 6.832582
v 1.102693 -3.346408 6.606880
v 0.000337 -3.346408 5.801647
v -0.001551 -3.686686 6.537844
v -1.106135 -3.346408 6.601215
v -0.406548 -3.686686 6.830508
v -0.687617 -3.346408 7.900614
v -0.253359 -3.686686 7.306126
v 0.246312 -3.686686 7.307404
v 0.677513 -3.346408 7.904109
v -0.000002 -0.245129 -24.814358
vt 0.756661 0.571105
vt 0.701128 0.571105
vt 0.653036 0.489785
vt 0.804753 0.489785
vt 0.199810 0.929860
vt 0.151717 0.848540
vt 0.303435 0.848540
vt 0.255343 0.929860
vt 0.453226 0.408464
vt 0.501319 0.489785
vt 0.349601 0.489785
vt 0.397693 0.408465
vt 0.606869 0.848540
vt 0.455152 0.848540
vt 0.503245 0.767220
vt 0.558777 0.767220
vt 0.968750 0.539063
vt 0.917969 0.621094
vt 0.863281 0.621094
vt 0.816406 0.539063
vt 0.968750 0.339844
vt 0.917969 0.421875
vt 0.863281 0.421875
vt 0.816406 0.339844
vt 0.606869 0.929860
vt 0.455152 0.929860
vt 0.503245 0.848540
vt 0.558777 0.848541
vt 0.453226 0.489785
vt 0.501319 0.571105
vt 0.349601 0.571105
vt 0.397693 0.489785
vt 0.048093 0.929860
vt 0.000000 0.848540
vt 0.103625 0.929860
vt 0.501319 0.652426
vt 0.653036 0.652426
vt 0.604943 0.733746
vt 0.549411 0.733746
vt 0.804753 0.652426
vt 0.756660 0.733746
vt 0.701128 0.733746
vt 0.549412 0.408464
vt 0.501319 0.327144
vt 0.653036 0.327144
vt 0.604944 0.408464
vt 0.604944 0.571105
vt 0.549411 0.571105
vt 0.351527 0.767220
vt 0.407060 0.767220
vt 0.921875 0.445313
vt 0.875000 0.523438
vt 0.816406 0.523438
vt 0.769531 0.445313
vt 0.386719 0.500000
vt 0.386719 1.976563
vt 0.402344 1.960938
vt 0.386719 -0.980469
vt 0.402344 -0.964844
vt 0.476563 -0.980469
vt 0.476563 -1.011719
vt 0.546875 -0.964844
vt 0.562500 -0.980469
vt 0.476563 2.007813
vt 0.476563 1.984375
vt 0.566406 1.976563
vt 0.550781 1.960938
vt 0.953125 0.523438
vt 0.898438 0.523438
vt 0.851563 0.445313
vt 1.003906 0.445313
vt 0.048093 0.848540
vt 0.000000 0.767220
vt 0.151717 0.767220
vt 0.103625 0.848540
vt 0.453227 0.408464
vt 0.397694 0.408464
vt 0.349601 0.327144
vt 0.199810 0.767220
vt 0.255343 0.767220
vt 0.756661 0.408465
vt 0.701128 0.408465
vt 0.710494 0.767220
vt 0.758587 0.848540
vt 0.654961 0.767220
vt 0.852846 0.652426
vt 0.908378 0.652426
vt 0.956470 0.733746
vt 0.804753 0.733746
vt 0.604944 0.489785
vt 0.549411 0.489785
vt 0.501319 0.408464
vt 0.653036 0.408464
vt 0.701129 0.652426
vt 0.653036 0.571105
vt 0.804754 0.571105
vt 0.756662 0.652425
vt 0.710938 0.957031
vt 0.656250 0.957031
vt 0.609375 0.875000
vt 0.757813 0.875000
vt 0.414063 0.960938
vt 0.355469 0.960938
vt 0.308594 0.878906
vt 0.460938 0.878906
vt 0.806679 0.848540
vt 0.758587 0.767220
vt 0.910304 0.767220
vt 0.862212 0.848540
vt 0.806680 0.848540
vt 0.910304 0.929860
vt 0.758587 0.929860
vt 0.756661 0.327144
vt 0.804753 0.408464
vt 0.701128 0.327144
vn 0.471389 0.868282 0.154485
vn -0.001251 0.868282 0.496048
vn -0.472152 0.868282 0.152074
vn -0.290536 0.868282 -0.402051
vn 0.292581 0.868282 -0.400555
vn 0.000000 0.004883 -0.999969
vn -0.005951 0.001160 -0.999969
vn -0.007111 -0.000763 -0.999969
vn -0.008271 -0.002686 -0.999939
vn 0.005951 0.001160 -0.999969
vn 0.007111 -0.000763 -0.999969
vn 0.008271 -0.002686 -0.999939
vn 0.292581 -0.868282 -0.400555
vn -0.290536 -0.868282 -0.402051
vn -0.472152 -0.868282 0.152074
vn -0.001251 -0.868282 0.496048
vn 0.471389 -0.868282 0.154485
vn 0.000000 -0.011750 -0.999908
s 1
f 9/1/1 1/2/1 2/3/1 10/4/1
f 3/5/2 4/6/2 46/7/2 41/8/2
f 5/9/3 6/10/3 47/11/3 42/12/3
f 8/13/4 48/14/4 43/15/4 7/16/4
f 49/17/5 44/18/5 40/19/5 45/20/5
f 12/21/5 11/22/5 17/23/5 18/24/5
f 50/25/4 16/26/4 15/27/4 38/28/4
f 37/29/3 51/30/3 14/31/3 13/32/3
f 36/33/2 52/34/2 20/6/2 19/35/2
f 53/36/1 54/37/1 39/38/1 35/39/1
f 22/37/1 28/40/1 27/41/1 21/42/1
f 23/43/2 24/44/2 56/45/2 33/46/2
f 26/47/3 25/37/3 57/36/3 34/48/3
f 30/14/4 58/7/4 60/49/4 29/50/4
f 59/51/5 31/52/5 32/53/5 55/54/5
f 145/55/6 107/56/6 103/57/6
f 108/58/6 109/55/6 113/59/6
f 110/55/6 104/57/6 114/59/6
f 101/59/7 102/60/8 63/61/8 67/58/7
f 98/62/9 62/63/9 63/61/8 102/60/8
f 61/57/10 66/56/10 65/64/11 100/65/11
f 65/64/11 64/66/12 99/67/12 100/65/11
f 68/68/13 95/69/13 71/70/13 74/71/13
f 94/72/14 72/73/14 115/74/14 116/75/14
f 118/76/15 97/77/15 73/78/15 117/44/15
f 120/79/16 96/80/16 75/7/16 119/6/16
f 123/81/17 124/4/17 121/3/17 122/82/17
f 86/83/17 77/84/17 76/13/17 90/85/17
f 89/86/16 126/87/16 125/88/16 78/89/16
f 88/90/15 128/91/15 127/92/15 79/93/15
f 130/94/14 129/95/14 80/96/14 87/97/14
f 134/98/13 132/99/13 131/100/13 133/101/13
f 69/102/13 93/103/13 81/104/13 84/105/13
f 92/106/14 82/107/14 137/108/14 138/109/14
f 140/47/15 91/48/15 83/10/15 139/3/15
f 142/110/16 70/109/16 85/111/16 141/112/16
f 135/113/17 136/114/17 144/93/17 143/115/17
f 106/66/18 105/63/18 111/62/18 112/67/18
