o rr_flap2
v -0.717986 -0.000000 -2.115006
v -0.717986 -0.000000 2.115006
v -0.000001 -0.000000 2.115006
v -0.000000 -0.000000 -2.115006
v -0.000000 0.079866 -2.115006
v -0.000001 0.079867 2.115006
v -0.717986 0.079867 2.115006
v -0.717986 0.079866 -2.115006
v -0.717986 -0.000000 2.115006
v -0.717986 -0.000000 2.115006
v -0.717986 -0.000000 -2.115006
v -0.717986 -0.000000 -2.115006
v -0.000000 -0.000000 -2.115006
v -0.717986 0.079866 -2.115006
v -0.717986 0.079866 -2.115006
v -0.717986 0.079867 2.115006
v -0.000000 0.079866 -2.115006
v -0.717986 0.079867 2.115006
v -0.000001 0.079867 2.115006
v -0.000001 -0.000000 2.115006
vt 0.497313 0.006009
vt 0.497313 0.991316
vt 0.971673 0.991316
vt 0.971672 0.006009
vn 0.000000 -1.000000 0.000000
vn 0.000000 1.000000 0.000000
vn -1.000000 0.000000 0.000000
vn 0.000000 0.000000 1.000000
vn 0.000000 0.000000 -1.000000
s 1
f 2/1/1 1/2/1 4/3/1 3/4/1
f 6/4/2 5/3/2 8/2/2 7/1/2
f 16/1/3 15/2/3 12/2/3 10/1/3
f 20/4/4 19/4/4 18/1/4 9/1/4
f 13/3/5 11/2/5 14/2/5 17/3/5
