# OBJ written from C:\Users\rivalin\Desktop\pioneer\data\models\ships\(0)Ultra-Light\(0C)mining_pod\mining_pod_collision.obj

o Collision
v -1.13 -0.695 -1.5975
v 1.13 -0.695 -1.5975
v 1.13 -0.695 0.6625
v -1.13 -0.695 0.6625
v -1.13 2.695 -1.5975
v 1.13 2.695 -1.5975
v 1.13 2.695 0.6625
v -1.13 2.695 0.6625
v -1.13 1.565 -3.8575
v 1.13 1.565 -3.8575
v -2.825 1.565 -1.5975
v 2.825 1.565 -1.5975
v 2.825 1.565 0.6625
v -2.825 1.565 0.6625
v -1.13 0.435 -3.8575
v 1.13 0.435 -3.8575
v -2.825 0.435 -1.5975
v 2.825 0.435 -1.5975
v 2.825 0.435 0.6625
v -2.825 0.435 0.6625
v 2.7 1.125 0.125
v 2.7 0.875 0.125
v 2.7 0.875 -1.125
v 2.7 1.125 -1.125
v -2.7 1.125 -1.125
v -2.7 0.875 -1.125
v -2.7 0.875 0.125
v -2.7 1.125 0.125
v 3.7 1.125 0.125
v 3.7 0.875 0.125
v 3.7 0.875 -0.445
v 3.7 1.125 -0.445
v -3.7 1.125 -0.445
v -3.7 0.875 -0.445
v -3.7 0.875 0.125
v -3.7 1.125 0.125
v 2.125 0.5 0.85625
v 2.125 1.5 0.85625
v -2.125 1.5 0.85625
v -2.125 0.5 0.85625
v -1.1625 2.14167 0.85625
v -1.1625 -0.141667 0.85625
v 1.1625 -0.141667 0.85625
v 1.1625 2.14167 0.85625
v -1.1625 2.14167 2.33125
v -1.1625 -0.141667 2.33125
v 1.1625 -0.141667 2.33125
v 1.1625 2.14167 2.33125
v -2.125 0.5 2.33125
v 2.125 0.5 2.33125
v -2.125 1.5 2.33125
v 2.125 1.5 2.33125
v 1.13 2.13 1.51
v -1.13 2.13 1.51
v -1.13 -0.13 1.51
v 1.13 -0.13 1.51
v 1.9775 1.565 1.51
v 1.9775 0.435 1.51
v -1.9775 0.435 1.51
v -1.9775 1.565 1.51
vn 0 -1 0
vn 0 1 0
vn 0 0.894427 -0.447214
vn -0 -0 -1
vn -0 -0.894427 -0.447214
vn 0.8 0 -0.6
vn -0.8 -0 -0.6
vn 1 0 0
vn -1 0 0
vn 0.5547 -0.83205 0
vn -0.5547 -0.83205 0
vn 0.5547 0.83205 0
vn -0.5547 0.83205 0
vn 0.512147 0.768221 -0.384111
vn -0.512147 0.768221 -0.384111
vn 0.512148 -0.768221 -0.384111
vn -0.512148 -0.768221 -0.384111
vn 0 0 1
vn 0.56231 0 -0.826927
vn -0.56231 -0 -0.826927
vn -0.554702 0.832049 0
vn -0.5547 -0.83205 0
vn 0.5547 -0.83205 0
vn 0.554702 0.832049 0
vn 0 0.83205 0.5547
vn 0 -0.83205 0.5547
vn 0.707107 0 0.707107
vn -0.707107 0 0.707107
vn 0.485071 0.727607 0.485071
vn -0.485071 0.727607 0.485071
vn 0.485071 -0.727607 0.485071
vn -0.485071 -0.727607 0.485071
vt 0.25 0
vt 0.5 0
vt 0.5 0.333333
vt 0.25 0.333333
vt 0.25 1
vt 0.25 0.666667
vt 0.5 0.666667
vt 0.5 1
vt 1 0.666667
vt 0.75 0.666667
vt 0.75 0.555556
vt 1 0.555556
vt 0.75 0.444444
vt 1 0.444444
vt 0.75 0.333333
vt 1 0.333333
vt 0 0.555556
vt 0 0.444444
vt 0.5 0.555556
vt 0.5 0.444444
vt 0.25 0.444444
vt 0.25 0.555556
vt 0 0.333333
vt 0 0.666667
vt 0.704861 0.510417
vt 0.545139 0.510417
vt 0.545139 0.489583
vt 0.704861 0.489583
vt 0.204861 0.510417
vt 0.0451389 0.510417
vt 0.0451389 0.489583
vt 0.204861 0.489583
vt 0.25 0.626852
vt 0.25 0.373148
vt 0.5 0.373148
vt 0.5 0.626852
vt 0.25 0.611111
vt 0.5 0.611111
vt 0.5 0.388889
vt 0.25 0.388889
mtllib mining_pod_collision.mtl
usemtl hull
g Default
f 1/1/1 2/2/1 3/3/1 4/4/1
f 5/5/2 8/6/2 7/7/2 6/8/2
f 5/9/3 6/10/3 10/11/3 9/12/3
f 10/11/4 16/13/4 15/14/4 9/12/4
f 16/13/5 2/15/5 1/16/5 15/14/5
f 16/13/6 10/11/6 12/11/6 18/13/6
f 9/17/7 15/18/7 17/18/7 11/17/7
f 13/19/8 19/20/8 18/13/8 12/11/8
f 11/17/9 17/18/9 20/21/9 14/22/9
f 3/3/10 2/15/10 18/13/10 19/20/10
f 1/23/11 4/4/11 20/21/11 17/18/11
f 6/10/12 7/7/12 13/19/12 12/11/12
f 8/6/13 5/24/13 11/17/13 14/22/13
f 10/11/14 6/10/14 12/11/14
f 5/24/15 9/17/15 11/17/15
f 2/15/16 16/13/16 18/13/16
f 15/18/17 1/23/17 17/18/17
f 24/25/2 21/26/2 29/26/2 32/25/2
f 21/26/18 22/27/18 30/27/18 29/26/18
f 22/27/1 23/28/1 31/28/1 30/27/1
f 23/28/19 24/25/19 32/25/19 31/28/19
f 29/26/8 30/27/8 31/28/8 32/25/8
f 28/29/2 25/30/2 33/30/2 36/29/2
f 25/30/20 26/31/20 34/31/20 33/30/20
f 26/31/1 27/32/1 35/32/1 34/31/1
f 27/32/18 28/29/18 36/29/18 35/32/18
f 33/30/9 34/31/9 35/32/9 36/29/9
f 41/33/21 39/22/21 51/22/21 45/33/21
f 40/21/22 42/34/22 46/34/22 49/21/22
f 39/22/9 40/21/9 49/21/9 51/22/9
f 43/35/23 37/20/23 50/20/23 47/35/23
f 37/20/8 38/19/8 52/19/8 50/20/8
f 38/19/24 44/36/24 48/36/24 52/19/24
f 47/35/1 46/34/1 42/34/1 43/35/1
f 44/36/2 41/33/2 45/33/2 48/36/2
f 50/20/18 52/19/18 48/36/18 45/33/18 51/22/18 49/21/18 46/34/18 47/35/18
f 8/6/25 54/37/25 53/38/25 7/7/25
f 3/3/26 56/39/26 55/40/26 4/4/26
f 19/20/27 13/19/27 57/19/27 58/20/27
f 14/22/28 20/21/28 59/21/28 60/22/28
f 13/19/29 7/7/29 53/38/29 57/19/29
f 14/22/30 60/22/30 54/37/30 8/6/30
f 19/20/31 58/20/31 56/39/31 3/3/31
f 20/21/32 4/4/32 55/40/32 59/21/32
