# Blender v2.59 (sub 0) OBJ File: 'wyvern.blend'
# www.blender.org
o wyvern_collision_wyvernexplorer_wy.001
v -0.000004 -3.342530 -7.966246
v 1.699466 -5.260533 5.452587
v -1.699480 -5.260529 5.452587
v -3.825463 -4.763019 0.597051
v 3.825450 -4.763029 0.597051
v -16.663343 -3.662726 8.837902
v -16.870260 -3.639941 6.388269
v -3.632243 -4.143492 10.293753
v -6.252856 -3.221117 0.716238
v 16.870251 -3.639984 6.388269
v 16.663334 -3.662769 8.837902
v 3.632233 -4.143501 10.293753
v 6.252848 -3.221133 0.716238
v 2.526446 -5.223196 8.388827
v -2.526460 -5.223189 8.388827
v 0.000006 4.609249 7.608726
v 0.000007 5.260521 9.894612
v -0.000002 -1.767263 -10.236067
v 2.341234 -2.126516 -6.498682
v -2.341239 -2.126510 -6.498682
v -2.541708 2.542211 1.748595
v -2.997312 0.966807 5.510857
v 2.541714 2.542205 1.748595
v 2.997314 0.966800 5.510857
vn -0.082522 -0.546525 0.833338
vn 0.082522 -0.546525 0.833338
vn 0.000000 0.860561 0.509293
vn 0.049806 -0.977294 0.205817
vn -0.049806 -0.977294 0.205817
vn 0.974944 -0.128697 -0.181280
vn 0.719352 -0.124821 0.683279
vn -0.719352 -0.124821 0.683279
vn -0.974944 -0.128697 -0.181280
vn -0.071841 -0.995361 -0.063662
vn 0.071841 -0.995361 -0.063662
vn -0.358592 -0.924009 -0.132542
vn 0.358592 -0.924009 -0.132542
vn 0.822077 -0.211921 -0.528398
vn -0.822077 -0.211890 -0.528398
vn 0.000000 0.949156 -0.314737
vn 0.600818 0.719565 -0.348125
vn -0.600818 0.719565 -0.348125
vn -0.522538 0.830226 -0.194006
vn 0.522538 0.830226 -0.194006
vn 0.000000 0.038972 -0.999237
vn -0.864528 -0.091311 -0.494186
vn 0.864528 -0.091311 -0.494186
vn 0.000000 -0.877499 -0.479568
usemtl wyvernexplorer_auv
s 1
f 8//1 12//2 17//3
f 14//4 12//2 8//1
f 14//4 8//1 15//5
f 10//6 17//3 11//7
f 6//8 17//3 7//9
f 6//8 8//1 17//3
f 6//8 7//9 15//5
f 6//8 15//5 8//1
f 14//4 15//5 3//10
f 14//4 3//10 2//11
f 2//11 3//10 4//12
f 2//11 4//12 5//13
f 11//7 17//3 12//2
f 10//6 11//7 12//2
f 10//6 12//2 14//4
f 2//11 13//14 10//6
f 3//10 7//9 9//15
f 3//10 9//15 4//12
f 2//11 5//13 13//14
f 3//10 15//5 7//9
f 2//11 10//6 14//4
f 7//9 17//3 16//16
f 10//6 16//16 17//3
f 10//6 24//17 16//16
f 7//9 16//16 22//18
f 16//16 21//19 22//18
f 16//16 24//17 23//20
f 9//15 22//18 21//19
f 7//9 22//18 9//15
f 16//16 18//21 21//19
f 16//16 23//20 18//21
f 18//21 20//22 9//15
f 18//21 9//15 21//19
f 18//21 23//20 13//14
f 18//21 13//14 19//23
f 10//6 13//14 24//17
f 13//14 23//20 24//17
f 1//24 5//13 4//12
f 1//24 4//12 9//15
f 1//24 9//15 20//22
f 1//24 19//23 13//14
f 1//24 13//14 5//13
f 1//24 18//21 19//23
f 1//24 20//22 18//21
