# Blender v2.59 (sub 0) OBJ File: 'wyvern.blend'
# www.blender.org
o wyvern_gear15_wyvernexplorer_wy.020
v 1.699466 -5.260533 5.452587
v 2.016333 -4.772229 0.674475
v -1.699480 -5.260529 5.452587
v -2.016345 -4.772224 0.674475
v -0.000007 -5.260530 5.452587
v -0.000006 -4.772227 0.674475
v 1.468310 -5.187287 4.735870
v 1.690117 -4.845475 1.391192
v 0.278679 -5.187285 4.735870
v 0.278680 -4.845473 1.391192
v -1.468324 -5.187283 4.735870
v -1.690129 -4.845470 1.391192
v -0.278693 -5.187284 4.735870
v -0.278692 -4.845472 1.391192
v -1.468322 -4.093800 4.735870
v -0.278691 -4.093801 4.735870
v -1.690128 -3.751987 1.391192
v -0.278691 -3.751988 1.391192
v 1.468312 -4.093803 4.735870
v 0.278681 -4.093802 4.735870
v 1.690118 -3.751991 1.391192
v 0.278681 -3.751989 1.391192
v 1.295211 -4.038165 4.162015
v 1.444810 -3.807629 1.965047
v 0.492859 -4.038164 4.162015
v 0.492860 -3.807627 1.965047
v -1.295221 -4.038162 4.162014
v -1.444819 -3.807625 1.965047
v -0.492869 -4.038163 4.162014
v -0.492869 -3.807626 1.965047
v -1.295223 -5.550546 4.162014
v -0.492871 -5.550547 4.162014
v -1.444821 -5.320009 1.965047
v -0.492871 -5.320010 1.965047
v 1.295210 -5.550550 4.162014
v 0.492857 -5.550548 4.162014
v 1.444808 -5.320013 1.965047
v 0.492858 -5.320011 1.965047
v 1.477097 -5.955609 4.711257
v 1.701495 -5.609804 1.415806
v 0.273569 -5.955607 4.711257
v 0.273570 -5.609802 1.415806
v -1.477112 -5.955605 4.711256
v -1.701509 -5.609799 1.415806
v -0.273584 -5.955606 4.711256
v -0.273584 -5.609801 1.415806
v -1.477112 -6.054921 4.711256
v -0.273584 -6.054923 4.711256
v -1.701509 -5.709116 1.415805
v -0.273584 -5.709118 1.415805
v 1.477097 -6.054925 4.711256
v 0.273569 -6.054924 4.711256
v 1.701495 -5.709120 1.415806
v 0.273569 -5.709118 1.415806
vt 0.000000 0.000000
vt 1.000000 0.000000
vt 1.000000 1.000000
vt 0.000000 1.000000
vn 0.000000 -0.994812 -0.101657
vn -0.276559 -0.872036 -0.403790
vn -0.325205 -0.926359 0.189856
vn 0.328227 -0.919950 0.214209
vn 0.275948 -0.880642 -0.385052
vn 0.325205 -0.926359 0.189856
vn 0.276528 -0.872036 -0.403790
vn -0.275948 -0.880642 -0.385052
vn -0.328227 -0.919950 0.214209
vn 0.561571 -0.548143 -0.619770
vn -0.583544 -0.545366 -0.601672
vn -0.571368 -0.608051 0.551164
vn 0.591052 -0.603870 0.534745
vn 0.583544 -0.545366 -0.601672
vn -0.561571 -0.548143 -0.619770
vn -0.591052 -0.603870 0.534745
vn 0.571368 -0.608051 0.551164
vn 0.330058 -0.912717 0.240761
vn 0.273751 -0.889889 -0.364849
vn -0.275582 -0.881252 -0.383953
vn -0.328562 -0.919553 0.215461
vn -0.273751 -0.889889 -0.364849
vn -0.330058 -0.912717 0.240761
vn 0.328562 -0.919553 0.215461
vn 0.275582 -0.881252 -0.383953
vn -0.654103 0.513352 0.555498
vn 0.667104 0.530015 0.523453
vn 0.703513 0.562243 -0.434645
vn -0.712485 0.578814 -0.396588
vn -0.667104 0.530015 0.523453
vn 0.654103 0.513352 0.555498
vn 0.712485 0.578814 -0.396588
vn -0.703513 0.562243 -0.434645
vn 0.604907 0.381726 0.698813
vn 0.644093 0.444624 -0.622425
vn -0.622303 0.442854 -0.645436
vn -0.628742 0.384350 0.675924
vn -0.644093 0.444624 -0.622425
vn -0.604907 0.381726 0.698813
vn 0.628742 0.384350 0.675924
vn 0.622303 0.442854 -0.645436
vn -0.551256 -0.613941 0.564928
vn 0.572039 -0.609485 0.548875
vn 0.583026 -0.543657 -0.603687
vn -0.604907 -0.541124 -0.584155
vn -0.572039 -0.609485 0.548875
vn 0.551256 -0.613941 0.564928
vn 0.604907 -0.541124 -0.584155
vn -0.583026 -0.543657 -0.603687
usemtl (null)
s 1
f 1/1/1 7/2/2 8/3/3
f 1/1/1 8/3/3 2/4/1
f 6/1/1 10/2/4 9/3/5
f 6/1/1 9/3/5 5/4/1
f 2/1/1 8/2/3 10/3/4
f 2/1/1 10/3/4 6/4/1
f 7/3/2 1/4/1 5/1/1
f 7/3/2 5/1/1 9/2/5
f 4/1/1 12/4/6 11/3/7
f 4/1/1 11/3/7 3/2/1
f 5/1/1 13/4/8 14/3/9
f 5/1/1 14/3/9 6/2/1
f 6/1/1 14/4/9 12/3/6
f 6/1/1 12/3/6 4/2/1
f 3/1/1 11/4/7 13/3/8
f 3/1/1 13/3/8 5/2/1
f 11/1/7 15/4/10 16/3/11
f 11/1/7 16/3/11 13/2/8
f 14/1/9 18/4/12 17/3/13
f 14/1/9 17/3/13 12/2/6
f 13/1/8 16/4/11 18/3/12
f 13/1/8 18/3/12 14/2/9
f 12/1/6 17/4/13 15/3/10
f 12/1/6 15/3/10 11/2/7
f 9/1/5 20/2/14 19/3/15
f 9/1/5 19/3/15 7/4/2
f 8/1/3 21/2/16 22/3/17
f 8/1/3 22/3/17 10/4/4
f 10/1/4 22/2/17 20/3/14
f 10/1/4 20/3/14 9/4/5
f 7/1/2 19/2/15 21/3/16
f 7/1/2 21/3/16 8/4/3
f 21/1/16 19/2/15 23/3/18
f 21/1/16 23/3/18 24/4/19
f 20/1/14 22/2/17 26/3/20
f 20/1/14 26/3/20 25/4/21
f 22/1/17 21/2/16 24/3/19
f 22/1/17 24/3/19 26/4/20
f 19/1/15 20/2/14 25/3/21
f 19/1/15 25/3/21 23/4/18
f 15/1/10 17/4/13 28/3/22
f 15/1/10 28/3/22 27/2/23
f 18/1/12 16/4/11 29/3/24
f 18/1/12 29/3/24 30/2/25
f 17/1/13 18/4/12 30/3/25
f 17/1/13 30/3/25 28/2/22
f 16/1/11 15/4/10 27/3/23
f 16/1/11 27/3/23 29/2/24
f 29/1/24 27/4/23 31/3/26
f 29/1/24 31/3/26 32/2/27
f 28/1/22 30/4/25 34/3/28
f 28/1/22 34/3/28 33/2/29
f 30/1/25 29/4/24 32/3/27
f 30/1/25 32/3/27 34/2/28
f 27/1/23 28/4/22 33/3/29
f 27/1/23 33/3/29 31/2/26
f 23/1/18 25/2/21 36/3/30
f 23/1/18 36/3/30 35/4/31
f 26/1/20 24/2/19 37/3/32
f 26/1/20 37/3/32 38/4/33
f 25/1/21 26/2/20 38/3/33
f 25/1/21 38/3/33 36/4/30
f 24/1/19 23/2/18 35/3/31
f 24/1/19 35/3/31 37/4/32
f 37/1/32 35/2/31 39/3/34
f 37/1/32 39/3/34 40/4/35
f 36/1/30 38/2/33 42/3/36
f 36/1/30 42/3/36 41/4/37
f 38/1/33 37/2/32 40/3/35
f 38/1/33 40/3/35 42/4/36
f 35/1/31 36/2/30 41/3/37
f 35/1/31 41/3/37 39/4/34
f 31/1/26 33/4/29 44/3/38
f 31/1/26 44/3/38 43/2/39
f 34/1/28 32/4/27 45/3/40
f 34/1/28 45/3/40 46/2/41
f 33/1/29 34/4/28 46/3/41
f 33/1/29 46/3/41 44/2/38
f 32/1/27 31/4/26 43/3/39
f 32/1/27 43/3/39 45/2/40
f 45/1/40 43/4/39 47/3/42
f 45/1/40 47/3/42 48/2/43
f 44/1/38 46/4/41 50/3/44
f 44/1/38 50/3/44 49/2/45
f 46/1/41 45/4/40 48/3/43
f 46/1/41 48/3/43 50/2/44
f 43/1/39 44/4/38 49/3/45
f 43/1/39 49/3/45 47/2/42
f 39/1/34 41/2/37 52/3/46
f 39/1/34 52/3/46 51/4/47
f 42/1/36 40/2/35 53/3/48
f 42/1/36 53/3/48 54/4/49
f 41/1/37 42/2/36 54/3/49
f 41/1/37 54/3/49 52/4/46
f 40/1/35 39/2/34 51/3/47
f 40/1/35 51/3/47 53/4/48
f 47/1/42 49/4/45 50/3/44
f 47/1/42 50/3/44 48/2/43
f 51/1/47 52/2/46 54/3/49
f 51/1/47 54/3/49 53/4/48
