# Blender v2.59 (sub 0) OBJ File: 'wyvern.blend'
# www.blender.org
o wyvern_window_wyvernexplorer_wy.002
v 0.624696 0.068485 -2.711343
v 0.624696 0.277891 -2.711343
v -0.624696 0.277893 -2.711343
v -0.624696 0.068487 -2.711343
v -0.469803 0.277893 -2.989149
v -0.469548 0.020931 -2.989983
v -0.172047 0.277892 -3.158085
v -0.171861 -0.007894 -3.158880
v 0.469548 0.020929 -2.989983
v 0.469803 0.277891 -2.989149
v 0.172047 0.277892 -3.158085
v 0.171861 -0.007894 -3.158880
vt 0.417969 0.007812
vt 0.421875 0.000000
vt 0.425781 0.007812
vt 0.417969 0.000000
vt 0.425781 0.035156
vt 0.417969 0.046875
vt 0.417969 0.035156
vt 0.425781 0.042969
vt 0.417969 0.027344
vt 0.421875 0.027344
vt 0.417969 0.015625
vt 0.421875 0.015625
vn 0.710135 0.001373 -0.704031
vn 0.873501 0.000275 -0.486801
vn 0.694388 0.001617 -0.719565
vn 0.873409 0.000000 -0.486953
vn -0.694357 0.001434 -0.719596
vn -0.873562 0.000305 -0.486679
vn -0.710074 0.001556 -0.704093
vn -0.873684 0.000000 -0.486465
vn -0.255318 0.002564 -0.966826
vn -0.247841 0.002533 -0.968780
vn 0.255379 0.002503 -0.966826
vn 0.247902 0.002564 -0.968780
usemtl (null)
s 1
f 10/1/1 1/2/2 9/3/3
f 2/4/4 1/2/2 10/1/1
f 6/5/5 3/6/6 5/7/7
f 6/5/5 4/8/8 3/6/6
f 6/5/5 7/9/9 8/10/10
f 6/5/5 5/7/7 7/9/9
f 8/10/10 11/11/11 12/12/12
f 8/10/10 7/9/9 11/11/11
f 12/12/12 10/1/1 9/3/3
f 12/12/12 11/11/11 10/1/1
