# Blender v2.59 (sub 0) OBJ File: 'wyvern.blend'
# www.blender.org
o wyvern_scoop_wyvernexplorer_wy.003
v 0.219375 -3.737200 -4.154813
v -0.000005 -3.737199 -4.154813
v -0.219385 -3.737199 -4.154813
v -0.438766 -3.737199 -4.154813
v 0.438756 -3.737200 -4.154813
v -0.338691 -4.189945 -3.940067
v -0.176148 -4.222305 -3.980587
v -0.000005 -4.226796 -3.986210
v 0.176138 -4.222306 -3.980587
v 0.338681 -4.189946 -3.940066
vt 0.750000 0.000000
vt 1.000000 0.000000
vt 1.000000 1.000000
vt 0.750000 1.000000
vt 1.000000 0.750000
vt 0.000000 1.000000
vt 0.000000 0.750000
vn -0.130009 -0.396710 -0.908658
vn -0.076754 -0.367107 -0.926969
vn -0.068667 -0.362499 -0.929441
vn 0.000000 -0.332469 -0.943083
vn 0.076754 -0.367107 -0.926969
vn 0.068667 -0.362499 -0.929441
vn 0.130009 -0.396710 -0.908658
usemtl wyvernexplorer_auv
s 1
f 4/1/1 3/2/2 7/3/3
f 4/1/1 7/3/3 6/4/1
f 3/5/2 2/3/4 8/6/4
f 3/5/2 8/6/4 7/7/3
f 2/7/4 1/6/5 9/3/6
f 2/7/4 9/3/6 8/5/4
f 1/5/5 5/3/7 10/6/7
f 1/5/5 10/6/7 9/7/6
