o thrust_s1
v -12.833670 -1.000000 -6.500051
v -12.833670 -1.000000 -7.500051
v -12.833670 -2.000000 -6.500051
v -14.000330 -2.000000 -7.800051
v -12.833670 -2.000000 -7.500051
v -14.000330 -2.000000 -6.200041
v -12.833670 -1.000000 7.999969
v -12.833670 -1.000000 6.999969
v -14.000330 -2.000000 6.699978
v -12.833670 -2.000000 6.999969
v -14.000330 -2.000000 8.299978
v -12.833670 -2.000000 7.999969
v 12.833670 -2.000000 7.999969
v 12.833670 -2.000000 6.999969
v 14.000340 -2.000000 6.699968
v 12.833670 -1.000000 6.999969
v 14.000340 -2.000000 8.299978
v 12.833670 -1.000000 7.999969
v 12.833670 -1.000000 -6.500051
v 12.833670 -1.000000 -7.500051
v 12.833670 -2.000000 -6.500051
v 12.833670 -2.000000 -7.500051
v 14.000340 -2.000000 -7.800062
v 14.000340 -2.000000 -6.200041
v 12.833670 -1.000000 -7.500051
v 12.833670 -2.000000 -7.500051
v 12.833670 -1.000000 -6.500051
v 12.833670 -2.000000 -6.500051
v 12.833670 -2.000000 7.999969
v 12.833670 -1.000000 7.999969
v 12.833670 -2.000000 6.999969
v 12.833670 -1.000000 6.999969
v -12.833670 -1.000000 7.999969
v -12.833670 -2.000000 7.999969
v -12.833670 -1.000000 6.999969
v -12.833670 -2.000000 6.999969
v -12.833670 -1.000000 -6.500051
v -12.833670 -2.000000 -6.500051
v -12.833670 -1.000000 -7.500051
v -12.833670 -2.000000 -7.500051
vt 0.402217 0.682075
vt 0.494768 0.589524
vt 0.494768 0.682075
vt 0.647034 0.885951
vt 0.647034 0.978502
vt 0.554483 0.978502
vt 0.554483 0.885951
vn -0.249031 0.000000 0.968474
vn -0.249031 0.000000 -0.968474
vn 0.249031 0.000000 0.968474
vn 0.249031 0.000000 -0.968474
vn 1.000000 0.000000 0.000000
vn -1.000000 0.000000 0.000000
s 1
f 4/1/1 40/2/1 39/3/1
f 6/1/2 37/2/2 38/3/2
f 9/1/1 36/2/1 35/3/1
f 11/1/2 33/2/2 34/3/2
f 15/1/3 32/3/3 31/2/3
f 17/1/4 29/3/4 30/2/4
f 23/1/3 25/3/3 26/2/3
f 24/1/4 28/3/4 27/2/4
f 19/4/5 21/5/5 22/6/5 20/7/5
f 18/4/5 13/5/5 14/6/5 16/7/5
f 7/4/6 8/7/6 10/6/6 12/5/6
f 1/4/6 2/7/6 5/6/6 3/5/6
