o thrust_tb
v -7.559161 -2.000000 -9.393270
v -8.440840 -2.000000 -9.393270
v -8.222108 -2.150002 -9.694323
v -8.713292 -2.000001 -10.231791
v -8.000000 -2.000000 -10.750032
v -7.640622 -2.150002 -10.116800
v -7.286708 -2.000000 -10.231791
v -7.559161 -1.999998 12.606739
v -7.777892 -2.150000 12.305678
v -8.440839 -1.999999 12.606739
v -8.359378 -2.150000 11.883199
v -8.713292 -2.000000 11.768209
v -8.000000 -2.000000 11.249969
v -7.286707 -1.999999 11.768209
v -6.000000 4.000000 -3.000031
v -6.000000 4.000000 -3.750031
v -6.000000 4.150001 -3.377901
v -6.713293 4.000000 -3.231791
v -6.440839 4.000000 -2.393271
v -5.777892 4.150001 -2.694321
v -5.559161 4.000000 -2.393271
v -5.286707 4.000000 -3.231791
v -5.640622 4.150001 -3.116802
v 8.222108 -2.150000 12.305678
v 8.440840 -1.999999 12.606739
v 7.777893 -2.150000 12.305678
v 7.559161 -1.999999 12.606739
v 7.640623 -2.150000 11.883199
v 7.286708 -2.000000 11.768209
v 8.359379 -2.150000 11.883199
v 8.000000 -2.000000 11.249969
v 8.713293 -1.999999 11.768209
v 8.440840 -2.000000 -9.393270
v 8.222109 -2.150002 -9.694323
v 8.713293 -2.000000 -10.231791
v 7.559161 -2.000001 -9.393270
v 7.640622 -2.150002 -10.116800
v 7.777893 -2.150002 -9.694323
v 8.000001 -2.150002 -10.377901
v 7.286708 -2.000001 -10.231791
v 8.000001 -2.000001 -10.750032
v 8.359379 -2.150002 -10.116800
v -6.000000 4.000000 11.249969
v -5.286708 4.000000 11.768209
v -6.440839 4.000000 12.606739
v -6.222108 4.150002 12.305678
v -6.713293 4.000000 11.768209
v -6.359378 4.150002 11.883199
v -5.777892 4.150002 12.305678
v -5.640622 4.150002 11.883199
v -5.559161 4.000000 12.606739
v 6.713293 4.000000 11.768209
v 6.359378 4.150002 11.883199
v 6.000000 4.150002 11.622099
v 6.000000 4.000000 11.249969
v 5.640622 4.150002 11.883199
v 5.286707 4.000001 11.768209
v 5.777892 4.150002 12.305678
v 6.222108 4.150002 12.305678
v 5.559161 4.000001 12.606739
v 6.440839 4.000000 12.606739
v 6.713292 3.999999 -3.231791
v 6.000000 4.000000 -3.750031
v 5.286707 4.000000 -3.231791
v 5.640622 4.150000 -3.116802
v 5.777892 4.150000 -2.694321
v 5.559161 4.000000 -2.393271
v 6.359378 4.150000 -3.116802
v 6.440839 4.000000 -2.393271
v -10.266670 -2.000000 -13.000002
v -12.133330 -2.000000 -11.000002
v -10.266670 -1.040003 -11.000002
v -10.266670 -2.000000 -11.000002
v 10.266730 -2.000002 -10.999990
v 10.266730 -2.000002 -12.999990
v 12.133390 -2.000002 -10.999990
v 10.266730 -1.040004 -10.999990
v -7.640622 -2.150002 -10.116800
v -7.640622 -2.150002 -10.116800
v -8.000000 -2.000000 -10.000032
v -8.222108 -2.150002 -9.694323
v -8.440840 -2.000000 -9.393270
v -7.777892 -2.150002 -9.694323
v -7.777892 -2.150002 -9.694323
v -7.559161 -2.000000 -9.393270
v -7.777892 -2.150002 -9.694323
v -8.000000 -2.150002 -10.377901
v -8.000000 -2.150002 -10.377901
v -8.000000 -2.150002 -10.377901
v -8.359378 -2.150002 -10.116800
v -8.359378 -2.150002 -10.116800
v -8.359378 -2.150002 -10.116800
v -8.222108 -2.150002 -9.694323
v -8.713292 -2.000001 -10.231791
v -8.000000 -2.000000 -10.750032
v -7.286708 -2.000000 -10.231791
v -8.440839 -1.999999 12.606739
v -8.222108 -2.150000 12.305678
v -8.222108 -2.150000 12.305678
v -8.000000 -1.999999 11.999969
v -8.000000 -2.150000 11.622099
v -8.000000 -2.150000 11.622099
v -8.000000 -2.000000 11.249969
v -8.359378 -2.150000 11.883199
v -8.359378 -2.150000 11.883199
v -8.713292 -2.000000 11.768209
v -7.640622 -2.150000 11.883199
v -7.640622 -2.150000 11.883199
v -7.640622 -2.150000 11.883199
v -7.777892 -2.150000 12.305678
v -7.777892 -2.150000 12.305678
v -7.559161 -1.999998 12.606739
v -8.222108 -2.150000 12.305678
v -8.000000 -2.150000 11.622099
v -7.286707 -1.999999 11.768209
v -6.713293 4.000000 -3.231791
v -6.359378 4.150001 -3.116802
v -6.359378 4.150001 -3.116802
v -5.777892 4.150001 -2.694321
v -5.559161 4.000000 -2.393271
v -6.222108 4.150001 -2.694321
v -6.222108 4.150001 -2.694321
v -6.440839 4.000000 -2.393271
v -6.222108 4.150001 -2.694321
v 8.440840 -2.000000 -9.393270
v 8.222109 -2.150002 -9.694323
v 8.222109 -2.150002 -9.694323
v 8.359379 -2.150002 -10.116800
v 8.000001 -2.150002 -10.377901
v 8.000001 -2.150002 -10.377901
v 8.000001 -2.000001 -10.750032
v 7.640622 -2.150002 -10.116800
v 7.640622 -2.150002 -10.116800
v 7.286708 -2.000001 -10.231791
v 7.777893 -2.150002 -9.694323
v 7.777893 -2.150002 -9.694323
v 7.559161 -2.000001 -9.393270
v -6.440839 4.000000 12.606739
v -6.222108 4.150002 12.305678
v -6.222108 4.150002 12.305678
v -6.359378 4.150002 11.883199
v -6.359378 4.150002 11.883199
v -6.713293 4.000000 11.768209
v -6.000000 4.150002 11.622099
v -6.000000 4.150002 11.622099
v -6.000000 4.150002 11.622099
v -6.000000 4.000000 11.999969
v -5.777892 4.150002 12.305678
v -5.777892 4.150002 12.305678
v -5.559161 4.000000 12.606739
v -5.640622 4.150002 11.883199
v -6.000000 4.000000 11.249969
v 6.713293 4.000000 11.768209
v 6.359378 4.150002 11.883199
v 6.000000 4.000000 11.999969
v 6.000000 4.150002 11.622099
v 6.000000 4.000000 11.249969
v 5.640622 4.150002 11.883199
v 5.640622 4.150002 11.883199
v 5.777892 4.150002 12.305678
v 5.777892 4.150002 12.305678
v 6.222108 4.150002 12.305678
v 6.222108 4.150002 12.305678
v 6.440839 4.000000 12.606739
v 5.559161 4.000001 12.606739
v 5.286707 4.000001 11.768209
v 5.777892 4.150000 -2.694321
v 5.777892 4.150000 -2.694321
v 5.640622 4.150000 -3.116802
v 5.640622 4.150000 -3.116802
v 5.286707 4.000000 -3.231791
v 6.000000 4.150000 -3.377901
v 6.000000 4.150000 -3.377901
v 6.000000 4.150000 -3.377901
v 6.000000 4.000000 -3.000031
v 6.222108 4.150000 -2.694321
v 6.222108 4.150000 -2.694321
v 6.222108 4.150000 -2.694321
v 6.440839 4.000000 -2.393271
v 6.359378 4.150000 -3.116802
v 6.000000 4.000000 -3.750031
v 5.559161 4.000000 -2.393271
v -10.266670 -1.040003 -11.000002
v -10.266670 -2.000000 -11.000002
v 10.266730 -2.000002 -10.999990
v 10.266730 -1.040004 -10.999990
v 6.713292 3.999999 -3.231791
v 6.359378 4.150000 -3.116802
v 6.359378 4.150002 11.883199
v 6.000000 4.150002 11.622099
v -5.286708 4.000000 11.768209
v -5.640622 4.150002 11.883199
v 8.713293 -2.000000 -10.231791
v 8.359379 -2.150002 -10.116800
v 8.000000 -2.000000 11.999969
v 8.222108 -2.150000 12.305678
v 8.222108 -2.150000 12.305678
v 8.440840 -1.999999 12.606739
v 7.777893 -2.150000 12.305678
v 7.777893 -2.150000 12.305678
v 7.640623 -2.150000 11.883199
v 7.640623 -2.150000 11.883199
v 8.000001 -2.150000 11.622099
v 8.000001 -2.150000 11.622099
v 8.359379 -2.150000 11.883199
v 8.359379 -2.150000 11.883199
v 8.713293 -1.999999 11.768209
v 8.000000 -2.000000 11.249969
v 7.286708 -2.000000 11.768209
v 7.559161 -1.999999 12.606739
v 8.000001 -2.150000 11.622099
v -6.000000 4.150001 -3.377901
v -6.000000 4.000000 -3.750031
v -6.359378 4.150001 -3.116802
v -5.640622 4.150001 -3.116802
v -5.640622 4.150001 -3.116802
v -6.000000 4.150001 -3.377901
v -5.286707 4.000000 -3.231791
v -5.777892 4.150001 -2.694321
v 8.000000 -2.000000 -10.000032
vt 0.494123 0.650927
vt 0.485699 0.657334
vt 0.485699 0.648061
vt 0.477275 0.650927
vt 0.480493 0.640559
vt 0.490905 0.640559
vt 0.347491 0.506043
vt 0.347491 0.847116
vt 0.185882 0.506043
vt 0.812826 0.504836
vt 0.347328 0.846723
vt 0.347328 0.504836
vt 0.600324 0.423164
vt 0.651166 0.503284
vt 0.651166 0.665998
vt 0.600324 0.746118
vt 0.741933 0.845916
vt 0.722513 0.716279
vt 0.766607 0.584641
vt 0.829451 0.584641
vt 0.722513 0.453003
vt 0.741933 0.323366
vn -0.350871 -0.929441 0.113987
vn -0.216865 -0.929441 -0.298471
vn 0.000000 -1.000000 0.000000
vn 0.216865 -0.929441 -0.298471
vn 0.350871 -0.929441 0.113987
vn 0.000000 -0.929441 0.368938
vn -0.350871 0.929441 0.113987
vn 0.000000 0.929441 0.368938
vn 0.000000 1.000000 0.000000
vn 0.350871 0.929441 0.113987
vn 0.216865 0.929441 -0.298471
vn -0.216865 0.929441 -0.298471
vn -1.000000 0.000000 0.000000
vn 0.000000 0.000000 -1.000000
vn 1.000000 0.000000 0.000000
vn -0.262123 -0.895047 -0.360759
vn 0.000000 -0.895047 0.445936
vn -0.424116 -0.895047 0.137791
vn 0.262123 0.895047 -0.360759
vn 0.424116 0.895047 0.137791
vn -0.424116 0.895047 0.137791
vn 0.000000 0.895047 0.445936
vn -0.262123 0.895047 -0.360759
vn 0.262123 -0.895047 -0.360759
vn 0.424116 -0.895047 0.137791
s 1
f 6/1/1 86/2/2 80/3/3
f 86/2/2 93/4/4 80/3/3
f 93/4/4 91/5/5 80/3/3
f 91/5/5 89/6/6 80/3/3
f 89/6/6 6/1/1 80/3/3
f 108/1/1 111/2/2 100/3/3
f 111/2/2 98/4/4 100/3/3
f 98/4/4 11/5/5 100/3/3
f 11/5/5 102/6/6 100/3/3
f 102/6/6 108/1/1 100/3/3
f 216/1/7 217/2/8 15/3/9
f 217/2/8 117/4/10 15/3/9
f 117/4/10 124/5/11 15/3/9
f 124/5/11 219/6/12 15/3/9
f 219/6/12 216/1/7 15/3/9
f 30/1/1 197/2/2 195/3/3
f 197/2/2 26/4/4 195/3/3
f 26/4/4 28/5/5 195/3/3
f 28/5/5 211/6/6 195/3/3
f 211/6/6 30/1/1 195/3/3
f 128/1/1 127/2/2 220/3/3
f 127/2/2 38/4/4 220/3/3
f 38/4/4 37/5/5 220/3/3
f 37/5/5 129/6/6 220/3/3
f 129/6/6 128/1/1 220/3/3
f 151/1/7 145/2/8 147/3/9
f 145/2/8 142/4/10 147/3/9
f 142/4/10 140/5/11 147/3/9
f 140/5/11 49/6/12 147/3/9
f 49/6/12 151/1/7 147/3/9
f 189/1/7 190/2/8 155/3/9
f 190/2/8 56/4/10 155/3/9
f 56/4/10 58/5/11 155/3/9
f 58/5/11 59/6/12 155/3/9
f 59/6/12 189/1/7 155/3/9
f 180/1/7 173/2/8 175/3/9
f 173/2/8 170/4/10 175/3/9
f 170/4/10 168/5/11 175/3/9
f 168/5/11 176/6/12 175/3/9
f 176/6/12 180/1/7 175/3/9
f 73/7/13 72/8/13 70/9/13
f 71/10/14 183/11/14 184/12/14
f 74/7/15 75/9/15 77/8/15
f 76/10/14 185/12/14 186/11/14
f 5/13/16 88/14/16 90/15/16 94/16/16
f 103/13/16 101/14/16 104/15/16 106/16/16
f 27/17/17 200/18/17 196/19/17 198/20/17
f 29/16/18 202/15/18 199/18/18 210/17/18
f 43/20/19 146/19/19 50/21/19 44/22/19
f 148/14/20 150/13/20 191/22/20 192/21/20
f 60/16/21 161/15/21 158/18/21 166/17/21
f 177/14/20 179/13/20 187/22/20 188/21/20
f 69/13/22 178/14/22 167/15/22 182/16/22
f 67/16/21 66/15/21 65/18/21 64/17/21
f 171/17/23 169/18/23 172/19/23 181/20/23
f 63/20/19 174/19/19 68/21/19 62/22/19
f 162/14/20 164/13/20 153/22/20 154/21/20
f 61/13/22 163/14/22 160/15/22 165/16/22
f 57/17/23 159/18/23 156/19/23 157/20/23
f 55/20/19 54/19/19 53/21/19 52/22/19
f 51/13/22 149/14/22 139/15/22 138/16/22
f 45/16/21 46/15/21 48/18/21 47/17/21
f 143/17/23 141/18/23 144/19/23 152/20/23
f 39/14/24 41/13/24 193/22/24 194/21/24
f 131/13/16 130/14/16 132/15/16 134/16/16
f 40/16/18 133/15/18 135/18/18 137/17/18
f 36/17/17 136/18/17 126/19/17 125/20/17
f 33/20/25 34/19/25 42/21/25 35/22/25
f 203/14/24 208/13/24 207/22/24 205/21/24
f 31/13/16 204/14/16 201/15/16 209/16/16
f 25/20/25 24/19/25 206/21/25 32/22/25
f 20/14/20 21/13/20 218/22/20 215/21/20
f 120/13/22 119/14/22 121/15/22 123/16/22
f 19/16/21 122/15/21 118/18/21 116/17/21
f 18/17/23 214/18/23 212/19/23 213/20/23
f 16/20/19 17/19/19 23/21/19 22/22/19
f 114/14/24 13/13/24 115/22/24 107/21/24
f 12/16/18 105/15/18 99/18/18 97/17/18
f 10/17/17 113/18/17 110/19/17 112/20/17
f 8/20/25 9/19/25 109/21/25 14/22/25
f 87/14/24 95/13/24 96/22/24 78/21/24
f 4/16/18 92/15/18 3/18/18 2/17/18
f 82/17/17 81/18/17 83/19/17 85/20/17
f 1/20/25 84/19/25 79/21/25 7/22/25
