o sd_scoop
v 0.487950 0.008886 0.845153
v 0.690065 0.008886 0.690064
v 0.845154 0.008886 0.487949
v 0.942646 0.008886 0.252581
v 0.975899 0.008886 -0.000001
v 0.942646 0.008886 -0.252582
v 0.845153 0.008886 -0.487950
v 0.690065 0.008886 -0.690065
v 0.487949 0.008886 -0.845154
v 0.252581 0.008886 -0.942647
v 0.000000 0.008886 -0.975899
v -0.252581 0.008886 -0.942646
v -0.487950 0.008886 -0.845154
v -0.690065 0.008886 -0.690065
v -0.845154 0.008886 -0.487950
v -0.942646 0.008886 -0.252581
v -0.975899 0.008886 0.000000
v -0.942646 0.008886 0.252581
v -0.845153 0.008886 0.487950
v -0.690065 0.008886 0.690065
v -0.487949 0.008886 0.845154
v -0.252581 0.008886 0.942646
v 0.000000 0.008886 0.975899
v 0.252582 0.008886 0.942646
v 2.819699 18.017826 0.755534
v 2.843809 18.024557 0.565668
v 2.918811 18.020527 -0.000002
v 2.843808 18.024557 -0.565669
v 2.819698 18.017826 -0.755538
v 2.410865 18.024557 -1.610889
v 1.459582 18.017826 -2.528074
v 0.565669 18.024557 -2.843810
v -0.000000 18.020527 -2.918813
v -0.755536 18.017826 -2.819700
v -1.610889 18.024557 -2.410866
v -2.410865 18.024557 -1.610889
v -2.528073 18.017826 -1.459584
v -2.843809 18.024557 -0.565669
v -2.819699 18.017826 0.755536
v -2.410864 18.024557 1.610888
v -1.610888 18.024557 2.410864
v -1.459583 18.017826 2.528072
v -0.565668 18.024557 2.843808
v 0.755537 18.017826 2.819698
v 1.610888 18.024557 2.410864
v 2.528074 18.017826 1.459582
v -0.964852 8.821087 -1.671173
v -1.364507 8.821087 -1.364507
v -1.929704 8.821087 -0.000000
v -1.863951 8.821087 -0.499444
v -1.671172 8.821087 0.964852
v -0.499444 8.821087 1.863951
v 0.499445 8.821087 1.863950
v 0.000001 8.821087 1.929704
v 0.964853 8.821087 1.671172
v 1.364507 8.821087 1.364506
v 1.863951 8.821087 -0.499445
v 1.364506 8.821087 -1.364508
v 1.671172 8.821087 -0.964853
v 0.000000 8.821087 -1.929705
v 0.499443 8.821087 -1.863952
v 0.964851 8.821087 -1.671174
v 1.863951 8.821087 0.499443
v 1.929704 8.821087 -0.000001
v 1.671173 8.821087 0.964851
v -0.964852 8.821087 1.671172
v -1.364506 8.821087 1.364506
v -1.863951 8.821087 0.499444
v -1.671173 8.821087 -0.964852
v -0.499444 8.821087 -1.863951
v 1.107157 18.025892 2.672912
v 0.565669 18.024557 2.843808
v 0.000001 18.020523 2.918811
v -0.755535 18.017826 2.819698
v -1.107156 18.025892 2.672912
v -2.063911 18.020523 2.063911
v -2.843809 18.024557 0.565668
v -2.063911 18.020527 -2.063912
v -1.459584 18.017826 -2.528074
v -0.565669 18.024557 -2.843810
v 1.107156 18.025892 -2.672913
v 1.610888 18.024557 -2.410865
v -2.528073 18.017826 1.459583
v -2.918812 18.020523 -0.000000
v -1.107157 18.025892 -2.672914
v 0.755534 18.017826 -2.819700
v 2.063910 18.020527 -2.063913
v 2.410865 18.024557 1.610887
v -2.672913 18.025892 1.107156
v 1.459584 18.017826 2.528072
v 2.063911 18.020527 2.063910
v -2.819699 18.017826 -0.755537
v 0.756381 17.992970 -2.822861
v 2.066475 17.992970 -2.066478
v 2.530906 17.992970 -1.461222
v 2.922439 17.992970 -0.000002
v 2.822860 17.992970 0.756381
v 1.461220 17.992970 2.530905
v 0.756384 17.992970 2.822859
v 0.000001 17.992970 2.922439
v -0.756382 17.992970 2.822859
v -2.066476 17.992970 2.066476
v -2.530906 17.992970 1.461219
v -2.822860 17.992970 -0.756384
v -2.066477 17.992970 -2.066478
v -1.461220 17.992970 -2.530908
v -0.756383 17.992970 -2.822861
v -2.672913 18.025892 -1.107157
v -2.530907 17.992970 -1.461220
v 0.000000 17.992970 -2.922440
v 2.672913 18.025892 -1.107157
v -1.461219 17.992970 2.530906
v -2.822860 17.992970 0.756383
v 1.461218 17.992970 -2.530908
v 2.822859 17.992970 -0.756385
v 2.530907 17.992970 1.461218
v 2.672913 18.025892 1.107156
v -2.922440 17.992970 -0.000000
v 2.528072 18.017826 -1.459585
v 2.066478 17.992970 2.066475
vt 0.689118 0.827562
vt 0.751875 0.936260
vt 0.630380 0.986585
vt 0.597895 0.865348
vt 0.582722 0.636591
vt 0.544257 0.652523
vt 0.767453 0.767454
vt 0.856205 0.856205
vt 0.615752 0.611246
vt 0.865348 0.597895
vt 0.986585 0.630380
vt 0.936260 0.751875
vt 0.827562 0.689118
vt 0.657029 0.539751
vt 0.641097 0.578216
vt 0.878236 0.500000
vt 1.003750 0.500000
vt 0.662463 0.498474
vt 0.827562 0.310882
vt 0.936260 0.248125
vt 0.986585 0.369620
vt 0.865348 0.402105
vt 0.641097 0.418732
vt 0.657029 0.457197
vt 0.597895 0.134652
vt 0.630380 0.013415
vt 0.751875 0.063740
vt 0.689118 0.172438
vt 0.544257 0.344425
vt 0.582722 0.360358
vt 0.500000 0.121764
vt 0.500000 -0.003750
vt 0.502980 0.338991
vt 0.402105 0.134652
vt 0.369620 0.013415
vt 0.461703 0.344425
vt 0.310882 0.172438
vt 0.248125 0.063740
vt 0.423238 0.360358
vt 0.232546 0.232547
vt 0.143795 0.143795
vt 0.390208 0.385702
vt 0.134651 0.597895
vt 0.013415 0.630380
vt -0.003750 0.500000
vt 0.121763 0.500000
vt 0.348931 0.539752
vt 0.343497 0.498474
vt 0.172438 0.689118
vt 0.063740 0.751875
vt 0.364864 0.578216
vt 0.232546 0.767454
vt 0.143795 0.856205
vt 0.390208 0.611246
vt 0.402105 0.865348
vt 0.369620 0.986585
vt 0.248125 0.936260
vt 0.310882 0.827562
vt 0.461703 0.652523
vt 0.423239 0.636591
vt 0.500000 0.878236
vt 0.500000 1.003750
vt 0.502980 0.657957
vt 0.013415 0.369620
vt 0.134651 0.402105
vt 0.348931 0.457197
vt 0.063739 0.248125
vt 0.172437 0.310882
vt 0.364863 0.418733
vt 0.856205 0.143795
vt 0.767453 0.232546
vt 0.615752 0.385702
vt 0.502980 0.657759
vt 0.472110 0.653666
vt 0.347788 0.467604
vt 0.343695 0.498474
vt 0.347788 0.529344
vt 0.390348 0.611106
vt 0.415071 0.630040
vt 0.544211 0.652351
vt 0.582632 0.636436
vt 0.615612 0.611106
vt 0.634546 0.586383
vt 0.662265 0.498474
vt 0.658172 0.467604
vt 0.461749 0.344598
vt 0.423328 0.360512
vt 0.423328 0.636436
vt 0.442560 0.644340
vt 0.656857 0.457243
vt 0.648846 0.438054
vt 0.502980 0.339189
vt 0.390348 0.385842
vt 0.634546 0.410565
vt 0.615612 0.385842
vt 0.533850 0.343282
vt 0.563400 0.352608
vt 0.544211 0.344598
vt 0.590890 0.366908
vt 0.658172 0.529344
vt 0.648846 0.558894
vt 0.656857 0.539705
vt 0.371414 0.586383
vt 0.357114 0.558894
vt 0.365018 0.578126
vt 0.357114 0.438054
vt 0.349104 0.457243
vt 0.371414 0.410565
vt 0.533850 0.653666
vt 0.461749 0.652351
vt 0.640942 0.418822
vt 0.640942 0.578126
vt 0.365018 0.418822
vt 0.582632 0.360512
vt 0.349104 0.539705
vt 0.590890 0.630040
vt 0.563400 0.644340
vt 0.415071 0.366908
vt 0.442560 0.352608
vt 0.472110 0.343282
vn 0.497085 0.107608 0.860988
vn 0.257302 0.107608 0.960295
vn 0.499954 -0.011444 0.865963
vn 0.258797 -0.011444 0.965850
vn 0.702994 0.107608 0.702994
vn 0.707053 -0.011444 0.707053
vn 0.960295 0.107608 0.257302
vn 0.860988 0.107608 0.497085
vn 0.966124 -0.012482 0.257668
vn 0.865932 -0.013520 0.499954
vn 0.994171 0.107608 0.000000
vn 0.999908 -0.011444 0.000000
vn 0.860988 0.107608 -0.497085
vn 0.960295 0.107608 -0.257302
vn 0.865932 -0.013520 -0.499954
vn 0.966124 -0.012482 -0.257668
vn 0.257302 0.107608 -0.960295
vn 0.497085 0.107608 -0.860988
vn 0.257668 -0.012482 -0.966124
vn 0.499954 -0.013520 -0.865932
vn 0.000000 0.107608 -0.994171
vn 0.000000 -0.011444 -0.999908
vn -0.257302 0.107608 -0.960295
vn -0.258797 -0.011444 -0.965850
vn -0.497085 0.107608 -0.860988
vn -0.499954 -0.011444 -0.865963
vn -0.702994 0.107608 -0.702994
vn -0.707053 -0.011444 -0.707053
vn -0.960295 0.107608 0.257302
vn -0.994171 0.107608 0.000000
vn -0.965819 -0.013520 0.258766
vn -0.999908 -0.011444 0.000000
vn -0.860988 0.107608 0.497085
vn -0.865383 -0.012482 0.500931
vn -0.702994 0.107608 0.702994
vn -0.707053 -0.011444 0.707053
vn -0.257302 0.107608 0.960295
vn -0.497085 0.107608 0.860988
vn -0.258766 -0.013520 0.965819
vn -0.500931 -0.012482 0.865383
vn 0.000000 0.107608 0.994171
vn 0.000000 -0.011444 0.999908
vn -0.960295 0.107608 -0.257302
vn -0.966124 -0.012482 -0.257668
vn -0.860988 0.107608 -0.497085
vn -0.865932 -0.013520 -0.499954
vn 0.702994 0.107608 -0.702994
vn 0.707053 -0.011444 -0.707053
vn 0.003967 -0.130528 0.991424
vn -0.129398 -0.129429 0.983093
vn -0.983093 -0.129429 -0.129398
vn -0.991424 -0.130528 0.000000
vn -0.983093 -0.129398 0.129398
vn -0.701041 -0.130528 0.701041
vn -0.603626 -0.129429 0.786676
vn 0.256600 -0.130528 0.957640
vn 0.495712 -0.130528 0.858608
vn 0.698233 -0.130528 0.703848
vn 0.786676 -0.129398 0.603626
vn 0.991424 -0.130528 0.000000
vn 0.983093 -0.129429 -0.129398
vn -0.256600 -0.130528 -0.957640
vn -0.495712 -0.130528 -0.858608
vn -0.495712 -0.130528 0.858608
vn -0.379437 -0.129429 0.916105
vn 0.957640 -0.130528 -0.256600
vn 0.916105 -0.129398 -0.379437
vn -0.003967 -0.130528 -0.991424
vn -0.698202 -0.130528 -0.703848
vn 0.786676 -0.129398 -0.603626
vn 0.701041 -0.130528 -0.701041
vn 0.129398 -0.129429 -0.983093
vn 0.379437 -0.129398 -0.916105
vn 0.256600 -0.130528 -0.957640
vn 0.603626 -0.129398 -0.786676
vn 0.983093 -0.129398 0.129398
vn 0.916105 -0.129398 0.379437
vn 0.957640 -0.130497 0.256600
vn -0.786676 -0.129429 0.603626
vn -0.916105 -0.129398 0.379437
vn -0.858608 -0.130528 0.495712
vn -0.916105 -0.129398 -0.379437
vn -0.957640 -0.130528 -0.256600
vn -0.786676 -0.129398 -0.603626
vn 0.129398 -0.129490 0.983093
vn -0.256600 -0.130497 0.957640
vn 0.858608 -0.130497 -0.495712
vn 0.858608 -0.130497 0.495712
vn -0.858608 -0.130497 -0.495712
vn 0.495712 -0.130497 -0.858608
vn -0.957640 -0.130497 0.256600
vn 0.603626 -0.129490 0.786645
vn 0.379437 -0.129429 0.916105
vn -0.603626 -0.129460 -0.786645
vn -0.379437 -0.129490 -0.916074
vn -0.129398 -0.129460 -0.983093
s 1
f 47/1/1 13/2/1 12/3/2 70/4/2
f 106/5/3 47/1/1 70/4/2 107/6/4
f 48/7/5 14/8/5 13/2/1 47/1/1
f 105/9/6 48/7/5 47/1/1 106/5/3
f 50/10/7 16/11/7 15/12/8 69/13/8
f 104/14/9 50/10/7 69/13/8 109/15/10
f 49/16/11 17/17/11 16/11/7 50/10/7
f 118/18/12 49/16/11 50/10/7 104/14/9
f 51/19/13 19/20/13 18/21/14 68/22/14
f 103/23/15 51/19/13 68/22/14 113/24/16
f 52/25/17 22/26/17 21/27/18 66/28/18
f 101/29/19 52/25/17 66/28/18 112/30/20
f 54/31/21 23/32/21 22/26/17 52/25/17
f 100/33/22 54/31/21 52/25/17 101/29/19
f 53/34/23 24/35/23 23/32/21 54/31/21
f 99/36/24 53/34/23 54/31/21 100/33/22
f 55/37/25 1/38/25 24/35/23 53/34/23
f 98/39/26 55/37/25 53/34/23 99/36/24
f 1/38/25 55/37/25 56/40/27 2/41/27
f 120/42/28 56/40/27 55/37/25 98/39/26
f 57/43/29 6/44/29 5/45/30 64/46/30
f 115/47/31 57/43/29 64/46/30 96/48/32
f 59/49/33 7/50/33 6/44/29 57/43/29
f 95/51/34 59/49/33 57/43/29 115/47/31
f 58/52/35 8/53/35 7/50/33 59/49/33
f 94/54/36 58/52/35 59/49/33 95/51/34
f 61/55/37 10/56/37 9/57/38 62/58/38
f 93/59/39 61/55/37 62/58/38 114/60/40
f 60/61/41 11/62/41 10/56/37 61/55/37
f 110/63/42 60/61/41 61/55/37 93/59/39
f 62/58/38 9/57/38 8/53/35 58/52/35
f 114/60/40 62/58/38 58/52/35 94/54/36
f 64/46/30 5/45/30 4/64/43 63/65/43
f 96/48/32 64/46/30 63/65/43 97/66/44
f 63/65/43 4/64/43 3/67/45 65/68/45
f 97/66/44 63/65/43 65/68/45 116/69/46
f 65/68/45 3/67/45 2/41/27 56/40/27
f 116/69/46 65/68/45 56/40/27 120/42/28
f 66/28/18 21/27/18 20/70/47 67/71/47
f 112/30/20 66/28/18 67/71/47 102/72/48
f 67/71/47 20/70/47 19/20/13 51/19/13
f 102/72/48 67/71/47 51/19/13 103/23/15
f 68/22/14 18/21/14 17/17/11 49/16/11
f 113/24/16 68/22/14 49/16/11 118/18/12
f 69/13/8 15/12/8 14/8/5 48/7/5
f 109/15/10 69/13/8 48/7/5 105/9/6
f 70/4/2 12/3/2 11/62/41 60/61/41
f 107/6/4 70/4/2 60/61/41 110/63/42
f 33/73/49 110/63/42 93/59/39 32/74/50
f 97/66/44 26/75/51 27/76/52 96/48/32
f 27/76/52 28/77/53 115/47/31 96/48/32
f 87/78/54 82/79/55 114/60/40 94/54/36
f 107/6/4 34/80/56 79/81/57 106/5/3
f 105/9/6 78/82/58 36/83/59 109/15/10
f 84/84/60 77/85/61 113/24/16 118/18/12
f 99/36/24 44/86/62 90/87/63 98/39/26
f 31/88/64 81/89/65 93/59/39 114/60/40
f 39/90/66 89/91/67 103/23/15 113/24/16
f 100/33/22 73/92/68 44/86/62 99/36/24
f 98/39/26 90/87/63 91/93/69 120/42/28
f 106/5/3 79/81/57 78/82/58 105/9/6
f 103/23/15 40/94/70 76/95/71 102/72/48
f 110/63/42 33/73/49 34/80/56 107/6/4
f 73/92/68 100/33/22 101/29/19 43/96/72
f 112/30/20 75/97/73 74/98/74 101/29/19
f 76/95/71 41/99/75 112/30/20 102/72/48
f 84/84/60 118/18/12 104/14/9 38/100/76
f 109/15/10 108/101/77 92/102/78 104/14/9
f 95/51/34 30/103/79 87/78/54 94/54/36
f 115/47/31 111/104/80 119/105/81 95/51/34
f 116/69/46 117/106/82 25/107/83 97/66/44
f 91/93/69 88/108/84 116/69/46 120/42/28
f 33/73/49 80/109/85 34/80/56
f 93/59/39 86/110/86 32/74/50
f 101/29/19 74/98/74 43/96/72
f 103/23/15 83/111/87 40/94/70
f 103/23/15 89/91/67 83/111/87
f 104/14/9 92/102/78 38/100/76
f 109/15/10 36/83/59 37/112/88
f 93/59/39 81/89/65 86/110/86
f 95/51/34 119/105/81 30/103/79
f 97/66/44 25/107/83 26/75/51
f 116/69/46 88/108/84 46/113/89
f 112/30/20 42/114/90 75/97/73
f 109/15/10 37/112/88 108/101/77
f 115/47/31 29/115/91 111/104/80
f 41/99/75 42/114/90 112/30/20
f 77/85/61 39/90/66 113/24/16
f 82/79/55 31/88/64 114/60/40
f 28/77/53 29/115/91 115/47/31
f 46/113/89 117/106/82 116/69/46
f 35/116/92 78/82/58 79/81/57
f 85/117/93 79/81/57 34/80/56
f 45/118/94 91/93/69 90/87/63
f 71/119/95 90/87/63 44/86/62
f 72/120/96 44/86/62 73/92/68
