o sd_wing_1
v 0.360479 -1.326594 18.329639
v 0.324423 0.141754 18.148371
v 0.275899 1.428771 17.904425
v 0.216772 2.485000 17.607176
v 0.149315 3.269847 17.268045
v 0.076120 3.753155 16.900068
v 0.149315 3.753155 16.877865
v 0.292892 3.269847 17.224491
v 0.425214 2.485000 17.543943
v 0.541195 1.428771 17.823948
v 0.636378 0.141754 18.053740
v 0.707106 -1.326594 18.224491
v 1.026559 -1.326594 18.053740
v 0.923879 0.141754 17.900068
v 0.785694 1.428771 17.693260
v 0.617316 2.485000 17.441265
v 0.425214 3.269847 17.153763
v -0.000001 3.916348 16.517385
v 0.541195 3.269847 17.058580
v 0.785694 2.485000 17.303080
v 0.999999 1.428771 17.517385
v 1.175875 0.141754 17.693260
v 1.306562 -1.326594 17.823948
v 1.536355 -1.326594 17.543943
v 1.382682 0.141754 17.441263
v 1.175875 1.428771 17.303080
v 0.923878 2.485000 17.134701
v 0.636379 3.269847 16.942600
v 0.707106 3.269847 16.810278
v 1.026559 2.485000 16.942600
v 1.306562 1.428771 17.058580
v 1.536355 0.141754 17.153763
v 1.707106 -1.326594 17.224491
v 1.812254 -1.326594 16.877865
v 1.630985 0.141754 16.841808
v 1.387039 1.428771 16.793283
v 1.089789 2.485000 16.734158
v 0.750660 3.269847 16.666700
v 0.382683 3.753155 16.593504
v 0.390180 3.753155 16.517385
v 0.765366 3.269847 16.517385
v 1.111139 2.485000 16.517385
v 1.414212 1.428771 16.517385
v 1.662938 0.141754 16.517385
v 1.847758 -1.326594 16.517385
v 1.812254 -1.326594 16.156904
v 1.630985 0.141754 16.192961
v 1.387038 1.428771 16.241486
v 1.089789 2.485000 16.300611
v 0.750660 3.269847 16.368069
v 0.707106 3.269847 16.224493
v 1.026559 2.485000 16.092169
v 1.306561 1.428771 15.976189
v 1.536354 0.141754 15.881004
v 1.707106 -1.326594 15.810279
v 1.536355 -1.326594 15.490825
v 1.382682 0.141754 15.593505
v 1.175874 1.428771 15.731689
v 0.923878 2.485000 15.900069
v 0.636378 3.269847 16.092169
v 0.275899 3.753155 16.241486
v 0.541195 3.269847 15.976189
v 0.785694 2.485000 15.731689
v 0.999999 1.428771 15.517385
v 1.175874 0.141754 15.341509
v 1.306562 -1.326594 15.210822
v 1.026559 -1.326594 14.981029
v 0.923878 0.141754 15.134702
v 0.785694 1.428771 15.341510
v 0.617316 2.485000 15.593506
v 0.425214 3.269847 15.881006
v 0.149315 3.753155 16.156904
v 0.292892 3.269847 15.810279
v 0.425214 2.485000 15.490825
v 0.541195 1.428771 15.210822
v 0.636378 0.141754 14.981029
v 0.707106 -1.326594 14.810279
v 0.360479 -1.326594 14.705131
v 0.324422 0.141754 14.886398
v 0.275898 1.428771 15.130345
v 0.216772 2.485000 15.427594
v 0.149315 3.269847 15.766724
v -0.000001 3.269847 15.752017
v -0.000001 2.485000 15.406244
v -0.000001 1.428771 15.103172
v -0.000001 0.141754 14.854446
v -0.000001 -1.326594 14.669626
v -0.360481 -1.326594 14.705131
v -0.324424 0.141754 14.886398
v -0.275900 1.428771 15.130345
v -0.216773 2.485000 15.427596
v -0.149316 3.269847 15.766724
v -0.076121 3.753155 16.134703
v -0.292894 3.269847 15.810279
v -0.425216 2.485000 15.490825
v -0.541197 1.428771 15.210823
v -0.636380 0.141754 14.981030
v -0.707107 -1.326594 14.810279
v -1.026560 -1.326594 14.981030
v -0.923880 0.141754 15.134702
v -0.785695 1.428771 15.341510
v -0.617317 2.485000 15.593506
v -0.425216 3.269847 15.881006
v -0.275900 3.753155 16.241486
v -0.541197 3.269847 15.976189
v -0.785695 2.485000 15.731689
v -1.000000 1.428771 15.517386
v -1.175876 0.141754 15.341510
v -1.306563 -1.326594 15.210822
v -1.536356 -1.326594 15.490825
v -1.382683 0.141754 15.593506
v -1.175875 1.428771 15.731691
v -0.923880 2.485000 15.900069
v -0.636380 3.269847 16.092169
v -0.360480 3.753155 16.368071
v -0.707107 3.269847 16.224493
v -1.026560 2.485000 16.092169
v -1.306563 1.428771 15.976189
v -1.536355 0.141754 15.881006
v -1.707107 -1.326594 15.810279
v -1.812255 -1.326594 16.156904
v -1.630986 0.141754 16.192961
v -1.387039 1.428771 16.241486
v -1.089790 2.485000 16.300611
v -0.750661 3.269847 16.368071
v -0.765367 3.269847 16.517385
v -1.111140 2.485000 16.517385
v -1.414213 1.428771 16.517385
v -1.662938 0.141754 16.517385
v -1.847759 -1.326594 16.517385
v -1.812255 -1.326594 16.877865
v -1.630985 0.141754 16.841808
v -1.387039 1.428771 16.793283
v -1.089790 2.485000 16.734158
v -0.750661 3.269847 16.666700
v -0.382684 3.753155 16.593504
v -0.707107 3.269847 16.810278
v -1.026560 2.485000 16.942600
v -1.306562 1.428771 17.058580
v -1.536355 0.141754 17.153763
v -1.707106 -1.326594 17.224491
v -1.536355 -1.326594 17.543943
v -1.382682 0.141754 17.441263
v -1.175875 1.428771 17.303080
v -0.923879 2.485000 17.134701
v -0.636380 3.269847 16.942600
v -0.324424 3.753155 16.734158
v -0.275900 3.753155 16.793283
v -0.541196 3.269847 17.058580
v -0.785695 2.485000 17.303080
v -0.999999 1.428771 17.517384
v -1.175875 0.141754 17.693258
v -1.306563 -1.326594 17.823948
v -1.026560 -1.326594 18.053740
v -0.923879 0.141754 17.900068
v -0.785695 1.428771 17.693258
v -0.617316 2.485000 17.441263
v -0.425215 3.269847 17.153763
v -0.216773 3.753155 16.841808
v -0.292894 3.269847 17.224491
v -0.425215 2.485000 17.543943
v -0.541196 1.428771 17.823946
v -0.636379 0.141754 18.053740
v -0.707107 -1.326594 18.224491
v -0.360480 -1.326594 18.329638
v -0.324423 0.141754 18.148369
v -0.275899 1.428771 17.904423
v -0.216773 2.485000 17.607174
v -0.149316 3.269847 17.268045
v -0.000001 3.269847 17.282751
v -0.000001 2.485000 17.628523
v -0.000000 1.428771 17.931597
v -0.000000 0.141754 18.180323
v -0.000001 -1.326594 18.365141
v 0.216772 3.753155 16.841808
v 0.275899 3.753155 16.793283
v 0.324423 3.753155 16.734158
v 0.360479 3.753155 16.666700
v 0.382683 3.753155 16.441265
v 0.360479 3.753155 16.368071
v 0.324423 3.753155 16.300611
v 0.216772 3.753155 16.192961
v 0.076120 3.753155 16.134703
v -0.000001 3.753155 16.127203
v -0.149316 3.753155 16.156904
v -0.216773 3.753155 16.192961
v -0.324424 3.753155 16.300611
v -0.382684 3.753155 16.441265
v -0.390181 3.753155 16.517385
v -0.360480 3.753155 16.666700
v -0.149316 3.753155 16.877865
v -0.076121 3.753155 16.900068
v -0.000001 3.753155 16.907566
vt 0.603342 0.520556
vt 0.597346 0.540322
vt 0.500000 0.500000
vt 0.425495 0.574505
vt 0.412391 0.558538
vt 0.412391 0.441461
vt 0.425495 0.425494
vt 0.459678 0.402654
vt 0.479444 0.396658
vt 0.520556 0.396658
vt 0.540322 0.402654
vt 0.597346 0.459678
vt 0.603342 0.479444
vt 0.989392 0.597346
vt 0.940441 0.587609
vt 0.949069 0.500000
vt 0.998979 0.500000
vt 0.874565 0.574505
vt 0.881902 0.500000
vt 0.794294 0.558538
vt 0.800058 0.500000
vt 0.702713 0.540322
vt 0.706684 0.500000
vt 0.605367 0.500000
vt 0.690951 0.579094
vt 0.777218 0.614827
vt 0.852832 0.646148
vt 0.914886 0.671851
vt 0.960997 0.690951
vt 0.914886 0.777218
vt 0.873388 0.749490
vt 0.817540 0.712174
vt 0.749490 0.666704
vt 0.671851 0.614827
vt 0.587609 0.558538
vt 0.712174 0.712173
vt 0.646148 0.646148
vt 0.770046 0.770046
vt 0.817540 0.817540
vt 0.852832 0.852832
vt 0.777218 0.914886
vt 0.749490 0.873388
vt 0.712174 0.817540
vt 0.666704 0.749490
vt 0.614828 0.671851
vt 0.558539 0.587609
vt 0.574505 0.574505
vt 0.614828 0.777218
vt 0.579095 0.690951
vt 0.646148 0.852832
vt 0.671851 0.914886
vt 0.690951 0.960997
vt 0.597346 0.989392
vt 0.587609 0.940441
vt 0.574505 0.874564
vt 0.558539 0.794293
vt 0.540322 0.702713
vt 0.540322 0.597346
vt 0.520556 0.603342
vt 0.500000 0.605366
vt 0.500000 0.706684
vt 0.500000 0.800059
vt 0.500000 0.881902
vt 0.500000 0.949070
vt 0.500000 0.998980
vt 0.402654 0.989392
vt 0.412391 0.940441
vt 0.425495 0.874564
vt 0.441461 0.794293
vt 0.459678 0.702713
vt 0.479444 0.603342
vt 0.385172 0.777218
vt 0.420906 0.690951
vt 0.353852 0.852832
vt 0.328148 0.914886
vt 0.309049 0.960997
vt 0.222782 0.914886
vt 0.250510 0.873388
vt 0.287826 0.817540
vt 0.333296 0.749490
vt 0.385172 0.671851
vt 0.441461 0.587609
vt 0.459678 0.597346
vt 0.353852 0.646148
vt 0.287826 0.712173
vt 0.229954 0.770046
vt 0.182459 0.817540
vt 0.147168 0.852832
vt 0.085113 0.777218
vt 0.126612 0.749490
vt 0.182460 0.712173
vt 0.250510 0.666704
vt 0.328149 0.614827
vt 0.309049 0.579094
vt 0.402654 0.540322
vt 0.222782 0.614827
vt 0.147168 0.646147
vt 0.085113 0.671851
vt 0.039003 0.690951
vt 0.010608 0.597346
vt 0.059559 0.587609
vt 0.125436 0.574505
vt 0.205706 0.558538
vt 0.297287 0.540322
vt 0.396658 0.520556
vt 0.199941 0.500000
vt 0.293316 0.500000
vt 0.118098 0.500000
vt 0.050930 0.500000
vt 0.001020 0.500000
vt 0.010608 0.402654
vt 0.059559 0.412391
vt 0.125436 0.425494
vt 0.205707 0.441461
vt 0.297287 0.459678
vt 0.394633 0.500000
vt 0.396658 0.479444
vt 0.402654 0.459678
vt 0.222782 0.385172
vt 0.309049 0.420905
vt 0.147168 0.353852
vt 0.085114 0.328148
vt 0.039003 0.309049
vt 0.085114 0.222782
vt 0.126612 0.250510
vt 0.182460 0.287826
vt 0.250510 0.333296
vt 0.328149 0.385172
vt 0.353852 0.353852
vt 0.287826 0.287826
vt 0.229954 0.229954
vt 0.182460 0.182460
vt 0.147168 0.147168
vt 0.222782 0.085114
vt 0.250510 0.126612
vt 0.287827 0.182460
vt 0.333296 0.250510
vt 0.385172 0.328148
vt 0.441461 0.412391
vt 0.420906 0.309049
vt 0.385172 0.222782
vt 0.353852 0.147168
vt 0.328149 0.085114
vt 0.309049 0.039003
vt 0.402654 0.010608
vt 0.412391 0.059559
vt 0.425495 0.125436
vt 0.441461 0.205707
vt 0.459678 0.297287
vt 0.500000 0.199941
vt 0.500000 0.293316
vt 0.500000 0.118098
vt 0.500000 0.050930
vt 0.500000 0.001020
vt 0.597346 0.010608
vt 0.587609 0.059559
vt 0.574505 0.125436
vt 0.558539 0.205707
vt 0.540322 0.297287
vt 0.500000 0.394633
vt 0.614828 0.222782
vt 0.579095 0.309049
vt 0.646148 0.147168
vt 0.671851 0.085114
vt 0.690951 0.039003
vt 0.777218 0.085114
vt 0.749490 0.126612
vt 0.712174 0.182460
vt 0.666704 0.250510
vt 0.614828 0.328148
vt 0.558539 0.412391
vt 0.574505 0.425494
vt 0.646148 0.353852
vt 0.712174 0.287826
vt 0.770046 0.229954
vt 0.817540 0.182460
vt 0.852832 0.147168
vt 0.914886 0.222782
vt 0.873388 0.250510
vt 0.817540 0.287826
vt 0.749490 0.333296
vt 0.671851 0.385172
vt 0.587609 0.441461
vt 0.777218 0.385172
vt 0.690951 0.420905
vt 0.852831 0.353852
vt 0.914886 0.328149
vt 0.960997 0.309049
vt 0.989391 0.402654
vt 0.940441 0.412391
vt 0.874564 0.425495
vt 0.794293 0.441461
vt 0.702713 0.459678
vn 0.110172 0.789941 0.603168
vn 0.243477 0.789941 0.562731
vn -0.000885 0.999969 0.000153
vn 0.440291 0.789941 -0.426710
vn 0.332621 0.789941 -0.515091
vn -0.332621 0.789941 -0.515091
vn -0.440291 0.789941 -0.426710
vn -0.562731 0.789941 -0.243477
vn -0.603168 0.789941 -0.110172
vn -0.603168 0.789941 0.110172
vn -0.562731 0.789941 0.243477
vn -0.243477 0.789941 0.562731
vn -0.110172 0.789941 0.603168
vn 0.193548 0.124882 0.973083
vn 0.192633 0.157262 0.968566
vn 0.000000 0.157262 0.987548
vn 0.000000 0.124882 0.992157
vn 0.189703 0.232673 0.953856
vn 0.000000 0.232673 0.972533
vn 0.183508 0.339366 0.922544
vn 0.000000 0.339366 0.940642
vn 0.167913 0.508927 0.844264
vn 0.000000 0.508927 0.860775
vn 0.000000 0.773003 0.634358
vn 0.329417 0.508927 0.795251
vn 0.359966 0.339366 0.869015
vn 0.372173 0.232673 0.898495
vn 0.377911 0.157262 0.912381
vn 0.379681 0.124882 0.916623
vn 0.551195 0.124882 0.824946
vn 0.548631 0.157262 0.821100
vn 0.540300 0.232673 0.808618
vn 0.522568 0.339366 0.782098
vn 0.478225 0.508927 0.715720
vn 0.352428 0.773003 0.527451
vn 0.665120 0.339366 0.665120
vn 0.608661 0.508927 0.608661
vn 0.687674 0.232673 0.687674
vn 0.698294 0.157262 0.698294
vn 0.701559 0.124882 0.701559
vn 0.824946 0.124882 0.551195
vn 0.821100 0.157262 0.548631
vn 0.808618 0.232673 0.540300
vn 0.782098 0.339366 0.522568
vn 0.715720 0.508927 0.478225
vn 0.527451 0.773003 0.352428
vn 0.428419 0.795556 0.428419
vn 0.869045 0.339366 0.359966
vn 0.795251 0.508927 0.329386
vn 0.898495 0.232673 0.372173
vn 0.912381 0.157262 0.377911
vn 0.916623 0.124882 0.379681
vn 0.973083 0.124882 0.193548
vn 0.968566 0.157262 0.192633
vn 0.953856 0.232673 0.189734
vn 0.922544 0.339366 0.183508
vn 0.844264 0.508927 0.167913
vn 0.559740 0.795556 0.231849
vn 0.622181 0.773003 0.123753
vn 0.605853 0.795556 0.000000
vn 0.860775 0.508927 0.000000
vn 0.940642 0.339366 0.000000
vn 0.972533 0.232673 0.000000
vn 0.987548 0.157262 0.000000
vn 0.992157 0.124882 0.000000
vn 0.973083 0.124882 -0.193548
vn 0.968566 0.157262 -0.192633
vn 0.953856 0.232673 -0.189734
vn 0.922544 0.339366 -0.183508
vn 0.844234 0.508927 -0.167913
vn 0.622181 0.773003 -0.123753
vn 0.869045 0.339366 -0.359966
vn 0.795251 0.508927 -0.329386
vn 0.898495 0.232673 -0.372173
vn 0.912381 0.157262 -0.377911
vn 0.916623 0.124882 -0.379681
vn 0.824946 0.124882 -0.551195
vn 0.821100 0.157262 -0.548631
vn 0.808618 0.232673 -0.540300
vn 0.782098 0.339366 -0.522568
vn 0.715720 0.508927 -0.478225
vn 0.527451 0.773003 -0.352428
vn 0.559740 0.795556 -0.231849
vn 0.608661 0.508927 -0.608661
vn 0.665120 0.339366 -0.665120
vn 0.687674 0.232673 -0.687674
vn 0.698294 0.157262 -0.698294
vn 0.701559 0.124882 -0.701559
vn 0.551195 0.124882 -0.824946
vn 0.548631 0.157262 -0.821100
vn 0.540300 0.232673 -0.808618
vn 0.522568 0.339366 -0.782098
vn 0.478225 0.508927 -0.715720
vn 0.329386 0.508927 -0.795251
vn 0.242744 0.773003 -0.586077
vn 0.359966 0.339366 -0.869015
vn 0.372173 0.232673 -0.898495
vn 0.377911 0.157262 -0.912381
vn 0.379681 0.124882 -0.916623
vn 0.193548 0.124882 -0.973083
vn 0.192633 0.157262 -0.968566
vn 0.189734 0.232673 -0.953856
vn 0.183508 0.339366 -0.922544
vn 0.167913 0.508927 -0.844264
vn 0.118198 0.795556 -0.594226
vn 0.000000 0.339366 -0.940642
vn 0.000000 0.508927 -0.860775
vn 0.000000 0.232673 -0.972533
vn 0.000000 0.157262 -0.987548
vn 0.000000 0.124882 -0.992157
vn -0.193548 0.124882 -0.973083
vn -0.192633 0.157262 -0.968566
vn -0.189734 0.232673 -0.953856
vn -0.183508 0.339366 -0.922544
vn -0.167913 0.508927 -0.844234
vn 0.000000 0.773003 -0.634358
vn -0.118198 0.795556 -0.594226
vn -0.242744 0.773003 -0.586077
vn -0.359966 0.339366 -0.869045
vn -0.329386 0.508927 -0.795251
vn -0.372173 0.232673 -0.898495
vn -0.377911 0.157262 -0.912351
vn -0.379681 0.124882 -0.916623
vn -0.551195 0.124882 -0.824946
vn -0.548631 0.157262 -0.821100
vn -0.540300 0.232673 -0.808618
vn -0.522568 0.339366 -0.782098
vn -0.478225 0.508927 -0.715720
vn -0.608661 0.508927 -0.608661
vn -0.665120 0.339366 -0.665120
vn -0.687674 0.232673 -0.687674
vn -0.698294 0.157262 -0.698294
vn -0.701559 0.124882 -0.701559
vn -0.824946 0.124882 -0.551195
vn -0.821100 0.157262 -0.548631
vn -0.808618 0.232673 -0.540300
vn -0.782098 0.339366 -0.522568
vn -0.715720 0.508927 -0.478225
vn -0.527451 0.773003 -0.352428
vn -0.795251 0.508927 -0.329386
vn -0.869045 0.339366 -0.359966
vn -0.898495 0.232673 -0.372173
vn -0.912381 0.157262 -0.377911
vn -0.916623 0.124882 -0.379681
vn -0.973083 0.124882 -0.193548
vn -0.968566 0.157262 -0.192633
vn -0.953856 0.232673 -0.189734
vn -0.922544 0.339366 -0.183508
vn -0.844234 0.508927 -0.167913
vn -0.940642 0.339366 0.000000
vn -0.860775 0.508927 0.000000
vn -0.972533 0.232673 0.000000
vn -0.987548 0.157262 0.000000
vn -0.992157 0.124882 0.000000
vn -0.973083 0.124882 0.193548
vn -0.968566 0.157262 0.192633
vn -0.953856 0.232673 0.189734
vn -0.922544 0.339366 0.183508
vn -0.844264 0.508927 0.167913
vn -0.634358 0.773003 0.000000
vn -0.869045 0.339366 0.359966
vn -0.795251 0.508927 0.329386
vn -0.898495 0.232673 0.372173
vn -0.912381 0.157262 0.377911
vn -0.916623 0.124882 0.379681
vn -0.824946 0.124882 0.551195
vn -0.821100 0.157262 0.548631
vn -0.808618 0.232673 0.540300
vn -0.782098 0.339366 0.522568
vn -0.715720 0.508927 0.478225
vn -0.527451 0.773003 0.352428
vn -0.428419 0.795556 0.428419
vn -0.608661 0.508927 0.608661
vn -0.665120 0.339366 0.665120
vn -0.687674 0.232673 0.687674
vn -0.698294 0.157262 0.698294
vn -0.701559 0.124882 0.701559
vn -0.551195 0.124882 0.824946
vn -0.548631 0.157262 0.821100
vn -0.540300 0.232673 0.808618
vn -0.522568 0.339366 0.782098
vn -0.478225 0.508927 0.715720
vn -0.352428 0.773003 0.527451
vn -0.359966 0.339366 0.869045
vn -0.329417 0.508927 0.795251
vn -0.372173 0.232673 0.898495
vn -0.377911 0.157262 0.912381
vn -0.379681 0.124882 0.916623
vn -0.193548 0.124882 0.973083
vn -0.192633 0.157262 0.968566
vn -0.189734 0.232673 0.953856
vn -0.183508 0.339366 0.922544
vn -0.167913 0.508927 0.844264
s 1
f 6/1/1 7/2/2 18/3/3
f 61/4/4 182/5/5 18/3/3
f 186/6/6 104/7/7 18/3/3
f 115/8/8 188/9/9 18/3/3
f 136/10/10 190/11/11 18/3/3
f 191/12/12 192/13/13 18/3/3
f 1/14/14 2/15/15 173/16/16 174/17/17
f 2/15/15 3/18/18 172/19/19 173/16/16
f 3/18/18 4/20/20 171/21/21 172/19/19
f 4/20/20 5/22/22 170/23/23 171/21/21
f 193/24/24 170/23/23 5/22/22 6/1/1
f 8/25/25 7/2/2 6/1/1 5/22/22
f 9/26/26 8/25/25 5/22/22 4/20/20
f 10/27/27 9/26/26 4/20/20 3/18/18
f 11/28/28 10/27/27 3/18/18 2/15/15
f 2/15/15 1/14/14 12/29/29 11/28/28
f 13/30/30 14/31/31 11/28/28 12/29/29
f 14/31/31 15/32/32 10/27/27 11/28/28
f 15/32/32 16/33/33 9/26/26 10/27/27
f 16/33/33 17/34/34 8/25/25 9/26/26
f 17/34/34 175/35/35 7/2/2 8/25/25
f 20/36/36 19/37/37 17/34/34 16/33/33
f 21/38/38 20/36/36 16/33/33 15/32/32
f 22/39/39 21/38/38 15/32/32 14/31/31
f 23/40/40 22/39/39 14/31/31 13/30/30
f 24/41/41 25/42/42 22/39/39 23/40/40
f 25/42/42 26/43/43 21/38/38 22/39/39
f 26/43/43 27/44/44 20/36/36 21/38/38
f 27/44/44 28/45/45 19/37/37 20/36/36
f 28/45/45 177/46/46 176/47/47 19/37/37
f 30/48/48 29/49/49 28/45/45 27/44/44
f 31/50/50 30/48/48 27/44/44 26/43/43
f 32/51/51 31/50/50 26/43/43 25/42/42
f 33/52/52 32/51/51 25/42/42 24/41/41
f 34/53/53 35/54/54 32/51/51 33/52/52
f 35/54/54 36/55/55 31/50/50 32/51/51
f 36/55/55 37/56/56 30/48/48 31/50/50
f 37/56/56 38/57/57 29/49/49 30/48/48
f 178/58/58 39/59/59 40/60/60 18/3/3
f 41/61/61 40/60/60 39/59/59 38/57/57
f 42/62/62 41/61/61 38/57/57 37/56/56
f 43/63/63 42/62/62 37/56/56 36/55/55
f 44/64/64 43/63/63 36/55/55 35/54/54
f 45/65/65 44/64/64 35/54/54 34/53/53
f 46/66/66 47/67/67 44/64/64 45/65/65
f 47/67/67 48/68/68 43/63/63 44/64/64
f 48/68/68 49/69/69 42/62/62 43/63/63
f 49/69/69 50/70/70 41/61/61 42/62/62
f 50/70/70 179/71/71 40/60/60 41/61/61
f 52/72/72 51/73/73 50/70/70 49/69/69
f 53/74/74 52/72/72 49/69/69 48/68/68
f 54/75/75 53/74/74 48/68/68 47/67/67
f 55/76/76 54/75/75 47/67/67 46/66/66
f 56/77/77 57/78/78 54/75/75 55/76/76
f 57/78/78 58/79/79 53/74/74 54/75/75
f 58/79/79 59/80/80 52/72/72 53/74/74
f 59/80/80 60/81/81 51/73/73 52/72/72
f 60/81/81 181/82/82 180/83/83 51/73/73
f 62/84/84 61/4/4 181/82/82 60/81/81
f 63/85/85 62/84/84 60/81/81 59/80/80
f 64/86/86 63/85/85 59/80/80 58/79/79
f 65/87/87 64/86/86 58/79/79 57/78/78
f 66/88/88 65/87/87 57/78/78 56/77/77
f 67/89/89 68/90/90 65/87/87 66/88/88
f 68/90/90 69/91/91 64/86/86 65/87/87
f 69/91/91 70/92/92 63/85/85 64/86/86
f 70/92/92 71/93/93 62/84/84 63/85/85
f 71/93/93 182/5/5 61/4/4 62/84/84
f 73/94/94 72/95/95 182/5/5 71/93/93
f 74/96/96 73/94/94 71/93/93 70/92/92
f 75/97/97 74/96/96 70/92/92 69/91/91
f 76/98/98 75/97/97 69/91/91 68/90/90
f 77/99/99 76/98/98 68/90/90 67/89/89
f 78/100/100 79/101/101 76/98/98 77/99/99
f 79/101/101 80/102/102 75/97/97 76/98/98
f 80/102/102 81/103/103 74/96/96 75/97/97
f 81/103/103 82/104/104 73/94/94 74/96/96
f 82/104/104 183/105/105 72/95/95 73/94/94
f 84/106/106 83/107/107 82/104/104 81/103/103
f 85/108/108 84/106/106 81/103/103 80/102/102
f 86/109/109 85/108/108 80/102/102 79/101/101
f 87/110/110 86/109/109 79/101/101 78/100/100
f 88/111/111 89/112/112 86/109/109 87/110/110
f 89/112/112 90/113/113 85/108/108 86/109/109
f 90/113/113 91/114/114 84/106/106 85/108/108
f 91/114/114 92/115/115 83/107/107 84/106/106
f 183/105/105 184/116/116 93/117/117 18/3/3
f 93/117/117 185/118/118 186/6/6 18/3/3
f 95/119/119 94/120/120 92/115/115 91/114/114
f 96/121/121 95/119/119 91/114/114 90/113/113
f 97/122/122 96/121/121 90/113/113 89/112/112
f 98/123/123 97/122/122 89/112/112 88/111/111
f 99/124/124 100/125/125 97/122/122 98/123/123
f 100/125/125 101/126/126 96/121/121 97/122/122
f 101/126/126 102/127/127 95/119/119 96/121/121
f 102/127/127 103/128/128 94/120/120 95/119/119
f 103/128/128 186/6/6 185/118/118 94/120/120
f 105/129/129 104/7/7 186/6/6 103/128/128
f 106/130/130 105/129/129 103/128/128 102/127/127
f 107/131/131 106/130/130 102/127/127 101/126/126
f 108/132/132 107/131/131 101/126/126 100/125/125
f 109/133/133 108/132/132 100/125/125 99/124/124
f 110/134/134 111/135/135 108/132/132 109/133/133
f 111/135/135 112/136/136 107/131/131 108/132/132
f 112/136/136 113/137/137 106/130/130 107/131/131
f 113/137/137 114/138/138 105/129/129 106/130/130
f 114/138/138 187/139/139 104/7/7 105/129/129
f 116/140/140 115/8/8 187/139/139 114/138/138
f 117/141/141 116/140/140 114/138/138 113/137/137
f 118/142/142 117/141/141 113/137/137 112/136/136
f 119/143/143 118/142/142 112/136/136 111/135/135
f 120/144/144 119/143/143 111/135/135 110/134/134
f 121/145/145 122/146/146 119/143/143 120/144/144
f 122/146/146 123/147/147 118/142/142 119/143/143
f 123/147/147 124/148/148 117/141/141 118/142/142
f 124/148/148 125/149/149 116/140/140 117/141/141
f 125/149/149 188/9/9 115/8/8 116/140/140
f 127/150/150 126/151/151 125/149/149 124/148/148
f 128/152/152 127/150/150 124/148/148 123/147/147
f 129/153/153 128/152/152 123/147/147 122/146/146
f 130/154/154 129/153/153 122/146/146 121/145/145
f 131/155/155 132/156/156 129/153/153 130/154/154
f 132/156/156 133/157/157 128/152/152 129/153/153
f 133/157/157 134/158/158 127/150/150 128/152/152
f 134/158/158 135/159/159 126/151/151 127/150/150
f 188/9/9 189/160/160 136/10/10 18/3/3
f 138/161/161 137/162/162 135/159/159 134/158/158
f 139/163/163 138/161/161 134/158/158 133/157/157
f 140/164/164 139/163/163 133/157/157 132/156/156
f 141/165/165 140/164/164 132/156/156 131/155/155
f 142/166/166 143/167/167 140/164/164 141/165/165
f 143/167/167 144/168/168 139/163/163 140/164/164
f 144/168/168 145/169/169 138/161/161 139/163/163
f 145/169/169 146/170/170 137/162/162 138/161/161
f 190/11/11 147/171/171 148/172/172 18/3/3
f 149/173/173 148/172/172 147/171/171 146/170/170
f 150/174/174 149/173/173 146/170/170 145/169/169
f 151/175/175 150/174/174 145/169/169 144/168/168
f 152/176/176 151/175/175 144/168/168 143/167/167
f 153/177/177 152/176/176 143/167/167 142/166/166
f 154/178/178 155/179/179 152/176/176 153/177/177
f 155/179/179 156/180/180 151/175/175 152/176/176
f 156/180/180 157/181/181 150/174/174 151/175/175
f 157/181/181 158/182/182 149/173/173 150/174/174
f 148/172/172 159/183/183 191/12/12 18/3/3
f 161/184/184 160/185/185 158/182/182 157/181/181
f 162/186/186 161/184/184 157/181/181 156/180/180
f 163/187/187 162/186/186 156/180/180 155/179/179
f 164/188/188 163/187/187 155/179/179 154/178/178
f 165/189/189 166/190/190 163/187/187 164/188/188
f 166/190/190 167/191/191 162/186/186 163/187/187
f 167/191/191 168/192/192 161/184/184 162/186/186
f 168/192/192 169/193/193 160/185/185 161/184/184
f 169/193/193 192/13/13 191/12/12 160/185/185
f 170/23/23 193/24/24 192/13/13 169/193/193
f 171/21/21 170/23/23 169/193/193 168/192/192
f 172/19/19 171/21/21 168/192/192 167/191/191
f 173/16/16 172/19/19 167/191/191 166/190/190
f 174/17/17 173/16/16 166/190/190 165/189/189
f 160/185/185 191/12/12 159/183/183 158/182/182
f 158/182/182 159/183/183 148/172/172 149/173/173
f 146/170/170 147/171/171 190/11/11 137/162/162
f 137/162/162 190/11/11 136/10/10 135/159/159
f 135/159/159 136/10/10 189/160/160 126/151/151
f 126/151/151 189/160/160 188/9/9 125/149/149
f 104/7/7 187/139/139 115/8/8 18/3/3
f 94/120/120 185/118/118 93/117/117 92/115/115
f 92/115/115 93/117/117 184/116/116 83/107/107
f 83/107/107 184/116/116 183/105/105 82/104/104
f 182/5/5 72/95/95 183/105/105 18/3/3
f 180/83/83 181/82/82 61/4/4 18/3/3
f 51/73/73 180/83/83 179/71/71 50/70/70
f 40/60/60 179/71/71 180/83/83 18/3/3
f 38/57/57 39/59/59 178/58/58 29/49/49
f 29/49/49 178/58/58 177/46/46 28/45/45
f 176/47/47 177/46/46 178/58/58 18/3/3
f 19/37/37 176/47/47 175/35/35 17/34/34
f 7/2/2 175/35/35 176/47/47 18/3/3
f 192/13/13 193/24/24 6/1/1 18/3/3
