# 3ds Max Wavefront OBJ Exporter v0.94b - (c)2007 guruware
# File Created: 20.10.2010 05:32:32

#
# object front
#

v  -51.2964 -4.9500 -4.7258
v  -39.4906 -4.9500 -8.6875
v  -53.1135 -9.9000 -4.1160
v  -53.1135 -4.9878 -4.1240
v  -38.3625 -4.9500 -9.0660
v  -38.3625 -9.9000 -9.0660
v  -53.1135 -0.0379 -4.1075
v  -39.8975 4.8163 -8.5509
v  -38.3625 4.9500 -9.0660
v  -38.3625 0.0000 -9.0660
v  -38.3625 8.6150 -9.0660
v  -51.7052 3.8465 -4.5886
v  -53.1135 7.5611 -4.1160
v  -51.7275 3.7858 -4.5811
v  -38.3625 12.5111 -9.0660
v  -38.3625 12.5111 -4.1160
v  -38.3625 -9.9000 -14.0160
v  -38.3625 -14.8500 -14.0160
v  -38.3625 -14.8500 -9.0660
v  -38.3625 -4.9500 -14.0160
v  -38.3625 0.0000 -14.0160
v  -38.3625 4.9500 -14.0160
v  -38.3625 9.9000 -14.0160
v  -38.3625 12.5111 -14.0160
v  -38.3625 -9.9000 -18.9660
v  -38.3625 -14.8500 -19.4610
v  -38.3625 -4.9500 -18.9660
v  -38.3625 0.0000 -18.9660
v  -38.3625 4.9500 -18.9660
v  -38.3625 9.9000 -18.9660
v  -38.3625 12.5111 -18.9660
v  -36.3825 -8.7365 -23.9160
v  -36.3825 0.0000 -23.9160
v  -36.3825 4.9500 -23.9160
v  -36.3825 9.9000 -23.9160
v  -37.3725 12.0147 -21.9360
v  -28.4625 -0.5015 -23.9160
v  -28.4625 -2.0669 -23.9160
v  -28.4625 -3.6322 -23.9160
v  -28.4625 -5.1976 -23.9160
v  -28.4625 -6.7630 -23.9160
v  -28.4625 4.9500 -23.9160
v  -28.4625 9.9000 -23.9160
v  -28.4625 8.6625 -23.9160
v  -28.4625 7.4250 -23.9160
v  -28.4625 6.1875 -23.9160
v  -18.5625 -6.2615 -23.9160
v  -18.5625 -4.6961 -23.9160
v  -8.6625 0.0000 -23.9160
v  -8.6625 -8.7273 -23.9160
v  -18.5625 -3.1307 -23.9160
v  -18.5625 -1.5654 -23.9160
v  -18.5625 0.0000 -23.9160
v  -18.5625 4.9500 -23.9160
v  -18.5625 6.1875 -23.9160
v  -11.1375 9.7035 -23.9160
v  -8.6625 2.8215 -23.9160
v  -18.5625 7.4250 -23.9160
v  -18.5625 8.6625 -23.9160
v  -18.5625 9.9000 -23.9160
v  -0.0000 -5.4222 -23.9160
v  -0.0000 -9.7534 -23.9160
v  -0.0000 0.0000 -23.9160
v  -0.0000 4.6839 -23.9160
v  -0.0000 5.7223 -23.9160
v  -53.1135 3.6650 -4.1160
v  -26.4825 4.9500 -23.9160
v  -26.4825 -0.5015 -23.9160
v  -20.5425 0.0000 -23.9160
v  -20.5425 4.9500 -23.9160
v  51.2964 -4.9500 -4.7258
v  53.1135 -4.9878 -4.1240
v  53.1135 -9.9000 -4.1160
v  39.4906 -4.9500 -8.6875
v  38.3625 -4.9500 -9.0660
v  38.3625 -9.9000 -9.0660
v  53.1135 -0.0379 -4.1075
v  39.8975 4.8163 -8.5509
v  38.3625 0.0000 -9.0660
v  38.3625 4.9500 -9.0660
v  38.3625 8.6150 -9.0660
v  53.1135 7.5611 -4.1160
v  51.7052 3.8465 -4.5886
v  51.7275 3.7858 -4.5811
v  38.3625 12.5111 -9.0660
v  38.3625 12.5111 -4.1160
v  38.3625 -9.9000 -14.0160
v  38.3625 -14.8500 -9.0660
v  38.3625 -14.8500 -14.0160
v  38.3625 -4.9500 -14.0160
v  38.3625 0.0000 -14.0160
v  38.3625 4.9500 -14.0160
v  38.3625 9.9000 -14.0160
v  38.3625 12.5111 -14.0160
v  38.3625 -9.9000 -18.9660
v  38.3625 -14.8500 -19.4610
v  38.3625 -4.9500 -18.9660
v  38.3625 0.0000 -18.9660
v  38.3625 4.9500 -18.9660
v  38.3625 9.9000 -18.9660
v  38.3625 12.5111 -18.9660
v  36.3825 -8.7365 -23.9160
v  36.3825 0.0000 -23.9160
v  36.3825 4.9500 -23.9160
v  36.3825 9.9000 -23.9160
v  37.3725 12.0147 -21.9360
v  28.4625 -0.5015 -23.9160
v  28.4625 -2.0669 -23.9160
v  28.4625 -3.6322 -23.9160
v  28.4625 -5.1976 -23.9160
v  28.4625 -6.7630 -23.9160
v  28.4625 4.9500 -23.9160
v  28.4625 9.9000 -23.9160
v  28.4625 8.6625 -23.9160
v  28.4625 7.4250 -23.9160
v  28.4625 6.1875 -23.9160
v  18.5625 -6.2615 -23.9160
v  8.6625 -8.7273 -23.9160
v  8.6625 0.0000 -23.9160
v  18.5625 -4.6961 -23.9160
v  18.5625 -3.1307 -23.9160
v  18.5625 -1.5654 -23.9160
v  18.5625 0.0000 -23.9160
v  18.5625 4.9500 -23.9160
v  8.6625 2.8215 -23.9160
v  11.1375 9.7035 -23.9160
v  18.5625 6.1875 -23.9160
v  18.5625 7.4250 -23.9160
v  18.5625 8.6625 -23.9160
v  18.5625 9.9000 -23.9160
v  53.1135 3.6650 -4.1160
v  26.4825 4.9500 -23.9160
v  26.4825 -0.5015 -23.9160
v  20.5425 0.0000 -23.9160
v  20.5425 4.9500 -23.9160
# 135 vertices

vn -0.3176 -0.0002 -0.9482
vn -0.3181 -0.0000 -0.9480
vn -0.3145 0.0032 -0.9493
vn -0.3181 0.0000 -0.9480
vn -0.3181 -0.0002 -0.9481
vn -0.4263 0.7108 -0.5595
vn -1.0000 0.0000 0.0000
vn -0.9308 0.0364 -0.3638
vn -0.9285 0.0000 -0.3714
vn -0.9362 -0.0504 -0.3479
vn 0.0000 0.0000 -1.0000
vn -0.3180 -0.0022 -0.9481
vn -0.3181 0.0000 -0.9481
vn 0.3176 -0.0002 -0.9482
vn 0.3181 -0.0000 -0.9480
vn 0.3145 0.0032 -0.9493
vn 0.3181 0.0000 -0.9480
vn 0.3181 -0.0002 -0.9481
vn 0.4263 0.7108 -0.5595
vn 1.0000 0.0000 0.0000
vn 0.9308 0.0364 -0.3638
vn 0.9285 0.0000 -0.3714
vn 0.9362 -0.0504 -0.3479
vn 0.3180 -0.0022 -0.9481
vn 0.3181 0.0000 -0.9481
# 25 vertex normals

vt 0.0408 0.1784 0.0000
vt 0.1447 0.1784 0.0000
vt 0.0248 0.2220 0.0000
vt 0.0248 0.1788 0.0000
vt 0.1546 0.1784 0.0000
vt 0.1546 0.2220 0.0000
vt 0.0248 0.1352 0.0000
vt 0.1411 0.0925 0.0000
vt 0.1546 0.0913 0.0000
vt 0.1546 0.1349 0.0000
vt 0.1546 0.0591 0.0000
vt 0.0372 0.1010 0.0000
vt 0.0248 0.0684 0.0000
vt 0.0370 0.1016 0.0000
vt 0.1546 0.0248 0.0000
vt 0.1546 0.2655 0.0000
vt 0.1546 0.0478 0.0000
vt 0.1720 0.2117 0.0000
vt 0.1720 0.1349 0.0000
vt 0.1720 0.0913 0.0000
vt 0.1720 0.0478 0.0000
vt 0.1633 0.0292 0.0000
vt 0.2417 0.1393 0.0000
vt 0.2417 0.1531 0.0000
vt 0.2417 0.1668 0.0000
vt 0.2417 0.1806 0.0000
vt 0.2417 0.1944 0.0000
vt 0.2417 0.0913 0.0000
vt 0.2417 0.0478 0.0000
vt 0.2417 0.0587 0.0000
vt 0.2417 0.0696 0.0000
vt 0.2417 0.0804 0.0000
vt 0.3288 0.1900 0.0000
vt 0.3288 0.1762 0.0000
vt 0.4159 0.1349 0.0000
vt 0.4159 0.2117 0.0000
vt 0.3288 0.1624 0.0000
vt 0.3288 0.1487 0.0000
vt 0.3288 0.1349 0.0000
vt 0.3288 0.0913 0.0000
vt 0.3288 0.0804 0.0000
vt 0.3941 0.0495 0.0000
vt 0.4159 0.1101 0.0000
vt 0.3288 0.0696 0.0000
vt 0.3288 0.0587 0.0000
vt 0.3288 0.0478 0.0000
vt 0.4921 0.1826 0.0000
vt 0.4921 0.2207 0.0000
vt 0.4921 0.1349 0.0000
vt 0.4921 0.0937 0.0000
vt 0.4921 0.0845 0.0000
vt 0.0248 0.1026 0.0000
vt 0.2591 0.0913 0.0000
vt 0.2591 0.1393 0.0000
vt 0.3114 0.1349 0.0000
vt 0.3114 0.0913 0.0000
vt 0.9434 0.1784 0.0000
vt 0.9594 0.1788 0.0000
vt 0.9594 0.2220 0.0000
vt 0.8395 0.1784 0.0000
vt 0.8296 0.1784 0.0000
vt 0.8296 0.2220 0.0000
vt 0.9594 0.1352 0.0000
vt 0.8431 0.0925 0.0000
vt 0.8296 0.1349 0.0000
vt 0.8296 0.0913 0.0000
vt 0.8296 0.0591 0.0000
vt 0.9594 0.0684 0.0000
vt 0.9470 0.1010 0.0000
vt 0.9472 0.1016 0.0000
vt 0.8296 0.0248 0.0000
vt 0.8296 0.2655 0.0000
vt 0.8296 0.0478 0.0000
vt 0.8122 0.2117 0.0000
vt 0.8122 0.1349 0.0000
vt 0.8122 0.0913 0.0000
vt 0.8122 0.0478 0.0000
vt 0.8209 0.0292 0.0000
vt 0.7425 0.1393 0.0000
vt 0.7425 0.1531 0.0000
vt 0.7425 0.1668 0.0000
vt 0.7425 0.1806 0.0000
vt 0.7425 0.1944 0.0000
vt 0.7425 0.0913 0.0000
vt 0.7425 0.0478 0.0000
vt 0.7425 0.0587 0.0000
vt 0.7425 0.0696 0.0000
vt 0.7425 0.0804 0.0000
vt 0.6554 0.1900 0.0000
vt 0.5683 0.2117 0.0000
vt 0.5683 0.1349 0.0000
vt 0.6554 0.1762 0.0000
vt 0.6554 0.1624 0.0000
vt 0.6554 0.1487 0.0000
vt 0.6554 0.1349 0.0000
vt 0.6554 0.0913 0.0000
vt 0.5683 0.1101 0.0000
vt 0.5901 0.0495 0.0000
vt 0.6554 0.0804 0.0000
vt 0.6554 0.0696 0.0000
vt 0.6554 0.0587 0.0000
vt 0.6554 0.0478 0.0000
vt 0.9594 0.1026 0.0000
vt 0.7251 0.0913 0.0000
vt 0.7251 0.1393 0.0000
vt 0.6728 0.1349 0.0000
vt 0.6728 0.0913 0.0000
# 107 texture coords

g front
s off
f 1/1/1 2/2/1 3/3/1 4/4/1 
f 5/5/2 6/6/2 3/3/2 2/2/2 
f 4/4/3 7/7/3 1/1/3 
f 8/8/4 9/9/4 10/10/4 
f 11/11/4 9/9/4 12/12/4 13/13/4 
f 8/8/5 14/14/5 12/12/5 9/9/5 
f 15/15/6 11/11/6 13/13/6 16/15/6 
f 17/6/7 18/16/7 19/16/7 6/6/7 
f 20/5/7 17/6/7 6/6/7 5/5/7 
f 21/10/7 20/5/7 5/5/7 10/10/7 
f 22/9/7 21/10/7 10/10/7 9/9/7 
f 23/17/7 22/9/7 9/9/7 11/11/7 
f 24/15/7 23/17/7 11/11/7 15/15/7 
f 25/6/7 26/16/7 18/16/7 17/6/7 
f 27/5/7 25/6/7 17/6/7 20/5/7 
f 28/10/7 27/5/7 20/5/7 21/10/7 
f 29/9/7 28/10/7 21/10/7 22/9/7 
f 30/17/7 29/9/7 22/9/7 23/17/7 
f 31/15/7 30/17/7 23/17/7 24/15/7 
f 25/6/8 32/18/8 26/16/8 
f 25/6/9 27/5/9 32/18/9 
f 33/19/9 32/18/9 27/5/9 28/10/9 
f 34/20/9 33/19/9 28/10/9 29/9/9 
f 35/21/9 34/20/9 29/9/9 30/17/9 
f 36/22/10 35/21/10 30/17/10 31/15/10 
f 37/23/11 38/24/11 32/18/11 33/19/11 
f 39/25/11 40/26/11 32/18/11 38/24/11 
f 32/18/11 40/26/11 41/27/11 
f 42/28/11 37/23/11 33/19/11 34/20/11 
f 43/29/11 44/30/11 34/20/11 35/21/11 
f 45/31/11 46/32/11 34/20/11 44/30/11 
f 34/20/11 46/32/11 42/28/11 
f 47/33/11 48/34/11 49/35/11 50/36/11 
f 51/37/11 52/38/11 49/35/11 48/34/11 
f 49/35/11 52/38/11 53/39/11 
f 54/40/11 55/41/11 56/42/11 57/43/11 
f 58/44/11 59/45/11 56/42/11 55/41/11 
f 56/42/11 59/45/11 60/46/11 
f 53/39/11 54/40/11 57/43/11 49/35/11 
f 50/36/11 61/47/11 62/48/11 
f 61/47/11 50/36/11 49/35/11 63/49/11 
f 63/49/11 49/35/11 57/43/11 64/50/11 
f 65/51/11 64/50/11 57/43/11 56/42/11 
f 7/7/12 66/52/12 14/14/12 
f 13/13/2 12/12/2 14/14/2 66/52/2 
f 10/10/13 5/5/13 2/2/13 
f 67/53/11 68/54/11 37/23/11 42/28/11 
f 69/55/11 70/56/11 54/40/11 53/39/11 
f 71/57/14 72/58/14 73/59/14 74/60/14 
f 75/61/15 74/60/15 73/59/15 76/62/15 
f 72/58/16 71/57/16 77/63/16 
f 78/64/17 79/65/17 80/66/17 
f 81/67/17 82/68/17 83/69/17 80/66/17 
f 78/64/18 80/66/18 83/69/18 84/70/18 
f 85/71/19 86/71/19 82/68/19 81/67/19 
f 87/62/20 76/62/20 88/72/20 89/72/20 
f 90/61/20 75/61/20 76/62/20 87/62/20 
f 91/65/20 79/65/20 75/61/20 90/61/20 
f 92/66/20 80/66/20 79/65/20 91/65/20 
f 93/73/20 81/67/20 80/66/20 92/66/20 
f 94/71/20 85/71/20 81/67/20 93/73/20 
f 95/62/20 87/62/20 89/72/20 96/72/20 
f 97/61/20 90/61/20 87/62/20 95/62/20 
f 98/65/20 91/65/20 90/61/20 97/61/20 
f 99/66/20 92/66/20 91/65/20 98/65/20 
f 100/73/20 93/73/20 92/66/20 99/66/20 
f 101/71/20 94/71/20 93/73/20 100/73/20 
f 95/62/21 96/72/21 102/74/21 
f 95/62/22 102/74/22 97/61/22 
f 103/75/22 98/65/22 97/61/22 102/74/22 
f 104/76/22 99/66/22 98/65/22 103/75/22 
f 105/77/22 100/73/22 99/66/22 104/76/22 
f 106/78/23 101/71/23 100/73/23 105/77/23 
f 107/79/11 103/75/11 102/74/11 108/80/11 
f 109/81/11 108/80/11 102/74/11 110/82/11 
f 102/74/11 111/83/11 110/82/11 
f 112/84/11 104/76/11 103/75/11 107/79/11 
f 113/85/11 105/77/11 104/76/11 114/86/11 
f 115/87/11 114/86/11 104/76/11 116/88/11 
f 104/76/11 112/84/11 116/88/11 
f 117/89/11 118/90/11 119/91/11 120/92/11 
f 121/93/11 120/92/11 119/91/11 122/94/11 
f 119/91/11 123/95/11 122/94/11 
f 124/96/11 125/97/11 126/98/11 127/99/11 
f 128/100/11 127/99/11 126/98/11 129/101/11 
f 126/98/11 130/102/11 129/101/11 
f 123/95/11 119/91/11 125/97/11 124/96/11 
f 118/90/11 62/48/11 61/47/11 
f 61/47/11 63/49/11 119/91/11 118/90/11 
f 63/49/11 64/50/11 125/97/11 119/91/11 
f 65/51/11 126/98/11 125/97/11 64/50/11 
f 77/63/24 84/70/24 131/103/24 
f 82/68/15 131/103/15 84/70/15 83/69/15 
f 79/65/25 74/60/25 75/61/25 
f 132/104/11 112/84/11 107/79/11 133/105/11 
f 134/106/11 123/95/11 124/96/11 135/107/11 
# 74 polygons - 22 triangles

