# 3ds Max Wavefront OBJ Exporter v0.94b - (c)2007 guruware
# File Created: 03.11.2010 00:04:47

#
# object Box02
#

v  -56.3075 -14.1226 -20.7292
v  -56.3075 11.8774 -20.7292
v  56.3075 11.8774 -20.7292
v  56.3075 -14.1226 -20.7292
v  -56.3075 -14.1226 58.1485
v  56.3075 -14.1226 58.1485
v  56.3075 11.8774 58.1485
v  -56.3075 11.8774 58.1485
# 8 vertices

vn 0.0000 0.0000 -1.0000
vn 0.0000 0.0000 1.0000
vn 0.0000 -1.0000 0.0000
vn 1.0000 0.0000 0.0000
vn 0.0000 1.0000 0.0000
vn -1.0000 0.0000 0.0000
# 6 vertex normals

vt 1.0000 0.0000 0.0000
vt 1.0000 26.0000 0.0000
vt -111.6149 26.0000 0.0000
vt -111.6149 0.0000 0.0000
vt 0.0000 0.0000 0.0000
vt 112.6149 0.0000 0.0000
vt 112.6149 26.0000 0.0000
vt 0.0000 26.0000 0.0000
vt 112.6149 78.8778 0.0000
vt 0.0000 78.8778 0.0000
vt 26.0000 0.0000 0.0000
vt 26.0000 78.8778 0.0000
# 12 texture coords

g Box02
s 2
f 1/1/1 2/2/1 3/3/1 4/4/1 
s 4
f 5/5/2 6/6/2 7/7/2 8/8/2 
s 8
f 1/5/3 4/6/3 6/9/3 5/10/3 
s 16
f 4/5/4 3/11/4 7/12/4 6/10/4 
s 32
f 3/5/5 2/6/5 8/9/5 7/10/5 
s 64
f 2/5/6 1/11/6 5/12/6 8/10/6 
# 6 polygons

#
# object hh_gear
#

v  -22.7610 -27.2605 13.2849
v  -22.7610 -25.4722 -0.3303
v  -22.7610 -25.4722 -4.8687
v  -22.7610 -27.2605 -4.8687
v  -22.7610 -25.4722 13.2849
v  -18.8857 -25.4722 -4.8687
v  -18.8858 -25.4722 13.2849
v  -18.8858 -27.2605 13.2849
v  -18.8857 -27.2605 -4.8687
v  -19.8546 -25.4722 4.2081
v  -19.8546 -25.4722 8.7465
v  -19.8546 -25.4722 -0.3303
v  -21.7922 -25.4722 -0.3303
v  -21.7922 -25.4722 8.7465
v  -21.5411 -13.8905 -0.0350
v  -20.1057 -13.8905 8.4512
v  -20.1057 -13.8905 -0.0350
v  -21.5411 -13.8905 8.4512
v  -20.1057 -19.6813 4.2081
v  -19.8546 -19.6813 8.7465
v  -19.8546 -19.6813 -0.3303
v  -21.7922 -19.6813 -0.3303
v  -21.5411 -19.6813 4.2081
v  -21.7922 -19.6813 8.7465
v  -20.1057 -19.6813 8.4512
v  -20.1057 -19.6813 -0.0350
v  -21.5411 -19.6813 -0.0350
v  -21.5411 -19.6813 8.4512
# 28 vertices

vn -1.0000 0.0000 0.0000
vn 1.0000 0.0000 0.0000
vn 0.0000 0.0000 -1.0000
vn 0.0000 -1.0000 0.0000
vn 0.0000 0.0000 1.0000
vn 0.0000 1.0000 0.0000
vn 0.9994 0.0217 -0.0276
vn 0.9994 0.0217 0.0276
vn -0.9994 0.0289 0.0184
vn -0.9374 0.0000 0.3483
# 10 vertex normals

vt -0.5441 12.2937 0.0000
vt 1.0000 3.0734 0.0000
vt 1.0000 0.0000 0.0000
vt -0.5441 0.0000 0.0000
vt 1.0000 6.1469 0.0000
vt 0.0000 3.0734 0.0000
vt 0.0000 6.1469 0.0000
vt 1.5441 12.2937 0.0000
vt 0.0000 0.0000 0.0000
vt 1.5441 0.0000 0.0000
vt 0.0000 -0.7717 0.0000
vt 1.5441 -3.0867 0.0000
vt 12.2937 -3.0867 0.0000
vt 12.2937 0.0000 0.0000
vt 0.0000 -3.0867 0.0000
vt 1.5441 -0.7717 0.0000
vt 3.0734 -3.0867 0.0000
vt 6.1469 -2.3151 0.0000
vt 3.0734 -2.3151 0.0000
vt 9.2203 -3.0867 0.0000
vt 9.2203 -2.3151 0.0000
vt 6.1469 -3.0867 0.0000
vt 9.2203 0.0000 0.0000
vt 9.2203 -0.7717 0.0000
vt 12.2937 -0.7717 0.0000
vt 6.1469 -0.7717 0.0000
vt 6.1469 0.0000 0.0000
vt 6.1469 -1.5434 0.0000
vt 9.2203 -1.5434 0.0000
vt 3.0734 0.0000 0.0000
vt 3.0734 -0.7717 0.0000
vt 3.0734 -1.5434 0.0000
vt 6.2193 -0.7717 0.0000
# 33 texture coords

g hh_gear
s 2
f 9/13/7 10/14/7 11/15/7 12/16/7 
f 9/13/7 13/17/7 10/14/7 
s 4
f 14/18/8 15/19/8 16/20/8 
f 14/21/8 16/20/8 17/22/8 
s 8
f 14/23/9 17/24/9 11/21/9 
f 11/21/9 17/24/9 12/22/9 
s 16
f 16/25/10 9/26/10 12/21/10 17/27/10 
s 32
f 9/21/11 16/27/11 15/24/11 
f 9/21/11 15/28/11 13/22/11 
s 64
f 15/29/12 18/30/12 19/31/12 
f 14/32/12 20/33/12 18/30/12 15/34/12 
f 10/35/12 21/36/12 14/37/12 11/26/12 
f 22/38/12 21/36/12 10/35/12 13/39/12 
f 23/38/12 24/40/12 25/41/12 
f 20/41/12 14/37/12 21/36/12 
f 13/42/12 15/23/12 22/43/12 
f 15/23/12 19/44/12 22/43/12 
f 24/44/12 23/38/12 26/43/12 
s off
f 27/30/13 28/31/13 19/31/13 18/30/13 
f 29/33/14 27/30/14 18/30/14 20/33/14 
f 30/36/9 29/41/9 20/41/9 21/36/9 
f 31/38/15 30/36/15 21/36/15 22/38/15 
f 22/38/16 19/45/16 32/43/16 31/38/16 
f 19/44/11 28/31/11 32/44/11 
f 28/31/12 27/30/12 33/31/12 
f 27/30/12 29/33/12 34/33/12 
f 35/36/12 34/41/12 29/41/12 30/36/12 
f 30/36/12 31/38/12 35/36/12 
f 31/38/12 32/43/12 36/43/12 
f 33/31/12 36/44/12 32/44/12 28/31/12 
f 33/31/8 27/30/8 24/30/8 
f 25/33/8 24/30/8 27/30/8 34/33/8 
f 23/36/9 25/41/9 34/41/9 35/36/9 
f 35/36/7 31/38/7 23/38/7 
f 26/43/7 23/38/7 31/38/7 36/43/7 
f 36/43/11 33/44/11 24/44/11 26/43/11 
# 16 polygons - 20 triangles

#
# object hh_gear01
#

v  18.8853 -27.2605 13.2849
v  18.8853 -25.4722 -0.3303
v  18.8853 -25.4722 -4.8687
v  18.8853 -27.2605 -4.8687
v  18.8853 -25.4722 13.2849
v  22.7607 -25.4722 -4.8687
v  22.7605 -25.4722 13.2849
v  22.7605 -27.2605 13.2849
v  22.7607 -27.2605 -4.8687
v  21.7917 -25.4722 4.2081
v  21.7917 -25.4722 8.7465
v  21.7917 -25.4722 -0.3303
v  19.8542 -25.4722 -0.3303
v  19.8542 -25.4722 8.7465
v  20.1052 -13.8905 -0.0350
v  21.5406 -13.8905 8.4512
v  21.5406 -13.8905 -0.0350
v  20.1052 -13.8905 8.4512
v  21.5406 -19.6813 4.2081
v  21.7917 -19.6813 8.7465
v  21.7917 -19.6813 -0.3303
v  19.8542 -19.6813 -0.3303
v  20.1052 -19.6813 4.2081
v  19.8542 -19.6813 8.7465
v  21.5406 -19.6813 8.4512
v  21.5406 -19.6813 -0.0350
v  20.1052 -19.6813 -0.0350
v  20.1052 -19.6813 8.4512
# 28 vertices

vn -1.0000 0.0000 0.0000
vn 1.0000 0.0000 0.0000
vn 0.0000 0.0000 -1.0000
vn 0.0000 -1.0000 0.0000
vn 0.0000 0.0000 1.0000
vn 0.0000 1.0000 0.0000
vn 0.9994 0.0217 -0.0276
vn 0.9994 0.0217 0.0276
vn -0.9994 0.0289 0.0184
vn -0.9374 0.0000 0.3483
# 10 vertex normals

vt -0.5441 12.2937 0.0000
vt 1.0000 3.0734 0.0000
vt 1.0000 0.0000 0.0000
vt -0.5441 0.0000 0.0000
vt 1.0000 6.1469 0.0000
vt 0.0000 3.0734 0.0000
vt 0.0000 6.1469 0.0000
vt 1.5441 12.2937 0.0000
vt 0.0000 0.0000 0.0000
vt 1.5441 0.0000 0.0000
vt 0.0000 -0.7717 0.0000
vt 1.5441 -3.0867 0.0000
vt 12.2937 -3.0867 0.0000
vt 12.2937 0.0000 0.0000
vt 0.0000 -3.0867 0.0000
vt 1.5441 -0.7717 0.0000
vt 3.0734 -3.0867 0.0000
vt 6.1469 -2.3151 0.0000
vt 3.0734 -2.3151 0.0000
vt 9.2203 -3.0867 0.0000
vt 9.2203 -2.3151 0.0000
vt 6.1469 -3.0867 0.0000
vt 9.2203 0.0000 0.0000
vt 9.2203 -0.7717 0.0000
vt 12.2937 -0.7717 0.0000
vt 6.1469 -0.7717 0.0000
vt 6.1469 0.0000 0.0000
vt 6.1469 -1.5434 0.0000
vt 9.2203 -1.5434 0.0000
vt 3.0734 0.0000 0.0000
vt 3.0734 -0.7717 0.0000
vt 3.0734 -1.5434 0.0000
vt 6.2193 -0.7717 0.0000
# 33 texture coords

g hh_gear01
s 2
f 37/46/17 38/47/17 39/48/17 40/49/17 
f 37/46/17 41/50/17 38/47/17 
s 4
f 42/51/18 43/52/18 44/53/18 
f 42/54/18 44/53/18 45/55/18 
s 8
f 42/56/19 45/57/19 39/54/19 
f 39/54/19 45/57/19 40/55/19 
s 16
f 44/58/20 37/59/20 40/54/20 45/60/20 
s 32
f 37/54/21 44/60/21 43/57/21 
f 37/54/21 43/61/21 41/55/21 
s 64
f 43/62/22 46/63/22 47/64/22 
f 42/65/22 48/66/22 46/63/22 43/67/22 
f 38/68/22 49/69/22 42/70/22 39/59/22 
f 50/71/22 49/69/22 38/68/22 41/72/22 
f 51/71/22 52/73/22 53/74/22 
f 48/74/22 42/70/22 49/69/22 
f 41/75/22 43/56/22 50/76/22 
f 43/56/22 47/77/22 50/76/22 
f 52/77/22 51/71/22 54/76/22 
s off
f 55/63/23 56/64/23 47/64/23 46/63/23 
f 57/66/24 55/63/24 46/63/24 48/66/24 
f 58/69/19 57/74/19 48/74/19 49/69/19 
f 59/71/25 58/69/25 49/69/25 50/71/25 
f 50/71/26 47/78/26 60/76/26 59/71/26 
f 47/77/21 56/64/21 60/77/21 
f 56/64/22 55/63/22 61/64/22 
f 55/63/22 57/66/22 62/66/22 
f 63/69/22 62/74/22 57/74/22 58/69/22 
f 58/69/22 59/71/22 63/69/22 
f 59/71/22 60/76/22 64/76/22 
f 61/64/22 64/77/22 60/77/22 56/64/22 
f 61/64/18 55/63/18 52/63/18 
f 53/66/18 52/63/18 55/63/18 62/66/18 
f 51/69/19 53/74/19 62/74/19 63/69/19 
f 63/69/17 59/71/17 51/71/17 
f 54/76/17 51/71/17 59/71/17 64/76/17 
f 64/76/21 61/77/21 52/77/21 54/76/21 
# 16 polygons - 20 triangles

