# 3ds Max Wavefront OBJ Exporter v0.94b - (c)2007 guruware
# File Created: 21.10.2010 04:17:40

#
# object lldr
#

v  18.5125 -14.8500 5.7840
v  13.8625 -14.8500 5.7840
v  13.8625 -14.8500 1.0840
v  18.5125 -14.8500 1.0840
v  18.5125 -14.8500 10.7340
v  13.8625 -14.8500 10.7340
v  18.5125 -14.8500 15.6840
v  13.8625 -14.8500 15.6840
v  18.5125 -14.8500 20.3840
v  13.8625 -14.8500 20.3840
# 10 vertices

vn 0.0000 -1.0000 0.0000
# 1 vertex normals

vt 0.6426 0.6036 0.0000
vt 0.6071 0.6036 0.0000
vt 0.6071 0.5677 0.0000
vt 0.6426 0.5677 0.0000
vt 0.6426 0.6413 0.0000
vt 0.6071 0.6413 0.0000
vt 0.6426 0.6791 0.0000
vt 0.6071 0.6791 0.0000
vt 0.6426 0.7150 0.0000
vt 0.6071 0.7150 0.0000
# 10 texture coords

g lldr
s 16
f 1/1/1 2/2/1 3/3/1 4/4/1 
f 5/5/1 6/6/1 2/2/1 1/1/1 
f 7/7/1 8/8/1 6/6/1 5/5/1 
f 9/9/1 10/10/1 8/8/1 7/7/1 
# 4 polygons

