# 3ds Max Wavefront OBJ Exporter v0.94b - (c)2007 guruware
# File Created: 20.10.2010 04:52:48

#
# object steel
#

v  -64.0050 -0.2302 50.2687
v  -63.9993 -4.4277 50.2962
v  -57.4753 -4.5664 55.0115
v  -57.4763 -0.3689 55.0128
v  -64.0022 -0.2566 45.3213
v  -64.0022 -4.4541 45.3437
v  -64.0022 -0.2830 40.3714
v  -64.0022 -4.4805 40.3938
v  -64.0022 -0.3094 35.4215
v  -64.0022 -4.5069 35.4439
v  -64.0022 -0.3358 30.4716
v  -64.0022 -4.5333 30.4940
v  -64.0022 -0.3622 25.5257
v  -64.0022 -4.5597 25.5400
v  -64.0022 -0.4959 20.5958
v  -64.0022 -4.6935 20.5703
v  -64.0022 -0.4794 15.6400
v  -64.0022 -4.6770 15.6260
v  -64.0022 -0.4628 10.6901
v  -64.0022 -4.6604 10.6760
v  -62.0222 -0.4463 5.7401
v  -62.0222 -4.6439 5.7261
v  -58.0622 -0.4298 0.7901
v  -58.0622 -4.6273 0.7761
v  -54.3372 -0.4142 -3.8661
v  -54.3372 -4.6118 -3.8801
v  -63.0135 -4.8048 50.3468
v  -56.1825 -4.9500 55.2840
v  -56.1825 0.0000 55.2840
v  -63.0135 0.1452 50.3204
v  -63.0135 0.1188 45.3704
v  -63.0135 0.0924 40.4205
v  -63.0135 0.0660 35.4706
v  -63.0135 0.0396 30.5206
v  -63.0135 0.0132 25.5707
v  -63.0135 -0.1206 20.6424
v  -63.0135 -0.1040 15.6924
v  -63.0135 -0.0875 10.7424
v  -61.0335 -0.0710 5.7924
v  -57.0735 -0.0544 0.8425
v  -53.1135 -0.0379 -4.1075
v  -53.1135 -4.9878 -4.1240
v  -57.0735 -5.0044 0.8259
v  -61.0335 -5.0209 5.7759
v  -63.0135 -5.0375 10.7259
v  -63.0135 -5.0540 15.6758
v  -63.0135 -5.0706 20.6258
v  -63.0135 -4.9368 25.5971
v  -63.0135 -4.9104 30.5470
v  -63.0135 -4.8840 35.4970
v  -63.0135 -4.8576 40.4469
v  -63.0135 -4.8312 45.3968
v  64.0050 -0.2302 50.2687
v  57.4763 -0.3689 55.0128
v  57.4753 -4.5664 55.0115
v  63.9993 -4.4277 50.2962
v  64.0022 -0.2566 45.3213
v  64.0022 -4.4541 45.3437
v  64.0022 -0.2830 40.3714
v  64.0022 -4.4805 40.3938
v  64.0022 -0.3094 35.4215
v  64.0022 -4.5069 35.4439
v  64.0022 -0.3358 30.4716
v  64.0022 -4.5333 30.4940
v  64.0022 -0.3622 25.5257
v  64.0022 -4.5597 25.5400
v  64.0022 -0.4959 20.5958
v  64.0022 -4.6935 20.5703
v  64.0022 -0.4794 15.6400
v  64.0022 -4.6770 15.6260
v  64.0022 -0.4628 10.6901
v  64.0022 -4.6604 10.6760
v  62.0222 -0.4463 5.7401
v  62.0222 -4.6439 5.7261
v  58.0622 -0.4298 0.7901
v  58.0622 -4.6273 0.7761
v  54.3372 -0.4142 -3.8661
v  54.3372 -4.6118 -3.8801
v  56.1825 -4.9500 55.2840
v  63.0135 -4.8048 50.3468
v  56.1825 0.0000 55.2840
v  63.0135 0.1452 50.3204
v  63.0135 0.1188 45.3704
v  63.0135 0.0924 40.4205
v  63.0135 0.0660 35.4706
v  63.0135 0.0396 30.5206
v  63.0135 0.0132 25.5707
v  63.0135 -0.1206 20.6424
v  63.0135 -0.1040 15.6924
v  63.0135 -0.0875 10.7424
v  61.0335 -0.0710 5.7924
v  57.0735 -0.0544 0.8425
v  53.1135 -0.0379 -4.1075
v  53.1135 -4.9878 -4.1240
v  57.0735 -5.0044 0.8259
v  61.0335 -5.0209 5.7759
v  63.0135 -5.0375 10.7259
v  63.0135 -5.0540 15.6758
v  63.0135 -5.0706 20.6258
v  63.0135 -4.9368 25.5971
v  63.0135 -4.9104 30.5470
v  63.0135 -4.8840 35.4970
v  63.0135 -4.8576 40.4469
v  63.0135 -4.8312 45.3968
v  23.4020 12.0289 19.8420
v  23.5125 11.2446 20.6340
v  26.4035 11.6914 20.6340
v  25.7732 12.3953 19.8420
v  20.9436 11.7160 19.8420
v  20.5218 10.8640 20.6340
# 110 vertices

vn -0.8925 0.0009 0.4511
vn -0.8887 0.0021 0.4585
vn -0.5872 0.0011 0.8094
vn -0.5878 -0.0004 0.8090
vn -1.0000 -0.0003 0.0000
vn -1.0000 0.0000 0.0003
vn -1.0000 0.0000 0.0000
vn -0.9820 0.0006 -0.1891
vn -0.8640 0.0017 -0.5035
vn -0.7809 0.0021 -0.6247
vn -0.3397 -0.8283 0.4456
vn -0.2057 -0.0002 0.9786
vn -0.3322 0.8114 0.4809
vn -0.3543 0.9351 -0.0051
vn -0.3547 0.9349 -0.0050
vn -0.3548 0.9349 -0.0050
vn -0.3538 0.9350 -0.0254
vn -0.3551 0.9348 0.0031
vn -0.3454 0.9287 -0.1351
vn -0.3305 0.9069 -0.2613
vn -0.1945 0.0033 -0.9809
vn -0.3314 -0.9046 -0.2682
vn -0.3315 -0.9046 -0.2682
vn -0.3465 -0.9273 -0.1417
vn -0.3562 -0.9344 -0.0031
vn -0.3575 -0.9336 0.0251
vn -0.3566 -0.9342 0.0050
vn -0.3571 -0.9341 0.0051
vn 0.8925 0.0009 0.4511
vn 0.5878 -0.0004 0.8090
vn 0.5872 0.0011 0.8094
vn 0.8887 0.0021 0.4585
vn 1.0000 -0.0003 0.0000
vn 1.0000 0.0000 0.0003
vn 1.0000 0.0000 0.0000
vn 0.9820 0.0006 -0.1891
vn 0.8640 0.0017 -0.5035
vn 0.7809 0.0021 -0.6247
vn 0.3397 -0.8283 0.4456
vn 0.2057 -0.0002 0.9786
vn 0.3322 0.8114 0.4809
vn 0.3543 0.9351 -0.0051
vn 0.3547 0.9349 -0.0050
vn 0.3548 0.9349 -0.0050
vn 0.3538 0.9350 -0.0254
vn 0.3551 0.9348 0.0031
vn 0.3454 0.9287 -0.1351
vn 0.3305 0.9069 -0.2613
vn 0.1945 0.0033 -0.9809
vn 0.3314 -0.9046 -0.2682
vn 0.3315 -0.9046 -0.2682
vn 0.3465 -0.9273 -0.1417
vn 0.3562 -0.9344 -0.0031
vn 0.3575 -0.9336 0.0251
vn 0.3566 -0.9342 0.0050
vn 0.3571 -0.9341 0.0051
vn -0.1080 0.6988 0.7071
vn -0.0893 0.7015 0.7071
# 58 vertex normals

vt 7.5000 2.5000 0.0000
vt 5.0000 2.5000 0.0000
vt 5.0000 0.0000 0.0000
vt 7.5000 0.0000 0.0000
vt 7.5000 5.0000 0.0000
vt 5.0000 5.0000 0.0000
vt 7.5000 7.5000 0.0000
vt 5.0000 7.5000 0.0000
vt 7.5000 10.0000 0.0000
vt 5.0000 10.0000 0.0000
vt 7.5000 12.5000 0.0000
vt 5.0000 12.5000 0.0000
vt 7.5000 15.0000 0.0000
vt 5.0000 15.0000 0.0000
vt 7.5000 17.5000 0.0000
vt 5.0000 17.5000 0.0000
vt 7.5000 20.0000 0.0000
vt 5.0000 20.0000 0.0000
vt 7.5000 22.5000 0.0000
vt 5.0000 22.5000 0.0000
vt 7.5000 25.0000 0.0000
vt 5.0000 25.0000 0.0000
vt 7.5000 27.5000 0.0000
vt 5.0000 27.5000 0.0000
vt 7.5000 30.0000 0.0000
vt 5.0000 30.0000 0.0000
vt 17.5000 7.5000 0.0000
vt 17.5000 8.9601 0.0000
vt 17.5000 5.9895 0.0000
# 29 texture coords

g steel
s 1
f 1/1/1 2/2/2 3/3/3 4/4/4 
f 5/5/5 6/6/6 2/2/2 1/1/1 
f 7/7/7 8/8/7 6/6/6 5/5/5 
f 9/9/7 10/10/7 8/8/7 7/7/7 
f 11/11/7 12/12/7 10/10/7 9/9/7 
f 13/13/7 14/14/7 12/12/7 11/11/7 
f 15/15/7 16/16/7 14/14/7 13/13/7 
f 17/17/7 18/18/7 16/16/7 15/15/7 
f 19/19/8 20/20/8 18/18/7 17/17/7 
f 21/21/9 22/22/9 20/20/8 19/19/8 
f 23/23/10 24/24/10 22/22/9 21/21/9 
f 25/25/10 26/26/10 24/24/10 23/23/10 
s off
f 3/3/11 2/2/11 27/2/11 28/3/11 
f 4/4/12 3/3/12 28/3/12 29/4/12 
f 1/1/13 4/4/13 29/4/13 30/1/13 
f 5/5/14 1/1/14 30/1/14 31/5/14 
f 7/7/15 5/5/15 31/5/15 32/7/15 
f 9/9/15 7/7/15 32/7/15 33/9/15 
f 11/11/15 9/9/15 33/9/15 34/11/15 
f 13/13/16 11/11/16 34/11/16 35/13/16 
f 15/15/17 13/13/17 35/13/17 36/15/17 
f 17/17/18 15/15/18 36/15/18 37/17/18 
f 19/19/18 17/17/18 37/17/18 38/19/18 
f 21/21/19 19/19/19 38/19/19 39/21/19 
f 23/23/20 21/21/20 39/21/20 40/23/20 
f 25/25/20 23/23/20 40/23/20 41/25/20 
f 26/26/21 25/25/21 41/25/21 42/26/21 
f 24/24/22 26/26/22 42/26/22 43/24/22 
f 22/22/23 24/24/23 43/24/23 44/22/23 
f 20/20/24 22/22/24 44/22/24 45/20/24 
f 18/18/25 20/20/25 45/20/25 46/18/25 
f 16/16/25 18/18/25 46/18/25 47/16/25 
f 14/14/26 16/16/26 47/16/26 48/14/26 
f 12/12/27 14/14/27 48/14/27 49/12/27 
f 10/10/27 12/12/27 49/12/27 50/10/27 
f 8/8/27 10/10/27 50/10/27 51/8/27 
f 6/6/27 8/8/27 51/8/27 52/6/27 
f 2/2/28 6/6/28 52/6/28 27/2/28 
s 1
f 53/1/29 54/4/30 55/3/31 56/2/32 
f 57/5/33 53/1/29 56/2/32 58/6/34 
f 59/7/35 57/5/33 58/6/34 60/8/35 
f 61/9/35 59/7/35 60/8/35 62/10/35 
f 63/11/35 61/9/35 62/10/35 64/12/35 
f 65/13/35 63/11/35 64/12/35 66/14/35 
f 67/15/35 65/13/35 66/14/35 68/16/35 
f 69/17/35 67/15/35 68/16/35 70/18/35 
f 71/19/36 69/17/35 70/18/35 72/20/36 
f 73/21/37 71/19/36 72/20/36 74/22/37 
f 75/23/38 73/21/37 74/22/37 76/24/38 
f 77/25/38 75/23/38 76/24/38 78/26/38 
s off
f 55/3/39 79/3/39 80/2/39 56/2/39 
f 54/4/40 81/4/40 79/3/40 55/3/40 
f 53/1/41 82/1/41 81/4/41 54/4/41 
f 57/5/42 83/5/42 82/1/42 53/1/42 
f 59/7/43 84/7/43 83/5/43 57/5/43 
f 61/9/43 85/9/43 84/7/43 59/7/43 
f 63/11/43 86/11/43 85/9/43 61/9/43 
f 65/13/44 87/13/44 86/11/44 63/11/44 
f 67/15/45 88/15/45 87/13/45 65/13/45 
f 69/17/46 89/17/46 88/15/46 67/15/46 
f 71/19/46 90/19/46 89/17/46 69/17/46 
f 73/21/47 91/21/47 90/19/47 71/19/47 
f 75/23/48 92/23/48 91/21/48 73/21/48 
f 77/25/48 93/25/48 92/23/48 75/23/48 
f 78/26/49 94/26/49 93/25/49 77/25/49 
f 76/24/50 95/24/50 94/26/50 78/26/50 
f 74/22/51 96/22/51 95/24/51 76/24/51 
f 72/20/52 97/20/52 96/22/52 74/22/52 
f 70/18/53 98/18/53 97/20/53 72/20/53 
f 68/16/53 99/16/53 98/18/53 70/18/53 
f 66/14/54 100/14/54 99/16/54 68/16/54 
f 64/12/55 101/12/55 100/14/55 66/14/55 
f 62/10/55 102/10/55 101/12/55 64/12/55 
f 60/8/55 103/8/55 102/10/55 62/10/55 
f 58/6/55 104/6/55 103/8/55 60/8/55 
f 56/2/56 80/2/56 104/6/56 58/6/56 
f 105/27/57 106/27/57 107/28/57 108/28/57 
f 109/29/58 110/29/58 106/27/58 105/27/58 
# 78 polygons

