o c_flap_ll
v 0.925131 -0.180694 -5.162472
v 0.744648 -0.151129 5.177187
v 0.001374 -0.003421 5.170637
v -0.001370 0.003425 -5.170637
v 0.925055 -0.080787 -5.158128
v 0.744572 -0.051223 5.181531
v 0.001298 0.096485 5.174981
v -0.001446 0.103331 -5.166293
v 0.744572 -0.051223 5.181531
v 0.925055 -0.080787 -5.158128
v 0.925131 -0.180694 -5.162472
v 0.744648 -0.151129 5.177187
v 0.744648 -0.151129 5.177187
v 0.001374 -0.003421 5.170637
v 0.001298 0.096485 5.174981
v 0.744572 -0.051223 5.181531
v 0.001374 -0.003421 5.170637
v 0.001298 0.096485 5.174981
v -0.001446 0.103331 -5.166293
v -0.001370 0.003425 -5.170637
v -0.001370 0.003425 -5.170637
v 0.925131 -0.180694 -5.162472
v 0.925055 -0.080787 -5.158128
v -0.001446 0.103331 -5.166293
vt 0.999023 0.537109
vt 0.875977 0.537109
vt 0.875977 0.567383
vt 0.999023 0.567383
vn -0.194891 -0.980804 -0.000580
vn 0.194891 0.980804 0.000580
vn 0.999847 0.000000 0.017426
vn -0.017426 -0.043428 0.998901
vn -0.999969 -0.000763 0.000244
vn 0.017426 0.043428 -0.998901
usemtl Material
s 1
f 1/1/1 2/2/1 3/3/1 4/4/1
f 5/1/2 8/4/2 7/3/2 6/2/2
f 9/2/3 12/2/3 11/1/3 10/1/3
f 13/2/4 16/2/4 15/3/4 14/3/4
f 17/3/5 18/3/5 19/4/5 20/4/5
f 21/4/6 24/4/6 23/1/6 22/1/6
