o c_gun
v -0.035907 0.016958 -0.855749
v -0.000077 0.033204 -0.855785
v -0.000059 -0.002873 -1.069088
v -0.035889 -0.019119 -0.855698
v 0.086520 -0.042330 -0.954552
v 0.086507 0.044800 -0.000076
v -0.086506 -0.042015 0.000095
v 0.086471 0.044758 -0.954613
v 0.035776 0.013379 -0.855783
v 0.086557 -0.042281 -0.000015
v 0.000044 -0.089875 0.000095
v -0.086554 0.045072 -0.000015
v -0.000047 0.084299 -0.000076
v -0.000035 -0.038944 -0.855698
v 0.035793 -0.022692 -0.855747
v -0.086543 -0.042063 -0.954491
v 0.000014 -0.089924 -0.954493
v -0.000077 0.084251 -0.954613
v -0.086590 0.045018 -0.954552
v -0.035907 0.016958 -0.855749
v -0.000077 0.033204 -0.855785
v 0.035776 0.013379 -0.855783
v 0.035793 -0.022692 -0.855747
v -0.000035 -0.038944 -0.855698
v -0.035889 -0.019119 -0.855698
v -0.086543 -0.042063 -0.954491
v 0.000014 -0.089924 -0.954493
v 0.086520 -0.042330 -0.954552
v 0.086471 0.044758 -0.954613
v -0.000077 0.084251 -0.954613
v -0.086590 0.045018 -0.954552
vt 0.049613 0.975952
vt 0.061332 0.970093
vt 0.061332 0.982788
vt 0.049613 0.964234
vt 0.060355 0.957398
vt 0.072074 0.964234
vt 0.072074 0.975952
vt 0.067053 0.883804
vt 0.066076 0.884781
vt 0.066076 0.883804
vt 0.068030 0.882828
vt 0.068030 0.883804
vt 0.021232 0.967334
vt 0.042717 0.967334
vt 0.042717 0.890185
vt 0.021232 0.890185
vt 0.066076 0.882828
vt 0.067053 0.884781
vt 0.080802 0.967334
vt 0.080802 0.890185
vt 0.098381 0.967334
vt 0.098381 0.890185
vn -0.846583 -0.500748 -0.180273
vn -0.000031 -0.000122 -1.000000
vn -0.039369 -0.985229 -0.166540
vn -0.825343 0.532304 -0.188147
vn 0.039277 0.985229 -0.166631
vn 0.846706 0.500534 -0.180364
vn 0.825190 -0.532548 -0.188147
vn -0.744102 0.459639 -0.484756
vn -0.728080 -0.460036 -0.508133
vn 0.722953 -0.471664 -0.504776
vn 0.748589 0.448683 -0.488083
vn -0.001068 -0.999969 0.000031
vn -0.861202 -0.508194 0.000031
vn 0.860958 -0.508652 0.000000
vn 0.009186 0.893094 -0.449721
vn -0.010071 -0.883969 -0.467391
vn -0.840663 0.541520 0.000000
vn 0.001160 0.999969 -0.000031
vn 0.840999 0.541002 -0.000031
usemtl Material
s 1
f 4/1/1 3/2/2 14/3/3
f 1/4/4 3/2/2 4/1/1
f 3/2/2 1/4/4 2/5/5
f 9/6/6 3/2/2 2/5/5
f 15/7/7 3/2/2 9/6/6
f 14/3/3 3/2/2 15/7/7
f 23/8/8 22/8/9 29/9/9 5/10/8
f 20/8/10 25/8/11 16/11/11 19/12/10
f 11/13/12 7/14/13 26/15/13 17/16/12
f 10/14/14 11/13/12 17/16/12 28/15/14
f 27/17/15 16/11/11 25/8/11 24/8/15
f 21/8/16 20/8/10 19/12/10 18/18/16
f 7/14/13 12/19/17 31/20/17 26/15/13
f 12/19/17 13/21/18 30/22/18 31/20/17
f 13/21/18 6/19/19 8/20/19 30/22/18
f 6/19/19 10/14/14 28/15/14 8/20/19
f 5/10/8 27/17/15 24/8/15 23/8/8
f 18/18/16 29/9/9 22/8/9 21/8/16
