# Blender3D v249 OBJ File: courier_2012-3.blend
# www.blender3d.org
v -20.567858 -1.801125 7.621787
v -22.992746 -3.784804 8.656429
v -22.984348 -4.154829 9.556493
v -20.561964 -2.198869 8.552521
v -20.577526 -1.810055 4.463123
v -23.014755 -3.803565 5.737957
v -20.592043 -2.221912 3.656199
v -23.022184 -4.184454 4.969347
v -20.592043 -2.221912 3.656199
v -20.571371 -2.587704 4.463770
v -23.007368 -4.537271 5.737159
v -23.022184 -4.184454 4.969347
v -20.562235 -2.580981 7.619090
v -22.984737 -4.519617 8.652953
v -22.984348 -4.154829 9.556493
v -20.561981 -2.197634 8.552521
vt 0.122246 0.082073
vt 0.015777 0.100832
vt 0.007699 0.119335
vt 0.112597 0.101922
vt 0.122070 0.021750
vt 0.015856 0.044048
vt 0.114281 0.005201
vt 0.009447 0.027116
vt 0.113895 0.003581
vt 0.122586 0.022777
vt 0.015316 0.043449
vt 0.008739 0.027834
vt 0.120459 0.082282
vt 0.015436 0.100093
vt 0.008387 0.119311
vt 0.112743 0.101912
vn -0.578265 0.797632 0.171361
vn -0.504227 0.794946 0.337291
vn -0.673666 0.721366 -0.160466
vn -0.693869 0.647053 -0.315897
vn 0.448927 -0.809107 -0.379162
vn 0.549028 -0.812952 -0.193945
vn 0.654897 -0.742363 0.141362
vn 0.670309 -0.687307 0.279672
usemtl Material
s 1
f 1/1/1 2/2/1 3/3/2 4/4/2
f 2/2/1 1/1/1 5/5/3 6/6/3
f 6/6/3 5/5/3 7/7/4 8/8/4
f 9/9/5 10/10/6 11/11/6 12/12/5
f 10/10/6 13/13/7 14/14/7 11/11/6
f 15/15/8 14/14/7 13/13/7 16/16/8
