o c_nazzle
v -0.000046 -15.067200 -0.303961
v -0.152014 -15.067200 -0.263221
v -0.000052 -13.697308 -0.830378
v 0.415117 -13.697308 -0.719136
v 0.719070 -13.697304 -0.415189
v 0.151916 -15.067200 -0.263221
v 0.830287 -13.697304 -0.000001
v 0.263131 -15.067200 -0.151956
v 0.303869 -15.067200 -0.000001
v 0.719070 -13.697304 0.415182
v 0.415117 -13.697308 0.719129
v 0.263131 -15.067200 0.151960
v -0.000052 -13.697308 0.830388
v 0.151916 -15.067200 0.263214
v -0.415253 -13.697308 0.719129
v -0.000046 -15.067200 0.303946
v -0.719201 -13.697308 0.415182
v -0.152014 -15.067200 0.263214
v -0.830443 -13.697308 -0.000001
v -0.263285 -15.067200 0.151960
v -0.719201 -13.697308 -0.415189
v -0.304019 -15.067200 -0.000001
v -0.415253 -13.697308 -0.719142
v -0.263285 -15.067200 -0.151956
v -0.000046 -15.867941 -0.000001
vt 0.898632 0.815652
vt 0.908543 0.815661
vt 0.903571 0.834151
vt 0.917121 0.820625
vt 0.922069 0.829211
vt 0.922060 0.839123
vt 0.917097 0.847701
vt 0.908510 0.852649
vt 0.898599 0.852640
vt 0.890018 0.847677
vt 0.885071 0.839090
vt 0.885080 0.829180
vt 0.890045 0.820600
vt 0.882695 0.813273
vt 0.895929 0.805633
vt 0.911213 0.805634
vt 0.924446 0.813276
vt 0.932087 0.826509
vt 0.932087 0.841792
vt 0.924447 0.855026
vt 0.911212 0.862668
vt 0.895929 0.862668
vt 0.882694 0.855027
vt 0.875052 0.841792
vt 0.875052 0.826508
vn 0.000000 -0.356792 -0.934172
vn 0.467177 -0.356761 -0.808954
vn 0.000000 -1.000000 0.000000
vn 0.809046 -0.356761 -0.467055
vn 0.934172 -0.356761 0.000000
vn 0.809046 -0.356761 0.467055
vn 0.467147 -0.356761 0.808985
vn 0.000000 -0.356792 0.934172
vn -0.467086 -0.356761 0.809015
vn -0.808985 -0.356792 0.467116
vn -0.934172 -0.356792 0.000000
vn -0.808985 -0.356792 -0.467116
vn -0.467086 -0.356792 -0.808985
vn 0.000000 -0.358684 -0.933439
vn 0.466750 -0.358715 -0.808344
vn 0.808374 -0.358715 -0.466689
vn 0.933439 -0.358715 0.000000
vn 0.808374 -0.358715 0.466689
vn 0.466750 -0.358715 0.808344
vn 0.000000 -0.358715 0.933439
vn -0.466720 -0.358715 0.808374
vn -0.808374 -0.358715 0.466720
vn -0.933439 -0.358715 0.000000
vn -0.808374 -0.358715 -0.466720
vn -0.466720 -0.358715 -0.808374
usemtl Material
s 1
f 1/1/1 6/2/2 25/3/3
f 6/2/2 8/4/4 25/3/3
f 8/4/4 9/5/5 25/3/3
f 9/5/5 12/6/6 25/3/3
f 12/6/6 14/7/7 25/3/3
f 14/7/7 16/8/8 25/3/3
f 16/8/8 18/9/9 25/3/3
f 18/9/9 20/10/10 25/3/3
f 20/10/10 22/11/11 25/3/3
f 22/11/11 24/12/12 25/3/3
f 24/12/12 2/13/13 25/3/3
f 2/13/13 1/1/1 25/3/3
f 6/2/2 1/1/1 3/14/14 4/15/15
f 4/15/15 5/16/16 8/4/4 6/2/2
f 7/17/17 10/18/18 12/6/6 9/5/5
f 5/16/16 7/17/17 9/5/5 8/4/4
f 10/18/18 11/19/19 14/7/7 12/6/6
f 11/19/19 13/20/20 16/8/8 14/7/7
f 13/20/20 15/21/21 18/9/9 16/8/8
f 15/21/21 17/22/22 20/10/10 18/9/9
f 19/23/23 21/24/24 24/12/12 22/11/11
f 17/22/22 19/23/23 22/11/11 20/10/10
f 21/24/24 23/25/25 2/13/13 24/12/12
f 1/1/1 2/13/13 23/25/25 3/14/14
