# Blender3D v249 OBJ File: courier_2012-3.blend
# www.blender3d.org
v 25.411926 -6.114995 10.567532
v 22.984169 -4.154829 9.556493
v 25.416935 -5.767927 9.695685
v 22.992567 -3.784804 8.656429
v 23.022005 -4.184454 4.969347
v 25.446735 -6.142498 6.284348
v 25.440002 -5.787292 7.011395
v 23.014576 -3.803565 5.737957
v 23.022005 -4.184454 4.969347
v 23.007368 -4.537270 5.737159
v 22.984732 -4.519617 8.652953
v 22.984169 -4.154829 9.556493
v 25.411926 -6.114995 10.567532
v 25.416672 -6.466013 9.695885
v 25.440262 -6.484563 7.013947
v 25.446735 -6.142498 6.284348
vt 0.133404 0.118676
vt 0.141526 0.098987
vt 0.246159 0.079304
vt 0.237951 0.100165
vt 0.246181 0.020337
vt 0.141533 0.044093
vt 0.239162 0.002936
vt 0.135730 0.027638
vt 0.239617 0.003281
vt 0.135766 0.027147
vt 0.142148 0.043199
vt 0.246166 0.019915
vt 0.142174 0.098827
vt 0.244644 0.079656
vt 0.134991 0.118249
vt 0.237430 0.099885
vn 0.509354 0.796319 0.326121
vn 0.580187 0.797449 0.165502
vn 0.673482 0.721915 -0.158727
vn 0.693960 0.648579 -0.312632
vn -0.446760 -0.809076 -0.381756
vn -0.548143 -0.813227 -0.195318
vn -0.654714 -0.742912 0.139348
vn -0.670339 -0.688894 0.275765
usemtl Material
s 1
f 1/1/1 3/2/2 4/3/2 2/4/1
f 8/5/3 4/3/2 3/2/2 7/6/3
f 5/7/4 8/5/3 7/6/3 6/8/4
f 9/9/5 16/10/5 15/11/6 10/12/6
f 14/13/7 11/14/7 10/12/6 15/11/6
f 13/15/8 12/16/8 11/14/7 14/13/7
