o c_sledge_l
v -31.412563 -11.917717 13.139258
v -31.286839 -12.215186 12.967515
v -31.326693 -12.043443 12.990523
v -31.435574 -11.917717 13.053387
v -31.498436 -11.917717 12.990523
v -31.435574 -12.043443 12.881642
v -31.412563 -12.215186 12.841789
v -31.584309 -12.215186 12.795771
v -31.584309 -12.043443 12.841789
v -31.584309 -11.917717 12.967514
v -31.584309 -11.871698 13.139258
v -31.670179 -11.917717 12.990523
v -31.733042 -12.043443 12.881642
v -31.756052 -12.215186 12.841790
v -31.881777 -12.215186 12.967515
v -31.841923 -12.043443 12.990523
v -31.733042 -11.917717 13.053387
v -31.756052 -11.917717 13.139258
v -31.881777 -12.043443 13.139258
v -31.927795 -12.215186 13.139258
v -31.881777 -12.215186 13.311003
v -31.841923 -12.043443 13.287992
v -31.733042 -11.917717 13.225130
v -31.670179 -11.917717 13.287992
v -31.733042 -12.043443 13.396874
v -31.756052 -12.215186 13.436728
v -31.584309 -12.043443 13.436728
v -31.584309 -11.917717 13.311002
v -31.498436 -11.917717 13.287992
v -31.435574 -12.043443 13.396874
v -31.412563 -12.215186 13.436728
v -31.286839 -12.215186 13.311003
v -31.326693 -12.043443 13.287992
v -31.435574 -11.917717 13.225130
v -31.286839 -12.043443 13.139258
v -31.240820 -12.215186 13.139258
v -31.292574 -12.399859 17.071903
v -31.292574 -12.307845 17.415298
v -31.292574 -12.651240 17.507311
v -31.292574 -12.743253 17.163918
v -31.874037 -12.399858 17.071905
v -31.874037 -12.307847 17.415298
v -31.874037 -12.651240 17.507311
v -31.874037 -12.743253 17.163918
v -31.292572 -12.399858 8.766560
v -31.292572 -12.307846 9.109953
v -31.292572 -12.651241 9.201965
v -31.292572 -12.743254 8.858572
v -31.874035 -12.399858 8.766560
v -31.874035 -12.307846 9.109953
v -31.874035 -12.651241 9.201965
v -31.874035 -12.743254 8.858572
v -31.874035 -12.399859 12.920740
v -31.874035 -12.307847 13.264132
v -31.874035 -12.651240 13.356146
v -31.874035 -12.743253 13.012752
v -31.292572 -12.399859 12.920739
v -31.292572 -12.307847 13.264132
v -31.292572 -12.651240 13.356146
v -31.292572 -12.743253 13.012752
v -31.493752 -12.296416 18.186913
v -31.402981 -12.240273 18.186914
v -31.493752 -12.184131 18.186913
v -31.675291 -12.184131 18.186913
v -31.766062 -12.240273 18.186914
v -31.675291 -12.296414 18.186913
v -31.488894 -12.299421 8.086987
v -31.393263 -12.240273 8.086987
v -31.488894 -12.181124 8.086987
v -31.680151 -12.181124 8.086987
v -31.775782 -12.240273 8.086987
v -31.680151 -12.299421 8.086987
v -31.584522 -12.240273 18.186914
v -31.584522 -12.240273 8.086987
v -30.991022 -12.364414 8.487082
v -31.155643 -12.180870 8.487081
v -32.013401 -12.180870 8.487081
v -32.178024 -12.364414 8.487082
v -31.155643 -12.547958 8.487081
v -32.013401 -12.547958 8.487081
v -30.991022 -12.364415 17.787924
v -31.155642 -12.180869 17.787922
v -32.013401 -12.180869 17.787924
v -32.178020 -12.364413 17.787924
v -31.155642 -12.547959 17.787922
v -32.013401 -12.547959 17.787922
v -31.584309 -12.215186 13.482746
v -32.178024 -12.364414 8.487082
v -31.775782 -12.240273 8.086987
v -31.680151 -12.181124 8.086987
v -31.488894 -12.181124 8.086987
v -31.393263 -12.240273 8.086987
v -30.991022 -12.364414 8.487082
v -30.991022 -12.364415 17.787924
v -31.402981 -12.240273 18.186914
v -31.493752 -12.184131 18.186913
v -31.675291 -12.184131 18.186913
v -31.766062 -12.240273 18.186914
v -32.178020 -12.364413 17.787924
vt 0.933799 0.934411
vt 0.939111 0.934906
vt 0.933828 0.938676
vt 0.943167 0.936456
vt 0.944805 0.938664
vt 0.943197 0.940874
vt 0.939162 0.942434
vt 0.933856 0.942940
vt 0.928545 0.942445
vt 0.924488 0.940895
vt 0.922851 0.938688
vt 0.924458 0.936477
vt 0.928494 0.934918
vt 0.907413 0.887262
vt 0.968968 0.988404
vt 0.966345 0.887932
vt 0.909872 0.987723
vt 0.930584 0.878781
vt 0.944196 0.879025
vt 0.881436 0.885868
vt 0.922892 0.877751
vt 0.881436 0.988377
vt 0.994917 0.885056
vt 0.952488 0.877195
vt 0.969026 0.885158
vt 0.945032 0.877291
vt 0.996924 0.991701
vt 0.969072 0.991754
vt 0.932241 0.876992
vt 0.906657 0.884261
vt 0.907195 0.990841
vt 0.924802 0.876730
vt 0.880016 0.883851
vt 0.880016 0.990473
vt 0.991406 0.886729
vt 0.952177 0.878188
vt 0.998451 0.989277
vt 0.946256 0.997167
vt 0.931533 0.996875
vt 0.922719 0.997772
vt 0.952170 0.999463
vt 0.944157 0.999232
vt 0.930490 0.998865
vt 0.922494 0.998925
vt 0.954722 0.998287
vt 0.937488 0.877870
vt 0.930370 0.876757
vt 0.930632 0.999124
vt 0.938788 0.998146
vt 0.946546 0.999368
vt 0.944937 0.876966
vt 0.996374 0.961659
vt 0.881526 0.915057
vt 0.996374 0.915057
vt 0.881526 0.961659
vt 0.996291 0.960943
vt 0.884086 0.915414
vt 0.996291 0.915414
vt 0.884086 0.960943
vt 0.882112 0.914757
vt 0.995788 0.960883
vt 0.882113 0.960883
vt 0.995788 0.914757
vt 0.994929 0.960607
vt 0.882351 0.914926
vt 0.994929 0.914926
vt 0.882351 0.960607
vt 0.995318 0.960997
vt 0.881343 0.914750
vt 0.995318 0.914750
vt 0.881343 0.960997
vt 0.996837 0.961579
vt 0.880444 0.914350
vt 0.996837 0.914350
vt 0.880443 0.961579
vt 0.912777 0.924713
vt 0.933715 0.922007
vt 0.922350 0.930765
vt 0.933767 0.929660
vt 0.913966 0.934120
vt 0.898996 0.930969
vt 0.894684 0.938719
vt 0.910682 0.938702
vt 0.914028 0.943276
vt 0.899101 0.946460
vt 0.912966 0.952685
vt 0.922458 0.946612
vt 0.933888 0.947692
vt 0.933940 0.955344
vt 0.954878 0.952638
vt 0.945305 0.946587
vt 0.953690 0.943232
vt 0.968659 0.946383
vt 0.972972 0.938632
vt 0.956973 0.938650
vt 0.953627 0.934076
vt 0.968555 0.930891
vt 0.954689 0.924667
vt 0.945198 0.930739
vn 0.532609 0.846339 0.000000
vn 0.462691 0.845668 -0.265877
vn 0.000000 1.000000 0.000000
vn 0.267739 0.845668 -0.461623
vn 0.000000 0.845027 -0.534715
vn -0.267739 0.845668 -0.461623
vn -0.462691 0.845668 -0.265877
vn -0.532609 0.846339 0.000000
vn -0.462691 0.845668 0.265908
vn -0.267739 0.845668 0.461623
vn 0.000000 0.845027 0.534715
vn 0.267739 0.845668 0.461623
vn 0.462691 0.845668 0.265908
vn -0.398755 -0.848872 0.346904
vn 0.398053 -0.850063 -0.344798
vn 0.397351 -0.848384 0.349712
vn -0.397992 -0.849391 -0.346568
vn -0.186407 -0.519333 0.833949
vn 0.186987 -0.517991 0.834651
vn -0.637532 -0.611011 0.469222
vn -0.224586 -0.363140 0.904233
vn -0.640187 -0.613788 -0.461928
vn -0.720237 0.645985 0.252785
vn -0.569353 0.684713 0.454909
vn -0.468062 0.864284 0.184027
vn -0.254097 0.941099 0.223029
vn -0.722404 0.647938 -0.241401
vn -0.467452 0.865780 -0.178472
vn 0.250954 0.942564 0.220374
vn 0.468062 0.864284 0.183996
vn 0.467452 0.865780 -0.178503
vn 0.569353 0.684713 0.454909
vn 0.720237 0.645985 0.252785
vn 0.722404 0.647938 -0.241401
vn 0.637532 -0.611011 0.469222
vn 0.224586 -0.363140 0.904233
vn 0.638661 -0.612751 -0.465407
vn 0.188299 -0.523118 -0.831172
vn -0.188879 -0.521775 -0.831874
vn -0.226753 -0.366619 -0.902280
vn -0.573382 0.689230 -0.442854
vn -0.252205 0.944456 -0.210669
vn 0.255348 0.942991 -0.213294
vn 0.573382 0.689230 -0.442854
vn 0.226753 -0.366619 -0.902280
vn 0.000000 0.000000 1.000000
vn 0.000000 0.000031 1.000000
vn 0.000000 0.000000 -1.000000
vn 1.000000 0.000000 0.000000
vn -1.000000 0.000000 0.000000
vn 0.834376 0.258797 0.486618
vn 0.965911 0.258797 0.000000
vn 0.757134 0.485733 0.436750
vn 0.872890 0.487869 0.000000
vn 0.437300 0.485733 0.756828
vn 0.479263 0.258797 0.838618
vn 0.000000 0.258797 0.965911
vn 0.000000 0.483627 0.875271
vn -0.437300 0.485733 0.756828
vn -0.479263 0.258797 0.838618
vn -0.834376 0.258797 0.486618
vn -0.757134 0.485733 0.436750
vn -0.872890 0.487869 0.000000
vn -0.965911 0.258797 0.000000
vn -0.834376 0.258797 -0.486618
vn -0.757134 0.485733 -0.436750
vn -0.437300 0.485733 -0.756828
vn -0.479263 0.258797 -0.838618
vn 0.000000 0.258797 -0.965911
vn 0.000000 0.483627 -0.875271
vn 0.437300 0.485733 -0.756828
vn 0.479263 0.258797 -0.838618
vn 0.834376 0.258797 -0.486618
vn 0.757134 0.485733 -0.436750
usemtl Material
s 1
f 1/1/1 4/2/2 11/3/3
f 4/2/2 5/4/4 11/3/3
f 5/4/4 10/5/5 11/3/3
f 10/5/5 12/6/6 11/3/3
f 12/6/6 17/7/7 11/3/3
f 17/7/7 18/8/8 11/3/3
f 18/8/8 23/9/9 11/3/3
f 23/9/9 24/10/10 11/3/3
f 24/10/10 28/11/11 11/3/3
f 28/11/11 29/12/12 11/3/3
f 29/12/12 34/13/13 11/3/3
f 34/13/13 1/1/1 11/3/3
f 86/14/14 79/15/15 85/16/16
f 86/14/14 80/17/17 79/15/15
f 85/16/16 66/18/18 86/14/14
f 85/16/16 61/19/19 66/18/18
f 86/14/14 66/18/18 84/20/20
f 84/20/20 66/18/18 65/21/21
f 80/17/17 86/14/14 78/22/22
f 78/22/22 86/14/14 84/20/20
f 99/23/23 98/24/24 83/25/25
f 83/25/25 98/24/24 64/26/26
f 88/27/27 83/25/25 77/28/28
f 88/27/27 99/23/23 83/25/25
f 83/25/25 63/29/29 82/30/30
f 83/25/25 64/26/26 63/29/29
f 77/28/28 82/30/30 76/31/31
f 77/28/28 83/25/25 82/30/30
f 82/30/30 62/32/32 81/33/33
f 82/30/30 63/29/29 62/32/32
f 76/31/31 82/30/30 75/34/34
f 75/34/34 82/30/30 81/33/33
f 61/19/19 94/35/35 95/36/36
f 61/19/19 85/16/16 94/35/35
f 93/37/37 85/16/16 79/15/15
f 93/37/37 94/35/35 85/16/16
f 80/17/17 67/38/38 79/15/15
f 80/17/17 72/39/39 67/38/38
f 72/39/39 78/22/22 89/40/40
f 72/39/39 80/17/17 78/22/22
f 71/41/41 77/28/28 70/42/42
f 71/41/41 88/27/27 77/28/28
f 70/42/42 76/31/31 69/43/43
f 70/42/42 77/28/28 76/31/31
f 69/43/43 76/31/31 68/44/44
f 68/44/44 76/31/31 75/34/34
f 92/45/45 93/37/37 67/38/38
f 67/38/38 93/37/37 79/15/15
f 66/18/18 61/19/19 73/46/46
f 73/46/46 61/19/19 95/36/36
f 97/47/47 65/21/21 73/46/46
f 73/46/46 65/21/21 66/18/18
f 90/48/48 74/49/48 89/40/40
f 89/40/40 74/49/48 72/39/39
f 92/45/45 74/49/48 91/50/48
f 91/50/48 74/49/48 90/48/48
f 95/36/36 96/51/47 73/46/46
f 73/46/46 96/51/47 97/47/47
f 92/45/45 67/38/38 74/49/48
f 74/49/48 67/38/38 72/39/39
f 58/52/49 60/53/49 57/54/49
f 58/52/49 59/55/49 60/53/49
f 56/56/50 54/57/50 53/58/50
f 56/56/50 55/59/50 54/57/50
f 52/60/50 50/61/50 49/62/50
f 52/60/50 51/63/50 50/61/50
f 46/64/49 48/65/49 45/66/49
f 46/64/49 47/67/49 48/65/49
f 44/68/50 42/69/50 41/70/50
f 44/68/50 43/71/50 42/69/50
f 38/72/49 40/73/49 37/74/49
f 38/72/49 39/75/49 40/73/49
f 32/76/51 36/77/52 33/78/53
f 33/78/53 36/77/52 35/79/54
f 1/1/1 34/13/13 35/79/54
f 35/79/54 34/13/13 33/78/53
f 30/80/55 33/78/53 29/12/12
f 29/12/12 33/78/53 34/13/13
f 31/81/56 32/76/51 30/80/55
f 30/80/55 32/76/51 33/78/53
f 87/82/57 31/81/56 27/83/58
f 27/83/58 31/81/56 30/80/55
f 27/83/58 30/80/55 28/11/11
f 28/11/11 30/80/55 29/12/12
f 25/84/59 28/11/11 24/10/10
f 25/84/59 27/83/58 28/11/11
f 26/85/60 27/83/58 25/84/59
f 26/85/60 87/82/57 27/83/58
f 21/86/61 25/84/59 22/87/62
f 21/86/61 26/85/60 25/84/59
f 22/87/62 24/10/10 23/9/9
f 22/87/62 25/84/59 24/10/10
f 19/88/63 23/9/9 18/8/8
f 19/88/63 22/87/62 23/9/9
f 20/89/64 22/87/62 19/88/63
f 20/89/64 21/86/61 22/87/62
f 15/90/65 20/89/64 16/91/66
f 16/91/66 20/89/64 19/88/63
f 16/91/66 19/88/63 17/7/7
f 17/7/7 19/88/63 18/8/8
f 13/92/67 16/91/66 12/6/6
f 12/6/6 16/91/66 17/7/7
f 14/93/68 15/90/65 13/92/67
f 13/92/67 15/90/65 16/91/66
f 8/94/69 14/93/68 9/95/70
f 9/95/70 14/93/68 13/92/67
f 9/95/70 13/92/67 10/5/5
f 10/5/5 13/92/67 12/6/6
f 6/96/71 10/5/5 5/4/4
f 6/96/71 9/95/70 10/5/5
f 7/97/72 9/95/70 6/96/71
f 7/97/72 8/94/69 9/95/70
f 2/98/73 6/96/71 3/99/74
f 2/98/73 7/97/72 6/96/71
f 3/99/74 5/4/4 4/2/2
f 3/99/74 6/96/71 5/4/4
f 4/2/2 1/1/1 35/79/54
f 35/79/54 3/99/74 4/2/2
f 36/77/52 3/99/74 35/79/54
f 36/77/52 2/98/73 3/99/74
