# OBJ written from C:\Users\rivalin\Creative\Personal Work\Paragon\Paragon\Paragon 31\data\models\buildings\terranmetropolis\terranmetropolis6MQ.obj

o Mesh
v -23.566 17.8205 20.4076
v -23.566 17.8205 -20.3693
v -20.0583 17.8205 -23.877
v 23.8921 17.8205 -20.3693
v 20.3844 17.8205 -23.877
v 23.8921 17.8205 20.4076
v 20.3844 17.8205 23.9154
v -20.0583 17.8205 23.9154
v 15.9024 48.7916 23.9154
v -15.5763 48.7916 23.9154
v -15.5763 20.9853 23.9154
v 15.9024 20.9853 23.9154
v 23.8921 48.7916 -15.8873
v 23.8921 48.7916 15.9256
v 23.8921 20.9853 15.9256
v 23.8921 20.9853 -15.8873
v -15.5763 48.7916 -23.877
v 15.9024 48.7916 -23.877
v 15.9024 20.9853 -23.877
v -15.5763 20.9853 -23.877
v -23.566 48.7916 15.9256
v -23.566 48.7916 -15.8873
v -23.566 20.9853 -15.8873
v -23.566 20.9853 15.9256
v 23.8921 51.9564 20.4076
v 20.3844 51.9564 23.9154
v -27.0218 53.938 21.8391
v -21.4898 53.938 27.3712
v -21.1697 110.435 26.5984
v -26.2491 110.435 21.519
v 20.3844 51.9564 -23.877
v 23.8921 51.9564 -20.3693
v -23.566 51.9564 -20.3693
v -20.0583 51.9564 -23.877
v 21.4958 110.435 26.5984
v 26.5752 110.435 21.519
v 21.4958 110.435 -26.56
v 26.5752 110.435 -21.4807
v -21.1697 110.435 -26.56
v -26.2491 110.435 -21.4807
v -16.5113 107.132 26.6436
v -16.794 57.2403 27.326
v 17.1201 57.2403 27.326
v 16.8376 107.132 26.6436
v 26.6203 107.132 16.8608
v 27.3028 57.2403 17.1434
v 27.3028 57.2403 -17.105
v 26.6203 107.132 -16.8223
v 16.8376 107.132 -26.6052
v 17.1201 57.2403 -27.2876
v -16.794 57.2403 -27.2876
v -16.5113 107.132 -26.6052
v -26.2942 107.132 -16.8223
v -26.9767 57.2403 -17.105
v -26.9767 57.2403 17.1434
v -26.2942 107.132 16.8608
v 21.8159 53.938 27.3712
v 27.3479 53.938 21.8391
v -20.0583 51.9564 23.9154
v -23.566 51.9564 20.4076
v 27.3479 53.938 -21.8008
v 21.8159 53.938 -27.3328
v -21.4898 53.938 -27.3328
v -27.0218 53.938 -21.8008
v 7.07419 16.3564 29.3156
v -8.17349 16.3564 29.3156
v -8.17349 1.3564 29.3156
v 7.07419 1.3564 29.3156
v -30.0787 16.3564 7.41019
v -30.0787 16.3564 -8.17164
v -30.0787 1.3564 -8.17164
v -30.0787 1.3564 7.41019
v -8.17344 16.3564 -30.0769
v 7.07414 16.3564 -30.0769
v 7.07414 1.3564 -30.0769
v -8.17344 1.3564 -30.0769
v 28.9794 16.3564 -8.17164
v 28.9794 16.3564 7.41019
v 28.9794 1.3564 7.41019
v 28.9794 1.3564 -8.17164
v 7.07419 16.3564 35.7156
v -8.17349 16.3564 35.7156
v -8.17349 1.3564 35.7156
v 7.07419 1.3564 35.7156
v -36.4787 16.3564 7.41019
v -36.4787 16.3564 -8.17164
v -36.4787 1.3564 -8.17164
v -36.4787 1.3564 7.41019
v -8.17344 16.3564 -36.4769
v 7.07414 16.3564 -36.4769
v 7.07414 1.3564 -36.4769
v -8.17344 1.3564 -36.4769
v 35.3794 16.3564 -8.17164
v 35.3794 16.3564 7.41019
v 35.3794 1.3564 7.41019
v 35.3794 1.3564 -8.17164
v 11.8342 21.1164 35.7156
v -12.9335 21.1164 35.7156
v -12.9335 -3.4036 35.7156
v 11.8342 -3.4036 35.7156
v -36.4787 21.1164 12.1702
v -36.4787 21.1164 -12.9316
v -36.4787 -3.4036 -12.9316
v -36.4787 -3.4036 12.1702
v -12.9334 21.1164 -36.4769
v 11.8341 21.1164 -36.4769
v 11.8341 -3.4036 -36.4769
v -12.9334 -3.4036 -36.4769
v 35.3794 21.1164 -12.9316
v 35.3794 21.1164 12.1702
v 35.3794 -3.4036 12.1702
v 35.3794 -3.4036 -12.9316
v 11.8342 21.1164 46.3156
v -12.9335 21.1164 46.3156
v -12.9335 -3.4036 46.3156
v 11.8342 -3.4036 46.3156
v -47.0787 21.1164 12.1702
v -47.0787 21.1164 -12.9316
v -47.0787 -3.4036 -12.9316
v -47.0787 -3.4036 12.1702
v -12.9334 21.1164 -47.0769
v 11.8341 21.1164 -47.0769
v 11.8341 -3.4036 -47.0769
v -12.9334 -3.4036 -47.0769
v 45.9794 21.1164 -12.9316
v 45.9794 21.1164 12.1702
v 45.9794 -3.4036 12.1702
v 45.9794 -3.4036 -12.9316
v 11.8342 10.1164 56.9156
v -12.9335 10.1164 56.9156
v -12.9335 -3.4036 56.9156
v 11.8342 -3.4036 56.9156
v -57.6787 10.1164 12.1702
v -57.6787 10.1164 -12.9316
v -57.6787 -3.4036 -12.9316
v -57.6787 -3.4036 12.1702
v -12.9334 10.1164 -57.6769
v 11.8341 10.1164 -57.6769
v 11.8341 -3.4036 -57.6769
v -12.9334 -3.4036 -57.6769
v 56.5794 10.1164 -12.9316
v 56.5794 10.1164 12.1702
v 56.5794 -3.4036 12.1702
v 56.5794 -3.4036 -12.9316
vn 0 -1 0
vn 0 0 1
vn 1 0 0
vn 0 0 -1
vn -1 0 0
vn 0.7071 0 0.7071
vn -0.7071 0.0097 0.7071
vn 0.7071 0 -0.7071
vn -0.7071 0 -0.7071
vn 0 1 0
vn 0 0.0097 1
vn 1 0.0097 0
vn 0 0.0097 -1
vn -1 0.0097 0
vn 0.7071 0.0097 0.7071
vn -0.7071 0 0.7071
vn 0.7071 0.0097 -0.7071
vn -0.7071 0.0097 -0.7071
vn 0 -0.7763 0.6304
vn 0.4458 -0.7763 0.4458
vn 0.6304 -0.7763 0
vn 0.4458 -0.7763 -0.4458
vn 0 -0.7763 -0.6304
vn -0.4458 -0.7763 -0.4458
vn -0.6304 -0.7763 -0
vn -0.4458 -0.7763 0.4458
vn -0.720078 0.693893 0
vn 0 0.693893 -0.720078
vn 0 0.693893 0.720078
vn 0.720078 0.693893 0
vt 0.7598 0.4434
vt 0.9149 0.4434
vt 0.9283 0.4552
vt 0.9149 0.6031
vt 0.9283 0.5913
vt 0.7598 0.6031
vt 0.7464 0.5913
vt 0.7464 0.4552
vt 0.6465 0.3819
vt 0.3685 0.3819
vt 0.3685 0.0144
vt 0.6465 0.0144
vt 0.6524 0.3741
vt 0.3714 0.3741
vt 0.3714 0.0065
vt 0.6524 0.0065
vt 0.6477 0.3659
vt 0.3697 0.3659
vt 0.3697 -0.0017
vt 0.6477 -0.0017
vt 0.6534 0.3819
vt 0.3724 0.3819
vt 0.3724 0.0144
vt 0.6534 0.0144
vt 0.9284 0.2229
vt 0.9142 0.2229
vt 0.9142 0.026
vt 0.9284 0.026
vt 0.7223 0.2343
vt 0.7447 0.2343
vt 0.746 0.5603
vt 0.7254 0.5603
vt 0.7623 0.2186
vt 0.7481 0.2186
vt 0.7481 0.0217
vt 0.7623 0.0217
vt 0.9402 0.2186
vt 0.926 0.2186
vt 0.926 0.0217
vt 0.9402 0.0217
vt 0.9378 0.4532
vt 0.9378 0.5968
vt 0.9185 0.6139
vt 0.7355 0.5968
vt 0.7549 0.6139
vt 0.7355 0.4532
vt 0.7549 0.4361
vt 0.9185 0.4361
vt 0.0092 0.5386
vt 0.0065 0.0212
vt 0.3326 0.0212
vt 0.3298 0.5386
vt 0.0326 0.5324
vt 0.0298 0.0151
vt 0.3591 0.0151
vt 0.3564 0.5324
vt 0.0374 0.5308
vt 0.0347 0.0135
vt 0.3608 0.0135
vt 0.358 0.5308
vt 0.0292 0.5386
vt 0.0264 0.0212
vt 0.3557 0.0212
vt 0.353 0.5386
vt 0.9187 0.5603
vt 0.92 0.2343
vt 0.9424 0.2343
vt 0.9392 0.5603
vt 0.7505 0.026
vt 0.7505 0.2229
vt 0.7363 0.2229
vt 0.7363 0.026
vt 0.7373 0.556
vt 0.7342 0.23
vt 0.7565 0.23
vt 0.7578 0.556
vt 0.9305 0.556
vt 0.9318 0.23
vt 0.9542 0.23
vt 0.9511 0.556
vt 0.7333 0.5961
vt 0.7333 0.4504
vt 0.7543 0.6147
vt 0.9204 0.6147
vt 0.9414 0.5961
vt 0.9414 0.4504
vt 0.9204 0.4318
vt 0.7543 0.4318
vt 0.901 0.2534
vt 0.7637 0.2534
vt 0.7648 0.5412
vt 0.8998 0.5412
vt 0.9312 0.2309
vt 0.9121 0.25
vt 0.7735 0.25
vt 0.7545 0.2309
vt 0.7747 0.5378
vt 0.7558 0.5569
vt 0.911 0.5378
vt 0.9299 0.5569
vt 0.9128 0.2491
vt 0.7756 0.2491
vt 0.7767 0.5369
vt 0.9117 0.5369
vt 0.7544 0.5603
vt 0.7732 0.5412
vt 0.9096 0.5412
vt 0.9284 0.5603
vt 0.9107 0.2534
vt 0.9297 0.2343
vt 0.7721 0.2534
vt 0.7531 0.2343
vt 0.7686 0.2047
vt 0.896 0.2047
vt 0.896 0.0443
vt 0.7686 0.0443
vt 0.7603 0.2195
vt 0.7785 0.2012
vt 0.9072 0.2012
vt 0.9254 0.2195
vt 0.9072 0.0408
vt 0.9254 0.0226
vt 0.7785 0.0408
vt 0.7603 0.0226
vt 0.7805 0.2003
vt 0.9079 0.2003
vt 0.9079 0.0399
vt 0.7805 0.0399
vt 0.7589 0.2229
vt 0.777 0.2047
vt 0.9058 0.2047
vt 0.9239 0.2229
vt 0.9058 0.0443
vt 0.9239 0.026
vt 0.777 0.0443
vt 0.7589 0.026
vt 0.621499 0.853027
vt 0.621499 0.856973
vt 0.619873 0.853027
vt 0.619873 0.856973
vt 0.636501 0.856973
vt 0.636501 0.853027
vt 0.638127 0.856973
vt 0.638127 0.853027
vt 0.758873 0.864179
vt 0.758873 0.857821
vt 0.758873 0.862973
vt 0.758873 0.859027
vt 0.777127 0.857821
vt 0.777127 0.864179
vt 0.777127 0.859027
vt 0.777127 0.862973
vt 0.75618 0.857821
vt 0.75618 0.864179
vt 0.77982 0.864179
vt 0.77982 0.857821
vt 0.753487 0.857821
vt 0.782513 0.857821
vt 0.753487 0.864179
vt 0.764854 0.846487
vt 0.771146 0.846487
vt 0.771146 0.849172
vt 0.764854 0.849172
vt 0.771146 0.875512
vt 0.764854 0.875512
vt 0.627063 0.862522
vt 0.630937 0.862522
vt 0.627063 0.864143
vt 0.630937 0.864143
vt 0.630937 0.847478
vt 0.627063 0.847478
vt 0.630937 0.845857
vt 0.627063 0.845857
vt 0.771146 0.870143
vt 0.764854 0.870143
vt 0.769937 0.870143
vt 0.766063 0.870143
vt 0.764854 0.851857
vt 0.771146 0.851857
vt 0.766063 0.851857
vt 0.769937 0.851857
vt 0.764854 0.872828
vt 0.771146 0.872828
vt 0.782513 0.864179
mtllib terranmetropolis6MQ.mtl
usemtl Default
g Box012
f 1/1/1 2/2/1 3/3/1 4/4/1
f 3/3/1 5/5/1 4/4/1
f 4/4/1 6/6/1 7/7/1 1/1/1
f 8/8/1 1/1/1 7/7/1
f 9/9/2 10/10/2 11/11/2 12/12/2
f 13/13/3 14/14/3 15/15/3 16/16/3
f 17/17/4 18/18/4 19/19/4 20/20/4
f 21/21/5 22/22/5 23/23/5 24/24/5
f 25/25/6 26/26/6 7/27/6 6/28/6
f 27/29/7 28/30/7 29/31/7 30/32/7
f 31/33/8 32/34/8 4/35/8 5/36/8
f 33/37/9 34/38/9 3/39/9 2/40/9
f 29/41/10 35/42/10 36/43/10 37/44/10
f 36/43/10 38/45/10 37/44/10
f 37/44/10 39/46/10 40/47/10 29/41/10
f 30/48/10 29/41/10 40/47/10
f 41/49/11 42/50/11 43/51/11 44/52/11
f 45/53/12 46/54/12 47/55/12 48/56/12
f 49/57/13 50/58/13 51/59/13 52/60/13
f 53/61/14 54/62/14 55/63/14 56/64/14
f 35/65/15 57/66/15 58/67/15 36/68/15
f 8/69/16 59/70/16 60/71/16 1/72/16
f 38/73/17 61/74/17 62/75/17 37/76/17
f 39/77/18 63/78/18 64/79/18 40/80/18
f 26/7/19 57/81/19 28/82/19 59/8/19
f 25/6/20 58/83/20 57/81/20 26/7/20
f 32/4/21 61/84/21 58/83/21 25/6/21
f 31/5/22 62/85/22 61/84/22 32/4/22
f 34/3/23 63/86/23 62/85/23 31/5/23
f 33/2/24 64/87/24 63/86/24 34/3/24
f 60/1/25 27/88/25 64/87/25 33/2/25
f 59/8/26 28/82/26 27/88/26 60/1/26
f 57/66/11 43/89/11 42/90/11 28/30/11
f 28/30/11 42/90/11 41/91/11 29/31/11
f 29/31/11 41/91/11 44/92/11 35/65/11
f 35/65/11 44/92/11 43/89/11 57/66/11
f 61/93/12 47/94/12 46/95/12 58/96/12
f 58/96/12 46/95/12 45/97/12 36/98/12
f 36/98/12 45/97/12 48/99/12 38/100/12
f 38/100/12 48/99/12 47/94/12 61/93/12
f 63/78/13 51/101/13 50/102/13 62/75/13
f 62/75/13 50/102/13 49/103/13 37/76/13
f 37/76/13 49/103/13 52/104/13 39/77/13
f 39/77/13 52/104/13 51/101/13 63/78/13
f 40/105/14 53/106/14 56/107/14 30/108/14
f 30/108/14 56/107/14 55/109/14 27/110/14
f 27/110/14 55/109/14 54/111/14 64/112/14
f 64/112/14 54/111/14 53/106/14 40/105/14
f 59/70/2 10/113/2 9/114/2 26/26/2
f 26/26/2 9/114/2 12/115/2 7/27/2
f 7/27/2 12/115/2 11/116/2 8/69/2
f 8/69/2 11/116/2 10/113/2 59/70/2
f 25/117/3 14/118/3 13/119/3 32/120/3
f 32/120/3 13/119/3 16/121/3 4/122/3
f 4/122/3 16/121/3 15/123/3 6/124/3
f 6/124/3 15/123/3 14/118/3 25/117/3
f 31/33/4 18/125/4 17/126/4 34/38/4
f 34/38/4 17/126/4 20/127/4 3/39/4
f 3/39/4 20/127/4 19/128/4 5/36/4
f 5/36/4 19/128/4 18/125/4 31/33/4
f 33/129/5 22/130/5 21/131/5 60/132/5
f 60/132/5 21/131/5 24/133/5 1/134/5
f 1/134/5 24/133/5 23/135/5 2/136/5
f 2/136/5 23/135/5 22/130/5 33/129/5
usemtl material1
g Box010
f 71/137/1 72/138/1 87/139/1
f 88/140/1 87/139/1 72/138/1
f 79/141/1 80/142/1 95/143/1
f 96/144/1 95/143/1 80/142/1
f 104/145/3 103/146/3 88/147/3
f 87/148/3 88/147/3 103/146/3
f 112/149/5 111/150/5 96/151/5
f 95/152/5 96/151/5 111/150/5
f 103/146/1 104/145/1 119/153/1
f 120/154/1 119/153/1 104/145/1
f 111/150/1 112/149/1 127/155/1
f 128/156/1 127/155/1 112/149/1
f 135/157/4 134/157/4 119/153/4
f 118/153/4 119/153/4 134/157/4
f 144/158/4 128/156/4 141/158/4
f 125/156/4 141/158/4 128/156/4
f 70/137/4 71/137/4 86/139/4
f 87/139/4 86/139/4 71/137/4
f 78/141/2 79/141/2 94/143/2
f 95/143/2 94/143/2 79/141/2
f 103/146/3 102/146/3 87/148/3
f 86/148/3 87/148/3 102/146/3
f 111/150/5 110/150/5 95/152/5
f 94/152/5 95/152/5 110/150/5
f 102/146/4 103/146/4 118/153/4
f 119/153/4 118/153/4 103/146/4
f 110/150/2 111/150/2 126/155/2
f 127/155/2 126/155/2 111/150/2
f 117/154/27 118/153/27 133/159/27
f 134/157/27 133/159/27 118/153/27
f 137/160/4 138/161/4 140/160/4
f 139/161/4 140/160/4 138/161/4
f 69/138/10 70/137/10 85/140/10
f 86/139/10 85/140/10 70/137/10
f 77/142/10 78/141/10 93/144/10
f 94/143/10 93/144/10 78/141/10
f 102/146/3 101/145/3 86/148/3
f 85/147/3 86/148/3 101/145/3
f 110/150/5 109/149/5 94/152/5
f 93/151/5 94/152/5 109/149/5
f 101/145/10 102/146/10 117/154/10
f 118/153/10 117/154/10 102/146/10
f 109/149/10 110/150/10 125/156/10
f 126/155/10 125/156/10 110/150/10
f 136/159/2 120/154/2 133/159/2
f 117/154/2 133/159/2 120/154/2
f 123/162/1 124/163/1 139/161/1
f 140/160/1 139/161/1 124/163/1
f 72/138/2 69/138/2 88/140/2
f 85/140/2 88/140/2 69/138/2
f 80/142/4 77/142/4 96/144/4
f 93/144/4 96/144/4 77/142/4
f 101/145/3 104/145/3 85/147/3
f 88/147/3 85/147/3 104/145/3
f 109/149/5 112/149/5 93/151/5
f 96/151/5 93/151/5 112/149/5
f 104/145/2 101/145/2 120/154/2
f 117/154/2 120/154/2 101/145/2
f 112/149/4 109/149/4 128/156/4
f 125/156/4 128/156/4 109/149/4
f 129/164/2 130/165/2 132/164/2
f 131/165/2 132/164/2 130/165/2
f 139/161/3 138/161/3 123/162/3
f 122/162/3 123/162/3 138/161/3
f 67/166/1 68/167/1 83/168/1
f 84/169/1 83/168/1 68/167/1
f 75/170/1 76/171/1 91/172/1
f 92/173/1 91/172/1 76/171/1
f 100/174/4 99/175/4 84/176/4
f 83/177/4 84/176/4 99/175/4
f 108/178/2 107/179/2 92/180/2
f 91/181/2 92/180/2 107/179/2
f 99/175/1 100/174/1 115/182/1
f 116/183/1 115/182/1 100/174/1
f 107/179/1 108/178/1 123/162/1
f 124/163/1 123/162/1 108/178/1
f 115/182/1 116/183/1 131/165/1
f 132/164/1 131/165/1 116/183/1
f 121/163/28 122/162/28 137/160/28
f 138/161/28 137/160/28 122/162/28
f 141/158/3 142/184/3 144/158/3
f 143/184/3 144/158/3 142/184/3
f 66/166/5 67/166/5 82/168/5
f 83/168/5 82/168/5 67/166/5
f 74/170/3 75/170/3 90/172/3
f 91/172/3 90/172/3 75/170/3
f 99/175/4 98/175/4 83/177/4
f 82/177/4 83/177/4 98/175/4
f 107/179/2 106/179/2 91/181/2
f 90/181/2 91/181/2 106/179/2
f 98/175/5 99/175/5 114/182/5
f 115/182/5 114/182/5 99/175/5
f 106/179/3 107/179/3 122/162/3
f 123/162/3 122/162/3 107/179/3
f 131/165/5 130/165/5 115/182/5
f 114/182/5 115/182/5 130/165/5
f 140/160/5 124/163/5 137/160/5
f 121/163/5 137/160/5 124/163/5
f 127/155/1 128/156/1 143/184/1
f 144/158/1 143/184/1 128/156/1
f 65/167/10 66/166/10 81/169/10
f 82/168/10 81/169/10 66/166/10
f 73/171/10 74/170/10 89/173/10
f 90/172/10 89/173/10 74/170/10
f 98/175/4 97/174/4 82/177/4
f 81/176/4 82/177/4 97/174/4
f 106/179/2 105/178/2 90/181/2
f 89/180/2 90/181/2 105/178/2
f 97/174/10 98/175/10 113/183/10
f 114/182/10 113/183/10 98/175/10
f 105/178/10 106/179/10 121/163/10
f 122/162/10 121/163/10 106/179/10
f 113/183/29 114/182/29 129/164/29
f 130/165/29 129/164/29 114/182/29
f 133/159/5 134/157/5 136/159/5
f 135/157/5 136/159/5 134/157/5
f 143/184/2 142/184/2 127/155/2
f 126/155/2 127/155/2 142/184/2
f 68/167/3 65/167/3 84/169/3
f 81/169/3 84/169/3 65/167/3
f 76/171/5 73/171/5 92/173/5
f 89/173/5 92/173/5 73/171/5
f 97/174/4 100/174/4 81/176/4
f 84/176/4 81/176/4 100/174/4
f 105/178/2 108/178/2 89/180/2
f 92/180/2 89/180/2 108/178/2
f 100/174/3 97/174/3 116/183/3
f 113/183/3 116/183/3 97/174/3
f 108/178/5 105/178/5 124/163/5
f 121/163/5 124/163/5 105/178/5
f 132/164/3 116/183/3 129/164/3
f 113/183/3 129/164/3 116/183/3
f 119/153/1 120/154/1 135/157/1
f 136/159/1 135/157/1 120/154/1
f 125/156/30 126/155/30 141/158/30
f 142/184/30 141/158/30 126/155/30
