# OBJ written from C:\Users\rivalin\Creative\Personal Work\Paragon\Paragon\Paragon 31\data\models\buildings\terranmetropolis\terranmetropolis7LQ.obj

o Mesh
v -10.7542 72.778 9.275
v 11.5217 72.778 9.275
v 11.5217 72.778 -9.0634
v -10.7542 72.778 -9.0634
v -19.7138 -22.0819 18.2346
v 20.4813 -22.0819 18.2346
v 20.4813 26.1262 18.2346
v -19.7138 26.1262 18.2346
v 20.4813 -22.0819 -18.023
v 20.4813 26.1262 -18.023
v -19.7138 -22.0819 -18.023
v -19.7138 26.1262 -18.023
v 12.3888 35.6692 10.1421
v -11.6212 35.6692 10.1421
v 12.3888 35.6692 -9.9304
v -11.6212 35.6692 -9.9304
vn 0 1 0
vn 0 0 1
vn 1 0 0
vn 0 0 -1
vn -1 0 0
vn 0 0.6468 0.7627
vn 0.7627 0.6468 0
vn 0 0.6468 -0.7627
vn -0.7627 0.6468 0
vn 0 0.0234 0.9997
vn 0.9997 0.0234 0
vn 0 0.0234 -0.9997
vn -0.9997 0.0234 0
vt 0.7366 0.5931
vt 0.9416 0.5931
vt 0.9416 0.7778
vt 0.7366 0.7778
vt 0.3614 0.0073
vt 0.6587 0.0073
vt 0.6587 0.3639
vt 0.3614 0.3639
vt 0.3859 0.0049
vt 0.6541 0.0049
vt 0.6541 0.3615
vt 0.3859 0.3615
vt 0.3555 0.0046
vt 0.6528 0.0046
vt 0.6528 0.3612
vt 0.3555 0.3612
vt 0.3898 0.0076
vt 0.658 0.0076
vt 0.658 0.3642
vt 0.3898 0.3642
vt 0.6865 0.3845
vt 0.9838 0.3845
vt 0.924 0.4551
vt 0.7464 0.4551
vt 0.7028 0.3821
vt 0.971 0.3821
vt 0.9111 0.4527
vt 0.7626 0.4527
vt 0.6888 0.3736
vt 0.9861 0.3736
vt 0.9263 0.4442
vt 0.7487 0.4442
vt 0.7046 0.3848
vt 0.9728 0.3848
vt 0.9129 0.4553
vt 0.7645 0.4553
vt 0.009 0.0054
vt 0.3499 0.0054
vt 0.3376 0.3797
vt 0.0213 0.3797
vt 0.056 0.0021
vt 0.341 0.0021
vt 0.3287 0.3764
vt 0.0683 0.3764
vt -0.0024 0.0018
vt 0.3385 0.0018
vt 0.3262 0.376
vt 0.0099 0.376
vt 0.0635 0.0058
vt 0.3485 0.0058
vt 0.3362 0.3801
vt 0.0758 0.3801
mtllib terranmetropolis7LQ.mtl
usemtl Default
g Box024
f 1/1/1 2/2/1 3/3/1 4/4/1
f 5/5/2 6/6/2 7/7/2 8/8/2
f 6/9/3 9/10/3 10/11/3 7/12/3
f 9/13/4 11/14/4 12/15/4 10/16/4
f 11/17/5 5/18/5 8/19/5 12/20/5
f 8/21/6 7/22/6 13/23/6 14/24/6
f 7/25/7 10/26/7 15/27/7 13/28/7
f 10/29/8 12/30/8 16/31/8 15/32/8
f 12/33/9 8/34/9 14/35/9 16/36/9
f 14/37/10 13/38/10 2/39/10 1/40/10
f 13/41/11 15/42/11 3/43/11 2/44/11
f 15/45/12 16/46/12 4/47/12 3/48/12
f 16/49/13 14/50/13 1/51/13 4/52/13
