# OBJ written from C:\Users\rivalin\Creative\Personal Work\Paragon\Paragon\Paragon 30\data\lmrmodels\buildings\vlastan\newbuilding8LQ.obj

o Cube
v -15.8813 12.74 -41.5175
v 15.8813 12.74 -41.5175
v 15.8813 12.74 41.5175
v -15.8813 12.74 41.5175
v -15.8813 -11.94 -41.5175
v 15.8813 -11.94 -41.5175
v 15.8813 -11.94 41.5175
v -15.8813 -11.94 41.5175
v -15.8813 3.74 -62.5175
v 15.8813 3.74 -62.5175
v 15.8813 3.74 62.5175
v -15.8813 3.74 62.5175
v -15.8813 -11.94 -62.5175
v 15.8813 -11.94 -62.5175
v 15.8813 -11.94 62.5175
v -15.8813 -11.94 62.5175
v -27.9625 26.7 -39.1575
v -35.9625 26.7 -31.1575
v 35.9625 26.7 -31.1575
v 27.9625 26.7 -39.1575
v 27.9625 26.7 39.1575
v 35.9625 26.7 31.1575
v -35.9625 26.7 31.1575
v -27.9625 26.7 39.1575
v -23.3756 57.3 -17.4524
v -15.3756 57.3 -25.4524
v 15.3756 57.3 -25.4524
v 23.3756 57.3 -17.4524
v 23.3756 57.3 17.4524
v 15.3756 57.3 25.4524
v -15.3756 57.3 25.4524
v -23.3756 57.3 17.4524
v -27.9625 22.5 -39.1575
v -35.9625 22.5 -31.1575
v 35.9625 22.5 -31.1575
v 27.9625 22.5 -39.1575
v 27.9625 22.5 39.1575
v 35.9625 22.5 31.1575
v -35.9625 22.5 31.1575
v -27.9625 22.5 39.1575
v -23.0825 22.5 -34.2775
v -31.0825 22.5 -26.2775
v 31.0825 22.5 -26.2775
v 23.0825 22.5 -34.2775
v 23.0825 22.5 34.2775
v 31.0825 22.5 26.2775
v -31.0825 22.5 26.2775
v -23.0825 22.5 34.2775
v -23.0825 19.3 -34.2775
v -31.0825 19.3 -26.2775
v 31.0825 19.3 -26.2775
v 23.0825 19.3 -34.2775
v 23.0825 19.3 34.2775
v 31.0825 19.3 26.2775
v -31.0825 19.3 26.2775
v -23.0825 19.3 34.2775
v -30.3225 19.3 -41.5175
v -38.3225 19.3 -33.5175
v 38.3225 19.3 -33.5175
v 30.3225 19.3 -41.5175
v 30.3225 19.3 41.5175
v 38.3225 19.3 33.5175
v -38.3225 19.3 33.5175
v -30.3225 19.3 41.5175
v -30.3225 -10.5 -41.5175
v -38.3225 -10.5 -33.5175
v 38.3225 -10.5 -33.5175
v 30.3225 -10.5 -41.5175
v 30.3225 -10.5 41.5175
v 38.3225 -10.5 33.5175
v -38.3225 -10.5 33.5175
v -30.3225 -10.5 41.5175
vn 0 -1 0
vn -0.680924 0.269601 0.680924
vn -0.707107 0 0.707107
vn 0.680924 0.269601 -0.680924
vn 0.707107 0 -0.707107
vn 0.707107 0 0.707107
vn 0 0.208993 0.977917
vn 0 0 1
vn -1 0 0
vn 0 1 0
vn -0.604315 0.519237 0.604315
vn 0 0.919145 0.393919
vn -0.707107 0 -0.707107
vn -0.981024 0.193884 0
vn -0.924818 0.380411 0
vn 1 0 0
vn -0.680924 0.269601 -0.680924
vn 0 0.408755 0.912644
vn -0.604315 0.519237 -0.604315
vn 0.680924 0.269601 0.680924
vn 0.604315 0.519237 0.604315
vn 0.981024 0.193884 0
vn 0.924818 0.380411 0
vn 0 0.919145 -0.393919
vn 0 0.208993 -0.977917
vn 0 0.408755 -0.912644
vn 0 0 -1
vn 0.604315 0.519237 -0.604315
vt 0.240837 0.342496
vt 0.509163 0.367967
vt 0.25 0.299283
vt 0.277807 0.333333
vt 0.5 0.0340505
vt 0.472193 0
vt 0.481053 0.27991
vt 0.453757 0.314386
vt 0.472193 0.333333
vt 0.296243 0.314386
vt 0.268844 0.342496
vt 0.481156 0.342496
vt 0.240837 0.317026
vt 0.509163 0.308616
vt 0.210711 0.666667
vt 0.224462 0.333333
vt 0.29278 0.666667
vt 0.268947 0.0534235
vt 0.25 0.0340505
vt 0.296243 0.0189475
vt 0.277807 0
vt 0.45722 0.666667
vt 0.25 0.719052
vt 0.25 0.947615
vt 0.5 0.719052
vt 0.29278 1
vt 0.5 0.947615
vt 0.45722 1
vt 0.509163 0.0247175
vt 0.481053 0.0534235
vt 0.509163 0.342496
vt 0.240837 0.0247175
vt 0.268844 -0.00916312
vt 0.481156 -0.00916312
vt 0.0255379 0.333333
vt 0.0392891 0.666667
vt 0.5 0.299283
vt 0.453757 0.0189475
vt 0.268947 0.27991
vt 0.240837 0.308616
vt 0.509163 0.0163072
vt 0.509163 -0.00916312
vt 1.04278 0.666667
vt 0.95722 0.666667
vt 1.02781 0.333333
vt 0.972193 0.333333
vt 0.525538 0.333333
vt 0.539289 0.666667
vt 0.724462 0.333333
vt 0.710711 0.666667
vt 0.240837 -0.00916312
vt 0.777807 0.333333
vt 0.79278 0.666667
vt 0.240837 -0.0346335
mtllib newbuilding8LQ.mtl
usemtl Default
g Default
f 8/1/1 7/2/1 16/1/1
f 15/2/1 16/1/1 7/2/1
f 23/3/2 39/3/3 24/4/2
f 40/4/3 24/4/2 39/3/3
f 19/5/4 35/5/5 20/6/4
f 36/6/5 20/6/4 35/5/5
f 54/7/6 46/7/6 53/8/6
f 45/8/6 53/8/6 46/7/6
f 24/4/7 40/4/8 21/9/7
f 37/9/8 21/9/7 40/4/8
f 48/10/8 56/10/8 45/8/8
f 53/8/8 45/8/8 56/10/8
f 64/11/8 72/11/8 61/12/8
f 69/12/8 61/12/8 72/11/8
f 4/13/9 8/1/9 12/13/9
f 16/1/9 12/13/9 8/1/9
f 54/7/10 53/8/10 62/14/10
f 61/12/10 62/14/10 53/8/10
f 32/15/11 23/16/2 31/17/11
f 24/4/2 31/17/11 23/16/2
f 42/18/1 34/19/1 41/20/1
f 33/21/1 41/20/1 34/19/1
f 31/17/10 30/22/10 32/23/10
f 25/24/10 32/23/10 30/22/10
f 30/22/10 29/25/10 25/24/10
f 26/26/10 25/24/10 29/25/10
f 29/25/10 28/27/10 26/26/10
f 27/28/10 26/26/10 28/27/10
f 40/4/1 48/10/1 37/9/1
f 45/8/1 37/9/1 48/10/1
f 62/14/10 59/29/10 54/7/10
f 51/30/10 54/7/10 59/29/10
f 3/31/12 4/13/12 11/31/12
f 12/13/12 11/31/12 4/13/12
f 50/18/13 42/18/13 49/20/13
f 41/20/13 49/20/13 42/18/13
f 50/18/10 49/20/10 58/32/10
f 57/33/10 58/32/10 49/20/10
f 59/29/5 67/29/5 60/34/5
f 68/34/5 60/34/5 67/29/5
f 18/35/14 23/16/14 25/36/15
f 32/15/15 25/36/15 23/16/14
f 38/37/1 46/7/1 35/5/1
f 43/30/1 35/5/1 46/7/1
f 60/34/10 57/33/10 52/38/10
f 49/20/10 52/38/10 57/33/10
f 3/31/16 11/31/16 7/2/16
f 15/2/16 7/2/16 11/31/16
f 55/39/10 63/40/10 56/10/10
f 64/11/10 56/10/10 63/40/10
f 46/7/1 38/37/1 45/8/1
f 37/9/1 45/8/1 38/37/1
f 34/19/13 18/19/17 33/21/13
f 17/21/17 33/21/13 18/19/17
f 24/4/7 21/9/7 31/17/18
f 30/22/18 31/17/18 21/9/7
f 36/6/1 44/38/1 33/21/1
f 41/20/1 33/21/1 44/38/1
f 58/32/10 63/40/10 50/18/10
f 55/39/10 50/18/10 63/40/10
f 2/41/16 6/42/16 10/41/16
f 14/42/16 10/41/16 6/42/16
f 25/43/19 26/44/19 18/45/17
f 17/46/17 18/45/17 26/44/19
f 63/40/3 71/40/3 64/11/3
f 72/11/3 64/11/3 71/40/3
f 21/9/20 22/47/20 30/22/21
f 29/48/21 30/22/21 22/47/20
f 22/47/22 19/49/22 29/48/23
f 28/50/23 29/48/23 19/49/22
f 34/19/1 42/18/1 39/3/1
f 47/39/1 39/3/1 42/18/1
f 64/11/10 61/12/10 56/10/10
f 53/8/10 56/10/10 61/12/10
f 65/33/1 68/34/1 66/32/1
f 71/40/1 66/32/1 68/34/1
f 68/34/1 67/29/1 71/40/1
f 72/11/1 71/40/1 67/29/1
f 67/29/1 70/14/1 72/11/1
f 69/12/1 72/11/1 70/14/1
f 1/51/24 2/41/24 9/51/24
f 10/41/24 9/51/24 2/41/24
f 43/30/5 51/30/5 44/38/5
f 52/38/5 44/38/5 51/30/5
f 38/37/6 22/37/20 37/9/6
f 21/9/20 37/9/6 22/37/20
f 47/39/3 55/39/3 48/10/3
f 56/10/3 48/10/3 55/39/3
f 20/52/25 17/46/25 27/53/26
f 26/44/26 27/53/26 17/46/25
f 22/37/22 38/37/16 19/5/22
f 35/5/16 19/5/22 38/37/16
f 46/7/16 54/7/16 43/30/16
f 51/30/16 43/30/16 54/7/16
f 62/14/16 70/14/16 59/29/16
f 67/29/16 59/29/16 70/14/16
f 1/51/9 9/51/9 5/54/9
f 13/54/9 5/54/9 9/51/9
f 9/51/27 10/41/27 13/54/27
f 14/42/27 13/54/27 10/41/27
f 51/30/10 59/29/10 52/38/10
f 60/34/10 52/38/10 59/29/10
f 35/5/1 43/30/1 36/6/1
f 44/38/1 36/6/1 43/30/1
f 66/32/13 58/32/13 65/33/13
f 57/33/13 65/33/13 58/32/13
f 20/6/25 36/6/27 17/21/25
f 33/21/27 17/21/25 36/6/27
f 44/38/27 52/38/27 41/20/27
f 49/20/27 41/20/27 52/38/27
f 60/34/27 68/34/27 57/33/27
f 65/33/27 57/33/27 68/34/27
f 6/42/1 5/54/1 14/42/1
f 13/54/1 14/42/1 5/54/1
f 11/31/8 12/13/8 15/2/8
f 16/1/8 15/2/8 12/13/8
f 39/3/1 47/39/1 40/4/1
f 48/10/1 40/4/1 47/39/1
f 70/14/6 62/14/6 69/12/6
f 61/12/6 69/12/6 62/14/6
f 28/50/28 19/49/4 27/53/28
f 20/52/4 27/53/28 19/49/4
f 18/19/14 34/19/9 23/3/14
f 39/3/9 23/3/14 34/19/9
f 42/18/9 50/18/9 47/39/9
f 55/39/9 47/39/9 50/18/9
f 58/32/9 66/32/9 63/40/9
f 71/40/9 63/40/9 66/32/9
