# OBJ written from C:\Users\rivalin\Creative\Personal Work\Paragon\Paragon\Paragon 31\data\models\buildings\terranmetropolis\terranmetropolis7MQ.obj

o Mesh
v -19.3017 9.1338 15.7097
v -19.3017 9.1338 -15.1881
v -16.8718 9.1338 -17.618
v 20.2897 9.1338 -15.1881
v 17.8597 9.1338 -17.618
v 20.2897 9.1338 15.7097
v 17.8597 9.1338 18.1397
v -16.8718 9.1338 18.1397
v 0.099 87.5847 0.6736
v 0.889 87.5847 0.6736
v 0.889 87.5847 -0.1519
v 0.099 87.5847 -0.1519
v -15.009 10.8089 17.9846
v 15.997 10.8089 17.9846
v 14.3146 27.2171 16.4651
v -13.3267 27.2171 16.4651
v 20.1181 10.8073 13.8654
v 20.1181 10.8073 -13.3437
v 18.4354 27.2187 -11.824
v 18.4354 27.2187 12.3457
v 15.997 10.8089 -17.4629
v -15.009 10.8089 -17.4629
v -13.3267 27.2171 -15.9435
v 14.3146 27.2171 -15.9435
v -19.1301 10.8073 -13.3437
v -19.1301 10.8073 13.8654
v -17.4475 27.2187 12.3457
v -17.4475 27.2187 -11.824
v -14.846 28.8922 16.31
v 15.8339 28.8922 16.31
v 9.0384 28.8922 9.5145
v -8.0504 28.8922 9.5145
v 18.2639 28.8922 13.8801
v 18.2639 28.8922 -13.3584
v 11.4684 28.8922 -6.5629
v 11.4684 28.8922 7.0846
v 15.8339 28.8922 -15.7884
v -14.846 28.8922 -15.7884
v -8.0504 28.8922 -8.9929
v 9.0384 28.8922 -8.9929
v -17.2759 28.8922 -13.3584
v -17.2759 28.8922 13.8801
v -10.4804 28.8922 7.0846
v -10.4804 28.8922 -6.5629
v -6.2899 30.5732 9.45
v 7.2778 30.5732 9.45
v 5.5919 67.5856 8.0284
v -4.604 67.5856 8.0284
v 11.3918 30.5727 5.3365
v 11.3918 30.5727 -4.8149
v 9.7059 67.5861 -3.3933
v 9.7059 67.5861 3.9149
v 7.2778 30.5732 -8.9283
v -6.2899 30.5732 -8.9283
v -4.604 67.5856 -7.5067
v 5.5919 67.5856 -7.5067
v -10.4038 30.5727 -4.8149
v -10.4038 30.5727 5.3365
v -8.7179 67.5861 3.9149
v -8.7179 67.5861 -3.3933
v -6.2114 69.2667 7.9638
v -8.6414 69.2667 5.5339
v 9.6293 69.2667 5.5339
v 7.1994 69.2667 7.9638
v 7.1994 69.2667 -7.4422
v 9.6293 69.2667 -5.0122
v -8.6414 69.2667 -5.0122
v -6.2114 69.2667 -7.4422
v 5.9993 72.5378 5.0666
v -5.0113 72.5378 5.0666
v 6.7321 72.5378 4.3338
v 6.7321 72.5378 -3.8122
v 5.9993 72.5378 -4.5449
v -5.0113 72.5378 -4.5449
v -5.7441 72.5378 -3.8122
v -5.7441 72.5378 4.3338
v -0.222 72.5378 1.009
v 1.21 72.5378 1.009
v 1.21 72.5378 -0.4874
v -0.222 72.5378 -0.4874
v -23.455 -22.255 -15.555
v -18.555 -22.255 -20.455
v 18.555 -22.255 -20.455
v 23.455 -22.255 -15.555
v 23.455 -22.255 15.555
v 18.555 -22.255 20.455
v -23.455 -22.255 15.555
v -18.555 -22.255 20.455
v -23.455 18.655 -15.555
v -18.555 18.655 -20.455
v 18.555 18.655 -20.455
v 23.455 18.655 -15.555
v 23.455 18.655 15.555
v 18.555 18.655 20.455
v -18.555 18.655 20.455
v -23.455 18.655 15.555
v -23.455 -27.255 -7.7775
v -9.2775 -27.255 -20.455
v 9.2775 -27.255 -20.455
v 23.455 -27.255 -7.7775
v 23.455 -27.255 7.7775
v 9.2775 -27.255 20.455
v -23.455 -27.255 7.7775
v -9.2775 -27.255 20.455
v -23.455 13.655 -7.7775
v -9.2775 13.655 -20.455
v 9.2775 13.655 -20.455
v 23.455 13.655 -7.7775
v 23.455 13.655 7.7775
v 9.2775 13.655 20.455
v -9.2775 13.655 20.455
v -23.455 13.655 7.7775
v 9.2775 2.855 -33.855
v 9.2775 -27.255 -33.855
v -9.2775 -27.255 -33.855
v -9.2775 2.855 -33.855
v 36.855 2.855 7.7775
v 36.855 -27.255 7.7775
v 36.855 -27.255 -7.7775
v 36.855 2.855 -7.7775
v -9.2775 2.855 33.855
v -9.2775 -27.255 33.855
v 9.2775 -27.255 33.855
v 9.2775 2.855 33.855
v -36.855 2.855 -7.7775
v -36.855 -27.255 -7.7775
v -36.855 -27.255 7.7775
v -36.855 2.855 7.7775
vn 0 -1 0
vn 0 1 0
vn 0 0.0922 0.9957
vn 0.9948 0.102 0
vn 0 0.0922 -0.9957
vn -0.9948 0.102 0
vn 0 0.0384 0.9993
vn 0.999 0.0455 0
vn 0 0.0384 -0.9993
vn -0.999 0.0455 0
vn 0.7005 0.1367 0.7005
vn -0.7005 0.1367 0.7005
vn 0.7005 0.1367 -0.7005
vn -0.7005 0.1367 -0.7005
vn -0.7059 0.0593 0.7059
vn 0.7059 0.0593 0.7059
vn 0.7059 0.0593 -0.7059
vn -0.7059 0.0593 -0.7059
vn 0 0.663 0.7486
vn 0.5293 0.663 0.5293
vn 0.7486 0.663 0
vn 0.5293 0.663 -0.5293
vn 0 0.663 -0.7486
vn -0.5293 0.663 -0.5293
vn -0.7486 0.663 0
vn -0.5293 0.663 0.5293
vn 0 0.0223 0.9998
vn 0.9998 0.0213 0
vn 0 0.0223 -0.9998
vn -0.9998 0.0213 0
vn 0 0 1
vn 0.627525 0.778596 0
vn 1 0 0
vn -0 -0 -1
vn -1 0 0
vn 0 0.778596 0.627525
vn -0.707107 0 0.707107
vn -0.707107 -0 -0.707107
vn 0 0.778596 -0.627525
vn 0.707107 0 -0.707107
vn -0.627525 0.778596 0
vn 0.707107 0 0.707107
vt 0.7615 0.925
vt 0.7615 0.7878
vt 0.7706 0.777
vt 0.9102 0.7878
vt 0.9011 0.777
vt 0.9102 0.925
vt 0.9011 0.9358
vt 0.7706 0.9358
vt 0.5673 0.481
vt 0.5694 0.481
vt 0.5694 0.4837
vt 0.5673 0.4837
vt 0.3621 0.0082
vt 0.6556 0.0082
vt 0.6397 0.1522
vt 0.3781 0.1522
vt 0.3644 0.0091
vt 0.6549 0.0091
vt 0.6386 0.1531
vt 0.3806 0.1531
vt 0.3621 0.0101
vt 0.6556 0.0101
vt 0.6397 0.1541
vt 0.3781 0.1541
vt 0.3637 0.0098
vt 0.6549 0.0098
vt 0.6387 0.1532
vt 0.38 0.1532
vt 0.7797 0.7861
vt 0.895 0.7861
vt 0.8695 0.8162
vt 0.8053 0.8162
vt 0.9041 0.7969
vt 0.9041 0.9178
vt 0.8786 0.8876
vt 0.8786 0.827
vt 0.895 0.9286
vt 0.7797 0.9286
vt 0.8053 0.8984
vt 0.8695 0.8984
vt 0.7706 0.9178
vt 0.7706 0.7969
vt 0.7961 0.827
vt 0.7961 0.8876
vt 0.0081 0.0067
vt 0.2406 0.0084
vt 0.2052 0.4524
vt 0.0305 0.4511
vt 0.0374 0.0071
vt 0.2113 0.0083
vt 0.1804 0.4524
vt 0.0552 0.4515
vt 0.0052 0.0083
vt 0.2377 0.01
vt 0.2023 0.454
vt 0.0275 0.4528
vt 0.0365 0.0071
vt 0.2104 0.0083
vt 0.1795 0.4524
vt 0.0543 0.4515
vt 0.6818 0.0144
vt 0.7023 0.0144
vt 0.7177 0.1926
vt 0.6972 0.1926
vt 0.7001 0.1807
vt 0.6796 0.1807
vt 0.6626 0.0024
vt 0.6831 0.0024
vt 0.6626 0.0044
vt 0.6831 0.0044
vt 0.7001 0.1826
vt 0.6796 0.1826
vt 0.6818 0.0138
vt 0.7023 0.0138
vt 0.7178 0.192
vt 0.6973 0.192
vt 0.7369 0.1807
vt 0.7574 0.1807
vt 0.7729 0.5449
vt 0.7524 0.5449
vt 0.9015 0.1807
vt 0.922 0.1807
vt 0.9065 0.5449
vt 0.886 0.5449
vt 0.7369 0.1826
vt 0.7574 0.1826
vt 0.7729 0.5468
vt 0.7524 0.5468
vt 0.9015 0.1826
vt 0.922 0.1826
vt 0.9065 0.5468
vt 0.886 0.5468
vt 0.9588 0.1807
vt 0.7129 0.1656
vt 0.946 0.1656
vt 0.9759 0.0024
vt 0.9602 0.0176
vt 0.6988 0.0176
vt 0.9474 0.1926
vt 0.7306 0.1775
vt 0.9344 0.1775
vt 0.9628 0.0144
vt 0.9472 0.0294
vt 0.7178 0.0294
vt 0.9588 0.1826
vt 0.7129 0.1675
vt 0.946 0.1675
vt 0.9759 0.0044
vt 0.9602 0.0195
vt 0.6988 0.0195
vt 0.9474 0.192
vt 0.7307 0.1769
vt 0.9345 0.1769
vt 0.9628 0.0138
vt 0.9473 0.0289
vt 0.7179 0.0289
vt 0.7865 0.5297
vt 0.8725 0.5297
vt 0.8867 0.1958
vt 0.7723 0.1958
vt 0.877 0.5568
vt 0.7881 0.5568
vt 0.8017 0.5416
vt 0.8633 0.5416
vt 0.8901 0.1926
vt 0.8753 0.2077
vt 0.775 0.1926
vt 0.7897 0.2077
vt 0.7865 0.5316
vt 0.8725 0.5316
vt 0.8867 0.1978
vt 0.7723 0.1978
vt 0.877 0.5562
vt 0.7881 0.5562
vt 0.8018 0.541
vt 0.8634 0.541
vt 0.8901 0.192
vt 0.8754 0.2072
vt 0.775 0.192
vt 0.7898 0.2072
vt 0.7567 0.6702
vt 0.9245 0.6702
vt 0.9095 0.7111
vt 0.7718 0.7111
vt 0.8626 0.8231
vt 0.8717 0.8339
vt 0.8608 0.8392
vt 0.858 0.836
vt 0.7726 0.6709
vt 0.9045 0.6709
vt 0.8895 0.7118
vt 0.7876 0.7118
vt 0.8717 0.8807
vt 0.8626 0.8915
vt 0.858 0.8787
vt 0.8608 0.8754
vt 0.7577 0.6702
vt 0.9255 0.6702
vt 0.9105 0.7111
vt 0.7727 0.7111
vt 0.8122 0.8915
vt 0.803 0.8807
vt 0.8139 0.8754
vt 0.8167 0.8787
vt 0.7745 0.6749
vt 0.9065 0.6749
vt 0.8914 0.7158
vt 0.7895 0.7158
vt 0.803 0.8339
vt 0.8122 0.8231
vt 0.8167 0.836
vt 0.8139 0.8392
vt 0.546 0.4721
vt 0.5561 0.4721
vt 0.5539 0.4937
vt 0.5483 0.4937
vt 0.5484 0.474
vt 0.5589 0.474
vt 0.5565 0.4956
vt 0.5507 0.4956
vt 0.546 0.4724
vt 0.5561 0.4724
vt 0.5539 0.494
vt 0.5483 0.494
vt 0.5484 0.4739
vt 0.5589 0.4739
vt 0.5566 0.4955
vt 0.5508 0.4955
vt 0.728894 0.952228
vt 0.745106 0.952228
vt 0.747246 0.938801
vt 0.747246 0.946199
vt 0.7531 0.938801
vt 0.7531 0.946199
vt 0.741053 0.9586
vt 0.741053 0.952228
vt 0.747246 0.949897
vt 0.747246 0.935103
vt 0.741053 0.9264
vt 0.732947 0.9264
vt 0.732947 0.952228
vt 0.732947 0.9586
vt 0.745106 0.932772
vt 0.728894 0.932772
vt 0.732947 0.932772
vt 0.7209 0.938801
vt 0.7209 0.946199
vt 0.726754 0.935103
vt 0.726754 0.949897
vt 0.741053 0.932772
vt 0.726754 0.946199
vt 0.726754 0.938801
mtllib terranmetropolis7MQ.mtl
usemtl Default
g Box023
f 1/1/1 2/2/1 3/3/1 4/4/1
f 3/3/1 5/5/1 4/4/1
f 4/4/1 6/6/1 7/7/1 1/1/1
f 8/8/1 1/1/1 7/7/1
f 9/9/2 10/10/2 11/11/2 12/12/2
f 13/13/3 14/14/3 15/15/3 16/16/3
f 17/17/4 18/18/4 19/19/4 20/20/4
f 21/21/5 22/22/5 23/23/5 24/24/5
f 25/25/6 26/26/6 27/27/6 28/28/6
f 29/29/2 30/30/2 31/31/2 32/32/2
f 33/33/2 34/34/2 35/35/2 36/36/2
f 37/37/2 38/38/2 39/39/2 40/40/2
f 41/41/2 42/42/2 43/43/2 44/44/2
f 45/45/7 46/46/7 47/47/7 48/48/7
f 49/49/8 50/50/8 51/51/8 52/52/8
f 53/53/9 54/54/9 55/55/9 56/56/9
f 57/57/10 58/58/10 59/59/10 60/60/10
f 7/61/11 6/62/11 33/63/11 30/64/11
f 29/65/12 42/66/12 1/67/12 8/68/12
f 4/69/13 5/70/13 37/71/13 34/72/13
f 3/73/14 2/74/14 41/75/14 38/76/14
f 43/77/15 32/78/15 61/79/15 62/80/15
f 31/81/16 36/82/16 63/83/16 64/84/16
f 35/85/17 40/86/17 65/87/17 66/88/17
f 39/89/18 44/90/18 67/91/18 68/92/18
f 30/93/3 29/65/3 16/94/3 15/95/3
f 7/96/3 30/93/3 15/95/3 14/97/3
f 8/68/3 7/96/3 14/97/3 13/98/3
f 13/98/3 16/94/3 29/65/3 8/68/3
f 34/99/4 33/63/4 20/100/4 19/101/4
f 4/102/4 34/99/4 19/101/4 18/103/4
f 6/62/4 4/102/4 18/103/4 17/104/4
f 17/104/4 20/100/4 33/63/4 6/62/4
f 38/105/5 37/71/5 24/106/5 23/107/5
f 3/108/5 38/105/5 23/107/5 22/109/5
f 5/70/5 3/108/5 22/109/5 21/110/5
f 21/110/5 24/106/5 37/71/5 5/70/5
f 42/111/6 41/75/6 28/112/6 27/113/6
f 1/114/6 42/111/6 27/113/6 26/115/6
f 2/74/6 1/114/6 26/115/6 25/116/6
f 25/116/6 28/112/6 41/75/6 2/74/6
f 64/84/7 61/79/7 48/117/7 47/118/7
f 31/81/7 64/84/7 47/118/7 46/119/7
f 32/78/7 31/81/7 46/119/7 45/120/7
f 45/120/7 48/117/7 61/79/7 32/78/7
f 66/121/8 63/122/8 52/123/8 51/124/8
f 35/125/8 66/121/8 51/124/8 50/126/8
f 36/127/8 35/125/8 50/126/8 49/128/8
f 49/128/8 52/123/8 63/122/8 36/127/8
f 68/92/9 65/87/9 56/129/9 55/130/9
f 39/89/9 68/92/9 55/130/9 54/131/9
f 40/86/9 39/89/9 54/131/9 53/132/9
f 53/132/9 56/129/9 65/87/9 40/86/9
f 62/133/10 67/134/10 60/135/10 59/136/10
f 43/137/10 62/133/10 59/136/10 58/138/10
f 44/139/10 43/137/10 58/138/10 57/140/10
f 57/140/10 60/135/10 67/134/10 44/139/10
f 61/141/19 64/142/19 69/143/19 70/144/19
f 64/145/20 63/146/20 71/147/20 69/148/20
f 63/149/21 66/150/21 72/151/21 71/152/21
f 66/153/22 65/154/22 73/155/22 72/156/22
f 65/157/23 68/158/23 74/159/23 73/160/23
f 68/161/24 67/162/24 75/163/24 74/164/24
f 67/165/25 62/166/25 76/167/25 75/168/25
f 62/169/26 61/170/26 70/171/26 76/172/26
f 71/147/2 72/156/2 73/155/2 70/171/2
f 73/155/2 74/164/2 75/163/2 70/171/2
f 75/163/2 76/172/2 70/171/2
f 69/148/2 71/147/2 70/171/2
f 77/173/27 78/174/27 10/175/27 9/176/27
f 78/177/28 79/178/28 11/179/28 10/180/28
f 79/181/29 80/182/29 12/183/29 11/184/29
f 80/185/30 77/186/30 9/187/30 12/188/30
f 35/35/2 34/34/2 37/37/2 40/40/2
f 32/32/2 43/43/2 42/42/2 29/29/2
f 39/39/2 38/38/2 41/41/2 44/44/2
f 36/36/2 31/31/2 30/30/2 33/33/2
usemtl material1
g Default
f 95/189/31 88/189/31 94/190/31
f 86/190/31 94/190/31 88/189/31
f 108/191/32 109/192/32 120/193/32
f 117/194/32 120/193/32 109/192/32
f 123/195/33 102/196/33 124/195/33
f 110/196/33 124/195/33 102/196/33
f 93/197/33 85/197/33 92/198/33
f 84/198/33 92/198/33 85/197/33
f 113/199/34 114/199/34 116/200/34
f 115/200/34 116/200/34 114/199/34
f 104/201/1 102/196/1 122/202/1
f 123/195/1 122/202/1 102/196/1
f 91/203/34 83/203/34 90/204/34
f 82/204/34 90/204/34 83/203/34
f 115/200/35 98/205/35 116/200/35
f 106/205/35 116/200/35 98/205/35
f 122/202/35 121/202/35 104/201/35
f 111/201/35 104/201/35 121/202/35
f 125/206/35 126/206/35 128/207/35
f 127/207/35 128/207/35 126/206/35
f 84/198/1 85/197/1 83/203/1
f 82/204/1 83/203/1 85/197/1
f 85/197/1 86/190/1 82/204/1
f 81/208/1 82/204/1 86/190/1
f 86/190/1 88/189/1 81/208/1
f 87/209/1 81/208/1 88/189/1
f 99/210/1 98/205/1 114/199/1
f 115/200/1 114/199/1 98/205/1
f 110/196/36 111/201/36 124/195/36
f 121/202/36 124/195/36 111/201/36
f 127/207/31 103/211/31 128/207/31
f 112/211/31 128/207/31 103/211/31
f 88/189/37 95/189/37 87/209/37
f 96/209/37 87/209/37 95/189/37
f 114/199/33 113/199/33 99/210/33
f 107/210/33 99/210/33 113/199/33
f 117/194/33 118/194/33 120/193/33
f 119/193/33 120/193/33 118/194/33
f 97/212/1 103/211/1 126/206/1
f 127/207/1 126/206/1 103/211/1
f 90/204/38 82/204/38 89/208/38
f 81/208/38 89/208/38 82/204/38
f 106/205/39 107/210/39 116/200/39
f 113/199/39 116/200/39 107/210/39
f 119/193/34 100/191/34 120/193/34
f 108/191/34 120/193/34 100/191/34
f 126/206/34 125/206/34 97/212/34
f 105/212/34 97/212/34 125/206/34
f 92/198/40 84/198/40 91/203/40
f 83/203/40 91/203/40 84/198/40
f 89/208/2 96/209/2 90/204/2
f 91/203/2 90/204/2 96/209/2
f 96/209/2 95/189/2 91/203/2
f 92/198/2 91/203/2 95/189/2
f 95/189/2 94/190/2 92/198/2
f 93/197/2 92/198/2 94/190/2
f 101/192/1 100/191/1 118/194/1
f 119/193/1 118/194/1 100/191/1
f 112/211/41 105/212/41 128/207/41
f 125/206/41 128/207/41 105/212/41
f 85/197/42 93/197/42 86/190/42
f 94/190/42 86/190/42 93/197/42
f 89/208/35 81/208/35 96/209/35
f 87/209/35 96/209/35 81/208/35
f 118/194/31 117/194/31 101/192/31
f 109/192/31 101/192/31 117/194/31
f 121/202/31 122/202/31 124/195/31
f 123/195/31 124/195/31 122/202/31
