# OBJ written from C:\Users\rivalin\Creative\Personal Work\Paragon\Paragon\Paragon 31\data\models\buildings\terranmetropolis\terranmetropolis3MQ.obj

o Mesh
v -18.2012 19.3143 19.2366
v -18.2012 19.3143 -19.4185
v 19.9454 19.3143 -19.4185
v 19.9454 19.3143 19.2366
v -0.6044 212.692 1.5436
v 2.3487 212.692 1.5436
v 2.4677 212.692 1.4246
v 2.3487 212.692 -1.7256
v 2.4677 212.692 -1.6065
v -0.6044 212.692 -1.7256
v -0.7235 212.692 -1.6065
v -0.7235 212.692 1.4246
v 17.4249 20.2938 19.2366
v 17.4249 29.1069 19.2366
v 13.0442 34.4224 19.2366
v -15.6807 29.1069 19.2366
v -11.2999 34.4224 19.2366
v -15.6807 20.2938 19.2366
v 19.9454 20.2938 -16.898
v 19.9454 29.1069 -16.898
v 19.9454 34.4224 -12.5173
v 19.9454 29.1069 16.7161
v 19.9454 34.4224 12.3354
v 19.9454 20.2938 16.7161
v -15.6807 20.2938 -19.4185
v -15.6807 29.1069 -19.4185
v -11.2999 34.4224 -19.4185
v 17.4249 29.1069 -19.4185
v 13.0442 34.4224 -19.4185
v 17.4249 20.2938 -19.4185
v -18.2012 20.2938 16.7161
v -18.2012 29.1069 16.7161
v -18.2012 34.4224 12.3354
v -18.2012 29.1069 -16.898
v -18.2012 34.4224 -12.5173
v -18.2012 20.2938 -16.898
v 10.6777 167.622 19.2366
v -8.9334 167.622 19.2366
v -8.9334 44.2396 19.2366
v 10.6777 44.2396 19.2366
v 19.9454 167.622 -10.1508
v 19.9454 167.622 9.9689
v 19.9454 44.2396 9.9689
v 19.9454 44.2396 -10.1508
v -8.9334 167.622 -19.4185
v 10.6777 167.622 -19.4185
v 10.6777 44.2396 -19.4185
v -8.9334 44.2396 -19.4185
v -18.2012 167.622 9.9689
v -18.2012 167.622 -10.1508
v -18.2012 44.2396 -10.1508
v -18.2012 44.2396 9.9689
v 19.9454 32.9943 19.2366
v 19.9454 40.1013 13.3794
v 14.0882 40.1013 19.2366
v -18.2012 32.9943 19.2366
v -12.344 40.1013 19.2366
v -18.2012 40.1013 13.3794
v 19.9454 32.9943 -19.4185
v 14.0882 40.1013 -19.4185
v 19.9454 40.1013 -13.5613
v -18.2012 32.9943 -19.4185
v -18.2012 40.1013 -13.5613
v -12.344 40.1013 -19.4185
v -12.344 171.76 19.2366
v -18.2012 171.76 13.3794
v 19.9454 171.76 13.3794
v 14.0882 171.76 19.2366
v 14.0882 171.76 -19.4185
v 19.9454 171.76 -13.5613
v -18.2012 171.76 -13.5613
v -12.344 171.76 -19.4185
v 11.355 171.76 -12.8199
v 13.3468 171.76 -10.8281
v 13.3468 171.76 10.6462
v 11.355 171.76 12.638
v -9.6107 171.76 12.638
v -11.6025 171.76 10.6462
v -11.6025 171.76 -10.8281
v -9.6107 171.76 -12.8199
v 11.355 175.718 12.638
v -9.6107 175.718 12.638
v 13.3468 175.718 10.6462
v 13.3468 175.718 -10.8281
v 11.355 175.718 -12.8199
v -9.6107 175.718 -12.8199
v -11.6025 175.718 -10.8281
v -11.6025 175.718 10.6462
v 11.5893 195.42 11.46
v 12.1688 195.42 10.8805
v 11.4274 195.42 10.5734
v 11.2822 195.42 10.7186
v 12.1688 195.42 -11.0624
v 11.5893 195.42 -11.6419
v 11.2822 195.42 -10.9005
v 11.4274 195.42 -10.7553
v -9.845 195.42 -11.6419
v -10.4246 195.42 -11.0624
v -9.6831 195.42 -10.7553
v -9.5379 195.42 -10.9005
v 11.2708 175.718 9.7863
v 10.4951 175.718 10.562
v -8.7508 175.718 10.562
v -9.5266 175.718 9.7863
v -9.5266 175.718 -9.9682
v 11.2708 175.718 -9.9682
v 10.4951 175.718 -10.744
v -8.7508 175.718 -10.744
v -10.4246 195.42 10.8805
v -9.845 195.42 11.46
v -9.5379 195.42 10.7186
v -9.6831 195.42 10.5734
v 11.5893 175.718 11.46
v 12.1688 175.718 10.8805
v 11.4274 175.718 10.5734
v 11.2822 175.718 10.7186
v 12.1688 175.718 -11.0624
v 11.5893 175.718 -11.6419
v 11.2822 175.718 -10.9005
v 11.4274 175.718 -10.7553
v -9.845 175.718 -11.6419
v -10.4246 175.718 -11.0624
v -9.6831 175.718 -10.7553
v -9.5379 175.718 -10.9005
v -10.4246 175.718 10.8805
v -9.845 175.718 11.46
v -9.5379 175.718 10.7186
v -9.6831 175.718 10.5734
vn 0 -1 0
vn 0 1 0
vn 0 0 1
vn 1 0 0
vn 0 0 -1
vn -1 0 0
vn 0.5774 0.5774 0.5774
vn -0.5774 0.5774 0.5774
vn 0.5774 0.5774 -0.5774
vn -0.5774 0.5774 -0.5774
vn -0.7071 0 0.7071
vn 0.7071 0 0.7071
vn 0.7071 0 -0.7071
vn -0.7071 0 -0.7071
vn 0 0.2838 0.9589
vn 0.6569 0.37 0.6569
vn 0.9607 0.2775 0
vn 0.6569 0.37 -0.6569
vn 0 0.2838 -0.9589
vn -0.6569 0.37 -0.6569
vn -0.9607 0.2775 0
vn -0.6569 0.37 0.6569
vn 0.3827 0 -0.9239
vn -0.9239 0 0.3827
vn -0.9239 0 -0.3827
vn 0.3827 0 0.9239
vn -0.3827 0 0.9239
vn 0.9239 0 -0.3827
vn 0.9239 0 0.3827
vn -0.3827 0 -0.9239
vt 0.7899 0.6512
vt 0.8749 0.6512
vt 0.8749 0.7235
vt 0.7899 0.7235
vt 0.8344 0.198
vt 0.8344 0.187
vt 0.8348 0.1866
vt 0.8467 0.187
vt 0.8462 0.1866
vt 0.8467 0.198
vt 0.8462 0.1984
vt 0.8348 0.1984
vt 0.6312 0.0062
vt 0.6312 0.0927
vt 0.5984 0.1449
vt 0.3834 0.0927
vt 0.4162 0.1449
vt 0.3834 0.0062
vt 0.6358 0.0115
vt 0.6358 0.098
vt 0.603 0.1502
vt 0.3842 0.098
vt 0.417 0.1502
vt 0.3842 0.0115
vt 0.6287 0.0062
vt 0.6287 0.0927
vt 0.5959 0.1449
vt 0.3809 0.0927
vt 0.4137 0.1449
vt 0.3809 0.0062
vt 0.6333 0.0168
vt 0.6333 0.1033
vt 0.6005 0.1555
vt 0.3817 0.1033
vt 0.4145 0.1555
vt 0.3817 0.0168
vt 0.3612 1.3633
vt 0.01 1.3633
vt 0.01 0.002
vt 0.3612 0.002
vt 0.3722 1.3692
vt 0.0119 1.3692
vt 0.0119 0.0079
vt 0.3722 0.0079
vt 0.3552 1.3633
vt 0.004 1.3633
vt 0.004 0.002
vt 0.3552 0.002
vt 0.3661 1.3752
vt 0.0058 1.3752
vt 0.0058 0.0139
vt 0.3661 0.0139
vt 0.8718 0.7223
vt 0.8589 0.7223
vt 0.8718 0.7111
vt 0.8718 0.6499
vt 0.8718 0.661
vt 0.8589 0.6499
vt 0.7868 0.7223
vt 0.7868 0.7111
vt 0.7997 0.7223
vt 0.7868 0.6499
vt 0.7997 0.6499
vt 0.7868 0.661
vt 0.7372 0.8196
vt 0.692 0.8196
vt 0.692 0.1181
vt 0.7372 0.1181
vt 0.941 0.1181
vt 0.9861 0.1181
vt 0.9861 0.8196
vt 0.941 0.8196
vt 0.6894 0.1181
vt 0.7346 0.1181
vt 0.7346 0.8196
vt 0.6894 0.8196
vt 0.9384 0.1181
vt 0.9835 0.1181
vt 0.9835 0.8196
vt 0.9384 0.8196
vt 0.7653 0.281
vt 0.7344 0.2519
vt 0.7692 0.2384
vt 0.7797 0.2482
vt 0.9073 0.281
vt 0.8929 0.2482
vt 0.9382 0.2519
vt 0.9034 0.2384
vt 0.9382 0.1208
vt 0.9034 0.1344
vt 0.9073 0.0918
vt 0.8929 0.1245
vt 0.7653 0.0918
vt 0.7797 0.1245
vt 0.7692 0.1344
vt 0.7344 0.1208
vt 0.772 0.8512
vt 0.9044 0.8512
vt 0.9044 0.8771
vt 0.772 0.8771
vt 0.917 0.8512
vt 0.917 0.8771
vt 0.7727 0.8548
vt 0.9083 0.8548
vt 0.9083 0.8806
vt 0.7727 0.8806
vt 0.7573 0.8512
vt 0.7699 0.8512
vt 0.7699 0.8771
vt 0.7573 0.8771
vt 0.9023 0.8512
vt 0.9023 0.8771
vt 0.9149 0.8512
vt 0.9149 0.8771
vt 0.7705 0.8583
vt 0.9061 0.8583
vt 0.9061 0.8842
vt 0.7705 0.8842
vt 0.7594 0.8512
vt 0.7594 0.8771
vt 0.5503 0.6582
vt 0.5483 0.6602
vt 0.5473 0.6576
vt 0.5478 0.6571
vt 0.5619 0.6616
vt 0.5598 0.6596
vt 0.5624 0.6585
vt 0.5629 0.659
vt 0.5627 0.6729
vt 0.5647 0.6709
vt 0.5657 0.6735
vt 0.5652 0.674
vt 0.8884 0.2379
vt 0.8925 0.2341
vt 0.8925 0.1387
vt 0.8884 0.1348
vt 0.7842 0.1348
vt 0.7842 0.2379
vt 0.7801 0.2341
vt 0.7801 0.1387
vt 0.5483 0.6716
vt 0.5503 0.6736
vt 0.5478 0.6747
vt 0.5473 0.6742
vt 0.7872 0.2315
vt 0.7872 0.1521
vt 0.8944 0.1857
vt 0.8944 0.1979
vt 0.7888 0.2368
vt 0.7888 0.2336
vt 0.8976 0.1986
vt 0.8976 0.1991
vt 0.7888 0.1508
vt 0.8976 0.1859
vt 0.7888 0.1476
vt 0.8976 0.1854
vt 0.7891 0.2309
vt 0.7891 0.1516
vt 0.8963 0.1852
vt 0.8963 0.1974
vt 0.7893 0.2408
vt 0.7893 0.2376
vt 0.8982 0.2025
vt 0.8982 0.203
vt 0.7893 0.1548
vt 0.8982 0.1899
vt 0.7893 0.1516
vt 0.8982 0.1894
vt 0.7635 0.7975
vt 0.9147 0.7975
vt 0.9147 0.1402
vt 0.7635 0.1402
vt 0.9457 0.8225
vt 0.738 0.8225
vt 0.7643 0.8004
vt 0.9194 0.8004
vt 0.9457 0.121
vt 0.9194 0.143
vt 0.738 0.121
vt 0.7643 0.143
vt 0.7609 0.7975
vt 0.9121 0.7975
vt 0.9121 0.1402
vt 0.7609 0.1402
vt 0.9431 0.8253
vt 0.7353 0.8253
vt 0.7616 0.8033
vt 0.9168 0.8033
vt 0.9431 0.1239
vt 0.9168 0.1459
vt 0.7353 0.1239
vt 0.7616 0.1459
vt 0.692 0.0074
vt 0.9861 0.0074
vt 0.9667 0.0126
vt 0.7114 0.0126
vt 0.692 0.0803
vt 0.7114 0.0595
vt 0.7452 0.0879
vt 0.9329 0.0879
vt 0.9861 0.0803
vt 0.9667 0.0595
vt 0.6928 0.0831
vt 0.6928 0.0103
vt 0.7122 0.0155
vt 0.7122 0.0624
vt 0.746 0.0907
vt 0.9376 0.0907
vt 0.9909 0.0831
vt 0.9714 0.0624
vt 0.9909 0.0103
vt 0.9714 0.0155
vt 0.6894 0.0803
vt 0.6894 0.0074
vt 0.7088 0.0126
vt 0.7088 0.0595
vt 0.7426 0.0879
vt 0.9303 0.0879
vt 0.9835 0.0803
vt 0.9641 0.0595
vt 0.9835 0.0074
vt 0.9641 0.0126
vt 0.6902 0.086
vt 0.6902 0.0131
vt 0.7096 0.0183
vt 0.7096 0.0653
vt 0.7434 0.0936
vt 0.935 0.0936
vt 0.9882 0.086
vt 0.9688 0.0653
vt 0.9882 0.0131
vt 0.9688 0.0183
vt 0.5511 0.6556
vt 0.553 0.6556
vt 0.553 0.6742
vt 0.5511 0.6742
vt 0.5505 0.6554
vt 0.5528 0.6554
vt 0.5528 0.674
vt 0.5505 0.674
vt 0.5532 0.6554
vt 0.5532 0.674
vt 0.5515 0.6566
vt 0.5538 0.6566
vt 0.5538 0.6752
vt 0.5515 0.6752
vt 0.5523 0.6554
vt 0.5523 0.674
vt 0.5508 0.6564
vt 0.5531 0.6564
vt 0.5531 0.675
vt 0.5508 0.675
vt 0.5502 0.6556
vt 0.5506 0.6556
vt 0.5506 0.6742
vt 0.5502 0.6742
vt 0.5501 0.6556
vt 0.5519 0.6556
vt 0.5519 0.6742
vt 0.5501 0.6742
vt 0.5515 0.6554
vt 0.5538 0.6554
vt 0.5538 0.674
vt 0.5515 0.674
vt 0.5543 0.6554
vt 0.5543 0.674
vt 0.5526 0.6561
vt 0.5549 0.6561
vt 0.5549 0.6747
vt 0.5526 0.6747
vt 0.5533 0.6554
vt 0.5533 0.674
vt 0.5518 0.6559
vt 0.5542 0.6559
vt 0.5542 0.6745
vt 0.5518 0.6745
vt 0.5491 0.6556
vt 0.5496 0.6556
vt 0.5496 0.6742
vt 0.5491 0.6742
mtllib terranmetropolis3MQ.mtl
usemtl Default
g Box017
f 1/1/1 2/2/1 3/3/1 4/4/1
f 5/5/2 6/6/2 7/7/2 8/8/2
f 7/7/2 9/9/2 8/8/2
f 8/8/2 10/10/2 11/11/2 5/5/2
f 12/12/2 5/5/2 11/11/2
f 13/13/3 14/14/3 15/15/3 16/16/3
f 15/15/3 17/17/3 16/16/3
f 18/18/3 13/13/3 16/16/3
f 19/19/4 20/20/4 21/21/4 22/22/4
f 21/21/4 23/23/4 22/22/4
f 24/24/4 19/19/4 22/22/4
f 25/25/5 26/26/5 27/27/5 28/28/5
f 27/27/5 29/29/5 28/28/5
f 30/30/5 25/25/5 28/28/5
f 31/31/6 32/32/6 33/33/6 34/34/6
f 33/33/6 35/35/6 34/34/6
f 36/36/6 31/31/6 34/34/6
f 37/37/3 38/38/3 39/39/3 40/40/3
f 41/41/4 42/42/4 43/43/4 44/44/4
f 45/45/5 46/46/5 47/47/5 48/48/5
f 49/49/6 50/50/6 51/51/6 52/52/6
f 53/53/7 54/54/7 55/55/7
f 56/56/8 57/57/8 58/58/8
f 59/59/9 60/60/9 61/61/9
f 62/62/10 63/63/10 64/64/10
f 65/65/11 66/66/11 58/67/11 57/68/11
f 55/69/12 54/70/12 67/71/12 68/72/12
f 61/73/13 60/74/13 69/75/13 70/76/13
f 64/77/14 63/78/14 71/79/14 72/80/14
f 70/81/2 69/82/2 73/83/2 74/84/2
f 67/85/2 70/81/2 74/84/2 75/86/2
f 68/87/2 67/85/2 75/86/2 76/88/2
f 65/89/2 68/87/2 76/88/2 77/90/2
f 66/91/2 65/89/2 77/90/2 78/92/2
f 71/93/2 66/91/2 78/92/2 79/94/2
f 80/95/2 73/83/2 69/82/2 72/96/2
f 79/94/2 80/95/2 72/96/2 71/93/2
f 77/97/3 76/98/3 81/99/3 82/100/3
f 76/98/12 75/101/12 83/102/12 81/99/12
f 75/103/4 74/104/4 84/105/4 83/106/4
f 74/107/13 73/108/13 85/109/13 84/110/13
f 73/108/5 80/111/5 86/112/5 85/109/5
f 80/111/14 79/113/14 87/114/14 86/112/14
f 79/115/6 78/116/6 88/117/6 87/118/6
f 78/119/11 77/97/11 82/100/11 88/120/11
f 89/121/2 90/122/2 91/123/2 92/124/2
f 93/125/2 94/126/2 95/127/2 96/128/2
f 97/129/2 98/130/2 99/131/2 100/132/2
f 81/88/2 83/86/2 101/133/2 102/134/2
f 82/90/2 81/88/2 102/134/2 103/135/2
f 88/92/2 82/90/2 103/135/2 104/136/2
f 87/94/2 88/92/2 104/136/2 105/137/2
f 106/138/2 101/133/2 83/86/2 84/84/2
f 107/139/2 106/138/2 84/84/2 85/83/2
f 108/140/2 107/139/2 85/83/2 86/95/2
f 105/137/2 108/140/2 86/95/2 87/94/2
f 109/141/2 110/142/2 111/143/2 112/144/2
f 103/145/15 102/146/15 6/147/15 5/148/15
f 102/149/16 101/150/16 7/151/16 6/152/16
f 101/150/17 106/153/17 9/154/17 7/151/17
f 106/153/18 107/155/18 8/156/18 9/154/18
f 107/157/19 108/158/19 10/159/19 8/160/19
f 108/161/20 105/162/20 11/163/20 10/164/20
f 105/162/21 104/165/21 12/166/21 11/163/21
f 104/165/22 103/167/22 5/168/22 12/166/22
f 68/72/3 65/65/3 38/169/3 37/170/3
f 55/69/3 68/72/3 37/170/3 40/171/3
f 57/68/3 55/69/3 40/171/3 39/172/3
f 65/65/3 57/68/3 39/172/3 38/169/3
f 70/173/4 67/174/4 42/175/4 41/176/4
f 61/177/4 70/173/4 41/176/4 44/178/4
f 54/179/4 61/177/4 44/178/4 43/180/4
f 67/174/4 54/179/4 43/180/4 42/175/4
f 72/80/5 69/75/5 46/181/5 45/182/5
f 64/77/5 72/80/5 45/182/5 48/183/5
f 60/74/5 64/77/5 48/183/5 47/184/5
f 69/75/5 60/74/5 47/184/5 46/181/5
f 66/185/6 71/186/6 50/187/6 49/188/6
f 58/189/6 66/185/6 49/188/6 52/190/6
f 63/191/6 58/189/6 52/190/6 51/192/6
f 71/186/6 63/191/6 51/192/6 50/187/6
f 1/193/3 4/194/3 13/195/3 18/196/3
f 56/197/3 1/193/3 18/196/3 16/198/3
f 57/68/3 56/197/3 16/198/3 17/199/3
f 55/69/3 57/68/3 17/199/3 15/200/3
f 53/201/3 55/69/3 15/200/3 14/202/3
f 4/194/3 53/201/3 14/202/3 13/195/3
f 53/203/4 4/204/4 24/205/4 22/206/4
f 54/179/4 53/203/4 22/206/4 23/207/4
f 61/177/4 54/179/4 23/207/4 21/208/4
f 59/209/4 61/177/4 21/208/4 20/210/4
f 3/211/4 59/209/4 20/210/4 19/212/4
f 4/204/4 3/211/4 19/212/4 24/205/4
f 59/213/5 3/214/5 30/215/5 28/216/5
f 60/74/5 59/213/5 28/216/5 29/217/5
f 64/77/5 60/74/5 29/217/5 27/218/5
f 62/219/5 64/77/5 27/218/5 26/220/5
f 2/221/5 62/219/5 26/220/5 25/222/5
f 3/214/5 2/221/5 25/222/5 30/215/5
f 62/223/6 2/224/6 36/225/6 34/226/6
f 63/191/6 62/223/6 34/226/6 35/227/6
f 58/189/6 63/191/6 35/227/6 33/228/6
f 56/229/6 58/189/6 33/228/6 32/230/6
f 1/231/6 56/229/6 32/230/6 31/232/6
f 2/224/6 1/231/6 31/232/6 36/225/6
f 113/233/12 114/234/12 90/235/12 89/236/12
f 114/237/23 115/238/23 91/239/23 90/240/23
f 115/238/14 116/241/14 92/242/14 91/239/14
f 116/243/24 113/244/24 89/245/24 92/246/24
f 117/237/13 118/247/13 94/248/13 93/240/13
f 118/249/25 119/250/25 95/251/25 94/252/25
f 119/253/11 120/254/11 96/255/11 95/256/11
f 120/254/26 117/234/26 93/235/26 96/255/26
f 121/257/14 122/258/14 98/259/14 97/260/14
f 122/261/27 123/262/27 99/263/27 98/264/27
f 123/262/12 124/265/12 100/266/12 99/263/12
f 124/267/28 121/268/28 97/269/28 100/270/28
f 125/261/11 126/271/11 110/272/11 109/264/11
f 126/273/29 127/274/29 111/275/29 110/276/29
f 127/277/13 128/278/13 112/279/13 111/280/13
f 128/278/30 125/258/30 109/259/30 112/279/30

o Cube
v -47.925 -23.9625 -47.925
v 47.925 -23.9625 -47.925
v 47.925 -23.9625 47.925
v -47.925 -23.9625 47.925
v -47.925 23.9625 -47.925
v 47.925 23.9625 -47.925
v 47.925 23.9625 47.925
v -47.925 23.9625 47.925
vn 0 1 0
vn -1 0 0
vn 0 0 1
vn 1 0 0
vn 0 0 -1
vn 0 -1 0
vt 0.49375 0.8375
vt 0.49375 0.809167
vt 0.515 0.8375
vt 0.515 0.809167
vt 0.4725 0.809167
vt 0.49375 0.780833
vt 0.4725 0.780833
vt 0.515 0.780833
vt 0.53625 0.809167
vt 0.53625 0.780833
vt 0.5575 0.809167
vt 0.5575 0.780833
vt 0.49375 0.7525
vt 0.515 0.7525
mtllib terranmetropolis3MQ.mtl
usemtl material1
g Default
f 133/281/31 136/282/31 134/283/31
f 135/284/31 134/283/31 136/282/31
f 136/282/32 133/285/32 132/286/32
f 129/287/32 132/286/32 133/285/32
f 135/284/33 136/282/33 131/288/33
f 132/286/33 131/288/33 136/282/33
f 134/289/34 135/284/34 130/290/34
f 131/288/34 130/290/34 135/284/34
f 133/291/35 134/289/35 129/292/35
f 130/290/35 129/292/35 134/289/35
f 129/293/36 130/294/36 132/286/36
f 131/288/36 132/286/36 130/294/36
