# OBJ written from C:\Users\rivalin\Desktop\newbuilding9LQ.obj

o Mesh
v -24.9 0 -26.3
v 24.9 0 -26.3
v 24.9 0 26.3
v -24.9 0 26.3
v -24.9 429.5 -26.3
v 24.9 429.5 -26.3
v 24.9 429.5 26.3
v -24.9 429.5 26.3
v -24.9 214.75 -26.3
v 24.9 214.75 -26.3
v 24.9 214.75 26.3
v -24.9 214.75 26.3
vn 0 -1 0
vn 0 1 0
vn 0 0 -1
vn 1 0 0
vn 0 0 1
vn -1 0 0
vt 0.25 0
vt 0.5 0
vt 0.5 0.333333
vt 0.25 0.333333
vt 0.25 1
vt 0.25 0.666667
vt 0.5 0.666667
vt 0.5 1
vt 1 0.333333
vt 1 0.5
vt 0.75 0.5
vt 0.75 0.333333
vt 1 0.666667
vt 0.75 0.666667
vt 0.5 0.5
vt 0.25 0.5
vt 0 0.5
vt 0 0.333333
vt 0 0.666667
mtllib newbuilding9LQ.mtl
usemtl material1
g Default
f 1/1/1 2/2/1 3/3/1 4/4/1
f 5/5/2 8/6/2 7/7/2 6/8/2
f 1/9/3 9/10/3 10/11/3 2/12/3
f 9/10/3 5/13/3 6/14/3 10/11/3
f 2/12/4 10/11/4 11/15/4 3/3/4
f 10/11/4 6/14/4 7/7/4 11/15/4
f 3/3/5 11/15/5 12/16/5 4/4/5
f 11/15/5 7/7/5 8/6/5 12/16/5
f 4/4/6 12/16/6 9/17/6 1/18/6
f 12/16/6 8/6/6 5/19/6 9/17/6
