# OBJ written from C:\Users\rivalin\Desktop\newbuilding1LQ.obj

o Cube
v -24.2125 -24.2125 -14.2125
v -14.2125 -24.2125 -24.2125
v 14.2125 -24.2125 -24.2125
v 24.2125 -24.2125 -14.2125
v 24.2125 -24.2125 14.2125
v 14.2125 -24.2125 24.2125
v -24.2125 -24.2125 14.2125
v -14.2125 -24.2125 24.2125
v -24.2125 24.2125 -14.2125
v -14.2125 24.2125 -24.2125
v 14.2125 24.2125 -24.2125
v 24.2125 24.2125 -14.2125
v 24.2125 24.2125 14.2125
v 14.2125 24.2125 24.2125
v -14.2125 24.2125 24.2125
v -24.2125 24.2125 14.2125
v -27.3725 34.0125 -17.3725
v -17.3725 34.0125 -27.3725
v 17.3725 34.0125 -27.3725
v 27.3725 34.0125 -17.3725
v 27.3725 34.0125 17.3725
v 17.3725 34.0125 27.3725
v -17.3725 34.0125 27.3725
v -27.3725 34.0125 17.3725
v -26.1125 272.413 -16.1125
v -16.1125 272.413 -26.1125
v 16.1125 272.413 -26.1125
v 26.1125 272.413 -16.1125
v 26.1125 272.413 16.1125
v 16.1125 272.413 26.1125
v -16.1125 272.413 26.1125
v -26.1125 272.413 16.1125
v -24.2125 -21.1725 -11.1725
v -11.1725 -21.1725 -24.2125
v 11.1725 -21.1725 -24.2125
v 24.2125 -21.1725 -11.1725
v 24.2125 -21.1725 11.1725
v 11.1725 -21.1725 24.2125
v -24.2125 -21.1725 11.1725
v -11.1725 -21.1725 24.2125
v -24.2125 21.1725 -11.1725
v -11.1725 21.1725 -24.2125
v 11.1725 21.1725 -24.2125
v 24.2125 21.1725 -11.1725
v 24.2125 21.1725 11.1725
v 11.1725 21.1725 24.2125
v -11.1725 21.1725 24.2125
v -24.2125 21.1725 11.1725
v -43.2125 -21.1725 -11.1725
v -11.1725 -21.1725 -43.2125
v 11.1725 -21.1725 -43.2125
v 43.2125 -21.1725 -11.1725
v 43.2125 -21.1725 11.1725
v 11.1725 -21.1725 43.2125
v -43.2125 -21.1725 11.1725
v -11.1725 -21.1725 43.2125
v -43.2125 7.1725 -11.1725
v -11.1725 7.1725 -43.2125
v 11.1725 7.1725 -43.2125
v 43.2125 7.1725 -11.1725
v 43.2125 7.1725 11.1725
v 11.1725 7.1725 43.2125
v -11.1725 7.1725 43.2125
v -43.2125 7.1725 11.1725
v -64.6125 -21.3325 -11.3325
v -11.3325 -21.3325 -64.6125
v 11.3325 -21.3325 -64.6125
v 64.6125 -21.3325 -11.3325
v 64.6125 -21.3325 11.3325
v 11.3325 -21.3325 64.6125
v -64.6125 -21.3325 11.3325
v -11.3325 -21.3325 64.6125
v -64.6125 7.3325 -11.3325
v -11.3325 7.3325 -64.6125
v 11.3325 7.3325 -64.6125
v 64.6125 7.3325 -11.3325
v 64.6125 7.3325 11.3325
v 11.3325 7.3325 64.6125
v -11.3325 7.3325 64.6125
v -64.6125 7.3325 11.3325
v -82.2125 -21.3325 -11.3325
v -11.3325 -21.3325 -82.2125
v 11.3325 -21.3325 -82.2125
v 82.2125 -21.3325 -11.3325
v 82.2125 -21.3325 11.3325
v 11.3325 -21.3325 82.2125
v -82.2125 -21.3325 11.3325
v -11.3325 -21.3325 82.2125
v -82.2125 7.3325 -11.3325
v -11.3325 7.3325 -82.2125
v 11.3325 7.3325 -82.2125
v 82.2125 7.3325 -11.3325
v 82.2125 7.3325 11.3325
v 11.3325 7.3325 82.2125
v -11.3325 7.3325 82.2125
v -82.2125 7.3325 11.3325
v -106.013 -21.3325 -11.3325
v -11.3325 -21.3325 -106.013
v 11.3325 -21.3325 -106.013
v 106.013 -21.3325 -11.3325
v 106.013 -21.3325 11.3325
v 11.3325 -21.3325 106.013
v -106.013 -21.3325 11.3325
v -11.3325 -21.3325 106.013
v -106.013 -12.6675 -11.3325
v -11.3325 -12.6675 -106.013
v 11.3325 -12.6675 -106.013
v 106.013 -12.6675 -11.3325
v 106.013 -12.6675 11.3325
v 11.3325 -12.6675 106.013
v -11.3325 -12.6675 106.013
v -106.013 -12.6675 11.3325
vn 0 -0.15533 0.987863
vn 0 0 1
vn -0.999988 0 -0.00498431
vn -0.999997 0 -0.00249215
vn -1 0 0
vn 0 0.805056 -0.593199
vn 0 0.911348 -0.411637
vn 0 0.979406 -0.201903
vn -0.999988 0 0.00498431
vn -0.999997 0 0.00249216
vn 0.00498431 -0.999988 0
vn 0.00249215 -0.999997 0
vn 0 -1 0
vn 0 0 -1
vn -0.00249215 -0.999997 0
vn -0.00498431 -0.999988 0
vn -0.690989 -0.212293 0.690989
vn -0.691545 -0.20864 0.691545
vn -0.978737 -0.205118 0
vn -0.994999 -0.0998866 0
vn -0.999986 0.00528516 0
vn 0.987863 -0.15533 0
vn 1 0 0
vn 0 0.805056 0.593199
vn 0 0.911348 0.411637
vn 0 0.979406 0.201903
vn -0.999993 0 0.00373824
vn -0.999993 0 0.00373824
vn 0 -0.999988 0.00498431
vn 0 -0.999997 0.00249215
vn 0.00498431 0 -0.999988
vn 0.00249216 0 -0.999997
vn -0.00249216 0 -0.999997
vn -0.00498431 0 -0.999988
vn -0.00373824 0 -0.999993
vn -0.00373824 0 -0.999993
vn 0.00249215 0 -0.999997
vn -0.700026 -0.141159 -0.700026
vn -0.691545 -0.20864 -0.691545
vn -0.678342 -0.282318 -0.678342
vn 0.978737 -0.205118 0
vn 0.994999 -0.0998866 0
vn 0.999986 0.00528516 0
vn 0.593199 0.805056 0
vn 0.411637 0.911348 0
vn 0.201903 0.979406 0
vn -0.999997 0 -0.00249216
vn 0.999997 0 -0.00249216
vn 0.999988 0 -0.00498431
vn 0.999993 0 -0.00373824
vn 0.999993 0 -0.00373824
vn 0 -0.0998866 -0.994999
vn 0 -0.205118 -0.978737
vn 0 -0.15533 -0.987863
vn 0 -0.205118 0.978737
vn 0 -0.0998866 0.994999
vn 0 0.00528516 0.999986
vn 0.999988 0 0.00498431
vn 0.999997 0 0.00249216
vn 0.00498431 0.999988 0
vn 0.00249215 0.999997 0
vn 0 1 0
vn -0.643343 0.765578 0
vn -0.00249216 0 0.999997
vn -0.00498431 0 0.999988
vn -0.00249215 0 0.999997
vn 0.00249216 0 0.999997
vn 0.00498431 0 0.999988
vn 0.00373824 0 0.999993
vn 0.00373824 0 0.999993
vn 0.707087 0.00747424 0.707087
vn 0.70052 -0.136172 0.70052
vn 0.678827 -0.279978 0.678827
vn -0.707107 0 -0.707107
vn -0.593199 0.805056 0
vn -0.411637 0.911348 0
vn -0.201903 0.979406 0
vn 0 0.999988 -0.00498431
vn 0 0.999997 -0.00249215
vn 0 0.765578 -0.643343
vn 0.999997 0 0.00249215
vn 0 -0.999997 -0.00249215
vn 0 -0.999988 -0.00498431
vn 0.690989 -0.212293 -0.690989
vn 0.691545 -0.20864 -0.691545
vn -0.707087 0.00747424 0.707087
vn 0.707107 0 -0.707107
vn 0 0.765578 0.643343
vn 0 0.999997 0.00249215
vn 0 0.999988 0.00498431
vn -0.707087 0.00747424 -0.707087
vn 0.690989 -0.212293 0.690989
vn 0.707107 0 0.707107
vn -0.00498431 0.999988 0
vn -0.00249215 0.999997 0
vn -0.987863 -0.15533 0
vn 0 0.00528516 -0.999986
vn -0.707107 0 0.707107
vn 0.643343 0.765578 0
vn 0.707087 0.00747424 -0.707087
vt 0.301626 0.666667
vt 0.301626 0.333333
vt 0.448374 0.666667
vt 0.448374 0.333333
vt 0.340237 0.371944
vt 0.340237 0.628056
vt 0.909763 0.628056
vt 0.840237 0.628056
vt 0.90269 0.379017
vt 0.90269 0.620983
vt 0.0973099 0.379017
vt 0.15269 0.379017
vt 0.65269 0.620983
vt 0.65269 0.379017
vt 0.59731 0.379017
vt 0.659763 0.371944
vt 0.590237 0.371944
vt 0.159763 0.371944
vt 0.0902369 0.371944
vt 0.25 0.735502
vt 0.230967 0.715475
vt 0.283587 0.647634
vt 0.230967 0.951191
vt 0.238556 0.943235
vt 0.238556 0.723432
vt 0.551626 0.666667
vt 0.551626 0.333333
vt 0.698374 0.666667
vt 0.698374 0.333333
vt 0.409763 0.628056
vt 0.909763 0.371944
vt 0.84731 0.379017
vt 0.0973099 0.620983
vt 0.659763 0.628056
vt 0.0902369 0.628056
vt 0.25 0.931165
vt 0.301626 1
vt 0.283587 1.01903
vt 0.519033 0.715475
vt 0.519033 0.951191
vt 0.511444 0.723432
vt 0.511444 0.943235
vt 0.301626 0
vt 0.448374 0
vt 0.25 0.068835
vt 0.25 0.264498
vt 0.5 0.068835
vt 0.5 0.264498
vt 0.590237 0.628056
vt 0.34731 0.620983
vt 0.34731 0.379017
vt 0.40269 0.379017
vt 0.84731 0.620983
vt 0.15269 0.620983
vt 0.40269 0.620983
vt 0.409763 0.371944
vt 0.466413 1.01903
vt 0.448374 1
vt 0.466413 0.647634
vt 0.290808 0.655223
vt 0.459192 0.655223
vt 0.801626 0.666667
vt 0.801626 0.333333
vt 0.948374 0.666667
vt 0.948374 0.333333
vt 0.840237 0.371944
vt 0.59731 0.620983
vt 0.159763 0.628056
vt 0.290808 1.01144
vt 0.459192 1.01144
vt 1.05163 0.333333
vt 1.05163 0.666667
vt 0.5 0.931165
vt 0.5 0.735502
vt 0.198374 0.666667
vt 0.198374 0.333333
vt 0.0516262 0.666667
vt 0.0516262 0.333333
mtllib newbuilding1LQ.mtl
usemtl Default
g Default
f 15/1/1 8/2/2 14/3/1
f 6/4/2 14/3/1 8/2/2
f 56/5/3 63/6/4 40/5/5
f 47/6/5 40/5/5 63/6/4
f 42/7/6 43/8/6 58/7/7
f 59/8/8 58/7/7 43/8/6
f 66/9/9 74/10/10 82/9/5
f 90/10/5 82/9/5 74/10/10
f 65/11/11 71/12/12 81/11/13
f 87/12/13 81/11/13 71/12/12
f 92/13/14 108/13/14 84/14/14
f 100/14/14 84/14/14 108/13/14
f 81/11/13 87/12/13 97/11/13
f 103/12/13 97/11/13 87/12/13
f 68/14/15 69/15/16 52/16/16
f 53/17/15 52/16/16 69/15/16
f 71/12/12 65/11/11 55/18/11
f 49/19/12 55/18/11 65/11/11
f 16/20/17 15/1/17 24/21/18
f 23/22/18 24/21/18 15/1/17
f 17/23/19 24/21/20 25/24/21
f 32/25/21 25/24/21 24/21/20
f 13/26/22 5/27/23 12/28/22
f 4/29/23 12/28/22 5/27/23
f 46/30/24 47/6/24 62/30/25
f 63/6/26 62/30/25 47/6/24
f 50/31/27 34/31/5 58/7/28
f 42/7/5 58/7/28 34/31/5
f 67/32/29 66/9/30 83/32/13
f 82/9/13 83/32/13 66/9/30
f 73/33/31 65/11/32 89/33/14
f 81/11/14 89/33/14 65/11/32
f 85/15/13 84/14/13 101/15/13
f 100/14/13 101/15/13 84/14/13
f 89/33/14 81/11/14 105/33/14
f 97/11/14 105/33/14 81/11/14
f 76/13/33 68/14/34 60/34/35
f 52/16/36 60/34/35 68/14/34
f 65/11/32 73/33/31 49/19/31
f 57/35/37 49/19/31 73/33/31
f 9/36/38 17/23/39 10/37/40
f 18/38/39 10/37/40 17/23/39
f 21/39/41 20/40/42 29/41/43
f 28/42/43 29/41/43 20/40/42
f 2/43/13 3/44/13 1/45/13
f 7/46/13 1/45/13 3/44/13
f 3/44/13 4/47/13 7/46/13
f 8/2/13 7/46/13 4/47/13
f 4/47/13 5/48/13 8/2/13
f 6/4/13 8/2/13 5/48/13
f 49/19/31 57/35/37 33/19/14
f 41/35/14 33/19/14 57/35/37
f 44/34/44 45/49/44 60/34/45
f 61/49/46 60/34/45 45/49/44
f 79/50/3 72/51/47 95/50/5
f 88/51/5 95/50/5 72/51/47
f 68/14/34 76/13/33 84/14/14
f 92/13/14 84/14/14 76/13/33
f 88/51/13 86/52/13 104/51/13
f 102/52/13 104/51/13 86/52/13
f 91/53/23 83/32/23 107/53/23
f 99/32/23 107/53/23 83/32/23
f 105/33/5 97/11/5 112/54/5
f 103/12/5 112/54/5 97/11/5
f 74/10/10 66/9/9 58/7/28
f 50/31/27 58/7/28 66/9/9
f 78/55/48 70/52/49 62/30/50
f 54/56/51 62/30/50 70/52/49
f 18/38/52 19/57/53 10/37/54
f 11/58/54 10/37/54 19/57/53
f 23/22/55 22/59/56 31/60/57
f 30/61/57 31/60/57 22/59/56
f 11/62/54 3/63/14 10/64/54
f 2/65/14 10/64/54 3/63/14
f 54/56/51 38/56/23 62/30/50
f 46/30/23 62/30/50 38/56/23
f 35/66/13 34/31/13 51/66/30
f 50/31/29 51/66/30 34/31/13
f 75/53/58 67/32/59 91/53/23
f 83/32/23 91/53/23 67/32/59
f 80/54/60 73/33/61 96/54/62
f 89/33/62 96/54/62 73/33/61
f 93/67/2 85/15/2 109/67/2
f 101/15/2 109/67/2 85/15/2
f 96/54/63 89/33/63 112/54/63
f 105/33/63 112/54/63 89/33/63
f 69/15/64 77/67/65 53/17/65
f 61/49/66 53/17/65 77/67/65
f 80/54/67 71/12/68 64/68/69
f 55/18/70 64/68/69 71/12/68
f 22/59/56 23/22/55 14/3/1
f 15/1/1 14/3/1 23/22/55
f 31/60/62 30/61/62 32/25/62
f 25/24/62 32/25/62 30/61/62
f 30/61/62 29/41/62 25/24/62
f 26/69/62 25/24/62 29/41/62
f 29/41/62 28/42/62 26/69/62
f 27/70/62 26/69/62 28/42/62
f 29/41/71 30/61/71 21/39/72
f 22/59/73 21/39/72 30/61/71
f 1/71/74 9/72/38 2/65/74
f 10/64/40 2/65/74 9/72/38
f 48/68/75 41/35/75 64/68/76
f 57/35/77 64/68/76 41/35/75
f 52/16/36 36/16/14 60/34/35
f 44/34/14 60/34/35 36/16/14
f 78/55/78 79/50/79 94/55/62
f 95/50/62 94/55/62 79/50/79
f 69/15/16 68/14/15 85/15/13
f 84/14/13 85/15/13 68/14/15
f 95/50/5 88/51/5 111/50/5
f 104/51/5 111/50/5 88/51/5
f 90/10/80 91/53/80 106/10/80
f 107/53/80 106/10/80 91/53/80
f 111/50/2 104/51/2 110/55/2
f 102/52/2 110/55/2 104/51/2
f 67/32/59 75/53/58 51/66/58
f 59/8/81 51/66/58 75/53/58
f 70/52/82 72/51/83 54/56/83
f 56/5/82 54/56/83 72/51/83
f 12/73/84 11/58/84 20/40/85
f 19/57/85 20/40/85 11/58/84
f 32/25/86 24/21/18 31/60/86
f 23/22/18 31/60/86 24/21/18
f 12/28/84 4/29/87 11/62/84
f 3/63/87 11/62/84 4/29/87
f 55/18/70 39/18/2 64/68/69
f 48/68/2 64/68/69 39/18/2
f 37/17/13 36/16/13 53/17/15
f 52/16/16 53/17/15 36/16/13
f 70/52/49 78/55/48 86/52/23
f 94/55/23 86/52/23 78/55/48
f 77/67/65 69/15/64 93/67/2
f 85/15/2 93/67/2 69/15/64
f 94/55/88 95/50/88 110/55/88
f 111/50/88 110/55/88 95/50/88
f 90/10/5 106/10/5 82/9/5
f 98/9/5 82/9/5 106/10/5
f 109/67/23 101/15/23 108/13/23
f 100/14/23 108/13/23 101/15/23
f 75/53/89 74/10/90 59/8/8
f 58/7/7 59/8/8 74/10/90
f 79/50/79 78/55/78 63/6/26
f 62/30/25 63/6/26 78/55/78
f 20/40/42 21/39/41 12/73/22
f 13/74/22 12/73/22 21/39/41
f 25/24/91 26/69/91 17/23/39
f 18/38/39 17/23/39 26/69/91
f 14/3/92 6/4/93 13/26/92
f 5/27/93 13/26/92 6/4/93
f 33/19/13 39/18/13 49/19/12
f 55/18/11 49/19/12 39/18/13
f 53/17/65 61/49/66 37/17/2
f 45/49/2 37/17/2 61/49/66
f 72/51/83 70/52/82 88/51/13
f 86/52/13 88/51/13 70/52/82
f 76/13/94 77/67/95 92/13/62
f 93/67/62 92/13/62 77/67/95
f 94/55/23 110/55/23 86/52/23
f 102/52/23 86/52/23 110/55/23
f 83/32/13 82/9/13 99/32/13
f 98/9/13 99/32/13 82/9/13
f 107/53/14 99/32/14 106/10/14
f 98/9/14 106/10/14 99/32/14
f 66/9/30 67/32/29 50/31/29
f 51/66/30 50/31/29 67/32/29
f 72/51/47 79/50/3 56/5/3
f 63/6/4 56/5/3 79/50/3
f 24/21/20 17/23/19 16/20/96
f 9/36/96 16/20/96 17/23/19
f 19/57/53 18/38/52 27/70/97
f 26/69/97 27/70/97 18/38/52
f 16/75/17 7/76/98 15/1/17
f 8/2/98 15/1/17 7/76/98
f 9/77/96 1/78/5 16/75/96
f 7/76/5 16/75/96 1/78/5
f 40/5/13 38/56/13 56/5/82
f 54/56/83 56/5/82 38/56/13
f 51/66/58 59/8/81 35/66/23
f 43/8/23 35/66/23 59/8/81
f 74/10/90 75/53/89 90/10/62
f 91/53/62 90/10/62 75/53/89
f 71/12/68 80/54/67 87/12/2
f 96/54/2 87/12/2 80/54/67
f 92/13/99 93/67/99 108/13/99
f 109/67/99 108/13/99 93/67/99
f 96/54/2 112/54/2 87/12/2
f 103/12/2 87/12/2 112/54/2
f 77/67/95 76/13/94 61/49/46
f 60/34/45 61/49/46 76/13/94
f 73/33/61 80/54/60 57/35/77
f 64/68/76 57/35/77 80/54/60
f 21/39/72 22/59/73 13/74/92
f 14/3/92 13/74/92 22/59/73
f 28/42/100 20/40/85 27/70/100
f 19/57/85 27/70/100 20/40/85
