# Blender v2.59 (sub 0) OBJ File: 'lrc.blend'
# www.blender.org
o lrc_collision_lrc_default
v -3.905226 -15.707641 -1.593459
v -3.905226 -15.707641 3.641448
v 4.886661 -15.707641 3.641448
v -3.905226 12.794194 -1.593459
v -3.905226 24.802967 -1.593459
v 4.886661 24.802967 -1.593459
v 4.886661 12.794194 3.641448
v 4.886661 -3.698868 -1.593459
v 4.886661 -15.707641 -1.593459
v 4.886661 12.794194 -1.593459
v -3.905226 24.802967 3.641448
v -3.905226 -3.698868 -1.593459
v 4.886661 24.802967 3.641448
v -3.905226 12.794194 3.641448
v 4.886661 -3.698868 3.641448
v -3.905226 -3.698868 3.641448
v -1.476377 30.674345 1.430784
v 2.457813 30.674345 1.430784
v -1.476377 30.674345 0.617204
v 2.457813 30.674345 0.617204
v -5.026298 -16.828709 3.302165
v -5.026298 -2.577795 3.302165
v -5.026298 -16.828709 -1.254176
v -4.789985 -16.641930 3.065853
v -1.348287 -16.828709 3.302165
v -1.584600 -16.641930 -1.017864
v -4.789985 -16.641930 -1.017864
v 6.007732 -16.828709 -1.254176
v 6.007732 -2.577795 -1.254176
v 6.007732 -16.828709 3.302165
v 5.771421 -16.641930 -1.017864
v 2.329723 -16.828709 -1.254176
v 2.566035 -16.641930 3.065853
v 5.771421 -16.641930 3.065853
v -5.026298 25.924038 3.302165
v -5.026298 11.673121 -1.254176
v -5.026298 11.673121 3.302165
v 6.007732 25.924038 3.302165
v -1.659363 6.922816 2.336221
v -1.659363 2.172510 -0.288232
v -1.659363 2.172510 2.336221
v 6.007732 11.673121 3.302165
v 2.640798 6.922816 2.336221
v -5.026298 -2.577795 -1.254176
v 2.640798 2.172510 2.336221
v 6.007732 -2.577795 3.302165
v -5.026298 25.924038 -1.254176
v 2.640798 6.922816 -0.288232
v -1.659363 6.922816 -0.288232
v 6.007732 25.924038 -1.254176
v 6.007732 11.673121 -1.254176
v 2.640798 2.172510 -0.288232
v 2.093410 -16.641930 3.065853
v 2.329723 -16.828709 3.302165
v -1.111975 -16.641930 3.065853
v -1.348287 -16.828709 -1.254176
v -1.111975 -16.641930 -1.017864
v 2.093410 -16.641930 -1.017864
v 2.566035 -16.641930 -1.017864
v -1.584600 -16.641930 3.065853
v -1.380310 27.111618 -0.568880
v -1.369636 26.715755 -0.942279
v -1.412332 28.299194 -0.318486
v 2.393767 28.299194 -0.318486
v 2.351071 26.715755 -0.942279
v 2.361745 27.111618 -0.568880
v 3.274971 -14.624836 2.356916
v 3.274971 -14.624836 -0.308927
v 5.062484 -14.624836 2.356916
v 5.062484 -14.624836 -0.308927
v -0.403039 -14.624836 -0.308927
v 1.384474 -14.624836 -0.308927
v -0.403039 -14.624836 2.356916
v 1.384474 -14.624836 2.356916
v -2.293536 -14.624836 -0.308927
v -2.293536 -14.624836 2.356916
v -4.081049 -14.624836 -0.308927
v -4.081049 -14.624836 2.356916
vn 0.999637 0.026955 -0.000000
vn -0.999637 0.026955 -0.000000
vn -0.943427 -0.331581 0.000000
vn 0.943427 -0.331581 0.000000
vn 0.000000 -0.331581 0.943427
vn 0.000000 -0.331581 -0.943427
vn 0.000000 0.366533 -0.930405
vn 0.000000 -0.784533 -0.620087
vn 0.620087 -0.784533 0.000000
vn -0.000000 -1.000000 0.000000
vn 0.000000 0.686165 -0.727445
vn 0.000000 0.206309 -0.978487
vn -1.000000 0.000000 0.000000
vn 0.620088 -0.784532 0.000000
vn -0.620089 -0.784532 0.000000
vn 0.801036 0.598617 0.000000
vn -0.815851 0.578261 0.000000
vn 1.000000 0.000000 0.000000
vn 0.000000 -0.784533 0.620088
vn 0.000000 0.366532 -0.930405
vn 0.000000 0.000000 -1.000000
vn 0.000000 -0.000000 1.000000
vn -0.801036 0.598617 0.000000
vn -0.815851 -0.578261 0.000000
vn -0.620088 -0.784533 0.000000
vn 0.620086 -0.784534 0.000000
vn 0.815852 0.578261 0.000000
vn 0.000000 0.366533 0.930405
vn -0.620086 -0.784534 0.000000
vn 0.815852 -0.578261 0.000000
vn 0.000000 1.000000 -0.000000
vn 0.000000 0.199266 -0.979945
vn 0.000000 -0.199266 -0.979945
vn 0.000000 -0.289667 -0.957128
vn 0.000000 -0.289668 -0.957127
vn 0.000000 -0.289668 0.957127
vn 0.000000 0.199266 0.979945
vn 0.000000 -0.199266 0.979945
vn 0.289667 0.000000 -0.957128
vn 0.000000 0.289667 -0.957127
vn -0.289667 0.000000 -0.957128
vn 0.000000 0.289667 -0.957128
vn 0.000000 0.289666 0.957128
vn 0.289667 0.000000 0.957128
vn -0.289666 0.000000 0.957128
vn 0.000000 0.289667 0.957128
vn 0.000000 -0.289666 0.957128
usemtl default.001
s off
f 61//1 62//1 63//1
f 64//2 65//2 66//2
f 70//3 31//3 34//3
f 70//3 34//3 69//3
f 78//4 24//4 27//4
f 78//4 27//4 77//4
f 70//5 68//5 59//5
f 70//5 59//5 31//5
f 78//6 76//6 60//6
f 78//6 60//6 24//6
f 63//7 19//7 20//7
f 63//7 20//7 64//7
f 54//8 25//8 55//8
f 54//8 55//8 53//8
f 55//9 25//9 56//9
f 55//9 56//9 57//9
f 78//10 77//10 75//10
f 78//10 75//10 76//10
f 62//11 61//11 66//11
f 62//11 66//11 65//11
f 63//12 64//12 66//12
f 63//12 66//12 61//12
f 37//13 35//13 47//13
f 37//13 47//13 36//13
f 54//14 32//14 59//14
f 54//14 59//14 33//14
f 28//15 30//15 34//15
f 28//15 34//15 31//15
f 20//16 18//16 38//16
f 20//16 38//16 50//16
f 41//17 40//17 44//17
f 41//17 44//17 22//17
f 28//18 29//18 46//18
f 28//18 46//18 30//18
f 74//3 72//3 58//3
f 74//3 58//3 53//3
f 74//6 53//6 55//6
f 74//6 55//6 73//6
f 34//8 30//8 54//8
f 34//8 54//8 33//8
f 28//19 31//19 59//19
f 28//19 59//19 32//19
f 20//20 50//20 65//20
f 20//20 65//20 64//20
f 19//20 63//20 62//20
f 19//20 62//20 47//20
f 49//21 48//21 52//21
f 49//21 52//21 40//21
f 71//4 73//4 55//4
f 71//4 55//4 57//4
f 43//22 39//22 41//22
f 43//22 41//22 45//22
f 71//5 57//5 58//5
f 71//5 58//5 72//5
f 17//23 19//23 47//23
f 17//23 47//23 35//23
f 37//24 36//24 49//24
f 37//24 49//24 39//24
f 56//25 25//25 60//25
f 56//25 60//25 26//25
f 21//8 24//8 60//8
f 21//8 60//8 25//8
f 21//26 23//26 27//26
f 21//26 27//26 24//26
f 52//27 45//27 46//27
f 52//27 46//27 29//27
f 17//28 35//28 38//28
f 17//28 38//28 18//28
f 21//13 22//13 44//13
f 21//13 44//13 23//13
f 41//13 39//13 49//13
f 41//13 49//13 40//13
f 27//19 23//19 56//19
f 27//19 56//19 26//19
f 54//29 53//29 58//29
f 54//29 58//29 32//29
f 56//19 32//19 58//19
f 56//19 58//19 57//19
f 74//10 73//10 71//10
f 74//10 71//10 72//10
f 51//30 42//30 43//30
f 51//30 43//30 48//30
f 17//31 18//31 20//31
f 17//31 20//31 19//31
f 52//18 48//18 43//18
f 52//18 43//18 45//18
f 51//18 50//18 38//18
f 51//18 38//18 42//18
f 75//5 77//5 27//5
f 75//5 27//5 26//5
f 67//4 33//4 59//4
f 67//4 59//4 68//4
f 75//3 26//3 60//3
f 75//3 60//3 76//3
f 67//6 69//6 34//6
f 67//6 34//6 33//6
f 40//32 52//32 29//32
f 40//32 29//32 44//32
f 36//33 51//33 48//33
f 36//33 48//33 49//33
f 4//34 10//34 51//34
f 4//34 51//34 36//34
f 1//35 9//35 28//35
f 1//35 28//35 23//35
f 2//36 21//36 30//36
f 2//36 30//36 3//36
f 22//37 46//37 45//37
f 22//37 45//37 41//37
f 39//38 43//38 42//38
f 39//38 42//38 37//38
f 6//39 50//39 51//39
f 6//39 51//39 10//39
f 62//7 65//7 50//7
f 62//7 50//7 47//7
f 5//40 47//40 50//40
f 5//40 50//40 6//40
f 4//41 36//41 47//41
f 4//41 47//41 5//41
f 8//42 12//42 44//42
f 8//42 44//42 29//42
f 1//41 23//41 44//41
f 1//41 44//41 12//41
f 8//39 29//39 28//39
f 8//39 28//39 9//39
f 15//43 46//43 22//43
f 15//43 22//43 16//43
f 3//44 30//44 46//44
f 3//44 46//44 15//44
f 2//45 16//45 22//45
f 2//45 22//45 21//45
f 11//45 35//45 37//45
f 11//45 37//45 14//45
f 11//46 13//46 38//46
f 11//46 38//46 35//46
f 7//44 42//44 38//44
f 7//44 38//44 13//44
f 7//47 14//47 37//47
f 7//47 37//47 42//47
f 1//21 12//21 8//21
f 1//21 8//21 9//21
f 4//21 5//21 6//21
f 4//21 6//21 10//21
f 2//22 3//22 15//22
f 2//22 15//22 16//22
f 11//22 14//22 7//22
f 11//22 7//22 13//22
f 70//10 69//10 67//10
f 70//10 67//10 68//10
