# Blender v2.59 (sub 0) OBJ File: 'lrc.blend'
# www.blender.org
o lrc_engine_lrc_default.002
v 3.274971 -14.624836 2.356916
v 3.274971 -14.624836 -0.308927
v 5.062484 -14.624836 2.356916
v 5.062484 -14.624836 -0.308927
v -0.403039 -14.624836 -0.308927
v 1.384474 -14.624836 -0.308927
v -0.403039 -14.624836 2.356916
v 1.384474 -14.624836 2.356916
v -2.293536 -14.624836 -0.308927
v -2.293536 -14.624836 2.356916
v -4.081049 -14.624836 -0.308927
v -4.081049 -14.624836 2.356916
vt 0.804688 0.781250
vt 0.804688 0.726562
vt 0.765625 0.726562
vt 0.765625 0.781250
vn -0.000000 -1.000000 0.000000
usemtl default.001
s off
f 12/1/1 11/2/1 9/3/1
f 12/1/1 9/3/1 10/4/1
f 8/2/1 7/3/1 5/4/1
f 8/2/1 5/4/1 6/1/1
f 1/3/1 2/4/1 4/1/1
f 1/3/1 4/1/1 3/2/1
