o sd_body_2
v 0.000001 -4.521705 8.009684
v 0.000001 6.923265 9.238788
v 0.000002 2.940143 9.190930
v 1.562613 -4.521705 7.855787
v 1.793063 2.940143 9.014338
v 3.535533 6.923265 8.535534
v 3.065176 -4.521705 7.399990
v 5.106212 2.940143 7.641985
v 6.532814 6.923265 6.532815
v 5.663706 -4.521705 5.663706
v 6.659814 -4.521706 4.449945
v 8.535533 6.923265 3.535533
v 7.855785 -4.521706 1.562613
v 8.535533 6.923265 -3.535534
v 6.659813 -4.521706 -4.449944
v 7.641984 2.940142 -5.106211
v 5.663705 -4.521706 -5.663705
v 4.449944 -4.521706 -6.659813
v 3.535533 6.923265 -8.535532
v 3.065174 -4.521706 -7.399986
v 1.562612 -4.521706 -7.855783
v -0.000000 6.923265 -9.238792
v -0.000001 2.940142 -9.190934
v -1.793063 2.940142 -9.014333
v -3.065175 -4.521706 -7.399985
v -8.535531 6.923265 -3.535532
v -7.855782 -4.521706 -1.562611
v -9.014332 2.940142 -1.793061
v -8.009686 -4.521706 0.000001
v -7.855781 -4.521706 1.562613
v -4.449942 -4.521705 6.659810
v -3.535531 6.923265 8.535528
v -3.517216 2.940143 8.491315
v -3.065172 -4.521705 7.399984
v -1.562611 -4.521705 7.855780
v -1.793060 2.940143 9.014330
v 5.132799 6.923265 7.681777
v 9.061274 6.923265 -1.802400
v 7.681777 6.923265 -5.132799
v -1.802399 6.923265 -9.061272
v -7.681775 6.923265 -5.132798
v -7.681773 6.923265 5.132797
v -5.106207 2.940143 7.641981
v -5.132796 6.923265 7.681773
v -6.498970 2.940143 6.498971
v -5.663702 -4.521705 5.663703
v -7.641979 2.940143 5.106209
v -8.491314 2.940143 3.517219
v -7.399983 -4.521706 3.065175
v -9.014331 2.940142 1.793063
v -9.061270 6.923265 1.802399
v -9.190932 2.940142 0.000001
v -9.061271 6.923265 -1.802399
v -8.491315 2.940142 -3.517217
v -7.399985 -4.521706 -3.065174
v -7.641982 2.940142 -5.106208
v -6.498971 2.940142 -6.498971
v -5.663704 -4.521706 -5.663703
v -5.106210 2.940142 -7.641983
v -5.132798 6.923265 -7.681775
v -3.517219 2.940142 -8.491315
v -0.000001 -4.521706 -8.009687
v 1.793062 2.940142 -9.014334
v 1.802399 6.923265 -9.061272
v 3.517218 2.940142 -8.491317
v 5.106210 2.940142 -7.641984
v 5.132799 6.923265 -7.681777
v 6.498973 2.940142 -6.498973
v 8.491317 2.940142 -3.517219
v 7.399988 -4.521706 -3.065175
v 9.014335 2.940142 -1.793063
v 9.190936 2.940142 -0.000000
v 8.009690 -4.521706 -0.000000
v 9.014336 2.940142 1.793063
v 9.061274 6.923265 1.802399
v 8.491319 2.940143 3.517219
v 7.399989 -4.521706 3.065176
v 7.641986 2.940143 5.106211
v 7.681777 6.923265 5.132799
v 6.498974 2.940143 6.498974
v 4.449945 -4.521705 6.659815
v 9.238794 6.923265 -0.000000
v 7.855785 -4.521706 -1.562613
v 6.532814 6.923265 -6.532814
v -1.562613 -4.521706 -7.855783
v -3.535533 6.923265 -8.535531
v -4.449944 -4.521706 -6.659811
v -6.532813 6.923265 -6.532813
v -6.659811 -4.521706 -4.449943
v -9.238791 6.923265 0.000000
v -8.535529 6.923265 3.535532
v -6.659809 -4.521706 4.449944
v -6.532811 6.923265 6.532811
v -1.802397 6.923265 9.061268
v 0.000001 6.923265 9.238788
v 1.802399 6.923265 9.061275
v 3.517220 2.940143 8.491320
v 0.000001 -4.521705 8.009684
v 0.000002 2.940143 9.190930
vt 0.000000 0.656250
vt 0.000000 0.000000
vt 0.246094 0.000000
vt 0.246094 0.656250
vt 0.000000 1.000000
vt 0.246094 1.000000
vt 0.500000 0.656250
vt 0.500000 1.000000
vt 0.500000 0.000000
vt 0.753906 0.000000
vt 0.753906 0.656250
vt 0.753906 1.000000
vt 1.000000 0.656250
vt 1.000000 1.000000
vt 1.000000 0.000000
vt 0.496094 0.656250
vt 0.496094 1.000000
vt 0.250000 1.000000
vt 0.250000 0.656250
vt 0.496094 0.000000
vt 0.250000 0.000000
vt 0.746094 1.000000
vt 0.746094 0.656250
vt 0.746094 0.000000
vt -0.007813 0.656250
vt -0.007813 1.000000
vt -0.007813 0.000000
vn 0.097659 -0.083987 0.991638
vn 0.096805 -0.155614 0.983032
vn 0.192663 -0.156346 0.968719
vn 0.194372 -0.084140 0.977294
vn 0.097995 -0.011933 0.995086
vn 0.195044 -0.011994 0.980712
vn 0.381298 -0.084140 0.920591
vn 0.382641 -0.011994 0.923795
vn 0.377972 -0.156346 0.912503
vn 0.548723 -0.156346 0.821223
vn 0.553575 -0.084140 0.828516
vn 0.555528 -0.011994 0.831385
vn 0.704581 -0.084140 0.704581
vn 0.707053 -0.011994 0.707053
vn 0.698386 -0.156346 0.698386
vn 0.821223 -0.156346 0.548723
vn 0.828516 -0.084140 0.553575
vn 0.831385 -0.011994 0.555528
vn 0.920591 -0.084140 0.381298
vn 0.923795 -0.011994 0.382641
vn 0.912503 -0.156346 0.377972
vn 0.968719 -0.156346 0.192663
vn 0.977294 -0.084140 0.194372
vn 0.980712 -0.011994 0.195074
vn 0.996429 -0.084140 0.000000
vn 0.999908 -0.011994 0.000000
vn 0.987671 -0.156346 0.000000
vn 0.968719 -0.156346 -0.192663
vn 0.977294 -0.084140 -0.194372
vn 0.980712 -0.011994 -0.195074
vn 0.920591 -0.084140 -0.381298
vn 0.923795 -0.011994 -0.382641
vn 0.912503 -0.156346 -0.377972
vn 0.821223 -0.156346 -0.548723
vn 0.828516 -0.084140 -0.553575
vn 0.831385 -0.011994 -0.555528
vn 0.704581 -0.084140 -0.704581
vn 0.707053 -0.011994 -0.707053
vn 0.698386 -0.156346 -0.698386
vn 0.548723 -0.156346 -0.821223
vn 0.553575 -0.084140 -0.828516
vn 0.555528 -0.011994 -0.831385
vn 0.381298 -0.084140 -0.920591
vn 0.382641 -0.011994 -0.923795
vn 0.377972 -0.156346 -0.912503
vn 0.192663 -0.156346 -0.968719
vn 0.194372 -0.084140 -0.977294
vn 0.195074 -0.011994 -0.980712
vn 0.000000 -0.084140 -0.996429
vn 0.000000 -0.011994 -0.999908
vn 0.000000 -0.156346 -0.987671
vn -0.192663 -0.156346 -0.968719
vn -0.194372 -0.084140 -0.977294
vn -0.195074 -0.011994 -0.980712
vn -0.381298 -0.084140 -0.920591
vn -0.382641 -0.011994 -0.923795
vn -0.377972 -0.156346 -0.912503
vn -0.548723 -0.156346 -0.821223
vn -0.553575 -0.084140 -0.828516
vn -0.555528 -0.011994 -0.831385
vn -0.704581 -0.084140 -0.704581
vn -0.707053 -0.011994 -0.707053
vn -0.698386 -0.156346 -0.698386
vn -0.821223 -0.156346 -0.548723
vn -0.828516 -0.084140 -0.553575
vn -0.831385 -0.011994 -0.555528
vn -0.920591 -0.084140 -0.381298
vn -0.923795 -0.011994 -0.382641
vn -0.912503 -0.156346 -0.377972
vn -0.968719 -0.156346 -0.192663
vn -0.977294 -0.084140 -0.194372
vn -0.980712 -0.011994 -0.195074
vn -0.996429 -0.084140 0.000000
vn -0.999908 -0.011994 0.000000
vn -0.987671 -0.156346 0.000000
vn -0.968719 -0.156346 0.192663
vn -0.977294 -0.084140 0.194372
vn -0.980712 -0.011994 0.195074
vn -0.920591 -0.084140 0.381298
vn -0.923795 -0.011994 0.382641
vn -0.912503 -0.156346 0.377972
vn -0.821223 -0.156346 0.548723
vn -0.828516 -0.084140 0.553575
vn -0.831385 -0.011994 0.555528
vn -0.704581 -0.084140 0.704581
vn -0.707053 -0.011994 0.707053
vn -0.698386 -0.156346 0.698386
vn -0.548723 -0.156346 0.821223
vn -0.553575 -0.084140 0.828516
vn -0.555528 -0.011994 0.831385
vn -0.381298 -0.084140 0.920591
vn -0.382641 -0.011994 0.923795
vn -0.377972 -0.156346 0.912503
vn -0.192663 -0.156346 0.968719
vn -0.194372 -0.084140 0.977294
vn -0.195074 -0.011994 0.980712
vn -0.097659 -0.083987 0.991638
vn -0.097995 -0.011933 0.995086
vn -0.096805 -0.155614 0.983032
s 1
f 3/1/1 1/2/2 4/3/3 5/4/4
f 2/5/5 3/1/1 5/4/4 96/6/6
f 97/7/7 6/8/8 96/6/6 5/4/4
f 7/9/9 97/7/7 5/4/4 4/3/3
f 81/10/10 8/11/11 97/7/7 7/9/9
f 8/11/11 37/12/12 6/8/8 97/7/7
f 80/13/13 9/14/14 37/12/12 8/11/11
f 10/15/15 80/13/13 8/11/11 81/10/10
f 11/3/16 78/4/17 80/1/13 10/2/15
f 78/4/17 79/6/18 9/5/14 80/1/13
f 76/16/19 12/17/20 79/18/18 78/19/17
f 77/20/21 76/16/19 78/19/17 11/21/16
f 13/3/22 74/4/23 76/7/19 77/9/21
f 74/4/23 75/6/24 12/8/20 76/7/19
f 72/13/25 82/14/26 75/22/24 74/23/23
f 73/15/27 72/13/25 74/23/23 13/24/22
f 83/10/28 71/11/29 72/13/25 73/15/27
f 71/11/29 38/12/30 82/14/26 72/13/25
f 69/7/31 14/8/32 38/22/30 71/23/29
f 70/9/33 69/7/31 71/23/29 83/24/28
f 15/10/34 16/11/35 69/7/31 70/9/33
f 16/11/35 39/12/36 14/8/32 69/7/31
f 68/25/37 84/26/38 39/6/36 16/4/35
f 17/27/39 68/25/37 16/4/35 15/3/34
f 18/3/40 66/4/41 68/1/37 17/2/39
f 66/4/41 67/6/42 84/5/38 68/1/37
f 65/7/43 19/8/44 67/6/42 66/4/41
f 20/9/45 65/7/43 66/4/41 18/3/40
f 21/10/46 63/11/47 65/7/43 20/9/45
f 63/11/47 64/12/48 19/8/44 65/7/43
f 23/13/49 22/14/50 64/12/48 63/11/47
f 62/15/51 23/13/49 63/11/47 21/10/46
f 85/10/52 24/11/53 23/13/49 62/15/51
f 24/11/53 40/12/54 22/14/50 23/13/49
f 61/7/55 86/8/56 40/12/54 24/11/53
f 25/9/57 61/7/55 24/11/53 85/10/52
f 87/3/58 59/4/59 61/7/55 25/9/57
f 59/4/59 60/6/60 86/8/56 61/7/55
f 57/1/61 88/5/62 60/6/60 59/4/59
f 58/2/63 57/1/61 59/4/59 87/3/58
f 89/3/64 56/4/65 57/1/61 58/2/63
f 56/4/65 41/6/66 88/5/62 57/1/61
f 54/16/67 26/17/68 41/18/66 56/19/65
f 55/20/69 54/16/67 56/19/65 89/21/64
f 27/10/70 28/11/71 54/7/67 55/9/69
f 28/11/71 53/12/72 26/8/68 54/7/67
f 52/13/73 90/14/74 53/22/72 28/23/71
f 29/15/75 52/13/73 28/23/71 27/24/70
f 30/10/76 50/11/77 52/13/73 29/15/75
f 50/11/77 51/12/78 90/14/74 52/13/73
f 48/7/79 91/8/80 51/22/78 50/23/77
f 49/9/81 48/7/79 50/23/77 30/24/76
f 92/21/82 47/19/83 48/16/79 49/20/81
f 47/19/83 42/18/84 91/17/80 48/16/79
f 45/1/85 93/5/86 42/6/84 47/4/83
f 46/2/87 45/1/85 47/4/83 92/3/82
f 31/3/88 43/4/89 45/1/85 46/2/87
f 43/4/89 44/6/90 93/5/86 45/1/85
f 33/7/91 32/8/92 44/6/90 43/4/89
f 34/9/93 33/7/91 43/4/89 31/3/88
f 35/10/94 36/11/95 33/7/91 34/9/93
f 36/11/95 94/12/96 32/8/92 33/7/91
f 99/13/97 95/14/98 94/12/96 36/11/95
f 98/15/99 99/13/97 36/11/95 35/10/94
