o black
v 4.500000 -1.442816 15.559730
v 1.700000 -3.972649 11.559858
v -1.700000 -3.972649 11.559858
v -4.500000 -1.442816 15.559730
v -4.500000 -1.020244 15.292461
v -4.500000 -1.020244 15.292461
v -1.700000 -3.550077 11.292590
v -1.700000 -3.550077 11.292590
v 1.700000 -3.550077 11.292590
v 1.700000 -3.550077 11.292590
v 4.500000 -1.020244 15.292461
v 4.500000 -1.020244 15.292461
v 1.700000 -3.972649 11.559858
v 4.500000 -1.442816 15.559730
v -4.500000 -1.442816 15.559730
v -1.700000 -3.972649 11.559858
v 2.500000 -1.000001 -22.340141
v -13.000036 -1.000000 6.659859
v 6.500000 1.000001 16.259859
v -8.582781 1.000000 -5.540141
v -6.301738 0.999999 -11.840141
v -6.301738 -1.000000 -11.840141
v -5.900000 0.999999 -11.840141
v 8.180000 1.000000 -5.540141
v 5.900000 -1.000000 -5.540141
v 6.301731 -1.000000 -11.840141
v 8.582767 1.000000 -5.540141
v 6.301731 0.999999 -11.840141
v 13.000034 1.000000 6.659859
v -13.000036 1.000000 6.659859
v -12.600000 -1.000000 6.659859
v 13.000034 -1.000000 6.659859
v -6.500000 -0.999999 16.259859
v -6.200000 1.000001 16.059858
v -6.500000 1.000001 16.259859
v 2.100000 0.999999 -22.340141
v 2.500000 0.999999 -22.340141
v -2.500000 0.999999 -22.340141
v -2.500000 -1.000001 -22.340141
v 12.600000 1.000000 6.659859
v 12.600000 -1.000000 6.659859
v 6.200000 -0.999999 16.059858
v 6.500000 -0.999999 16.259859
v -6.200000 -0.999999 16.059858
v -12.600000 1.000000 6.659859
v -8.180000 1.000000 -5.540141
v -8.180000 -1.000000 -5.540141
v -2.100000 0.999999 -22.340141
v -2.100000 -1.000001 -22.340141
v -5.900000 -0.999380 -11.840141
v -5.900000 -1.000000 -5.540141
v 6.200000 1.000001 16.059858
v 8.180000 -1.000000 -5.540141
v -5.900000 1.000000 -5.540141
v 5.900000 -1.000000 -11.840141
v 2.100000 -1.000001 -22.340141
v 5.900000 0.999999 -11.840141
v -8.582781 -1.000000 -5.540141
v 8.582767 -1.000000 -5.540141
v 5.900000 1.000000 -5.540141
v 12.600000 -1.000000 6.659859
v 12.600000 -1.000000 6.659859
v 12.600000 1.000000 6.659859
v 12.600000 1.000000 6.659859
v 6.200000 1.000001 16.059858
v 6.200000 1.000001 16.059858
v 6.200000 -0.999999 16.059858
v 6.200000 -0.999999 16.059858
v 6.500000 -0.999999 16.259859
v 6.500000 1.000001 16.259859
v 8.180000 1.000000 -5.540141
v 8.180000 1.000000 -5.540141
v 8.180000 -1.000000 -5.540141
v 8.180000 -1.000000 -5.540141
v 2.100000 0.999999 -22.340141
v 2.100000 0.999999 -22.340141
v 5.900000 0.999999 -11.840141
v 5.900000 1.000000 -5.540141
v 5.900000 1.000000 -5.540141
v 5.900000 -1.000000 -5.540141
v 5.900000 -1.000000 -5.540141
v 5.900000 -1.000000 -11.840141
v 2.100000 -1.000001 -22.340141
v 2.100000 -1.000001 -22.340141
v 2.500000 -1.000001 -22.340141
v 2.500000 0.999999 -22.340141
v -5.900000 -0.999380 -11.840141
v -2.100000 -1.000001 -22.340141
v -2.100000 -1.000001 -22.340141
v -2.100000 0.999999 -22.340141
v -2.100000 0.999999 -22.340141
v -5.900000 0.999999 -11.840141
v -5.900000 1.000000 -5.540141
v -2.500000 0.999999 -22.340141
v -2.500000 -1.000001 -22.340141
v -5.900000 -1.000000 -5.540141
v -5.900000 -1.000000 -5.540141
v -5.900000 1.000000 -5.540141
v -6.200000 1.000001 16.059858
v -6.200000 1.000001 16.059858
v -12.600000 1.000000 6.659859
v -12.600000 1.000000 6.659859
v -12.600000 -1.000000 6.659859
v -12.600000 -1.000000 6.659859
v -6.200000 -0.999999 16.059858
v -6.200000 -0.999999 16.059858
v -6.500000 -0.999999 16.259859
v -8.180000 -1.000000 -5.540141
v -8.180000 -1.000000 -5.540141
v -8.180000 1.000000 -5.540141
v -8.180000 1.000000 -5.540141
v -6.500000 1.000001 16.259859
v -8.582781 -1.000000 -5.540141
v 8.582767 1.000000 -5.540141
v 8.582767 -1.000000 -5.540141
v -8.582781 1.000000 -5.540141
vt 0.000000 1.000000
vt 1.000000 1.000000
vt 1.000000 0.000000
vt 0.000000 0.000000
vt 0.828536 0.580478
vt 0.831744 -0.649541
vt 1.055744 -0.648733
vt 1.052537 0.581286
vt 2.396826 1.626907
vt 2.397826 0.194991
vt 2.438219 0.178313
vt 2.436129 1.627796
vt 1.052537 1.552294
vt 0.828536 1.551485
vt 0.831066 0.581286
vt 1.055067 0.582095
vt 2.140978 1.918093
vt 2.096805 1.899321
vt 2.101066 0.178313
vt 2.138465 0.195210
vt 2.271134 0.178313
vt 2.310024 0.209289
vt 2.313858 1.706503
vt 2.271184 1.704486
vt 2.228410 1.706503
vt 2.228460 0.180330
vt 2.267300 1.675527
vt 2.012722 0.178313
vt 2.050121 0.195210
vt 2.052633 1.918094
vt 2.002980 1.896992
vt 1.963068 1.918094
vt 1.953326 0.199415
vt 2.002980 0.178313
vt 2.000468 1.901197
vt 2.183702 1.706503
vt 2.141027 1.704486
vt 2.140977 0.178313
vt 2.184694 0.213133
vt 0.824065 1.065674
vt 0.600064 1.064866
vt 0.604535 -0.649541
vt 0.828536 -0.648733
vt 1.057201 1.004449
vt 1.055745 0.179387
vt 1.354938 0.178313
vt 1.100738 1.006166
vt 1.953326 1.006167
vt 1.654132 1.005092
vt 1.656318 0.178617
vt 1.699126 0.178313
vt 1.578939 -0.341824
vt 1.354938 -0.342633
vt 1.355739 -0.649541
vt 1.579739 -0.648733
vt 2.479613 1.627796
vt 2.439220 1.611118
vt 2.438219 0.179202
vt 2.477523 0.178313
vt 0.141783 1.576092
vt -0.082218 1.576901
vt -0.084297 0.779688
vt 0.139704 0.778879
vt -0.088022 -0.648733
vt 0.135978 -0.649541
vt 1.608985 -0.078213
vt 1.579739 -0.078319
vt 1.580427 -0.341824
vt 1.609672 -0.341719
vt 0.145508 0.147306
vt 0.147587 -0.649541
vt 0.371587 -0.648733
vt 0.369509 0.148115
vt 2.355342 1.627796
vt 2.313858 1.612159
vt 2.313948 0.179202
vt 2.353252 0.178313
vt 0.141783 1.575908
vt 0.365783 1.576716
vt 0.371587 1.066899
vt 0.376064 -0.649541
vt 0.600064 -0.648733
vt 0.595588 1.067708
vt 1.354938 0.177504
vt 1.355739 -0.129405
vt 1.579739 -0.128596
vt 1.578939 0.178313
vt 1.654132 1.006167
vt 1.354938 1.005092
vt 1.356395 0.180030
vt 1.399932 0.178313
vt 1.057930 0.178008
vt 1.055745 -0.648466
vt 1.354938 -0.649541
vt 1.100738 0.178313
vt 1.549674 1.269672
vt 1.550361 1.006167
vt 1.589671 1.006309
vt 1.588984 1.269814
vt 2.184694 1.706503
vt 2.184743 0.180330
vt 2.227418 0.178313
vt 2.228410 1.671683
vt 0.600064 1.329180
vt 0.600752 1.065674
vt 0.637049 1.065805
vt 0.636362 1.329311
vt 0.792238 1.065674
vt 0.828536 1.065805
vt 0.827849 1.329311
vt 0.791551 1.329180
vt 2.056894 1.918094
vt 2.052634 0.197085
vt 2.096806 0.178313
vt 2.094293 1.901197
vt 2.396826 0.178313
vt 2.394736 1.627796
vt 2.355432 1.626907
vt 2.355342 0.193950
vn 0.860653 0.272164 0.430311
vn -0.860653 0.272164 0.430311
vn 0.000000 0.534532 0.845119
vn 0.000000 -0.534532 -0.845119
vn -0.826594 0.000000 0.562761
vn 0.000000 -1.000000 0.000000
vn 0.826594 0.000000 0.562761
vn 0.000000 1.000000 0.000000
vn 0.940184 0.000000 -0.340617
vn 0.000000 0.000000 -1.000000
vn 1.000000 0.000000 0.000000
vn 0.984954 0.000000 -0.172735
vn 0.940306 0.000000 -0.340281
vn 0.000000 0.000000 1.000000
vn -0.984954 0.000000 -0.172735
vn -1.000000 0.000000 0.000000
vn -0.000458 0.999969 -0.000122
vn -0.000763 0.999969 -0.000305
vn -0.940306 0.000000 -0.340281
vn -0.940184 0.000000 -0.340617
vn -0.000183 1.000000 0.000000
vn 0.554674 0.000000 -0.832026
vn -0.554674 0.000000 -0.832026
s 1
f 4/1/1 3/2/1 8/3/1 6/4/1
f 11/4/2 10/3/2 2/2/2 14/1/2
f 16/1/3 13/2/3 9/3/3 7/4/3
f 1/2/4 15/1/4 5/4/4 12/3/4
f 31/5/5 44/6/5 34/7/5 45/8/5
f 48/9/6 92/10/6 21/11/6 38/12/6
f 52/13/7 42/14/7 41/15/7 40/16/7
f 18/17/8 104/18/8 47/19/8 113/20/8
f 30/21/6 101/22/6 100/23/6 35/24/6
f 18/25/8 33/26/8 106/21/8 104/27/8
f 24/28/6 114/29/6 29/30/6 64/31/6
f 74/32/8 61/33/8 32/34/8 115/35/8
f 68/36/8 43/37/8 32/38/8 61/39/8
f 63/40/9 62/41/9 53/42/9 72/43/9
f 82/44/8 81/45/8 59/46/8 26/47/8
f 27/48/6 60/49/6 57/50/6 28/51/6
f 71/52/10 73/53/10 25/54/10 79/55/10
f 28/56/6 57/57/6 36/58/6 37/59/6
f 78/60/11 80/61/11 55/62/12 77/63/12
f 77/63/12 55/62/12 56/64/13 76/65/13
f 84/66/14 17/67/14 86/68/14 75/69/14
f 50/70/15 51/71/16 54/72/16 23/73/15
f 22/74/17 87/75/17 89/76/18 39/77/18
f 49/78/19 50/70/15 23/73/15 91/79/19
f 109/80/20 103/81/20 102/82/20 46/83/20
f 97/84/10 108/85/10 110/86/10 98/87/10
f 58/88/21 96/89/21 87/90/17 22/91/17
f 92/92/6 93/93/6 116/94/6 21/95/6
f 88/96/14 90/97/14 94/98/14 95/99/14
f 29/100/6 19/101/6 66/102/6 64/103/6
f 67/104/22 65/105/22 70/106/22 69/107/22
f 112/108/23 99/109/23 105/110/23 107/111/23
f 111/112/6 101/113/6 30/114/6 20/115/6
f 26/116/8 85/117/8 83/118/8 82/119/8
