o cage
v -0.056832 -0.645047 -12.393448
v 1.237781 -0.556036 -12.922255
v 1.344447 -0.645047 -12.393448
v 1.237781 -0.734058 -11.864640
v 0.934022 -0.809518 -11.416339
v 0.479414 -0.859939 -11.116794
v -0.056832 -0.877644 -11.011607
v -0.593078 -0.859939 -11.116794
v -1.047686 -0.809518 -11.416338
v -1.351446 -0.734058 -11.864640
v -1.458112 -0.645047 -12.393448
v -1.351446 -0.556036 -12.922255
v -1.047686 -0.480577 -13.370556
v -0.593078 -0.430156 -13.670100
v -0.056831 -0.412450 -13.775288
v 0.479415 -0.430156 -13.670100
v 0.934022 -0.480577 -13.370556
v 0.479415 -2.402380 -14.002073
v -0.056831 -2.384693 -14.107264
v -0.593078 -2.402380 -14.002073
v -1.047686 -2.452748 -13.702520
v -1.351446 -2.528130 -13.254205
v -1.458112 -2.617049 -12.725383
v -1.351446 -2.705967 -12.196560
v -1.047686 -2.781349 -11.748243
v -0.593078 -2.831717 -11.448690
v -0.056832 -2.849404 -11.343501
v 0.479415 -2.831717 -11.448690
v 0.934022 -2.781349 -11.748244
v 1.237781 -2.705967 -12.196560
v 1.344447 -2.617049 -12.725383
v 1.237781 -2.528130 -13.254205
v 0.934022 -2.452748 -13.702520
v 4.890265 -4.699088 6.825545
v 7.058841 -3.246579 8.292435
v -3.187953 -4.665052 9.501087
v -4.946134 -4.665071 6.851389
v -7.130466 -3.188860 8.370874
v 3.106669 -4.698530 9.514670
v -5.402870 -3.188842 10.891845
v 5.334917 -3.246021 10.809685
v 6.248816 -1.501399 7.746349
v 4.524892 -1.500841 10.263599
v 2.298320 -2.974605 8.969700
v 4.081916 -2.975163 6.280576
v -2.377958 -2.919853 8.955021
v -4.592874 -1.443643 10.345778
v -6.320471 -1.443662 7.824808
v -4.136138 -2.919872 6.305323
vt 0.650366 0.752283
vt 0.512521 0.494106
vt 0.740516 0.680135
vt 0.540562 0.784238
vt 0.427901 0.771735
vt 0.329821 0.717372
vt 0.261483 0.630660
vt 0.232839 0.526732
vt 0.236788 0.419003
vt 0.283331 0.318889
vt 0.366264 0.243410
vt 0.473020 0.205310
vt 0.587230 0.211132
vt 0.691568 0.260591
vt 0.770344 0.347112
vt 0.811445 0.459233
vt 0.797259 0.577805
vt 0.808882 0.907490
vt 0.935132 0.775122
vt 0.635132 0.985351
vt 0.436980 0.991252
vt 0.244002 0.917407
vt 0.088324 0.768010
vt 0.000000 0.560069
vt 0.038083 0.337381
vt 0.155188 0.156159
vt 0.325986 0.039872
vt 0.520177 0.000000
vt 0.707185 0.035774
vt 0.860516 0.135527
vt 0.961220 0.279454
vt 1.000000 0.443407
vt 1.000000 0.611881
vt 0.003815 0.998617
vt 0.219275 0.712058
vt 0.787425 0.740373
vt 0.997601 0.997388
vt 0.003906 0.000781
vt 0.247334 0.273292
vt 1.002661 -0.001907
vt 0.766688 0.279036
vt 1.000781 0.998438
vt 0.759324 0.722476
vt 0.776898 0.267557
vt 1.000781 0.001563
vt 0.001563 0.998438
vt 0.234891 0.707986
vt 0.240447 0.272220
vt 0.001563 0.000781
vn -0.714316 -0.674490 0.186499
vn 0.000000 -0.986114 -0.165960
vn -0.546709 -0.716117 0.433851
vn -0.773186 -0.625355 -0.105258
vn -0.714316 -0.576250 -0.397046
vn -0.546709 -0.534623 -0.644398
vn -0.295877 -0.506790 -0.809687
vn 0.000000 -0.497024 -0.867702
vn 0.295877 -0.506790 -0.809687
vn 0.546709 -0.534623 -0.644398
vn 0.714316 -0.576250 -0.397046
vn 0.773186 -0.625355 -0.105258
vn 0.714316 -0.674490 0.186499
vn 0.546709 -0.716117 0.433851
vn 0.295877 -0.743919 0.599139
vn 0.000000 -0.753716 0.657186
vn -0.295877 -0.743919 0.599139
vn -0.923856 -0.063509 0.377361
vn -0.707083 -0.117344 0.697287
vn -1.000000 0.000000 0.000000
vn -0.923856 0.063509 -0.377361
vn -0.707083 0.117344 -0.697287
vn -0.382672 0.153325 -0.911039
vn 0.000000 0.165960 -0.986114
vn 0.382672 0.153325 -0.911039
vn 0.707083 0.117344 -0.697287
vn 0.923856 0.063509 -0.377361
vn 1.000000 0.000000 0.000000
vn 0.923856 -0.063509 0.377361
vn 0.707083 -0.117344 0.697287
vn 0.382672 -0.153325 0.911039
vn 0.000000 -0.165960 0.986114
vn -0.382672 -0.153325 0.911039
vn -0.139714 -0.354259 -0.924619
vn 0.120182 -0.790948 -0.599933
vn -0.504654 -0.787500 0.353740
vn -0.907315 -0.346690 0.237831
vn 0.901395 0.336711 -0.272195
vn 0.970977 -0.231147 -0.061251
vn 0.117466 0.348979 0.929716
vn 0.332102 -0.217383 0.917814
vn 0.126133 -0.349071 -0.928556
vn -0.129673 -0.787378 -0.602649
vn -0.972137 -0.228492 -0.051881
vn -0.904721 0.339305 -0.257515
vn 0.907956 -0.348704 0.232337
vn 0.507950 -0.788232 0.347301
vn -0.326884 -0.224219 0.918058
vn -0.113437 0.344249 0.931974
s 1
f 2/1/1 1/2/2 17/3/3
f 3/4/4 1/2/2 2/1/1
f 4/5/5 1/2/2 3/4/4
f 5/6/6 1/2/2 4/5/5
f 6/7/7 1/2/2 5/6/6
f 7/8/8 1/2/2 6/7/7
f 8/9/9 1/2/2 7/8/8
f 9/10/10 1/2/2 8/9/9
f 10/11/11 1/2/2 9/10/10
f 11/12/12 1/2/2 10/11/11
f 12/13/13 1/2/2 11/12/12
f 13/14/14 1/2/2 12/13/13
f 14/15/15 1/2/2 13/14/14
f 15/16/16 1/2/2 14/15/15
f 16/17/17 1/2/2 15/16/16
f 17/3/3 1/2/2 16/17/17
f 32/18/18 2/1/1 17/3/3 33/19/19
f 31/20/20 3/4/4 2/1/1 32/18/18
f 30/21/21 4/5/5 3/4/4 31/20/20
f 29/22/22 5/6/6 4/5/5 30/21/21
f 28/23/23 6/7/7 5/6/6 29/22/22
f 27/24/24 7/8/8 6/7/7 28/23/23
f 26/25/25 8/9/9 7/8/8 27/24/24
f 25/26/26 9/10/10 8/9/9 26/25/25
f 24/27/27 10/11/11 9/10/10 25/26/26
f 23/28/28 11/12/12 10/11/11 24/27/27
f 22/29/29 12/13/13 11/12/12 23/28/28
f 21/30/30 13/14/14 12/13/13 22/29/29
f 20/31/31 14/15/15 13/14/14 21/30/30
f 19/32/32 15/16/16 14/15/15 20/31/31
f 18/33/33 16/17/17 15/16/16 19/32/32
f 33/19/19 17/3/3 16/17/17 18/33/33
f 41/34/34 43/35/35 42/36/36 35/37/37
f 39/38/38 44/39/39 43/35/35 41/34/34
f 34/40/40 45/41/41 44/39/39 39/38/38
f 45/41/41 34/40/40 35/37/37 42/36/36
f 43/35/35 44/39/39 45/41/41 42/36/36
f 40/42/42 47/43/43 46/44/44 36/45/45
f 38/46/46 48/47/47 47/43/43 40/42/42
f 36/45/45 46/44/44 49/48/48 37/49/49
f 37/49/49 49/48/48 48/47/47 38/46/46
f 46/44/44 47/43/43 48/47/47 49/48/48
