o thrust_main
v -6.500000 1.000001 16.259859
v 6.500000 1.000001 16.259859
v -5.200000 -0.799999 16.659859
v 5.200000 -0.799999 16.659859
v -5.200000 0.800001 16.659859
v -6.500000 -0.999999 16.259859
v 5.200000 0.800001 16.659859
v 6.500000 -0.999999 16.259859
vt 0.992188 0.011719
vt 0.863281 0.218750
vt 0.152344 0.218750
vt 0.007813 0.011719
vt 0.992188 0.996094
vt 0.007813 0.996094
vt 0.152344 0.816406
vt 0.867188 0.816406
vn 0.174047 0.529344 0.830348
vn 0.174047 -0.529344 0.830348
vn -0.174047 0.529344 0.830348
vn -0.174047 -0.529344 0.830348
s 1
f 2/1/1 7/2/1 4/3/2 8/4/2
f 1/5/3 6/6/4 3/7/4 5/8/3
f 8/4/2 4/3/2 3/7/4 6/6/4
f 2/1/1 1/5/3 5/8/3 7/2/1
