o ncv_2
v 2.500000 5.200000 -0.340142
v -3.300000 1.500000 -0.740141
v -2.500000 5.200000 -0.340142
v 3.300000 1.500000 -0.740141
v 2.500000 0.999999 -22.340141
v 2.500000 5.200000 -0.340142
v 8.199999 1.247423 2.998003
v 2.900000 3.349999 -0.540141
v -2.900000 3.349999 -0.540141
v -2.500000 5.200000 -0.340142
v -13.000036 1.000000 6.659859
v 13.000000 1.000000 6.659859
v -2.500000 0.999999 -22.340141
v -8.200001 1.247423 2.998003
vt 0.706322 0.244279
vt 0.998331 0.206410
vt 0.356983 1.003639
vt 0.382607 0.643289
vt 0.706317 0.244352
vt 0.382602 0.643361
vt 0.356978 1.003711
vt 0.998324 0.206482
vt 1.003062 0.009205
vt 0.001934 0.605669
vt 0.020304 0.075638
vn -0.599506 0.213019 -0.771477
vn 0.599506 0.213019 -0.771477
vn 0.975646 0.215369 -0.041108
vn -0.975646 0.215369 -0.041108
s 1
f 14/1/1 11/2/1 10/3/1 9/4/1
f 7/5/2 8/6/2 6/7/2 12/8/2
f 5/9/3 1/10/3 4/11/3
f 2/11/4 3/10/4 13/9/4
