o glow1
v 9.119041 -0.366401 -3.180258
v 9.075968 -0.366401 -3.227319
v 9.183336 -0.055013 -2.758468
v 8.897688 -0.055013 -3.545458
v 9.183336 0.099625 -2.758468
v 9.420696 0.099625 -2.974322
v 8.897688 0.099625 -3.545458
v 9.264162 0.351837 -3.232554
v 9.012100 0.411013 -3.230229
v 9.068926 -0.366401 -3.073690
v -9.122425 -0.306318 -2.927563
v -9.119528 -0.365494 -3.178758
v -9.141556 -0.306317 -3.365101
v -8.959703 -0.306318 -3.373016
v -9.184702 -0.054106 -2.757103
v -9.421610 -0.054105 -2.973451
v -8.897415 -0.054106 -3.543496
v -9.184704 0.100531 -2.757103
v -9.435577 0.100531 -3.293393
v -8.897415 0.100532 -3.543496
v -9.162838 0.243398 -2.816964
v -8.959703 0.352743 -3.373016
v -9.076357 0.411919 -3.225729
v -9.069633 -0.365494 -3.072086
v -9.069633 0.411919 -3.072086
v -9.012486 -0.365494 -3.228507
v 9.420696 -0.055012 -2.974322
v 9.375223 -0.197879 -3.272579
v -9.421610 0.100531 -2.973451
v -9.218464 -0.054106 -3.529508
v -9.218464 0.100532 -3.529508
v -9.191452 0.243399 -3.471774
v 9.121414 -0.307224 -2.929057
v 9.255861 -0.307224 -3.051345
v 9.264162 -0.307224 -3.232554
v 9.141457 -0.307224 -3.366554
v 8.959620 -0.307224 -3.374849
v 9.191574 -0.197879 -3.473123
v 9.218706 -0.055012 -3.530801
v 9.218706 0.099625 -3.530801
v 9.191574 0.242492 -3.473124
v 9.141457 0.351837 -3.366554
v 9.375225 0.242492 -3.272579
v 9.362812 0.242492 -3.001367
v 9.435328 -0.055012 -3.294234
v 9.435328 0.099625 -3.294234
v 9.161596 0.242492 -2.818374
v 9.255861 0.351836 -3.051345
v 9.121414 0.351836 -2.929057
v 9.119041 0.411013 -3.180258
v 9.068926 0.411013 -3.073690
v 9.075968 0.411013 -3.227319
v 8.959620 0.351836 -3.374849
v 8.919441 0.242492 -3.485550
v 8.919441 -0.197879 -3.485551
v 9.012100 -0.366401 -3.230229
v 9.161596 -0.197879 -2.818374
v 9.362810 -0.197879 -3.001367
v -9.256617 -0.306317 -3.050130
v -9.264540 -0.306318 -3.231356
v -9.191450 -0.196972 -3.471774
v -9.141554 0.352743 -3.365101
v -9.264540 0.352743 -3.231356
v -9.375519 0.243399 -3.271612
v -9.363670 0.243398 -3.000376
v -9.375519 -0.196973 -3.271612
v -9.435579 -0.054106 -3.293393
v -9.256617 0.352743 -3.050130
v -9.122425 0.352743 -2.927563
v -9.119528 0.411920 -3.178758
v -9.012486 0.411920 -3.228507
v -8.919292 0.243398 -3.483634
v -8.919292 -0.196972 -3.483634
v -9.363672 -0.196972 -3.000376
v -9.162838 -0.196972 -2.816964
v -9.076357 -0.365495 -3.225729
v -2.369740 0.220284 -21.581200
v -2.435752 0.256019 -21.399330
v 2.371525 0.219835 -21.580742
v 2.437482 0.255571 -21.398851
v 2.469155 -0.178157 -21.311506
v 2.437482 -0.213893 -21.398851
v 2.403196 -0.213893 -21.493399
v 2.493397 -0.112126 -21.244656
v 2.506520 -0.025852 -21.208473
v 2.649882 -0.025852 -21.338785
v 2.528008 -0.025852 -21.674868
v 2.334159 -0.025852 -21.683777
v 2.506520 0.067530 -21.208473
v 2.658785 0.067530 -21.531977
v 2.528007 0.067530 -21.674870
v 2.334159 0.067530 -21.683777
v 2.493397 0.153805 -21.244654
v 2.347283 0.153805 -21.647594
v 2.469154 0.219835 -21.311506
v 2.403196 0.255571 -21.493397
v -2.467451 -0.177709 -21.311995
v -2.435752 -0.213445 -21.399332
v -2.613217 -0.111678 -21.355659
v -2.504847 -0.025404 -21.208973
v -2.332343 -0.025404 -21.684225
v -2.504847 0.067979 -21.208975
v -2.332343 0.067979 -21.684225
v -2.345478 0.154253 -21.648045
v -2.467451 0.220284 -21.311995
v -2.401437 0.256019 -21.493866
v 2.658785 -0.025852 -21.531977
v 2.555405 -0.178157 -21.494751
v 2.481329 -0.178157 -21.575699
v -2.526194 0.067979 -21.675375
v -2.509809 0.154253 -21.640547
v -2.648170 -0.025404 -21.339327
v 2.511612 -0.112126 -21.640043
v 2.511612 0.153805 -21.640045
v 2.481329 0.219835 -21.575699
v 2.555405 0.219835 -21.494751
v 2.622486 0.153805 -21.518900
v 2.614933 0.153805 -21.355125
v 2.649882 0.067530 -21.338787
v 2.614933 -0.112126 -21.355127
v 2.550365 -0.178157 -21.385321
v 2.622486 -0.112126 -21.518904
v 2.550365 0.219835 -21.385323
v 2.347283 -0.112126 -21.647594
v 2.371524 -0.178157 -21.580742
v -2.491714 -0.111678 -21.245152
v -2.620720 -0.111678 -21.519436
v -2.345478 -0.111678 -21.648043
v -2.526194 -0.025404 -21.675373
v -2.479546 0.220284 -21.576189
v -2.553646 0.220284 -21.495266
v -2.620720 0.154253 -21.519436
v -2.613216 0.154253 -21.355659
v -2.648170 0.067979 -21.339327
v -2.491714 0.154253 -21.245150
v -2.657015 0.067979 -21.532520
v -2.657015 -0.025404 -21.532520
v -2.548639 0.220284 -21.385836
v -2.553646 -0.177709 -21.495266
v -2.479546 -0.177709 -21.576189
v -2.369740 -0.177709 -21.581200
v -2.509809 -0.111678 -21.640547
v -2.548639 -0.177709 -21.385834
v -2.401437 -0.213445 -21.493864
vt 0.797100 0.109130
vt 0.791839 0.109130
vt 0.611902 0.033456
vt 0.613748 0.033456
vt 0.678555 0.248958
vt 0.331459 0.248958
vt 0.392211 0.109130
vt 0.624124 0.109130
vt 0.708011 0.431657
vt 0.298580 0.431657
vt 0.708011 0.629407
vt 0.298580 0.629407
vt 0.678555 0.812110
vt 0.331459 0.812110
vt 0.392211 0.951938
vt 0.231918 0.951938
vt 0.091599 0.812110
vt 0.624124 0.951938
vt 0.611902 0.033452
vt 0.553001 0.033456
vt 1.004086 0.431657
vt 0.929551 0.248958
vt 1.004086 0.629407
vt 0.929551 0.812110
vt 0.791839 0.951938
vt 0.553001 1.027612
vt 0.415287 1.027612
vt 0.613748 1.027612
vt 0.611902 1.027612
vt 0.797100 0.951938
vt 0.937447 0.812110
vt 1.013393 0.629407
vt 0.714069 0.570082
vt 0.714069 0.490982
vt 0.710346 0.490982
vt 1.013393 0.431657
vt 0.937447 0.248958
vt 0.231918 0.109130
vt 0.091599 0.248958
vt 0.415287 0.033456
vt 0.015647 0.629407
vt 0.015647 0.431657
vt 7.666651 0.344081
vt 7.610632 0.344081
vt 7.571915 0.344081
vt 7.616208 0.325803
vt 7.679801 0.377858
vt 7.595962 0.377858
vt 7.740434 0.377858
vt 7.707167 0.344081
vt 7.588020 0.421989
vt 7.519673 0.421989
vt 7.538019 0.377858
vt 7.686918 0.421989
vt 7.758437 0.421989
vt 7.760685 0.421989
vt 7.742336 0.377858
vt 7.758437 0.469757
vt 7.686918 0.469757
vt 7.760685 0.469757
vt 7.595959 0.513887
vt 7.538019 0.513887
vt 7.519673 0.469755
vt 7.588020 0.469757
vt 7.740434 0.513887
vt 7.679801 0.513887
vt 7.707167 0.547663
vt 7.666651 0.547663
vt 7.708436 0.547663
vt 7.742336 0.513887
vt 7.616208 0.565943
vt 7.571915 0.547663
vt 7.610632 0.547663
vt 7.616208 0.325801
vt 7.571915 0.344080
vt 7.610632 0.344080
vt 7.664147 0.325801
vt 7.707167 0.344080
vt 7.686918 0.469755
vt 7.588020 0.469755
vt 7.595962 0.513887
vt 7.758437 0.469755
vt 7.760685 0.469755
vt 7.708436 0.344081
vt 7.664147 0.325803
vt 7.742332 0.377858
vt 7.708436 0.344080
vt 7.664147 0.565943
vn 0.025239 -0.832453 -0.553484
vn 0.233161 -0.833766 -0.500412
vn 0.097140 -0.972686 -0.210730
vn 0.008728 -0.981384 -0.191778
vn 0.771569 -0.571093 -0.280190
vn 0.743095 -0.571062 0.348766
vn 0.488601 -0.843318 0.223762
vn 0.489151 -0.863796 -0.120487
vn 0.920255 -0.204352 -0.333689
vn 0.886044 -0.204352 0.416089
vn 0.920316 0.204352 -0.333506
vn 0.885922 0.204352 0.416333
vn 0.771813 0.571062 -0.279519
vn 0.742759 0.571062 0.349498
vn 0.494186 0.837245 0.234046
vn 0.374737 0.830531 0.412000
vn 0.558458 0.557634 0.614093
vn 0.518448 0.834284 -0.187384
vn -0.232093 -0.833766 -0.500900
vn -0.096683 -0.972686 -0.210913
vn -0.252815 -0.967406 -0.012909
vn -0.488907 -0.863796 -0.121525
vn -0.919553 -0.204352 -0.335612
vn -0.770959 -0.571093 -0.281777
vn -0.743828 -0.571062 0.347209
vn -0.886898 -0.204352 0.414228
vn -0.412854 -0.203925 -0.887631
vn -0.346080 -0.570269 -0.744957
vn -0.919614 0.204352 -0.335398
vn -0.886807 0.204352 0.414472
vn -0.413099 0.203955 -0.887539
vn -0.346751 0.570269 -0.744652
vn -0.771233 0.571093 -0.281106
vn -0.494675 0.837245 0.233009
vn -0.743492 0.571062 0.347942
vn -0.559740 0.557634 0.612903
vn -0.375591 0.830531 0.411206
vn -0.518052 0.834284 -0.188452
vn -0.233314 0.833766 -0.500351
vn -0.219092 0.974548 -0.047243
vn -0.185278 0.975860 0.115482
vn -0.008515 0.980590 -0.195868
vn -0.098819 0.972686 -0.209906
vn -0.024384 0.827815 -0.560411
vn -0.036348 0.550157 -0.834223
vn -0.042726 0.190069 -0.980834
vn -0.042665 -0.198187 -0.979217
vn -0.036134 -0.557054 -0.829676
vn -0.024079 -0.832453 -0.553514
vn -0.489059 -0.843318 0.222724
vn -0.377880 -0.828242 0.413739
vn -0.562853 -0.550737 0.616321
vn -0.272652 -0.954772 0.118442
vn 0.252846 -0.967406 -0.012391
vn 0.272408 -0.954772 0.118992
vn 0.008911 0.980590 -0.195837
vn 0.099246 0.972686 -0.209693
vn 0.234352 0.833766 -0.499863
vn 0.025544 0.827815 -0.560381
vn 0.219184 0.974548 -0.046785
vn 0.185034 0.975860 0.115879
vn 0.348308 0.570269 -0.743919
vn 0.414960 0.203925 -0.886654
vn 0.659383 0.198492 0.725089
vn 0.414716 -0.203925 -0.886776
vn 0.347636 -0.570269 -0.744255
vn 0.561571 -0.550737 0.617481
vn 0.377026 -0.828242 0.414533
vn 0.660482 -0.190344 0.726279
vn 0.038087 0.550157 -0.834162
vn -0.662008 -0.190344 0.724906
vn -0.660909 0.198462 0.723716
vn -0.008301 -0.981384 -0.191778
vn 0.044771 0.190069 -0.980743
vn 0.044679 -0.198187 -0.979125
vn 0.037873 -0.557054 -0.829585
vn 0.402753 -0.911313 -0.085116
vn 0.409436 -0.892026 0.191351
vn 0.249947 -0.943358 0.218055
vn 0.334849 -0.940245 0.061373
vn 0.771630 -0.571093 -0.279946
vn 0.743004 -0.571032 0.349010
vn 0.347850 -0.570269 -0.744133
vn 0.230262 -0.842830 -0.486373
vn 0.885922 -0.204352 0.416364
vn 0.660298 -0.190344 0.726432
vn 0.561388 -0.550737 0.617634
vn 0.920347 -0.204352 -0.333415
vn 0.414960 -0.203955 -0.886654
vn 0.044984 -0.198187 -0.979125
vn 0.038118 -0.557054 -0.829585
vn 0.415174 0.203925 -0.886563
vn 0.920408 0.204352 -0.333201
vn 0.045045 0.190069 -0.980712
vn 0.742668 0.571062 0.349681
vn 0.558306 0.557634 0.614246
vn 0.659230 0.198462 0.725242
vn 0.885800 0.204321 0.416578
vn 0.348521 0.570269 -0.743828
vn 0.771905 0.571093 -0.279244
vn 0.192724 0.891812 -0.409253
vn 0.345744 0.934049 -0.089267
vn 0.397534 0.837489 -0.374859
vn 0.038301 0.550157 -0.834162
vn 0.576922 0.773461 -0.262429
vn 0.248115 0.944395 0.215705
vn 0.408429 0.892026 0.193548
vn -0.402722 -0.911313 -0.085238
vn -0.334880 -0.940245 0.061281
vn -0.250008 -0.943358 0.217994
vn -0.409497 -0.892026 0.191229
vn -0.152409 -0.956298 -0.249519
vn -0.230110 -0.842830 -0.486435
vn -0.743095 -0.571062 0.348796
vn -0.561571 -0.550737 0.617450
vn -0.771569 -0.571093 -0.280190
vn -0.920225 -0.204352 -0.333689
vn -0.886044 -0.204352 0.416089
vn -0.414716 -0.203925 -0.886776
vn -0.347636 -0.570269 -0.744255
vn -0.920316 0.204352 -0.333476
vn -0.885922 0.204352 0.416303
vn -0.771813 0.571093 -0.279489
vn -0.742759 0.571062 0.349467
vn -0.348277 0.570269 -0.743950
vn -0.414930 0.203925 -0.886685
vn -0.345714 0.934049 -0.089358
vn -0.408490 0.892026 0.193426
vn -0.192602 0.891812 -0.409284
vn -0.397412 0.837489 -0.374981
vn -0.038057 0.550157 -0.834162
vn -0.248177 0.944395 0.215613
vn -0.576830 0.773461 -0.262612
vn -0.558519 0.557634 0.614063
vn -0.044771 0.190069 -0.980743
vn -0.659444 0.198492 0.725059
vn -0.044710 -0.198187 -0.979125
vn -0.660512 -0.190344 0.726249
vn 0.025575 -0.830134 -0.556932
vn 0.152470 -0.956298 -0.249458
vn -0.037812 -0.557085 -0.829585
vn -0.025391 -0.830134 -0.556932
vn 0.940062 0.000092 -0.340922
vn -0.939970 0.000061 -0.341197
s 1
f 37/1/1 36/2/2 2/3/3
f 37/1/1 2/3/3 56/4/4
f 28/5/5 58/6/6 34/7/7
f 28/5/5 34/7/7 35/8/8
f 45/9/9 27/10/10 58/6/6
f 45/9/9 58/6/6 28/5/5
f 46/11/11 6/12/12 27/10/10
f 46/11/11 27/10/10 45/9/9
f 43/13/13 44/14/14 6/12/12
f 43/13/13 6/12/12 46/11/11
f 48/15/15 49/16/16 47/17/17
f 48/15/15 47/17/17 44/14/14
f 8/18/18 48/15/15 44/14/14
f 8/18/18 44/14/14 43/13/13
f 13/2/19 76/19/20 12/20/21
f 13/2/19 12/20/21 60/8/22
f 67/9/23 66/5/24 74/6/25
f 67/9/23 74/6/25 16/10/26
f 30/21/27 61/22/28 66/5/24
f 30/21/27 66/5/24 67/9/23
f 19/11/29 67/9/23 16/10/26
f 19/11/29 16/10/26 29/12/30
f 31/23/31 30/21/27 67/9/23
f 31/23/31 67/9/23 19/11/29
f 32/24/32 31/23/31 19/11/29
f 32/24/32 19/11/29 64/13/33
f 68/15/34 65/14/35 21/17/36
f 68/15/34 21/17/36 69/16/37
f 63/18/38 64/13/33 65/14/35
f 63/18/38 65/14/35 68/15/34
f 62/25/39 32/24/32 64/13/33
f 62/25/39 64/13/33 63/18/38
f 70/26/40 63/18/38 68/15/34
f 70/26/40 68/15/34 25/27/41
f 71/28/42 23/29/43 70/26/40
f 71/28/42 70/26/40 25/27/41
f 71/28/42 22/30/44 62/25/39
f 71/28/42 62/25/39 23/29/43
f 23/29/43 62/25/39 63/18/38
f 23/29/43 63/18/38 70/26/40
f 72/31/45 20/32/46 31/23/31
f 72/31/45 31/23/31 32/24/32
f 64/13/33 19/11/29 29/12/30
f 64/13/33 29/12/30 65/14/35
f 20/33/46 17/34/47 30/35/27
f 20/32/46 30/21/27 31/23/31
f 17/36/47 73/37/48 61/22/28
f 17/36/47 61/22/28 30/21/27
f 73/37/48 14/1/49 13/2/19
f 73/37/48 13/2/19 61/22/28
f 61/22/28 13/2/19 60/8/22
f 61/22/28 60/8/22 66/5/24
f 66/5/24 60/8/22 59/7/50
f 66/5/24 59/7/50 74/6/25
f 74/6/25 59/7/50 11/38/51
f 74/6/25 11/38/51 75/39/52
f 60/8/22 12/20/21 24/40/53
f 60/8/22 24/40/53 59/7/50
f 2/3/3 1/20/54 56/4/4
f 56/4/4 1/20/54 10/40/55
f 9/28/56 52/29/57 42/25/58
f 9/28/56 42/25/58 53/30/59
f 52/29/57 50/26/60 8/18/18
f 52/29/57 8/18/18 42/25/58
f 50/26/60 51/27/61 48/15/15
f 50/26/60 48/15/15 8/18/18
f 42/25/58 8/18/18 43/13/13
f 42/25/58 43/13/13 41/24/62
f 41/24/62 43/13/13 46/11/11
f 41/24/62 46/11/11 40/23/63
f 44/14/14 47/17/17 5/41/64
f 44/14/14 5/41/64 6/12/12
f 40/23/63 46/11/11 45/9/9
f 40/23/63 45/9/9 39/21/65
f 39/21/65 45/9/9 28/5/5
f 39/21/65 28/5/5 38/22/66
f 38/22/66 28/5/5 35/8/8
f 38/22/66 35/8/8 36/2/2
f 58/6/6 57/39/67 33/38/68
f 58/6/6 33/38/68 34/7/7
f 35/8/8 1/20/54 36/2/2
f 36/2/2 1/20/54 2/3/3
f 35/8/8 34/7/7 10/40/55
f 10/40/55 1/20/54 35/8/8
f 27/10/10 3/42/69 57/39/67
f 27/10/10 57/39/67 58/6/6
f 53/30/59 42/25/58 41/24/62
f 53/30/59 41/24/62 54/31/70
f 29/12/30 16/10/26 15/42/71
f 29/12/30 15/42/71 18/41/72
f 22/30/44 72/31/45 32/24/32
f 22/30/44 32/24/32 62/25/39
f 26/4/73 24/40/53 12/20/21
f 12/20/21 76/19/20 26/4/73
f 65/14/35 29/12/30 18/41/72
f 65/14/35 18/41/72 21/17/36
f 16/10/26 74/6/25 75/39/52
f 16/10/26 75/39/52 15/42/71
f 26/4/73 76/19/20 14/1/49
f 14/1/49 76/19/20 13/2/19
f 9/28/56 51/27/61 50/26/60
f 9/28/56 50/26/60 52/29/57
f 54/31/70 41/24/62 40/23/63
f 54/31/70 40/23/63 7/32/74
f 7/32/74 40/23/63 39/21/65
f 7/33/74 39/35/65 4/34/75
f 6/12/12 5/41/64 3/42/69
f 6/12/12 3/42/69 27/10/10
f 4/36/75 39/21/65 38/22/66
f 4/36/75 38/22/66 55/37/76
f 55/37/76 38/22/66 36/2/2
f 55/37/76 36/2/2 37/1/1
f 33/38/68 10/40/55 34/7/7
f 48/15/15 51/27/61 49/16/16
f 59/7/50 24/40/53 11/38/51
f 69/16/37 25/27/41 68/15/34
f 108/43/77 121/44/78 81/45/79
f 108/43/77 81/45/79 82/46/80
f 122/47/81 120/48/82 121/44/78
f 122/47/81 121/44/78 108/43/77
f 113/49/83 122/47/81 108/43/77
f 113/49/83 108/43/77 109/50/84
f 86/51/85 85/52/86 84/53/87
f 86/51/85 84/53/87 120/48/82
f 107/54/88 86/51/85 120/48/82
f 107/54/88 120/48/82 122/47/81
f 87/55/89 107/54/88 122/47/81
f 87/55/89 122/47/81 113/49/83
f 88/56/90 87/55/89 113/49/83
f 88/56/90 113/49/83 124/57/91
f 91/58/92 90/59/93 107/54/88
f 91/58/92 107/54/88 87/55/89
f 92/60/94 91/58/92 87/55/89
f 92/60/94 87/55/89 88/56/90
f 118/61/95 93/62/96 89/63/97
f 118/61/95 89/63/97 119/64/98
f 114/65/99 117/66/100 90/59/93
f 114/65/99 90/59/93 91/58/92
f 115/67/101 116/68/102 117/66/100
f 115/67/101 117/66/100 114/65/99
f 79/69/103 115/67/101 114/65/99
f 79/69/103 114/65/99 94/70/104
f 116/68/102 80/71/105 95/72/106
f 116/68/102 95/72/106 123/73/107
f 139/43/108 98/74/109 97/75/110
f 139/43/108 97/75/110 143/76/111
f 144/77/112 98/74/109 139/43/108
f 144/77/112 139/43/108 140/78/113
f 99/48/114 143/76/111 97/75/110
f 99/48/114 97/75/110 126/53/115
f 127/47/116 139/43/108 143/76/111
f 127/47/116 143/76/111 99/48/114
f 137/54/117 127/47/116 99/48/114
f 137/54/117 99/48/114 112/51/118
f 129/55/119 142/49/120 127/47/116
f 129/55/119 127/47/116 137/54/117
f 136/79/121 137/54/117 112/51/118
f 136/79/121 112/51/118 134/80/122
f 132/66/123 136/79/121 134/80/122
f 132/66/123 134/80/122 133/81/124
f 111/65/125 110/82/126 136/79/121
f 111/65/125 136/79/121 132/66/123
f 131/68/127 132/66/123 133/81/124
f 131/68/127 133/81/124 138/73/128
f 130/67/129 111/65/125 132/66/123
f 130/67/129 132/66/123 131/68/127
f 77/69/130 104/70/131 111/65/125
f 77/69/130 111/65/125 130/67/129
f 131/68/127 138/73/128 105/72/132
f 131/68/127 105/72/132 78/71/133
f 77/69/130 130/67/129 131/68/127
f 77/69/130 131/68/127 78/71/133
f 138/73/128 133/81/124 135/62/134
f 138/73/128 135/62/134 105/72/132
f 104/70/131 103/83/135 110/82/126
f 104/70/131 110/82/126 111/65/125
f 133/81/124 134/80/122 102/63/136
f 133/81/124 102/63/136 135/62/134
f 103/83/135 101/56/137 129/55/119
f 103/83/135 129/55/119 110/82/126
f 110/82/126 129/55/119 137/54/117
f 110/82/126 137/54/117 136/79/121
f 112/51/118 99/48/114 126/53/115
f 112/51/118 126/53/115 100/52/138
f 142/49/120 140/78/113 139/43/108
f 142/49/120 139/43/108 127/47/116
f 79/69/103 80/71/105 116/68/102
f 79/69/103 116/68/102 115/67/101
f 123/73/107 95/72/106 93/62/96
f 123/73/107 93/62/96 118/61/95
f 124/57/91 113/49/83 109/50/84
f 124/57/91 109/50/84 125/84/139
f 120/48/82 84/53/87 81/45/79
f 120/48/82 81/45/79 121/44/78
f 83/85/140 109/50/84 108/43/77
f 83/85/140 108/43/77 82/46/80
f 119/64/98 89/63/97 85/52/86
f 119/64/98 85/52/86 86/51/85
f 116/68/102 123/73/107 118/61/95
f 116/68/102 118/61/95 117/66/100
f 134/80/122 112/51/118 100/52/138
f 134/80/122 100/52/138 102/63/136
f 101/56/137 128/86/141 142/49/120
f 101/56/137 142/49/120 129/55/119
f 128/86/141 141/87/142 140/78/113
f 128/86/141 140/78/113 142/49/120
f 94/70/104 114/65/99 91/58/92
f 94/70/104 91/58/92 92/60/94
f 117/66/100 118/61/95 119/64/98
f 117/66/100 119/64/98 90/59/93
f 90/59/93 119/64/98 86/51/85
f 90/59/93 86/51/85 107/54/88
f 109/50/84 83/85/140 125/84/139
f 80/71/105 79/69/103 96/88/143
f 141/87/142 144/77/112 140/78/113
f 106/88/144 77/69/130 78/71/133
