o galmap_1
v -0.502254 -0.049981 0.289976
v 0.289976 -0.049981 0.502254
v 0.502254 -0.049981 0.289977
v 0.579953 -0.049981 0.000000
v 0.000000 -0.049981 -0.579953
v -0.289976 -0.049981 -0.502254
v -0.502254 -0.049981 -0.289977
v -0.579953 -0.049981 -0.000000
v 0.000000 0.010004 -0.000000
v 0.289977 -0.049981 -0.502254
v 0.502254 -0.049981 -0.289976
v -0.000000 -0.049981 0.579953
v -0.289977 -0.049981 0.502254
v -0.541103 -0.049981 0.144988
v -0.186345 0.000019 -0.000000
v 0.093173 0.000019 0.161380
v 0.396115 -0.049981 0.396115
v 0.186345 0.000019 0.000000
v 0.541103 -0.049981 0.144988
v -0.144988 -0.049981 -0.541104
v 0.000000 0.000019 -0.186345
v -0.161380 0.000019 -0.093173
v -0.396115 -0.049981 -0.396115
v -0.541103 -0.049981 -0.144988
v -0.093173 0.000019 -0.161380
v -0.161380 0.000019 0.093173
v 0.161380 0.000019 0.093173
v 0.396115 -0.049981 -0.396115
v -0.144988 -0.049981 0.541103
v -0.396115 -0.049981 0.396115
v 0.144988 -0.049981 0.541104
v 0.541103 -0.049981 -0.144988
v 0.144988 -0.049981 -0.541103
v -0.000000 0.000019 0.186345
v 0.093173 0.000019 -0.161380
v 0.161380 0.000019 -0.093173
v -0.093173 0.000019 0.161380
vt 0.552336 0.650897
vt 0.500000 0.500000
vt 0.616662 0.619196
vt 0.673044 0.998927
vt 0.779387 0.946519
vt 0.059604 0.211100
vt 0.350272 0.444444
vt 0.004938 0.316309
vt 0.357325 0.522970
vt 0.402608 0.595341
vt 0.383338 0.380804
vt 0.103121 0.695592
vt 0.028259 0.575948
vt 0.016599 0.446129
vt 0.220612 0.053481
vt 0.326956 0.001072
vt 0.456483 0.015507
vt 0.447664 0.349103
vt 0.526013 0.357834
vt 0.983401 0.553871
vt 0.995062 0.683691
vt 0.940396 0.788900
vt 0.649728 0.555556
vt 0.642675 0.477030
vt 0.597392 0.404659
vt 0.704013 0.107353
vt 0.822017 0.184763
vt 0.896879 0.304408
vt 0.473987 0.642166
vt 0.543517 0.984493
vt 0.413990 0.970058
vt 0.295986 0.892647
vt 0.885731 0.894110
vt 0.114269 0.105890
vt 0.177983 0.815237
vt 0.586010 0.029942
vt 0.971741 0.424052
vn 0.079287 0.995666 -0.048219
vn 0.000824 0.999969 -0.001404
vn 0.091678 0.995758 0.003296
vn 0.109134 0.992004 -0.062990
vn 0.125919 0.991455 -0.033723
vn -0.125919 0.991455 -0.033723
vn -0.088504 0.994812 -0.049654
vn -0.109134 0.992004 -0.062990
vn -0.048708 0.995758 -0.077761
vn 0.003296 0.995758 -0.091678
vn -0.088229 0.996094 0.000000
vn -0.048372 0.991882 -0.117527
vn -0.062990 0.992004 -0.109134
vn -0.077609 0.991882 -0.100681
vn -0.117527 0.991882 0.048372
vn -0.109134 0.992004 0.062990
vn -0.100681 0.991882 0.077609
vn -0.087069 0.994903 0.050264
vn -0.044099 0.996094 0.076388
vn 0.100681 0.991882 0.077609
vn 0.109134 0.992004 0.062990
vn 0.117527 0.991882 0.048372
vn 0.087069 0.994903 0.050264
vn 0.044099 0.996094 0.076388
vn 0.000000 0.994903 0.100528
vn -0.016846 0.991882 0.125980
vn 0.000000 0.992004 0.126011
vn 0.016846 0.991882 0.125980
vn 0.050264 0.994903 -0.087069
vn 0.077609 0.991882 -0.100681
vn 0.062990 0.992004 -0.109134
vn 0.048372 0.991882 -0.117527
vn 0.126011 0.992004 0.000000
vn -0.126011 0.992004 0.000000
vn 0.000000 0.992004 -0.126011
vn -0.062990 0.992004 0.109134
vn 0.062990 0.992004 0.109134
s 1
f 36/1/1 9/2/2 18/3/3
f 11/4/4 36/1/1 32/5/5
f 24/6/6 22/7/7 7/8/8
f 25/9/9 9/2/2 21/10/10
f 15/11/11 9/2/2 25/9/9 22/7/7
f 20/12/12 6/13/13 23/14/14 25/9/9
f 14/15/15 1/16/16 30/17/17 26/18/18
f 37/19/19 9/2/2 15/11/11 26/18/18
f 17/20/20 3/21/21 19/22/22 27/23/23
f 16/24/24 27/23/23 18/3/3 9/2/2
f 37/19/19 34/25/25 16/24/24 9/2/2
f 29/26/26 12/27/27 31/28/28 34/25/25
f 36/1/1 35/29/29 21/10/10 9/2/2
f 28/30/30 10/31/31 33/32/32 35/29/29
f 36/1/1 18/3/3 4/33/33 32/5/5
f 22/7/7 24/6/6 8/34/34 15/11/11
f 35/29/29 36/1/1 11/4/4 28/30/30
f 35/29/29 33/32/32 5/35/35 21/10/10
f 25/9/9 21/10/10 5/35/35 20/12/12
f 25/9/9 23/14/14 7/8/8 22/7/7
f 26/18/18 30/17/17 13/36/36 37/19/19
f 8/34/34 14/15/15 26/18/18 15/11/11
f 34/25/25 37/19/19 13/36/36 29/26/26
f 34/25/25 31/28/28 2/37/37 16/24/24
f 27/23/23 16/24/24 2/37/37 17/20/20
f 27/23/23 19/22/22 4/33/33 18/3/3
