# 3ds Max Wavefront OBJ Exporter v0.94b - (c)2007 guruware
# File Created: 06.12.2010 19:30:31

#
# object inside
#

v  0.0000 1.3642 0.1562
v  0.2124 1.3642 0.1562
v  0.1233 1.5981 0.1562
v  0.0000 1.7012 0.1562
v  0.0000 1.3642 0.3044
v  0.1248 1.3642 0.2741
v  -0.1234 1.5981 0.1562
v  -0.2125 1.3642 0.1562
v  -0.1249 1.3642 0.2741
# 9 vertices

vn 0.0000 0.0000 1.0000
vn 0.0000 1.0000 0.0000
# 2 vertex normals

vt 0.9310 0.4999 0.0000
vt 0.9909 0.4999 0.0000
vt 0.9658 0.5659 0.0000
vt 0.9310 0.5950 0.0000
vt 0.8555 0.6470 0.0000
vt 0.8555 0.6888 0.0000
vt 0.8203 0.6802 0.0000
vt 0.7955 0.6470 0.0000
vt 0.8962 0.5659 0.0000
vt 0.8711 0.4999 0.0000
vt 0.9154 0.6470 0.0000
vt 0.8907 0.6802 0.0000
# 12 texture coords

g inside
s 4
f 1/1/1 2/2/1 3/3/1 4/4/1 
s 2
f 1/5/2 5/6/2 6/7/2 2/8/2 
s 4
f 1/1/1 4/4/1 7/9/1 8/10/1 
s 2
f 1/5/2 8/11/2 9/12/2 5/6/2 
# 4 polygons

