# 3ds Max Wavefront OBJ Exporter v0.94b - (c)2007 guruware
# File Created: 07.12.2010 00:05:18

#
# object viper_col
#

v  0.2586 -1.1265 -0.5700
v  0.2586 -0.2194 -0.5700
v  0.5414 -0.2194 -0.5700
v  0.5414 -1.1265 -0.5700
v  0.2586 -1.1265 -0.2885
v  0.5414 -1.1265 -0.2885
v  0.5414 -0.2194 -0.2885
v  0.2586 -0.2194 -0.2885
v  -0.5414 -1.1265 -0.5700
v  -0.5414 -0.2194 -0.5700
v  -0.2586 -0.2194 -0.5700
v  -0.2586 -1.1265 -0.5700
v  -0.5414 -1.1265 -0.2885
v  -0.2586 -1.1265 -0.2885
v  -0.2586 -0.2194 -0.2885
v  -0.5414 -0.2194 -0.2885
v  0.0000 2.3169 0.1190
v  1.1741 -1.4160 0.6961
v  1.1741 -1.4160 -0.4581
v  -1.1741 -1.4160 -0.4581
v  -1.1741 -1.4160 0.6961
v  0.0000 -1.4160 0.1190
# 22 vertices

vn 0.0000 0.0000 -1.0000
vn 0.0000 0.0000 1.0000
vn 0.0000 -1.0000 0.0000
vn 1.0000 0.0000 0.0000
vn 0.0000 1.0000 0.0000
vn -1.0000 0.0000 0.0000
vn 0.9539 0.3000 0.0000
vn 0.0000 0.1528 -0.9883
vn -0.9539 0.3000 0.0000
vn 0.0000 0.1528 0.9883
# 10 vertex normals

vt 1.0000 0.0000 0.0000
vt 1.0000 0.9071 0.0000
vt 0.7172 0.9071 0.0000
vt 0.7172 0.0000 0.0000
vt 0.0000 0.0000 0.0000
vt 0.2828 0.0000 0.0000
vt 0.2828 0.9071 0.0000
vt 0.0000 0.9071 0.0000
vt 0.2828 0.2815 0.0000
vt 0.0000 0.2815 0.0000
vt 0.9071 0.0000 0.0000
vt 0.9071 0.2815 0.0000
vt 0.5771 3.7329 0.0000
vt 1.1542 0.0000 0.0000
vt 1.1741 3.7329 0.0000
vt 0.5970 0.0000 0.0000
vt 2.9451 0.0000 0.0000
vt 0.0000 2.3481 0.0000
vt 0.5771 1.1741 0.0000
vt 1.1542 2.3481 0.0000
# 20 texture coords

g viper_col
s 2
f 1/1/1 2/2/1 3/3/1 4/4/1 
s 4
f 5/5/2 6/6/2 7/7/2 8/8/2 
s 8
f 1/5/3 4/6/3 6/9/3 5/10/3 
s 16
f 4/5/4 3/11/4 7/12/4 6/10/4 
s 32
f 3/5/5 2/6/5 8/9/5 7/10/5 
s 64
f 2/5/6 1/11/6 5/12/6 8/10/6 
s 2
f 9/1/1 10/2/1 11/3/1 12/4/1 
s 4
f 13/5/2 14/6/2 15/7/2 16/8/2 
s 8
f 9/5/3 12/6/3 14/9/3 13/10/3 
s 16
f 12/5/4 11/11/4 15/12/4 14/10/4 
s 32
f 11/5/5 10/6/5 16/9/5 15/10/5 
s 64
f 10/5/6 9/11/6 13/12/6 16/10/6 
s 4
f 17/13/7 18/5/7 19/14/7 
s 2
f 17/15/8 19/16/8 20/17/8 
s 16
f 17/13/9 20/5/9 21/14/9 
s 32
f 17/15/10 21/16/10 18/17/10 
s 8
f 18/18/3 22/19/3 19/20/3 
f 19/20/3 22/19/3 20/14/3 
f 20/14/3 22/19/3 21/5/3 
f 21/5/3 22/19/3 18/18/3 
# 12 polygons - 8 triangles

