# Blender v2.59 (sub 0) OBJ File: 'osl868.blend'
# www.blender.org
o floor_osl868.005
v 2.274090 -0.052525 -12.629449
v 2.257851 -0.052526 -28.935558
v 0.608946 -0.052526 -31.303417
v 1.904410 -0.052526 -31.061634
v 2.274261 -0.052525 -12.904563
v 1.959264 -0.052525 -12.909528
v 2.273593 -0.052526 -25.789034
v 2.274093 -0.052526 -24.378477
v 2.274117 -0.052526 -22.767918
v 2.274096 -0.052526 -24.178476
v 2.274140 -0.052526 -21.157360
v 2.274119 -0.052526 -22.567919
v 2.274164 -0.052525 -19.546801
v 2.274143 -0.052526 -20.957359
v 2.274188 -0.052525 -17.936241
v 2.274167 -0.052525 -19.346800
v 2.274211 -0.052525 -16.325682
v 2.274190 -0.052525 -17.736240
v 2.274235 -0.052525 -14.715122
v 2.274214 -0.052525 -16.125681
v 2.274259 -0.052525 -13.104563
v 2.274238 -0.052525 -14.515122
v 0.911209 -0.052526 -25.986506
v 0.911209 -0.052525 -12.926048
v 2.273522 -0.052526 -25.989035
v 1.959264 -0.052526 -25.988451
v 2.274090 -0.052526 -28.735037
v 0.911209 -0.052526 -24.378908
v 0.911209 -0.052526 -25.786821
v 1.959264 -0.052526 -25.788525
v 1.959264 -0.052526 -24.378576
v 1.959264 -0.052526 -22.768702
v 0.911209 -0.052526 -22.771311
v 0.911209 -0.052526 -24.179224
v 1.959264 -0.052526 -24.178650
v 1.959264 -0.052526 -21.158827
v 0.911209 -0.052526 -21.163715
v 0.911209 -0.052526 -22.571627
v 1.959264 -0.052526 -22.568775
v 1.959264 -0.052525 -19.548954
v 0.911209 -0.052525 -19.556118
v 0.911209 -0.052526 -20.964031
v 1.959264 -0.052526 -20.958900
v 1.959264 -0.052525 -17.939079
v 0.911209 -0.052525 -17.948523
v 0.911209 -0.052525 -19.356434
v 1.959264 -0.052525 -19.349026
v 1.959264 -0.052525 -16.329205
v 0.911209 -0.052525 -16.340925
v 0.911209 -0.052525 -17.748838
v 1.959264 -0.052525 -17.739151
v 1.959264 -0.052525 -14.719330
v 0.911209 -0.052525 -14.733329
v 0.911209 -0.052525 -16.141241
v 1.959264 -0.052525 -16.129276
v 1.959264 -0.052525 -13.109455
v 0.911209 -0.052525 -13.125732
v 0.911209 -0.052525 -14.533645
v 1.959264 -0.052525 -14.519403
v 0.587403 -0.052526 -28.938736
v 0.587403 -0.052526 -28.734510
v 1.673229 -0.052526 -29.508148
v 2.274090 -0.052526 -30.311468
v 1.673229 -0.052526 -30.721228
v 2.039275 -0.052526 -30.787960
v 0.609245 -0.052526 -30.785721
v 0.964989 -0.052526 -30.721228
v 0.964989 -0.052526 -29.508148
v 0.609601 -0.052526 -30.167620
v 2.274090 -0.052525 -12.629449
v 2.274090 -0.052524 3.132283
v 1.822948 -0.052526 -31.226938
v 0.964989 -0.052526 -31.303417
v 1.785259 -0.052526 -31.303417
v -2.274077 -0.052525 -12.629449
v -2.257839 -0.052526 -28.935558
v -0.608934 -0.052526 -31.303417
v -1.904397 -0.052526 -31.061634
v -2.274249 -0.052525 -12.904563
v -1.959252 -0.052525 -12.909528
v -2.273581 -0.052526 -25.789034
v -2.274081 -0.052526 -24.378477
v -2.274105 -0.052526 -22.767918
v -2.274083 -0.052526 -24.178476
v -2.274128 -0.052526 -21.157360
v -2.274107 -0.052526 -22.567919
v -2.274152 -0.052525 -19.546801
v -2.274131 -0.052526 -20.957359
v -2.274176 -0.052525 -17.936241
v -2.274154 -0.052525 -19.346800
v -2.274199 -0.052525 -16.325682
v -2.274178 -0.052525 -17.736240
v -2.274223 -0.052525 -14.715122
v -2.274202 -0.052525 -16.125681
v -2.274246 -0.052525 -13.104563
v -2.274225 -0.052525 -14.515122
v -0.911197 -0.052526 -25.986506
v 0.000006 -0.052526 -25.984818
v 0.000006 -0.052525 -12.634504
v -0.911197 -0.052525 -12.926048
v 0.000006 -0.052526 -25.785343
v 0.000006 -0.052526 -22.773586
v 0.000006 -0.052526 -22.574114
v 0.000006 -0.052525 -16.351259
v 0.000006 -0.052525 -14.745705
v 0.000006 -0.052525 -16.151793
v 0.000006 -0.052525 -13.140162
v 0.000006 -0.052525 -14.546239
v 0.000006 -0.052525 -17.956823
v 0.000006 -0.052525 -17.757357
v 0.000006 -0.052525 -19.562401
v 0.000006 -0.052525 -19.362930
v 0.000006 -0.052526 -24.179724
v 0.000006 -0.052526 -24.379196
v 0.000006 -0.052526 -20.968517
v 0.000006 -0.052526 -21.167988
v -2.274077 -0.052526 -28.735037
v -1.959252 -0.052526 -25.988451
v -2.273510 -0.052526 -25.989035
v -1.959252 -0.052526 -25.788525
v -0.911197 -0.052526 -25.786821
v -0.911197 -0.052526 -24.378908
v -1.959252 -0.052526 -24.378576
v -1.959252 -0.052526 -22.768702
v -1.959252 -0.052526 -24.178650
v -0.911197 -0.052526 -24.179224
v -0.911197 -0.052526 -22.771311
v -1.959252 -0.052526 -21.158827
v -1.959252 -0.052526 -22.568775
v -0.911197 -0.052526 -22.571627
v -0.911197 -0.052526 -21.163715
v -1.959252 -0.052525 -19.548954
v -1.959252 -0.052526 -20.958900
v -0.911197 -0.052526 -20.964031
v -0.911197 -0.052525 -19.556118
v -1.959252 -0.052525 -17.939079
v -1.959252 -0.052525 -19.349026
v -0.911197 -0.052525 -19.356434
v -0.911197 -0.052525 -17.948523
v -1.959252 -0.052525 -16.329205
v -1.959252 -0.052525 -17.739151
v -0.911197 -0.052525 -17.748838
v -0.911197 -0.052525 -16.340925
v -1.959252 -0.052525 -14.719330
v -1.959252 -0.052525 -16.129276
v -0.911197 -0.052525 -16.141241
v -0.911197 -0.052525 -14.733329
v -1.959252 -0.052525 -13.109455
v -1.959252 -0.052525 -14.519403
v -0.911197 -0.052525 -14.533645
v -0.911197 -0.052525 -13.125732
v -0.587391 -0.052526 -28.734510
v -0.587391 -0.052526 -28.938736
v 0.000006 -0.052526 -28.941914
v 0.000006 -0.052526 -28.733984
v 0.000006 -0.052526 -30.167620
v -2.039263 -0.052526 -30.787960
v -1.673217 -0.052526 -30.721228
v -1.673217 -0.052526 -29.508148
v -2.274077 -0.052526 -30.311468
v -0.964977 -0.052526 -29.508148
v -0.609588 -0.052526 -30.167620
v -0.964977 -0.052526 -30.721228
v -0.609232 -0.052526 -30.785721
v -2.274077 -0.052524 3.132283
v -2.274077 -0.052525 -12.629449
v 0.000006 -0.052525 -12.634504
v 0.000006 -0.052524 3.132284
v -1.785247 -0.052526 -31.303417
v -0.964977 -0.052526 -31.303417
v -1.822935 -0.052526 -31.226938
vt 0.296696 0.284170
vt 0.267527 0.147626
vt 0.296696 0.147652
vt 0.251448 0.284086
vt 0.183770 0.147600
vt 0.199404 0.283989
vt 0.199404 0.933460
vt 0.183770 0.947368
vt 0.183762 0.933706
vt 0.251448 0.932639
vt 0.296696 0.947117
vt 0.183770 0.069318
vt 0.213608 0.109209
vt 0.184577 0.137643
vt 0.296696 0.137327
vt 0.248777 0.109209
vt 0.296696 0.076461
vt 0.267527 0.137485
vt 0.206173 0.023858
vt 0.213608 0.048970
vt 0.202128 0.032067
vt 0.266443 0.045768
vt 0.248777 0.048970
vt 0.248777 0.020060
vt 0.266458 0.020060
vt 0.195431 0.045657
vt 0.199404 0.693631
vt 0.183765 0.693776
vt 0.183766 0.683844
vt 0.199404 0.683703
vt 0.199404 0.613689
vt 0.183767 0.613799
vt 0.183767 0.603867
vt 0.199404 0.603761
vt 0.199404 0.373860
vt 0.183770 0.373869
vt 0.183770 0.363937
vt 0.199404 0.363932
vt 0.199404 0.533746
vt 0.183768 0.533822
vt 0.183768 0.523891
vt 0.199404 0.523818
vt 0.199404 0.453803
vt 0.183769 0.453846
vt 0.183769 0.443914
vt 0.199404 0.443875
vt 0.199404 0.293917
vt 0.183795 0.293892
vt 0.183799 0.283961
vt 0.199404 0.773574
vt 0.183764 0.773753
vt 0.183764 0.763821
vt 0.199404 0.763646
vt 0.183762 0.923775
vt 0.199404 0.923532
vt 0.199404 0.853517
vt 0.183763 0.853729
vt 0.183763 0.843798
vt 0.199404 0.843589
vt 0.296696 0.453538
vt 0.251448 0.443745
vt 0.296696 0.443632
vt 0.251448 0.453661
vt 0.296696 0.294075
vt 0.251448 0.294002
vt 0.296696 0.772456
vt 0.251448 0.763064
vt 0.296696 0.762551
vt 0.251448 0.772980
vt 0.296696 0.922007
vt 0.251448 0.922723
vt 0.296696 0.852184
vt 0.251448 0.842894
vt 0.296696 0.842279
vt 0.251448 0.852810
vt 0.251448 0.363916
vt 0.296696 0.363901
vt 0.251448 0.373832
vt 0.296696 0.373807
vt 0.296696 0.523363
vt 0.251448 0.523575
vt 0.296696 0.603093
vt 0.251448 0.533491
vt 0.296696 0.533268
vt 0.251448 0.603405
vt 0.296696 0.682822
vt 0.251448 0.613321
vt 0.296696 0.612998
vt 0.251448 0.683234
vt 0.251448 0.693150
vt 0.296696 0.692727
vt 0.266425 0.076461
vt 0.687220 0.878421
vt 0.574294 0.095729
vt 0.687220 0.095477
vt 0.574294 0.878421
vt 0.208045 0.020060
vt 0.325865 0.147626
vt 0.341945 0.284086
vt 0.409622 0.147600
vt 0.393989 0.283989
vt 0.409622 0.947368
vt 0.393989 0.933460
vt 0.409631 0.933706
vt 0.341945 0.932639
vt 0.408816 0.137643
vt 0.379785 0.109209
vt 0.409622 0.069318
vt 0.344615 0.109209
vt 0.325865 0.137485
vt 0.391265 0.032067
vt 0.379785 0.048970
vt 0.387219 0.023858
vt 0.344615 0.020060
vt 0.326950 0.045768
vt 0.326935 0.020060
vt 0.344615 0.048970
vt 0.397962 0.045657
vt 0.409627 0.683844
vt 0.409627 0.693776
vt 0.393989 0.693631
vt 0.393989 0.683703
vt 0.409626 0.603867
vt 0.409626 0.613799
vt 0.393989 0.613689
vt 0.393989 0.603761
vt 0.409622 0.363937
vt 0.409622 0.373869
vt 0.393989 0.373860
vt 0.393989 0.363932
vt 0.409625 0.523891
vt 0.409625 0.533822
vt 0.393989 0.533746
vt 0.393989 0.523818
vt 0.409624 0.443914
vt 0.409624 0.453846
vt 0.393989 0.453803
vt 0.393989 0.443875
vt 0.409598 0.293892
vt 0.409594 0.283961
vt 0.393989 0.293917
vt 0.409628 0.763821
vt 0.409628 0.773753
vt 0.393989 0.773574
vt 0.393989 0.763646
vt 0.409631 0.923775
vt 0.393989 0.923532
vt 0.409629 0.843798
vt 0.409630 0.853729
vt 0.393989 0.853517
vt 0.393989 0.843589
vt 0.341945 0.443745
vt 0.341945 0.453661
vt 0.341945 0.294002
vt 0.341945 0.763064
vt 0.341945 0.772980
vt 0.341945 0.922723
vt 0.341945 0.842894
vt 0.341945 0.852810
vt 0.341945 0.363916
vt 0.341945 0.373832
vt 0.341945 0.523575
vt 0.341945 0.533491
vt 0.341945 0.603405
vt 0.341945 0.613321
vt 0.341945 0.683234
vt 0.341945 0.693150
vt 0.326967 0.076461
vt 0.800146 0.095729
vt 0.800146 0.878421
vt 0.385348 0.020060
vn -0.000000 1.000000 -0.000000
s off
f 98/1/1 61/2/1 155/3/1
f 98/1/1 23/4/1 61/2/1
f 27/5/1 23/4/1 26/6/1
f 27/5/1 61/2/1 23/4/1
f 6/7/1 1/8/1 5/9/1
f 1/8/1 24/10/1 99/11/1
f 1/8/1 6/7/1 24/10/1
f 63/12/1 62/13/1 2/14/1
f 154/15/1 68/16/1 156/17/1
f 154/15/1 60/18/1 68/16/1
f 60/18/1 2/14/1 62/13/1
f 68/16/1 60/18/1 62/13/1
f 72/19/1 64/20/1 4/21/1
f 66/22/1 67/23/1 73/24/1
f 3/25/1 66/22/1 73/24/1
f 73/24/1 67/23/1 64/20/1
f 64/20/1 72/19/1 73/24/1
f 4/21/1 64/20/1 65/26/1
f 51/27/1 18/28/1 15/29/1
f 15/29/1 44/30/1 51/27/1
f 47/31/1 16/32/1 13/33/1
f 13/33/1 40/34/1 47/31/1
f 35/35/1 10/36/1 8/37/1
f 8/37/1 31/38/1 35/35/1
f 43/39/1 14/40/1 11/41/1
f 11/41/1 36/42/1 43/39/1
f 39/43/1 12/44/1 9/45/1
f 9/45/1 32/46/1 39/43/1
f 26/6/1 30/47/1 7/48/1
f 25/49/1 26/6/1 7/48/1
f 55/50/1 20/51/1 17/52/1
f 17/52/1 48/53/1 55/50/1
f 6/7/1 5/9/1 21/54/1
f 21/54/1 56/55/1 6/7/1
f 59/56/1 22/57/1 19/58/1
f 19/58/1 52/59/1 59/56/1
f 8/37/1 30/47/1 31/38/1
f 8/37/1 7/48/1 30/47/1
f 32/46/1 9/45/1 10/36/1
f 10/36/1 35/35/1 32/46/1
f 36/42/1 11/41/1 12/44/1
f 12/44/1 39/43/1 36/42/1
f 40/34/1 13/33/1 14/40/1
f 14/40/1 43/39/1 40/34/1
f 44/30/1 15/29/1 16/32/1
f 16/32/1 47/31/1 44/30/1
f 48/53/1 17/52/1 18/28/1
f 18/28/1 51/27/1 48/53/1
f 52/59/1 19/58/1 20/51/1
f 20/51/1 55/50/1 52/59/1
f 56/55/1 21/54/1 22/57/1
f 22/57/1 59/56/1 56/55/1
f 103/60/1 33/61/1 102/62/1
f 103/60/1 38/63/1 33/61/1
f 98/1/1 101/64/1 29/65/1
f 29/65/1 23/4/1 98/1/1
f 106/66/1 49/67/1 104/68/1
f 106/66/1 54/69/1 49/67/1
f 107/70/1 99/11/1 24/10/1
f 24/10/1 57/71/1 107/70/1
f 108/72/1 53/73/1 105/74/1
f 108/72/1 58/75/1 53/73/1
f 101/64/1 28/76/1 29/65/1
f 101/64/1 114/77/1 28/76/1
f 102/62/1 34/78/1 113/79/1
f 102/62/1 33/61/1 34/78/1
f 116/80/1 38/63/1 103/60/1
f 116/80/1 37/81/1 38/63/1
f 111/82/1 42/83/1 115/84/1
f 111/82/1 41/85/1 42/83/1
f 109/86/1 46/87/1 112/88/1
f 109/86/1 45/89/1 46/87/1
f 104/68/1 50/90/1 110/91/1
f 104/68/1 49/67/1 50/90/1
f 105/74/1 54/69/1 106/66/1
f 105/74/1 53/73/1 54/69/1
f 107/70/1 58/75/1 108/72/1
f 107/70/1 57/71/1 58/75/1
f 110/91/1 45/89/1 109/86/1
f 110/91/1 50/90/1 45/89/1
f 112/88/1 41/85/1 111/82/1
f 112/88/1 46/87/1 41/85/1
f 113/79/1 28/76/1 114/77/1
f 113/79/1 34/78/1 28/76/1
f 115/84/1 37/81/1 116/80/1
f 115/84/1 42/83/1 37/81/1
f 27/5/1 26/6/1 25/49/1
f 31/38/1 29/65/1 28/76/1
f 31/38/1 30/47/1 29/65/1
f 33/61/1 32/46/1 35/35/1
f 35/35/1 34/78/1 33/61/1
f 37/81/1 36/42/1 39/43/1
f 39/43/1 38/63/1 37/81/1
f 41/85/1 40/34/1 43/39/1
f 43/39/1 42/83/1 41/85/1
f 45/89/1 44/30/1 47/31/1
f 47/31/1 46/87/1 45/89/1
f 49/67/1 48/53/1 51/27/1
f 51/27/1 50/90/1 49/67/1
f 53/73/1 52/59/1 55/50/1
f 55/50/1 54/69/1 53/73/1
f 57/71/1 56/55/1 59/56/1
f 59/56/1 58/75/1 57/71/1
f 155/3/1 60/18/1 154/15/1
f 155/3/1 61/2/1 60/18/1
f 156/17/1 68/16/1 69/92/1
f 64/20/1 62/13/1 63/12/1
f 65/26/1 64/20/1 63/12/1
f 69/92/1 67/23/1 66/22/1
f 69/92/1 68/16/1 67/23/1
f 168/93/1 70/94/1 167/95/1
f 168/93/1 71/96/1 70/94/1
f 74/97/1 73/24/1 72/19/1
f 98/1/1 152/98/1 97/99/1
f 98/1/1 155/3/1 152/98/1
f 117/100/1 97/99/1 152/98/1
f 117/100/1 118/101/1 97/99/1
f 75/102/1 80/103/1 79/104/1
f 75/102/1 100/105/1 80/103/1
f 75/102/1 99/11/1 100/105/1
f 76/106/1 159/107/1 160/108/1
f 161/109/1 153/110/1 154/15/1
f 156/17/1 161/109/1 154/15/1
f 159/107/1 153/110/1 161/109/1
f 159/107/1 76/106/1 153/110/1
f 78/111/1 158/112/1 171/113/1
f 170/114/1 164/115/1 77/116/1
f 170/114/1 163/117/1 164/115/1
f 158/112/1 163/117/1 170/114/1
f 170/114/1 171/113/1 158/112/1
f 157/118/1 158/112/1 78/111/1
f 89/119/1 92/120/1 141/121/1
f 141/121/1 136/122/1 89/119/1
f 87/123/1 90/124/1 137/125/1
f 137/125/1 132/126/1 87/123/1
f 82/127/1 84/128/1 125/129/1
f 125/129/1 123/130/1 82/127/1
f 85/131/1 88/132/1 133/133/1
f 133/133/1 128/134/1 85/131/1
f 83/135/1 86/136/1 129/137/1
f 129/137/1 124/138/1 83/135/1
f 81/139/1 118/101/1 119/140/1
f 81/139/1 120/141/1 118/101/1
f 91/142/1 94/143/1 145/144/1
f 145/144/1 140/145/1 91/142/1
f 95/146/1 79/104/1 80/103/1
f 80/103/1 148/147/1 95/146/1
f 93/148/1 96/149/1 149/150/1
f 149/150/1 144/151/1 93/148/1
f 82/127/1 120/141/1 81/139/1
f 82/127/1 123/130/1 120/141/1
f 84/128/1 83/135/1 124/138/1
f 124/138/1 125/129/1 84/128/1
f 86/136/1 85/131/1 128/134/1
f 128/134/1 129/137/1 86/136/1
f 88/132/1 87/123/1 132/126/1
f 132/126/1 133/133/1 88/132/1
f 90/124/1 89/119/1 136/122/1
f 136/122/1 137/125/1 90/124/1
f 92/120/1 91/142/1 140/145/1
f 140/145/1 141/121/1 92/120/1
f 94/143/1 93/148/1 144/151/1
f 144/151/1 145/144/1 94/143/1
f 96/149/1 95/146/1 148/147/1
f 148/147/1 149/150/1 96/149/1
f 127/152/1 130/153/1 103/60/1
f 102/62/1 127/152/1 103/60/1
f 121/154/1 101/64/1 98/1/1
f 98/1/1 97/99/1 121/154/1
f 143/155/1 146/156/1 106/66/1
f 104/68/1 143/155/1 106/66/1
f 100/105/1 99/11/1 107/70/1
f 107/70/1 151/157/1 100/105/1
f 147/158/1 108/72/1 105/74/1
f 147/158/1 150/159/1 108/72/1
f 101/64/1 122/160/1 114/77/1
f 101/64/1 121/154/1 122/160/1
f 126/161/1 127/152/1 102/62/1
f 113/79/1 126/161/1 102/62/1
f 130/153/1 131/162/1 116/80/1
f 103/60/1 130/153/1 116/80/1
f 134/163/1 135/164/1 111/82/1
f 115/84/1 134/163/1 111/82/1
f 138/165/1 139/166/1 109/86/1
f 112/88/1 138/165/1 109/86/1
f 142/167/1 143/155/1 104/68/1
f 110/91/1 142/167/1 104/68/1
f 146/156/1 147/158/1 105/74/1
f 106/66/1 146/156/1 105/74/1
f 150/159/1 151/157/1 107/70/1
f 108/72/1 150/159/1 107/70/1
f 139/166/1 110/91/1 109/86/1
f 139/166/1 142/167/1 110/91/1
f 135/164/1 112/88/1 111/82/1
f 135/164/1 138/165/1 112/88/1
f 122/160/1 126/161/1 113/79/1
f 114/77/1 122/160/1 113/79/1
f 131/162/1 134/163/1 115/84/1
f 116/80/1 131/162/1 115/84/1
f 119/140/1 118/101/1 117/100/1
f 123/130/1 121/154/1 120/141/1
f 123/130/1 122/160/1 121/154/1
f 125/129/1 124/138/1 127/152/1
f 127/152/1 126/161/1 125/129/1
f 129/137/1 128/134/1 131/162/1
f 131/162/1 130/153/1 129/137/1
f 133/133/1 132/126/1 135/164/1
f 135/164/1 134/163/1 133/133/1
f 137/125/1 136/122/1 139/166/1
f 139/166/1 138/165/1 137/125/1
f 141/121/1 140/145/1 143/155/1
f 143/155/1 142/167/1 141/121/1
f 145/144/1 144/151/1 147/158/1
f 147/158/1 146/156/1 145/144/1
f 149/150/1 148/147/1 151/157/1
f 151/157/1 150/159/1 149/150/1
f 155/3/1 153/110/1 152/98/1
f 155/3/1 154/15/1 153/110/1
f 162/168/1 161/109/1 156/17/1
f 160/108/1 158/112/1 157/118/1
f 160/108/1 159/107/1 158/112/1
f 163/117/1 161/109/1 162/168/1
f 164/115/1 163/117/1 162/168/1
f 168/93/1 166/169/1 165/170/1
f 168/93/1 167/95/1 166/169/1
f 171/113/1 170/114/1 169/171/1
