o panels_osl868
v 1.228335 1.294472 -31.142435
v 1.275789 1.294472 -31.300426
v 1.876072 0.873653 -30.497540
v 1.787754 0.826563 -30.686371
v 1.702504 0.781109 -30.868643
v 1.758506 1.320627 -30.309454
v 1.809354 1.219835 -30.313925
v 1.228335 1.294472 -31.142435
v 1.132575 1.440305 -31.142435
v 1.766523 1.045201 -30.520405
v 1.797542 1.213777 -30.335621
v 1.648998 0.793274 -31.028151
v 1.626186 0.933928 -30.829592
v 1.702504 0.781109 -30.868643
v 1.300553 1.294272 -31.101938
v 1.426158 1.229111 -30.968008
v 1.613524 0.995807 -30.873079
v 1.501372 1.156033 -30.890600
v 1.549869 1.086747 -30.790539
v 1.335102 1.293994 -31.045416
v 1.426158 1.229111 -30.968008
v 1.479087 1.185497 -31.041597
v 1.559203 1.087234 -30.965590
v 1.383521 1.259076 -31.109840
v 1.677180 0.904867 -30.955618
v 1.607236 0.870651 -31.070015
v 1.565474 0.948027 -31.111879
v 1.611466 1.012911 -31.030163
v 1.607844 1.312999 -30.559288
v 1.748945 1.317000 -30.349960
v 1.681021 0.977406 -30.708782
v 1.626186 0.933928 -30.829592
v 1.549869 1.086747 -30.790539
v 1.275789 1.294472 -31.300426
v 1.323673 1.251215 -31.276192
v 1.334957 1.294242 -31.226954
v 1.534037 1.140216 -31.117998
v 1.481904 1.078580 -31.182560
v 1.400909 1.172528 -31.233498
v 1.427660 1.222519 -31.176218
v 1.624133 1.255063 -30.557987
v 1.690094 1.158667 -30.532978
v 1.586297 1.105431 -30.723629
v 1.532734 1.195637 -30.757580
v 1.501372 1.156033 -30.890600
v 0.440034 1.294472 -31.302895
v 0.356226 1.294472 -31.303104
v 0.195259 1.294472 -31.303467
v 0.592025 1.294472 -31.302349
v 1.006126 1.294472 -31.301159
v 0.758084 1.294472 -31.302120
v 1.466743 1.328835 -30.768618
v 1.132575 1.440305 -31.142435
v 1.228335 1.294472 -31.142435
v 1.300553 1.294272 -31.101938
v 1.209490 1.439925 -31.105217
v 0.195259 1.439770 -31.142435
v 0.195259 1.294472 -31.142435
v 0.356226 1.439770 -31.142435
v 0.356226 1.294472 -31.142435
v 0.440034 1.439770 -31.142435
v 0.440034 1.294472 -31.142435
v 0.592025 1.439770 -31.142435
v 0.592025 1.294472 -31.142435
v 0.988871 1.440076 -31.142435
v 0.758084 1.439770 -31.142435
v 0.988871 1.294472 -31.142435
v 0.758084 1.294472 -31.142435
v 1.964389 0.920742 -30.308708
v 1.854376 1.114859 -30.326851
v 1.861032 1.120137 -30.312185
v 1.273824 1.420561 -31.023912
v 1.371754 1.375033 -30.896883
v 1.402042 1.296827 -30.935123
v 1.335102 1.293994 -31.045416
v -1.228323 1.294472 -31.142435
v -1.275777 1.294472 -31.300426
v -1.876060 0.873653 -30.497540
v -1.702492 0.781109 -30.868643
v -1.787742 0.826563 -30.686371
v -1.809342 1.219835 -30.313925
v -1.758494 1.320627 -30.309454
v -1.132563 1.440305 -31.142435
v -1.228323 1.294472 -31.142435
v -1.766511 1.045201 -30.520405
v -1.797530 1.213777 -30.335621
v 0.000006 1.294468 -31.303883
v -1.648986 0.793274 -31.028151
v -1.702492 0.781109 -30.868643
v -1.626174 0.933928 -30.829592
v -1.300541 1.294272 -31.101938
v -1.426146 1.229111 -30.968008
v -1.501360 1.156033 -30.890600
v -1.613512 0.995807 -30.873079
v -1.549857 1.086747 -30.790539
v -1.335090 1.293994 -31.045416
v -1.426146 1.229111 -30.968008
v -1.479074 1.185497 -31.041597
v -1.559191 1.087234 -30.965590
v -1.383509 1.259076 -31.109840
v -1.565462 0.948027 -31.111879
v -1.607224 0.870651 -31.070015
v -1.677168 0.904867 -30.955618
v -1.611454 1.012911 -31.030163
v -1.748933 1.317000 -30.349960
v -1.607832 1.312999 -30.559288
v -1.549857 1.086747 -30.790539
v -1.626174 0.933928 -30.829592
v -1.681009 0.977406 -30.708782
v -1.275777 1.294472 -31.300426
v -1.334945 1.294242 -31.226954
v -1.323661 1.251215 -31.276192
v -1.400897 1.172528 -31.233498
v -1.481892 1.078580 -31.182560
v -1.534025 1.140216 -31.117998
v -1.427648 1.222519 -31.176218
v -1.690082 1.158667 -30.532978
v -1.624121 1.255063 -30.557987
v -1.586285 1.105431 -30.723629
v -1.501360 1.156033 -30.890600
v -1.532722 1.195637 -30.757580
v -0.440022 1.294472 -31.302895
v -0.195247 1.294472 -31.303467
v -0.356214 1.294472 -31.303104
v -0.592013 1.294472 -31.302349
v -1.006114 1.294472 -31.301159
v -0.758072 1.294472 -31.302120
v -1.466731 1.328835 -30.768618
v -1.228323 1.294472 -31.142435
v -1.132563 1.440305 -31.142435
v -1.209478 1.439925 -31.105217
v -1.300541 1.294272 -31.101938
v 0.000006 1.439766 -31.142435
v 0.000006 1.294468 -31.142435
v -0.195247 1.294472 -31.142435
v -0.195247 1.439770 -31.142435
v -0.356214 1.294472 -31.142435
v -0.356214 1.439770 -31.142435
v -0.440022 1.294472 -31.142435
v -0.440022 1.439770 -31.142435
v -0.592013 1.294472 -31.142435
v -0.592013 1.439770 -31.142435
v -0.758072 1.294472 -31.142435
v -0.988859 1.294472 -31.142435
v -0.988859 1.440076 -31.142435
v -0.758072 1.439770 -31.142435
v -1.861020 1.120137 -30.312185
v -1.854364 1.114859 -30.326851
v -1.964377 0.920742 -30.308708
v -1.402030 1.296827 -30.935123
v -1.371742 1.375033 -30.896883
v -1.273812 1.420561 -31.023912
v -1.335090 1.293994 -31.045416
vt 0.775577 0.477258
vt 0.795018 0.517165
vt 0.741869 0.512727
vt 0.582025 0.581002
vt 0.565104 0.631710
vt 0.617559 0.591467
vt 0.539885 0.609714
vt 1.000000 0.005619
vt 0.981637 0.067682
vt 0.894203 0.005772
vt 0.992964 0.424993
vt 0.911270 0.335434
vt 0.998590 0.333544
vt 0.901691 0.418131
vt 0.824394 0.337406
vt 0.814024 0.412177
vt 1.000000 0.425485
vt 0.999542 0.471757
vt 0.989179 0.471769
vt 0.895111 0.473092
vt 0.383313 0.513204
vt 0.405901 0.462596
vt 0.382441 0.442321
vt 0.757692 0.409167
vt 0.740500 0.340042
vt 0.999333 0.517268
vt 0.985066 0.518198
vt 0.467647 0.455326
vt 0.450760 0.495405
vt 0.428810 0.414431
vt 0.660612 0.653096
vt 0.637172 0.606856
vt 0.662508 0.594316
vt 0.634691 0.666456
vt 0.806367 0.475566
vt 0.886335 0.543065
vt 0.793490 0.573803
vt 0.884195 0.519385
vt 0.499631 0.068398
vt 0.576429 0.005569
vt 0.576263 0.068692
vt 0.499987 0.005123
vt 0.454345 0.368290
vt 0.480075 0.398446
vt 0.386862 0.372228
vt 0.514286 0.603635
vt 0.512085 0.502826
vt 0.503884 0.429021
vt 0.545684 0.482316
vt 0.549336 0.543827
vt 0.491783 0.536283
vt 0.531246 0.573094
vt 0.470998 0.570023
vt 0.727230 0.576483
vt 0.713630 0.551541
vt 0.430290 0.537209
vt 0.684384 0.588105
vt 0.603631 0.566305
vt 0.576325 0.526610
vt 0.639438 0.068764
vt 0.672256 0.005835
vt 0.672327 0.068746
vt 0.639451 0.005779
vt 0.731811 0.005912
vt 0.731971 0.068620
vt 0.887684 0.068065
vt 0.796913 0.005784
vt 0.797133 0.068417
vt 0.741843 0.605834
vt 0.944294 0.125055
vt 0.887914 0.125198
vt 0.692737 0.636504
vt 0.576115 0.125782
vt 0.499311 0.125498
vt 0.639429 0.125846
vt 0.672398 0.125814
vt 0.732122 0.125671
vt 0.797337 0.125449
vt 0.260169 0.507859
vt 0.206642 0.514745
vt 0.224543 0.473909
vt 0.564985 0.631479
vt 0.539181 0.609119
vt 0.582118 0.579789
vt 0.618355 0.590313
vt 0.105788 0.001341
vt 0.017665 0.062265
vt 0.000000 0.000000
vt 0.007835 0.427692
vt 0.086226 0.337394
vt 0.097622 0.418826
vt 0.000000 0.337588
vt 0.171839 0.337411
vt 0.184076 0.410731
vt 0.012410 0.473835
vt 0.002183 0.473937
vt 0.000951 0.428352
vt 0.105356 0.473225
vt 0.381706 0.441964
vt 0.403905 0.461993
vt 0.381645 0.511805
vt 0.239332 0.405916
vt 0.254008 0.337699
vt 0.002666 0.519386
vt 0.016983 0.520103
vt 0.464852 0.453943
vt 0.426358 0.415029
vt 0.448783 0.494204
vt 0.374580 0.599726
vt 0.379774 0.662606
vt 0.351798 0.649554
vt 0.347231 0.587463
vt 0.193852 0.473437
vt 0.210204 0.572031
vt 0.115608 0.542979
vt 0.117261 0.519207
vt 0.423545 0.004710
vt 0.423002 0.067831
vt 0.450374 0.368521
vt 0.385189 0.374008
vt 0.475462 0.396723
vt 0.513072 0.602913
vt 0.510505 0.501133
vt 0.500681 0.426917
vt 0.543682 0.479565
vt 0.548513 0.541689
vt 0.489812 0.534640
vt 0.530329 0.571928
vt 0.469292 0.569035
vt 0.290932 0.545617
vt 0.278284 0.571975
vt 0.428230 0.535793
vt 0.323837 0.582062
vt 0.604077 0.564644
vt 0.576160 0.524111
vt 0.359830 0.067193
vt 0.327720 0.003899
vt 0.360524 0.004212
vt 0.326942 0.066805
vt 0.268168 0.003306
vt 0.267304 0.066009
vt 0.111608 0.063704
vt 0.203073 0.002447
vt 0.202148 0.065073
vt 0.264442 0.603019
vt 0.054360 0.120055
vt 0.110735 0.120830
vt 0.317173 0.633280
vt 0.422508 0.124918
vt 0.359197 0.124271
vt 0.326230 0.123869
vt 0.266512 0.123055
vt 0.201303 0.122100
vn -0.928609 -0.233430 0.288436
vn -0.002831 -0.999996 -0.000850
vn -0.002516 -0.999997 -0.000453
vn 0.000000 -1.000000 0.000000
vn -0.786780 -0.402132 0.468259
vn -0.760297 -0.419404 0.496033
vn -0.740925 -0.450223 0.498327
vn -0.771692 -0.430383 0.468254
vn -0.760997 -0.385354 0.521907
vn -0.771982 -0.399730 0.494226
vn -0.733489 -0.436316 0.521173
vn -0.771972 -0.399722 0.494249
vn -0.886772 -0.373146 -0.272758
vn -0.740923 -0.450221 0.498331
vn -0.737790 -0.487712 0.466693
vn -0.889930 -0.385006 0.244529
vn -0.752075 -0.402558 0.521853
vn -0.836381 -0.546000 -0.048494
vn -0.838295 -0.543086 -0.048151
vn -0.470765 -0.275458 0.838155
vn -0.419800 -0.275658 0.864743
vn -0.714480 -0.468357 0.519769
vn -0.743782 -0.445813 0.498036
vn -0.789082 -0.349051 0.505484
vn -0.856898 -0.230569 0.461046
vn -0.798579 -0.303786 0.519602
vn -0.745889 -0.366013 0.556493
vn 0.000021 -1.000000 0.000000
vn -0.823436 -0.148070 0.547748
vn -0.946903 0.031136 0.320008
vn -0.886767 -0.373151 -0.272767
vn -0.886768 -0.373151 -0.272767
vn -0.005818 -0.999982 -0.001362
vn -0.822927 -0.116908 0.555989
vn -0.726904 -0.097259 0.679817
vn -0.619137 -0.785012 0.020633
vn -0.618759 -0.785316 0.020405
vn -0.582112 -0.813102 0.003207
vn -0.618941 -0.785179 0.020178
vn -0.813214 -0.461676 0.354314
vn -0.771025 -0.636719 -0.010450
vn -0.671879 -0.739287 -0.045097
vn -0.837576 -0.544365 -0.046176
vn -0.787712 -0.614490 -0.043712
vn -0.585486 -0.810683 -0.000640
vn -0.740515 -0.488071 0.461979
vn -0.837255 -0.544428 -0.051011
vn -0.723438 -0.680391 -0.117069
vn -0.618912 -0.785183 0.020878
vn -0.828647 -0.128017 0.544937
vn -0.814339 -0.133983 0.564713
vn -0.807937 -0.214835 0.548711
vn -0.806638 -0.283850 0.518426
vn -0.714478 -0.468355 0.519773
vn -0.716809 -0.485795 0.500189
vn -0.693912 -0.455863 0.557383
vn -0.728978 -0.423903 0.537491
vn -0.655614 -0.390015 0.646575
vn -0.611972 -0.263480 0.745700
vn -0.734021 -0.303390 0.607591
vn -0.824959 -0.312633 0.470854
vn -0.761005 -0.385328 0.521914
vn -0.858879 -0.398897 0.321261
vn -0.804297 -0.441744 0.397453
vn -0.774475 -0.493481 0.395810
vn -0.000000 0.000000 1.000000
vn -0.763544 -0.448592 0.464506
vn -0.747432 -0.456432 0.482716
vn -0.775607 -0.393431 0.493604
vn -0.777723 -0.450944 0.437945
vn -0.731234 -0.506568 0.456822
vn 0.928609 -0.233430 0.288436
vn 0.002516 -0.999997 -0.000453
vn 0.002831 -0.999996 -0.000850
vn 0.760297 -0.419404 0.496034
vn 0.786780 -0.402132 0.468260
vn 0.771692 -0.430383 0.468254
vn 0.740925 -0.450223 0.498326
vn 0.760997 -0.385353 0.521907
vn 0.771984 -0.399732 0.494221
vn 0.771972 -0.399722 0.494249
vn 0.733489 -0.436316 0.521174
vn 0.886772 -0.373145 -0.272759
vn 0.737790 -0.487712 0.466693
vn 0.740923 -0.450221 0.498332
vn 0.752075 -0.402558 0.521853
vn 0.889930 -0.385006 0.244531
vn 0.838295 -0.543086 -0.048151
vn 0.836380 -0.546000 -0.048493
vn 0.419799 -0.275658 0.864744
vn 0.470765 -0.275457 0.838155
vn 0.743782 -0.445813 0.498036
vn 0.714480 -0.468358 0.519768
vn 0.789082 -0.349051 0.505484
vn 0.856898 -0.230569 0.461046
vn 0.745889 -0.366013 0.556493
vn 0.798578 -0.303786 0.519603
vn -0.000021 -1.000000 0.000000
vn 0.946903 0.031136 0.320008
vn 0.823436 -0.148070 0.547748
vn 0.886768 -0.373151 -0.272767
vn 0.886768 -0.373150 -0.272767
vn 0.005818 -0.999982 -0.001362
vn 0.726904 -0.097259 0.679817
vn 0.822927 -0.116908 0.555989
vn 0.618758 -0.785317 0.020400
vn 0.619141 -0.785009 0.020631
vn 0.618946 -0.785174 0.020180
vn 0.582112 -0.813102 0.003207
vn 0.813214 -0.461677 0.354313
vn 0.671883 -0.739284 -0.045091
vn 0.771024 -0.636721 -0.010446
vn 0.787713 -0.614490 -0.043712
vn 0.837576 -0.544366 -0.046176
vn 0.585485 -0.810683 -0.000640
vn 0.740515 -0.488072 0.461978
vn 0.723433 -0.680396 -0.117072
vn 0.837255 -0.544428 -0.051011
vn 0.618912 -0.785183 0.020879
vn 0.814339 -0.133983 0.564713
vn 0.828647 -0.128017 0.544937
vn 0.807937 -0.214835 0.548711
vn 0.806638 -0.283850 0.518425
vn 0.714478 -0.468356 0.519772
vn 0.716809 -0.485794 0.500189
vn 0.693912 -0.455863 0.557383
vn 0.655614 -0.390016 0.646574
vn 0.728978 -0.423904 0.537491
vn 0.734022 -0.303390 0.607590
vn 0.611972 -0.263480 0.745700
vn 0.761005 -0.385328 0.521914
vn 0.824959 -0.312633 0.470854
vn 0.804297 -0.441744 0.397453
vn 0.858879 -0.398897 0.321260
vn 0.774475 -0.493481 0.395810
vn 0.747432 -0.456432 0.482716
vn 0.763544 -0.448592 0.464506
vn 0.775610 -0.393432 0.493600
vn 0.731234 -0.506568 0.456821
vn 0.777723 -0.450944 0.437945
s off
f 33/1/1 44/2/1 45/3/1
f 36/4/2 1/5/2 34/6/2
f 15/7/3 1/5/3 36/4/3
f 2/8/4 54/9/4 50/10/4
f 70/11/5 3/12/5 69/13/5
f 70/11/6 10/14/6 3/12/6
f 4/15/7 10/14/7 31/16/7
f 4/15/8 3/12/8 10/14/8
f 71/17/9 7/18/9 11/19/9
f 11/19/10 70/11/10 71/17/10
f 10/14/11 11/19/11 42/20/11
f 10/14/12 70/11/12 11/19/12
f 19/21/13 17/22/13 13/23/13
f 4/15/14 31/16/14 32/24/14
f 5/25/15 4/15/15 32/24/15
f 11/19/16 6/26/16 30/27/16
f 11/19/17 7/18/17 6/26/17
f 28/28/18 17/22/18 23/29/18
f 28/28/19 25/30/19 17/22/19
f 56/31/20 8/32/20 55/33/20
f 56/31/21 9/34/21 8/32/21
f 31/16/22 42/20/22 43/35/22
f 31/16/23 10/14/23 42/20/23
f 29/36/24 52/37/24 44/2/24
f 44/2/25 41/38/25 29/36/25
f 30/27/26 42/20/26 11/19/26
f 30/27/27 41/38/27 42/20/27
f 134/39/28 48/40/28 58/41/28
f 134/39/28 87/42/28 48/40/28
f 12/43/29 25/30/29 26/44/29
f 12/43/30 14/45/30 25/30/30
f 25/30/31 13/23/31 17/22/31
f 25/30/32 14/45/32 13/23/32
f 20/46/33 15/7/33 36/4/33
f 37/47/34 27/48/34 28/28/34
f 37/47/35 38/49/35 27/48/35
f 40/50/36 22/51/36 24/52/36
f 40/50/37 37/47/37 22/51/37
f 24/52/38 16/53/38 20/46/38
f 24/52/39 22/51/39 16/53/39
f 74/54/40 21/55/40 45/3/40
f 18/56/41 22/51/41 23/29/41
f 18/56/42 16/53/42 22/51/42
f 19/21/43 23/29/43 17/22/43
f 19/21/44 18/56/44 23/29/44
f 24/52/45 20/46/45 36/4/45
f 75/57/46 21/55/46 74/54/46
f 23/29/47 37/47/47 28/28/47
f 23/29/48 22/51/48 37/47/48
f 24/52/49 36/4/49 40/50/49
f 28/28/50 26/44/50 25/30/50
f 28/28/51 27/48/51 26/44/51
f 30/27/52 29/36/52 41/38/52
f 44/2/53 33/1/53 43/35/53
f 31/16/54 43/35/54 33/1/54
f 33/1/55 32/24/55 31/16/55
f 34/6/56 35/58/56 36/4/56
f 39/59/57 36/4/57 35/58/57
f 39/59/58 40/50/58 36/4/58
f 40/50/59 38/49/59 37/47/59
f 40/50/60 39/59/60 38/49/60
f 43/35/61 41/38/61 44/2/61
f 43/35/62 42/20/62 41/38/62
f 45/3/63 44/2/63 52/37/63
f 74/54/64 45/3/64 52/37/64
f 60/60/4 46/61/4 62/62/4
f 60/60/4 47/63/4 46/61/4
f 62/62/4 49/64/4 64/65/4
f 62/62/4 46/61/4 49/64/4
f 50/10/4 54/9/4 67/66/4
f 58/41/4 47/63/4 60/60/4
f 58/41/4 48/40/4 47/63/4
f 64/65/4 51/67/4 68/68/4
f 64/65/4 49/64/4 51/67/4
f 67/66/4 68/68/4 51/67/4
f 51/67/4 50/10/4 67/66/4
f 74/54/65 52/37/65 73/69/65
f 67/66/66 53/70/66 65/71/66
f 67/66/66 54/9/66 53/70/66
f 72/72/67 55/33/67 75/57/67
f 72/72/68 56/31/68 55/33/68
f 58/41/66 57/73/66 133/74/66
f 134/39/66 58/41/66 133/74/66
f 59/75/66 57/73/66 58/41/66
f 58/41/66 60/60/66 59/75/66
f 61/76/66 59/75/66 60/60/66
f 60/60/66 62/62/66 61/76/66
f 63/77/66 61/76/66 62/62/66
f 62/62/66 64/65/66 63/77/66
f 66/78/66 63/77/66 64/65/66
f 64/65/66 68/68/66 66/78/66
f 67/66/66 65/71/66 66/78/66
f 68/68/66 67/66/66 66/78/66
f 71/17/69 70/11/69 69/13/69
f 75/57/70 73/69/70 72/72/70
f 75/57/71 74/54/71 73/69/71
f 120/79/72 121/80/72 107/81/72
f 76/82/73 91/83/73 111/84/73
f 110/85/74 76/82/74 111/84/74
f 126/86/4 129/87/4 77/88/4
f 148/89/75 78/90/75 85/91/75
f 148/89/76 149/92/76 78/90/76
f 80/93/77 85/91/77 78/90/77
f 80/93/78 109/94/78 85/91/78
f 86/95/79 81/96/79 147/97/79
f 147/97/80 148/89/80 86/95/80
f 85/91/81 86/95/81 148/89/81
f 85/91/82 117/98/82 86/95/82
f 90/99/83 94/100/83 95/101/83
f 108/102/84 80/93/84 79/103/84
f 108/102/85 109/94/85 80/93/85
f 86/95/86 82/104/86 81/96/86
f 86/95/87 105/105/87 82/104/87
f 104/106/88 94/100/88 103/107/88
f 104/106/89 99/108/89 94/100/89
f 84/109/90 83/110/90 131/111/90
f 132/112/91 84/109/91 131/111/91
f 109/94/92 117/98/92 85/91/92
f 109/94/93 119/113/93 117/98/93
f 121/80/94 128/114/94 106/115/94
f 106/115/95 118/116/95 121/80/95
f 105/105/96 117/98/96 118/116/96
f 105/105/97 86/95/97 117/98/97
f 123/117/98 134/39/98 135/118/98
f 123/117/98 87/42/98 134/39/98
f 88/119/99 103/107/99 89/120/99
f 88/119/100 102/121/100 103/107/100
f 103/107/101 90/99/101 89/120/101
f 103/107/102 94/100/102 90/99/102
f 111/84/103 91/83/103 96/122/103
f 115/123/104 101/124/104 114/125/104
f 115/123/105 104/106/105 101/124/105
f 116/126/106 98/127/106 115/123/106
f 116/126/107 100/128/107 98/127/107
f 100/128/108 92/129/108 98/127/108
f 100/128/109 96/122/109 92/129/109
f 120/79/110 97/130/110 150/131/110
f 93/132/111 98/127/111 92/129/111
f 93/132/112 99/108/112 98/127/112
f 95/101/113 99/108/113 93/132/113
f 95/101/114 94/100/114 99/108/114
f 111/84/115 96/122/115 100/128/115
f 150/131/116 97/130/116 153/133/116
f 99/108/117 115/123/117 98/127/117
f 99/108/118 104/106/118 115/123/118
f 116/126/119 111/84/119 100/128/119
f 104/106/120 102/121/120 101/124/120
f 104/106/121 103/107/121 102/121/121
f 118/116/122 106/115/122 105/105/122
f 119/113/123 107/81/123 121/80/123
f 107/81/124 119/113/124 109/94/124
f 109/94/125 108/102/125 107/81/125
f 111/84/126 112/134/126 110/85/126
f 113/135/127 111/84/127 116/126/127
f 113/135/128 112/134/128 111/84/128
f 116/126/129 114/125/129 113/135/129
f 116/126/130 115/123/130 114/125/130
f 119/113/131 118/116/131 117/98/131
f 119/113/132 121/80/132 118/116/132
f 128/114/133 120/79/133 150/131/133
f 128/114/134 121/80/134 120/79/134
f 137/136/4 122/137/4 124/138/4
f 137/136/4 139/139/4 122/137/4
f 139/139/4 125/140/4 122/137/4
f 139/139/4 141/141/4 125/140/4
f 144/142/4 129/87/4 126/86/4
f 135/118/4 124/138/4 123/117/4
f 135/118/4 137/136/4 124/138/4
f 141/141/4 127/143/4 125/140/4
f 141/141/4 143/144/4 127/143/4
f 127/143/4 144/142/4 126/86/4
f 127/143/4 143/144/4 144/142/4
f 151/145/135 128/114/135 150/131/135
f 144/142/66 130/146/66 129/87/66
f 144/142/66 145/147/66 130/146/66
f 132/112/136 131/111/136 152/148/136
f 153/133/137 132/112/137 152/148/137
f 133/74/66 136/149/66 135/118/66
f 135/118/66 134/39/66 133/74/66
f 136/149/66 137/136/66 135/118/66
f 136/149/66 138/150/66 137/136/66
f 138/150/66 139/139/66 137/136/66
f 138/150/66 140/151/66 139/139/66
f 140/151/66 141/141/66 139/139/66
f 140/151/66 142/152/66 141/141/66
f 142/152/66 143/144/66 141/141/66
f 142/152/66 146/153/66 143/144/66
f 146/153/66 144/142/66 143/144/66
f 146/153/66 145/147/66 144/142/66
f 149/92/138 148/89/138 147/97/138
f 153/133/139 151/145/139 150/131/139
f 153/133/140 152/148/140 151/145/140
