o pitinter_osl868
v 0.608946 -0.052526 -31.303417
v 1.649009 0.791602 -31.303417
v 1.751488 0.339867 -31.303417
v 0.429135 2.413599 -28.937071
v 2.257851 -0.052526 -28.935558
v 1.047824 2.163119 -28.936964
v 1.243430 2.050671 -28.936922
v 1.415578 1.904754 -28.936853
v 0.852219 2.275567 -28.937008
v 1.809354 1.219835 -30.313925
v 1.868591 0.842306 -30.625887
v 1.787754 0.826563 -30.686371
v 1.495028 1.671943 -30.336157
v 1.587726 1.758837 -28.936785
v 1.415482 1.738523 -30.337257
v 0.209588 2.436851 -28.937128
v 0.508561 1.623783 -28.938301
v 1.871448 1.374977 -28.936586
v 1.587726 1.758837 -28.936785
v 0.591832 1.226779 -28.938269
v 2.083027 0.949285 -28.936321
v 0.587403 -0.052526 -28.938736
v 2.213665 0.486198 -28.935984
v 0.508561 1.623687 -28.733997
v 0.508561 1.623783 -28.938301
v 0.640494 2.344637 -28.937101
v 0.362058 1.758851 -28.939095
v 0.757670 2.306406 -28.937101
v 0.508561 1.623687 -28.733997
v 0.508561 1.623783 -28.938301
v 0.362058 1.758851 -28.939095
v 0.362058 1.758837 -28.734686
v 0.591832 1.226775 -28.733980
v 0.591832 1.226779 -28.938269
v 0.587403 -0.052526 -28.734510
v 0.587403 -0.052526 -28.938736
v 1.964389 0.920742 -30.308708
v 1.916490 0.881524 -30.467299
v 1.876072 0.873653 -30.497540
v 0.305041 0.733162 -31.030439
v 0.305176 0.790972 -31.031609
v 0.305172 0.791602 -31.303417
v 1.702504 0.781109 -30.868643
v 1.767233 0.791602 -30.961473
v 1.727801 0.791602 -31.092028
v 1.688370 0.791602 -31.222580
v 0.305172 0.791602 -31.303417
v 0.305176 0.790972 -31.031609
v 0.610923 0.791602 -31.303417
v 0.610922 0.791758 -31.030964
v 0.914105 0.791602 -31.303417
v 0.914101 0.792201 -31.030142
v 1.648998 0.793274 -31.028151
v 1.649009 0.791602 -31.303417
v 0.609811 0.505397 -30.559038
v 0.304648 0.505397 -30.782015
v 0.304779 0.627544 -30.853529
v 0.304910 0.695761 -30.941587
v 0.304673 0.505397 -31.303417
v 0.304673 0.505397 -31.303417
v 0.305172 0.791602 -31.303417
v 0.610923 0.791602 -31.303417
v 0.609925 0.505397 -31.303417
v 0.609763 0.505397 -30.166737
v 0.609601 -0.052526 -30.167620
v 0.608946 -0.052526 -31.303417
v 0.609245 -0.052526 -30.785721
v 0.609948 0.505397 -30.782175
v 0.609925 0.505397 -31.303417
v 1.649009 0.791602 -31.303417
v 1.688370 0.791602 -31.222580
v 1.904410 -0.052526 -31.061634
v 1.785259 -0.052526 -31.303417
v 1.751488 0.339867 -31.303417
v 1.793497 0.357829 -31.225965
v 1.822948 -0.052526 -31.226938
v 1.767233 0.791602 -30.961473
v 1.835506 0.375791 -31.095110
v 1.727801 0.791602 -31.092028
v 0.914105 0.791602 -31.303417
v 1.785259 -0.052526 -31.303417
v 0.964989 -0.052526 -31.303417
v 1.868591 0.842306 -30.625887
v 1.916490 0.881524 -30.467299
v 2.039275 -0.052526 -30.787960
v 1.973225 0.434676 -30.666126
v 0.197061 2.324932 -30.333311
v 0.209588 2.436851 -28.937128
v 0.345713 2.302993 -30.333311
v 0.429135 2.413599 -28.937071
v 0.604777 2.228778 -30.333311
v 0.504549 2.261869 -30.333311
v 0.640494 2.344637 -28.937101
v 0.852219 2.275567 -28.937008
v 0.785840 2.149623 -30.333311
v 0.668629 2.198398 -30.333311
v 0.757670 2.306406 -28.937101
v 0.984241 2.052687 -30.333311
v 1.047824 2.163119 -28.936964
v 1.243430 2.050671 -28.936922
v 1.415578 1.904754 -28.936853
v 1.335936 1.805103 -30.338356
v 1.176845 1.938264 -30.340555
v 1.871448 1.374977 -28.936586
v 1.758506 1.320627 -30.309454
v 1.495028 1.671943 -30.336157
v 1.587726 1.758837 -28.936785
v 1.861032 1.120137 -30.312185
v 1.964389 0.920742 -30.308708
v 2.083027 0.949285 -28.936321
v 2.257851 -0.052526 -28.935558
v 2.274090 -0.052526 -30.311468
v 2.087562 0.483563 -30.309977
v 2.213665 0.486198 -28.935984
v -0.608934 -0.052526 -31.303417
v -1.648997 0.791602 -31.303417
v -1.751476 0.339867 -31.303417
v -0.429123 2.413599 -28.937071
v -2.257839 -0.052526 -28.935558
v -1.047812 2.163119 -28.936964
v -1.243418 2.050671 -28.936922
v -1.415566 1.904754 -28.936853
v -0.852207 2.275567 -28.937008
v -1.809342 1.219835 -30.313925
v -1.868579 0.842306 -30.625887
v -1.787742 0.826563 -30.686371
v -1.415470 1.738523 -30.337257
v -1.495015 1.671943 -30.336157
v -1.587714 1.758837 -28.936785
v -0.209576 2.436851 -28.937128
v 0.000006 1.758832 -28.939518
v 0.000006 2.462749 -28.937124
v -1.871436 1.374977 -28.936586
v -0.508549 1.623783 -28.938301
v -1.587714 1.758837 -28.936785
v -2.213653 0.486198 -28.935984
v -0.587391 -0.052526 -28.938736
v -0.591820 1.226779 -28.938269
v -2.083015 0.949285 -28.936321
v 0.000006 1.758832 -28.939518
v 0.000006 1.758832 -28.735117
v -0.508549 1.623783 -28.938301
v -0.508549 1.623687 -28.733997
v -0.757658 2.306406 -28.937101
v -0.362046 1.758851 -28.939095
v -0.640482 2.344637 -28.937101
v -0.508549 1.623687 -28.733997
v -0.362046 1.758837 -28.734686
v -0.362046 1.758851 -28.939095
v -0.508549 1.623783 -28.938301
v -0.587391 -0.052526 -28.938736
v -0.587391 -0.052526 -28.734510
v -0.591820 1.226775 -28.733980
v -0.591820 1.226779 -28.938269
v -1.876060 0.873653 -30.497540
v -1.916478 0.881524 -30.467299
v -1.964377 0.920742 -30.308708
v -0.305160 0.791602 -31.303417
v -0.305164 0.790972 -31.031609
v -0.305029 0.733162 -31.030439
v -1.702492 0.781109 -30.868643
v -1.767220 0.791602 -30.961473
v -1.727789 0.791602 -31.092028
v -1.688358 0.791602 -31.222580
v -0.305164 0.790972 -31.031609
v -0.305160 0.791602 -31.303417
v -0.610910 0.791758 -31.030964
v -0.610911 0.791602 -31.303417
v -1.648986 0.793274 -31.028151
v -0.914089 0.792201 -31.030142
v -0.914093 0.791602 -31.303417
v -1.648997 0.791602 -31.303417
v -0.609799 0.505397 -30.559038
v -0.304635 0.505397 -30.782015
v -0.304661 0.505397 -31.303417
v -0.304898 0.695761 -30.941587
v -0.304767 0.627544 -30.853529
v -0.610911 0.791602 -31.303417
v -0.305160 0.791602 -31.303417
v -0.304661 0.505397 -31.303417
v -0.609913 0.505397 -31.303417
v -0.609751 0.505397 -30.166737
v 0.000006 0.505395 -30.166098
v 0.000006 -0.052526 -30.167620
v -0.609588 -0.052526 -30.167620
v -0.609935 0.505397 -30.782175
v -0.609913 0.505397 -31.303417
v -0.609232 -0.052526 -30.785721
v -0.608934 -0.052526 -31.303417
v -1.648997 0.791602 -31.303417
v -1.688358 0.791602 -31.222580
v -1.904397 -0.052526 -31.061634
v -1.793485 0.357829 -31.225965
v -1.822935 -0.052526 -31.226938
v -1.751476 0.339867 -31.303417
v -1.785247 -0.052526 -31.303417
v -1.727789 0.791602 -31.092028
v -1.835494 0.375791 -31.095110
v -1.767220 0.791602 -30.961473
v -0.964977 -0.052526 -31.303417
v -1.785247 -0.052526 -31.303417
v -0.914093 0.791602 -31.303417
v -1.868579 0.842306 -30.625887
v -1.916478 0.881524 -30.467299
v -1.973213 0.434676 -30.666126
v -2.039263 -0.052526 -30.787960
v 0.000006 2.462749 -28.937124
v 0.000006 2.337328 -30.333311
v -0.209576 2.436851 -28.937128
v -0.197049 2.324932 -30.333311
v -0.345701 2.302993 -30.333311
v -0.429123 2.413599 -28.937071
v -0.640482 2.344637 -28.937101
v -0.504537 2.261869 -30.333311
v -0.604765 2.228778 -30.333311
v -0.852207 2.275567 -28.937008
v -0.757658 2.306406 -28.937101
v -0.668617 2.198398 -30.333311
v -0.785828 2.149623 -30.333311
v -1.047812 2.163119 -28.936964
v -0.984229 2.052687 -30.333311
v -1.335924 1.805103 -30.338356
v -1.415566 1.904754 -28.936853
v -1.243418 2.050671 -28.936922
v -1.176833 1.938264 -30.340555
v -1.871436 1.374977 -28.936586
v -1.587714 1.758837 -28.936785
v -1.495015 1.671943 -30.336157
v -1.758494 1.320627 -30.309454
v -1.861020 1.120137 -30.312185
v -2.083015 0.949285 -28.936321
v -1.964377 0.920742 -30.308708
v -2.087550 0.483563 -30.309977
v -2.274077 -0.052526 -30.311468
v -2.257839 -0.052526 -28.935558
v -2.213653 0.486198 -28.935984
vt 0.381922 0.920732
vt 0.382063 0.840464
vt 0.330840 0.840464
vt 0.217687 0.896918
vt 0.338160 0.961908
vt 0.212829 0.840464
vt 0.232431 0.961908
vt 0.232687 0.344876
vt 0.272745 0.260600
vt 0.263095 0.354798
vt 0.294681 0.358143
vt 0.324833 0.260597
vt 0.025152 0.144129
vt 0.239688 0.184052
vt 0.055591 0.205373
vt 0.000000 0.000000
vt 0.240325 0.000000
vt 0.006357 0.077506
vt 0.174085 0.318762
vt 0.251668 0.241168
vt 0.202226 0.334939
vt 0.145943 0.302584
vt 0.121177 0.281591
vt 0.096410 0.260598
vt 0.215829 0.339376
vt 0.426997 0.663834
vt 0.439780 0.658453
vt 0.387724 0.631066
vt 0.387724 0.672242
vt 0.617370 0.819494
vt 0.649682 0.739104
vt 0.649472 0.819373
vt 0.901769 0.080707
vt 0.895117 0.140951
vt 0.945319 0.139119
vt 0.966069 0.079570
vt 0.381779 0.961908
vt 0.847434 0.146804
vt 0.871275 0.143877
vt 0.848387 0.081651
vt 0.418369 0.394663
vt 0.427555 0.394224
vt 0.440365 0.595638
vt 0.849686 0.210907
vt 0.849123 0.194881
vt 0.650863 0.212764
vt 0.848560 0.178855
vt 0.649666 0.144787
vt 0.474218 0.951315
vt 0.467269 0.974196
vt 0.473095 0.969832
vt 0.485871 0.942588
vt 0.488872 0.902952
vt 0.498202 0.916289
vt 0.559784 0.587760
vt 0.535066 0.387476
vt 0.546485 0.386478
vt 0.535017 0.589862
vt 0.523647 0.388474
vt 0.324833 0.361869
vt 0.820761 0.650163
vt 0.872849 0.620817
vt 0.872849 0.650225
vt 0.820761 0.620756
vt 0.836271 0.552997
vt 0.806880 0.552996
vt 0.806882 0.610599
vt 0.836275 0.610613
vt 0.453968 0.595206
vt 0.472962 0.392115
vt 0.482109 0.593584
vt 0.444418 0.393518
vt 0.893926 0.620933
vt 0.893926 0.650326
vt 0.806956 0.369179
vt 0.836338 0.369179
vt 0.460320 0.997077
vt 0.426828 0.672151
vt 0.505878 0.893363
vt 0.494542 0.884171
vt 0.500213 0.865390
vt 0.505874 0.853761
vt 0.655213 0.853761
vt 0.699203 0.892862
vt 0.699198 0.853761
vt 0.655218 0.892956
vt 0.611597 0.853761
vt 0.611602 0.893075
vt 0.560931 0.819705
vt 0.560757 0.739437
vt 0.452449 0.648639
vt 0.462737 0.631066
vt 0.425767 0.961908
vt 0.425839 0.920732
vt 0.473206 0.819869
vt 0.473056 0.739602
vt 0.724462 0.819092
vt 0.724161 0.738825
vt 0.997705 0.078876
vt 0.984079 0.143023
vt 0.996390 0.144971
vt 0.985683 0.079223
vt 0.988343 0.022333
vt 0.963147 0.018300
vt 0.964699 0.141071
vt 0.921433 0.011624
vt 1.000000 0.024198
vt 0.848806 0.000000
vt 0.361513 0.597522
vt 0.331361 0.597898
vt 0.331361 0.396234
vt 0.359711 0.396055
vt 0.381097 0.395737
vt 0.393099 0.597194
vt 0.403949 0.395142
vt 0.423507 0.596192
vt 0.510251 0.591963
vt 0.500809 0.390469
vt 0.653874 0.278663
vt 0.855102 0.271547
vt 0.650433 0.075764
vt 0.653568 0.000804
vt 0.386571 0.354798
vt 0.376921 0.260600
vt 0.416979 0.344876
vt 0.354985 0.358143
vt 0.594074 0.205373
vt 0.409978 0.184052
vt 0.624514 0.144129
vt 0.643309 0.077506
vt 0.409341 0.000000
vt 0.649666 0.000000
vt 0.447439 0.334939
vt 0.397998 0.241168
vt 0.475581 0.318762
vt 0.503722 0.302584
vt 0.528489 0.281591
vt 0.553256 0.260598
vt 0.433837 0.339376
vt 0.296939 0.820033
vt 0.296429 0.739766
vt 0.329041 0.820033
vt 0.222357 0.595638
vt 0.235167 0.394224
vt 0.244354 0.394663
vt 0.127656 0.387476
vt 0.139075 0.388474
vt 0.127705 0.589862
vt 0.102938 0.587760
vt 0.116238 0.386478
vt 0.768673 0.620817
vt 0.768673 0.650225
vt 0.208755 0.595206
vt 0.189761 0.392115
vt 0.218304 0.393518
vt 0.180613 0.593584
vt 0.747596 0.650326
vt 0.747596 0.620933
vt 0.385354 0.739766
vt 0.385481 0.820033
vt 0.221949 0.820033
vt 0.221949 0.739766
vt 0.301209 0.597522
vt 0.303011 0.396055
vt 0.269623 0.597194
vt 0.281625 0.395737
vt 0.258773 0.395142
vt 0.239215 0.596192
vt 0.152472 0.591963
vt 0.161913 0.390469
vn 0.000000 -0.000000 1.000000
vn 0.000836 0.003005 -0.999995
vn 0.000582 0.003031 -0.999995
vn 0.001169 0.003163 -0.999994
vn 0.001311 0.000029 -0.999999
vn 0.001902 -0.000634 -0.999998
vn 0.001047 0.001432 -0.999998
vn 0.001041 0.001438 -0.999998
vn 0.001276 0.001034 -0.999999
vn 0.005265 -0.000164 -0.999986
vn 0.001396 0.001248 -0.999998
vn 0.999997 -0.002248 0.000528
vn 0.999999 -0.001744 0.000107
vn 0.999999 -0.001264 0.000614
vn -0.911244 -0.265028 0.315268
vn -0.910059 -0.254551 0.327103
vn -0.905970 -0.256230 0.336994
vn -0.427620 -0.898761 0.096797
vn -0.887497 -0.451760 0.090897
vn -0.891969 -0.443274 0.088874
vn -0.884754 -0.457015 0.091365
vn 0.012191 -0.971537 0.236574
vn 0.012197 -0.971537 0.236573
vn 0.104241 -0.987560 0.117727
vn 0.295592 -0.950201 0.098706
vn -0.639981 -0.763128 0.089780
vn -0.643980 -0.759704 0.090223
vn -0.639936 -0.763066 0.090621
vn 0.000402 0.003401 -0.999994
vn 0.001379 0.000208 -0.999999
vn 0.001266 0.000419 -0.999999
vn 0.001373 0.000361 -0.999999
vn 0.001769 -0.000230 -0.999998
vn 0.000014 -1.000000 -0.000068
vn 0.000052 -1.000000 0.000000
vn -0.978693 -0.205327 -0.000004
vn -0.978703 -0.205281 -0.000096
vn -0.496341 -0.863358 0.090881
vn -0.436728 -0.893862 0.101386
vn 0.000961 0.002946 -0.999995
vn -0.678053 -0.735013 -0.000345
vn -0.677831 -0.735218 -0.000050
vn -0.999994 0.003462 0.000000
vn 0.012193 -0.971538 0.236571
vn 0.999997 -0.002336 -0.000020
vn -0.017042 -0.999842 0.005147
vn 0.035443 -0.995506 -0.087812
vn -0.012473 -0.999904 0.006073
vn -0.017042 -0.999842 0.005148
vn 0.000000 -0.999997 -0.002317
vn 0.002570 -0.999996 0.000573
vn 0.000000 -1.000000 0.000573
vn 0.001455 -0.999996 0.002192
vn 0.000000 -0.999998 0.002192
vn 0.001444 -0.999981 0.006074
vn 1.000000 -0.000291 0.000122
vn 1.000000 -0.000780 -0.000576
vn 0.999999 -0.001044 0.000048
vn 0.999999 -0.001647 0.000212
vn 0.001048 -0.001583 0.999998
vn 0.000000 -0.002728 0.999996
vn 0.999998 -0.001755 -0.000578
vn 0.999999 -0.001260 -0.000044
vn -0.880946 -0.199848 0.428947
vn -0.838992 -0.207260 0.503127
vn -0.891641 -0.109098 0.439401
vn -0.947104 -0.068716 0.313484
vn -0.914440 -0.239281 0.326411
vn -0.932056 -0.228085 0.281511
vn -0.923054 -0.206324 0.324655
vn -0.891644 -0.109098 0.439397
vn -0.894334 -0.076970 0.440729
vn -0.870981 -0.063665 0.487175
vn -0.928683 -0.242630 0.280496
vn -0.908143 -0.260969 0.327369
vn -0.902914 -0.265162 0.338283
vn -0.891616 -0.311146 0.328951
vn -0.873760 -0.226132 0.430589
vn -0.122151 -0.988531 0.088801
vn -0.062580 -0.994804 0.080306
vn -0.104963 -0.990857 0.084764
vn -0.145533 -0.986085 0.080351
vn -0.309018 -0.947138 0.086235
vn -0.249597 -0.964038 0.091281
vn -0.309016 -0.947115 0.086498
vn -0.312338 -0.946025 0.086492
vn -0.308626 -0.945913 0.099992
vn -0.382437 -0.919034 0.095484
vn -0.505974 -0.857555 0.092678
vn -0.496338 -0.863359 0.090881
vn -0.643912 -0.759623 0.091379
vn -0.639943 -0.763060 0.090621
vn -0.800984 -0.591984 0.089331
vn -0.800041 -0.593182 0.089830
vn -0.885135 -0.457312 0.086028
vn -0.958677 -0.270381 0.088504
vn -0.958683 -0.270361 0.088498
vn -0.996584 -0.081749 -0.011762
vn -0.940809 -0.327589 0.086974
vn -0.000836 0.003005 -0.999995
vn -0.000582 0.003031 -0.999995
vn -0.001169 0.003163 -0.999994
vn -0.001311 0.000029 -0.999999
vn -0.001902 -0.000634 -0.999998
vn -0.001047 0.001432 -0.999998
vn -0.001276 0.001034 -0.999999
vn -0.001041 0.001438 -0.999998
vn -0.001396 0.001248 -0.999998
vn -0.005265 -0.000164 -0.999986
vn -0.999999 -0.001743 0.000107
vn -0.999997 -0.002249 0.000528
vn -0.999999 -0.001264 0.000609
vn 0.911243 -0.265028 0.315271
vn 0.910058 -0.254554 0.327103
vn 0.905970 -0.256230 0.336994
vn 0.427620 -0.898761 0.096797
vn 0.887497 -0.451760 0.090897
vn 0.891969 -0.443274 0.088874
vn 0.884755 -0.457014 0.091365
vn -0.012190 -0.971537 0.236574
vn -0.012197 -0.971537 0.236573
vn -0.104241 -0.987560 0.117727
vn -0.295594 -0.950201 0.098704
vn 0.639937 -0.763065 0.090621
vn 0.643980 -0.759704 0.090223
vn 0.639985 -0.763124 0.089781
vn -0.000402 0.003401 -0.999994
vn -0.001266 0.000419 -0.999999
vn -0.001379 0.000208 -0.999999
vn -0.001769 -0.000230 -0.999998
vn -0.001373 0.000361 -0.999999
vn -0.000052 -1.000000 -0.000000
vn -0.000014 -1.000000 -0.000068
vn 0.978703 -0.205282 -0.000096
vn 0.978693 -0.205327 -0.000004
vn 0.436728 -0.893862 0.101386
vn 0.496341 -0.863357 0.090881
vn -0.000961 0.002946 -0.999995
vn 0.678053 -0.735013 -0.000345
vn 0.677831 -0.735218 -0.000050
vn 0.999994 0.003462 -0.000000
vn -0.012193 -0.971538 0.236571
vn -0.999997 -0.002336 -0.000020
vn -0.035443 -0.995506 -0.087812
vn 0.017042 -0.999842 0.005147
vn 0.017042 -0.999842 0.005148
vn 0.012473 -0.999904 0.006073
vn -0.002570 -0.999996 0.000573
vn -0.001455 -0.999996 0.002192
vn -0.001444 -0.999981 0.006074
vn -1.000000 -0.000782 -0.000576
vn -1.000000 -0.000292 0.000122
vn -0.999999 -0.001052 0.000050
vn -0.999999 -0.001647 0.000212
vn -0.001048 -0.001583 0.999998
vn -0.999999 -0.001260 -0.000042
vn -0.999998 -0.001755 -0.000576
vn 0.838991 -0.207261 0.503127
vn 0.880946 -0.199848 0.428947
vn 0.947104 -0.068714 0.313484
vn 0.891641 -0.109095 0.439402
vn 0.932056 -0.228086 0.281512
vn 0.914440 -0.239281 0.326411
vn 0.923055 -0.206324 0.324654
vn 0.891642 -0.109096 0.439400
vn 0.870981 -0.063663 0.487175
vn 0.894338 -0.076970 0.440720
vn 0.928685 -0.242631 0.280489
vn 0.902914 -0.265161 0.338283
vn 0.908144 -0.260969 0.327369
vn 0.891617 -0.311145 0.328951
vn 0.873761 -0.226132 0.430587
vn 0.122151 -0.988531 0.088801
vn 0.062580 -0.994804 0.080306
vn 0.104963 -0.990857 0.084764
vn 0.145533 -0.986085 0.080351
vn 0.249597 -0.964038 0.091281
vn 0.309018 -0.947138 0.086235
vn 0.309016 -0.947115 0.086498
vn 0.312338 -0.946025 0.086492
vn 0.308626 -0.945913 0.099992
vn 0.382437 -0.919034 0.095484
vn 0.496338 -0.863359 0.090881
vn 0.505974 -0.857555 0.092678
vn 0.639943 -0.763060 0.090621
vn 0.643912 -0.759623 0.091378
vn 0.800984 -0.591984 0.089331
vn 0.800040 -0.593184 0.089831
vn 0.885135 -0.457313 0.086028
vn 0.958677 -0.270381 0.088505
vn 0.958683 -0.270361 0.088498
vn 0.940809 -0.327587 0.086974
vn 0.996584 -0.081749 -0.011761
s off
f 63/1/1 1/2/1 82/3/1
f 3/4/1 80/5/1 81/6/1
f 3/4/1 2/7/1 80/5/1
f 26/8/2 27/9/2 4/10/2
f 16/11/3 4/10/3 27/9/3
f 27/9/4 131/12/4 16/11/4
f 21/13/5 20/14/5 18/15/5
f 5/16/6 22/17/6 23/18/6
f 6/19/7 17/20/7 9/21/7
f 7/22/8 17/20/8 6/19/8
f 7/22/9 8/23/9 17/20/9
f 19/24/9 17/20/9 8/23/9
f 28/25/10 17/20/10 27/9/10
f 28/25/11 9/21/11 17/20/11
f 40/26/12 58/27/12 59/28/12
f 42/29/13 40/26/13 59/28/13
f 55/30/14 67/31/14 68/32/14
f 86/33/15 83/34/15 77/35/15
f 77/35/16 78/36/16 86/33/16
f 80/5/1 63/1/1 82/3/1
f 80/5/1 62/37/1 63/1/1
f 109/38/17 84/39/17 113/40/17
f 91/41/18 96/42/18 97/43/18
f 105/44/19 10/45/19 104/46/19
f 108/47/20 110/48/20 104/46/20
f 104/46/21 10/45/21 108/47/21
f 11/49/22 38/50/22 39/51/22
f 39/51/23 12/52/23 11/49/23
f 44/53/24 11/49/24 12/52/24
f 12/52/25 43/54/25 44/53/25
f 14/55/26 15/56/26 13/57/26
f 14/55/27 101/58/27 15/56/27
f 101/58/28 102/59/28 15/56/28
f 132/60/29 16/11/29 131/12/29
f 19/24/30 20/14/30 17/20/30
f 19/24/31 18/15/31 20/14/31
f 22/17/32 20/14/32 21/13/32
f 23/18/33 22/17/33 21/13/33
f 141/61/34 31/62/34 32/63/34
f 141/61/35 140/64/35 31/62/35
f 34/65/36 33/66/36 24/67/36
f 25/68/37 34/65/37 24/67/37
f 94/69/38 98/70/38 99/71/38
f 94/69/39 95/72/39 98/70/39
f 28/25/40 27/9/40 26/8/40
f 30/73/41 29/74/41 32/63/41
f 32/63/42 31/62/42 30/73/42
f 35/75/43 33/66/43 34/65/43
f 36/76/43 35/75/43 34/65/43
f 39/51/44 38/50/44 37/77/44
f 42/29/45 41/78/45 40/26/45
f 44/53/46 53/79/46 45/80/46
f 44/53/47 43/54/47 53/79/47
f 46/81/48 53/79/48 54/82/48
f 46/81/49 45/80/49 53/79/49
f 49/83/50 48/84/50 47/85/50
f 49/83/51 50/86/51 48/84/51
f 51/87/52 50/86/52 49/83/52
f 51/87/53 52/88/53 50/86/53
f 54/82/54 52/88/54 51/87/54
f 54/82/55 53/79/55 52/88/55
f 55/30/56 64/89/56 65/90/56
f 67/31/57 55/30/57 65/90/57
f 57/91/58 56/92/58 59/28/58
f 59/28/59 58/27/59 57/91/59
f 63/1/1 61/93/1 60/94/1
f 63/1/1 62/37/1 61/93/1
f 65/90/60 64/89/60 183/95/60
f 184/96/61 65/90/61 183/95/61
f 69/97/62 67/31/62 66/98/62
f 69/97/63 68/32/63 67/31/63
f 74/99/64 71/100/64 70/101/64
f 74/99/65 75/102/65 71/100/65
f 78/36/66 76/103/66 72/104/66
f 78/36/67 75/102/67 76/103/67
f 79/105/68 75/102/68 78/36/68
f 79/105/69 71/100/69 75/102/69
f 85/106/70 86/33/70 78/36/70
f 78/36/71 72/104/71 85/106/71
f 76/103/72 74/99/72 73/107/72
f 76/103/73 75/102/73 74/99/73
f 79/105/74 78/36/74 77/35/74
f 82/3/1 81/6/1 80/5/1
f 84/39/75 86/33/75 113/40/75
f 84/39/76 83/34/76 86/33/76
f 112/108/77 113/40/77 86/33/77
f 86/33/78 85/106/78 112/108/78
f 88/109/79 207/110/79 208/111/79
f 208/111/80 87/112/80 88/109/80
f 89/113/81 90/114/81 88/109/81
f 88/109/82 87/112/82 89/113/82
f 90/114/83 92/115/83 93/116/83
f 90/114/84 89/113/84 92/115/84
f 91/41/85 97/43/85 93/116/85
f 93/116/86 92/115/86 91/41/86
f 95/72/87 94/69/87 97/43/87
f 97/43/88 96/42/88 95/72/88
f 100/117/89 98/70/89 103/118/89
f 100/117/90 99/71/90 98/70/90
f 103/118/91 101/58/91 100/117/91
f 103/118/92 102/59/92 101/58/92
f 105/44/93 104/46/93 107/119/93
f 107/119/94 106/120/94 105/44/94
f 109/38/95 110/48/95 108/47/95
f 113/40/96 114/121/96 110/48/96
f 110/48/97 109/38/97 113/40/97
f 114/121/98 112/108/98 111/122/98
f 114/121/99 113/40/99 112/108/99
f 115/2/1 181/1/1 200/3/1
f 202/5/1 116/7/1 117/4/1
f 117/4/1 201/6/1 202/5/1
f 118/123/100 145/124/100 146/125/100
f 130/126/101 145/124/101 118/123/101
f 130/126/102 131/12/102 145/124/102
f 133/127/103 138/128/103 139/129/103
f 136/130/104 137/131/104 119/132/104
f 123/133/105 134/134/105 120/135/105
f 121/136/106 134/134/106 122/137/106
f 121/136/107 120/135/107 134/134/107
f 122/137/106 134/134/106 135/138/106
f 144/139/108 134/134/108 123/133/108
f 144/139/109 145/124/109 134/134/109
f 175/28/110 160/26/110 158/29/110
f 175/28/111 176/27/111 160/26/111
f 186/140/112 188/141/112 173/142/112
f 199/35/113 203/34/113 205/33/113
f 205/33/114 198/36/114 199/35/114
f 202/5/1 181/1/1 178/37/1
f 202/5/1 200/3/1 181/1/1
f 233/40/115 204/39/115 232/38/115
f 217/143/116 218/144/116 215/145/116
f 226/46/117 124/45/117 229/44/117
f 226/46/118 231/48/118 230/47/118
f 230/47/119 124/45/119 226/46/119
f 125/49/120 155/51/120 156/50/120
f 125/49/121 126/52/121 155/51/121
f 126/52/122 125/49/122 162/53/122
f 162/53/123 161/54/123 126/52/123
f 127/146/124 222/147/124 223/148/124
f 129/149/125 127/146/125 223/148/125
f 129/149/126 128/150/126 127/146/126
f 132/60/127 131/12/127 130/126/127
f 135/138/128 138/128/128 133/127/128
f 135/138/129 134/134/129 138/128/129
f 139/129/130 137/131/130 136/130/130
f 139/129/131 138/128/131 137/131/131
f 149/151/132 140/64/132 141/61/132
f 141/61/133 148/152/133 149/151/133
f 143/67/134 154/65/134 142/68/134
f 143/67/135 153/66/135 154/65/135
f 216/153/136 221/154/136 219/155/136
f 216/153/137 220/156/137 221/154/137
f 146/125/138 145/124/138 144/139/138
f 148/152/139 147/157/139 150/158/139
f 150/158/140 149/151/140 148/152/140
f 154/65/141 152/75/141 151/76/141
f 154/65/141 153/66/141 152/75/141
f 157/77/142 156/50/142 155/51/142
f 160/26/143 159/78/143 158/29/143
f 162/53/144 169/79/144 161/54/144
f 162/53/145 163/80/145 169/79/145
f 164/81/146 169/79/146 163/80/146
f 164/81/147 172/82/147 169/79/147
f 165/84/148 167/86/148 168/83/148
f 166/85/50 165/84/50 168/83/50
f 171/87/149 167/86/149 170/88/149
f 171/87/52 168/83/52 167/86/52
f 172/82/150 170/88/150 169/79/150
f 172/82/54 171/87/54 170/88/54
f 185/159/151 173/142/151 188/141/151
f 185/159/152 182/160/152 173/142/152
f 175/28/153 174/92/153 177/91/153
f 177/91/154 176/27/154 175/28/154
f 179/93/1 178/37/1 181/1/1
f 181/1/1 180/94/1 179/93/1
f 185/159/155 183/95/155 182/160/155
f 185/159/61 184/96/61 183/95/61
f 188/141/156 186/140/156 187/161/156
f 189/162/157 188/141/157 187/161/157
f 195/99/158 191/100/158 193/102/158
f 195/99/159 190/101/159 191/100/159
f 198/36/160 194/103/160 193/102/160
f 198/36/161 192/104/161 194/103/161
f 197/105/162 193/102/162 191/100/162
f 197/105/163 198/36/163 193/102/163
f 198/36/164 205/33/164 206/106/164
f 206/106/165 192/104/165 198/36/165
f 195/99/166 193/102/166 194/103/166
f 196/107/167 195/99/167 194/103/167
f 199/35/168 198/36/168 197/105/168
f 202/5/1 201/6/1 200/3/1
f 204/39/169 205/33/169 203/34/169
f 204/39/170 233/40/170 205/33/170
f 205/33/171 233/40/171 234/108/171
f 234/108/172 206/106/172 205/33/172
f 208/111/173 207/110/173 209/163/173
f 209/163/174 210/164/174 208/111/174
f 209/163/175 212/165/175 211/166/175
f 211/166/176 210/164/176 209/163/176
f 212/165/177 214/167/177 211/166/177
f 212/165/178 213/168/178 214/167/178
f 213/168/179 217/143/179 215/145/179
f 215/145/180 214/167/180 213/168/180
f 217/143/181 216/153/181 219/155/181
f 219/155/182 218/144/182 217/143/182
f 224/169/183 221/154/183 220/156/183
f 224/169/184 225/170/184 221/154/184
f 225/170/185 223/148/185 222/147/185
f 225/170/186 224/169/186 223/148/186
f 227/119/187 226/46/187 229/44/187
f 229/44/188 228/120/188 227/119/188
f 230/47/189 231/48/189 232/38/189
f 231/48/190 236/121/190 233/40/190
f 233/40/191 232/38/191 231/48/191
f 236/121/192 234/108/192 233/40/192
f 236/121/193 235/122/193 234/108/193
