o weapon_osl868
v 0.451553 -2.467372 -30.359484
v 0.376327 -2.360029 -30.466824
v 0.301101 -2.252687 -30.574165
v 0.000006 -2.294247 -29.359476
v 0.000006 -2.437230 -30.389627
v 0.000006 -2.068150 -30.758698
v 0.000006 -2.033272 -29.359472
v 0.095103 -2.084926 -30.741922
v 0.047662 -2.045135 -29.359474
v 0.047662 -2.282385 -29.359478
v 0.095111 -2.420453 -30.406406
v 0.178147 -2.378511 -30.448347
v 0.089181 -2.252729 -29.359478
v 0.261182 -2.252688 -30.574167
v 0.130699 -2.163760 -29.359476
v 0.118837 -2.211210 -29.359478
v 0.237458 -2.319793 -30.507063
v 0.178141 -2.126866 -30.699986
v 0.089180 -2.074791 -29.359474
v 0.118837 -2.116310 -29.359476
v 0.237455 -2.185582 -30.641270
v 0.047662 -2.282385 -29.359478
v 0.044696 -2.208244 -29.359476
v 0.089181 -2.252729 -29.359478
v 0.118837 -2.211210 -29.359478
v 0.130699 -2.163760 -29.359476
v 0.083249 -2.163760 -29.359476
v 0.118837 -2.116310 -29.359476
v 0.089180 -2.074791 -29.359474
v 0.044696 -2.119275 -29.359474
v 0.047662 -2.045135 -29.359474
v 0.178141 -2.126866 -30.699986
v 0.150648 -2.026488 -30.800362
v 0.075425 -2.026489 -30.800360
v 0.095103 -2.084926 -30.741922
v 0.451553 -2.467372 -30.359484
v 0.178147 -2.378511 -30.448347
v 0.376327 -2.360029 -30.466824
v 0.237458 -2.319793 -30.507063
v 0.225875 -2.139587 -30.687263
v 0.237455 -2.185582 -30.641270
v 0.261182 -2.252688 -30.574167
v 0.301101 -2.252687 -30.574165
v 0.075425 -2.026489 -30.800360
v 0.225883 -2.484639 -30.342218
v 0.095111 -2.420453 -30.406406
v 0.184893 -1.816564 -32.237484
v 0.092813 -1.832103 -32.237484
v 0.150648 -2.026488 -30.800362
v 0.184893 -1.816564 -32.237484
v 0.225875 -2.139587 -30.687263
v 0.380351 -2.157753 -31.471872
v 0.150648 -2.026488 -30.800362
v -0.451541 -2.467372 -30.359484
v -0.376315 -2.360029 -30.466824
v -0.301089 -2.252687 -30.574165
v 0.000006 -2.294247 -29.359476
v 0.000006 -2.294247 -29.359476
v 0.000006 -2.437230 -30.389627
v 0.000006 -2.033272 -29.359472
v 0.000006 -2.068150 -30.758698
v -0.047650 -2.045135 -29.359474
v -0.095091 -2.084926 -30.741922
v -0.178135 -2.378511 -30.448347
v -0.095099 -2.420453 -30.406406
v -0.047650 -2.282385 -29.359478
v -0.089168 -2.252729 -29.359478
v -0.118825 -2.211210 -29.359478
v -0.237446 -2.319793 -30.507063
v -0.130687 -2.163760 -29.359476
v -0.261170 -2.252688 -30.574167
v -0.118825 -2.116310 -29.359476
v -0.237443 -2.185582 -30.641270
v -0.089168 -2.074791 -29.359474
v -0.178129 -2.126866 -30.699986
v 0.000006 -2.026490 -30.800358
v 0.000006 -2.068150 -30.758698
v -0.047650 -2.282385 -29.359478
v 0.000006 -2.246797 -29.359476
v -0.089168 -2.252729 -29.359478
v -0.044684 -2.208244 -29.359476
v -0.130687 -2.163760 -29.359476
v -0.118825 -2.211210 -29.359478
v -0.118825 -2.116310 -29.359476
v -0.083237 -2.163760 -29.359476
v 0.000006 -2.163760 -29.359474
v -0.089168 -2.074791 -29.359474
v -0.044684 -2.119275 -29.359474
v 0.000006 -2.080722 -29.359472
v 0.000006 -2.033272 -29.359472
v -0.047650 -2.045135 -29.359474
v -0.178129 -2.126866 -30.699986
v -0.095091 -2.084926 -30.741922
v -0.075413 -2.026489 -30.800360
v -0.150636 -2.026488 -30.800362
v -0.237446 -2.319793 -30.507063
v -0.376315 -2.360029 -30.466824
v -0.451541 -2.467372 -30.359484
v -0.178135 -2.378511 -30.448347
v -0.261170 -2.252688 -30.574167
v -0.237443 -2.185582 -30.641270
v -0.225863 -2.139587 -30.687263
v -0.301089 -2.252687 -30.574165
v -0.075413 -2.026489 -30.800360
v 0.000006 -2.026490 -30.800358
v 0.000006 -1.847642 -32.237484
v 0.000006 -2.437230 -30.389627
v -0.095099 -2.420453 -30.406406
v -0.225871 -2.484639 -30.342218
v 0.000006 -2.501907 -30.324953
v -0.184881 -1.816564 -32.237484
v -0.184881 -1.816564 -32.237484
v -0.150636 -2.026488 -30.800362
v -0.092801 -1.832103 -32.237484
v -0.150636 -2.026488 -30.800362
v -0.380338 -2.157753 -31.471872
v -0.225863 -2.139587 -30.687263
vt 0.070935 0.196946
vt 0.070039 0.158664
vt 0.808270 0.150249
vt 0.007177 0.221278
vt 0.068224 0.282190
vt 0.589340 0.309869
vt 0.129270 0.343102
vt 0.193656 0.405898
vt 0.654735 0.741795
vt 0.591362 0.678714
vt 0.654735 0.624043
vt 0.587156 0.573578
vt 0.654735 0.556756
vt 0.372947 0.748745
vt 0.005213 0.861859
vt 0.386953 0.782069
vt 0.001312 0.844173
vt 0.011745 0.990896
vt 0.522171 0.956470
vt 0.011879 0.972780
vt 0.528117 0.992145
vt 0.507111 0.921952
vt 0.011966 0.953966
vt 0.408406 0.812985
vt 0.010280 0.899076
vt 0.434066 0.840532
vt 0.008169 0.880398
vt 0.460747 0.864854
vt 0.011897 0.935137
vt 0.485746 0.890919
vt 0.011545 0.917084
vt 0.596474 0.986988
vt 0.581448 0.923886
vt 0.654061 0.942000
vt 0.654061 0.986987
vt 0.424154 0.742731
vt 0.366714 0.626818
vt 0.472750 0.670268
vt 0.454635 0.742731
vt 0.481595 0.864861
vt 0.518042 0.878597
vt 0.539035 0.986990
vt 0.472752 0.815193
vt 0.518038 0.606862
vt 0.309273 0.510904
vt 0.481588 0.492259
vt 0.581442 0.561572
vt 0.528280 0.615632
vt 0.591362 0.804877
vt 0.536691 0.741795
vt 0.486226 0.674508
vt 0.486226 0.809082
vt 0.469404 0.741795
vt 0.528280 0.867958
vt 0.654735 0.859547
vt 0.587156 0.910012
vt 0.654735 0.926834
vt 0.806113 0.103044
vt 0.069140 0.120283
vt 0.654061 0.473614
vt 0.654061 0.543455
vt 0.258041 0.468695
vt 0.997527 0.468877
vt 0.810417 0.197085
vt 0.806060 0.055789
vt 0.068243 0.081902
vt 0.067349 0.043620
vt 0.589297 0.309809
vt 0.068180 0.282130
vt 0.007134 0.221218
vt 0.129227 0.343042
vt 0.193612 0.405838
vt 0.718108 0.678714
vt 0.722313 0.573578
vt 0.372516 0.748306
vt 0.005099 0.862446
vt 0.001149 0.844771
vt 0.386615 0.781591
vt 0.522320 0.955614
vt 0.011992 0.991465
vt 0.012074 0.973348
vt 0.528365 0.991272
vt 0.507163 0.921137
vt 0.012110 0.954535
vt 0.408154 0.812447
vt 0.010270 0.899649
vt 0.008107 0.880977
vt 0.433890 0.839921
vt 0.011987 0.935705
vt 0.011586 0.917653
vt 0.460640 0.864169
vt 0.485711 0.890164
vt 0.711649 0.986988
vt 0.726674 0.923886
vt 0.883968 0.742731
vt 0.835373 0.670268
vt 0.941409 0.626818
vt 0.853487 0.742731
vt 0.826528 0.864861
vt 0.769087 0.986990
vt 0.790080 0.878597
vt 0.835370 0.815193
vt 0.790084 0.606862
vt 0.726680 0.561572
vt 0.826534 0.492259
vt 0.998849 0.510904
vt 0.781189 0.615632
vt 0.772779 0.741795
vt 0.718108 0.804877
vt 0.823244 0.674508
vt 0.840065 0.741795
vt 0.823244 0.809082
vt 0.781189 0.867958
vt 0.722313 0.910012
vt 0.997484 0.468817
vt 0.257998 0.468635
vt 0.806016 0.008904
vn 0.000012 -0.990976 -0.134040
vn -0.742969 -0.655587 -0.134918
vn -0.742967 -0.655589 -0.134918
vn -0.757819 -0.638469 -0.134419
vn -0.000020 0.000023 -1.000000
vn -0.000040 0.000000 -1.000000
vn -0.195466 0.971105 -0.136928
vn -0.239383 0.961706 -0.133483
vn -0.241515 -0.970198 0.019637
vn -0.177869 -0.983749 0.024522
vn -0.454836 -0.890519 0.010023
vn -0.581227 -0.813712 -0.006962
vn -0.762667 0.631764 -0.138610
vn -0.806568 0.576112 -0.132451
vn -0.576109 0.806566 -0.132480
vn -0.501718 0.853691 -0.139608
vn -0.919024 -0.388967 -0.064026
vn -0.966539 -0.241624 -0.086137
vn -0.967633 0.221904 -0.120190
vn -0.962861 0.240710 -0.122303
vn -0.694281 -0.719476 -0.018125
vn -0.812946 -0.580686 -0.043848
vn -0.000009 -0.707111 -0.707102
vn -0.000009 -0.707111 -0.707103
vn 0.000024 -0.707094 -0.707119
vn 0.000068 -0.707115 -0.707099
vn 0.000019 -0.707097 -0.707116
vn 0.000020 -0.707095 -0.707119
vn 0.000005 -0.707108 -0.707106
vn 0.000010 -0.707107 -0.707107
vn -0.000021 0.000025 -1.000000
vn -0.000018 0.000025 -1.000000
vn -0.000023 0.000023 -1.000000
vn -0.000023 0.000020 -1.000000
vn -0.000025 0.000022 -1.000000
vn -0.000025 0.000018 -1.000000
vn -0.000000 0.000000 -1.000000
vn 0.000000 0.000040 -1.000000
vn -0.000027 0.000020 -1.000000
vn -0.000027 0.000027 -1.000000
vn -0.000041 0.000002 -1.000000
vn -0.000023 -0.707103 -0.707110
vn -0.000007 -0.707111 -0.707103
vn 0.000017 -0.707091 -0.707123
vn 0.000019 -0.707103 -0.707110
vn 0.000030 -0.707094 -0.707120
vn 0.000068 -0.707076 -0.707138
vn 0.000009 -0.992345 -0.123496
vn 0.163728 -0.977865 -0.130285
vn 0.000008 -0.707109 -0.707105
vn -0.000019 -0.707092 -0.707121
vn -0.726674 -0.677081 -0.116219
vn 0.164793 -0.976525 -0.138716
vn -0.757816 -0.638472 -0.134418
vn -0.000012 -0.990976 -0.134040
vn 0.742969 -0.655587 -0.134917
vn 0.742968 -0.655588 -0.134918
vn 0.757819 -0.638468 -0.134418
vn 0.000020 0.000023 -1.000000
vn 0.000040 0.000000 -1.000000
vn 0.239383 0.961706 -0.133483
vn 0.195466 0.971105 -0.136928
vn 0.241515 -0.970198 0.019637
vn 0.177869 -0.983749 0.024522
vn 0.581227 -0.813712 -0.006962
vn 0.454836 -0.890519 0.010023
vn 0.806558 0.576125 -0.132452
vn 0.762667 0.631764 -0.138610
vn 0.501718 0.853691 -0.139609
vn 0.576118 0.806559 -0.132479
vn 0.966539 -0.241624 -0.086137
vn 0.919024 -0.388967 -0.064026
vn 0.962861 0.240710 -0.122303
vn 0.967633 0.221904 -0.120190
vn 0.812946 -0.580686 -0.043848
vn 0.694281 -0.719476 -0.018125
vn 0.000009 -0.707111 -0.707103
vn 0.000009 -0.707111 -0.707102
vn -0.000024 -0.707094 -0.707119
vn -0.000068 -0.707115 -0.707099
vn -0.000019 -0.707097 -0.707116
vn -0.000020 -0.707095 -0.707119
vn -0.000010 -0.707107 -0.707107
vn -0.000005 -0.707108 -0.707106
vn 0.000018 0.000025 -1.000000
vn 0.000021 0.000025 -1.000000
vn 0.000023 0.000023 -1.000000
vn 0.000023 0.000020 -1.000000
vn 0.000025 0.000022 -1.000000
vn 0.000025 0.000018 -1.000000
vn 0.000027 0.000027 -1.000000
vn 0.000027 0.000020 -1.000000
vn 0.000041 0.000002 -1.000000
vn 0.000023 -0.707103 -0.707110
vn 0.000007 -0.707111 -0.707103
vn -0.000019 -0.707103 -0.707110
vn -0.000017 -0.707091 -0.707123
vn -0.000068 -0.707076 -0.707138
vn -0.000030 -0.707094 -0.707120
vn -0.163728 -0.977864 -0.130285
vn -0.000009 -0.992345 -0.123496
vn 0.000019 -0.707092 -0.707121
vn -0.000008 -0.707109 -0.707105
vn 0.726675 -0.677079 -0.116218
vn -0.164793 -0.976525 -0.138716
vn 0.757816 -0.638472 -0.134418
s off
f 49/1/1 44/2/1 48/3/1
f 1/4/2 2/5/2 52/6/2
f 52/6/3 2/5/3 3/7/3
f 3/7/4 51/8/4 52/6/4
f 86/9/5 23/10/5 79/11/5
f 79/11/6 22/12/6 57/13/6
f 5/14/7 10/15/7 11/16/7
f 5/14/8 4/17/8 10/15/8
f 7/18/9 8/19/9 9/20/9
f 7/18/10 6/21/10 8/19/10
f 18/22/11 9/20/11 8/19/11
f 18/22/12 19/23/12 9/20/12
f 12/24/13 16/25/13 17/26/13
f 12/24/14 13/27/14 16/25/14
f 13/27/15 11/16/15 10/15/15
f 13/27/16 12/24/16 11/16/16
f 14/28/17 20/29/17 21/30/17
f 14/28/18 15/31/18 20/29/18
f 17/26/19 15/31/19 14/28/19
f 17/26/20 16/25/20 15/31/20
f 21/30/21 19/23/21 18/22/21
f 21/30/22 20/29/22 19/23/22
f 34/32/23 35/33/23 77/34/23
f 76/35/24 34/32/24 77/34/24
f 43/36/25 38/37/25 39/38/25
f 39/38/26 42/39/26 43/36/26
f 40/40/27 32/41/27 33/42/27
f 40/40/28 41/43/28 32/41/28
f 37/44/29 36/45/29 45/46/29
f 45/46/30 46/47/30 37/44/30
f 23/10/31 22/12/31 79/11/31
f 23/10/32 24/48/32 22/12/32
f 86/9/33 30/49/33 27/50/33
f 27/50/34 23/10/34 86/9/34
f 23/10/35 27/50/35 25/51/35
f 25/51/36 24/48/36 23/10/36
f 27/50/37 28/52/37 26/53/37
f 26/53/38 25/51/38 27/50/38
f 30/49/39 28/52/39 27/50/39
f 30/49/40 29/54/40 28/52/40
f 89/55/33 30/49/33 86/9/33
f 30/49/37 31/56/37 29/54/37
f 30/49/41 89/55/41 31/56/41
f 90/57/6 31/56/6 89/55/6
f 33/42/42 32/41/42 35/33/42
f 35/33/43 34/32/43 33/42/43
f 38/37/44 36/45/44 37/44/44
f 39/38/45 38/37/45 37/44/45
f 43/36/46 41/43/46 40/40/46
f 43/36/47 42/39/47 41/43/47
f 106/58/48 44/2/48 105/59/48
f 106/58/49 48/3/49 44/2/49
f 46/47/50 45/46/50 110/60/50
f 107/61/51 46/47/51 110/60/51
f 52/6/52 53/62/52 47/63/52
f 50/64/53 49/1/53 48/3/53
f 53/62/54 52/6/54 51/8/54
f 114/65/55 104/66/55 113/67/55
f 116/68/56 55/69/56 54/70/56
f 56/71/57 55/69/57 116/68/57
f 116/68/58 117/72/58 56/71/58
f 86/9/59 79/11/59 81/73/59
f 79/11/60 57/13/60 78/74/60
f 59/75/61 66/76/61 58/77/61
f 59/75/62 65/78/62 66/76/62
f 63/79/63 60/80/63 62/81/63
f 63/79/64 61/82/64 60/80/64
f 75/83/65 62/81/65 74/84/65
f 75/83/66 63/79/66 62/81/66
f 64/85/67 68/86/67 67/87/67
f 64/85/68 69/88/68 68/86/68
f 67/87/69 65/78/69 64/85/69
f 67/87/70 66/76/70 65/78/70
f 72/89/71 70/90/71 71/91/71
f 73/92/72 72/89/72 71/91/72
f 70/90/73 68/86/73 69/88/73
f 71/91/74 70/90/74 69/88/74
f 74/84/75 72/89/75 73/92/75
f 75/83/76 74/84/76 73/92/76
f 94/93/77 76/35/77 77/34/77
f 77/34/78 93/94/78 94/93/78
f 103/95/79 96/96/79 97/97/79
f 103/95/80 100/98/80 96/96/80
f 102/99/81 95/100/81 92/101/81
f 92/101/82 101/102/82 102/99/82
f 99/103/83 108/104/83 109/105/83
f 98/106/84 99/103/84 109/105/84
f 81/73/85 78/74/85 80/107/85
f 81/73/86 79/11/86 78/74/86
f 85/108/87 88/109/87 86/9/87
f 86/9/88 81/73/88 85/108/88
f 83/110/89 85/108/89 81/73/89
f 81/73/90 80/107/90 83/110/90
f 82/111/37 84/112/37 85/108/37
f 85/108/38 83/110/38 82/111/38
f 84/112/91 87/113/91 88/109/91
f 85/108/92 84/112/92 88/109/92
f 88/109/87 89/55/87 86/9/87
f 88/109/93 91/114/93 89/55/93
f 88/109/37 87/113/37 91/114/37
f 91/114/60 90/57/60 89/55/60
f 95/100/94 93/94/94 92/101/94
f 95/100/95 94/93/95 93/94/95
f 99/103/96 97/97/96 96/96/96
f 99/103/97 98/106/97 97/97/97
f 103/95/98 101/102/98 100/98/98
f 103/95/99 102/99/99 101/102/99
f 106/58/100 104/66/100 114/65/100
f 106/58/101 105/59/101 104/66/101
f 110/60/102 108/104/102 107/61/102
f 110/60/103 109/105/103 108/104/103
f 111/115/104 115/116/104 116/68/104
f 114/65/105 113/67/105 112/117/105
f 117/72/106 116/68/106 115/116/106
