o tail_osl868
v 0.307908 16.807917 38.918121
v 0.100804 16.850796 39.186924
v 0.307816 16.980099 40.186935
v 0.312758 3.434116 27.183737
v 0.312737 3.430992 28.043783
v 0.312694 3.423588 29.795073
v 0.312650 3.416184 31.568605
v 0.312605 3.408781 33.379513
v 0.307881 16.857929 39.286667
v 0.312810 3.643939 22.481634
v 0.312767 3.643747 24.107670
v 0.312840 3.430986 24.107670
v 0.312780 3.437241 26.323689
v 0.000006 3.429678 20.033485
v 0.312852 3.644131 20.855598
v 0.307908 16.807917 38.918121
v 0.000006 16.735762 38.386398
v 0.307816 16.980099 40.186935
v 0.100804 16.871359 39.385761
v 0.150804 16.859503 39.286507
v 0.307881 16.857929 39.286667
v 0.000006 16.878075 39.435310
v -0.100792 16.850796 39.186924
v -0.307895 16.807917 38.918121
v 0.000006 16.735762 38.386398
v 0.000006 16.847229 39.137051
v -0.312827 3.430986 24.107670
v -0.312746 3.434116 27.183737
v -0.312767 3.437241 26.323689
v -0.312755 3.643747 24.107670
v -0.312797 3.643939 22.481634
v -0.307869 16.857929 39.286667
v -0.307804 16.980099 40.186935
v -0.312593 3.408781 33.379513
v -0.312638 3.416184 31.568605
v -0.312682 3.423588 29.795073
v -0.312725 3.430992 28.043783
v 0.000006 3.429678 20.033485
v 0.000006 16.735762 38.386398
v -0.307895 16.807917 38.918121
v -0.312840 3.644131 20.855598
v -0.150792 16.859503 39.286507
v -0.100792 16.871359 39.385761
v -0.307804 16.980099 40.186935
v -0.307869 16.857929 39.286667
v -0.240588 16.979130 41.136818
v -0.306207 16.980099 40.186935
v 0.176577 16.978163 42.086700
v -0.174968 16.978163 42.086700
v 0.000804 16.978163 42.086700
v 0.000804 16.986172 42.461258
v 0.000804 16.986172 42.461258
v 0.000405 3.404233 35.263763
v -0.174968 16.978163 42.086700
v -0.310997 3.408781 33.379513
v -0.306207 16.980099 40.186935
v -0.240588 16.979130 41.136818
v -0.177704 3.396226 34.889206
v 0.307816 16.980099 40.186935
v 0.242196 16.979130 41.136818
v 0.000605 16.979052 41.136818
v 0.000405 16.979939 40.186932
v 0.000804 16.986172 42.461258
v 0.000405 3.404233 35.263763
v 0.179312 3.396226 34.889206
v 0.312605 3.408781 33.379513
v 0.307816 16.980099 40.186935
v 0.179312 3.396226 34.889206
v 0.176577 16.978163 42.086700
v 0.242196 16.979130 41.136818
vt 0.352684 0.756720
vt 0.352684 0.770400
vt 0.278767 0.770385
vt 0.278759 0.751613
vt 0.352684 0.784079
vt 0.278759 0.789186
vt 0.134146 0.794304
vt 0.105201 0.794306
vt 0.126380 0.778188
vt 0.134150 0.782079
vt 0.204852 0.794299
vt 0.145819 0.770343
vt 0.204851 0.770370
vt 0.141928 0.778188
vt 0.122497 0.770343
vt 0.063440 0.770343
vt 0.509840 0.031060
vt 0.128234 0.498786
vt 0.448560 0.030801
vt 0.115334 0.500534
vt 0.083822 0.504806
vt 0.323135 0.030283
vt 0.539934 0.031169
vt 0.570028 0.031278
vt 0.386501 0.030542
vt 0.647554 0.038498
vt 0.704451 0.038505
vt 0.761349 0.038512
vt 0.647571 0.031059
vt 0.147289 0.496878
vt 0.790584 0.031639
vt 0.134146 0.746383
vt 0.126380 0.762499
vt 0.105201 0.746381
vt 0.134150 0.758607
vt 0.204852 0.746388
vt 0.141928 0.762499
vt 0.463540 0.522034
vt 0.493634 0.521925
vt 0.875240 0.989651
vt 0.355920 0.529364
vt 0.355903 0.521925
vt 0.433446 0.522144
vt 0.299022 0.529371
vt 0.242125 0.529377
vt 0.680339 0.521149
vt 0.888140 0.991400
vt 0.616973 0.521408
vt 0.919652 0.995672
vt 0.554914 0.521666
vt 0.856185 0.987743
vt 0.212889 0.522504
vt 0.204834 0.746507
vt 0.381834 0.770400
vt 0.745324 0.520935
vt 1.000072 0.995163
vt 0.986193 0.995361
vt 0.731431 0.521140
vt 0.952951 0.995573
vt 0.919709 0.995785
vt 0.678454 0.521940
vt 0.204834 0.794293
vt 0.017364 0.504746
vt 0.003485 0.504549
vt 0.258233 0.030320
vt 0.272126 0.030525
vt 0.083848 0.505170
vt 0.272130 0.030539
vt 0.323174 0.030401
vt 0.050606 0.504958
vn 0.000000 1.000000 0.000936
vn 0.000324 0.999999 0.000996
vn -0.000324 0.999999 0.000996
vn 0.030619 0.990453 -0.134405
vn 0.010069 0.995697 -0.092115
vn -0.000515 0.990941 -0.134298
vn -0.000081 0.990917 -0.134472
vn 0.021849 0.988918 -0.146848
vn 0.031225 0.990497 -0.133945
vn 1.000000 0.000340 0.000026
vn 1.000000 0.000339 0.000027
vn 1.000000 0.000339 0.000026
vn 1.000000 0.000343 0.000026
vn 0.702648 0.576065 -0.417654
vn 0.637503 0.622722 -0.453659
vn -0.000085 0.990918 -0.134471
vn 0.010068 0.993476 -0.113600
vn -0.030619 0.990453 -0.134405
vn -0.010069 0.995697 -0.092115
vn 0.000513 0.990941 -0.134298
vn 0.000081 0.990917 -0.134472
vn -0.031225 0.990497 -0.133945
vn -0.021849 0.988918 -0.146848
vn -1.000000 0.000340 0.000026
vn -1.000000 0.000338 0.000026
vn -1.000000 0.000339 0.000026
vn -1.000000 0.000341 0.000024
vn -0.702648 0.576065 -0.417654
vn -0.637504 0.622721 -0.453659
vn -0.010068 0.993476 -0.113600
vn 0.000085 0.990918 -0.134471
vn 0.000324 0.999999 0.000934
vn 0.000523 0.999999 0.000984
vn 0.000000 0.999771 -0.021378
vn -0.880945 -0.221563 0.418146
vn -0.878348 -0.223694 0.422453
vn -0.996968 -0.036277 0.068836
vn -0.995212 -0.043542 0.087507
vn -0.996968 -0.036277 0.068835
vn -0.000521 0.999999 0.000984
vn -0.000324 0.999999 0.000934
vn 0.880933 -0.221614 0.418144
vn 0.877448 -0.224467 0.423911
vn 0.995212 -0.043542 0.087507
vn 0.996968 -0.036277 0.068836
vn 0.996968 -0.036277 0.068835
s off
f 49/1/1 50/2/1 61/3/1
f 61/3/2 46/4/2 49/1/2
f 48/5/3 60/6/3 61/3/3
f 50/2/1 48/5/1 61/3/1
f 21/7/4 1/8/4 2/9/4
f 2/9/5 20/10/5 21/7/5
f 18/11/6 22/12/6 62/13/6
f 18/11/7 19/14/7 22/12/7
f 26/15/8 1/8/8 25/16/8
f 2/9/9 1/8/9 26/15/9
f 5/17/10 16/18/10 6/19/10
f 9/20/10 3/21/10 8/22/10
f 16/18/11 4/23/11 13/24/11
f 16/18/10 5/17/10 4/23/10
f 16/18/10 7/25/10 6/19/10
f 16/18/10 8/22/10 7/25/10
f 16/18/11 9/20/11 8/22/11
f 16/18/10 13/24/10 11/26/10
f 10/27/10 15/28/10 16/18/10
f 11/26/12 10/27/12 16/18/12
f 13/24/13 12/29/13 11/26/13
f 17/30/14 15/28/14 14/31/14
f 17/30/15 16/18/15 15/28/15
f 21/7/16 19/14/16 18/11/16
f 21/7/17 20/10/17 19/14/17
f 45/32/18 23/33/18 24/34/18
f 45/32/19 42/35/19 23/33/19
f 44/36/20 62/13/20 22/12/20
f 22/12/21 43/37/21 44/36/21
f 26/15/22 24/34/22 23/33/22
f 26/15/23 25/16/23 24/34/23
f 28/38/24 37/39/24 40/40/24
f 30/41/25 27/42/25 29/43/25
f 40/40/24 29/43/24 28/38/24
f 40/40/24 30/41/24 29/43/24
f 40/40/24 31/44/24 30/41/24
f 40/40/26 41/45/26 31/44/26
f 40/40/27 34/46/27 32/47/27
f 40/40/24 35/48/24 34/46/24
f 34/46/24 33/49/24 32/47/24
f 36/50/24 35/48/24 40/40/24
f 37/39/24 36/50/24 40/40/24
f 41/45/28 39/51/28 38/52/28
f 41/45/29 40/40/29 39/51/29
f 45/32/30 43/37/30 42/35/30
f 45/32/31 44/36/31 43/37/31
f 46/4/32 61/3/32 62/13/32
f 47/53/33 46/4/33 62/13/33
f 48/5/34 50/2/34 51/54/34
f 51/54/34 50/2/34 49/1/34
f 53/55/35 52/56/35 54/57/35
f 54/57/36 58/58/36 53/55/36
f 57/59/37 58/58/37 54/57/37
f 58/58/38 56/60/38 55/61/38
f 58/58/39 57/59/39 56/60/39
f 60/6/40 59/62/40 62/13/40
f 62/13/41 61/3/41 60/6/41
f 69/63/42 63/64/42 64/65/42
f 65/66/43 69/63/43 64/65/43
f 67/67/44 68/68/44 66/69/44
f 67/67/45 70/70/45 68/68/45
f 70/70/46 69/63/46 68/68/46
