o ins_osl868
v 1.648998 0.793274 -31.028151
v 1.607236 0.870651 -31.070015
v 1.565474 0.948027 -31.111879
v 1.481904 1.078580 -31.182560
v 0.356226 1.294472 -31.303104
v 0.195259 1.294472 -31.303467
v 0.592025 1.294472 -31.302349
v 0.440034 1.294472 -31.302895
v 1.400909 1.172528 -31.233498
v 0.914101 0.792201 -31.030142
v 0.610922 0.791758 -31.030964
v 0.758084 1.294472 -31.302120
v 1.176845 1.938264 -30.340555
v 0.984241 2.052687 -30.333311
v 1.004686 1.938756 -30.493464
v 0.610973 1.938756 -30.771702
v 0.604777 2.228778 -30.333311
v 0.785840 2.149623 -30.333311
v 0.796153 1.938756 -30.680639
v 0.675133 1.938756 -30.748407
v 0.668629 2.198398 -30.333311
v 0.305176 0.790972 -31.031609
v 0.305041 0.733162 -31.030439
v 1.275789 1.294472 -31.300426
v 1.323673 1.251215 -31.276192
v 1.006126 1.294472 -31.301159
v 0.305041 0.733162 -31.030439
v 0.304910 0.695761 -30.941587
v 0.304779 0.627544 -30.853529
v 0.304648 0.505397 -30.782015
v 0.609925 0.505397 -31.303417
v 0.609948 0.505397 -30.782175
v 0.304648 0.505397 -30.782015
v 0.304673 0.505397 -31.303417
v 0.609811 0.505397 -30.559038
v 0.609763 0.505397 -30.166737
v 0.201590 1.938756 -30.793127
v 0.197061 2.324932 -30.333311
v 0.515422 1.938756 -30.793127
v 0.504549 2.261869 -30.333311
v 0.378351 1.938756 -30.793127
v 0.345713 2.302993 -30.333311
v 0.000006 1.294468 -31.303883
v -1.648986 0.793274 -31.028151
v -1.607224 0.870651 -31.070015
v -1.565462 0.948027 -31.111879
v -1.481892 1.078580 -31.182560
v -0.195247 1.294472 -31.303467
v -0.356214 1.294472 -31.303104
v -0.440022 1.294472 -31.302895
v -0.592013 1.294472 -31.302349
v -1.400897 1.172528 -31.233498
v -0.610910 0.791758 -31.030964
v -0.758072 1.294472 -31.302120
v -0.914089 0.792201 -31.030142
v 0.000006 0.505395 -30.781857
v -1.176833 1.938264 -30.340555
v -0.984229 2.052687 -30.333311
v -1.004674 1.938756 -30.493464
v -0.610961 1.938756 -30.771702
v -0.604765 2.228778 -30.333311
v -0.675120 1.938756 -30.748407
v -0.796141 1.938756 -30.680639
v -0.785828 2.149623 -30.333311
v -0.668617 2.198398 -30.333311
v -0.305164 0.790972 -31.031609
v 0.000006 0.790522 -31.032436
v 0.000006 0.733563 -31.030439
v -0.305029 0.733162 -31.030439
v -1.006114 1.294472 -31.301159
v -1.323661 1.251215 -31.276192
v -1.275777 1.294472 -31.300426
v -0.305029 0.733162 -31.030439
v 0.000006 0.733563 -31.030439
v -0.304898 0.695761 -30.941587
v 0.000006 0.696027 -30.941507
v -0.304767 0.627544 -30.853529
v 0.000006 0.627676 -30.853409
v 0.000006 0.505395 -30.781857
v -0.304635 0.505397 -30.782015
v -0.304635 0.505397 -30.782015
v -0.304661 0.505397 -31.303417
v -0.609935 0.505397 -30.782175
v -0.609913 0.505397 -31.303417
v 0.000006 0.505395 -30.566832
v 0.000006 0.505395 -30.166098
v -0.609751 0.505397 -30.166737
v -0.609799 0.505397 -30.559038
v 0.000006 2.337328 -30.333311
v 0.000006 1.938751 -30.793127
v -0.197049 2.324932 -30.333311
v -0.201578 1.938756 -30.793127
v -0.345701 2.302993 -30.333311
v -0.378339 1.938756 -30.793127
v -0.515410 1.938756 -30.793127
v -0.504537 2.261869 -30.333311
vt 0.608011 0.189109
vt 0.592532 0.015666
vt 0.633423 0.189079
vt 0.500000 0.015663
vt 0.559204 0.189160
vt 0.500000 0.189218
vt 0.679509 0.189002
vt 0.685239 0.015785
vt 0.729861 0.188969
vt 0.777168 0.015788
vt 1.000000 0.015794
vt 0.987337 0.042468
vt 0.974674 0.069142
vt 0.949334 0.114155
vt 0.924775 0.146557
vt 0.805071 0.188833
vt 0.901356 0.173700
vt 0.730000 0.398716
vt 0.859321 0.490061
vt 0.730000 0.489993
vt 0.988863 0.395407
vt 0.917809 0.928751
vt 0.926488 0.845324
vt 0.999978 0.900406
vt 0.833588 0.953015
vt 0.837966 0.781151
vt 0.786592 0.757917
vt 0.756726 0.972828
vt 0.759356 0.749931
vt 0.783831 0.965224
vt 0.718795 0.742585
vt 0.714179 0.981111
vt 0.592491 0.000000
vt 0.500000 0.000108
vt 0.886837 0.188730
vt 0.988921 0.490129
vt 0.454377 0.559639
vt 0.454472 0.625137
vt 0.234342 0.625333
vt 0.234342 0.559727
vt 0.454282 0.479531
vt 0.234342 0.479532
vt 0.454188 0.381916
vt 0.234342 0.381830
vt 0.859331 0.711397
vt 0.988911 0.711397
vt 0.730000 0.228603
vt 0.988843 0.228874
vt 0.500000 0.742584
vt 0.583650 0.996897
vt 0.500000 1.000000
vt 0.585573 0.742585
vt 0.660608 0.742585
vt 0.646753 0.991405
vt 0.366577 0.189079
vt 0.407468 0.015666
vt 0.391989 0.189109
vt 0.440796 0.189160
vt 0.270139 0.188969
vt 0.314761 0.015785
vt 0.320491 0.189002
vt 0.000000 0.015794
vt 0.222832 0.015788
vt 0.012663 0.042468
vt 0.025326 0.069142
vt 0.050666 0.114155
vt 0.075225 0.146557
vt 0.194929 0.188833
vt 0.098644 0.173700
vt 0.600679 0.490061
vt 0.471137 0.395407
vt 0.000022 0.900406
vt 0.073512 0.845324
vt 0.082191 0.928751
vt 0.166412 0.953015
vt 0.162034 0.781151
vt 0.213408 0.757917
vt 0.243274 0.972828
vt 0.216169 0.965224
vt 0.240644 0.749931
vt 0.281205 0.742585
vt 0.285821 0.981111
vt 0.407509 0.000000
vt 0.113163 0.188730
vt 0.471079 0.490129
vt 0.014308 0.559639
vt 0.014213 0.625137
vt 0.014402 0.479531
vt 0.014497 0.381916
vt 0.600668 0.711397
vt 0.471089 0.711397
vt 0.471157 0.228874
vt 0.416350 0.996897
vt 0.414427 0.742585
vt 0.353247 0.991405
vt 0.339392 0.742585
vn -0.002203 0.474787 0.880098
vn -0.001885 0.474222 0.880403
vn -0.001213 0.475004 0.879983
vn -0.003078 0.474572 0.880211
vn -0.003079 0.474577 0.880209
vn -0.003077 0.474572 0.880212
vn -0.003083 0.474581 0.880206
vn -0.001981 0.474770 0.880108
vn -0.003087 0.474582 0.880206
vn -0.003158 0.474946 0.880009
vn -0.003077 0.474967 0.879998
vn -0.003928 0.475419 0.879751
vn -0.004793 0.473261 0.880909
vn -0.003410 0.475346 0.879792
vn -0.003080 0.475426 0.879750
vn -0.000006 1.000000 0.000000
vn -0.000003 1.000000 0.000004
vn -0.433061 -0.759670 0.485138
vn -0.415562 -0.782917 0.462979
vn -0.379223 -0.776164 0.503745
vn -0.195748 -0.819147 0.539149
vn -0.375165 -0.788514 0.487336
vn -0.122514 -0.828524 0.546387
vn -0.261678 -0.792583 0.550761
vn -0.336762 -0.809273 0.481320
vn -0.283027 -0.815131 0.505428
vn -0.002742 0.020227 0.999792
vn 0.000046 0.035039 0.999386
vn -0.002373 0.486768 0.873528
vn 0.000000 1.000000 0.000000
vn 0.001212 0.921672 0.387967
vn 0.000906 0.921298 0.388857
vn 0.000851 0.790537 0.612413
vn 0.000584 0.790091 0.612990
vn 0.000559 0.505249 0.862973
vn 0.000445 0.505038 0.863097
vn -0.000003 1.000000 -0.000000
vn -0.047481 -0.754780 0.654257
vn 0.000019 -0.765762 0.643124
vn 0.000000 -0.783867 0.620929
vn -0.112381 -0.761456 0.638401
vn 0.000000 -0.818192 0.574944
vn -0.200605 -0.774813 0.599518
vn 0.002203 0.474787 0.880098
vn 0.001885 0.474222 0.880403
vn 0.001213 0.475004 0.879983
vn 0.003078 0.474572 0.880211
vn 0.003079 0.474577 0.880209
vn 0.003083 0.474581 0.880206
vn 0.003077 0.474572 0.880211
vn 0.003087 0.474582 0.880206
vn 0.001981 0.474770 0.880108
vn 0.003077 0.474967 0.879998
vn 0.003158 0.474946 0.880009
vn 0.004793 0.473261 0.880909
vn 0.003928 0.475419 0.879751
vn 0.003080 0.475426 0.879750
vn 0.003410 0.475346 0.879792
vn 0.000003 1.000000 0.000004
vn 0.000006 1.000000 0.000000
vn 0.433061 -0.759670 0.485138
vn 0.379223 -0.776164 0.503745
vn 0.415562 -0.782917 0.462979
vn 0.375165 -0.788514 0.487336
vn 0.195751 -0.819147 0.539148
vn 0.261677 -0.792583 0.550761
vn 0.122514 -0.828524 0.546387
vn 0.283025 -0.815131 0.505429
vn 0.336762 -0.809273 0.481320
vn 0.002742 0.020227 0.999792
vn -0.000046 0.035039 0.999386
vn 0.002373 0.486768 0.873528
vn -0.000906 0.921298 0.388857
vn -0.001212 0.921672 0.387967
vn -0.000584 0.790091 0.612990
vn -0.000851 0.790537 0.612413
vn -0.000559 0.505249 0.862973
vn -0.000445 0.505038 0.863097
vn 0.000003 1.000000 -0.000000
vn 0.047481 -0.754780 0.654257
vn -0.000019 -0.765762 0.643124
vn 0.112381 -0.761456 0.638401
vn 0.200605 -0.774813 0.599518
s off
f 5/1/1 22/2/1 8/3/1
f 67/4/2 6/5/2 43/6/2
f 7/7/3 11/8/3 12/9/3
f 10/10/4 1/11/4 2/12/4
f 3/13/5 10/10/5 2/12/5
f 10/10/6 3/13/6 4/14/6
f 9/15/7 10/10/7 4/14/7
f 22/2/8 5/1/8 6/5/8
f 6/5/9 67/4/9 22/2/9
f 8/3/10 11/8/10 7/7/10
f 8/3/11 22/2/11 11/8/11
f 9/15/12 26/16/12 10/10/12
f 9/15/13 25/17/13 26/16/13
f 10/10/14 26/16/14 12/9/14
f 12/9/15 11/8/15 10/10/15
f 85/18/16 33/19/16 56/20/16
f 85/18/17 35/21/17 33/19/17
f 14/22/18 15/23/18 13/24/18
f 15/23/19 18/25/19 19/26/19
f 15/23/20 14/22/20 18/25/20
f 20/27/21 17/28/21 16/29/21
f 20/27/22 21/30/22 17/28/22
f 39/31/23 16/29/23 17/28/23
f 40/32/24 39/31/24 17/28/24
f 21/30/25 19/26/25 18/25/25
f 21/30/26 20/27/26 19/26/26
f 23/33/27 22/2/27 67/4/27
f 68/34/28 23/33/28 67/4/28
f 26/16/29 25/17/29 24/35/29
f 33/19/30 35/21/30 32/36/30
f 28/37/31 27/38/31 74/39/31
f 76/40/32 28/37/32 74/39/32
f 29/41/33 28/37/33 76/40/33
f 78/42/34 29/41/34 76/40/34
f 30/43/35 29/41/35 78/42/35
f 79/44/36 30/43/36 78/42/36
f 34/45/30 32/36/30 31/46/30
f 34/45/30 33/19/30 32/36/30
f 86/47/37 35/21/37 85/18/37
f 86/47/37 36/48/37 35/21/37
f 90/49/38 38/50/38 89/51/38
f 90/49/39 37/52/39 38/50/39
f 37/52/40 41/53/40 42/54/40
f 38/50/41 37/52/41 42/54/41
f 41/53/42 39/31/42 40/32/42
f 42/54/43 41/53/43 40/32/43
f 50/55/44 66/56/44 49/57/44
f 48/58/45 67/4/45 43/6/45
f 54/59/46 53/60/46 51/61/46
f 44/62/47 55/63/47 45/64/47
f 45/64/48 55/63/48 46/65/48
f 47/66/49 55/63/49 52/67/49
f 47/66/50 46/65/50 55/63/50
f 66/56/51 67/4/51 48/58/51
f 49/57/52 66/56/52 48/58/52
f 53/60/53 66/56/53 50/55/53
f 51/61/54 53/60/54 50/55/54
f 52/67/55 70/68/55 71/69/55
f 52/67/56 55/63/56 70/68/56
f 55/63/57 53/60/57 54/59/57
f 70/68/58 55/63/58 54/59/58
f 81/70/59 88/71/59 85/18/59
f 56/20/60 81/70/60 85/18/60
f 57/72/61 59/73/61 58/74/61
f 59/73/62 64/75/62 58/74/62
f 59/73/63 63/76/63 64/75/63
f 62/77/64 61/78/64 65/79/64
f 62/77/65 60/80/65 61/78/65
f 95/81/66 96/82/66 61/78/66
f 61/78/67 60/80/67 95/81/67
f 65/79/68 63/76/68 62/77/68
f 65/79/69 64/75/69 63/76/69
f 69/83/70 67/4/70 66/56/70
f 69/83/71 68/34/71 67/4/71
f 72/84/72 71/69/72 70/68/72
f 83/85/30 88/71/30 81/70/30
f 74/39/73 75/86/73 76/40/73
f 74/39/74 73/87/74 75/86/74
f 76/40/75 77/88/75 78/42/75
f 76/40/76 75/86/76 77/88/76
f 80/89/77 78/42/77 77/88/77
f 80/89/78 79/44/78 78/42/78
f 83/85/30 81/70/30 82/90/30
f 84/91/30 83/85/30 82/90/30
f 88/71/79 86/47/79 85/18/79
f 88/71/79 87/92/79 86/47/79
f 90/49/80 89/51/80 91/93/80
f 91/93/81 92/94/81 90/49/81
f 92/94/82 91/93/82 93/95/82
f 93/95/40 94/96/40 92/94/40
f 94/96/83 93/95/83 96/82/83
f 96/82/42 95/81/42 94/96/42
