o pant_coll_bot
v -3.865700 -3.140302 -18.740101
v 3.865600 -3.140302 -18.740101
v -6.533500 -4.313599 17.932501
v 6.533500 -4.313599 17.932501
v 9.548600 -3.705501 -8.804100
v 8.118800 -3.551601 -11.814700
v 4.875400 -3.396302 -17.999599
v -4.875500 -3.396302 -17.999599
v -8.118900 -3.551601 -11.814700
v -9.548600 -3.705501 -8.804100
v 9.562600 -3.628699 13.028900
v 8.679000 -3.291699 14.929300
v -7.188900 -4.335199 15.892601
v 7.188900 -4.335199 15.892601
v -8.679000 -3.291699 14.929300
v -9.562600 -3.628699 13.028900
v 7.222500 -4.282701 -11.772700
v -7.222600 -4.282701 -11.772700
vt 0.497070 0.284180
vt 0.451172 0.322266
vt 0.116211 0.322266
vt 0.072266 0.283203
vt 0.497070 0.052246
vt 0.072266 0.052246
vt 0.116211 0.014160
vt 0.451172 0.014160
vt 0.497070 0.036621
vt 0.497070 0.299805
vt 0.604004 0.231445
vt 0.593262 0.247559
vt 0.604004 0.104980
vt 0.593262 0.088867
vt 0.041016 0.274414
vt 0.041016 0.062012
vt 0.086426 0.028320
vt 0.086426 0.308105
vn 0.296091 -0.940397 -0.167119
vn 0.441298 -0.882168 -0.164190
vn 0.491684 -0.853969 0.170049
vn 0.376141 -0.914518 0.148869
vn -0.296091 -0.940397 -0.167119
vn -0.376141 -0.914518 0.148869
vn -0.491684 -0.853969 0.170049
vn -0.441298 -0.882168 -0.164190
vn -0.461135 -0.839167 -0.288247
vn 0.461135 -0.839167 -0.288278
vn 0.162145 -0.964324 -0.209204
vn 0.319559 -0.913816 -0.250526
vn -0.162145 -0.964324 -0.209204
vn -0.319559 -0.913816 -0.250526
vn 0.369182 -0.911130 0.183081
vn -0.369182 -0.911130 0.183081
vn -0.674154 -0.663839 0.323710
vn 0.674154 -0.663839 0.323710
s 1
f 17/1/1 5/2/2 11/3/3 14/4/4
f 18/5/5 13/6/6 16/7/7 10/8/8
f 9/9/9 18/5/5 10/8/8
f 6/10/10 5/2/2 17/1/1
f 6/10/10 17/1/1 2/11/11 7/12/12
f 1/13/13 18/5/5 9/9/9 8/14/14
f 14/4/4 4/15/15 3/16/16 13/6/6
f 18/5/5 17/1/1 14/4/4 13/6/6
f 18/5/5 1/13/13 2/11/11 17/1/1
f 13/6/6 3/16/16 15/17/17 16/7/7
f 11/3/3 12/18/18 4/15/15 14/4/4
