# 3ds Max Wavefront OBJ Exporter v0.94b - (c)2007 guruware
# File Created: 10.10.2010 23:48:59

#
# object glass
#

v  0.0000 1.3123 -11.6490
v  -1.8885 1.3501 -11.6453
v  -1.9773 1.7915 -11.5183
v  0.0000 1.8272 -11.5009
v  -1.9702 1.7526 -13.4402
v  0.0000 1.7883 -13.4228
v  0.0000 1.2734 -13.5709
v  -1.8814 1.3112 -13.5672
v  1.9773 1.7915 -11.5183
v  1.8885 1.3501 -11.6453
v  1.9702 1.7526 -13.4402
v  1.8814 1.3112 -13.5672
# 12 vertices

vn -0.0000 0.2765 -0.9610
vn 0.0037 0.2772 -0.9608
vn 0.0036 0.2770 -0.9609
vn 0.0000 0.2764 -0.9610
vn 0.0179 -0.9996 0.0203
vn 0.0200 0.9996 -0.0202
vn 0.9803 0.1973 -0.0004
vn -0.0036 0.2770 -0.9609
vn -0.0037 0.2772 -0.9608
vn -0.0179 -0.9996 0.0203
vn -0.0200 0.9996 -0.0202
vn -0.9803 0.1973 -0.0004
# 12 vertex normals

vt 0.4269 0.7771 0.0000
vt 0.7798 0.7842 0.0000
vt 0.7964 0.8667 0.0000
vt 0.4269 0.8733 0.0000
vt 0.7951 0.3685 0.0000
vt 0.4269 0.3652 0.0000
vt 0.4269 0.0061 0.0000
vt 0.7964 0.0093 0.0000
vt 0.4103 0.7527 0.0000
vt 0.0587 0.7520 0.0000
vt 0.0574 0.3929 0.0000
vt 0.4103 0.3936 0.0000
vt 0.4435 0.9046 0.0000
vt 0.4165 0.9861 0.0000
vt 0.0574 0.9792 0.0000
vt 0.0843 0.8977 0.0000
vt 0.0574 0.8667 0.0000
vt 0.0740 0.7842 0.0000
vt 0.0587 0.3685 0.0000
vt 0.0574 0.0093 0.0000
vt 0.7633 0.3929 0.0000
vt 0.7619 0.7520 0.0000
vt 0.4679 0.9039 0.0000
vt 0.8271 0.8977 0.0000
vt 0.8539 0.9793 0.0000
vt 0.4947 0.9854 0.0000
# 26 texture coords

g glass
s 1
f 1/1/1 2/2/2 3/3/3 4/4/4 
s off
f 5/5/5 6/6/5 4/7/5 3/8/5 
f 7/9/6 8/10/6 2/11/6 1/12/6 
f 8/13/7 5/14/7 3/15/7 2/16/7 
s 1
f 1/1/1 4/4/4 9/17/8 10/18/9 
s off
f 11/19/10 9/20/10 4/7/10 6/6/10 
f 7/9/11 1/12/11 10/21/11 12/22/11 
f 12/23/12 10/24/12 9/25/12 11/26/12 
# 8 polygons

