o pine_01
v 0.040251 -0.003314 -0.012882
v 0.007883 -0.016052 -0.036241
v 0.011563 0.257852 -0.012189
v -0.000302 0.277563 -0.014276
v -0.028012 0.275055 -0.012200
v -0.029145 -0.015467 -0.026579
v -0.005215 0.289758 0.007480
v -0.044082 -0.009844 -0.001035
v -0.009340 0.269646 0.017124
v -0.030268 -0.016391 0.026359
v -0.004634 0.290102 0.008296
v -0.002901 -0.015455 0.028812
v 0.010975 0.277356 0.015510
v 0.027368 -0.004801 0.045084
v 0.013693 0.280017 -0.001513
v 0.030484 -0.003858 0.013574
v 0.248263 0.444107 -0.156996
v 0.281532 0.435829 0.094114
v 0.134263 0.298315 -0.136357
v 0.057972 0.937477 0.012656
v 0.038447 0.950068 -0.033607
v -0.018457 1.001204 0.003231
v 0.102217 0.637763 -0.187452
v 0.052423 0.834452 0.019422
v 0.104622 0.806011 -0.063589
v 0.003074 0.256712 0.013482
v 0.186763 0.320664 0.006671
v 0.011025 0.266851 -0.211092
v -0.007467 0.966641 -0.037220
v -0.034087 0.947702 -0.002751
v 0.212235 0.616272 -0.044183
v -0.133052 0.291371 -0.175140
v -0.184815 0.310868 -0.010839
v -0.044333 0.952061 0.020430
v -0.020903 0.935270 0.041768
v -0.141817 0.294562 0.144847
v -0.019527 0.296811 0.187374
v -0.008823 0.974753 0.026132
v 0.040209 0.944368 0.023216
v 0.163316 0.311322 0.115652
v 0.039164 0.819385 0.070313
v 0.103093 0.637682 0.144229
v 0.122608 0.430179 0.169382
v -0.006318 0.410301 0.272111
v 0.020864 0.606574 0.149336
v -0.016671 0.785979 0.101284
v -0.060037 0.805586 0.026932
v -0.150477 0.613821 0.115524
v -0.103086 0.450026 0.163713
v -0.261950 0.418581 0.019905
v -0.181107 0.623863 -0.012901
v -0.112773 0.845445 -0.003755
v -0.036060 0.813630 -0.105923
v -0.111831 0.640810 -0.062840
v -0.088295 0.470004 -0.216340
v 0.023225 0.405133 -0.291908
v -0.078308 0.615901 -0.173924
v -0.001610 0.829197 -0.086142
v 0.040251 -0.003314 -0.012882
v 0.040251 -0.003314 -0.012882
v 0.013693 0.280017 -0.001513
v 0.011563 0.257852 -0.012189
v 0.007883 -0.016052 -0.036241
v -0.000302 0.277563 -0.014276
v -0.028012 0.275055 -0.012200
v -0.028012 0.275055 -0.012200
v -0.029145 -0.015467 -0.026579
v -0.044082 -0.009844 -0.001035
v -0.005215 0.289758 0.007480
v -0.030268 -0.016391 0.026359
v -0.009340 0.269646 0.017124
v -0.009340 0.269646 0.017124
v -0.002901 -0.015455 0.028812
v -0.030268 -0.016391 0.026359
v -0.004634 0.290102 0.008296
v -0.002901 -0.015455 0.028812
v 0.010975 0.277356 0.015510
v 0.027368 -0.004801 0.045084
v 0.248263 0.444107 -0.156996
v 0.248263 0.444107 -0.156996
v 0.248263 0.444107 -0.156996
v 0.102217 0.637763 -0.187452
v 0.102217 0.637763 -0.187452
v 0.212235 0.616272 -0.044183
v 0.212235 0.616272 -0.044183
v 0.052423 0.834452 0.019422
v 0.102217 0.637763 -0.187452
v 0.281532 0.435829 0.094114
v 0.281532 0.435829 0.094114
v 0.163316 0.311322 0.115652
v -0.019527 0.296811 0.187374
v -0.019527 0.296811 0.187374
v -0.103086 0.450026 0.163713
v -0.103086 0.450026 0.163713
v -0.103086 0.450026 0.163713
v -0.150477 0.613821 0.115524
v -0.150477 0.613821 0.115524
v -0.112773 0.845445 -0.003755
v -0.112773 0.845445 -0.003755
v -0.044333 0.952061 0.020430
v -0.018457 1.001204 0.003231
v -0.018457 1.001204 0.003231
v 0.057972 0.937477 0.012656
v 0.057972 0.937477 0.012656
v 0.039164 0.819385 0.070313
v 0.103093 0.637682 0.144229
v -0.008823 0.974753 0.026132
v -0.020903 0.935270 0.041768
v -0.016671 0.785979 0.101284
v 0.020864 0.606574 0.149336
v 0.020864 0.606574 0.149336
v -0.181107 0.623863 -0.012901
v -0.261950 0.418581 0.019905
v -0.261950 0.418581 0.019905
v -0.141817 0.294562 0.144847
v -0.141817 0.294562 0.144847
v -0.019527 0.296811 0.187374
v -0.184815 0.310868 -0.010839
v -0.133052 0.291371 -0.175140
v -0.261950 0.418581 0.019905
v 0.020864 0.606574 0.149336
v 0.020864 0.606574 0.149336
v 0.122608 0.430179 0.169382
v -0.006318 0.410301 0.272111
v -0.006318 0.410301 0.272111
v -0.006318 0.410301 0.272111
v 0.281532 0.435829 0.094114
v 0.281532 0.435829 0.094114
v 0.023225 0.405133 -0.291908
v 0.023225 0.405133 -0.291908
v 0.023225 0.405133 -0.291908
v -0.078308 0.615901 -0.173924
v -0.078308 0.615901 -0.173924
v -0.078308 0.615901 -0.173924
v -0.078308 0.615901 -0.173924
v 0.248263 0.444107 -0.156996
v 0.102217 0.637763 -0.187452
v -0.036060 0.813630 -0.105923
v -0.034087 0.947702 -0.002751
v -0.001610 0.829197 -0.086142
v -0.007467 0.966641 -0.037220
v -0.007467 0.966641 -0.037220
v -0.018457 1.001204 0.003231
v 0.038447 0.950068 -0.033607
v 0.038447 0.950068 -0.033607
v -0.018457 1.001204 0.003231
v 0.104622 0.806011 -0.063589
v 0.104622 0.806011 -0.063589
v 0.057972 0.937477 0.012656
v 0.102217 0.637763 -0.187452
v -0.088295 0.470004 -0.216340
v 0.011025 0.266851 -0.211092
v 0.011025 0.266851 -0.211092
v -0.133052 0.291371 -0.175140
v -0.133052 0.291371 -0.175140
v -0.088295 0.470004 -0.216340
v 0.134263 0.298315 -0.136357
v 0.134263 0.298315 -0.136357
vt 0.520731 0.155619
vt 0.513921 0.155428
vt 0.519287 0.001987
vt 0.512477 0.001796
vt 0.505667 0.001606
vt 0.507111 0.155239
vt 0.553333 0.002943
vt 0.560142 0.003134
vt 0.554778 0.156575
vt 0.561587 0.156766
vt 0.546523 0.002752
vt 0.547969 0.156384
vt 0.539714 0.002560
vt 0.541160 0.156194
vt 0.532906 0.002370
vt 0.534350 0.156003
vt 0.526096 0.002179
vt 0.527540 0.155812
vt 0.754490 0.394591
vt 0.388202 0.385877
vt 0.724384 0.241120
vt 0.580493 0.344358
vt 0.564904 0.381293
vt 0.519473 0.351883
vt 0.798915 0.598447
vt 0.497154 0.805496
vt 0.618240 0.775557
vt 0.536663 0.343699
vt 0.641402 0.463327
vt 0.683317 0.349136
vt 0.507023 0.913948
vt 0.574506 0.927202
vt 0.543011 0.522994
vt 0.528248 0.384178
vt 0.579776 0.944648
vt 0.529497 0.924711
vt 0.520771 0.981032
vt 0.589933 0.575824
vt 0.427983 0.494290
vt 0.386657 0.363116
vt 0.520918 0.993086
vt 0.531619 0.897379
vt 0.490151 0.905176
vt 0.494993 0.911625
vt 0.498561 0.981032
vt 0.460817 0.929300
vt 0.420986 0.238820
vt 0.518619 0.204867
vt 0.493681 0.993086
vt 0.489305 0.875140
vt 0.510915 0.945769
vt 0.566311 0.335927
vt 0.527165 0.333599
vt 0.664597 0.262128
vt 0.610046 0.913948
vt 0.584136 0.921202
vt 0.582611 0.789636
vt 0.422920 0.789636
vt 0.315101 0.598362
vt 0.675863 0.598362
vt 0.704329 0.379929
vt 0.936148 0.385877
vt 0.515753 0.264646
vt 0.356785 0.254812
vt 0.763709 0.254812
vt 0.516268 0.359004
vt 0.497000 0.239537
vt 0.555918 0.565616
vt 0.501166 0.754470
vt 0.512614 0.953187
vt 0.486199 0.775110
vt 0.377744 0.754470
vt 0.464558 0.911625
vt 0.307651 0.565616
vt 0.437909 0.775110
vt 0.305987 0.573244
vt 0.375115 0.400822
vt 0.252166 0.239537
vt 0.128563 0.359004
vt 0.286680 0.400822
vt 0.318619 0.237169
vt 0.143384 0.367720
vt 0.314199 0.237169
vt 0.496449 0.367720
vt 0.541295 0.254334
vt 0.544302 0.583815
vt 0.356972 0.573244
vt 0.360985 0.817068
vt 0.530961 0.817068
vt 0.679991 0.783578
vt 0.495683 0.929300
vt 0.472884 0.783578
vt 0.617147 0.601655
vt 0.261308 0.583815
vt 0.362359 0.601655
vt 0.841054 0.421852
vt 0.780956 0.233810
vt 0.541566 0.207998
vt 0.396690 0.421852
vt 0.559362 0.353564
vt 0.331404 0.233810
vt 0.779182 0.575434
vt 0.411258 0.575434
vt 0.523135 0.799964
vt 0.651137 0.799964
vt 0.475762 0.924711
vt 0.514592 0.944648
vt 0.581566 0.927202
vt 0.678093 0.775557
vt 0.674585 0.598447
vt 0.887619 0.394591
vt 0.721330 0.241120
vn 0.567156 0.064455 -0.821070
vn 0.438093 0.072787 -0.895962
vn 0.299264 0.079470 -0.950835
vn -0.079073 0.049562 -0.995605
vn -0.165654 0.057619 -0.984466
vn -0.250954 0.065249 -0.965789
vn -0.788629 0.084994 0.608936
vn -0.676351 0.066897 0.733512
vn -0.860134 0.028535 -0.509232
vn -0.957335 0.060915 -0.282418
vn -0.878475 0.100681 0.467025
vn 0.838923 0.041169 0.542650
vn -0.090518 0.038728 0.995117
vn -0.366558 0.075869 0.927274
vn -0.428205 0.065950 0.901242
vn -0.487899 0.055696 0.871090
vn 0.963469 0.070711 0.258217
vn 0.988647 0.067660 0.133915
vn 0.971770 0.070101 0.225227
vn 0.992615 0.068148 0.100192
vn 0.913938 0.101413 -0.392926
vn 0.935057 0.073733 0.346721
vn 0.773247 -0.622028 -0.122929
vn 0.796777 -0.596820 -0.094363
vn 0.803766 -0.568804 -0.174200
vn 0.770074 0.618366 -0.156713
vn 0.643727 0.762535 -0.064119
vn 0.801904 0.591113 -0.086734
vn 0.900113 0.018708 0.435194
vn 0.685903 -0.437727 0.581286
vn 0.786309 -0.230171 0.573321
vn 0.031037 -0.997497 0.063143
vn 0.298349 -0.954436 -0.003754
vn 0.651509 -0.758599 -0.003204
vn 0.861538 0.446150 -0.242164
vn 0.044465 -0.998047 -0.043458
vn 0.319254 0.761559 -0.563952
vn 0.919034 -0.023652 0.393384
vn -0.827204 0.228065 -0.513504
vn -0.833888 0.260567 -0.486496
vn -0.839869 0.296213 -0.454787
vn 0.767510 -0.177343 -0.615986
vn -0.230354 -0.973022 -0.012513
vn -0.276986 -0.960845 0.000305
vn -0.742180 0.424787 -0.518326
vn -0.593646 0.276925 0.755547
vn -0.447798 0.463485 0.764580
vn -0.525803 0.234107 0.817713
vn -0.167974 -0.980956 0.097354
vn 0.057009 -0.971191 0.231361
vn -0.513413 0.447127 0.732414
vn 0.421216 0.493881 0.760674
vn 0.498123 0.696005 0.517136
vn 0.285806 0.473098 0.833338
vn 0.668569 0.612598 -0.421522
vn 0.441359 -0.894070 0.076113
vn 0.540971 0.714408 0.443739
vn 0.569170 0.285745 0.770928
vn 0.265236 0.330607 0.905698
vn 0.930601 0.204993 0.303140
vn 0.785333 0.488723 0.379986
vn 0.766656 0.513199 0.385784
vn 0.740654 0.564135 0.364910
vn 0.127934 0.180303 0.975249
vn 0.392590 -0.124058 0.911283
vn 0.428938 -0.051820 0.901822
vn 0.395978 -0.262185 0.880001
vn 0.576678 -0.530808 0.621021
vn 0.484298 -0.412000 0.771783
vn 0.064943 0.297098 0.952605
vn 0.534989 0.393536 0.747581
vn 0.162603 0.355998 0.920225
vn -0.007324 0.370098 0.928922
vn -0.586657 0.186132 0.788110
vn -0.853542 0.069979 0.516282
vn -0.868374 -0.049501 0.493423
vn -0.166601 0.354045 0.920255
vn -0.166417 0.355113 0.919858
vn -0.179052 0.229621 0.956633
vn -0.549150 0.496536 0.672201
vn -0.761162 -0.328776 0.559008
vn -0.514420 0.024110 0.857173
vn -0.327738 -0.032899 0.944182
vn -0.534501 0.026368 0.844752
vn -0.675771 0.051332 0.735282
vn -0.782311 -0.603839 0.152806
vn -0.815760 -0.577929 -0.021912
vn -0.910855 0.333293 0.243294
vn -0.888852 0.388775 0.242378
vn -0.673360 0.022553 0.738945
vn -0.309214 0.288491 0.906156
vn -0.929624 0.276620 0.243355
vn -0.756066 0.349590 -0.553240
vn -0.689352 0.302499 -0.658193
vn -0.791955 0.233222 -0.564226
vn -0.602924 0.163854 -0.780755
vn -0.752068 0.220557 -0.621052
vn -0.845729 0.229652 -0.481613
vn -0.810907 0.069155 -0.581011
vn -0.822871 -0.533341 -0.195929
vn -0.475082 -0.254006 -0.842463
vn -0.654653 -0.337504 -0.676351
vn -0.263741 -0.153539 -0.952269
vn -0.915616 0.231941 -0.328318
vn -0.421766 0.279611 -0.862484
vn 0.136631 0.406476 -0.903378
vn 0.302377 0.418836 -0.856227
vn 0.299661 0.369304 -0.879635
vn -0.821802 0.159642 -0.546922
vn 0.178076 0.598437 -0.781091
vn 0.193884 0.336283 -0.921567
vn 0.227973 0.323557 -0.918302
vn 0.075137 0.446425 -0.891629
vn -0.131077 0.588946 -0.797449
vn -0.050172 -0.191992 -0.980102
vn 0.342998 0.579180 -0.739494
vn 0.525193 -0.490768 -0.695151
vn 0.512833 -0.466445 -0.720695
vn 0.536851 -0.514420 -0.668661
s 1
f 60/1/1 2/2/2 3/3/2
f 2/2/2 4/4/3 3/3/2
f 5/5/4 64/4/5 6/6/5
f 64/4/5 63/2/6 6/6/5
f 69/7/7 66/8/8 8/9/7
f 65/8/9 67/10/9 68/9/9
f 72/11/10 7/7/10 10/12/10
f 69/7/7 8/9/7 70/12/11
f 11/13/12 9/11/12 12/14/12
f 71/11/13 74/12/13 73/14/13
f 13/15/14 75/13/15 14/16/15
f 75/13/15 76/14/16 14/16/15
f 15/17/17 77/15/18 16/18/19
f 77/15/18 78/16/20 16/18/19
f 61/17/21 59/1/21 62/3/21
f 16/18/19 1/1/22 15/17/17
f 81/19/23 18/20/24 158/21/25
f 20/22/26 21/23/26 22/24/27
f 80/19/28 83/25/28 128/20/28
f 24/26/29 23/25/30 148/27/31
f 26/28/32 19/29/33 27/30/34
f 20/31/26 25/27/35 21/32/26
f 26/28/32 28/33/36 19/29/33
f 145/23/37 29/34/37 146/24/37
f 149/31/38 24/26/29 148/27/31
f 142/35/39 30/36/40 143/37/41
f 85/38/42 127/20/42 82/25/42
f 26/28/32 32/39/43 28/33/36
f 32/39/43 26/28/32 33/40/44
f 143/41/41 30/42/40 34/43/45
f 108/44/46 102/45/47 100/46/48
f 36/47/49 33/40/44 26/28/32
f 36/47/49 26/28/32 37/48/50
f 102/49/47 108/50/46 38/51/51
f 39/52/52 101/24/53 107/53/54
f 31/38/55 87/25/55 86/26/55
f 40/54/56 37/48/50 26/28/32
f 40/54/56 26/28/32 27/30/34
f 39/52/52 104/22/57 101/24/53
f 103/55/58 39/56/52 105/57/59
f 149/31/38 41/58/60 24/26/29
f 42/59/61 24/26/29 41/58/60
f 42/59/61 84/38/62 24/26/29
f 42/59/61 89/20/63 84/38/62
f 106/60/64 43/61/65 88/62/66
f 27/63/34 18/20/24 40/64/56
f 90/65/67 88/62/66 43/61/65
f 43/61/65 44/66/68 92/67/69
f 90/65/67 43/61/65 92/67/69
f 45/68/70 43/61/65 106/60/64
f 122/68/71 124/66/71 123/61/71
f 45/68/70 105/57/59 46/69/72
f 45/68/70 106/60/64 105/57/59
f 39/56/52 107/70/54 46/69/72
f 39/56/52 46/69/72 105/57/59
f 35/44/73 46/69/72 107/70/54
f 47/71/74 109/72/75 108/73/46
f 111/74/76 109/72/75 47/71/74
f 110/68/77 47/75/74 48/76/78
f 110/68/77 48/76/78 49/77/79
f 121/68/80 94/77/80 125/66/80
f 91/78/81 126/79/81 93/80/81
f 116/81/82 117/67/83 95/77/84
f 116/81/82 95/77/84 120/82/85
f 115/83/86 113/84/87 118/85/87
f 51/86/88 50/84/89 97/87/88
f 96/76/90 120/82/85 95/77/84
f 52/88/91 48/76/78 47/75/74
f 51/86/88 97/87/88 99/89/92
f 47/75/74 108/44/46 100/46/48
f 47/75/74 100/46/48 52/88/91
f 53/90/93 34/91/45 30/36/40
f 53/92/93 98/88/94 34/46/45
f 53/90/93 54/93/95 98/89/94
f 112/94/96 98/88/94 54/95/95
f 112/94/96 54/95/95 114/82/97
f 54/93/95 55/96/98 114/84/97
f 155/97/99 114/84/97 55/96/98
f 119/97/100 118/85/87 113/84/87
f 153/98/101 156/99/101 131/100/102
f 154/101/103 156/99/101 153/98/101
f 133/102/104 55/96/98 54/93/95
f 132/103/105 130/100/105 151/99/105
f 135/103/106 138/92/107 140/104/108
f 133/102/104 54/93/95 53/90/93
f 142/35/39 58/105/109 30/36/40
f 138/92/107 139/106/110 140/104/108
f 140/104/108 141/107/111 144/108/112
f 144/108/112 147/109/113 140/104/108
f 140/104/108 147/109/113 135/103/106
f 147/109/113 150/110/114 135/103/106
f 136/111/115 134/103/115 137/110/115
f 17/111/116 56/100/116 57/103/116
f 79/111/117 152/98/117 129/100/118
f 79/111/117 157/112/119 152/98/117
f 27/63/34 158/21/25 18/20/24
