# 3ds Max Wavefront OBJ Exporter v0.94b - (c)2007 guruware
# File Created: 12.10.2010 04:40:09

#
# object missiletip
#

v  -0.0596 0.0000 -0.9029
v  0.0000 0.0000 -0.9949
v  -0.0560 -0.0204 -0.9029
v  -0.0457 -0.0383 -0.9029
v  -0.0298 -0.0516 -0.9029
v  -0.0104 -0.0587 -0.9029
v  0.0000 -0.0587 -0.9029
v  0.0596 0.0000 -0.9029
v  0.0560 -0.0204 -0.9029
v  0.0457 -0.0383 -0.9029
v  0.0298 -0.0516 -0.9029
v  0.0104 -0.0587 -0.9029
v  -0.0560 0.0204 -0.9029
v  -0.0457 0.0383 -0.9029
v  -0.0298 0.0516 -0.9029
v  -0.0104 0.0587 -0.9029
v  0.0000 0.0587 -0.9029
v  0.0560 0.0204 -0.9029
v  0.0457 0.0383 -0.9029
v  0.0298 0.0516 -0.9029
v  0.0104 0.0587 -0.9029
# 21 vertices

vn -0.8392 -0.0000 -0.5438
vn 0.0000 -0.0000 -1.0000
vn -0.7886 -0.2870 -0.5438
vn -0.6429 -0.5394 -0.5438
vn -0.4196 -0.7268 -0.5438
vn -0.1457 -0.8264 -0.5438
vn 0.0000 -0.8430 -0.5380
vn 0.8392 0.0000 -0.5438
vn 0.7886 -0.2870 -0.5438
vn 0.6429 -0.5394 -0.5438
vn 0.4196 -0.7268 -0.5438
vn 0.1457 -0.8264 -0.5438
vn -0.7886 0.2870 -0.5438
vn -0.6429 0.5394 -0.5438
vn -0.4196 0.7268 -0.5438
vn -0.1457 0.8264 -0.5438
vn -0.0000 0.8430 -0.5380
vn 0.7886 0.2870 -0.5438
vn 0.6429 0.5394 -0.5438
vn 0.4196 0.7268 -0.5438
vn 0.1457 0.8264 -0.5438
# 21 vertex normals

vt 0.1571 0.0000 1.0000
vt 0.0884 0.0000 1.0000
vt 0.1222 0.0000 1.0000
vt 0.0873 0.0000 1.0000
vt 0.0524 0.0000 1.0000
vt 0.0175 0.0000 1.0000
vt -0.0000 0.0000 1.0000
# 7 texture coords

g missiletip
s 4
f 1/1/1 2/2/2 3/3/3 
f 3/3/3 2/2/2 4/4/4 
f 4/4/4 2/2/2 5/5/5 
f 5/5/5 2/2/2 6/6/6 
f 6/6/6 2/2/2 7/7/7 
f 8/1/8 9/3/9 2/2/2 
f 9/3/9 10/4/10 2/2/2 
f 10/4/10 11/5/11 2/2/2 
f 11/5/11 12/6/12 2/2/2 
f 12/6/12 7/7/7 2/2/2 
f 1/1/1 13/3/13 2/2/2 
f 13/3/13 14/4/14 2/2/2 
f 14/4/14 15/5/15 2/2/2 
f 15/5/15 16/6/16 2/2/2 
f 16/6/16 17/7/17 2/2/2 
f 8/1/8 2/2/2 18/3/18 
f 18/3/18 2/2/2 19/4/19 
f 19/4/19 2/2/2 20/5/20 
f 20/5/20 2/2/2 21/6/21 
f 21/6/21 2/2/2 17/7/17 
# 0 polygons - 20 triangles

