# 3ds Max Wavefront OBJ Exporter v0.94b - (c)2007 guruware
# File Created: 12.10.2010 04:42:23

#
# object missilewings
#

v  -0.0940 -0.0342 0.0871
v  -0.0940 -0.0342 0.5271
v  -0.2000 0.0000 0.5711
v  -0.1000 0.0000 0.0871
v  -0.0940 -0.0342 0.9671
v  -0.2000 0.0000 0.9231
v  0.0000 -0.0985 0.0871
v  0.0000 -0.1484 0.5491
v  -0.0174 -0.0985 0.5271
v  -0.0174 -0.0985 0.0871
v  0.0000 -0.1484 0.9451
v  -0.0174 -0.0985 0.9671
v  0.0000 -0.0797 0.9512
v  -0.0788 0.0000 0.9444
v  -0.0766 -0.0643 0.9671
v  -0.0500 -0.0866 0.9671
v  0.0940 -0.0342 0.0871
v  0.1000 0.0000 0.0871
v  0.2000 0.0000 0.5711
v  0.0940 -0.0342 0.5271
v  0.2000 0.0000 0.9231
v  0.0940 -0.0342 0.9671
v  0.0174 -0.0985 0.0871
v  0.0174 -0.0985 0.5271
v  0.0174 -0.0985 0.9671
v  0.0500 -0.0866 0.9671
v  0.0766 -0.0643 0.9671
v  0.0788 0.0000 0.9444
v  -0.0940 0.0342 0.0871
v  -0.0940 0.0342 0.5271
v  -0.0940 0.0342 0.9671
v  0.0000 0.0985 0.0871
v  -0.0174 0.0985 0.0871
v  -0.0174 0.0985 0.5271
v  0.0000 0.1484 0.5491
v  -0.0174 0.0985 0.9671
v  0.0000 0.1484 0.9451
v  -0.0500 0.0866 0.9671
v  -0.0766 0.0643 0.9671
v  0.0000 0.0797 0.9512
v  0.0940 0.0342 0.0871
v  0.0940 0.0342 0.5271
v  0.0940 0.0342 0.9671
v  0.0174 0.0985 0.5271
v  0.0174 0.0985 0.0871
v  0.0174 0.0985 0.9671
v  0.0766 0.0643 0.9671
v  0.0500 0.0866 0.9671
# 48 vertices

vn -0.9379 -0.2937 -0.1847
vn -0.3070 -0.9517 -0.0000
vn -0.3265 -0.9452 -0.0047
vn -0.9650 -0.1702 -0.1994
vn -0.3070 -0.9517 0.0000
vn -0.0684 -0.9977 -0.0027
vn -0.9427 -0.3334 -0.0131
vn -0.9371 -0.3484 -0.0230
vn 0.0000 -1.0000 -0.0000
vn -0.9446 -0.3283 0.0000
vn 0.0000 0.3057 0.9521
vn -0.1735 0.0000 0.9848
vn 0.1089 -0.0000 0.9941
vn 0.4153 0.9095 -0.0162
vn 0.0000 0.0000 1.0000
vn 0.5118 0.1560 0.8449
vn 0.0000 -0.0887 0.9961
vn 0.9379 -0.2937 -0.1847
vn 0.9650 -0.1702 -0.1994
vn 0.3265 -0.9452 -0.0047
vn 0.3070 -0.9517 -0.0000
vn 0.3070 -0.9517 0.0000
vn 0.0684 -0.9977 -0.0027
vn 0.9371 -0.3484 -0.0230
vn 0.9427 -0.3334 -0.0131
vn 0.9446 -0.3283 0.0000
vn -0.4153 0.9095 -0.0162
vn -0.5118 0.1560 0.8449
vn -0.1089 0.0000 0.9941
vn 0.1735 0.0000 0.9848
vn -0.9379 0.2937 -0.1847
vn -0.9650 0.1702 -0.1994
vn -0.3265 0.9452 -0.0047
vn -0.3070 0.9517 -0.0000
vn -0.3070 0.9517 0.0000
vn -0.0684 0.9977 -0.0027
vn 0.0000 1.0000 -0.0000
vn -0.9371 0.3484 -0.0230
vn -0.9427 0.3334 -0.0131
vn -0.9446 0.3283 0.0000
vn 0.4153 -0.9095 -0.0162
vn 0.5118 -0.1560 0.8449
vn -0.0000 -0.3057 0.9521
vn 0.0000 0.0887 0.9961
vn 0.9379 0.2937 -0.1847
vn 0.3070 0.9517 -0.0000
vn 0.3265 0.9452 -0.0047
vn 0.9650 0.1702 -0.1994
vn 0.3070 0.9517 0.0000
vn 0.0684 0.9977 -0.0027
vn 0.9427 0.3334 -0.0131
vn 0.9371 0.3484 -0.0230
vn 0.9446 0.3283 0.0000
vn -0.4153 -0.9095 -0.0162
vn -0.5118 -0.1560 0.8449
# 55 vertex normals

vt 0.1222 1.3200 1.0000
vt 0.1222 1.7600 1.0000
vt 0.1571 1.7600 1.0000
vt 0.1571 1.3200 1.0000
vt 0.1222 2.2000 1.0000
vt 0.1571 2.2000 1.0000
vt 0.6283 1.3200 1.0000
vt 0.6283 1.7600 1.0000
vt 0.6458 1.7600 1.0000
vt 0.6458 1.3200 1.0000
vt 0.6283 2.2000 1.0000
vt 0.6458 2.2000 1.0000
vt 0.7158 2.2000 1.0000
vt 0.8047 2.2000 1.0000
vt 0.7854 2.2000 1.0000
vt 0.7505 2.2000 1.0000
vt 0.7156 2.2000 1.0000
vt 0.6807 2.2000 1.0000
# 18 texture coords

g missilewings
s 4
f 1/1/1 2/2/2 3/3/3 4/4/4 
f 2/2/2 5/5/5 6/6/5 3/3/3 
s 2
f 7/7/6 8/8/7 9/9/8 10/10/9 
f 9/9/8 8/8/7 11/11/10 12/12/10 
s 8
f 13/13/11 14/14/12 6/15/13 5/16/14 
f 5/16/14 15/17/15 16/18/15 12/12/16 
f 13/13/11 5/16/14 12/12/16 11/11/17 
s 2
f 17/1/18 18/4/19 19/3/20 20/2/21 
f 20/2/21 19/3/20 21/6/22 22/5/22 
s 4
f 7/7/23 23/10/9 24/9/24 8/8/25 
f 24/9/24 25/12/26 11/11/26 8/8/25 
s 8
f 26/18/15 27/17/15 22/16/27 25/12/28 
f 21/15/29 28/14/30 13/13/11 22/16/27 
f 25/12/28 22/16/27 13/13/11 11/11/17 
s 2
f 29/1/31 4/4/32 3/3/33 30/2/34 
f 30/2/34 3/3/33 6/6/35 31/5/35 
f 32/7/36 33/10/37 34/9/38 35/8/39 
f 34/9/38 36/12/40 37/11/40 35/8/39 
s 8
f 38/18/15 39/17/15 31/16/41 36/12/42 
f 6/15/13 14/14/12 40/13/43 31/16/41 
f 36/12/42 31/16/41 40/13/43 37/11/44 
s 4
f 41/1/45 42/2/46 19/3/47 18/4/48 
f 42/2/46 43/5/49 21/6/49 19/3/47 
f 32/7/50 35/8/51 44/9/52 45/10/37 
f 44/9/52 35/8/51 37/11/53 46/12/53 
s 8
f 40/13/43 28/14/30 21/15/29 43/16/54 
f 43/16/54 47/17/15 48/18/15 46/12/55 
f 40/13/43 43/16/54 46/12/55 37/11/44 
# 28 polygons

