# 3ds Max Wavefront OBJ Exporter v0.97b - (c)2007 guruware
# File Created: 25.04.2012 04:56:21

mtllib feet.mtl

#
# object Front_foot
#

v  -5.8490 -38.8151 -46.5592
v  -0.0000 -38.8160 -46.3784
v  -0.0000 -38.9376 -21.2368
v  -6.0672 -38.8889 -31.2929
v  5.8490 -38.8151 -46.5592
v  6.0672 -38.8889 -31.2929
v  -6.8166 -37.9568 -31.0856
v  -6.5846 -37.8783 -47.3242
v  0.0000 -37.8793 -47.1207
v  6.5846 -37.8783 -47.3242
v  6.8166 -37.9568 -31.0856
v  0.0000 -38.0115 -19.7873
# 12 vertices

vn 0.0000 -1.0000 -0.0048
vn -0.0000 -1.0000 -0.0048
vn -0.7808 -0.6246 -0.0142
vn 0.0241 -0.6209 -0.7835
vn -0.0241 -0.6209 -0.7835
vn 0.7808 -0.6246 -0.0142
vn 0.6686 -0.6266 0.4004
vn -0.6686 -0.6266 0.4004
vn 0.0000 1.0000 0.0048
vn -0.0000 1.0000 0.0048
# 10 vertex normals

vt 0.1497 0.9423 0.2290
vt 0.1510 0.9969 0.2313
vt 0.3315 0.9969 0.5492
vt 0.2569 0.9403 0.4178
# 4 texture coords

g Front_foot
usemtl CobraI_body
s 1
f 1/1/1 2/2/1 3/3/1 4/4/1 
f 5/1/2 6/4/2 3/3/1 2/2/1 
s off
f 7/4/3 8/1/3 1/1/3 4/4/3 
f 8/1/4 9/2/4 2/2/4 1/1/4 
f 9/2/5 10/1/5 5/1/5 2/2/5 
f 10/1/6 11/4/6 6/4/6 5/1/6 
f 11/4/7 12/3/7 3/3/7 6/4/7 
f 12/3/8 7/4/8 4/4/8 3/3/8 
f 7/4/9 12/3/9 11/4/9 9/2/9 
f 11/4/9 10/1/9 9/2/9 
f 7/4/10 9/2/10 8/1/10 
# 9 polygons - 2 triangles

