# 3ds Max Wavefront OBJ Exporter v0.97b - (c)2007 guruware
# File Created: 25.04.2012 04:53:11

mtllib feet.mtl

#
# object rear_foot
#

v  -11.7049 -39.3178 47.8759
v  -16.4925 -39.3426 47.8660
v  -17.6538 -39.5587 30.0175
v  -10.1892 -39.4429 29.9754
v  -17.6796 -37.6928 30.0009
v  -16.5022 -37.4766 47.8440
v  -11.7193 -37.4517 47.8555
v  -10.2183 -37.5770 29.9599
v  -18.2638 -38.6327 29.5779
v  -9.5789 -38.5113 29.5344
v  -11.3343 -38.3800 48.2982
v  -16.9030 -38.4061 48.2870
v  11.7049 -39.3178 47.8759
v  10.1892 -39.4429 29.9754
v  17.6538 -39.5587 30.0175
v  16.4925 -39.3426 47.8660
v  17.6796 -37.6928 30.0009
v  10.2183 -37.5770 29.9599
v  11.7193 -37.4517 47.8555
v  16.5022 -37.4766 47.8440
v  9.5789 -38.5113 29.5344
v  18.2638 -38.6327 29.5779
v  11.3343 -38.3800 48.2982
v  16.9030 -38.4061 48.2870
# 24 vertices

vn 0.0077 -0.9999 0.0109
vn 0.0052 -0.9999 0.0118
vn 0.0138 -0.9999 0.0089
vn 0.0156 -0.9998 0.0083
vn -0.0138 0.9999 -0.0089
vn -0.0052 0.9999 -0.0118
vn -0.0077 0.9999 -0.0109
vn -0.0156 0.9998 -0.0083
vn 0.0015 -0.4281 -0.9037
vn -0.0049 -0.0078 -1.0000
vn -0.0053 -0.0101 -0.9999
vn 0.0016 -0.4287 -0.9034
vn 0.8532 -0.5150 0.0832
vn 0.9956 0.0138 0.0930
vn 0.9964 0.0074 0.0843
vn 0.9141 -0.3974 0.0802
vn 0.0001 -0.4106 0.9118
vn -0.0021 0.0095 1.0000
vn -0.0023 0.0119 0.9999
vn 0.0002 -0.4099 0.9121
vn -0.9000 -0.4301 0.0705
vn -0.9974 -0.0041 0.0726
vn -0.9978 -0.0118 0.0659
vn -0.8467 -0.5285 0.0615
vn -0.0104 0.4152 -0.9096
vn -0.0113 0.4080 -0.9129
vn 0.8407 0.5364 0.0746
vn 0.9083 0.4118 0.0733
vn -0.0039 0.4294 0.9031
vn -0.0044 0.4318 0.9020
vn -0.9044 0.4224 0.0605
vn -0.8582 0.5108 0.0504
vn -0.0077 -0.9999 0.0109
vn -0.0156 -0.9998 0.0083
vn -0.0138 -0.9999 0.0089
vn -0.0052 -0.9999 0.0118
vn 0.0138 0.9999 -0.0089
vn 0.0156 0.9998 -0.0083
vn 0.0077 0.9999 -0.0109
vn 0.0052 0.9999 -0.0118
vn -0.0015 -0.4281 -0.9037
vn -0.0016 -0.4287 -0.9034
vn 0.0053 -0.0101 -0.9999
vn 0.0049 -0.0078 -1.0000
vn -0.8532 -0.5150 0.0832
vn -0.9141 -0.3974 0.0802
vn -0.9964 0.0074 0.0843
vn -0.9956 0.0138 0.0930
vn -0.0001 -0.4106 0.9118
vn -0.0002 -0.4099 0.9121
vn 0.0023 0.0119 0.9999
vn 0.0021 0.0095 1.0000
vn 0.9000 -0.4301 0.0705
vn 0.8467 -0.5285 0.0615
vn 0.9978 -0.0118 0.0659
vn 0.9974 -0.0041 0.0726
vn 0.0104 0.4152 -0.9096
vn 0.0113 0.4080 -0.9129
vn -0.8407 0.5364 0.0746
vn -0.9083 0.4118 0.0733
vn 0.0039 0.4294 0.9031
vn 0.0044 0.4318 0.9020
vn 0.9044 0.4224 0.0605
vn 0.8582 0.5108 0.0504
# 64 vertex normals

vt 0.7934 0.9099 0.9890
vt 0.7933 0.8746 0.9899
vt 0.6897 0.8602 0.9984
vt 0.6846 0.9164 0.9945
# 4 texture coords

g rear_foot
usemtl CobraI_body
s 1
f 1/1/1 2/2/2 3/3/3 4/4/4 
f 5/3/5 6/2/6 7/1/7 8/4/8 
s 2
f 3/3/9 9/3/10 10/4/11 4/4/12 
s 4
f 4/4/13 10/4/14 11/1/15 1/1/16 
s 2
f 1/1/17 11/1/18 12/2/19 2/2/20 
s 4
f 2/2/21 12/2/22 9/3/23 3/3/24 
s 2
f 5/3/25 8/4/26 10/4/11 9/3/10 
s 4
f 8/4/27 7/1/28 11/1/15 10/4/14 
s 2
f 7/1/29 6/2/30 12/2/19 11/1/18 
s 4
f 6/2/31 5/3/32 9/3/23 12/2/22 
s 1
f 13/1/33 14/4/34 15/3/35 16/2/36 
f 17/3/37 18/4/38 19/1/39 20/2/40 
s 2
f 15/3/41 14/4/42 21/4/43 22/3/44 
s 4
f 14/4/45 13/1/46 23/1/47 21/4/48 
s 2
f 13/1/49 16/2/50 24/2/51 23/1/52 
s 4
f 16/2/53 15/3/54 22/3/55 24/2/56 
s 2
f 17/3/57 22/3/44 21/4/43 18/4/58 
s 4
f 18/4/59 21/4/48 23/1/47 19/1/60 
s 2
f 19/1/61 23/1/52 24/2/51 20/2/62 
s 4
f 20/2/63 24/2/56 22/3/55 17/3/64 
# 20 polygons

