o hatch
v -0.002775 -3.386980 1.196419
v -0.941636 -3.386981 3.811447
v -2.037555 -3.386980 1.196418
v 0.920117 -3.386980 -1.642834
v 2.032005 -3.386980 1.196419
v 0.920116 -3.386981 3.811448
v -0.941635 -3.386980 -1.642834
v -0.010760 -3.386981 3.811447
v -0.010759 -3.386980 -1.642834
vt 0.111162 0.480805
vt 0.476377 0.480805
vt 0.474944 0.011442
vt 0.307864 0.011442
vt 0.841592 0.480805
vt 0.642024 0.011442
vt 0.474944 0.990412
vt 0.307865 0.990412
vt 0.642024 0.990412
vn 0.000000 -1.000000 -0.000000
s 1
f 3/1/1 1/2/1 8/3/1 2/4/1
f 8/3/1 1/2/1 5/5/1 6/6/1
f 9/7/1 1/2/1 3/1/1 7/8/1
f 5/5/1 1/2/1 9/7/1 4/9/1
