o r_leg
v -3.322021 -0.115517 0.014420
v -3.322021 -0.069827 -0.092495
v -4.835911 -0.115517 0.014419
v -4.835911 -0.069827 -0.092495
v -3.322021 0.045676 -0.106409
v -4.835911 0.045676 -0.106409
v -3.322021 0.115489 -0.013413
v -4.835911 0.115489 -0.013413
v -3.322021 0.069798 0.093500
v -4.835911 0.069798 0.093500
v -3.322021 -0.045705 0.107417
v -4.835911 -0.045705 0.107417
v -3.699990 0.053484 1.240596
v -3.699990 0.079296 1.180172
v -4.034499 0.053484 1.240596
v -4.034499 0.079296 1.180172
v -3.699990 0.144568 1.172308
v -4.034499 0.144568 1.172308
v -3.699990 0.184012 1.224868
v -4.034499 0.184012 1.224868
v -3.699990 0.158200 1.285292
v -4.034499 0.158200 1.285292
v -3.699990 0.092930 1.293159
v -4.034499 0.092930 1.293159
v -4.034499 0.118748 1.232734
v -3.831320 0.215529 2.257897
v -3.771531 0.139098 2.315246
v -3.831319 -0.000151 0.000019
v -3.771530 -0.082307 0.009916
v -3.652126 0.150625 2.410135
v -3.652125 -0.082231 0.009908
v -3.592500 0.238527 2.447214
v -3.592500 0.000000 0.000000
v -3.652289 0.315013 2.390333
v -3.652289 0.082157 -0.009899
v -3.771694 0.303487 2.295445
v -3.771694 0.082081 -0.009890
v -3.963529 0.215504 2.257699
v -3.963529 0.139080 2.315088
v -3.831429 0.215504 2.257699
v -3.771844 0.139080 2.315088
v -3.963529 0.150600 2.409915
v -3.652138 0.150600 2.409915
v -3.963529 0.238544 2.447361
v -3.592553 0.238544 2.447361
v -3.963529 0.314971 2.389978
v -3.652357 0.314971 2.389978
v -3.963529 0.303451 2.295149
v -3.771844 0.303451 2.295149
v 3.322021 -0.115517 0.014420
v 3.322021 -0.069827 -0.092495
v 4.835911 -0.115517 0.014420
v 4.835911 -0.069827 -0.092495
v 3.322021 0.045676 -0.106409
v 4.835911 0.045676 -0.106409
v 3.322021 0.115489 -0.013413
v 4.835911 0.115489 -0.013413
v 3.322021 0.069798 0.093500
v 4.835911 0.069798 0.093500
v 3.322021 -0.045705 0.107417
v 4.835911 -0.045705 0.107417
v 3.699990 0.053484 1.240596
v 3.699990 0.079296 1.180172
v 4.034498 0.053484 1.240596
v 4.034499 0.079296 1.180173
v 3.699990 0.144568 1.172308
v 4.034499 0.144568 1.172308
v 3.699990 0.184012 1.224868
v 4.034498 0.184012 1.224868
v 3.699990 0.158200 1.285292
v 4.034498 0.158200 1.285292
v 3.699990 0.092930 1.293159
v 4.034498 0.092930 1.293159
v 4.034498 0.118748 1.232734
v 3.831319 0.215529 2.257897
v 3.771530 0.139098 2.315246
v 3.831319 -0.000151 0.000019
v 3.771530 -0.082307 0.009916
v 3.652125 0.150625 2.410135
v 3.652125 -0.082231 0.009908
v 3.592499 0.238527 2.447214
v 3.592499 0.000000 0.000000
v 3.652289 0.315012 2.390333
v 3.652289 0.082157 -0.009899
v 3.771694 0.303486 2.295446
v 3.771694 0.082081 -0.009890
v 3.963529 0.215504 2.257699
v 3.963529 0.139080 2.315089
v 3.831429 0.215504 2.257699
v 3.771844 0.139080 2.315089
v 3.963528 0.150600 2.409915
v 3.652138 0.150600 2.409915
v 3.963528 0.238544 2.447361
v 3.592553 0.238544 2.447361
v 3.963528 0.314971 2.389978
v 3.652356 0.314971 2.389978
v 3.963529 0.303451 2.295150
v 3.771844 0.303451 2.295150
vt 0.000000 0.000000
vt 1.000000 0.000000
vt 1.000000 1.000000
vt 0.000000 1.000000
vn -1.000000 0.000000 0.000000
vn -0.571612 -0.492294 -0.656392
vn -0.571612 -0.814600 0.098239
vn -0.571612 0.492294 0.656392
vn -0.571612 0.814600 -0.098239
vn 0.000000 -0.599902 -0.800043
vn 0.000000 -0.992798 0.119724
vn 0.000000 0.392590 -0.919675
vn 0.000000 0.992798 -0.119724
vn 0.000000 0.599933 0.800043
vn 0.000000 -0.392590 0.919675
vn 0.000000 -0.599963 -0.799982
vn -0.569475 0.322764 -0.755943
vn 0.000000 0.392682 -0.919645
vn 0.000000 0.992798 -0.119755
vn 0.000000 0.599994 0.799982
vn -0.569475 -0.322733 0.755943
vn 0.000000 -0.392651 0.919675
vn -0.999969 -0.004212 0.000397
vn -0.449019 -0.889370 0.085604
vn 0.461776 -0.882839 0.085452
vn 0.999969 0.003967 -0.000366
vn 0.449141 0.889279 -0.086062
vn -0.461867 0.882839 -0.084964
vn 0.000000 -0.120457 -0.992706
vn 0.000000 -0.919919 -0.392071
vn 0.000000 -0.799341 0.600848
vn 0.000000 0.120426 0.992706
vn 0.000000 0.919889 0.392102
vn 0.000000 0.799341 -0.600818
vn 1.000000 0.000000 0.000000
vn 0.571612 -0.814600 0.098239
vn 0.571612 -0.492294 -0.656392
vn 0.571612 0.814600 -0.098239
vn 0.571612 0.492294 0.656392
vn 0.569506 0.322764 -0.755943
vn 0.569475 -0.322733 0.755943
vn 0.999969 -0.004212 0.000397
vn 0.449019 -0.889370 0.085604
vn -0.461776 -0.882839 0.085452
vn -0.999969 0.003967 -0.000366
vn -0.449141 0.889279 -0.086062
vn 0.461867 0.882839 -0.084964
s 1
f 25/1/1 16/2/2 15/3/3
f 25/1/1 22/2/4 20/3/5
f 2/1/6 1/2/7 3/3/7 4/4/6
f 4/1/6 6/2/8 5/3/8 2/4/6
f 6/1/8 8/2/9 7/3/9 5/4/8
f 8/1/9 10/2/10 9/3/10 7/4/9
f 10/1/10 12/2/11 11/3/11 9/4/10
f 1/1/7 11/2/11 12/3/11 3/4/7
f 15/1/3 16/2/2 14/3/12 13/4/7
f 16/1/2 18/2/13 17/3/14 14/4/12
f 18/1/13 20/2/5 19/3/15 17/4/14
f 20/1/5 22/2/4 21/3/16 19/4/15
f 22/1/4 24/2/17 23/3/18 21/4/16
f 24/1/17 15/2/3 13/3/7 23/4/18
f 25/1/1 20/2/5 18/3/13 16/4/2
f 25/1/1 15/2/3 24/3/17 22/4/4
f 28/1/19 29/2/20 27/3/20 26/4/19
f 29/1/20 31/2/21 30/3/21 27/4/20
f 31/1/21 33/2/22 32/3/22 30/4/21
f 33/1/22 35/2/23 34/3/23 32/4/22
f 35/1/23 37/2/24 36/3/24 34/4/23
f 37/1/24 28/2/19 26/3/19 36/4/24
f 40/1/25 41/2/26 39/3/26 38/4/25
f 41/1/26 43/2/27 42/3/27 39/4/26
f 43/1/27 45/2/28 44/3/28 42/4/27
f 45/1/28 47/2/29 46/3/29 44/4/28
f 47/1/29 49/2/30 48/3/30 46/4/29
f 49/1/30 40/2/25 38/3/25 48/4/30
f 74/1/31 64/2/32 65/3/33
f 74/1/31 69/2/34 71/3/35
f 52/1/7 50/2/7 51/3/6 53/4/6
f 53/1/6 51/2/6 54/3/8 55/4/8
f 55/1/8 54/2/8 56/3/9 57/4/9
f 57/1/9 56/2/9 58/3/10 59/4/10
f 59/1/10 58/2/10 60/3/11 61/4/11
f 50/1/7 52/2/7 61/3/11 60/4/11
f 64/1/32 62/2/7 63/3/12 65/4/33
f 65/1/33 63/2/12 66/3/14 67/4/36
f 67/1/36 66/2/14 68/3/15 69/4/34
f 69/1/34 68/2/15 70/3/16 71/4/35
f 71/1/35 70/2/16 72/3/18 73/4/37
f 73/1/37 72/2/18 62/3/7 64/4/32
f 74/1/31 65/2/33 67/3/36 69/4/34
f 74/1/31 71/2/35 73/3/37 64/4/32
f 77/1/38 75/2/38 76/3/39 78/4/39
f 78/1/39 76/2/39 79/3/40 80/4/40
f 80/1/40 79/2/40 81/3/41 82/4/41
f 82/1/41 81/2/41 83/3/42 84/4/42
f 84/1/42 83/2/42 85/3/43 86/4/43
f 86/1/43 85/2/43 75/3/38 77/4/38
f 89/1/25 87/2/25 88/3/26 90/4/26
f 90/1/26 88/2/26 91/3/27 92/4/27
f 92/1/27 91/2/27 93/3/28 94/4/28
f 94/1/28 93/2/28 95/3/29 96/4/29
f 96/1/29 95/2/29 97/3/30 98/4/30
f 98/1/30 97/2/30 87/3/25 89/4/25
