o tech
v 1.551780 0.968444 7.517219
v -1.551790 0.968444 7.517218
v 1.558514 -0.955528 7.517219
v -2.408094 -0.000663 7.517218
v 2.408085 -0.000663 7.517219
v -1.558524 -0.955528 7.517218
v 1.558514 -0.955528 7.517219
v 1.558514 -0.955528 7.517219
v 1.558514 -0.955528 8.715314
v 1.558514 -0.955528 8.715314
v 2.408085 -0.001219 8.715314
v 2.408085 -0.001219 8.715314
v 1.551780 0.968444 8.715314
v 1.551780 0.968444 8.715314
v -1.551790 0.968444 8.715314
v -1.551790 0.968444 8.715314
v -2.408094 -0.001219 8.715314
v -2.408094 -0.001219 8.715314
v -1.558524 -0.955528 8.715314
v -1.558524 -0.955528 8.715314
v -1.558524 -0.955528 7.517218
v -2.408094 -0.000663 7.517218
v -2.408094 -0.000663 7.517218
v -1.551790 0.968444 7.517218
v -1.551790 0.968444 7.517218
v 1.551780 0.968444 7.517219
v 1.551780 0.968444 7.517219
v 2.408085 -0.000663 7.517219
v -1.558524 -0.955528 7.517218
v 2.408085 -0.000663 7.517219
v -5.048070 3.162817 -5.222517
v -5.048071 3.162818 5.156154
v -1.189327 3.162818 5.156155
v -1.189326 3.162817 -5.222516
v 5.026521 3.162817 -5.222516
v 5.026521 3.162818 5.156155
v 1.202362 3.162818 5.156155
v 1.202363 3.162817 -5.222516
v 6.940094 -2.533694 5.170602
v -8.434173 -0.624876 5.170601
v -8.434172 -0.624876 -5.248985
v -6.940103 2.531040 5.170601
v 6.940095 -2.533695 -5.248983
v 8.434164 -0.624876 5.170602
v -8.434173 0.622222 5.170601
v -6.940102 2.531039 -5.248985
v -8.434172 0.622221 -5.248985
v 8.434166 -0.624876 -5.248983
v -6.940103 -2.533694 5.170601
v -6.940102 -2.533695 -5.248984
v 6.940095 2.531039 -5.248984
v 6.940094 2.531040 5.170602
v 8.434164 0.622222 5.170602
v 8.434166 0.622221 -5.248983
vt -0.328125 0.500000
vt 0.031250 0.003906
vt 1.351563 0.003906
vt 1.343750 1.003906
vt 0.039063 1.003906
vt 0.000000 0.000000
vt 1.000000 0.000000
vt 1.000000 1.000000
vt 0.000000 1.000000
vt 1.710938 0.500000
vt 0.000000 0.000001
vt 1.000000 0.999999
vn 0.000000 0.000000 1.000000
vn 0.000000 -1.000000 0.000000
vn 0.749443 -0.662038 -0.000153
vn 0.747002 0.664815 0.000153
vn -0.749443 -0.662038 -0.000153
vn -0.747002 0.664815 0.000153
vn 0.000000 1.000000 0.000000
vn -0.787439 -0.616352 0.000000
vn -0.787439 0.616352 0.000000
vn 0.787439 -0.616352 0.000000
vn 0.787439 0.616352 0.000000
s 1
f 22/1/1 29/2/1 7/3/1
f 22/1/1 26/4/1 24/5/1
f 25/6/2 1/7/2 14/8/2 16/9/2
f 2/6/3 15/9/3 18/8/3 4/7/3
f 17/9/4 20/8/4 6/7/4 23/6/4
f 12/8/5 13/9/5 27/6/5 5/7/5
f 3/7/6 10/8/6 11/9/6 30/6/6
f 8/6/7 21/7/7 19/8/7 9/9/7
f 7/3/1 28/10/1 26/4/1 22/1/1
f 31/6/7 32/7/7 33/8/7 34/9/7
f 36/7/7 35/6/7 38/9/7 37/8/7
f 50/8/8 49/9/8 40/6/8 41/7/8
f 46/8/9 47/7/9 45/11/9 42/9/9
f 43/8/10 48/7/10 44/6/10 39/9/10
f 51/12/11 52/9/11 53/6/11 54/7/11
