o uc_cage
v 4.790195 -3.350933 7.202566
v 4.790195 -2.113371 2.972689
v -3.352924 -2.113371 7.201245
v 3.354940 -2.113371 2.972689
v -4.790822 -2.113371 2.972689
v 0.598438 -3.350933 -12.951090
v -0.598822 -2.109825 -12.951090
v -0.598822 -2.109825 -9.374407
v -0.598444 -3.350933 -9.374407
v 0.598438 -3.350933 -9.374407
v 0.598816 -2.109825 -9.374407
v 0.598816 -2.109825 -12.951090
v -0.598444 -3.350933 -12.951090
v 3.354940 -3.350933 2.972690
v 3.354940 -2.113371 7.202565
v 4.790195 -2.113371 7.202566
v 4.790195 -3.350933 2.972690
v -3.352924 -2.113371 2.972689
v -3.352924 -3.350933 2.972689
v -4.790822 -3.350933 2.972689
v -4.790822 -3.350933 7.201245
v -3.352924 -3.350933 7.201245
v -4.790822 -2.113371 7.201245
v -4.790822 -3.350933 2.972689
v -4.790822 -2.113371 2.972689
v -4.790822 -2.113371 2.972689
v -3.352924 -2.113371 2.972689
v -3.352924 -2.113371 2.972689
v -3.352924 -3.350933 2.972689
v -3.352924 -3.350933 7.201245
v -3.352924 -2.113371 7.201245
v -3.352924 -2.113371 7.201245
v -4.790822 -2.113371 7.201245
v -4.790822 -2.113371 7.201245
v -4.790822 -3.350933 7.201245
v 4.790195 -2.113371 2.972689
v 4.790195 -2.113371 2.972689
v 3.354940 -2.113371 2.972689
v 3.354940 -2.113371 2.972689
v 3.354940 -3.350933 2.972690
v 4.790195 -3.350933 2.972690
v 4.790195 -3.350933 7.202566
v 4.790195 -2.113371 7.202566
v 4.790195 -2.113371 7.202566
v 3.354940 -2.113371 7.202565
v 3.354940 -3.350933 7.202565
v 3.354940 -3.350933 7.202565
v 3.354940 -2.113371 7.202565
v -0.598822 -2.109825 -9.374407
v -0.598822 -2.109825 -9.374407
v -0.598444 -3.350933 -9.374407
v 0.598438 -3.350933 -9.374407
v 0.598816 -2.109825 -9.374407
v 0.598816 -2.109825 -9.374407
v 0.598816 -2.109825 -12.951090
v 0.598816 -2.109825 -12.951090
v 0.598438 -3.350933 -12.951090
v -0.598822 -2.109825 -12.951090
v -0.598822 -2.109825 -12.951090
v -0.598444 -3.350933 -12.951090
vt 0.367188 0.382813
vt 0.039063 0.527344
vt 0.367188 0.527344
vt 0.039063 0.382813
vt 0.539063 0.523438
vt 0.441406 0.402344
vt 0.539063 0.402344
vt 0.441406 0.523438
vt 0.402344 0.527344
vt 0.011719 0.386719
vt 0.011719 0.527344
vt 0.402344 0.386719
vt 0.558594 0.535156
vt 0.425781 0.386719
vt 0.558594 0.386719
vt 0.425781 0.535156
vt 0.945313 0.406250
vt 0.609375 0.519531
vt 0.945313 0.519531
vt 0.609375 0.406250
vt 0.421875 0.535156
vt 0.554688 0.386719
vt 0.554688 0.535156
vt 0.421875 0.386719
vt 0.632813 0.515625
vt 0.917969 0.417969
vt 0.632813 0.417969
vt 0.917969 0.515625
vn -0.999969 0.000275 0.000000
vn 0.000000 0.000000 1.000000
vn -1.000000 0.000000 0.000000
vn 1.000000 0.000000 0.000000
vn 0.000000 0.000000 -1.000000
vn 0.000000 -1.000000 0.000000
vn 0.999969 0.000275 0.000000
s 1
f 57/1/1 54/2/1 56/3/1
f 57/1/1 52/4/1 54/2/1
f 12/5/2 13/6/2 6/7/2
f 12/5/2 7/8/2 13/6/2
f 36/9/3 1/10/3 16/11/3
f 41/12/3 1/10/3 36/9/3
f 18/13/2 20/14/2 19/15/2
f 18/13/2 5/16/2 20/14/2
f 25/9/4 35/10/4 24/12/4
f 25/9/4 34/11/4 35/10/4
f 3/13/5 21/14/5 23/16/5
f 3/13/5 22/15/5 21/14/5
f 27/17/6 33/18/6 26/19/6
f 27/17/6 32/20/6 33/18/6
f 29/12/3 31/11/3 28/9/3
f 29/12/3 30/10/3 31/11/3
f 4/21/2 17/22/2 2/23/2
f 4/21/2 14/24/2 17/22/2
f 51/4/7 59/3/7 50/2/7
f 51/4/7 60/1/7 59/3/7
f 9/6/5 11/5/5 10/7/5
f 9/6/5 8/8/5 11/5/5
f 49/25/6 55/26/6 53/27/6
f 49/25/6 58/28/6 55/26/6
f 38/19/6 43/20/6 45/18/6
f 38/19/6 37/17/6 43/20/6
f 40/12/4 48/11/4 46/10/4
f 40/12/4 39/9/4 48/11/4
f 15/21/5 42/22/5 47/24/5
f 15/21/5 44/23/5 42/22/5
