# 3ds Max Wavefront OBJ Exporter v0.97b - (c)2007 guruware
# File Created: 17.09.2011 20:42:46

#
# object Box005
#

v  29.9904 195.5558 9.8281
v  29.9904 195.5558 -42.0756
v  -24.4391 195.5558 -42.0756
v  -24.4391 195.5558 9.8281
v  29.9904 -14.6698 23.7714
v  -24.4391 -14.6698 23.7714
v  29.9904 -14.6698 -42.0756
v  -24.4391 -14.6698 -42.0756
v  -22.7382 194.7133 -38.8058
v  8.3644 194.7133 -38.8058
v  8.3644 194.7133 6.4257
v  -22.7382 194.7133 6.4257
v  -0.9041 294.3667 6.4257
v  -0.9041 294.3667 -38.8058
v  -22.7382 294.3667 -38.8058
v  -22.7382 294.3667 6.4257
# 16 vertices

vn 0.0000 1.0000 -0.0000
vn 0.0000 0.0629 0.9980
vn 1.0000 0.0000 -0.0000
vn 0.0000 0.0000 -1.0000
vn -1.0000 0.0000 -0.0000
vn 0.0000 -1.0000 -0.0000
vn 0.0000 0.0000 1.0000
vn 0.9951 0.0986 -0.0000
# 8 vertex normals

vt 0.7284 0.5818 0.0000
vt 0.9477 0.5818 0.0000
vt 0.9477 0.7703 0.0000
vt 0.7284 0.7703 0.0000
vt 0.3302 -0.0060 0.0000
vt 0.3302 1.1185 0.0000
vt -0.0026 1.1185 0.0000
vt -0.0026 -0.0060 0.0000
vt 0.0236 -0.0122 0.0000
vt 0.0236 1.1191 0.0000
vt 0.2916 1.1191 0.0000
vt 0.3636 -0.0122 0.0000
vt 0.3472 0.0069 0.0000
vt 0.3472 1.1196 0.0000
vt -0.0100 1.1196 0.0000
vt -0.0100 0.0069 0.0000
vt 0.0051 -0.0063 0.0000
vt 0.3640 -0.0063 0.0000
vt 0.2880 1.1183 0.0000
vt 0.0051 1.1183 0.0000
vt 0.5773 0.6577 0.0000
vt 0.6638 0.6577 0.0000
vt 0.6638 0.7699 0.0000
vt 0.5773 0.7699 0.0000
vt 0.7669 0.7345 0.0000
vt 0.9346 0.7345 0.0000
vt 0.9346 0.8755 0.0000
vt 0.7669 0.8755 0.0000
vt 0.2339 -0.0030 0.0000
vt 0.0611 -0.0030 0.0000
vt 0.1126 0.4694 0.0000
vt 0.2339 0.4694 0.0000
vt 0.2439 -0.0030 0.0000
vt 0.2439 0.4732 0.0000
vt 0.0079 0.4732 0.0000
vt 0.0079 -0.0030 0.0000
vt 0.2427 0.0014 0.0000
vt 0.2427 0.4776 0.0000
vt 0.1150 0.4776 0.0000
vt 0.0607 0.0014 0.0000
vt 0.2447 0.0008 0.0000
vt 0.2447 0.4770 0.0000
vt 0.0088 0.4770 0.0000
vt 0.0088 0.0008 0.0000
# 44 texture coords

g Box005
s off
f 1/1/1 2/2/1 3/3/1 4/4/1 
f 5/5/2 1/6/2 4/7/2 6/8/2 
f 7/9/3 2/10/3 1/11/3 5/12/3 
f 8/13/4 3/14/4 2/15/4 7/16/4 
f 8/17/5 6/18/5 4/19/5 3/20/5 
f 9/21/6 10/22/6 11/23/6 12/24/6 
f 13/25/1 14/26/1 15/27/1 16/28/1 
f 12/29/7 11/30/7 13/31/7 16/32/7 
f 10/33/8 14/34/8 13/35/8 11/36/8 
f 9/37/4 15/38/4 14/39/4 10/40/4 
f 12/41/5 16/42/5 15/43/5 9/44/5 
# 11 polygons

