# Blender v2.62 (sub 0) OBJ File: 'ramjetcraft.blend'
# www.blender.org
o Cube.001
v -1.969518 -0.679615 5.000000
v -1.969516 -0.382265 -9.000001
v 1.969519 -0.382265 -9.000000
v 1.969517 -0.679615 5.000001
v -1.969519 0.679615 5.000000
v 1.969517 0.679615 5.000001
v -1.969517 -0.611653 -0.898050
v -1.969517 -0.611076 -3.000000
v -1.969517 -0.460961 -6.500001
v -1.626878 -1.000000 5.000000
v 1.626876 -1.000000 5.000000
v 0.000002 -0.382265 -9.000001
v 1.969519 -0.460961 -6.500000
v 1.969518 -0.611076 -3.000000
v 1.969517 -0.611653 -0.898049
v -1.626878 1.000000 4.592609
v 1.626876 1.000000 4.592609
v 1.969518 0.039039 -6.500000
v 1.969519 0.538354 -3.000000
v 1.969518 0.611653 0.500000
v -1.969517 0.039039 -6.500001
v -1.969518 0.538354 -3.000000
v -1.969518 0.611653 0.499999
v -1.626877 -0.900000 -0.898050
v -0.984758 -0.698340 -3.000000
v -0.984758 -0.460961 -6.500000
v 1.626877 -0.900000 -0.898049
v 0.984759 -0.698340 -2.999999
v 0.984760 -0.460961 -6.500001
v -1.373479 0.039039 -6.500000
v -1.626878 0.900000 0.500000
v 1.373481 0.039039 -6.500000
v 1.626877 0.900000 0.500000
v 2.819597 1.528337 4.420044
v 2.983347 1.529716 4.420044
v 2.983348 1.461754 2.430950
v -2.983351 1.461754 2.430950
v -2.983351 1.529716 4.420043
v -2.819599 1.528337 4.420043
v 0.457827 0.538354 -3.000000
v 1.373480 0.538354 -3.000000
v -0.457826 0.538354 -3.000000
v -1.373479 0.538354 -3.000000
v 1.969517 0.796679 0.110250
v 1.812271 0.877229 0.110250
v -1.812271 0.877229 0.110250
v -1.969518 0.796679 0.110250
v 1.873474 1.939701 0.110250
v -1.873475 1.939701 0.110250
v -1.812271 1.947611 0.110250
v 1.812271 1.947611 0.110250
v 3.104970 -1.998659 4.525393
v -3.104972 -1.998659 4.525392
v 2.461896 -1.110983 1.652521
v 2.365924 -1.399330 1.652521
v -2.365925 -1.399330 1.652520
v -2.461897 -1.110983 1.652520
v 2.270043 1.092383 1.774604
v 2.476433 1.036704 1.774605
v -2.476435 1.036704 1.774603
v -2.270045 1.092383 1.774603
v 1.969519 0.575129 -2.706507
v -1.969518 0.575129 -2.752701
v 1.778390 1.294890 -1.299919
v -1.626878 0.546653 5.000000
v 1.626877 0.546653 5.000000
v -1.585171 0.335092 5.550029
v 1.585168 0.335092 5.550028
v 1.583567 -0.392098 5.544244
v -1.583570 -0.392098 5.544242
v -1.626879 -0.581304 5.246125
v 1.626876 -0.581304 5.246126
v -1.748852 0.000000 5.000000
v 1.748851 0.000000 5.000000
v -1.798197 -0.755827 -1.831795
v -3.029624 -1.754486 2.661388
v -2.413910 -1.255157 1.122890
v 1.798197 -0.755827 -1.831794
v 3.029623 -1.754486 2.661389
v 2.413910 -1.255157 1.122892
v -0.297550 0.649349 -2.373763
v 0.297550 0.649349 -2.373763
v -0.209998 1.177143 -0.386905
v 0.209998 1.177143 -0.386905
v 0.689653 0.785837 -1.105694
v -0.689653 0.785837 -1.105694
v -1.446437 1.000000 4.592609
v 1.446435 1.000000 4.592609
v -0.289661 0.958629 2.375200
v 0.289660 0.958629 2.375200
v 2.373238 1.064544 1.520270
v -2.373239 1.064544 1.520269
v -1.227092 0.540885 5.000000
v 1.227090 0.540885 5.000000
v 0.000000 0.649349 -2.580722
v 0.000000 1.177143 -0.593865
v -1.763319 0.575129 -2.881722
v 1.763320 0.575129 -2.929805
v 0.000001 0.039039 -6.500001
v 0.762007 0.767025 3.931744
v -0.000001 0.773955 3.725302
v -0.762009 0.767025 3.931744
v -0.772270 0.853735 3.797311
v -0.000001 0.892919 3.590869
v 0.772269 0.853735 3.797311
v -1.626879 0.243685 5.550029
v -1.626879 -0.293107 5.544243
v 1.627001 0.241576 5.550795
v 1.626877 -0.293107 5.544243
v -1.626878 -0.966667 3.033983
v 1.626876 -0.966667 3.033984
v -0.542292 -0.900000 -0.587320
v 0.542292 -0.900000 -0.587320
v -0.542293 -1.000000 5.000001
v 0.542291 -1.000000 5.000000
v -0.542293 -0.966667 3.033983
v 0.542292 -0.966667 3.033983
v 0.000000 -0.844994 -1.007622
v -0.000001 -0.810142 5.000000
v 0.000000 -0.743475 -0.155314
v -0.000001 -0.776809 3.033983
v -0.542293 -0.988889 3.310206
v -0.542293 -0.859431 3.167341
v 0.542292 -0.988889 3.310206
v 0.542292 -0.859431 3.167341
v -0.000001 -0.799031 3.310206
v -0.000001 -0.669573 3.167341
v -1.471243 -0.913049 3.225379
v 1.471242 -0.913049 3.225379
v 1.626877 -0.933333 -0.155314
v 0.542292 -0.933333 -0.155314
v -1.626877 -0.933333 -0.155315
v -0.542292 -0.933333 -0.155315
v 0.000001 -0.460961 -6.500000
v 0.000000 -0.698340 -3.000000
v -0.000001 0.335092 5.550028
v -0.000001 0.243685 5.550028
v -0.000001 -0.293107 5.544243
v -0.000001 -0.392098 5.544243
v -0.000001 -0.581304 5.246125
v -0.000001 0.540885 5.000000
v 0.000000 0.538354 -3.000000
v -0.000000 0.958629 2.375200
vt 0.673445 0.576460
vt 0.672665 0.818058
vt 0.603726 0.818058
vt 0.604396 0.577268
vt 0.604137 0.577268
vt 0.603671 0.818058
vt 0.672609 0.818009
vt 0.673261 0.576460
vt 0.414842 0.817244
vt 0.420329 0.995235
vt 0.449705 0.817244
vt 0.194606 0.368057
vt 0.194249 0.577989
vt 0.271551 0.577752
vt 0.276603 0.273782
vt 0.404375 0.576881
vt 0.484520 0.576881
vt 0.283985 0.273783
vt 0.287423 0.577752
vt 0.364725 0.577989
vt 0.365981 0.368057
vt 0.916517 0.817873
vt 0.916517 0.573089
vt 0.874831 0.573089
vt 0.874831 0.817873
vt 0.874816 0.817873
vt 0.874816 0.573089
vt 0.916502 0.573089
vt 0.916502 0.817873
vt 0.101064 0.245308
vt 0.009938 0.321718
vt 0.024656 0.321594
vt 0.131862 0.274105
vt 0.131651 0.274105
vt 0.024445 0.321594
vt 0.009727 0.321718
vt 0.100853 0.245308
vt 0.901856 0.565264
vt 0.917175 0.560417
vt 0.892539 0.328306
vt 0.905505 0.355564
vt 0.916966 0.560057
vt 0.902095 0.564817
vt 0.892553 0.328306
vt 0.905519 0.355564
vt 0.470185 0.282760
vt 0.480641 0.306156
vt 0.482541 0.559638
vt 0.470185 0.281727
vt 0.482541 0.556417
vt 0.277197 0.132461
vt 0.274100 0.140381
vt 0.179987 0.148419
vt 0.177879 0.141253
vt 0.274223 0.140489
vt 0.276955 0.132425
vt 0.177987 0.141186
vt 0.180110 0.148527
vt 0.916502 0.992719
vt 0.778772 0.992719
vt 0.916517 0.992719
vt 0.672270 0.993263
vt 0.534755 0.993263
vt 0.672259 0.993263
vt 0.101064 0.123136
vt 0.131862 0.094338
vt -0.000994 0.004576
vt 0.131651 0.094338
vt 0.100854 0.123136
vt 0.012340 0.033373
vt 0.705478 0.247365
vt 0.763559 0.033648
vt 0.650543 0.009465
vt 0.706357 0.247365
vt 0.651065 0.009465
vt 0.764992 0.033648
vt 0.363243 0.210690
vt 0.389811 0.004525
vt 0.328305 0.033755
vt 0.393996 0.367775
vt 0.937521 0.239162
vt 0.892539 0.042076
vt 0.975955 0.054145
vt 0.495516 0.203171
vt 0.525879 0.040243
vt 0.473523 0.004525
vt 0.469337 0.281671
vt 0.521694 0.162748
vt 0.937535 0.239162
vt 0.975969 0.054145
vt 0.892553 0.042076
vt 0.230455 0.254287
vt 0.274226 0.140336
vt 0.179686 0.148608
vt 0.230457 0.254313
vt 0.230462 0.254374
vt 0.274193 0.140339
vt 0.179794 0.148598
vt 0.271480 0.178782
vt 0.230381 0.254270
vt 0.183361 0.401654
vt 0.208848 0.827452
vt 0.190946 0.702171
vt 0.208702 0.708196
vt 0.131651 0.233357
vt 0.131651 0.215374
vt 0.208557 0.826782
vt 0.208411 0.707527
vt 0.190655 0.701502
vt 0.131862 0.233357
vt 0.131862 0.215374
vt 0.431667 0.004525
vt 0.662089 0.495183
vt 0.650615 0.429748
vt 0.394282 0.495427
vt 0.404335 0.430321
vt 0.708872 0.285802
vt 0.354364 0.243309
vt 0.385117 0.425283
vt 0.661780 0.495183
vt 0.394032 0.497230
vt 0.650181 0.429747
vt 0.708123 0.285802
vt 0.323611 0.148555
vt 0.757338 0.172650
vt 0.756134 0.172650
vt 0.167135 0.692906
vt 0.124870 0.737361
vt 0.147689 0.805411
vt 0.167277 0.693575
vt 0.147830 0.806080
vt 0.125012 0.738031
vt 0.131862 0.145501
vt 0.131862 0.131972
vt 0.131651 0.131972
vt 0.131651 0.145501
vt 0.120688 0.184222
vt 0.120898 0.184222
vt 0.826990 0.440605
vt 0.827005 0.440605
vt 0.148080 0.274105
vt 0.147870 0.274105
vt 0.799568 0.529291
vt 0.793444 0.390334
vt 0.799582 0.529291
vt 0.793459 0.390334
vt 0.810777 0.573089
vt 0.810791 0.573089
vt 0.987408 0.054145
vt 0.987408 0.193258
vt 0.987422 0.193258
vt 0.987422 0.054145
vt 0.495617 0.201426
vt 0.497558 0.219159
vt 0.521553 0.162799
vt 0.944738 0.256950
vt 0.944753 0.256950
vt 0.497230 0.218835
vt 0.916517 0.355564
vt 0.480733 0.305676
vt 0.916502 0.355564
vt 0.951955 0.239162
vt 0.118595 0.689371
vt 0.089846 0.689295
vt 0.118109 0.732055
vt 0.089296 0.689295
vt 0.118075 0.689510
vt 0.118051 0.731888
vt 0.167585 0.232839
vt 0.167796 0.232839
vt 0.865748 0.112136
vt 0.879933 0.042076
vt 0.865734 0.112136
vt 0.879918 0.042076
vt 0.864593 0.013584
vt 0.864593 0.102734
vt 0.864578 0.102734
vt 0.864578 0.013584
vt 0.799031 0.197158
vt 0.799016 0.197158
vt 0.778772 0.543766
vt 0.778772 0.404809
vt 0.272448 0.189841
vt 0.271554 0.178802
vt 0.790481 0.817873
vt 0.821661 0.573146
vt 0.864279 0.572795
vt 0.864644 0.573146
vt 0.821324 0.572795
vt 0.790496 0.817873
vt 0.832051 0.088295
vt 0.778772 0.102734
vt 0.832065 0.088295
vt 0.832768 0.097698
vt 0.778772 0.112136
vt 0.832783 0.097698
vt 0.172502 0.936468
vt 0.158509 0.871135
vt 0.195808 0.873224
vt 0.650422 0.149886
vt 0.650302 0.377032
vt 0.650765 0.377032
vt 0.650915 0.149886
vt 0.573089 0.407661
vt 0.573523 0.407661
vt 0.573583 0.377032
vt 0.573642 0.149886
vt 0.573150 0.149886
vt 0.573119 0.377032
vt 0.229138 0.094338
vt 0.229348 0.094338
vt 0.534953 0.437290
vt 0.534909 0.376588
vt 0.534923 0.150942
vt 0.277881 0.111404
vt 0.573682 0.130067
vt 0.573702 0.009465
vt 0.573180 0.009465
vt 0.573170 0.130067
vt 0.534877 0.142130
vt 0.573451 0.141019
vt 0.534933 0.131255
vt 0.534938 0.011451
vt 0.573052 0.141019
vt 0.639606 0.136575
vt 0.639161 0.136575
vt 0.573277 0.376629
vt 0.649997 0.376629
vt 0.649684 0.376629
vt 0.572963 0.376629
vt 0.534788 0.818058
vt 0.534889 0.577268
vt 0.000896 0.730376
vt 0.000857 0.745282
vt 0.122156 0.746320
vt 0.122194 0.746039
vt 0.117732 0.827914
vt 0.000902 0.827400
vt 0.000899 0.861233
vt 0.117722 0.861601
vt 0.116916 0.827472
vt 0.116921 0.861162
vt 0.122148 0.943078
vt 0.000954 0.943890
vt 0.000913 0.958829
vt 0.115587 0.957782
vt 0.121312 0.943314
vt 0.114680 0.957965
vt 0.000844 0.984238
vt 0.119028 0.983190
vt 0.117988 0.983366
vt 0.001001 0.688367
vt 0.778772 0.013584
vt 0.277881 0.131972
vt 0.778772 0.573089
vt 0.778772 0.817873
vt 0.778772 0.197158
vn -0.044196 -0.997496 -0.055218
vn 0.044196 -0.997496 -0.055218
vn 1.000000 0.000002 0.000000
vn 1.000000 -0.000001 0.000000
vn 1.000000 0.000000 0.000000
vn -1.000000 0.000000 -0.000000
vn 0.000000 0.989977 -0.141232
vn -0.166981 0.664797 0.728123
vn 0.166980 0.664796 0.728124
vn 0.076860 0.958041 -0.276133
vn -0.078089 0.992208 -0.097089
vn -0.037924 0.971060 -0.235805
vn 0.070512 0.992665 -0.098207
vn -1.000000 -0.000003 0.000000
vn 1.000000 0.000001 0.000000
vn -0.000000 0.000000 1.000000
vn 0.000000 0.986096 -0.166178
vn 0.000000 -0.999505 -0.031463
vn 0.179825 -0.192321 0.964715
vn -0.179826 -0.192319 0.964715
vn -0.565470 -0.824343 -0.026505
vn 0.565469 -0.824343 -0.026505
vn 0.762684 0.646124 0.028921
vn 0.690407 0.723373 0.008335
vn -0.762684 0.646124 0.028921
vn -0.690407 0.723373 0.008335
vn -0.411927 0.908951 -0.064218
vn -0.243103 0.969711 -0.023694
vn 0.648320 -0.761164 0.017623
vn 0.624903 -0.780613 0.011789
vn 0.621731 -0.782774 0.026745
vn -0.648319 -0.761165 0.017623
vn -0.621730 -0.782775 0.026745
vn -0.624903 -0.780613 0.011789
vn 0.411927 0.908951 -0.064218
vn 0.243103 0.969711 -0.023694
vn 0.996467 0.083729 -0.006585
vn -0.996467 0.083729 -0.006480
vn 0.999866 -0.000000 0.016359
vn -0.254452 0.877429 -0.406659
vn -0.999711 0.000000 0.024019
vn -0.999636 -0.020025 0.018086
vn -0.886879 0.404674 0.222903
vn 0.251066 0.646993 0.719977
vn 0.321816 0.829315 0.456806
vn 0.889539 0.399735 0.221207
vn -0.251068 0.646992 0.719977
vn -0.321433 0.828324 0.458869
vn 0.997929 -0.048407 0.042356
vn 0.951110 -0.308818 0.004664
vn 0.951114 0.308819 0.003559
vn -0.997929 -0.048406 0.042356
vn -0.951114 0.308819 0.003558
vn -0.951109 -0.308819 0.004664
vn -0.087735 -0.990073 -0.109812
vn -0.117707 -0.984449 -0.130406
vn -0.644555 -0.764558 -0.000210
vn -0.038771 -0.981483 -0.187583
vn -0.976059 0.132608 -0.172405
vn 0.087735 -0.990073 -0.109812
vn 0.644554 -0.764558 -0.000210
vn 0.117707 -0.984449 -0.130406
vn 0.976059 0.132607 -0.172405
vn 0.038771 -0.981483 -0.187583
vn -0.759017 0.650961 -0.011914
vn 0.278492 -0.948541 -0.150709
vn 0.759017 0.650961 -0.011913
vn -0.278492 -0.948541 -0.150709
vn -0.854266 -0.373747 0.361307
vn 0.854269 -0.373743 0.361304
vn 0.281154 -0.689967 0.667006
vn -0.281156 -0.689967 0.667005
vn -0.898354 -0.291690 0.328447
vn -0.889245 0.288731 0.354792
vn 0.898877 -0.291859 0.326863
vn 0.889244 0.288731 0.354794
vn -0.428208 -0.457954 0.779048
vn 0.428206 -0.457955 0.779049
vn 0.062547 0.992283 -0.107059
vn -0.062547 0.992283 -0.107059
vn -0.000000 0.668401 0.743801
vn -0.000002 0.668402 0.743801
vn 0.398370 0.890684 -0.219049
vn -0.398370 0.890684 -0.219049
vn 0.025086 0.990863 -0.132522
vn -0.025086 0.990863 -0.132522
vn -0.350156 0.934761 -0.060116
vn 0.350154 0.934761 -0.060116
vn 0.831914 -0.402829 -0.381638
vn -0.283664 0.933972 -0.217329
vn 0.283665 0.933972 -0.217328
vn -0.831914 -0.402828 -0.381640
vn 0.069517 0.991601 -0.109066
vn -0.436735 0.852576 -0.287013
vn -0.928299 -0.282284 -0.242025
vn -0.069517 0.991601 -0.109066
vn 0.608873 0.728984 -0.312821
vn 0.878167 -0.432131 -0.205145
vn -0.013470 0.933596 0.358075
vn 0.013470 0.933596 0.358075
vn 0.009612 0.666251 0.745666
vn -0.009613 0.666251 0.745666
vn 0.146759 0.988877 -0.024162
vn 0.000000 0.983506 -0.180878
vn 0.100482 0.994866 -0.012084
vn -0.146759 0.988877 -0.024163
vn -0.100482 0.994866 -0.012084
vn 0.000000 0.983505 -0.180878
vn 0.622118 0.667638 0.408937
vn -0.622118 0.667638 0.408936
vn -0.453729 0.891105 0.007904
vn 0.453729 0.891105 0.007904
vn -0.102936 0.983617 -0.147993
vn 0.102936 0.983617 -0.147993
vn 0.201688 0.947713 -0.247309
vn -0.201688 0.947713 -0.247309
vn -0.079729 0.993528 0.080899
vn 0.079729 0.993528 0.080899
vn -0.116076 0.898111 -0.424174
vn 0.116898 0.904465 -0.410218
vn 0.416689 0.823598 -0.384782
vn -0.797653 0.554406 -0.237452
vn -0.053177 0.971993 0.228914
vn 0.053177 0.971993 0.228914
vn -0.137342 0.789253 0.598512
vn 0.137342 0.789253 0.598512
vn -0.034030 0.997494 0.062026
vn 0.034030 0.997494 0.062026
vn 0.976121 -0.002889 0.217210
vn -0.976060 -0.002344 0.217488
vn -0.525117 -0.850908 -0.014427
vn -0.517598 -0.855577 -0.008942
vn -0.461514 -0.886241 -0.039774
vn 0.461514 -0.886241 -0.039774
vn 0.517598 -0.855577 -0.008942
vn 0.525117 -0.850908 -0.014427
vn -0.025169 -0.995816 -0.087849
vn 0.025169 -0.995816 -0.087849
vn 0.000000 -0.999945 -0.010451
vn -0.000001 -0.506766 0.862084
vn 0.000000 -0.506766 0.862084
vn -0.031947 -0.995513 -0.089067
vn 0.031947 -0.995513 -0.089067
vn 0.330421 -0.943782 -0.009864
vn -0.330421 -0.943782 -0.009864
vn 0.102592 -0.293032 0.950583
vn -0.102592 -0.293036 0.950581
vn 0.000000 -0.999978 -0.006575
vn 0.263215 -0.751821 0.604553
vn 0.251121 -0.717277 -0.649964
vn 0.330430 -0.943810 -0.006206
vn -0.263215 -0.751821 0.604552
vn -0.251121 -0.717277 -0.649963
vn -0.330430 -0.943810 -0.006206
vn -0.076212 -0.995548 -0.055463
vn 0.343131 -0.939153 -0.015923
vn 0.000819 -0.741022 -0.671480
vn 0.083835 -0.776558 0.624443
vn -0.000000 -0.962929 0.269756
vn 0.076212 -0.995548 -0.055463
vn -0.000819 -0.741023 -0.671480
vn -0.343131 -0.939152 -0.015923
vn -0.000000 -0.962928 0.269757
vn -0.083835 -0.776559 0.624443
vn 0.008116 -0.998361 -0.056657
vn -0.008116 -0.998361 -0.056657
vn -0.238874 -0.969685 0.051481
vn 0.238874 -0.969685 0.051481
vn 0.000000 -0.997708 -0.067667
vn -0.000000 -0.997302 -0.073409
vn -0.000236 0.004096 0.999992
vn -0.000243 -0.011513 0.999934
vn 0.000000 -0.010777 0.999942
vn -0.000000 0.000007 1.000000
vn -0.000000 -0.000003 1.000000
vn -0.000000 -0.844311 0.535854
vn -0.000000 -0.844310 0.535855
vn 0.000000 0.936590 0.350426
vn 0.000000 0.983692 0.179861
vn -0.000000 -0.732357 0.680921
vn 0.000000 0.966700 -0.255914
vn 0.000000 0.997303 0.073398
vn 0.000000 0.998542 0.053974
s off
f 8/1/1 9/2/1 26/3/1 25/4/1
f 28/5/2 29/6/2 13/7/2 14/8/2
f 13/9/3 3/10/3 18/11/3
f 15/12/4 14/13/4 19/14/4 20/15/4
f 14/16/5 13/9/5 18/11/5 19/17/5
f 21/11/6 2/10/6 9/9/6
f 23/18/6 22/19/6 8/20/6 7/21/6
f 22/17/6 21/11/6 9/9/6 8/16/6
f 21/22/7 22/23/7 43/24/7 30/25/7
f 32/26/7 41/27/7 19/28/7 18/29/7
f 6/30/8 35/31/8 34/32/8 17/33/8
f 16/34/9 39/35/9 38/36/9 5/37/9
f 19/28/10 41/27/10 98/38/10 62/39/10
f 41/27/11 33/40/11 45/41/11 98/38/11
f 43/24/12 22/23/12 63/42/12 97/43/12
f 31/44/13 43/24/13 97/43/13 46/45/13
f 22/17/14 23/46/14 47/47/14 63/48/14
f 20/49/15 19/17/15 62/50/15 44/47/15
f 47/51/16 46/52/16 50/53/16 49/54/16
f 45/55/16 44/56/16 48/57/16 51/58/16
f 3/59/17 12/60/17 32/26/17 18/29/17
f 2/61/17 21/22/17 30/25/17 12/60/17
f 3/62/18 13/7/18 29/6/18 12/63/18
f 2/64/18 12/63/18 26/3/18 9/2/18
f 4/65/19 11/66/19 52/67/19
f 10/68/20 1/69/20 53/70/20
f 55/71/21 52/72/21 11/73/21
f 56/74/22 10/75/22 53/76/22
f 54/77/23 4/78/23 52/79/23
f 54/77/24 15/80/24 4/78/24
f 53/79/25 1/78/25 57/77/25
f 57/77/26 1/78/26 7/80/26
f 58/81/27 17/82/27 34/83/27
f 58/81/28 33/40/28 17/82/28
f 59/84/29 35/85/29 6/86/29
f 20/87/30 59/84/30 6/86/30
f 59/84/31 36/88/31 35/85/31
f 60/84/32 5/86/32 38/85/32
f 37/88/33 60/84/33 38/85/33
f 60/84/34 23/87/34 5/86/34
f 61/89/35 39/90/35 16/91/35
f 31/44/36 61/89/36 16/91/36
f 62/92/37 48/93/37 44/94/37
f 63/95/38 47/94/38 49/93/38
f 97/96/39 50/97/39 46/98/39
f 97/96/40 63/99/40 50/97/40
f 64/100/41 45/98/41 51/97/41
f 64/100/42 98/101/42 45/98/42
f 65/102/43 106/103/43 67/104/43
f 5/37/44 65/105/44 16/34/44
f 5/37/45 106/106/45 65/105/45
f 66/107/46 68/108/46 108/109/46
f 6/30/47 17/33/47 66/110/47
f 6/30/48 66/110/48 108/111/48
f 74/112/49 15/80/49 20/87/49
f 6/86/50 74/112/50 20/87/50
f 74/112/51 4/78/51 15/80/51
f 73/112/52 23/87/52 7/80/52
f 1/78/53 73/112/53 7/80/53
f 73/112/54 5/86/54 23/87/54
f 75/113/55 8/1/55 25/4/55
f 24/114/56 75/113/56 25/4/56
f 75/115/57 7/116/57 8/16/57
f 56/74/58 77/117/58 75/113/58 24/114/58
f 77/118/59 57/77/59 7/80/59 75/119/59
f 78/120/60 28/5/60 14/8/60
f 15/80/61 78/119/61 14/121/61
f 78/120/62 27/122/62 28/5/62
f 54/77/63 80/118/63 78/119/63 15/80/63
f 80/123/64 55/71/64 27/122/64 78/120/64
f 53/79/65 57/77/65 77/118/65 76/124/65
f 53/76/66 76/125/66 77/117/66 56/74/66
f 52/79/67 79/124/67 80/118/67 54/77/67
f 52/72/68 55/71/68 80/123/68 79/126/68
f 107/127/69 71/128/69 70/129/69
f 109/130/70 69/131/70 72/132/70
f 4/65/71 109/133/71 72/134/71
f 1/69/72 71/135/72 107/136/72
f 5/37/73 73/137/73 106/106/73
f 1/69/74 107/136/74 73/137/74
f 6/30/75 108/111/75 74/138/75
f 4/65/76 74/138/76 109/133/76
f 1/69/77 10/68/77 71/135/77
f 4/65/78 72/134/78 11/66/78
f 41/27/79 85/139/79 33/40/79
f 43/24/80 31/44/80 86/140/80
f 17/33/81 88/141/81 66/110/81
f 87/142/82 16/34/82 65/105/82
f 82/143/83 84/144/83 85/139/83
f 81/145/84 86/140/84 83/146/84
f 41/27/85 40/147/85 82/143/85 85/139/85
f 43/24/86 86/140/86 81/145/86 42/148/86
f 34/83/87 35/149/87 36/150/87 58/81/87
f 37/151/88 38/152/88 39/90/88 61/89/88
f 59/153/89 91/154/89 36/155/89
f 91/156/90 58/81/90 36/150/90
f 61/89/91 92/157/91 37/151/91
f 92/158/92 60/84/92 37/88/92
f 31/44/93 46/45/93 92/157/93 61/89/93
f 46/45/94 47/159/94 92/157/94
f 23/87/95 60/84/95 92/158/95 47/160/95
f 33/40/96 58/81/96 91/156/96 45/41/96
f 44/161/97 45/41/97 91/156/97 59/162/97
f 20/87/98 44/160/98 59/84/98
f 66/163/99 94/164/99 68/165/99
f 93/166/100 65/167/100 67/168/100
f 65/105/101 93/169/101 87/142/101
f 94/170/102 66/110/102 88/141/102
f 103/171/103 31/44/103 16/91/103
f 87/172/104 103/171/104 16/91/104
f 103/171/105 86/140/105 31/44/105
f 105/173/106 17/82/106 33/40/106
f 85/139/107 105/173/107 33/40/107
f 105/173/108 88/174/108 17/82/108
f 87/172/109 93/175/109 102/176/109 103/171/109
f 88/174/110 105/173/110 100/177/110 94/178/110
f 83/146/111 86/140/111 103/171/111 89/179/111
f 84/144/112 90/180/112 105/173/112 85/139/112
f 81/145/113 95/181/113 42/148/113
f 95/181/114 82/143/114 40/147/114
f 82/143/115 95/181/115 96/182/115 84/144/115
f 95/181/116 81/145/116 83/146/116 96/182/116
f 84/144/117 96/182/117 90/180/117
f 96/182/118 83/146/118 89/179/118
f 63/183/119 49/93/119 50/97/119
f 98/183/120 51/97/120 48/93/120
f 62/99/121 98/183/121 48/93/121
f 98/183/122 64/184/122 51/97/122
f 32/26/7 99/185/7 40/186/7 41/187/7
f 30/25/7 43/188/7 42/189/7 99/190/7
f 12/60/17 99/185/17 32/26/17
f 12/60/17 30/25/17 99/190/17
f 100/191/123 101/192/123 94/178/123
f 101/192/124 102/193/124 93/175/124
f 105/194/125 104/195/125 101/192/125 100/191/125
f 104/195/126 103/196/126 102/193/126 101/192/126
f 103/196/127 104/195/127 89/179/127
f 104/195/128 105/194/128 90/180/128
f 74/197/129 108/198/129 109/199/129
f 73/197/130 107/199/130 106/198/130
f 11/73/131 111/200/131 55/71/131
f 111/200/132 130/201/132 55/71/132
f 130/201/133 27/122/133 55/71/133
f 24/114/134 132/202/134 56/74/134
f 132/202/135 110/203/135 56/74/135
f 110/203/136 10/75/136 56/74/136
f 27/122/137 113/204/137 28/5/137
f 112/205/138 24/114/138 25/4/138
f 110/203/139 132/202/139 133/206/139 116/207/139
f 117/208/139 131/209/139 130/201/139 111/200/139
f 10/68/140 114/210/140 71/135/140
f 115/211/141 11/66/141 72/134/141
f 113/204/142 118/212/142 28/5/142
f 118/212/143 112/205/143 25/4/143
f 133/206/144 120/213/144 121/214/144 116/207/144
f 120/213/145 131/209/145 117/208/145 121/214/145
f 114/210/146 119/215/146 71/135/146
f 119/215/147 115/211/147 72/134/147
f 122/216/148 114/217/148 10/75/148
f 115/218/148 124/219/148 11/73/148
f 121/214/149 127/220/149 123/221/149 116/207/149
f 127/220/150 126/222/150 122/216/150 123/221/150
f 126/222/151 119/223/151 114/217/151 122/216/151
f 117/208/152 125/224/152 127/220/152 121/214/152
f 125/224/153 124/219/153 126/222/153 127/220/153
f 124/219/154 115/218/154 119/223/154 126/222/154
f 128/225/155 122/216/155 10/75/155
f 110/203/156 128/225/156 10/75/156
f 128/225/157 123/221/157 122/216/157
f 123/221/158 128/225/158 116/207/158
f 128/225/159 110/203/159 116/207/159
f 129/226/160 11/73/160 124/219/160
f 125/224/161 129/226/161 124/219/161
f 129/226/162 111/200/162 11/73/162
f 111/200/163 129/226/163 117/208/163
f 129/226/164 125/224/164 117/208/164
f 24/114/165 112/205/165 133/227/165 132/228/165
f 27/122/166 130/229/166 131/230/166 113/204/166
f 113/204/167 131/230/167 120/213/167 118/212/167
f 112/205/168 118/212/168 120/213/168 133/227/168
f 29/6/18 134/231/18 12/63/18
f 134/231/18 26/3/18 12/63/18
f 26/3/169 134/231/169 135/232/169 25/4/169
f 134/231/169 29/6/169 28/5/169 135/232/169
f 25/4/170 135/232/170 118/212/170
f 135/232/170 28/5/170 118/212/170
f 68/165/171 136/233/171 137/234/171 108/235/171
f 136/233/16 67/168/16 106/236/16 137/234/16
f 108/237/172 137/238/172 138/239/172 109/240/172
f 137/238/173 106/241/173 107/242/173 138/239/173
f 109/243/174 138/244/174 139/245/174 69/246/174
f 138/244/175 107/247/175 70/248/175 139/245/175
f 69/246/176 139/245/176 140/249/176 72/250/176
f 139/245/177 70/248/177 71/251/177 140/249/177
f 94/164/178 141/252/178 136/233/178 68/165/178
f 141/252/178 93/166/178 67/168/178 136/233/178
f 93/175/179 141/253/179 101/192/179
f 141/253/179 94/178/179 101/192/179
f 72/134/180 140/254/180 119/215/180
f 140/254/180 71/135/180 119/215/180
f 40/147/181 142/255/181 95/181/181
f 142/255/181 42/148/181 95/181/181
f 42/148/7 142/255/7 99/256/7
f 142/255/7 40/147/7 99/185/7
f 89/179/182 143/257/182 96/182/182
f 143/257/182 90/180/182 96/182/182
f 90/180/183 143/257/183 104/195/183
f 143/257/183 89/179/183 104/195/183
