# Blender3D v249 OBJ File: 
# www.blender3d.org
o boa2_recess
v 0.556300 0.362899 -26.703800
v 0.667500 0.179499 -22.703800
v 0.000800 0.179499 -22.703800
v 0.000800 0.362899 -26.703800
v 1.111900 0.362899 -26.703800
v 1.334100 0.179499 -22.703800
v -0.554800 0.362899 -26.703800
v -0.665900 0.179499 -22.703800
v -1.332500 0.179499 -22.703800
v -1.110300 0.362899 -26.703800
v 7.842000 -2.369100 5.346800
v 8.397600 -2.927400 9.346800
v 6.842000 -2.219000 9.346800
v 6.397600 -1.829400 5.346800
v 9.536500 -2.696100 5.346800
v 10.390500 -3.423199 9.346800
v -7.840400 -2.369100 5.346800
v -8.396000 -2.927400 9.346800
v -10.389000 -3.423199 9.346800
v -9.534900 -2.696100 5.346800
v -6.396000 -1.829400 5.346800
v -6.840400 -2.219000 9.346800
v 8.953000 -3.335700 13.346800
v 7.286400 -2.571000 13.346800
v 11.119800 -3.887700 13.346800
v -8.951500 -3.335700 13.346800
v -11.118200 -3.887700 13.346800
v -7.284900 -2.571000 13.346800
v 8.917500 -4.592600 5.204600
v 9.771600 -5.319699 9.204600
v 10.500800 -5.784200 13.204600
v 8.334100 -5.232200 13.204600
v 6.667400 -4.467500 13.204600
v 6.223000 -4.115499 9.204600
v 5.778600 -3.725900 5.204600
v 7.223000 -4.265600 5.204600
v -5.777000 -3.725900 5.204600
v -6.221400 -4.115499 9.204600
v -6.665900 -4.467500 13.204600
v -8.332500 -5.232200 13.204600
v -10.499200 -5.784200 13.204600
v -9.770000 -5.319699 9.204600
v -8.915900 -4.592600 5.204600
v -7.221400 -4.265600 5.204600
v 1.111900 -1.635001 -26.795401
v 1.334100 -1.818401 -22.795401
v 0.667500 -1.818401 -22.795401
v 0.000800 -1.818401 -22.795401
v -0.665900 -1.818401 -22.795401
v -1.332500 -1.818401 -22.795401
v -1.110300 -1.635001 -26.795401
v -0.554800 -1.635001 -26.795401
v 0.000800 -1.635001 -26.795401
v 0.556300 -1.635001 -26.795401
vt 0.506600 0.604400
vt 0.469600 0.605500
vt 0.469600 0.599300
vt 0.506600 0.599300
vt 0.506600 0.609600
vt 0.469600 0.611600
vt 0.506600 0.594200
vt 0.469600 0.593100
vt 0.469600 0.586900
vt 0.506600 0.589000
vt 0.210400 0.666200
vt 0.173300 0.671300
vt 0.173300 0.656900
vt 0.210400 0.652800
vt 0.210400 0.681900
vt 0.173300 0.689800
vt 0.210400 0.532400
vt 0.173300 0.527300
vt 0.173300 0.508800
vt 0.210400 0.516700
vt 0.210400 0.545800
vt 0.173300 0.541700
vt 0.136300 0.676500
vt 0.136300 0.661000
vt 0.136300 0.696500
vt 0.136300 0.522100
vt 0.136300 0.502100
vt 0.136300 0.537600
vn 0.000000 -0.998951 -0.045802
vn -0.383396 -0.921550 -0.061268
vn -0.216271 -0.969222 -0.117623
vn 0.216265 -0.969224 -0.117621
vn 0.383396 -0.921550 -0.061268
vn -0.415535 -0.908925 -0.034450
vn -0.243724 -0.967568 -0.066423
vn 0.243724 -0.967568 -0.066423
vn 0.415535 -0.908925 -0.034440
vn -0.926006 0.283526 0.249252
vn -0.935046 0.289860 0.204131
vn 0.017591 0.069048 -0.997458
vn 0.029845 0.065047 -0.997436
vn 0.945276 -0.298684 -0.131304
vn 0.944986 -0.298383 -0.134050
vn -0.024908 -0.066660 0.997465
vn -0.013577 -0.070356 0.997430
vn -0.944986 -0.298384 -0.134050
vn -0.945274 -0.298682 -0.131328
vn -0.029846 0.065046 -0.997436
vn -0.017591 0.069048 -0.997458
vn 0.935041 0.289884 0.204121
vn 0.925996 0.283546 0.249265
vn 0.013577 -0.070356 0.997430
vn 0.024908 -0.066660 0.997465
vn -0.998464 -0.002538 0.055348
vn 0.000000 0.045800 -0.998951
vn 0.998464 -0.002538 0.055348
vn 0.000000 -0.045800 0.998951
usemtl (null)
s off
f 1/1/1 2/2/1 3/3/1 4/4/1
f 1/1/1 5/5/1 6/6/1 2/2/1
f 7/7/1 8/8/1 9/9/1 10/10/1
f 7/7/1 4/4/1 3/3/1 8/8/1
f 11/11/2 12/12/2 13/13/2 14/14/2
f 11/11/3 15/15/3 16/16/3 12/12/3
f 17/17/4 18/18/4 19/19/4 20/20/4
f 17/17/5 21/21/5 22/22/5 18/18/5
f 23/23/6 24/24/6 13/13/6 12/12/6
f 23/23/7 12/12/7 16/16/7 25/25/7
f 26/26/8 27/27/8 19/19/8 18/18/8
f 26/26/9 18/18/9 22/22/9 28/28/9
f 29/15/10 30/16/10 16/16/10 15/15/10
f 30/16/11 31/25/11 25/25/11 16/16/11
f 31/25/12 32/23/12 23/23/12 25/25/12
f 32/23/13 33/24/13 24/24/13 23/23/13
f 33/24/14 34/13/14 13/13/14 24/24/14
f 34/13/15 35/14/15 14/14/15 13/13/15
f 35/14/16 36/11/16 11/11/16 14/14/16
f 36/11/17 29/15/17 15/15/17 11/11/17
f 37/21/18 38/22/18 22/22/18 21/21/18
f 38/22/19 39/28/19 28/28/19 22/22/19
f 39/28/20 40/26/20 26/26/20 28/28/20
f 40/26/21 41/27/21 27/27/21 26/26/21
f 41/27/22 42/19/22 19/19/22 27/27/22
f 42/19/23 43/20/23 20/20/23 19/19/23
f 43/20/24 44/17/24 17/17/24 20/20/24
f 44/17/25 37/21/25 21/21/25 17/17/25
f 45/5/26 46/6/26 6/6/26 5/5/26
f 46/6/27 47/2/27 2/2/27 6/6/27
f 47/2/27 48/3/27 3/3/27 2/2/27
f 48/3/27 49/8/27 8/8/27 3/3/27
f 49/8/27 50/9/27 9/9/27 8/8/27
f 50/9/28 51/10/28 10/10/28 9/9/28
f 51/10/29 52/7/29 7/7/29 10/10/29
f 52/7/29 53/4/29 4/4/29 7/7/29
f 1/1/29 4/4/29 53/4/29 54/1/29
f 5/5/29 1/1/29 54/1/29 45/5/29
