o boa2_bkw
v -11.322400 6.660702 17.891600
v -12.732900 6.951602 21.973301
v -12.714000 9.475702 24.279600
v -12.125900 9.517802 22.498400
v -11.855600 6.432702 24.855301
v -12.722100 9.725002 26.060801
v -9.699800 7.500902 25.567101
v -11.897900 10.220502 26.654499
v -7.810900 8.134202 24.861601
v -10.901800 10.634902 26.060801
v 7.812500 8.134202 24.861601
v 9.701400 7.500902 25.567101
v 11.899500 10.220502 26.654400
v 10.903400 10.634902 26.060699
v 11.857200 6.432702 24.855301
v 12.723700 9.725002 26.060699
v 12.734400 6.951602 21.973301
v 12.715600 9.475702 24.279499
v 11.324000 6.660702 17.891600
v 12.127500 9.517802 22.498301
v -12.343100 11.890002 26.946199
v -12.614700 12.352302 26.585800
v -13.599200 12.800002 27.354601
v -13.228200 12.180702 27.554501
v -12.101100 11.743302 25.029600
v -12.947600 12.048502 25.617100
v -13.001700 11.289002 25.029600
v -13.561000 11.877002 26.585800
v -13.314900 11.403802 26.946199
v 13.316500 11.403802 26.946100
v 13.562600 11.877002 26.585699
v 13.600800 12.800002 27.354500
v 13.229800 12.180702 27.554399
v 13.003200 11.289002 25.029499
v 12.949100 12.048502 25.617100
v 12.102700 11.743302 25.029499
v 12.616300 12.352302 26.585699
v 12.344700 11.890002 26.946100
v -7.557800 8.226002 17.891600
v -9.354500 7.688702 17.379601
v -11.209900 9.896402 21.904600
v -10.465900 10.355902 22.498400
v -7.792300 8.883902 21.973301
v -10.393800 10.641102 24.279600
v 9.356100 7.688702 17.379601
v 11.211500 9.896302 21.904600
v 7.559400 8.225902 17.891600
v 10.467500 10.355902 22.498301
v 7.793900 8.883902 21.973301
v 10.395400 10.641102 24.279499
v -11.855600 6.432702 24.855301
v -12.722100 9.725002 26.060801
v -13.314900 11.403802 26.946199
v -13.314900 11.403802 26.946199
v -13.561000 11.877002 26.585800
v -13.001700 11.289002 25.029600
v -12.125900 9.517802 22.498400
v -11.322400 6.660702 17.891600
v -13.228200 12.180702 27.554501
v -13.228200 12.180702 27.554501
v -12.343100 11.890002 26.946199
v -10.901800 10.634902 26.060801
v -7.810900 8.134202 24.861601
v 11.857200 6.432702 24.855301
v 12.723700 9.725002 26.060699
v 13.316500 11.403802 26.946100
v 13.316500 11.403802 26.946100
v 13.229800 12.180702 27.554399
v 13.229800 12.180702 27.554399
v 12.344700 11.890002 26.946100
v 10.903400 10.634902 26.060699
v 7.812500 8.134202 24.861601
v 13.562600 11.877002 26.585699
v 13.003200 11.289002 25.029499
v 12.127500 9.517802 22.498301
v 11.324000 6.660702 17.891600
v -13.599200 12.800002 27.354601
v -13.599200 12.800002 27.354601
v -13.599200 12.800002 27.354601
v -13.561000 11.877002 26.585800
v 13.600800 12.800002 27.354500
v 13.600800 12.800002 27.354500
v 13.600800 12.800002 27.354500
v 13.562600 11.877002 26.585699
v -13.228200 12.180702 27.554501
v 13.229800 12.180702 27.554399
vt 0.692300 0.248700
vt 0.723700 0.229000
vt 0.763800 0.236400
vt 0.745100 0.248100
vt 0.755200 0.209300
vt 0.782500 0.224700
vt 0.947300 0.404800
vt 0.924400 0.396000
vt 0.944700 0.370800
vt 0.956200 0.376500
vt 0.908600 0.385500
vt 0.933200 0.365100
vt 0.760400 0.385500
vt 0.744700 0.396000
vt 0.724300 0.370800
vt 0.735800 0.365100
vt 0.721700 0.404800
vt 0.712800 0.376500
vt 0.756600 0.194600
vt 0.724400 0.176100
vt 0.764200 0.167200
vt 0.783200 0.178200
vt 0.692300 0.157600
vt 0.745100 0.156200
vt 0.018000 0.323800
vt 0.032200 0.317500
vt 0.024900 0.326500
vt 0.017900 0.327400
vt 0.046600 0.313000
vt 0.041100 0.320700
vt 0.031800 0.328800
vt 0.024800 0.329900
vt 0.017900 0.331100
vt 0.021700 0.070000
vt 0.028600 0.071400
vt 0.028600 0.074700
vt 0.021700 0.073600
vt 0.035500 0.072700
vt 0.044600 0.081000
vt 0.049900 0.088900
vt 0.035600 0.083900
vt 0.021600 0.077200
vt 0.113300 0.271900
vt 0.117800 0.288600
vt 0.075600 0.305200
vt 0.070300 0.298200
vt 0.119200 0.301500
vt 0.075500 0.315100
vt 0.809700 0.240100
vt 0.803800 0.243800
vt 0.797900 0.247500
vt 0.957800 0.344600
vt 0.961400 0.346400
vt 0.965100 0.348200
vt 0.045600 0.275000
vt 0.075500 0.273500
vt 0.053800 0.297300
vt 0.031800 0.299400
vt 0.122200 0.102500
vt 0.120400 0.115400
vt 0.078700 0.097600
vt 0.078900 0.087600
vt 0.115400 0.132000
vt 0.073100 0.104400
vt 0.077600 0.129200
vt 0.056600 0.104800
vt 0.047700 0.126900
vt 0.034600 0.102100
vt 0.703900 0.348200
vt 0.707500 0.346400
vt 0.711200 0.344600
vt 0.797900 0.154800
vt 0.803900 0.158300
vt 0.809900 0.161800
vn -0.905057 0.279611 -0.320383
vn -0.996277 0.021821 -0.083346
vn -0.990234 -0.063509 -0.123997
vn -0.936247 0.132939 -0.325144
vn -0.956999 -0.238807 0.164556
vn -0.944304 -0.308481 0.114414
vn -0.167058 -0.424543 0.889859
vn 0.128574 -0.221076 0.966735
vn 0.115696 -0.246895 0.962096
vn -0.228828 -0.484695 0.844172
vn 0.406903 0.012146 0.913388
vn 0.474075 0.004303 0.880459
vn -0.406873 0.012177 0.913388
vn -0.128544 -0.221046 0.966735
vn -0.115696 -0.246895 0.962096
vn -0.474075 0.004303 0.880459
vn 0.167058 -0.424512 0.889859
vn 0.228828 -0.484695 0.844203
vn 0.956999 -0.238807 0.164525
vn 0.996277 0.021790 -0.083346
vn 0.990234 -0.063540 -0.123997
vn 0.944304 -0.308481 0.114414
vn 0.905057 0.279580 -0.320383
vn 0.936247 0.132969 -0.325175
vn 0.673940 0.643269 0.363231
vn 0.557268 0.830073 0.019776
vn 0.609424 0.618824 0.495590
vn 0.202979 0.913663 -0.352123
vn -0.373760 0.738945 -0.560564
vn 0.132847 0.931761 -0.337870
vn -0.722678 0.451125 -0.523606
vn -0.813105 0.369945 -0.449385
vn -0.872585 -0.292154 0.391369
vn 0.872585 -0.292154 0.391369
vn 0.722587 0.451216 -0.523667
vn 0.373730 0.738975 -0.560533
vn 0.813044 0.370006 -0.449446
vn -0.202918 0.913633 -0.352184
vn -0.557237 0.830073 0.019776
vn -0.132817 0.931761 -0.337870
vn -0.673940 0.643269 0.363231
vn -0.609424 0.618824 0.495590
vn 0.174383 0.929746 -0.324229
vn -0.337626 0.787683 -0.515275
vn -0.375408 0.740104 -0.557909
vn 0.189215 0.918241 -0.347819
vn -0.527177 0.668630 -0.524338
vn -0.574786 0.598407 -0.558123
vn -0.924497 -0.375866 0.063417
vn -0.969787 -0.203497 -0.134342
vn -0.946348 -0.016694 -0.322611
vn 0.538591 -0.003571 0.842555
vn -0.288430 -0.540269 0.790490
vn 0.660878 0.725486 0.191961
vn 0.571917 0.819666 0.032289
vn 0.605274 0.795038 0.039369
vn 0.693014 0.690329 0.207648
vn 0.527146 0.668661 -0.524338
vn 0.337626 0.787683 -0.515275
vn 0.375408 0.740104 -0.557909
vn 0.574725 0.598437 -0.558123
vn -0.174383 0.929746 -0.324259
vn -0.189184 0.918241 -0.347850
vn -0.571917 0.819666 0.032289
vn -0.605274 0.795038 0.039369
vn -0.660878 0.725486 0.191961
vn -0.693014 0.690329 0.207648
vn 0.288430 -0.540269 0.790490
vn -0.538591 -0.003571 0.842555
vn 0.946348 -0.016633 -0.322642
vn 0.969787 -0.203467 -0.134373
vn 0.924497 -0.375866 0.063417
s 1
f 1/1/1 2/2/2 3/3/3 4/4/4
f 5/5/5 6/6/6 3/3/3 2/2/2
f 51/7/7 7/8/8 8/9/9 52/10/10
f 9/11/11 10/12/12 8/9/9 7/8/8
f 11/13/13 12/14/14 13/15/15 14/16/16
f 15/17/17 16/18/18 13/15/15 12/14/14
f 64/19/19 17/20/20 18/21/21 65/22/22
f 19/23/23 20/24/24 18/21/21 17/20/20
f 61/25/25 22/26/26 79/27/27 24/28/27
f 25/29/28 26/30/29 78/27/30 22/26/26
f 27/31/31 80/32/32 77/27/32 26/30/29
f 29/33/33 60/28/33 23/27/33 28/32/33
f 30/34/34 31/35/34 83/36/34 33/37/34
f 34/38/35 35/39/36 82/36/37 84/35/37
f 36/40/38 37/41/39 81/36/40 35/39/36
f 38/42/41 69/37/42 32/36/42 37/41/39
f 39/43/43 40/44/44 41/45/45 42/46/46
f 58/47/47 57/48/48 41/45/45 40/44/44
f 27/31/31 26/30/29 41/45/45 57/48/48
f 25/29/28 42/46/46 41/45/45 26/30/29
f 54/49/49 55/50/50 3/3/3 6/6/6
f 56/51/51 4/4/4 3/3/3 55/50/50
f 21/52/52 59/53/52 8/9/9 10/12/12
f 53/54/53 52/10/10 8/9/9 85/53/53
f 63/55/54 43/56/55 44/57/56 62/58/57
f 39/43/43 42/46/46 44/57/56 43/56/55
f 25/29/28 22/26/26 44/57/56 42/46/46
f 61/25/25 62/58/57 44/57/56 22/26/26
f 76/59/58 45/60/59 46/61/60 75/62/61
f 47/63/62 48/64/63 46/61/60 45/60/59
f 36/40/38 35/39/36 46/61/60 48/64/63
f 34/38/35 75/62/61 46/61/60 35/39/36
f 47/63/62 49/65/64 50/66/65 48/64/63
f 72/67/66 71/68/67 50/66/65 49/65/64
f 38/42/41 37/41/39 50/66/65 71/68/67
f 36/40/38 48/64/63 50/66/65 37/41/39
f 67/69/68 68/70/68 13/15/15 16/18/18
f 70/71/69 14/16/16 13/15/15 86/70/69
f 74/72/70 73/73/71 18/21/21 20/24/24
f 66/74/72 65/22/22 18/21/21 73/73/71
