# OBJ written from C:\Users\rivalin\Desktop\pioneer\data\models\buildings\high_development\high_development_building_1\high_development_building_1_collision.obj

o Mesh
v -16.5 33.5 22.5
v -22.5 33.5 16.5
v -22.5 33.5 -16.5
v -16.5 33.5 -22.5
v 22.5 33.5 16.5
v 16.5 33.5 22.5
v 16.5 33.5 -22.5
v 22.5 33.5 -16.5
v -12.5 37.5 18.5
v -18.5 37.5 12.5
v -18.5 37.5 -12.5
v -12.5 37.5 -18.5
v 18.5 37.5 12.5
v 12.5 37.5 18.5
v 12.5 37.5 -18.5
v 18.5 37.5 -12.5
v -16.5 17 -22.5
v -22.5 17 -16.5
v -22.5 17 16.5
v -16.5 17 22.5
v 22.5 17 -16.5
v 16.5 17 -22.5
v 16.5 17 22.5
v 22.5 17 16.5
v -14.5 13 -20.5
v -20.5 13 -14.5
v -20.5 13 14.5
v -14.5 13 20.5
v 20.5 13 -14.5
v 14.5 13 -20.5
v 14.5 13 20.5
v 20.5 13 14.5
v -10.5 13 -16.5
v -16.5 13 -10.5
v -16.5 13 10.5
v -10.5 13 16.5
v 16.5 13 -10.5
v 10.5 13 -16.5
v 10.5 13 16.5
v 16.5 13 10.5
v -10.5 5 -16.5
v -16.5 5 -10.5
v -16.5 5 10.5
v -10.5 5 16.5
v 16.5 5 -10.5
v 10.5 5 -16.5
v 10.5 5 16.5
v 16.5 5 10.5
v -11.3284 5 -18.5
v -18.5 5 -11.3284
v -18.5 5 11.3284
v -11.3284 5 18.5
v 18.5 5 -11.3284
v 11.3284 5 -18.5
v 11.3284 5 18.5
v 18.5 5 11.3284
v -11.3284 -25 -18.5
v -18.5 -25 -11.3284
v -18.5 -25 11.3284
v -11.3284 -25 18.5
v 18.5 -25 -11.3284
v 11.3284 -25 -18.5
v 11.3284 -25 18.5
v 18.5 -25 11.3284
v -11.3284 -55 18.5
v -18.5 -55 11.3284
v -18.5 -55 -11.3284
v -11.3284 -55 -18.5
v 11.3284 -55 -18.5
v 18.5 -55 -11.3284
v 18.5 -55 11.3284
v 11.3284 -55 18.5
v -11.3609 37.5 15.75
v -15.75 37.5 11.3609
v -15.75 37.5 -11.3609
v -11.3609 37.5 -15.75
v 15.75 37.5 11.3609
v 11.3609 37.5 15.75
v 11.3609 37.5 -15.75
v 15.75 37.5 -11.3609
v -10.7396 39 14.25
v -14.25 39 10.7396
v -14.25 39 -10.7396
v -10.7396 39 -14.25
v 14.25 39 10.7396
v 10.7396 39 14.25
v 10.7396 39 -14.25
v 14.25 39 -10.7396
v 3.73498 38.88 0.934995
v -3.70502 38.88 0.934995
v -3.70502 38.88 -0.94501
v 3.73498 38.88 -0.94501
v 1.73498 42.6 0.934995
v -1.70502 42.6 0.934995
v -1.70502 42.6 -0.94501
v 1.73498 42.6 -0.94501
v 1.73498 38.88 2.93499
v -1.70502 38.88 2.93499
v -1.70502 38.88 -2.94501
v 1.73498 38.88 -2.94501
v 1.73498 40.6 2.93499
v -1.70502 40.6 2.93499
v -1.70502 40.6 -2.94501
v 1.73498 40.6 -2.94501
v -3.70502 40.6 0.934995
v -3.70502 40.6 -0.94501
v 3.73498 40.6 -0.94501
v 3.73498 40.6 0.934995
v 1.73498 40.6 2.93499
v -1.70502 40.6 2.93499
v 1.73498 40.6 -2.94501
v -1.70502 40.6 -2.94501
v 1.73498 38.88 5.13499
v -1.70502 38.88 5.13499
v 1.73498 40.6 5.13499
v -1.70502 40.6 5.13499
vn -0.57735 -0.57735 -0.57735
vn -0.57735 -0.57735 0.57735
vn 0.57735 -0.57735 -0.57735
vn 0.408248 0.816497 -0.408248
vn 0.408248 0.816497 0.408248
vn 0.57735 -0.57735 0.57735
vn 0 -1 0
vn -0.408248 0.816497 0.408248
vn -0.408248 0.816497 -0.408248
vn -0.707107 0 -0.707107
vn -0.707107 0 0.707107
vn 0.707107 0 -0.707107
vn 0.707107 0 0.707107
vn 0.707107 0.707107 0
vn 0 0.707107 -0.707107
vn -0.707107 0.707107 0
vn 0 0.707107 0.707107
vn -0.894427 -0.447214 0
vn -0 -0.447214 -0.894427
vn 0.894427 -0.447214 0
vn 0 -0.447214 0.894427
vn -1 0 0
vn 0 0 -1
vn 1 0 0
vn 0 0 1
vn 0 1 0
vn -0.500002 0.707103 0.500002
vn 0.500002 0.707103 0.500002
vn 0.500002 0.707103 -0.500002
vn -0.500002 0.707103 -0.500002
vn 0 0.707106 0.707108
vn 0.57735 0.57735 0.577351
vn 0.707106 0 0.707108
vn -0.707106 0 0.707108
vn -0.57735 0.57735 0.577351
vn 0.57735 0.57735 -0.57735
vn -0.57735 0.57735 -0.57735
vt 0.514769 0.46837
vt 0.514769 0.499265
vt 0.462819 0.499265
vt 0.462819 0.46837
vt 0.688227 0.499265
vt 0.688227 0.46837
vt 0.735694 0.46837
vt 0.735694 0.499265
vt 0.266147 0.46837
vt 0.266147 0.499265
vt 0.235104 0.499265
vt 0.235104 0.46837
vt 0.235104 0.698152
vt 0.235104 0.655308
vt 0.266147 0.655308
vt 0.266147 0.698152
vt 0.030672 0.698152
vt 0.030672 0.655308
vt 0.0658792 0.655308
vt 0.0658792 0.698152
vt 0.030672 0.499265
vt 0.030672 0.46837
vt 0.0658792 0.46837
vt 0.0658792 0.499265
vt 0.514769 0.44092
vt 0.462819 0.44092
vt 0.688227 0.44092
vt 0.735694 0.44092
vt 0.266147 0.44092
vt 0.235104 0.44092
vt 0.030672 0.44092
vt 0.0658792 0.44092
vt 0.688227 0.698152
vt 0.688227 0.655308
vt 0.735694 0.655308
vt 0.735694 0.698152
vt 0.514769 0.655308
vt 0.514769 0.698152
vt 0.462819 0.698152
vt 0.462819 0.655308
vt 0.514769 0.380447
vt 0.462819 0.380447
vt 0.688227 0.380447
vt 0.735694 0.380447
vt 0.235104 0.380447
vt 0.266147 0.380447
vt 0.030672 0.380447
vt 0.0658792 0.380447
vt 0.949328 0.655308
vt 0.949328 0.698152
vt 0.949328 0.46837
vt 0.949328 0.499265
vt 0.949328 0.44092
vt 0.949328 0.380447
vt 0.0731303 0.894295
vt 0.0730304 0.769656
vt 0.0867527 0.775327
vt 0.0868435 0.888602
vt 0.10292 0.739719
vt 0.108613 0.753432
vt 0.227559 0.739619
vt 0.221888 0.753341
vt 0.257497 0.769508
vt 0.243784 0.775201
vt 0.257597 0.894148
vt 0.243874 0.888476
vt 0.227707 0.924085
vt 0.222014 0.910372
vt 0.103068 0.924185
vt 0.108739 0.910463
vt 0.218795 0.760825
vt 0.111718 0.760911
vt 0.236304 0.778306
vt 0.23639 0.885383
vt 0.218909 0.902892
vt 0.111832 0.902978
vt 0.094323 0.885497
vt 0.0942372 0.77842
vt 0.533205 0.84418
vt 0.497795 0.84418
vt 0.497795 0.834545
vt 0.533205 0.834545
vt 0.543314 0.835714
vt 0.543314 0.824286
vt 0.559686 0.824286
vt 0.559686 0.835714
vt 0.559686 0.85371
vt 0.543314 0.85371
vt 0.543314 0.844345
vt 0.559686 0.844345
vt 0.523686 0.85443
vt 0.507314 0.85443
vt 0.559686 0.87171
vt 0.543314 0.87171
vt 0.543314 0.862345
vt 0.559686 0.862345
vt 0.507314 0.824296
vt 0.523686 0.824296
vt 0.543314 0.85429
vt 0.559686 0.85429
vt 0.533786 0.872281
vt 0.545214 0.872281
vt 0.545214 0.880719
vt 0.533786 0.880719
vt 0.569205 0.824286
vt 0.569205 0.835714
vt 0.545786 0.872281
vt 0.557214 0.872281
vt 0.557214 0.880719
vt 0.545786 0.880719
vt 0.533795 0.835714
vt 0.533795 0.824286
vt 0.569205 0.844345
vt 0.569205 0.83629
vt 0.559686 0.83629
vt 0.543314 0.83629
vt 0.533795 0.844345
vt 0.533795 0.83629
vt 0.533795 0.862345
vt 0.533795 0.85429
vt 0.569205 0.862345
vt 0.569205 0.85429
vt 0.509786 0.874719
vt 0.509786 0.866281
vt 0.521214 0.866281
vt 0.521214 0.874719
vt 0.523686 0.865704
vt 0.507314 0.865704
vt 0.533214 0.866281
vt 0.533214 0.874719
vt 0.521786 0.874719
vt 0.521786 0.866281
vt 0.49179 0.866286
vt 0.50921 0.866286
vt 0.50921 0.877714
vt 0.49179 0.877714
vt 0.49121 0.874719
vt 0.47379 0.874719
vt 0.47379 0.866281
vt 0.49121 0.866281
vt 0.030672 0.367183
vt 0.0658792 0.367183
vt 0.735694 0.367183
vt 0.949328 0.367183
vt 0.688227 0.367183
vt 0.514769 0.367183
vt 0.462819 0.367183
vt 0.266147 0.367183
vt 0.235104 0.367183
vt 0.030672 0.213848
vt 0.0658792 0.213848
vt 0.735694 0.213848
vt 0.949328 0.213848
vt 0.688227 0.213848
vt 0.514769 0.213848
vt 0.462819 0.213848
vt 0.266147 0.213848
vt 0.235104 0.213848
mtllib high_development_building_1_collision.mtl
usemtl material1
g Default
f 26/1/1 18/2/1 17/3/1 25/4/1
f 19/5/2 27/6/2 28/7/2 20/8/2
f 30/9/3 22/10/3 21/11/3 29/12/3
f 16/13/4 8/14/4 7/15/4 15/16/4
f 14/17/5 6/18/5 5/19/5 13/20/5
f 23/21/6 31/22/6 32/23/6 24/24/6
f 34/25/7 26/1/7 25/4/7 33/26/7
f 27/6/7 35/27/7 36/28/7 28/7/7
f 38/29/7 30/9/7 29/12/7 37/30/7
f 31/22/7 39/31/7 40/32/7 32/23/7
f 10/33/8 2/34/8 1/35/8 9/36/8
f 3/37/9 11/38/9 12/39/9 4/40/9
f 42/41/10 34/25/10 33/26/10 41/42/10
f 35/27/11 43/43/11 44/44/11 36/28/11
f 37/30/12 45/45/12 46/46/12 38/29/12
f 39/31/13 47/47/13 48/48/13 40/32/13
f 8/14/14 16/13/14 13/20/14 5/19/14
f 4/40/15 12/39/15 15/16/15 7/15/15
f 2/34/16 10/33/16 11/38/16 3/37/16
f 6/49/17 14/50/17 9/36/17 1/35/17
f 18/2/18 26/1/18 27/6/18 19/5/18
f 22/10/19 30/9/19 25/4/19 17/3/19
f 24/24/20 32/23/20 29/12/20 21/11/20
f 20/8/21 28/7/21 31/51/21 23/52/21
f 26/1/7 34/25/7 35/27/7 27/6/7
f 30/9/7 38/29/7 33/26/7 25/4/7
f 32/23/7 40/32/7 37/30/7 29/12/7
f 28/7/7 36/28/7 39/53/7 31/51/7
f 34/25/22 42/41/22 43/43/22 35/27/22
f 38/29/23 46/46/23 41/42/23 33/26/23
f 40/32/24 48/48/24 45/45/24 37/30/24
f 36/28/25 44/44/25 47/54/25 39/53/25
f 15/55/26 12/56/26 76/57/26 79/58/26
f 12/56/26 11/59/26 75/60/26 76/57/26
f 11/59/26 10/61/26 74/62/26 75/60/26
f 10/61/26 9/63/26 73/64/26 74/62/26
f 9/63/26 14/65/26 78/66/26 73/64/26
f 14/65/26 13/67/26 77/68/26 78/66/26
f 13/67/26 16/69/26 80/70/26 77/68/26
f 16/69/26 15/55/26 79/58/26 80/70/26
f 75/60/16 74/62/16 82/71/16 83/72/16
f 74/62/27 73/64/27 81/73/27 82/71/27
f 73/64/17 78/66/17 86/74/17 81/73/17
f 78/66/28 77/68/28 85/75/28 86/74/28
f 77/68/14 80/70/14 88/76/14 85/75/14
f 80/70/29 79/58/29 87/77/29 88/76/29
f 79/58/15 76/57/15 84/78/15 87/77/15
f 76/57/30 75/60/30 83/72/30 84/78/30
f 85/75/26 88/76/26 87/77/26 84/78/26 83/72/26 82/71/26 81/73/26 86/74/26
f 89/79/7 90/80/7 91/81/7 92/82/7
f 93/83/26 96/84/26 95/85/26 94/86/26
f 93/87/31 94/88/31 102/89/31 101/90/31
f 90/80/7 89/79/7 97/91/7 98/92/7
f 95/93/15 96/94/15 104/95/15 103/96/15
f 92/82/7 91/81/7 99/97/7 100/98/7
f 103/96/23 104/95/23 100/99/23 99/100/23
f 91/101/22 90/102/22 105/103/22 106/104/22
f 95/85/16 106/105/16 105/106/16 94/86/16
f 89/107/24 92/108/24 107/109/24 108/110/24
f 93/83/14 108/111/14 107/112/14 96/84/14
f 108/113/32 93/87/32 101/90/32 109/90/32
f 89/114/33 108/113/33 109/90/33 97/115/33
f 98/116/34 110/89/34 105/117/34 90/118/34
f 94/88/35 105/117/35 110/89/35 102/89/35
f 100/99/12 111/95/12 107/119/12 92/120/12
f 96/94/36 107/119/36 111/95/36 104/95/36
f 106/121/37 95/93/37 103/96/37 112/96/37
f 91/122/10 106/121/10 112/96/10 99/100/10
f 102/123/22 98/124/22 114/125/22 116/126/22
f 98/92/7 97/91/7 113/127/7 114/128/7
f 97/129/24 101/130/24 115/131/24 113/132/24
f 101/133/26 102/134/26 116/135/26 115/136/26
f 115/137/25 116/138/25 114/139/25 113/140/25
f 55/141/26 56/142/26 48/48/26 47/47/26
f 52/143/26 55/144/26 47/54/26 44/44/26
f 51/145/26 52/143/26 44/44/26 43/43/26
f 50/146/26 51/145/26 43/43/26 42/41/26
f 49/147/26 50/146/26 42/41/26 41/42/26
f 54/148/26 49/147/26 41/42/26 46/46/26
f 53/149/26 54/148/26 46/46/26 45/45/26
f 56/142/26 53/149/26 45/45/26 48/48/26
f 56/142/13 55/141/13 63/150/13 64/151/13
f 55/144/25 52/143/25 60/152/25 63/153/25
f 52/143/11 51/145/11 59/154/11 60/152/11
f 51/145/22 50/146/22 58/155/22 59/154/22
f 50/146/10 49/147/10 57/156/10 58/155/10
f 49/147/23 54/148/23 62/157/23 57/156/23
f 54/148/12 53/149/12 61/158/12 62/157/12
f 53/149/24 56/142/24 64/151/24 61/158/24
f 63/150/25 60/152/25 65/152/25 72/150/25
f 60/152/11 59/154/11 66/154/11 65/152/11
f 59/154/22 58/155/22 67/155/22 66/154/22
f 58/155/10 57/156/10 68/156/10 67/155/10
f 57/156/23 62/157/23 69/157/23 68/156/23
f 62/157/12 61/158/12 70/158/12 69/157/12
f 61/158/24 64/151/24 71/151/24 70/158/24
f 64/151/13 63/150/13 72/150/13 71/151/13
f 19/5/11 20/8/11 1/35/11 2/34/11
f 21/11/12 22/10/12 7/15/12 8/14/12
f 18/2/22 19/5/22 2/34/22 3/37/22
f 17/3/10 18/2/10 3/37/10 4/40/10
f 20/8/25 23/52/25 6/49/25 1/35/25
f 22/10/23 17/3/23 4/40/23 7/15/23
f 23/21/13 24/24/13 5/19/13 6/18/13
f 24/24/24 21/11/24 8/14/24 5/19/24
