# OBJ written from C:\Users\rivalin\Desktop\pioneer\data\models\buildings\terran_metropolis2\metropolis_building_1\metropolis_building_1.obj

o Mesh
v -16.5 29.5 -22.5
v -22.5 29.5 -16.5
v -22.5 29.5 16.5
v -16.5 29.5 22.5
v -16.5 33.5 22.5
v -22.5 33.5 16.5
v -22.5 33.5 -16.5
v -16.5 33.5 -22.5
v 22.5 29.5 -16.5
v 16.5 29.5 -22.5
v 16.5 29.5 22.5
v 22.5 29.5 16.5
v 22.5 33.5 16.5
v 16.5 33.5 22.5
v 16.5 33.5 -22.5
v 22.5 33.5 -16.5
v -12.5 37.5 18.5
v -18.5 37.5 12.5
v -18.5 37.5 -12.5
v -12.5 37.5 -18.5
v 18.5 37.5 12.5
v 12.5 37.5 18.5
v 12.5 37.5 -18.5
v 18.5 37.5 -12.5
v -16 29.5 -22
v -22 29.5 -16
v -22 29.5 16
v -16 29.5 22
v 22 29.5 -16
v 16 29.5 -22
v 16 29.5 22
v 22 29.5 16
v -16 26.5 -22
v -22 26.5 -16
v -22 26.5 16
v -16 26.5 22
v 22 26.5 -16
v 16 26.5 -22
v 16 26.5 22
v 22 26.5 16
v -16.5 26.5 -22.5
v -22.5 26.5 -16.5
v -22.5 26.5 16.5
v -16.5 26.5 22.5
v 22.5 26.5 -16.5
v 16.5 26.5 -22.5
v 16.5 26.5 22.5
v 22.5 26.5 16.5
v -16.5 24 -22.5
v -22.5 24 -16.5
v -22.5 24 16.5
v -16.5 24 22.5
v 22.5 24 -16.5
v 16.5 24 -22.5
v 16.5 24 22.5
v 22.5 24 16.5
v -16 24 -22
v -22 24 -16
v -22 24 16
v -16 24 22
v 22 24 -16
v 16 24 -22
v 16 24 22
v 22 24 16
v -16 21 -22
v -22 21 -16
v -22 21 16
v -16 21 22
v 22 21 -16
v 16 21 -22
v 16 21 22
v 22 21 16
v -16.5 21 -22.5
v -22.5 21 -16.5
v -22.5 21 16.5
v -16.5 21 22.5
v 22.5 21 -16.5
v 16.5 21 -22.5
v 16.5 21 22.5
v 22.5 21 16.5
v -16.5 17 -22.5
v -22.5 17 -16.5
v -22.5 17 16.5
v -16.5 17 22.5
v 22.5 17 -16.5
v 16.5 17 -22.5
v 16.5 17 22.5
v 22.5 17 16.5
v -14.5 13 -20.5
v -20.5 13 -14.5
v -20.5 13 14.5
v -14.5 13 20.5
v 20.5 13 -14.5
v 14.5 13 -20.5
v 14.5 13 20.5
v 20.5 13 14.5
v -10.5 13 -16.5
v -16.5 13 -10.5
v -16.5 13 10.5
v -10.5 13 16.5
v 16.5 13 -10.5
v 10.5 13 -16.5
v 10.5 13 16.5
v 16.5 13 10.5
v -10.5 5 -16.5
v -16.5 5 -10.5
v -16.5 5 10.5
v -10.5 5 16.5
v 16.5 5 -10.5
v 10.5 5 -16.5
v 10.5 5 16.5
v 16.5 5 10.5
v -11.3284 5 -18.5
v -18.5 5 -11.3284
v -18.5 5 11.3284
v -11.3284 5 18.5
v 18.5 5 -11.3284
v 11.3284 5 -18.5
v 11.3284 5 18.5
v 18.5 5 11.3284
v -11.3284 -25 -18.5
v -18.5 -25 -11.3284
v -18.5 -25 11.3284
v -11.3284 -25 18.5
v 18.5 -25 -11.3284
v 11.3284 -25 -18.5
v 11.3284 -25 18.5
v 18.5 -25 11.3284
vn 0 1 0
vn 0.707107 0 0.707107
vn 0 0 1
vn -0.707107 0 0.707107
vn -1 -0 -0
vn -0.707107 -0 -0.707107
vn 0 0 -1
vn 0.707107 0 -0.707107
vn 1 0 0
vn 0 -1 0
vn -0.57735 -0.57735 -0.57735
vn -0.57735 -0.57735 0.57735
vn 0.57735 -0.57735 -0.57735
vn 0.408248 0.816497 -0.408248
vn 0.408248 0.816497 0.408248
vn 0.57735 -0.57735 0.57735
vn -0.408248 0.816497 0.408248
vn -0.408248 0.816497 -0.408248
vn 0.707107 0.707107 0
vn 0 0.707107 -0.707107
vn -0.707107 0.707107 0
vn 0 0.707107 0.707107
vn -0.894427 -0.447214 0
vn -0 -0.447214 -0.894427
vn 0.894427 -0.447214 0
vn 0 -0.447214 0.894427
vt 0.030672 0.177183
vt 0.0658792 0.177183
vt 0.0658792 0.190447
vt 0.030672 0.190447
vt 0.735694 0.177183
vt 0.949328 0.177183
vt 0.949328 0.190447
vt 0.735694 0.190447
vt 0.688227 0.177183
vt 0.688227 0.190447
vt 0.514769 0.177183
vt 0.514769 0.190447
vt 0.462819 0.177183
vt 0.462819 0.190447
vt 0.266147 0.177183
vt 0.266147 0.190447
vt 0.235104 0.177183
vt 0.235104 0.190447
vt 0.030672 0.0238476
vt 0.0658792 0.0238476
vt 0.735694 0.0238476
vt 0.949328 0.0238476
vt 0.688227 0.0238476
vt 0.514769 0.0238476
vt 0.462819 0.0238476
vt 0.266147 0.0238476
vt 0.235104 0.0238476
vt 0.688227 0.34679
vt 0.688227 0.336178
vt 0.735694 0.336178
vt 0.735694 0.34679
vt 0.514769 0.336178
vt 0.514769 0.34679
vt 0.462819 0.34679
vt 0.462819 0.336178
vt 0.266147 0.367469
vt 0.266147 0.378136
vt 0.235104 0.378136
vt 0.235104 0.367469
vt 0.030672 0.378136
vt 0.030672 0.367469
vt 0.0658792 0.367469
vt 0.0658792 0.378136
vt 0.688227 0.378136
vt 0.688227 0.367469
vt 0.735694 0.367469
vt 0.735694 0.378136
vt 0.514769 0.367469
vt 0.514769 0.378136
vt 0.462819 0.378136
vt 0.462819 0.367469
vt 0.266147 0.336178
vt 0.266147 0.34679
vt 0.235104 0.34679
vt 0.235104 0.336178
vt 0.030672 0.34679
vt 0.030672 0.336178
vt 0.0658792 0.336178
vt 0.0658792 0.34679
vt 0.235104 0.465308
vt 0.235104 0.4372
vt 0.266147 0.4372
vt 0.266147 0.465308
vt 0.030672 0.465308
vt 0.030672 0.4372
vt 0.0658792 0.4372
vt 0.0658792 0.465308
vt 0.266147 0.398568
vt 0.235104 0.398568
vt 0.030672 0.398568
vt 0.0658792 0.398568
vt 0.514769 0.398568
vt 0.514769 0.40768
vt 0.462819 0.40768
vt 0.462819 0.398568
vt 0.688227 0.40768
vt 0.688227 0.398568
vt 0.735694 0.398568
vt 0.735694 0.40768
vt 0.266147 0.309265
vt 0.235104 0.309265
vt 0.266147 0.40768
vt 0.235104 0.40768
vt 0.030672 0.309265
vt 0.0658792 0.309265
vt 0.030672 0.40768
vt 0.0658792 0.40768
vt 0.514769 0.27837
vt 0.514769 0.309265
vt 0.462819 0.309265
vt 0.462819 0.27837
vt 0.688227 0.309265
vt 0.688227 0.27837
vt 0.735694 0.27837
vt 0.735694 0.309265
vt 0.266147 0.27837
vt 0.235104 0.27837
vt 0.235104 0.508152
vt 0.266147 0.508152
vt 0.030672 0.508152
vt 0.0658792 0.508152
vt 0.688227 0.465308
vt 0.688227 0.4372
vt 0.735694 0.4372
vt 0.735694 0.465308
vt 0.514769 0.4372
vt 0.514769 0.465308
vt 0.462819 0.465308
vt 0.462819 0.4372
vt 0.030672 0.27837
vt 0.0658792 0.27837
vt 0.235104 0.428031
vt 0.266147 0.428031
vt 0.514769 0.25092
vt 0.462819 0.25092
vt 0.030672 0.428031
vt 0.0658792 0.428031
vt 0.688227 0.25092
vt 0.735694 0.25092
vt 0.266147 0.25092
vt 0.235104 0.25092
vt 0.514769 0.428031
vt 0.462819 0.428031
vt 0.030672 0.25092
vt 0.0658792 0.25092
vt 0.688227 0.428031
vt 0.735694 0.428031
vt 0.688227 0.508152
vt 0.735694 0.508152
vt 0.514769 0.508152
vt 0.462819 0.508152
vt 0.949328 0.465308
vt 0.949328 0.4372
vt 0.949328 0.508152
vt 0.227707 0.924085
vt 0.103068 0.924185
vt 0.0731303 0.894295
vt 0.0730304 0.769656
vt 0.10292 0.739719
vt 0.227559 0.739619
vt 0.257497 0.769508
vt 0.257597 0.894148
vt 0.949328 0.428031
vt 0.949328 0.398568
vt 0.949328 0.40768
vt 0.949328 0.378136
vt 0.949328 0.367469
vt 0.949328 0.336178
vt 0.949328 0.34679
vt 0.949328 0.309265
vt 0.949328 0.27837
vt 0.949328 0.25092
mtllib metropolis_building_1.mtl
usemtl material1
g Default
f 119/1/1 120/2/1 112/3/1 111/4/1
f 116/5/1 119/6/1 111/7/1 108/8/1
f 115/9/1 116/5/1 108/8/1 107/10/1
f 114/11/1 115/9/1 107/10/1 106/12/1
f 113/13/1 114/11/1 106/12/1 105/14/1
f 118/15/1 113/13/1 105/14/1 110/16/1
f 117/17/1 118/15/1 110/16/1 109/18/1
f 120/2/1 117/17/1 109/18/1 112/3/1
f 120/2/2 119/1/2 127/19/2 128/20/2
f 119/6/3 116/5/3 124/21/3 127/22/3
f 116/5/4 115/9/4 123/23/4 124/21/4
f 115/9/5 114/11/5 122/24/5 123/23/5
f 114/11/6 113/13/6 121/25/6 122/24/6
f 113/13/7 118/15/7 126/26/7 121/25/7
f 118/15/8 117/17/8 125/27/8 126/26/8
f 117/17/9 120/2/9 128/20/9 125/27/9
f 67/28/1 75/29/1 76/30/1 68/31/1
f 74/32/1 66/33/1 65/34/1 73/35/1
f 62/36/10 54/37/10 53/38/10 61/39/10
f 55/40/10 63/41/10 64/42/10 56/43/10
f 51/44/10 59/45/10 60/46/10 52/47/10
f 58/48/10 50/49/10 49/50/10 57/51/10
f 78/52/1 70/53/1 69/54/1 77/55/1
f 71/56/1 79/57/1 80/58/1 72/59/1
f 16/60/8 9/61/8 10/62/8 15/63/8
f 14/64/2 11/65/2 12/66/2 13/67/2
f 54/37/8 46/68/8 45/69/8 53/38/8
f 47/70/2 55/40/2 56/43/2 48/71/2
f 42/72/1 34/73/1 33/74/1 41/75/1
f 35/76/1 43/77/1 44/78/1 36/79/1
f 86/80/8 78/52/8 77/55/8 85/81/8
f 43/77/4 51/44/4 52/47/4 44/78/4
f 50/49/6 42/72/6 41/75/6 49/50/6
f 46/68/1 38/82/1 37/83/1 45/69/1
f 79/57/2 87/84/2 88/85/2 80/58/2
f 39/86/1 47/70/1 48/71/1 40/87/1
f 90/88/11 82/89/11 81/90/11 89/91/11
f 83/92/12 91/93/12 92/94/12 84/95/12
f 94/96/13 86/80/13 85/81/13 93/97/13
f 24/98/14 16/60/14 15/63/14 23/99/14
f 22/100/15 14/64/15 13/67/15 21/101/15
f 6/102/4 3/103/4 4/104/4 5/105/4
f 2/106/6 7/107/6 8/108/6 1/109/6
f 87/84/16 95/110/16 96/111/16 88/85/16
f 9/61/10 29/112/10 30/113/10 10/62/10
f 98/114/10 90/88/10 89/91/10 97/115/10
f 11/65/10 31/116/10 32/117/10 12/66/10
f 84/95/4 76/30/4 75/29/4 83/92/4
f 82/89/6 74/32/6 73/35/6 81/90/6
f 91/93/10 99/118/10 100/119/10 92/94/10
f 102/120/10 94/96/10 93/97/10 101/121/10
f 26/122/10 2/106/10 1/109/10 25/123/10
f 95/110/10 103/124/10 104/125/10 96/111/10
f 3/103/10 27/126/10 28/127/10 4/104/10
f 18/128/17 6/102/17 5/105/17 17/129/17
f 7/107/18 19/130/18 20/131/18 8/108/18
f 106/12/6 98/114/6 97/115/6 105/14/6
f 99/118/4 107/10/4 108/8/4 100/119/4
f 101/121/8 109/18/8 110/16/8 102/120/8
f 103/124/2 111/4/2 112/3/2 104/125/2
f 3/103/5 6/102/5 7/107/5 2/106/5
f 14/132/3 5/105/3 4/104/3 11/133/3
f 10/62/7 1/109/7 8/108/7 15/63/7
f 16/60/9 13/67/9 12/66/9 9/61/9
f 16/60/19 24/98/19 21/101/19 13/67/19
f 8/108/20 20/131/20 23/99/20 15/63/20
f 6/102/21 18/128/21 19/130/21 7/107/21
f 14/132/22 22/134/22 17/129/22 5/105/22
f 21/135/1 24/136/1 23/137/1 20/138/1 19/139/1 18/140/1 17/141/1 22/142/1
f 12/66/10 32/117/10 29/112/10 9/61/10
f 4/104/10 28/127/10 31/143/10 11/133/10
f 2/106/10 26/122/10 27/126/10 3/103/10
f 10/62/10 30/113/10 25/123/10 1/109/10
f 42/72/1 43/77/1 35/76/1 34/73/1
f 46/68/1 41/75/1 33/74/1 38/82/1
f 48/71/1 45/69/1 37/83/1 40/87/1
f 44/78/1 47/144/1 39/145/1 36/79/1
f 42/72/5 50/49/5 51/44/5 43/77/5
f 46/68/7 54/37/7 49/50/7 41/75/7
f 48/71/9 56/43/9 53/38/9 45/69/9
f 44/78/3 52/47/3 55/146/3 47/144/3
f 56/43/10 64/42/10 61/39/10 53/38/10
f 52/47/10 60/46/10 63/147/10 55/146/10
f 50/49/10 58/48/10 59/45/10 51/44/10
f 54/37/10 62/36/10 57/51/10 49/50/10
f 74/32/1 75/29/1 67/28/1 66/33/1
f 78/52/1 73/35/1 65/34/1 70/53/1
f 80/58/1 77/55/1 69/54/1 72/59/1
f 76/30/1 79/148/1 71/149/1 68/31/1
f 80/58/9 88/85/9 85/81/9 77/55/9
f 76/30/3 84/95/3 87/150/3 79/148/3
f 74/32/5 82/89/5 83/92/5 75/29/5
f 78/52/7 86/80/7 81/90/7 73/35/7
f 82/89/23 90/88/23 91/93/23 83/92/23
f 86/80/24 94/96/24 89/91/24 81/90/24
f 88/85/25 96/111/25 93/97/25 85/81/25
f 84/95/26 92/94/26 95/151/26 87/150/26
f 90/88/10 98/114/10 99/118/10 91/93/10
f 94/96/10 102/120/10 97/115/10 89/91/10
f 96/111/10 104/125/10 101/121/10 93/97/10
f 92/94/10 100/119/10 103/152/10 95/151/10
f 98/114/5 106/12/5 107/10/5 99/118/5
f 102/120/7 110/16/7 105/14/7 97/115/7
f 104/125/9 112/3/9 109/18/9 101/121/9
f 100/119/3 108/8/3 111/7/3 103/152/3
f 70/53/8 62/36/8 61/39/8 69/54/8
f 72/59/2 64/42/2 63/41/2 71/56/2
f 34/73/6 26/122/6 25/123/6 33/74/6
f 59/45/4 67/28/4 68/31/4 60/46/4
f 66/33/6 58/48/6 57/51/6 65/34/6
f 36/79/4 28/127/4 27/126/4 35/76/4
f 29/112/8 37/83/8 38/82/8 30/113/8
f 40/87/2 32/117/2 31/116/2 39/86/2
f 30/113/7 38/82/7 33/74/7 25/123/7
f 32/117/9 40/87/9 37/83/9 29/112/9
f 28/127/3 36/79/3 39/145/3 31/143/3
f 26/122/5 34/73/5 35/76/5 27/126/5
f 58/48/5 66/33/5 67/28/5 59/45/5
f 62/36/7 70/53/7 65/34/7 57/51/7
f 64/42/9 72/59/9 69/54/9 61/39/9
f 60/46/3 68/31/3 71/149/3 63/147/3
