o squad_c
v 1.133618 0.466361 1.025426
v 1.111458 0.251456 2.203639
v 1.116401 0.497229 1.048903
v 1.101655 0.296960 2.152315
v 0.000863 0.564422 1.639883
v -0.608049 0.554207 1.482871
v -0.984710 0.555512 0.855216
v -0.959957 0.548581 1.076133
v -0.960115 0.444506 1.640687
v -1.110338 0.251969 2.202383
v -0.090646 0.690614 0.554806
v -0.712137 0.637699 0.404351
v -0.770990 0.659079 0.533495
v -0.083299 0.744654 0.984033
v -1.100456 0.297469 2.151069
v -0.034288 0.750752 1.016142
v 0.774185 0.658722 0.534369
v 0.086025 0.744614 0.984129
v 0.036772 0.730589 1.105443
v 0.036494 0.639622 1.560281
v 0.502318 0.532840 1.599811
v 0.571330 0.480886 1.630070
v 0.001248 0.723002 1.024786
v 0.000907 0.611625 1.581671
v 0.803209 0.655100 0.515400
v -0.272176 0.251393 2.817961
v -1.068788 0.198061 2.203489
v -0.342452 0.425334 1.838246
v -0.281651 0.286150 2.567933
v 0.262674 0.253373 2.712165
v 0.272600 0.251267 2.818269
v 1.133618 0.466361 1.025426
v 1.116401 0.497229 1.048903
v 1.101655 0.296960 2.152315
v 1.111458 0.251456 2.203639
v 0.544667 0.420663 1.646965
v 0.000879 0.541369 1.602272
v 0.261252 0.326078 2.544998
v 0.000273 0.379112 2.609104
v -0.260484 0.326199 2.544703
v -0.481836 0.459081 1.676137
v -0.542840 0.420914 1.646351
v -0.569456 0.481149 1.629424
v -0.034468 0.639638 1.560240
v -0.034190 0.730606 1.105403
v 0.036980 0.750736 1.016183
v 0.736273 0.545683 0.097545
v 0.717747 0.580687 0.130695
v 0.001746 0.609275 0.097222
v -0.714132 0.581018 0.129886
v -0.799994 0.655470 0.514493
v -1.131067 0.466884 1.024145
v -0.822567 0.623292 0.499845
v -0.732636 0.546023 0.096714
v 0.715469 0.637369 0.405158
v 0.037409 0.641241 0.130155
v 0.000223 0.308640 2.668693
v 0.282374 0.286020 2.568251
v 0.000251 0.344110 2.633757
v 0.344065 0.425175 1.838635
v 0.321691 0.462416 1.831394
v 0.483647 0.458858 1.676683
v 1.069882 0.197567 2.204698
v 1.070885 0.082930 2.815439
v 0.825784 0.622912 0.500777
v -0.562862 0.654376 0.842907
v -0.574672 0.539300 1.492112
v -0.835124 0.427551 1.774876
v -0.843041 0.453382 1.737996
v -0.984993 0.416190 1.650312
v -0.597449 0.633539 1.065557
v -1.113862 0.497744 1.047642
v -0.033765 0.641258 0.130115
v -0.262129 0.253494 2.711868
v -0.320054 0.462564 1.831030
v -0.500385 0.533071 1.599244
v 0.093832 0.690571 0.554911
v -1.070534 0.083424 2.814228
v 1.111458 0.251456 2.203639
v 1.069882 0.197567 2.204698
v 1.069882 0.197567 2.204698
v 0.544667 0.420663 1.646965
v 0.544667 0.420663 1.646965
v 0.544667 0.420663 1.646965
v 0.544667 0.420663 1.646965
v 0.571330 0.480886 1.630070
v 0.571330 0.480886 1.630070
v 0.571330 0.480886 1.630070
v 0.571330 0.480886 1.630070
v 0.000907 0.611625 1.581671
v 0.000907 0.611625 1.581671
v 0.001248 0.723002 1.024786
v 0.001248 0.723002 1.024786
v 0.036772 0.730589 1.105443
v 0.036772 0.730589 1.105443
v 0.502318 0.532840 1.599811
v 0.502318 0.532840 1.599811
v 0.036494 0.639622 1.560281
v 0.036494 0.639622 1.560281
v 0.001248 0.723002 1.024786
v 0.001248 0.723002 1.024786
v 0.001248 0.723002 1.024786
v 0.001248 0.723002 1.024786
v 0.001248 0.723002 1.024786
v -0.034190 0.730606 1.105403
v -0.034190 0.730606 1.105403
v -0.034468 0.639638 1.560240
v -0.034468 0.639638 1.560240
v 0.000907 0.611625 1.581671
v -0.500385 0.533071 1.599244
v -0.569456 0.481149 1.629424
v -0.569456 0.481149 1.629424
v 0.000907 0.611625 1.581671
v -0.500385 0.533071 1.599244
v -0.034288 0.750752 1.016142
v -0.034288 0.750752 1.016142
v -0.083299 0.744654 0.984033
v -0.033765 0.641258 0.130115
v -0.033765 0.641258 0.130115
v 0.001746 0.609275 0.097222
v -0.714132 0.581018 0.129886
v -0.714132 0.581018 0.129886
v -0.732636 0.546023 0.096714
v -0.799994 0.655470 0.514493
v -0.799994 0.655470 0.514493
v -1.113862 0.497744 1.047642
v -1.113862 0.497744 1.047642
v -1.131067 0.466884 1.024145
v -1.100456 0.297469 2.151069
v -1.100456 0.297469 2.151069
v -1.110338 0.251969 2.202383
v -1.110338 0.251969 2.202383
v -1.068788 0.198061 2.203489
v -1.068788 0.198061 2.203489
v -1.070534 0.083424 2.814228
v -0.542840 0.420914 1.646351
v -0.542840 0.420914 1.646351
v -0.542840 0.420914 1.646351
v 0.000879 0.541369 1.602272
v 0.000879 0.541369 1.602272
v 0.000863 0.564422 1.639883
v 0.000863 0.564422 1.639883
v 0.000273 0.379112 2.609104
v 0.000273 0.379112 2.609104
v 0.000273 0.379112 2.609104
v 0.261252 0.326078 2.544998
v 0.261252 0.326078 2.544998
v 0.321691 0.462416 1.831394
v 0.321691 0.462416 1.831394
v 0.483647 0.458858 1.676683
v 0.483647 0.458858 1.676683
v 0.000863 0.564422 1.639883
v 0.344065 0.425175 1.838635
v 0.344065 0.425175 1.838635
v 0.282374 0.286020 2.568251
v 0.282374 0.286020 2.568251
v 0.262674 0.253373 2.712165
v 0.272600 0.251267 2.818269
v 0.282374 0.286020 2.568251
v 0.282374 0.286020 2.568251
v 0.000223 0.308640 2.668693
v 0.000223 0.308640 2.668693
v -0.281651 0.286150 2.567933
v -0.281651 0.286150 2.567933
v -0.281651 0.286150 2.567933
v -0.272176 0.251393 2.817961
v -0.342452 0.425334 1.838246
v -0.260484 0.326199 2.544703
v 0.000251 0.344110 2.633757
v -0.260484 0.326199 2.544703
v -0.320054 0.462564 1.831030
v -0.320054 0.462564 1.831030
v -0.342452 0.425334 1.838246
v -0.481836 0.459081 1.676137
v -0.481836 0.459081 1.676137
v -0.569456 0.481149 1.629424
v -0.569456 0.481149 1.629424
v -0.542840 0.420914 1.646351
v -0.034288 0.750752 1.016142
v -0.770990 0.659079 0.533495
v 0.001746 0.609275 0.097222
v 0.001746 0.609275 0.097222
v 0.037409 0.641241 0.130155
v 0.037409 0.641241 0.130155
v 0.036980 0.750736 1.016183
v 0.036980 0.750736 1.016183
v 1.101655 0.296960 2.152315
v 0.086025 0.744614 0.984129
v 0.717747 0.580687 0.130695
v 0.717747 0.580687 0.130695
v 0.736273 0.545683 0.097545
v 0.803209 0.655100 0.515400
v 0.803209 0.655100 0.515400
v 1.116401 0.497229 1.048903
v 0.774185 0.658722 0.534369
v 0.036980 0.750736 1.016183
v 1.111458 0.251456 2.203639
v 1.070885 0.082930 2.815439
v 1.112558 0.128388 2.817414
v -1.110338 0.251969 2.202383
v -1.112188 0.128901 2.816156
v -0.262129 0.253494 2.711868
v -0.281651 0.286150 2.567933
v -0.843041 0.453382 1.737996
v -0.843041 0.453382 1.737996
v -0.835124 0.427551 1.774876
v -0.608049 0.554207 1.482871
v -0.608049 0.554207 1.482871
v -0.574672 0.539300 1.492112
v -0.597449 0.633539 1.065557
v -0.562862 0.654376 0.842907
v -0.960115 0.444506 1.640687
v -0.960115 0.444506 1.640687
v -0.984993 0.416190 1.650312
v -0.959957 0.548581 1.076133
v -0.984710 0.555512 0.855216
v 0.000223 0.308640 2.668693
vt 0.279221 0.881051
vt 0.286133 0.669992
vt 0.289964 0.673186
vt 0.282478 0.870756
vt 0.382026 0.779326
vt 0.490296 0.671247
vt 0.484455 0.669504
vt 0.490509 0.506746
vt 0.484148 0.513315
vt 0.361977 0.504518
vt 0.365090 0.511246
vt 0.346087 0.576696
vt 0.350422 0.579254
vt 0.484292 0.685337
vt 0.395683 0.773015
vt 0.485194 0.771965
vt 0.479946 0.767002
vt 0.482787 0.777851
vt 0.384788 0.784500
vt 0.284822 0.883416
vt 0.273091 0.991250
vt 0.278973 0.992812
vt 0.396425 0.788941
vt 0.419067 0.819372
vt 0.424097 0.817091
vt 0.422936 0.950723
vt 0.427893 0.945569
vt 0.473350 0.962760
vt 0.474547 0.957337
vt 0.475876 0.663727
vt 0.474028 0.588194
vt 0.365249 0.560349
vt 0.355499 0.582673
vt 0.915626 0.955203
vt 0.984863 0.955200
vt 0.992282 0.848768
vt 0.923108 0.876586
vt 0.907305 0.996030
vt 0.987876 0.996026
vt 0.998029 0.846379
vt 0.971092 0.822072
vt 0.971239 0.829779
vt 0.917746 0.873950
vt 0.483415 0.783591
vt 0.472189 0.969982
vt 0.424852 0.976875
vt 0.422676 0.995197
vn 0.930113 0.358318 0.080233
vn 0.397412 0.659658 0.637867
vn 0.377667 0.679952 0.628468
vn 0.621296 0.777703 -0.095370
vn -0.060121 0.693167 -0.718223
vn -0.715506 0.638813 -0.282693
vn -0.728996 0.630024 -0.267556
vn -0.742119 0.620960 -0.252297
vn -0.655599 0.668264 -0.351512
vn -0.058565 0.558794 0.827204
vn 0.549303 0.819300 0.164190
vn -0.000458 0.279427 0.960143
vn 0.016205 0.279366 0.960021
vn 0.556475 0.443342 0.702658
vn 0.761162 0.636219 0.125736
vn -0.609546 0.487014 0.625477
vn -0.827906 0.534104 0.170995
vn -0.300058 0.571825 0.763512
vn -0.298959 0.622333 0.723380
vn -0.195502 0.962157 0.189703
vn -0.200018 0.965606 0.166082
vn -0.202765 0.963591 0.174108
vn -0.204138 0.959319 0.194922
vn -0.050996 0.991089 -0.122959
vn -0.059358 0.988495 -0.138890
vn -0.057772 0.982757 -0.175512
vn -0.047792 0.979400 -0.196142
vn -0.930052 0.358745 0.079196
vn -0.220435 0.961241 0.165410
vn -0.220557 0.961547 0.163457
vn -0.219733 0.959502 0.176153
vn -0.223395 0.967711 0.116520
vn -0.219672 0.959410 0.176794
vn -0.226264 0.972442 0.055849
vn -0.760918 0.638691 0.114078
vn -0.516678 0.645192 0.562761
vn 0.220466 0.820521 0.527329
vn 0.454268 0.874660 0.168981
vn 0.221412 0.962767 0.154912
vn 0.220710 0.961150 0.165654
vn -0.390515 0.667440 0.634022
vn -0.403546 0.653768 0.640065
vn -0.618976 0.779473 -0.096255
vn 0.061251 0.693045 -0.718253
vn 0.716117 0.638478 -0.281899
vn 0.729576 0.629688 -0.266732
vn 0.742668 0.620624 -0.251442
vn 0.656758 0.667043 -0.351665
vn 0.057833 0.558672 0.827357
vn -0.547227 0.820765 0.163793
vn -0.017151 0.279366 0.960021
vn -0.557085 0.443587 0.702048
vn -0.761040 0.636555 0.124851
vn 0.205054 0.960662 0.187262
vn 0.213507 0.958098 0.190863
vn 0.221900 0.812952 -0.538347
vn 0.609058 0.486740 0.626179
vn 0.827967 0.533708 0.171941
vn 0.299264 0.571673 0.763909
vn 0.298257 0.622211 0.723777
vn 0.195715 0.962066 0.189917
vn 0.204352 0.959227 0.195166
vn 0.203009 0.963500 0.174322
vn 0.200262 0.965514 0.166295
vn 0.048463 0.979369 -0.196081
vn 0.058443 0.982727 -0.175451
vn 0.051607 0.991058 -0.122898
vn 0.059999 0.988495 -0.138829
vn 0.219977 0.959410 0.176397
vn -0.221015 0.813074 -0.538560
vn -0.204901 0.960723 0.187048
vn -0.213385 0.958159 0.190619
vn 0.161931 0.957305 0.239326
vn 0.295999 0.670125 0.680624
vn 0.212958 0.956267 0.200385
vn 0.204688 0.968352 0.142582
vn 0.196570 0.963103 0.183630
vn -0.666280 0.741691 0.077029
vn -0.377300 0.680837 0.627705
vn 0.203742 0.959960 0.192114
vn -0.161870 0.957366 0.239143
vn -0.296640 0.670247 0.680258
vn -0.204413 0.968444 0.142369
vn -0.212745 0.956359 0.200140
vn -0.196417 0.963195 0.183477
vn 0.666524 0.741386 0.077792
vn 0.416791 0.638783 0.646687
vn -0.203528 0.960051 0.191870
vn -0.221137 0.962889 0.154668
s 1
f 2/1/1 1/2/1 3/3/1 4/4/1
f 132/1/2 43/5/3 104/6/3 179/7/2
f 116/7/4 102/6/4 49/8/4 73/9/4
f 119/9/5 120/8/5 54/10/5 50/11/5
f 122/11/6 123/10/6 53/12/7 51/13/7
f 51/13/7 53/12/7 52/2/8 72/3/8
f 106/14/9 103/6/9 112/5/9 76/15/9
f 114/15/10 111/5/10 113/16/10 44/17/10
f 108/17/11 109/16/11 23/6/11 45/14/11
f 37/18/12 24/16/12 177/5/13 42/19/13
f 178/19/14 176/5/14 131/1/14 134/20/14
f 201/21/15 78/22/15 27/20/15 200/1/15
f 41/23/16 138/19/16 28/24/16 75/25/16
f 172/25/17 173/24/17 165/26/17 40/27/17
f 168/27/18 163/26/19 169/28/19 145/29/18
f 133/20/20 135/22/21 164/26/22 136/19/23
f 117/30/24 115/7/24 118/9/25 11/31/25
f 11/31/25 118/9/25 121/11/26 12/32/26
f 13/33/27 12/32/26 121/11/26 125/13/27
f 10/1/28 15/4/28 127/3/28 128/2/28
f 14/30/29 126/3/30 130/4/31 16/7/31
f 71/34/32 8/35/32 213/36/33 208/37/33
f 71/34/32 66/38/34 7/39/34 8/35/32
f 215/35/35 216/39/35 214/40/35 212/36/35
f 9/36/36 70/40/36 68/41/36 69/42/36
f 205/42/37 206/41/37 67/43/37 6/37/37
f 207/37/38 209/43/38 211/38/38 210/34/38
f 25/13/39 17/33/39 188/30/40 33/3/40
f 87/5/41 35/1/42 34/4/42 196/7/41
f 46/7/43 56/9/43 182/8/43 101/6/43
f 184/9/44 48/11/44 47/10/44 181/8/44
f 190/11/45 193/13/46 65/12/46 191/10/45
f 193/13/46 194/3/47 32/2/47 65/12/46
f 19/14/48 21/15/48 89/5/48 93/6/48
f 97/15/49 20/17/49 91/16/49 88/5/49
f 99/17/50 95/14/50 92/6/50 90/16/50
f 37/18/12 36/19/51 22/5/51 24/16/12
f 85/19/52 63/20/52 197/1/52 86/5/52
f 81/20/53 64/22/53 199/21/53 79/1/53
f 152/44/54 39/29/55 38/27/55 149/25/54
f 5/44/56 151/23/56 84/19/56 140/18/56
f 62/23/57 61/25/57 60/24/57 83/19/57
f 148/25/58 147/27/58 58/26/58 154/24/58
f 146/27/59 144/29/59 59/28/60 159/26/60
f 80/20/61 82/19/62 156/26/63 198/22/64
f 195/33/65 192/13/65 189/11/66 55/32/66
f 18/30/67 77/31/68 183/9/68 186/7/67
f 189/11/66 183/9/68 77/31/68 55/32/66
f 188/30/40 185/7/69 187/4/69 33/3/40
f 142/44/70 139/18/70 137/19/70 175/23/70
f 141/44/71 171/25/71 170/27/72 143/29/72
f 217/45/73 30/46/73 160/26/73
f 159/26/60 59/28/60 162/45/74
f 156/26/63 82/19/62 153/24/75
f 156/26/63 31/47/76 198/22/64
f 150/23/77 152/44/54 149/25/54
f 155/26/78 157/46/78 158/47/78
f 196/7/41 100/6/79 87/5/41
f 94/14/80 98/17/80 96/15/80
f 208/37/33 213/36/33 204/42/33
f 29/26/81 74/46/81 57/45/81
f 161/45/82 169/28/19 163/26/19
f 164/26/22 135/22/21 166/47/83
f 164/26/22 167/24/84 136/19/23
f 171/25/71 141/44/71 174/23/85
f 203/26/86 26/47/86 202/46/86
f 179/7/2 129/4/87 132/1/2
f 105/14/88 110/15/88 107/17/88
f 126/3/30 180/33/89 124/13/89
f 126/3/30 14/30/29 180/33/89
