o gun_r
v -0.000047 0.044869 -0.000409
v 0.038310 -0.022433 0.000220
v -0.000067 -0.043399 -0.000431
v -0.038262 -0.022416 0.000177
v 0.035094 -0.022376 0.640052
v 0.091035 0.072238 -0.000311
v 0.040141 0.021681 0.000244
v -0.105947 0.046307 -0.000359
v -0.035769 -0.022360 0.640012
v -0.040073 0.021700 0.000198
v 0.105573 0.046258 -0.000239
v -0.076181 0.046692 -0.000470
v -0.091397 0.072280 -0.000414
v -0.093113 0.072280 0.487076
v -0.077896 0.046692 0.487019
v -0.000429 -0.043371 0.639419
v -0.037579 0.021755 0.640034
v -0.000409 0.044897 0.639442
v 0.036925 0.021738 0.640076
v 0.107192 0.046257 0.487252
v 0.077426 0.046656 0.487107
v 0.075807 0.046657 -0.000385
v 0.092655 0.072238 0.487181
v -0.107663 0.046307 0.487131
v -0.037579 0.021755 0.640034
v -0.035769 -0.022360 0.640012
v -0.000429 -0.043371 0.639419
v 0.035094 -0.022376 0.640052
v 0.036925 0.021738 0.640076
v -0.000409 0.044897 0.639442
v 0.077426 0.046656 0.487107
v 0.077426 0.046656 0.487107
v 0.107192 0.046257 0.487252
v 0.107192 0.046257 0.487252
v 0.105573 0.046258 -0.000239
v 0.092655 0.072238 0.487181
v 0.092655 0.072238 0.487181
v 0.091035 0.072238 -0.000311
v 0.075807 0.046657 -0.000385
v -0.105947 0.046307 -0.000359
v -0.107663 0.046307 0.487131
v -0.107663 0.046307 0.487131
v -0.077896 0.046692 0.487019
v -0.077896 0.046692 0.487019
v -0.076181 0.046692 -0.000470
v -0.093113 0.072280 0.487076
v -0.091397 0.072280 -0.000414
v -0.093113 0.072280 0.487076
vt 0.995692 0.008422
vt 0.995378 1.007336
vt 0.736019 1.006388
vt 0.736635 0.007498
vt 0.242174 1.006421
vt 0.242802 0.007532
vt 0.007285 1.007370
vt 0.007600 0.008457
vt 1.015785 1.007432
vt 1.015786 0.246379
vt 1.011476 0.246204
vt 1.011475 1.007257
vt 0.735806 1.006316
vt 0.736445 0.007432
vt 0.242622 0.007470
vt 0.241983 1.006354
vt 1.010927 1.007070
vt 1.301753 1.007182
vt 1.301753 0.246126
vt 1.010916 0.246016
vt 1.015393 1.007298
vt 1.015383 0.246242
vt 1.302223 1.007343
vt 1.302224 0.246290
vt 0.179810 0.047216
vt 0.484137 0.022312
vt 0.790040 0.047197
vt 0.484310 0.126936
vt 0.805808 0.099485
vt 0.164223 0.099505
vn -0.000732 0.999969 0.001251
vn -0.880093 0.474776 0.002716
vn -0.854335 -0.519669 0.002716
vn -0.001221 -0.999969 0.001312
vn 0.012909 -0.999908 0.000031
vn 0.879818 0.475234 0.003723
vn 0.853572 -0.520920 0.003693
vn 0.872646 0.488296 -0.002869
vn -0.013398 -0.999908 0.000031
vn -0.859249 0.511490 0.002838
vn 0.859493 0.511093 0.003021
vn -0.872402 0.488723 -0.003052
vn -0.004852 0.000000 0.999969
vn 0.003754 0.000000 0.999969
vn 0.007630 -0.000031 0.999969
vn -0.000549 -0.000244 0.999969
vn -0.008698 -0.000031 0.999939
vn -0.000519 0.000000 0.999969
vn -0.016877 0.000122 0.999847
vn 0.015809 0.000122 0.999847
s 1
f 18/1/1 1/2/1 10/3/2 17/4/2
f 17/4/2 10/3/2 4/5/3 9/6/3
f 9/6/3 4/5/3 3/7/4 16/8/4
f 12/9/5 15/10/5 24/11/5 8/12/5
f 7/13/6 1/2/1 18/1/1 19/14/6
f 5/15/7 16/8/4 3/7/4 2/16/7
f 11/17/8 6/18/8 23/19/8 20/20/8
f 22/21/9 35/17/9 34/20/9 21/22/9
f 38/18/10 39/21/10 31/22/10 37/19/10
f 19/14/6 5/15/7 2/16/7 7/13/6
f 13/23/11 14/24/11 44/10/11 45/9/11
f 48/24/12 47/23/12 40/12/12 42/11/12
f 36/19/13 32/22/13 33/20/13
f 46/24/14 41/11/14 43/10/14
f 26/25/15 27/26/16 28/27/17 30/28/18
f 28/27/17 29/29/19 30/28/18
f 30/28/18 25/30/20 26/25/15
