o scoop
v -0.770990 0.659079 0.533495
v -1.121184 0.370859 1.121276
v -0.083299 0.744654 0.984033
v 0.774185 0.658722 0.534369
v 0.086025 0.744614 0.984129
v 0.379232 0.563468 1.254697
v 1.123582 0.370341 1.122545
v -0.376895 0.563643 1.254269
vt -0.112290 0.598224
vt 0.082302 0.994761
vt 0.464433 0.786214
vt 0.301290 0.148889
vt 1.135062 0.597041
vt 0.721448 0.148489
vt 0.558521 0.786123
vt 0.940912 0.993946
vn 0.292123 -0.914212 -0.280770
vn -0.292215 -0.914090 -0.281106
s 1
f 2/1/1 1/2/1 3/3/1 8/4/1
f 7/5/2 6/6/2 5/7/2 4/8/2
