# OBJ written from C:\Users\rivalin\Creative\Personal Work\Paragon\Paragon\Paragon0\data\models\ships\(0)Ultra-Light\(0A)military_combat_fighter\military_combat_fighter_collision.obj

o Mesh
v -1.3225 -0.5 -7.35
v 1.3225 -0.5 -7.35
v 1.3225 -0.5 2.44
v -1.3225 -0.5 2.44
v -1.3225 0.5 -7.35
v 1.3225 0.5 -7.35
v 1.3225 0.5 2.44
v -1.3225 0.5 2.44
v -3.1225 -0.3225 -0.92
v 3.1225 -0.3225 -0.92
v 3.1225 -0.3225 0.08
v -3.1225 -0.3225 0.08
v -3.1225 0.3225 -0.92
v 3.1225 0.3225 -0.92
v 3.1225 0.3225 0.08
v -3.1225 0.3225 0.08
v -1.3225 -0.98 -0.92
v 1.3225 -0.98 -0.92
v 1.3225 -0.98 0.08
v -1.3225 -0.98 0.08
v -1.3225 1.17 -0.92
v 1.3225 1.17 -0.92
v 1.3225 1.17 0.08
v -1.3225 1.17 0.08
v -0.5205 -0.5 -7.35
v 0.5205 -0.5 -7.35
v 0.5205 -0.5 2.44
v -0.5205 -0.5 2.44
v -0.5205 0.5 -7.35
v 0.5205 0.5 -7.35
v 0.5205 0.5 2.44
v -0.5205 0.5 2.44
v -0.5205 -0.98 -0.92
v 0.5205 -0.98 -0.92
v 0.5205 -0.98 0.08
v -0.5205 -0.98 0.08
v -0.5205 1.17 -0.92
v 0.5205 1.17 -0.92
v 0.5205 1.17 0.08
v -0.5205 1.17 0.08
v -2.53043 0.380885 -3.035
v -2.53043 -0.380885 -3.035
v 2.53043 -0.380885 -3.035
v 2.53043 0.380885 -3.035
v -1.3225 -0.822115 -3.035
v -1.3225 0.949619 -3.035
v 1.3225 -0.822115 -3.035
v 1.3225 0.949619 -3.035
v -0.5205 -0.822115 -3.035
v -0.5205 0.949619 -3.035
v 0.5205 0.949619 -3.035
v 0.5205 -0.822115 -3.035
v -3.1225 -0.0649775 -0.79791
v 3.1225 -0.0649775 -0.79791
v 3.1225 -0.0649775 -0.04209
v -3.1225 -0.0649775 -0.04209
v -3.1225 0.0649775 -0.79791
v 3.1225 0.0649775 -0.79791
v 3.1225 0.0649775 -0.04209
v -3.1225 0.0649775 -0.04209
v -4.0225 -0.0649775 -0.79791
v 4.0225 -0.0649775 -0.79791
v 4.0225 -0.0649775 -0.04209
v -4.0225 -0.0649775 -0.04209
v -4.0225 0.0649775 -0.79791
v 4.0225 0.0649775 -0.79791
v 4.0225 0.0649775 -0.04209
v -4.0225 0.0649775 -0.04209
vn -0.795122 0 0.606449
vn 0.795122 0 0.606449
vn -0.425979 0.904733 0
vn 0.425979 0.904733 0
vn 0.343104 -0.939297 0
vn -0.343104 -0.939297 -0
vn -0.33701 -0.922612 0.18765
vn 0.33701 -0.922612 0.18765
vn 0.412586 0.876289 0.248777
vn -0.412586 0.876289 0.248777
vn 0 0.961984 0.273106
vn 0 0 1
vn 0 -0.979937 0.199309
vn 0 -1 0
vn 0 0 -1
vn 0 1 0
vn -0.96298 -0 -0.269574
vn 0.96298 0 -0.269574
vn -0.342264 -0.936997 -0.0699469
vn -0.424098 0.90074 -0.0938562
vn 0.342264 -0.936997 -0.0699469
vn 0.424098 0.90074 -0.0938562
vn -0 -0.997225 -0.0744429
vn 0 -0.997225 -0.074443
vn 0 0.994615 -0.103638
vn -1 0 0
vn 1 0 0
vt 0.381402 0.440332
vt 0.381402 0.444249
vt 0.37352 0.443554
vt 0.37352 0.441027
vt 0.348702 0.481267
vt 0.348702 0.477349
vt 0.356585 0.478045
vt 0.356585 0.480571
vt 0.38376 0.465926
vt 0.389629 0.465926
vt 0.389629 0.469267
vt 0.38376 0.469267
vt 0.375136 0.469267
vt 0.369267 0.469267
vt 0.369267 0.465926
vt 0.375136 0.465926
vt 0.363195 0.465926
vt 0.369064 0.465926
vt 0.369064 0.469267
vt 0.363195 0.469267
vt 0.354571 0.469267
vt 0.348702 0.469267
vt 0.348702 0.465926
vt 0.354571 0.465926
vt 0.354571 0.477149
vt 0.363195 0.477149
vt 0.375136 0.477149
vt 0.38376 0.477149
vt 0.381145 0.477149
vt 0.381145 0.469267
vt 0.381605 0.444249
vt 0.381605 0.440332
vt 0.38435 0.440332
vt 0.38435 0.444249
vt 0.357186 0.469267
vt 0.357186 0.477149
vt 0.357186 0.465926
vt 0.392719 0.446502
vt 0.392719 0.450419
vt 0.389827 0.450419
vt 0.389827 0.446502
vt 0.381145 0.465926
vt 0.377751 0.465926
vt 0.377751 0.469267
vt 0.392912 0.450419
vt 0.392912 0.446502
vt 0.395804 0.446502
vt 0.395804 0.450419
vt 0.36058 0.469267
vt 0.36058 0.465926
vt 0.36058 0.477149
vt 0.390658 0.440332
vt 0.390658 0.444249
vt 0.387913 0.444249
vt 0.387913 0.440332
vt 0.377751 0.477149
vt 0.363115 0.443783
vt 0.363115 0.440799
vt 0.370179 0.441027
vt 0.370179 0.443554
vt 0.348702 0.440332
vt 0.348702 0.444249
vt 0.36699 0.477816
vt 0.36699 0.4808
vt 0.359925 0.480571
vt 0.359925 0.478045
vt 0.381402 0.481267
vt 0.381402 0.477349
vt 0.350632 0.458862
vt 0.354571 0.458862
vt 0.354571 0.444449
vt 0.38376 0.458862
vt 0.387698 0.458862
vt 0.38376 0.444449
vt 0.363195 0.458862
vt 0.367133 0.458862
vt 0.363195 0.444449
vt 0.375136 0.444449
vt 0.375136 0.458862
vt 0.371198 0.458862
vt 0.357186 0.444449
vt 0.357186 0.458862
vt 0.381145 0.458862
vt 0.381145 0.444449
vt 0.377751 0.444449
vt 0.377751 0.458862
vt 0.36058 0.458862
vt 0.36058 0.444449
vt 0.381606 0.478436
vt 0.395799 0.477351
vt 0.395799 0.483322
vt 0.381606 0.481806
vt 0.348702 0.481464
vt 0.362894 0.48255
vt 0.362894 0.485919
vt 0.348702 0.487435
vt 0.390857 0.440334
vt 0.394774 0.440334
vt 0.394774 0.446304
vt 0.390857 0.446304
vt 0.356993 0.479053
vt 0.356993 0.479563
vt 0.359517 0.479053
vt 0.359517 0.479563
vt 0.370587 0.442036
vt 0.370587 0.442545
vt 0.373112 0.442036
vt 0.373112 0.442545
vt 0.395804 0.453687
vt 0.395804 0.454544
vt 0.392912 0.454544
vt 0.392912 0.453687
vt 0.392912 0.453505
vt 0.392912 0.450613
vt 0.395804 0.450613
vt 0.395804 0.453505
vt 0.389827 0.451459
vt 0.389827 0.450602
vt 0.392719 0.450602
vt 0.392719 0.451459
vt 0.392719 0.451641
vt 0.392719 0.454533
vt 0.389827 0.454533
vt 0.389827 0.451641
vt 0.389827 0.455572
vt 0.389827 0.454715
vt 0.392719 0.454715
vt 0.392719 0.455572
vt 0.392912 0.457618
vt 0.392912 0.454726
vt 0.395804 0.454726
vt 0.395804 0.457618
vt 0.392719 0.455744
vt 0.392719 0.456601
vt 0.389827 0.456601
vt 0.389827 0.455744
vt 0.392719 0.456783
vt 0.392719 0.459675
vt 0.389827 0.459675
vt 0.389827 0.456783
vt 0.395804 0.458657
vt 0.392912 0.458657
vt 0.392912 0.4578
vt 0.395804 0.4578
vt 0.395804 0.459685
vt 0.392912 0.459685
vt 0.392912 0.458828
vt 0.395804 0.458828
mtllib military_combat_fighter_collision.mtl
usemtl material1
g Default
f 4/1/1 8/2/1 16/3/1 12/4/1
f 7/5/2 3/6/2 11/7/2 15/8/2
f 21/9/3 13/10/3 16/11/3 24/12/3
f 23/13/4 15/14/4 14/15/4 22/16/4
f 18/17/5 10/18/5 11/19/5 19/20/5
f 20/21/6 12/22/6 9/23/6 17/24/6
f 12/22/7 20/21/7 4/25/7
f 19/20/8 11/19/8 3/26/8
f 15/14/9 23/13/9 7/27/9
f 24/12/10 16/11/10 8/28/10
f 24/12/11 8/28/11 32/29/11 40/30/11
f 8/31/12 4/32/12 28/33/12 32/34/12
f 4/25/13 20/21/13 36/35/13 28/36/13
f 20/21/14 17/24/14 33/37/14 36/35/14
f 1/38/15 5/39/15 29/40/15 25/41/15
f 21/9/16 24/12/16 40/30/16 37/42/16
f 23/13/16 22/16/16 38/43/16 39/44/16
f 6/45/15 2/46/15 26/47/15 30/48/15
f 18/17/14 19/20/14 35/49/14 34/50/14
f 19/20/13 3/26/13 27/51/13 35/49/13
f 3/52/12 7/53/12 31/54/12 27/55/12
f 7/27/11 23/13/11 39/44/11 31/56/11
f 31/54/12 32/34/12 28/33/12 27/55/12
f 27/51/13 28/36/13 36/35/13 35/49/13
f 33/37/14 34/50/14 35/49/14 36/35/14
f 32/29/11 31/56/11 39/44/11 40/30/11
f 37/42/16 40/30/16 39/44/16 38/43/16
f 41/57/17 42/58/17 9/59/17 13/60/17
f 1/61/17 42/58/17 41/57/17 5/62/17
f 43/63/18 44/64/18 14/65/18 10/66/18
f 6/67/18 44/64/18 43/63/18 2/68/18
f 17/24/19 9/23/19 42/69/19 45/70/19
f 1/71/19 45/70/19 42/69/19
f 13/10/20 21/9/20 46/72/20 41/73/20
f 5/74/20 41/73/20 46/72/20
f 18/17/21 47/75/21 43/76/21 10/18/21
f 2/77/21 43/76/21 47/75/21
f 6/78/22 48/79/22 44/80/22
f 14/15/22 44/80/22 48/79/22 22/16/22
f 25/81/23 49/82/23 45/70/23 1/71/23
f 17/24/24 45/70/24 49/82/24 33/37/24
f 37/42/25 50/83/25 46/72/25 21/9/25
f 5/74/25 46/72/25 50/83/25 29/84/25
f 30/85/25 51/86/25 48/79/25 6/78/25
f 22/16/25 48/79/25 51/86/25 38/43/25
f 34/50/24 52/87/24 47/75/24 18/17/24
f 2/77/23 47/75/23 52/87/23 26/88/23
f 34/50/24 33/37/24 49/82/24 52/87/24
f 37/42/25 38/43/25 51/86/25 50/83/25
f 26/89/26 52/90/26 51/91/26 30/92/26
f 49/93/27 25/94/27 29/95/27 50/96/27
f 52/97/15 49/98/15 50/99/15 51/100/15
f 15/8/27 11/7/27 55/101/27 59/102/27
f 11/7/27 10/66/27 54/103/27 55/101/27
f 10/66/27 14/65/27 58/104/27 54/103/27
f 14/65/27 15/8/27 59/102/27 58/104/27
f 13/60/26 9/59/26 53/105/26 57/106/26
f 9/59/26 12/4/26 56/107/26 53/105/26
f 12/4/26 16/3/26 60/108/26 56/107/26
f 16/3/26 13/60/26 57/106/26 60/108/26
f 56/109/12 60/110/12 68/111/12 64/112/12
f 60/113/16 57/114/16 65/115/16 68/116/16
f 57/117/15 53/118/15 61/119/15 65/120/15
f 53/121/14 56/122/14 64/123/14 61/124/14
f 59/125/12 55/126/12 63/127/12 67/128/12
f 55/129/14 54/130/14 62/131/14 63/132/14
f 54/133/15 58/134/15 66/135/15 62/136/15
f 58/137/16 59/138/16 67/139/16 66/140/16
f 66/141/27 67/142/27 63/143/27 62/144/27
f 68/145/26 65/146/26 61/147/26 64/148/26
