# Blender v2.62 (sub 0) OBJ File: 'kbuilding04_wrapity.blend'
# www.blender.org
o BaseMed.001_Cube.007
v -29.187891 3.569227 -16.739592
v -29.187891 3.569227 16.739592
v 29.187891 3.569227 -16.739592
v 29.187891 3.569227 16.739592
v -32.629959 3.569227 -8.429709
v -32.629959 3.569227 8.429709
v 32.629959 3.569227 -8.429709
v 32.629959 3.569227 8.429709
v -16.184456 3.569227 -24.875212
v -16.184456 3.569227 24.875212
v 16.184456 3.569227 -24.875212
v 16.184456 3.569227 24.875212
v -24.494337 3.569227 -21.433144
v -24.494337 3.569227 21.433144
v 24.494337 3.569227 -21.433144
v 24.494337 3.569227 21.433144
v 0.000000 3.569227 -24.875212
v 0.000000 3.569227 24.875212
v 0.000000 3.569227 0.000000
v -32.629959 3.569227 0.000000
v 32.629959 3.569227 0.000000
vt 0.643361 0.537423
vt 0.643578 0.616344
vt 0.626754 0.657142
vt 0.483632 0.537472
vt 0.603785 0.680197
vt 0.562988 0.697148
vt 0.483584 0.697019
vn 0.000000 1.000000 0.000000
s 1
f 17/1/1 9/2/1 13/3/1
f 14/3/1 10/2/1 18/1/1
f 15/3/1 11/2/1 17/1/1
f 18/1/1 12/2/1 16/3/1
f 19/4/1 17/1/1 13/3/1
f 14/3/1 18/1/1 19/4/1
f 15/3/1 17/1/1 19/4/1
f 19/4/1 18/1/1 16/3/1
f 13/3/1 1/5/1 19/4/1
f 19/4/1 2/5/1 14/3/1
f 19/4/1 3/5/1 15/3/1
f 16/3/1 4/5/1 19/4/1
f 19/4/1 1/5/1 5/6/1
f 6/6/1 2/5/1 19/4/1
f 7/6/1 3/5/1 19/4/1
f 19/4/1 4/5/1 8/6/1
f 20/7/1 19/4/1 5/6/1
f 6/6/1 19/4/1 20/7/1
f 7/6/1 19/4/1 21/7/1
f 21/7/1 19/4/1 8/6/1
o TowerLow_Cylinder.012
v 16.741577 3.793671 -16.741575
v 9.766577 34.714832 -9.766577
v 23.676168 3.793671 0.000004
v 13.812029 34.714832 0.000004
v 16.741577 3.793671 16.741583
v 9.766577 34.714832 9.766582
v -0.000005 3.793671 23.676174
v -0.000005 34.714832 13.812035
v -16.741592 3.793671 16.741583
v -9.766582 34.714832 9.766582
v -23.676172 3.793671 0.000003
v -13.812035 34.714832 0.000003
v -16.741592 3.793671 -16.741575
v -9.766582 34.714832 -9.766577
v -0.000010 3.793671 -23.676167
v -0.000008 34.714832 -13.812029
v 14.826850 17.495022 -14.826850
v 20.968336 17.495022 0.000004
v 14.826850 17.495022 14.826856
v -0.000005 17.495022 20.968342
v -14.826856 17.495022 14.826856
v -20.968340 17.495022 0.000003
v -14.826856 17.495022 -14.826850
v -0.000010 17.495022 -20.968334
v 11.010312 29.707672 -11.010312
v 15.570936 29.707672 0.000004
v 11.010312 29.707672 11.010318
v -0.000005 29.707672 15.570942
v -11.010318 29.707672 11.010318
v -15.570942 29.707672 0.000003
v -11.010318 29.707672 -11.010312
v -0.000008 29.707672 -15.570936
v 11.473787 24.752625 -11.473787
v 16.226391 24.752625 0.000004
v 11.473787 24.752625 11.473793
v -0.000005 24.752625 16.226397
v -11.473793 24.752625 11.473793
v -16.226395 24.752625 0.000003
v -11.473793 24.752625 -11.473787
v -0.000008 24.752625 -16.226389
vt 0.985198 0.532510
vt 0.985198 0.607159
vt 0.678368 0.607159
vt 0.678368 0.532510
vt 0.678368 0.457861
vt 0.985198 0.457861
vt 0.678368 0.383212
vt 0.985198 0.383212
vt 0.678368 0.980405
vt 0.678368 0.905755
vt 0.985198 0.905755
vt 0.985198 0.980405
vt 0.678368 0.831106
vt 0.985198 0.831106
vt 0.678368 0.756457
vt 0.985198 0.756457
vt 0.678368 0.681808
vt 0.985198 0.681808
vt 0.980758 0.891079
vt 0.896900 0.974937
vt 0.778307 0.974937
vt 0.694450 0.891079
vt 0.980758 0.772487
vt 0.694450 0.772487
vt 0.896900 0.688629
vt 0.778307 0.688629
vt 0.837604 0.589707
vt 0.682259 0.589707
vt 0.682259 0.509833
vt 0.837604 0.509833
vt 0.682259 0.429958
vt 0.837604 0.429958
vt 0.682259 0.350084
vt 0.837604 0.350084
vt 0.837604 0.989079
vt 0.682260 0.989079
vt 0.682259 0.909205
vt 0.837604 0.909205
vt 0.682259 0.829330
vt 0.837604 0.829330
vt 0.682259 0.749456
vt 0.837604 0.749456
vt 0.682259 0.669582
vt 0.837604 0.669582
vt 0.166694 0.699934
vt 0.166694 0.506904
vt 0.320117 0.506904
vt 0.320117 0.699934
vt 0.915276 0.589707
vt 0.915276 0.509833
vt 0.016134 0.696954
vt 0.016134 0.503924
vt 0.169558 0.503924
vt 0.169558 0.696954
vt 0.915276 0.429958
vt 0.322981 0.503924
vt 0.322981 0.696954
vt 0.915276 0.350084
vt 0.016485 0.696954
vt 0.016485 0.503924
vt 0.169908 0.503923
vt 0.169908 0.696954
vt 0.915276 0.989079
vt 0.915276 0.909205
vt 0.169908 0.503924
vt 0.323331 0.503924
vt 0.323331 0.696954
vt 0.915276 0.829330
vt 0.009560 0.696954
vt 0.009560 0.503924
vt 0.162983 0.503923
vt 0.162983 0.696954
vt 0.915276 0.749456
vt 0.162983 0.503924
vt 0.316406 0.503923
vt 0.316406 0.696954
vt 0.915276 0.669582
vt 0.013271 0.699934
vt 0.013271 0.506904
vn 0.908854 0.179619 -0.376460
vn 0.908854 0.179619 0.376460
vn 0.376460 0.179619 0.908854
vn -0.376460 0.179619 0.908854
vn -0.908854 0.179619 0.376459
vn -0.908854 0.179619 -0.376459
vn -0.376460 0.179619 -0.908854
vn 0.376460 0.179619 -0.908854
vn 0.878760 0.308689 -0.363994
vn 0.878760 0.308689 0.363994
vn 0.363994 0.308689 0.878760
vn -0.363995 0.308689 0.878760
vn -0.878760 0.308689 0.363994
vn -0.878760 0.308689 -0.363994
vn -0.363995 0.308689 -0.878760
vn 0.363994 0.308689 -0.878760
vn 0.790947 0.516786 -0.327621
vn 0.917056 0.121308 -0.379857
vn 0.790947 0.516786 0.327621
vn 0.917056 0.121308 0.379857
vn 0.327621 0.516786 0.790947
vn 0.379857 0.121308 0.917057
vn -0.327621 0.516786 0.790947
vn -0.379858 0.121308 0.917056
vn -0.790947 0.516786 0.327621
vn -0.917056 0.121308 0.379857
vn -0.790947 0.516786 -0.327621
vn -0.917056 0.121308 -0.379857
vn -0.327621 0.516786 -0.790947
vn -0.379858 0.121308 -0.917057
vn 0.327621 0.516786 -0.790947
vn 0.379857 0.121308 -0.917057
s off
f 24/8/2 22/9/2 38/10/2 39/11/2
f 39/11/3 40/12/3 26/13/3 24/8/3
f 40/12/4 41/14/4 28/15/4 26/13/4
f 41/16/5 42/17/5 30/18/5 28/19/5
f 42/17/6 43/20/6 32/21/6 30/18/6
f 43/20/7 44/22/7 34/23/7 32/21/7
f 44/22/8 45/24/8 36/25/8 34/23/8
f 22/9/9 36/25/9 45/24/9 38/10/9
f 23/26/1 37/27/1 35/28/1
f 23/26/1 35/28/1 33/29/1
f 23/26/1 33/29/1 25/30/1
f 33/29/1 31/31/1 25/30/1
f 31/31/1 27/32/1 25/30/1
f 31/31/1 29/33/1 27/32/1
f 46/34/10 23/35/10 25/36/10 47/37/10
f 47/37/11 25/36/11 27/38/11 48/39/11
f 48/39/12 27/38/12 29/40/12 49/41/12
f 49/42/13 29/43/13 31/44/13 50/45/13
f 50/45/14 31/44/14 33/46/14 51/47/14
f 51/47/15 33/46/15 35/48/15 52/49/15
f 52/49/16 35/48/16 37/50/16 53/51/16
f 53/51/17 37/50/17 23/35/17 46/34/17
f 38/52/18 54/53/18 55/54/18 39/55/18
f 54/56/19 46/34/19 47/37/19 55/57/19
f 39/58/20 55/59/20 56/60/20 40/61/20
f 55/57/21 47/37/21 48/39/21 56/62/21
f 40/61/22 56/60/22 57/63/22 41/64/22
f 56/62/23 48/39/23 49/41/23 57/65/23
f 41/66/24 57/67/24 58/68/24 42/69/24
f 57/70/25 49/42/25 50/45/25 58/71/25
f 42/69/26 58/72/26 59/73/26 43/74/26
f 58/71/27 50/45/27 51/47/27 59/75/27
f 43/76/28 59/77/28 60/78/28 44/79/28
f 59/75/29 51/47/29 52/49/29 60/80/29
f 44/79/30 60/81/30 61/82/30 45/83/30
f 60/80/31 52/49/31 53/51/31 61/84/31
f 45/85/32 61/86/32 54/53/32 38/52/32
f 61/84/33 53/51/33 46/34/33 54/56/33
