# OBJ written from C:\Users\rivalin\Desktop\pioneer\data\models\buildings\high_development\high_development_resource_extractor\high_development_resource_extractor_collision.obj

o Mesh
v -9.5 7 6.5
v -6.5 7 9.5
v 6.5 7 9.5
v 9.5 7 6.5
v -6.5 7 -9.5
v -9.5 7 -6.5
v 9.5 7 -6.5
v 6.5 7 -9.5
v -12.5 7 7.74264
v -7.74264 7 12.5
v 7.74264 7 12.5
v 12.5 7 7.74264
v -7.74264 7 -12.5
v -12.5 7 -7.74264
v 12.5 7 -7.74264
v 7.74264 7 -12.5
v -13.5 4 8.15685
v -8.15685 4 13.5
v 8.15685 4 13.5
v 13.5 4 8.15685
v -8.15685 4 -13.5
v -13.5 4 -8.15685
v 13.5 4 -8.15685
v 8.15685 4 -13.5
v -7.5 15 -4.5
v -4.5 15 -7.5
v 4.5 15 -7.5
v 7.5 15 -4.5
v -4.5 15 7.5
v -7.5 15 4.5
v 7.5 15 4.5
v 4.5 15 7.5
v -9.5 7 6.5
v -6.5 7 9.5
v 6.5 7 9.5
v 9.5 7 6.5
v -6.5 7 -9.5
v -9.5 7 -6.5
v 9.5 7 -6.5
v 6.5 7 -9.5
v -15.5 4 8.98528
v -8.98528 4 15.5
v 8.98528 4 15.5
v 15.5 4 8.98528
v -8.98528 4 -15.5
v -15.5 4 -8.98528
v 15.5 4 -8.98528
v 8.98528 4 -15.5
v -15.5 -26 8.98528
v -8.98528 -26 15.5
v 8.98528 -26 15.5
v 15.5 -26 8.98528
v -8.98528 -26 -15.5
v -15.5 -26 -8.98528
v 15.5 -26 -8.98528
v 8.98528 -26 -15.5
vn 0 1 0
vn 0.707107 0 -0.707107
vn 1 0 0
vn 0.707107 0 0.707107
vn 0 0 1
vn -0.707107 0 0.707107
vn -1 -0 -0
vn -0.707107 -0 -0.707107
vn 0 0 -1
vn -0 -1 -0
vn -0.670821 0.316228 0.67082
vn -0.948683 0.316228 0
vn -0.670821 0.316228 -0.67082
vn 0 0.316228 -0.948683
vn 0.670821 0.316228 -0.67082
vn 0.948683 0.316228 0
vn 0.670821 0.316228 0.67082
vn 0 0.316228 0.948683
vn -0.666667 0.333333 0.666667
vn 0.666667 0.333333 0.666667
vn -0.666667 0.333333 -0.666667
vn 0.666667 0.333333 -0.666667
vn 0 0.242536 -0.970142
vn 0 0.242536 0.970142
vn 0.970142 0.242536 0
vn -0.970142 0.242536 0
vt 0.585272 0.307796
vt 0.641129 0.251938
vt 0.662037 0.260599
vt 0.593932 0.328704
vt 0.641129 0.0813949
vt 0.662037 0.0727345
vt 0.585272 0.0255376
vt 0.593932 0.00462963
vt 0.414728 0.0255376
vt 0.406068 0.00462963
vt 0.358871 0.0813949
vt 0.337963 0.0727345
vt 0.358871 0.251938
vt 0.337963 0.260599
vt 0.414728 0.307796
vt 0.406068 0.328704
vt 0.739401 0.328704
vt 0.671296 0.328704
vt 0.671296 0.00462963
vt 0.739401 0.00462963
vt 0.709751 0.662037
vt 0.528345 0.662037
vt 0.528345 0.337963
vt 0.709751 0.337963
vt 0.328704 0.662037
vt 0.260599 0.662037
vt 0.260599 0.337963
vt 0.328704 0.337963
vt 0.0727345 0.662037
vt 0.0727345 0.337963
vt 0.00462963 0.662037
vt 0.00462963 0.337963
vt 0.519274 0.662037
vt 0.337868 0.662037
vt 0.337868 0.337963
vt 0.519274 0.337963
vt 0.99537 0.328704
vt 0.927265 0.328704
vt 0.927265 0.00462963
vt 0.99537 0.00462963
vt 0.328704 0.260599
vt 0.260599 0.328704
vt 0.0727345 0.328704
vt 0.00462963 0.260599
vt 0.00462963 0.0727345
vt 0.0727345 0.00462963
vt 0.260599 0.00462963
vt 0.328704 0.0727345
vt 0.923707 0.573477
vt 0.954429 0.542755
vt 0.985151 0.55548
vt 0.936433 0.604199
vt 0.954429 0.409626
vt 0.985151 0.396901
vt 0.923707 0.378904
vt 0.936433 0.348182
vt 0.790579 0.378904
vt 0.777853 0.348182
vt 0.759857 0.409626
vt 0.729135 0.396901
vt 0.759857 0.542755
vt 0.729135 0.55548
vt 0.790579 0.573477
vt 0.777853 0.604199
vt 0.995392 0.559722
vt 0.940674 0.614439
vt 0.995392 0.392659
vt 0.940674 0.337942
vt 0.773611 0.337942
vt 0.718894 0.392659
vt 0.718894 0.559722
vt 0.773611 0.614439
vt 0.833512 0.743352
vt 0.852608 0.768089
vt 0.823965 0.805195
vt 0.804869 0.780458
vt 0.690297 0.743352
vt 0.71894 0.780458
vt 0.699845 0.805195
vt 0.671202 0.768089
vt 0.633488 0.670996
vt 0.662132 0.708101
vt 0.643036 0.732839
vt 0.614393 0.695733
vt 0.480726 0.708101
vt 0.509369 0.670996
vt 0.528464 0.695733
vt 0.499821 0.732839
mtllib high_development_resource_extractor_collision.mtl
usemtl material1
g Default
f 18/1/1 17/2/1 41/3/1 42/4/1
f 17/2/1 22/5/1 46/6/1 41/3/1
f 22/5/1 21/7/1 45/8/1 46/6/1
f 21/7/1 24/9/1 48/10/1 45/8/1
f 24/9/1 23/11/1 47/12/1 48/10/1
f 23/11/1 20/13/1 44/14/1 47/12/1
f 20/13/1 19/15/1 43/16/1 44/14/1
f 19/15/1 18/1/1 42/4/1 43/16/1
f 48/17/2 47/18/2 55/19/2 56/20/2
f 47/21/3 44/22/3 52/23/3 55/24/3
f 44/25/4 43/26/4 51/27/4 52/28/4
f 43/26/5 42/29/5 50/30/5 51/27/5
f 42/29/6 41/31/6 49/32/6 50/30/6
f 41/33/7 46/34/7 54/35/7 49/36/7
f 46/37/8 45/38/8 53/39/8 54/40/8
f 45/38/9 48/17/9 56/20/9 53/39/9
f 52/41/10 51/42/10 50/43/10 49/44/10 54/45/10 53/46/10 56/47/10 55/48/10
f 2/49/1 1/50/1 9/51/1 10/52/1
f 1/50/1 6/53/1 14/54/1 9/51/1
f 6/53/1 5/55/1 13/56/1 14/54/1
f 5/55/1 8/57/1 16/58/1 13/56/1
f 8/57/1 7/59/1 15/60/1 16/58/1
f 7/59/1 4/61/1 12/62/1 15/60/1
f 4/61/1 3/63/1 11/64/1 12/62/1
f 3/63/1 2/49/1 10/52/1 11/64/1
f 10/52/11 9/51/11 17/65/11 18/66/11
f 9/51/12 14/54/12 22/67/12 17/65/12
f 14/54/13 13/56/13 21/68/13 22/67/13
f 13/56/14 16/58/14 24/69/14 21/68/14
f 16/58/15 15/60/15 23/70/15 24/69/15
f 15/60/16 12/62/16 20/71/16 23/70/16
f 12/62/17 11/64/17 19/72/17 20/71/17
f 11/64/18 10/52/18 18/66/18 19/72/18
f 30/73/19 33/74/19 34/75/19 29/76/19
f 31/77/20 32/78/20 35/79/20 36/80/20
f 37/81/21 38/82/21 25/83/21 26/84/21
f 39/85/22 40/86/22 27/87/22 28/88/22
f 40/86/23 37/81/23 26/84/23 27/87/23
f 34/75/24 35/79/24 32/78/24 29/76/24
f 32/78/1 31/77/1 28/88/1 27/87/1 26/84/1 25/83/1 30/73/1 29/76/1
f 39/85/25 28/88/25 31/77/25 36/80/25
f 33/74/26 30/73/26 25/83/26 38/82/26
