# Blender v2.78 (sub 0) OBJ File: ''
# www.blender.org
o Venturestar_VeryLOW_Cube.000
v 0.000000 -1.247188 -20.207869
v 3.814331 -1.247188 -20.207869
v 3.814331 -1.852822 -20.207869
v 0.000000 -1.852822 -20.207869
v 13.219817 0.059608 18.114059
v 0.000000 -0.810278 22.105291
v 0.000000 -3.004152 22.105291
v 13.280717 -3.004151 18.114059
v 0.000000 1.121096 -15.400129
v 4.812598 1.121096 -15.400129
v 8.010242 4.240737 22.105291
v 0.000000 4.240737 22.105291
v 19.983326 -0.158931 22.105291
v 19.922426 0.192837 22.105291
v 20.918945 3.873425 23.026344
v 20.858044 4.225193 23.026344
v 13.219817 0.059614 0.000000
v 13.280717 -3.004145 -0.000000
v 0.000000 -3.004145 -0.000000
v 8.010242 4.240745 0.000002
v 0.000000 4.240745 0.000002
v 19.922426 0.192839 16.374289
v 19.983326 -0.158929 16.374289
v 20.918945 3.873427 19.802654
v 20.858044 4.225194 19.802654
v -3.814331 -1.852822 -20.207869
v -3.814331 -1.247188 -20.207869
v -13.219817 0.059608 18.114059
v -13.280717 -3.004151 18.114059
v -4.812598 1.121096 -15.400129
v -8.010242 4.240737 22.105291
v -19.922426 0.192837 22.105291
v -19.983326 -0.158931 22.105291
v -20.858044 4.225193 23.026344
v -20.918945 3.873425 23.026344
v -13.280717 -3.004145 -0.000000
v -13.219817 0.059614 0.000000
v -8.010242 4.240745 0.000002
v -19.983326 -0.158929 16.374289
v -19.922426 0.192839 16.374289
v -20.918945 3.873427 19.802654
v -20.858044 4.225194 19.802654
vn 0.0000 0.0000 -1.0000
vn 0.2883 0.0033 0.9575
vn 0.0000 0.8971 -0.4419
vn 0.1881 -0.2984 0.9357
vn -0.5086 -0.0181 0.8608
vn -0.4893 -0.0847 0.8680
vn 0.9060 0.0150 -0.4231
vn 0.0000 -0.9984 -0.0569
vn 0.0000 0.9801 -0.1985
vn 0.0000 1.0000 0.0000
vn 0.0000 -1.0000 -0.0000
vn 0.6259 0.7799 0.0000
vn 0.6719 0.6675 -0.3208
vn 0.9239 0.0329 -0.3812
vn 0.9741 -0.2260 -0.0000
vn -0.0199 0.9998 0.0000
vn 0.9853 0.1706 0.0000
vn 0.3907 -0.9205 -0.0000
vn -0.9741 0.2260 0.0000
vn 0.8919 0.1544 -0.4250
vn -0.2883 0.0033 0.9575
vn -0.1881 -0.2984 0.9357
vn 0.5086 -0.0181 0.8608
vn 0.4893 -0.0847 0.8680
vn -0.9060 0.0150 -0.4231
vn -0.6259 0.7799 0.0000
vn -0.6719 0.6675 -0.3208
vn -0.9239 0.0329 -0.3812
vn -0.9741 -0.2260 -0.0000
vn 0.0199 0.9998 0.0000
vn -0.9853 0.1706 0.0000
vn -0.3907 -0.9205 -0.0000
vn 0.9741 0.2260 0.0000
vn -0.8919 0.1544 -0.4250
s 1
f 1//1 2//1 3//1 4//1
f 5//2 6//2 7//2 8//2
f 9//3 10//3 2//3 1//3
f 11//4 12//4 6//4 5//4
f 5//5 8//5 13//5 14//5
f 14//6 13//6 15//6 16//6
f 2//7 17//7 18//7 3//7
f 19//8 4//8 3//8 18//8
f 20//9 10//9 9//9 21//9
f 20//10 21//10 12//10 11//10
f 19//11 18//11 8//11 7//11
f 17//12 20//12 11//12 5//12
f 10//13 20//13 17//13 2//13
f 18//14 17//14 22//14 23//14
f 13//15 23//15 24//15 15//15
f 17//16 5//16 14//16 22//16
f 24//17 25//17 16//17 15//17
f 8//18 18//18 23//18 13//18
f 22//19 14//19 16//19 25//19
f 23//20 22//20 25//20 24//20
f 1//1 4//1 26//1 27//1
f 28//21 29//21 7//21 6//21
f 9//3 1//3 27//3 30//3
f 31//22 28//22 6//22 12//22
f 28//23 32//23 33//23 29//23
f 32//24 34//24 35//24 33//24
f 27//25 26//25 36//25 37//25
f 19//8 36//8 26//8 4//8
f 38//9 21//9 9//9 30//9
f 38//10 31//10 12//10 21//10
f 19//11 7//11 29//11 36//11
f 37//26 28//26 31//26 38//26
f 30//27 27//27 37//27 38//27
f 36//28 39//28 40//28 37//28
f 33//29 35//29 41//29 39//29
f 37//30 40//30 32//30 28//30
f 41//31 35//31 34//31 42//31
f 29//32 33//32 39//32 36//32
f 40//33 42//33 34//33 32//33
f 39//34 41//34 42//34 40//34
o Cube.034
v 0.067903 -2.930719 7.209795
v 0.067903 -2.930719 5.209795
v 0.067903 -3.953883 5.209795
v 0.067903 -3.953883 7.209795
v 0.225236 -2.930719 5.209795
v 0.225236 -3.992164 5.209795
v 0.225236 -2.930719 7.209795
v 0.225236 -3.992164 7.209795
vn -1.0000 0.0000 0.0000
vn 0.0000 0.0000 -1.0000
vn 1.0000 0.0000 0.0000
vn -0.0000 0.0000 1.0000
vn -0.2364 -0.9717 -0.0000
vn 0.0000 1.0000 0.0000
s 1
f 43//35 44//35 45//35 46//35
f 44//36 47//36 48//36 45//36
f 47//37 49//37 50//37 48//37
f 49//38 43//38 46//38 50//38
f 46//39 45//39 48//39 50//39
f 49//40 47//40 44//40 43//40
