o 007
v 6.888942 -5.232016 6.460272
v 6.467794 -4.810866 6.460608
v 5.892496 -4.656716 6.460732
v 5.317198 -4.810866 6.460608
v 4.896051 -5.232016 6.460272
v 4.741899 -5.807313 6.459814
v 4.896051 -6.382613 6.459356
v 5.317198 -6.803760 6.459021
v 5.892496 -6.957910 6.458899
v 6.467795 -6.803761 6.459021
v 6.888942 -6.382613 6.459356
v 7.043093 -5.807313 6.459814
v 6.330165 -5.555049 7.102646
v 6.145185 -5.370069 7.102792
v 5.892496 -5.302361 7.102846
v 5.639808 -5.370069 7.102792
v 5.454827 -5.555049 7.102646
v 5.387120 -5.807740 7.102445
v 5.454827 -6.060427 7.102243
v 5.639808 -6.245409 7.102097
v 5.892496 -6.313116 7.102041
v 6.145185 -6.245409 7.102097
v 6.330165 -6.060427 7.102243
v 6.397873 -5.807738 7.102445
v 6.159493 -5.653833 11.205995
v 6.046647 -5.540987 11.206085
v 5.892496 -5.499681 11.206118
v 5.738346 -5.540987 11.206085
v 5.625500 -5.653833 11.205995
v 5.584195 -5.807981 11.205871
v 5.625500 -5.962135 11.205750
v 5.738346 -6.074982 11.205661
v 5.892496 -6.116287 11.205626
v 6.046647 -6.074982 11.205661
v 6.200798 -5.807981 11.205871
v 6.159493 -5.962135 11.205750
v 5.892496 -5.808015 10.578434
v -6.888942 -5.232016 6.460272
v -6.467794 -4.810866 6.460608
v -5.892496 -4.656716 6.460732
v -5.317198 -4.810866 6.460608
v -4.896051 -5.232016 6.460272
v -4.741899 -5.807313 6.459814
v -4.896051 -6.382613 6.459356
v -5.317198 -6.803760 6.459021
v -5.892496 -6.957910 6.458899
v -6.467795 -6.803761 6.459021
v -6.888942 -6.382613 6.459356
v -7.043093 -5.807313 6.459814
v -6.330165 -5.555049 7.102646
v -6.145185 -5.370069 7.102792
v -5.892496 -5.302361 7.102846
v -5.639808 -5.370069 7.102792
v -5.454827 -5.555049 7.102646
v -5.387120 -5.807740 7.102445
v -5.454827 -6.060427 7.102243
v -5.639808 -6.245409 7.102097
v -5.892496 -6.313116 7.102041
v -6.145185 -6.245409 7.102097
v -6.330165 -6.060427 7.102243
v -6.397873 -5.807738 7.102445
v -6.159493 -5.653833 11.205995
v -6.046647 -5.540987 11.206085
v -5.892496 -5.499681 11.206118
v -5.738346 -5.540987 11.206085
v -5.625500 -5.653833 11.205995
v -5.584195 -5.807981 11.205871
v -5.625500 -5.962135 11.205750
v -5.738346 -6.074982 11.205661
v -5.892496 -6.116287 11.205626
v -6.046647 -6.074982 11.205661
v -6.159493 -5.962135 11.205750
v -6.200798 -5.807981 11.205871
v -5.892496 -5.808015 10.578434
vt 0.794365 0.500358
vt 0.752868 0.655234
vt 0.620663 0.500246
vt 0.602438 0.568272
vt 0.639489 0.768613
vt 0.552638 0.618072
vt 0.484613 0.810110
vt 0.484613 0.636296
vt 0.329737 0.768613
vt 0.416582 0.618072
vt 0.216358 0.655234
vt 0.366788 0.568272
vt 0.174861 0.500358
vt 0.348557 0.500246
vt 0.216358 0.345482
vt 0.366788 0.432221
vt 0.329737 0.232103
vt 0.416582 0.382421
vt 0.484613 0.190606
vt 0.484613 0.364190
vt 0.639489 0.232103
vt 0.552638 0.382421
vt 0.752868 0.345482
vt 0.602438 0.432221
vt 0.944563 0.500858
vt 0.883893 0.733321
vt 0.657488 0.500722
vt 0.635282 0.585806
vt 0.718153 0.903495
vt 0.574612 0.648095
vt 0.491742 0.965784
vt 0.491742 0.670896
vt 0.265337 0.903495
vt 0.408872 0.648095
vt 0.099591 0.733321
vt 0.348207 0.585806
vt 0.038926 0.500858
vt 0.326002 0.500722
vt 0.099591 0.268389
vt 0.348207 0.415632
vt 0.265337 0.098215
vt 0.408872 0.353343
vt 0.491742 0.035926
vt 0.491742 0.330542
vt 0.718153 0.098215
vt 0.574612 0.353343
vt 0.883893 0.268389
vt 0.635282 0.415632
vt 0.491742 0.500703
vt 0.186521 0.507157
vt 0.360224 0.507040
vt 0.228018 0.662034
vt 0.378448 0.575065
vt 0.341397 0.775413
vt 0.428248 0.624865
vt 0.496273 0.816910
vt 0.496273 0.643095
vt 0.651149 0.775413
vt 0.564299 0.624865
vt 0.764528 0.662034
vt 0.614098 0.575065
vt 0.806026 0.507157
vt 0.632329 0.507040
vt 0.764528 0.352275
vt 0.614098 0.439015
vt 0.651149 0.238903
vt 0.564299 0.389214
vt 0.496273 0.197399
vt 0.496273 0.370990
vt 0.341397 0.238903
vt 0.428248 0.389214
vt 0.228018 0.352275
vt 0.378448 0.439015
vn 0.705649 -0.004669 0.708487
vn 0.613208 0.348704 0.708762
vn 0.922391 -0.000549 0.386181
vn 0.799036 0.460707 0.386364
vn 0.356426 0.608539 0.708945
vn 0.461501 0.798486 0.386486
vn 0.004120 0.705130 0.709006
vn 0.000275 0.922239 0.386547
vn -0.349284 0.612659 0.708945
vn -0.460982 0.798791 0.386486
vn -0.609088 0.355846 0.708762
vn -0.798730 0.461226 0.386364
vn -0.705649 0.003540 0.708518
vn -0.922391 0.000000 0.386181
vn -0.613178 -0.349803 0.708243
vn -0.798914 -0.461165 0.385998
vn -0.356365 -0.609577 0.708060
vn -0.461409 -0.798853 0.385876
vn -0.004120 -0.706168 0.707999
vn -0.000275 -0.922544 0.385815
vn 0.349223 -0.613697 0.708060
vn 0.460891 -0.799158 0.385876
vn 0.609027 -0.356945 0.708243
vn 0.798639 -0.461684 0.385998
vn 0.226508 0.000732 0.973998
vn 0.195746 0.113987 0.973998
vn 0.112278 0.196722 0.973998
vn -0.001465 0.226508 0.973998
vn -0.114841 0.195227 0.973998
vn -0.197241 0.111423 0.973998
vn -0.226508 -0.002197 0.973998
vn -0.195135 -0.115085 0.973968
vn -0.111667 -0.197119 0.973968
vn 0.001465 -0.226539 0.973968
vn 0.114231 -0.195654 0.973968
vn 0.196600 -0.112522 0.973998
vn 0.000000 -0.000122 1.000000
vn -0.705649 -0.004669 0.708487
vn -0.922391 -0.000549 0.386181
vn -0.613208 0.348704 0.708762
vn -0.799036 0.460707 0.386364
vn -0.356426 0.608539 0.708945
vn -0.461501 0.798486 0.386486
vn -0.004120 0.705130 0.709006
vn -0.000275 0.922239 0.386547
vn 0.349284 0.612659 0.708945
vn 0.460982 0.798791 0.386486
vn 0.609088 0.355846 0.708762
vn 0.798730 0.461196 0.386364
vn 0.705649 0.003540 0.708518
vn 0.922391 0.000000 0.386181
vn 0.613178 -0.349803 0.708243
vn 0.798914 -0.461165 0.385998
vn 0.356365 -0.609577 0.708060
vn 0.461409 -0.798853 0.385876
vn 0.004120 -0.706168 0.707999
vn 0.000275 -0.922544 0.385815
vn -0.349223 -0.613697 0.708060
vn -0.460891 -0.799158 0.385876
vn -0.609027 -0.356945 0.708243
vn -0.798639 -0.461684 0.385998
vn -0.226508 0.000732 0.973998
vn -0.195746 0.113987 0.973998
vn -0.112278 0.196722 0.973998
vn 0.001465 0.226508 0.973998
vn 0.114841 0.195227 0.973998
vn 0.197241 0.111423 0.973998
vn 0.226508 -0.002197 0.973998
vn 0.195135 -0.115085 0.973968
vn 0.111667 -0.197119 0.973968
vn -0.001465 -0.226539 0.973968
vn -0.114231 -0.195654 0.973968
vn -0.196600 -0.112522 0.973998
s 1
f 12/1/1 1/2/2 24/3/3
f 24/3/3 1/2/2 13/4/4
f 1/2/2 2/5/5 13/4/4
f 14/6/6 13/4/4 2/5/5
f 2/5/5 3/7/7 14/6/6
f 15/8/8 14/6/6 3/7/7
f 3/7/7 4/9/9 15/8/8
f 16/10/10 15/8/8 4/9/9
f 4/9/9 5/11/11 16/10/10
f 17/12/12 16/10/10 5/11/11
f 5/11/11 6/13/13 17/12/12
f 18/14/14 17/12/12 6/13/13
f 6/13/13 7/15/15 18/14/14
f 19/16/16 18/14/14 7/15/15
f 7/15/15 8/17/17 19/16/16
f 20/18/18 19/16/16 8/17/17
f 8/17/17 9/19/19 20/18/18
f 21/20/20 20/18/18 9/19/19
f 9/19/19 10/21/21 21/20/20
f 22/22/22 21/20/20 10/21/21
f 10/21/21 11/23/23 22/22/22
f 23/24/24 22/22/22 11/23/23
f 11/23/23 12/1/1 23/24/24
f 24/3/3 23/24/24 12/1/1
f 24/25/3 13/26/4 35/27/25
f 25/28/26 35/27/25 13/26/4
f 13/26/4 14/29/6 25/28/26
f 26/30/27 25/28/26 14/29/6
f 14/29/6 15/31/8 26/30/27
f 27/32/28 26/30/27 15/31/8
f 15/31/8 16/33/10 27/32/28
f 28/34/29 27/32/28 16/33/10
f 16/33/10 17/35/12 28/34/29
f 29/36/30 28/34/29 17/35/12
f 17/35/12 18/37/14 29/36/30
f 30/38/31 29/36/30 18/37/14
f 18/37/14 19/39/16 30/38/31
f 31/40/32 30/38/31 19/39/16
f 19/39/16 20/41/18 31/40/32
f 32/42/33 31/40/32 20/41/18
f 20/41/18 21/43/20 32/42/33
f 33/44/34 32/42/33 21/43/20
f 21/43/20 22/45/22 33/44/34
f 34/46/35 33/44/34 22/45/22
f 22/45/22 23/47/24 34/46/35
f 36/48/36 34/46/35 23/47/24
f 23/47/24 24/25/3 36/48/36
f 35/27/25 36/48/36 24/25/3
f 37/49/37 35/27/25 25/28/26
f 37/49/37 25/28/26 26/30/27
f 37/49/37 26/30/27 27/32/28
f 37/49/37 27/32/28 28/34/29
f 37/49/37 28/34/29 29/36/30
f 37/49/37 29/36/30 30/38/31
f 37/49/37 30/38/31 31/40/32
f 37/49/37 31/40/32 32/42/33
f 37/49/37 32/42/33 33/44/34
f 37/49/37 33/44/34 34/46/35
f 37/49/37 34/46/35 36/48/36
f 37/49/37 36/48/36 35/27/25
f 49/50/38 61/51/39 38/52/40
f 50/53/41 38/52/40 61/51/39
f 38/52/40 50/53/41 39/54/42
f 51/55/43 39/54/42 50/53/41
f 39/54/42 51/55/43 40/56/44
f 52/57/45 40/56/44 51/55/43
f 40/56/44 52/57/45 41/58/46
f 53/59/47 41/58/46 52/57/45
f 41/58/46 53/59/47 42/60/48
f 54/61/49 42/60/48 53/59/47
f 42/60/48 54/61/49 43/62/50
f 55/63/51 43/62/50 54/61/49
f 43/62/50 55/63/51 44/64/52
f 56/65/53 44/64/52 55/63/51
f 44/64/52 56/65/53 45/66/54
f 57/67/55 45/66/54 56/65/53
f 45/66/54 57/67/55 46/68/56
f 58/69/57 46/68/56 57/67/55
f 46/68/56 58/69/57 47/70/58
f 59/71/59 47/70/58 58/69/57
f 47/70/58 59/71/59 48/72/60
f 60/73/61 48/72/60 59/71/59
f 48/72/60 60/73/61 49/50/38
f 61/51/39 49/50/38 60/73/61
f 61/25/39 73/27/62 50/26/41
f 62/28/63 50/26/41 73/27/62
f 50/26/41 62/28/63 51/29/43
f 63/30/64 51/29/43 62/28/63
f 51/29/43 63/30/64 52/31/45
f 64/32/65 52/31/45 63/30/64
f 52/31/45 64/32/65 53/33/47
f 65/34/66 53/33/47 64/32/65
f 53/33/47 65/34/66 54/35/49
f 66/36/67 54/35/49 65/34/66
f 54/35/49 66/36/67 55/37/51
f 67/38/68 55/37/51 66/36/67
f 55/37/51 67/38/68 56/39/53
f 68/40/69 56/39/53 67/38/68
f 56/39/53 68/40/69 57/41/55
f 69/42/70 57/41/55 68/40/69
f 57/41/55 69/42/70 58/43/57
f 70/44/71 58/43/57 69/42/70
f 58/43/57 70/44/71 59/45/59
f 71/46/72 59/45/59 70/44/71
f 59/45/59 71/46/72 60/47/61
f 72/48/73 60/47/61 71/46/72
f 60/47/61 72/48/73 61/25/39
f 73/27/62 61/25/39 72/48/73
f 74/49/37 62/28/63 73/27/62
f 74/49/37 63/30/64 62/28/63
f 74/49/37 64/32/65 63/30/64
f 74/49/37 65/34/66 64/32/65
f 74/49/37 66/36/67 65/34/66
f 74/49/37 67/38/68 66/36/67
f 74/49/37 68/40/69 67/38/68
f 74/49/37 69/42/70 68/40/69
f 74/49/37 70/44/71 69/42/70
f 74/49/37 71/46/72 70/44/71
f 74/49/37 72/48/73 71/46/72
f 74/49/37 73/27/62 72/48/73
