o 009
v 4.118660 -4.017519 7.941196
v 4.013162 -3.910777 8.249537
v 3.894921 -4.189337 8.136174
v 4.291949 -3.794820 8.134398
v 4.452498 -3.957419 7.905898
v 4.334260 -4.235977 7.792534
v 4.055470 -4.351936 7.907674
v 3.809025 -4.139369 8.061061
v 3.938025 -3.835457 8.184742
v 3.970923 -3.869781 7.732264
v 4.242191 -3.708942 8.059124
v 4.417352 -3.886341 7.809826
v 4.288349 -4.190254 7.686146
v 3.984185 -4.316767 7.811764
v 4.275660 -4.790531 8.246833
v 4.026414 -4.538103 8.601569
v 4.708467 -4.610507 8.068088
v 4.892029 -4.178057 8.244078
v 4.642784 -3.925629 8.598815
v 4.209976 -4.105653 8.777560
v -4.118682 4.219824 7.941196
v -4.336090 4.438475 7.791121
v -4.454331 4.159916 7.904482
v -4.057303 4.554433 7.906258
v -3.896755 4.391835 8.134759
v -4.014993 4.113276 8.248123
v -4.293784 3.997318 8.132984
v -4.419183 4.088840 7.808413
v -4.290182 4.392751 7.684732
v -3.970945 4.072087 7.732264
v -3.986017 4.519266 7.810349
v -3.810856 4.341867 8.059647
v -3.939858 4.037954 8.183328
v -4.244022 3.911441 8.057710
v -4.642807 4.127936 8.598815
v -4.892054 4.380364 8.244078
v -4.210000 4.307960 8.777560
v -4.026438 4.740410 8.601570
v -4.275683 4.992838 8.246833
v -4.708491 4.812815 8.068088
v 4.122476 -4.021335 -8.264730
v 4.341126 -4.238742 -8.114655
v 4.062568 -4.356984 -8.228017
v 4.457085 -3.959955 -8.229793
v 4.294486 -3.799407 -8.458292
v 4.015927 -3.917644 -8.571656
v 3.899968 -4.196435 -8.456517
v 3.991491 -4.321835 -8.131947
v 4.295402 -4.192834 -8.008265
v 3.974738 -3.873597 -8.055798
v 4.421917 -3.888669 -8.133883
v 4.244519 -3.713508 -8.383181
v 3.940605 -3.842510 -8.506862
v 3.814092 -4.146675 -8.381243
v 4.030587 -4.545459 -8.922348
v 4.283015 -4.794705 -8.567611
v 4.210610 -4.112651 -9.101093
v 4.643061 -3.929089 -8.925103
v 4.895489 -4.178335 -8.570366
v 4.715466 -4.611143 -8.391621
v -4.114867 4.216008 -8.264729
v -4.008125 4.110509 -8.573070
v -4.286685 3.992269 -8.459708
v -3.892168 4.389297 -8.457932
v -4.054767 4.549845 -8.229432
v -4.333325 4.431608 -8.116068
v -4.449284 4.152817 -8.231208
v -4.236717 3.906372 -8.384595
v -3.932805 4.035373 -8.508276
v -3.967129 4.068270 -8.055798
v -3.806290 4.339538 -8.382658
v -3.983689 4.514699 -8.133360
v -4.287602 4.385696 -8.009680
v -4.414115 4.081532 -8.135298
v -4.887879 4.373007 -8.570367
v -4.635451 4.123761 -8.925103
v -4.707855 4.805814 -8.391622
v -4.275405 4.989377 -8.567612
v -4.022977 4.740131 -8.922349
v -4.203001 4.307323 -9.101094
v -4.100867 -3.997324 7.963898
v -4.319518 -4.214733 7.813822
v -4.040959 -4.332973 7.927184
v -4.435477 -3.935945 7.928959
v -4.272877 -3.775397 8.157459
v -3.994319 -3.893634 8.270824
v -3.878360 -4.172425 8.155684
v -3.969882 -4.297824 7.831113
v -4.273794 -4.168824 7.707433
v -3.953130 -3.849587 7.754965
v -4.400309 -3.864659 7.833050
v -4.222910 -3.689497 8.082349
v -3.918997 -3.818500 8.206029
v -3.792483 -4.122664 8.080410
v -4.008978 -4.521449 8.621515
v -4.261407 -4.770695 8.266779
v -4.189003 -4.088641 8.800261
v -4.621452 -3.905079 8.624269
v -4.873881 -4.154325 8.269534
v -4.693857 -4.587132 8.090788
v 4.114582 4.218121 -8.264731
v 4.331990 4.436772 -8.114656
v 4.450231 4.158213 -8.228018
v 4.053203 4.552730 -8.229794
v 3.892654 4.390131 -8.458294
v 4.010891 4.111572 -8.571658
v 4.289682 3.995614 -8.456518
v 4.415082 4.087136 -8.131948
v 4.286081 4.391047 -8.008266
v 3.966845 4.070383 -8.055799
v 3.981916 4.517562 -8.133884
v 3.806755 4.340164 -8.383182
v 3.935758 4.036250 -8.506863
v 4.239922 3.909737 -8.381245
v 4.638706 4.126232 -8.922350
v 4.887952 4.378660 -8.567613
v 4.205899 4.306256 -9.101095
v 4.022336 4.738706 -8.925104
v 4.271582 4.991134 -8.570368
v 4.704390 4.811110 -8.391623
v -4.100867 -3.997328 -8.264729
v -3.995369 -3.890587 -8.573070
v -3.877128 -4.169146 -8.459707
v -4.274156 -3.774628 -8.457932
v -4.434705 -3.937228 -8.229431
v -4.316467 -4.215786 -8.116067
v -4.037676 -4.331745 -8.231207
v -3.791232 -4.119178 -8.384594
v -3.920232 -3.815266 -8.508275
v -3.953130 -3.849590 -8.055797
v -4.224398 -3.688751 -8.382657
v -4.399559 -3.866149 -8.133360
v -4.270556 -4.170063 -8.009679
v -3.966392 -4.296576 -8.135297
v -4.257866 -4.770340 -8.570366
v -4.008620 -4.517912 -8.925103
v -4.690674 -4.590317 -8.391621
v -4.874237 -4.157866 -8.567611
v -4.624991 -3.905438 -8.922348
v -4.192183 -4.085462 -9.101093
v 4.113833 4.217376 7.947823
v 4.007092 4.111878 8.256163
v 4.285652 3.993637 8.142801
v 3.891134 4.390665 8.141026
v 4.053734 4.551214 7.912525
v 4.332292 4.432977 7.799161
v 4.448251 4.154185 7.914300
v 4.235684 3.907741 8.067687
v 3.931772 4.036742 8.191369
v 3.966096 4.069638 7.738890
v 3.805257 4.340906 8.065751
v 3.982656 4.516068 7.816453
v 4.286569 4.387065 7.692773
v 4.413083 4.082901 7.818391
v 4.886846 4.374375 8.253460
v 4.634418 4.125129 8.608197
v 4.706822 4.807183 8.074714
v 4.274372 4.990745 8.250705
v 4.021944 4.741499 8.605441
v 4.201968 4.308692 8.784187
v 4.275660 -4.790531 8.246833
v 4.026414 -4.538103 8.601569
v 4.209976 -4.105653 8.777560
v 4.642784 -3.925629 8.598815
v 4.892029 -4.178057 8.244078
v 4.708467 -4.610507 8.068088
v -4.642807 4.127936 8.598815
v -4.892054 4.380364 8.244078
v -4.708491 4.812815 8.068088
v -4.275683 4.992838 8.246833
v -4.026438 4.740410 8.601570
v -4.210000 4.307960 8.777560
v 4.030587 -4.545459 -8.922348
v 4.283015 -4.794705 -8.567611
v 4.715466 -4.611143 -8.391621
v 4.895489 -4.178335 -8.570366
v 4.643061 -3.929089 -8.925103
v 4.210610 -4.112651 -9.101093
v -4.887879 4.373007 -8.570367
v -4.635451 4.123761 -8.925103
v -4.203001 4.307323 -9.101094
v -4.022977 4.740131 -8.922349
v -4.275405 4.989377 -8.567612
v -4.707855 4.805814 -8.391622
v -4.008978 -4.521449 8.621515
v -4.261407 -4.770695 8.266779
v -4.693857 -4.587132 8.090788
v -4.873881 -4.154325 8.269534
v -4.621452 -3.905079 8.624269
v -4.189003 -4.088641 8.800261
v 4.638706 4.126232 -8.922350
v 4.887952 4.378660 -8.567613
v 4.704390 4.811110 -8.391623
v 4.271582 4.991134 -8.570368
v 4.022336 4.738706 -8.925104
v 4.205899 4.306256 -9.101095
v -4.257866 -4.770340 -8.570366
v -4.008620 -4.517912 -8.925103
v -4.192183 -4.085462 -9.101093
v -4.624991 -3.905438 -8.922348
v -4.874237 -4.157866 -8.567611
v -4.690674 -4.590317 -8.391621
v 4.886846 4.374375 8.253460
v 4.634418 4.125129 8.608197
v 4.201968 4.308692 8.784187
v 4.021944 4.741499 8.605441
v 4.274372 4.990745 8.250705
v 4.706822 4.807183 8.074714
vt 0.500000 0.500000
vt 0.500000 0.212500
vt 0.750000 0.350000
vt 0.237500 0.350000
vt 0.250000 0.650000
vt 0.500000 0.787500
vt 0.762500 0.650000
vt 0.775000 0.337500
vt 0.500000 0.187500
vt 0.225000 0.337500
vt 0.225000 0.662500
vt 0.500000 0.812500
vt 0.775000 0.662500
vt 0.887500 0.725000
vt 0.887500 0.275000
vt 0.500000 0.950000
vt 0.112500 0.725000
vt 0.112500 0.275000
vt 0.500000 0.050000
vn 0.499008 -0.499893 0.707846
vn 0.702170 -0.706778 -0.085757
vn 0.982330 -0.048036 0.180731
vn 0.043123 -0.981719 0.185247
vn -0.339122 -0.596454 0.727439
vn -0.056917 0.064241 0.996307
vn 0.603320 0.337962 0.722312
vn -0.997131 -0.059664 -0.046022
vn -0.681692 0.684500 0.258248
vn -0.498672 0.499832 -0.708121
vn 0.064730 0.996673 -0.049013
vn 0.497085 0.560930 -0.661977
vn 0.178259 -0.186468 -0.966124
vn -0.568712 -0.495682 -0.656362
vn -0.459609 -0.737358 -0.495010
vn -0.948424 -0.245888 0.200018
vn 0.382488 -0.382122 -0.841212
vn 0.736747 0.456923 -0.498367
vn 0.255654 0.947752 0.190741
vn 0.972106 0.197302 -0.126774
vn 0.623188 -0.629139 -0.464492
vn -0.203009 -0.971740 -0.120304
vn 0.495193 0.673208 0.549089
vn -0.326670 0.326212 0.887020
vn -0.587359 0.600116 0.542955
vn -0.672353 -0.492660 0.552416
vn -0.500961 0.500076 0.706320
vn 0.058321 -0.062929 0.996307
vn 0.339335 0.594928 0.728599
vn -0.600299 -0.338267 0.724693
vn -0.982177 0.046571 0.181951
vn -0.700827 0.708152 -0.085696
vn -0.040101 0.981414 0.187628
vn -0.495834 -0.560961 -0.662893
vn -0.181188 0.183996 -0.966063
vn 0.501297 -0.500137 -0.706046
vn 0.565386 0.496048 -0.658956
vn 0.997101 0.060915 -0.045106
vn 0.679067 -0.687246 0.257912
vn -0.068056 -0.996338 -0.051637
vn -0.248451 -0.948515 0.196387
vn -0.738609 -0.455702 -0.496719
vn 0.594989 -0.594653 0.540666
vn 0.949248 0.244423 0.197851
vn 0.466811 0.736595 -0.489364
vn 0.674337 0.495041 0.547868
vn 0.325449 -0.331400 0.885556
vn -0.502274 -0.672475 0.543565
vn 0.195929 0.972472 -0.125858
vn -0.627430 0.627003 -0.461654
vn -0.377544 0.390301 -0.839686
vn -0.973144 -0.191870 -0.127049
vn 0.500076 -0.500961 -0.706320
vn -0.062929 0.058321 -0.996307
vn 0.594928 0.339335 -0.728599
vn -0.338267 -0.600299 -0.724693
vn 0.046571 -0.982177 -0.181951
vn 0.708152 -0.700827 0.085665
vn 0.981414 -0.040101 -0.187628
vn -0.560961 -0.495834 0.662893
vn 0.183996 -0.181188 0.966063
vn -0.500137 0.501297 0.706046
vn 0.496048 0.565386 0.658956
vn 0.060915 0.997101 0.045106
vn -0.687246 0.679067 -0.257912
vn -0.996338 -0.068056 0.051637
vn -0.948515 -0.248451 -0.196387
vn -0.455702 -0.738609 0.496719
vn -0.594653 0.594989 -0.540666
vn 0.244423 0.949248 -0.197851
vn 0.736595 0.466811 0.489364
vn 0.495041 0.674337 -0.547868
vn -0.331400 0.325449 -0.885556
vn -0.672475 -0.502274 -0.543565
vn 0.972472 0.195929 0.125858
vn 0.627003 -0.627430 0.461654
vn 0.390301 -0.377544 0.839686
vn -0.191870 -0.973144 0.127049
vn -0.499893 0.499008 -0.707846
vn -0.706778 0.702170 0.085757
vn -0.048036 0.982330 -0.180731
vn -0.981719 0.043123 -0.185247
vn -0.596454 -0.339122 -0.727439
vn 0.064241 -0.056917 -0.996307
vn 0.337962 0.603320 -0.722312
vn -0.059664 -0.997131 0.046022
vn 0.684500 -0.681692 -0.258248
vn 0.499832 -0.498672 0.708121
vn 0.996673 0.064730 0.049013
vn 0.560930 0.497085 0.661977
vn -0.186468 0.178259 0.966124
vn -0.495682 -0.568712 0.656362
vn -0.737358 -0.459609 0.495010
vn -0.245888 -0.948424 -0.200018
vn -0.382122 0.382488 0.841212
vn 0.456923 0.736747 0.498367
vn 0.947752 0.255654 -0.190741
vn 0.197302 0.972106 0.126774
vn -0.629170 0.623188 0.464492
vn -0.971740 -0.203009 0.120304
vn 0.673208 0.495193 -0.549089
vn 0.326212 -0.326670 -0.887020
vn 0.600116 -0.587359 -0.542955
vn -0.492660 -0.672353 -0.552416
vn -0.500076 -0.500961 0.706320
vn 0.062929 0.058321 0.996307
vn -0.594928 0.339335 0.728599
vn 0.338267 -0.600299 0.724693
vn -0.046571 -0.982177 0.181951
vn -0.708152 -0.700827 -0.085696
vn -0.981414 -0.040101 0.187628
vn 0.560961 -0.495834 -0.662893
vn -0.183996 -0.181188 -0.966063
vn 0.500137 0.501297 -0.706046
vn -0.496048 0.565386 -0.658956
vn -0.060915 0.997101 -0.045106
vn 0.687246 0.679067 0.257912
vn 0.996338 -0.068056 -0.051637
vn 0.948515 -0.248451 0.196387
vn 0.455702 -0.738609 -0.496719
vn 0.594653 0.594989 0.540666
vn -0.244423 0.949248 0.197851
vn -0.736595 0.466811 -0.489364
vn -0.495041 0.674337 0.547868
vn 0.331400 0.325449 0.885556
vn 0.672475 -0.502274 0.543565
vn -0.972472 0.195929 -0.125858
vn -0.627003 -0.627430 -0.461654
vn -0.390301 -0.377544 -0.839686
vn 0.191870 -0.973144 -0.127049
vn 0.500961 0.500076 -0.706320
vn -0.058321 -0.062929 -0.996307
vn -0.339335 0.594928 -0.728599
vn 0.600299 -0.338267 -0.724693
vn 0.982177 0.046571 -0.181951
vn 0.700827 0.708152 0.085665
vn 0.040101 0.981414 -0.187628
vn 0.495834 -0.560961 0.662893
vn 0.181188 0.183996 0.966063
vn -0.501297 -0.500137 0.706046
vn -0.565386 0.496048 0.658956
vn -0.997101 0.060915 0.045106
vn -0.679067 -0.687246 -0.257912
vn 0.068056 -0.996338 0.051637
vn 0.248451 -0.948515 -0.196387
vn 0.738609 -0.455702 0.496719
vn -0.594989 -0.594653 -0.540666
vn -0.949248 0.244423 -0.197851
vn -0.466811 0.736595 0.489364
vn -0.674337 0.495041 -0.547868
vn -0.325449 -0.331400 -0.885556
vn 0.502274 -0.672475 -0.543565
vn -0.195929 0.972472 0.125858
vn 0.627430 0.627003 0.461654
vn 0.377544 0.390301 0.839686
vn 0.973144 -0.191870 0.127049
vn -0.499008 -0.499893 -0.707846
vn -0.702170 -0.706778 0.085757
vn -0.982330 -0.048036 -0.180700
vn -0.043123 -0.981719 -0.185247
vn 0.339122 -0.596454 -0.727439
vn 0.056917 0.064241 -0.996307
vn -0.603320 0.337962 -0.722312
vn 0.997131 -0.059664 0.046022
vn 0.681692 0.684500 -0.258248
vn 0.498672 0.499832 0.708121
vn -0.064730 0.996673 0.049013
vn -0.497085 0.560930 0.661977
vn -0.178259 -0.186468 0.966124
vn 0.568712 -0.495682 0.656362
vn 0.459609 -0.737358 0.495010
vn 0.948424 -0.245888 -0.200018
vn -0.382488 -0.382122 0.841212
vn -0.736747 0.456923 0.498367
vn -0.255654 0.947752 -0.190741
vn -0.972106 0.197272 0.126774
vn -0.623188 -0.629139 0.464492
vn 0.203009 -0.971740 0.120334
vn -0.495193 0.673208 -0.549089
vn 0.326670 0.326212 -0.887020
vn 0.587359 0.600116 -0.542955
vn 0.672353 -0.492660 -0.552416
vn 0.499893 0.499008 0.707846
vn 0.706778 0.702170 -0.085757
vn 0.048036 0.982330 0.180700
vn 0.981719 0.043123 0.185247
vn 0.596454 -0.339122 0.727439
vn -0.064241 -0.056917 0.996307
vn -0.337962 0.603320 0.722312
vn 0.059664 -0.997131 -0.046022
vn -0.684500 -0.681692 0.258248
vn -0.499832 -0.498672 -0.708121
vn -0.996673 0.064730 -0.049013
vn -0.560930 0.497085 -0.661977
vn 0.186468 0.178259 -0.966124
vn 0.495682 -0.568712 -0.656362
vn 0.737358 -0.459609 -0.495010
vn 0.245888 -0.948424 0.200018
vn 0.382122 0.382488 -0.841212
vn -0.456923 0.736747 -0.498367
vn -0.947752 0.255654 0.190741
vn -0.197272 0.972106 -0.126774
vn 0.629139 0.623188 -0.464492
vn 0.971740 -0.203009 -0.120304
vn -0.673208 0.495193 0.549089
vn -0.326212 -0.326670 0.887020
vn -0.600116 -0.587359 0.542955
vn 0.492660 -0.672353 0.552416
s 1
f 1/1/1 2/2/2 3/3/3
f 4/4/4 1/1/1 5/5/5
f 5/5/5 1/1/1 6/6/6
f 7/7/7 1/1/1 3/3/3
f 8/8/8 9/9/9 10/1/10
f 11/10/11 12/11/12 10/1/10
f 12/11/12 13/12/13 10/1/10
f 14/13/14 8/8/8 10/1/10
f 2/2/2 1/1/1 4/4/4
f 6/6/6 1/1/1 7/7/7
f 9/9/9 11/10/11 10/1/10
f 13/12/13 14/13/14 10/1/10
f 14/13/14 15/14/15 162/15/16
f 14/13/14 162/15/16 8/8/8
f 13/12/13 12/11/12 17/16/17
f 12/11/12 18/17/18 17/16/17
f 11/10/11 19/18/19 12/11/12
f 19/18/19 18/17/18 12/11/12
f 16/15/20 3/3/3 20/19/21
f 3/3/3 2/2/2 20/19/21
f 13/12/13 17/16/17 15/14/15
f 13/12/13 15/14/15 14/13/14
f 164/18/22 20/19/21 4/4/4
f 20/19/21 2/2/2 4/4/4
f 161/14/23 166/16/24 6/6/6
f 161/14/23 6/6/6 7/7/7
f 9/9/9 163/19/25 11/10/11
f 163/19/25 19/18/19 11/10/11
f 165/17/26 164/18/22 5/5/5
f 164/18/22 4/4/4 5/5/5
f 6/6/6 166/16/24 5/5/5
f 166/16/24 165/17/26 5/5/5
f 16/15/20 161/14/23 7/7/7
f 16/15/20 7/7/7 3/3/3
f 9/9/9 8/8/8 162/15/16
f 9/9/9 162/15/16 163/19/25
f 21/1/27 22/2/28 23/3/29
f 24/4/30 21/1/27 25/5/31
f 25/5/31 21/1/27 26/6/32
f 27/7/33 21/1/27 23/3/29
f 28/8/34 29/9/35 30/1/36
f 31/10/37 32/11/38 30/1/36
f 32/11/38 33/12/39 30/1/36
f 34/13/40 28/8/34 30/1/36
f 22/2/28 21/1/27 24/4/30
f 26/6/32 21/1/27 27/7/33
f 29/9/35 31/10/37 30/1/36
f 33/12/39 34/13/40 30/1/36
f 34/13/40 35/14/41 168/15/42
f 34/13/40 168/15/42 28/8/34
f 33/12/39 32/11/38 37/16/43
f 32/11/38 38/17/44 37/16/43
f 31/10/37 39/18/45 32/11/38
f 39/18/45 38/17/44 32/11/38
f 36/15/46 23/3/29 40/19/47
f 23/3/29 22/2/28 40/19/47
f 33/12/39 37/16/43 35/14/41
f 33/12/39 35/14/41 34/13/40
f 170/18/48 40/19/47 24/4/30
f 40/19/47 22/2/28 24/4/30
f 167/14/49 172/16/50 26/6/32
f 167/14/49 26/6/32 27/7/33
f 29/9/35 169/19/51 31/10/37
f 169/19/51 39/18/45 31/10/37
f 171/17/52 170/18/48 25/5/31
f 170/18/48 24/4/30 25/5/31
f 26/6/32 172/16/50 25/5/31
f 172/16/50 171/17/52 25/5/31
f 36/15/46 167/14/49 27/7/33
f 36/15/46 27/7/33 23/3/29
f 29/9/35 28/8/34 168/15/42
f 29/9/35 168/15/42 169/19/51
f 41/1/53 42/2/54 43/3/55
f 44/4/56 41/1/53 45/5/57
f 45/5/57 41/1/53 46/6/58
f 47/7/59 41/1/53 43/3/55
f 48/8/60 49/9/61 50/1/62
f 51/10/63 52/11/64 50/1/62
f 52/11/64 53/12/65 50/1/62
f 54/13/66 48/8/60 50/1/62
f 42/2/54 41/1/53 44/4/56
f 46/6/58 41/1/53 47/7/59
f 49/9/61 51/10/63 50/1/62
f 53/12/65 54/13/66 50/1/62
f 54/13/66 55/14/67 174/15/68
f 54/13/66 174/15/68 48/8/60
f 53/12/65 52/11/64 57/16/69
f 52/11/64 58/17/70 57/16/69
f 51/10/63 59/18/71 52/11/64
f 59/18/71 58/17/70 52/11/64
f 56/15/72 43/3/55 60/19/73
f 43/3/55 42/2/54 60/19/73
f 53/12/65 57/16/69 55/14/67
f 53/12/65 55/14/67 54/13/66
f 176/18/74 60/19/73 44/4/56
f 60/19/73 42/2/54 44/4/56
f 173/14/75 178/16/76 46/6/58
f 173/14/75 46/6/58 47/7/59
f 49/9/61 175/19/77 51/10/63
f 175/19/77 59/18/71 51/10/63
f 177/17/78 176/18/74 45/5/57
f 176/18/74 44/4/56 45/5/57
f 46/6/58 178/16/76 45/5/57
f 178/16/76 177/17/78 45/5/57
f 56/15/72 173/14/75 47/7/59
f 56/15/72 47/7/59 43/3/55
f 49/9/61 48/8/60 174/15/68
f 49/9/61 174/15/68 175/19/77
f 61/1/79 62/2/80 63/3/81
f 64/4/82 61/1/79 65/5/83
f 65/5/83 61/1/79 66/6/84
f 67/7/85 61/1/79 63/3/81
f 68/8/86 69/9/87 70/1/88
f 71/10/89 72/11/90 70/1/88
f 72/11/90 73/12/91 70/1/88
f 74/13/92 68/8/86 70/1/88
f 62/2/80 61/1/79 64/4/82
f 66/6/84 61/1/79 67/7/85
f 69/9/87 71/10/89 70/1/88
f 73/12/91 74/13/92 70/1/88
f 74/13/92 75/14/93 180/15/94
f 74/13/92 180/15/94 68/8/86
f 73/12/91 72/11/90 77/16/95
f 72/11/90 78/17/96 77/16/95
f 71/10/89 79/18/97 72/11/90
f 79/18/97 78/17/96 72/11/90
f 76/15/98 63/3/81 80/19/99
f 63/3/81 62/2/80 80/19/99
f 73/12/91 77/16/95 75/14/93
f 73/12/91 75/14/93 74/13/92
f 182/18/100 80/19/99 64/4/82
f 80/19/99 62/2/80 64/4/82
f 179/14/101 184/16/102 66/6/84
f 179/14/101 66/6/84 67/7/85
f 69/9/87 181/19/103 71/10/89
f 181/19/103 79/18/97 71/10/89
f 183/17/104 182/18/100 65/5/83
f 182/18/100 64/4/82 65/5/83
f 66/6/84 184/16/102 65/5/83
f 184/16/102 183/17/104 65/5/83
f 76/15/98 179/14/101 67/7/85
f 76/15/98 67/7/85 63/3/81
f 69/9/87 68/8/86 180/15/94
f 69/9/87 180/15/94 181/19/103
f 81/1/105 82/2/106 83/3/107
f 84/4/108 81/1/105 85/5/109
f 85/5/109 81/1/105 86/6/110
f 87/7/111 81/1/105 83/3/107
f 88/8/112 89/9/113 90/1/114
f 91/10/115 92/11/116 90/1/114
f 92/11/116 93/12/117 90/1/114
f 94/13/118 88/8/112 90/1/114
f 82/2/106 81/1/105 84/4/108
f 86/6/110 81/1/105 87/7/111
f 89/9/113 91/10/115 90/1/114
f 93/12/117 94/13/118 90/1/114
f 94/13/118 95/14/119 186/15/120
f 94/13/118 186/15/120 88/8/112
f 93/12/117 92/11/116 97/16/121
f 92/11/116 98/17/122 97/16/121
f 91/10/115 99/18/123 92/11/116
f 99/18/123 98/17/122 92/11/116
f 96/15/124 83/3/107 100/19/125
f 83/3/107 82/2/106 100/19/125
f 93/12/117 97/16/121 95/14/119
f 93/12/117 95/14/119 94/13/118
f 188/18/126 100/19/125 84/4/108
f 100/19/125 82/2/106 84/4/108
f 185/14/127 190/16/128 86/6/110
f 185/14/127 86/6/110 87/7/111
f 89/9/113 187/19/129 91/10/115
f 187/19/129 99/18/123 91/10/115
f 189/17/130 188/18/126 85/5/109
f 188/18/126 84/4/108 85/5/109
f 86/6/110 190/16/128 85/5/109
f 190/16/128 189/17/130 85/5/109
f 96/15/124 185/14/127 87/7/111
f 96/15/124 87/7/111 83/3/107
f 89/9/113 88/8/112 186/15/120
f 89/9/113 186/15/120 187/19/129
f 101/1/131 102/2/132 103/3/133
f 104/4/134 101/1/131 105/5/135
f 105/5/135 101/1/131 106/6/136
f 107/7/137 101/1/131 103/3/133
f 108/8/138 109/9/139 110/1/140
f 111/10/141 112/11/142 110/1/140
f 112/11/142 113/12/143 110/1/140
f 114/13/144 108/8/138 110/1/140
f 102/2/132 101/1/131 104/4/134
f 106/6/136 101/1/131 107/7/137
f 109/9/139 111/10/141 110/1/140
f 113/12/143 114/13/144 110/1/140
f 114/13/144 115/14/145 192/15/146
f 114/13/144 192/15/146 108/8/138
f 113/12/143 112/11/142 117/16/147
f 112/11/142 118/17/148 117/16/147
f 111/10/141 119/18/149 112/11/142
f 119/18/149 118/17/148 112/11/142
f 116/15/150 103/3/133 120/19/151
f 103/3/133 102/2/132 120/19/151
f 113/12/143 117/16/147 115/14/145
f 113/12/143 115/14/145 114/13/144
f 194/18/152 120/19/151 104/4/134
f 120/19/151 102/2/132 104/4/134
f 191/14/153 196/16/154 106/6/136
f 191/14/153 106/6/136 107/7/137
f 109/9/139 193/19/155 111/10/141
f 193/19/155 119/18/149 111/10/141
f 195/17/156 194/18/152 105/5/135
f 194/18/152 104/4/134 105/5/135
f 106/6/136 196/16/154 105/5/135
f 196/16/154 195/17/156 105/5/135
f 116/15/150 191/14/153 107/7/137
f 116/15/150 107/7/137 103/3/133
f 109/9/139 108/8/138 192/15/146
f 109/9/139 192/15/146 193/19/155
f 121/1/157 122/2/158 123/3/159
f 124/4/160 121/1/157 125/5/161
f 125/5/161 121/1/157 126/6/162
f 127/7/163 121/1/157 123/3/159
f 128/8/164 129/9/165 130/1/166
f 131/10/167 132/11/168 130/1/166
f 132/11/168 133/12/169 130/1/166
f 134/13/170 128/8/164 130/1/166
f 122/2/158 121/1/157 124/4/160
f 126/6/162 121/1/157 127/7/163
f 129/9/165 131/10/167 130/1/166
f 133/12/169 134/13/170 130/1/166
f 134/13/170 135/14/171 198/15/172
f 134/13/170 198/15/172 128/8/164
f 133/12/169 132/11/168 137/16/173
f 132/11/168 138/17/174 137/16/173
f 131/10/167 139/18/175 132/11/168
f 139/18/175 138/17/174 132/11/168
f 136/15/176 123/3/159 140/19/177
f 123/3/159 122/2/158 140/19/177
f 133/12/169 137/16/173 135/14/171
f 133/12/169 135/14/171 134/13/170
f 200/18/178 140/19/177 124/4/160
f 140/19/177 122/2/158 124/4/160
f 197/14/179 202/16/180 126/6/162
f 197/14/179 126/6/162 127/7/163
f 129/9/165 199/19/181 131/10/167
f 199/19/181 139/18/175 131/10/167
f 201/17/182 200/18/178 125/5/161
f 200/18/178 124/4/160 125/5/161
f 126/6/162 202/16/180 125/5/161
f 202/16/180 201/17/182 125/5/161
f 136/15/176 197/14/179 127/7/163
f 136/15/176 127/7/163 123/3/159
f 129/9/165 128/8/164 198/15/172
f 129/9/165 198/15/172 199/19/181
f 141/1/183 142/2/184 143/3/185
f 144/4/186 141/1/183 145/5/187
f 145/5/187 141/1/183 146/6/188
f 147/7/189 141/1/183 143/3/185
f 148/8/190 149/9/191 150/1/192
f 151/10/193 152/11/194 150/1/192
f 152/11/194 153/12/195 150/1/192
f 154/13/196 148/8/190 150/1/192
f 142/2/184 141/1/183 144/4/186
f 146/6/188 141/1/183 147/7/189
f 149/9/191 151/10/193 150/1/192
f 153/12/195 154/13/196 150/1/192
f 154/13/196 155/14/197 204/15/198
f 154/13/196 204/15/198 148/8/190
f 153/12/195 152/11/194 157/16/199
f 152/11/194 158/17/200 157/16/199
f 151/10/193 159/18/201 152/11/194
f 159/18/201 158/17/200 152/11/194
f 156/15/202 143/3/185 160/19/203
f 143/3/185 142/2/184 160/19/203
f 153/12/195 157/16/199 155/14/197
f 153/12/195 155/14/197 154/13/196
f 206/18/204 160/19/203 144/4/186
f 160/19/203 142/2/184 144/4/186
f 203/14/205 208/16/206 146/6/188
f 203/14/205 146/6/188 147/7/189
f 149/9/191 205/19/207 151/10/193
f 205/19/207 159/18/201 151/10/193
f 207/17/208 206/18/204 145/5/187
f 206/18/204 144/4/186 145/5/187
f 146/6/188 208/16/206 145/5/187
f 208/16/206 207/17/208 145/5/187
f 156/15/202 203/14/205 147/7/189
f 156/15/202 147/7/189 143/3/185
f 149/9/191 148/8/190 204/15/198
f 149/9/191 204/15/198 205/19/207
