o 005
v 13.557788 5.705567 -5.664796
v 14.592398 5.277018 -5.664796
v 14.677642 5.705567 -5.664796
v 14.349647 4.913711 -5.664796
v 13.986340 4.670957 -5.664796
v 13.557788 4.585711 -5.664796
v 13.129238 4.670957 -5.664796
v 12.765931 4.913711 -5.664796
v 12.523177 5.277018 -5.664796
v 12.437936 5.705567 -5.664796
v 12.523177 6.134118 -5.664796
v 12.765931 6.497426 -5.664796
v 13.129238 6.740180 -5.664796
v 13.557788 6.825422 -5.664796
v 13.986337 6.740180 -5.664796
v 14.349647 6.497426 -5.664796
v 14.592398 6.134118 -5.664796
v 14.677642 5.705567 -9.291985
v 14.592398 5.277018 -9.291985
v 14.677642 5.705567 -5.664909
v 14.592398 5.277018 -5.664909
v 14.349647 4.913711 -9.291985
v 14.349647 4.913711 -5.664909
v 13.986340 4.670957 -9.291985
v 13.986340 4.670957 -5.664909
v 13.557789 4.585711 -9.291985
v 13.557789 4.585711 -5.664909
v 13.129239 4.670957 -9.291985
v 13.129239 4.670957 -5.664909
v 12.765932 4.913711 -9.291985
v 12.765932 4.913711 -5.664909
v 12.523179 5.277018 -9.291985
v 12.523179 5.277018 -5.664909
v 12.437934 5.705567 -9.291985
v 12.437934 5.705567 -5.664909
v 12.523179 6.134118 -9.291985
v 12.523179 6.134118 -5.664910
v 12.765930 6.497426 -9.291985
v 12.765930 6.497426 -5.664910
v 13.129239 6.740179 -9.291985
v 13.129239 6.740180 -5.664910
v 13.557789 6.825422 -9.291985
v 13.557789 6.825422 -5.664910
v 13.986339 6.740179 -9.291985
v 13.986339 6.740180 -5.664910
v 14.349647 6.497426 -9.291985
v 14.349647 6.497426 -5.664910
v 14.592398 6.134118 -9.291985
v 14.592398 6.134118 -5.664910
v -13.557789 5.705567 -5.664796
v -14.677642 5.705567 -5.664796
v -14.592398 5.277018 -5.664796
v -14.349647 4.913711 -5.664796
v -13.986340 4.670957 -5.664796
v -13.557789 4.585711 -5.664796
v -13.129239 4.670957 -5.664796
v -12.765932 4.913711 -5.664796
v -12.523179 5.277018 -5.664796
v -12.437934 5.705567 -5.664796
v -12.523179 6.134118 -5.664796
v -12.765930 6.497426 -5.664796
v -13.129239 6.740180 -5.664796
v -13.557789 6.825422 -5.664796
v -13.986339 6.740180 -5.664796
v -14.349647 6.497426 -5.664796
v -14.592398 6.134118 -5.664796
v -14.677642 5.705567 -9.291985
v -14.677642 5.705567 -5.664909
v -14.592398 5.277018 -9.291985
v -14.592398 5.277018 -5.664909
v -14.349647 4.913711 -9.291985
v -14.349647 4.913711 -5.664909
v -13.986340 4.670957 -9.291985
v -13.986340 4.670957 -5.664909
v -13.557789 4.585711 -9.291985
v -13.557789 4.585711 -5.664909
v -13.129239 4.670957 -9.291985
v -13.129239 4.670957 -5.664909
v -12.765932 4.913711 -9.291985
v -12.765932 4.913711 -5.664909
v -12.523179 5.277018 -9.291985
v -12.523179 5.277018 -5.664909
v -12.437934 5.705567 -9.291985
v -12.437934 5.705567 -5.664909
v -12.523179 6.134118 -9.291985
v -12.523179 6.134118 -5.664910
v -12.765930 6.497426 -9.291985
v -12.765930 6.497426 -5.664910
v -13.129239 6.740179 -9.291985
v -13.129239 6.740180 -5.664910
v -13.557789 6.825422 -9.291985
v -13.557789 6.825422 -5.664910
v -13.986339 6.740179 -9.291985
v -13.986339 6.740180 -5.664910
v -14.349647 6.497426 -9.291985
v -14.349647 6.497426 -5.664910
v -14.592398 6.134118 -9.291985
v -14.592398 6.134118 -5.664910
vt 0.508231 0.991282
vt 0.322319 0.991282
vt 0.164709 0.991282
vt 0.059394 0.991282
vt 0.022411 0.991282
vt 0.694144 0.991282
vt 0.851754 0.991282
vt 0.957068 0.991282
vt 0.994045 0.991282
vt 0.508231 0.021147
vt 0.322319 0.021147
vt 0.164709 0.021147
vt 0.059394 0.021147
vt 0.022411 0.021147
vt 0.694144 0.021147
vt 0.851754 0.021147
vt 0.957068 0.021147
vt 0.994045 0.021147
vn 0.000000 0.000000 -1.000000
vn -0.999969 -0.004120 0.000000
vn -0.925443 0.378826 0.000000
vn -0.999969 0.004120 0.000000
vn -0.922269 0.386486 0.000000
vn -0.710013 0.704154 0.000000
vn -0.704154 0.710013 0.000000
vn -0.386486 0.922269 0.000000
vn -0.378826 0.925443 0.000000
vn -0.004120 0.999969 0.000000
vn 0.004120 0.999969 0.000000
vn 0.378826 0.925443 0.000000
vn 0.386486 0.922269 0.000000
vn 0.704154 0.710013 0.000000
vn 0.710013 0.704154 0.000000
vn 0.922269 0.386486 0.000000
vn 0.925443 0.378826 0.000000
vn 0.999969 0.004120 0.000000
vn 0.999969 -0.004120 0.000000
vn 0.925443 -0.378826 0.000000
vn 0.922269 -0.386486 0.000000
vn 0.710013 -0.704154 0.000000
vn 0.704154 -0.710013 0.000000
vn 0.386486 -0.922269 0.000000
vn 0.378826 -0.925443 0.000000
vn 0.004120 -0.999969 0.000000
vn -0.004120 -0.999969 0.000000
vn -0.378826 -0.925443 0.000000
vn -0.386486 -0.922269 0.000000
vn -0.704154 -0.710013 0.000000
vn -0.710013 -0.704154 0.000000
vn -0.922269 -0.386486 0.000000
vn -0.925443 -0.378826 0.000000
s 1
f 1/1/1 3/1/1 2/2/1
f 1/1/1 2/2/1 4/3/1
f 1/1/1 4/3/1 5/4/1
f 1/1/1 5/4/1 6/5/1
f 1/1/1 6/5/1 7/4/1
f 1/1/1 7/4/1 8/3/1
f 1/1/1 8/3/1 9/2/1
f 1/1/1 9/2/1 10/1/1
f 1/1/1 10/1/1 11/6/1
f 1/1/1 11/6/1 12/7/1
f 1/1/1 12/7/1 13/8/1
f 1/1/1 13/8/1 14/9/1
f 1/1/1 14/9/1 15/8/1
f 1/1/1 15/8/1 16/7/1
f 17/6/1 1/1/1 16/7/1
f 1/1/1 17/6/1 3/1/1
f 18/10/2 19/11/3 20/1/4
f 21/2/5 20/1/4 19/11/3
f 19/11/3 22/12/6 21/2/5
f 23/3/7 21/2/5 22/12/6
f 22/12/6 24/13/8 23/3/7
f 25/4/9 23/3/7 24/13/8
f 24/13/8 26/14/10 25/4/9
f 27/5/11 25/4/9 26/14/10
f 26/14/10 28/13/12 27/5/11
f 29/4/13 27/5/11 28/13/12
f 28/13/12 30/12/14 29/4/13
f 31/3/15 29/4/13 30/12/14
f 30/12/14 32/11/16 31/3/15
f 33/2/17 31/3/15 32/11/16
f 32/11/16 34/10/18 33/2/17
f 35/1/19 33/2/17 34/10/18
f 34/10/18 36/15/20 35/1/19
f 37/6/21 35/1/19 36/15/20
f 36/15/20 38/16/22 37/6/21
f 39/7/23 37/6/21 38/16/22
f 38/16/22 40/17/24 39/7/23
f 41/8/25 39/7/23 40/17/24
f 40/17/24 42/18/26 41/8/25
f 43/9/27 41/8/25 42/18/26
f 42/18/26 44/17/28 43/9/27
f 45/8/29 43/9/27 44/17/28
f 44/17/28 46/16/30 45/8/29
f 47/7/31 45/8/29 46/16/30
f 46/16/30 48/15/32 47/7/31
f 49/6/33 47/7/31 48/15/32
f 48/15/32 18/10/2 49/6/33
f 20/1/4 49/6/33 18/10/2
f 50/1/1 52/2/1 51/1/1
f 50/1/1 53/3/1 52/2/1
f 50/1/1 54/4/1 53/3/1
f 50/1/1 55/5/1 54/4/1
f 50/1/1 56/4/1 55/5/1
f 50/1/1 57/3/1 56/4/1
f 50/1/1 58/2/1 57/3/1
f 50/1/1 59/1/1 58/2/1
f 50/1/1 60/6/1 59/1/1
f 50/1/1 61/7/1 60/6/1
f 50/1/1 62/8/1 61/7/1
f 50/1/1 63/9/1 62/8/1
f 50/1/1 64/8/1 63/9/1
f 65/7/1 64/8/1 50/1/1
f 50/1/1 66/6/1 65/7/1
f 50/1/1 51/1/1 66/6/1
f 67/10/19 68/1/18 69/11/17
f 70/2/16 69/11/17 68/1/18
f 69/11/17 70/2/16 71/12/15
f 72/3/14 71/12/15 70/2/16
f 71/12/15 72/3/14 73/13/13
f 74/4/12 73/13/13 72/3/14
f 73/13/13 74/4/12 75/14/11
f 76/5/10 75/14/11 74/4/12
f 75/14/11 76/5/10 77/13/9
f 78/4/8 77/13/9 76/5/10
f 77/13/9 78/4/8 79/12/7
f 80/3/6 79/12/7 78/4/8
f 79/12/7 80/3/6 81/11/5
f 82/2/3 81/11/5 80/3/6
f 81/11/5 82/2/3 83/10/4
f 84/1/2 83/10/4 82/2/3
f 83/10/4 84/1/2 85/15/33
f 86/6/32 85/15/33 84/1/2
f 85/15/33 86/6/32 87/16/31
f 88/7/30 87/16/31 86/6/32
f 87/16/31 88/7/30 89/17/29
f 90/8/28 89/17/29 88/7/30
f 89/17/29 90/8/28 91/18/27
f 92/9/26 91/18/27 90/8/28
f 91/18/27 92/9/26 93/17/25
f 94/8/24 93/17/25 92/9/26
f 93/17/25 94/8/24 95/16/23
f 96/7/22 95/16/23 94/8/24
f 95/16/23 96/7/22 97/15/21
f 98/6/20 97/15/21 96/7/22
f 97/15/21 98/6/20 67/10/19
f 68/1/18 67/10/19 98/6/20
