o win6
v 22.592297 50.999516 10.832858
v 24.271584 49.998516 6.217146
v 24.271584 50.999516 6.217146
v 24.764099 49.998516 3.808177
v 24.764099 50.999516 3.808177
v 25.031187 50.999516 -1.096227
v 24.803207 50.999516 -3.544412
v 24.336367 50.999516 -5.958491
v 18.653948 49.998516 -16.726997
v 15.032213 49.998516 -20.044819
v 12.995099 50.999516 -21.421721
v 10.832846 50.999516 -22.592299
v 8.566235 49.998516 -23.545326
v 8.566235 50.999516 -23.545326
v 6.217143 49.998516 -24.271587
v 3.808173 50.999516 -24.764097
v 6.217143 50.999516 -24.271587
v 1.362540 49.998512 -25.018106
v -1.096225 49.998516 -25.031202
v -3.544423 49.998516 -24.803223
v -1.096225 50.999516 -25.031202
v -3.544423 50.999516 -24.803223
v -12.766402 49.998516 -21.558786
v -14.818061 49.998516 -20.203655
v -20.044834 49.998516 -15.032207
v -21.421713 49.998516 -12.995106
v -20.044834 50.999516 -15.032207
v -22.592297 50.999516 -10.832850
v -22.592297 49.998516 -10.832850
v -23.545322 50.999516 -8.566234
v -24.271589 49.998516 -6.217144
v -24.764103 49.998516 -3.808181
v -25.018103 49.998516 -1.362553
v -25.018103 50.999516 -1.362553
v -22.706320 49.998516 10.591751
v -22.706320 50.999516 10.591751
v -12.995151 50.999516 21.421677
v -10.832919 49.998516 22.592253
v -8.566327 49.998516 23.545284
v -8.566327 50.999516 23.545284
v -6.217223 50.999516 24.271557
v -3.808263 49.998516 24.764071
v -1.362625 50.999516 25.018097
v 1.096214 50.999516 25.031185
v 1.096214 49.998516 25.031185
v 5.958477 49.998516 24.336369
v 5.958477 50.999516 24.336369
v 8.315164 50.999516 23.635143
v 8.315164 49.998516 23.635143
v 10.591772 50.999516 22.706305
v 10.591772 49.998516 22.706305
v 20.044807 49.998516 15.032218
v 20.044807 50.999516 15.032218
v 21.421709 49.998516 12.995104
v 21.421709 50.999516 12.995104
v 22.592297 49.998516 10.832858
v 23.545319 49.998516 8.566240
v 23.545319 50.999516 8.566240
v 25.018120 49.998516 1.362533
v 25.018120 50.999516 1.362533
v 25.031187 49.998516 -1.096226
v 24.803207 49.998516 -3.544411
v 24.336367 49.998516 -5.958491
v 18.653948 50.999516 -16.726997
v 16.924597 49.998516 -18.474861
v 16.924597 50.999516 -18.474861
v 15.032213 50.999516 -20.044819
v 12.995099 49.998516 -21.421721
v 10.832846 49.998516 -22.592299
v 3.808173 49.998512 -24.764097
v 1.362540 50.999516 -25.018106
v -10.591796 49.998516 -22.706301
v -10.591796 50.999516 -22.706301
v -12.766402 50.999516 -21.558786
v -14.818061 50.999516 -20.203655
v -18.474892 49.998516 -16.924559
v -18.474892 50.999516 -16.924559
v -21.421713 50.999516 -12.995106
v -23.545322 49.998516 -8.566234
v -24.271589 50.999516 -6.217144
v -24.764103 50.999516 -3.808181
v -25.031189 49.998516 1.096185
v -25.031189 50.999516 1.096185
v -24.336372 49.998516 5.958460
v -24.336372 50.999516 5.958459
v -23.635159 50.999516 8.315149
v -23.635159 49.998516 8.315149
v -12.995151 49.998516 21.421677
v -10.832919 50.999516 22.592253
v -6.217223 49.998516 24.271557
v -3.808263 50.999516 24.764071
v -1.362625 49.998516 25.018097
v -8.566327 49.998516 23.545284
v -8.566327 50.999516 23.545284
v -1.362625 50.999516 25.018097
v -1.362625 49.998516 25.018097
v -10.832919 49.998516 22.592253
v -10.832919 50.999516 22.592253
v -23.635159 50.999516 8.315149
v -23.635159 49.998516 8.315149
v -25.018103 49.998516 -1.362553
v -25.018103 50.999516 -1.362553
v -23.545322 50.999516 -8.566234
v -23.545322 49.998516 -8.566234
v -22.592297 50.999516 -10.832850
v -22.592297 49.998516 -10.832850
v -21.421713 49.998516 -12.995106
v -21.421713 50.999516 -12.995106
v -20.044834 49.998516 -15.032207
v -20.044834 50.999516 -15.032207
v -12.766402 49.998516 -21.558786
v -12.766402 50.999516 -21.558786
v -1.096225 49.998516 -25.031202
v -1.096225 50.999516 -25.031202
v 10.832846 50.999516 -22.592299
v 10.832846 49.998516 -22.592299
v 12.995099 50.999516 -21.421721
v 12.995099 49.998516 -21.421721
v 15.032213 49.998516 -20.044819
v 15.032213 50.999516 -20.044819
v 16.924597 49.998516 -18.474861
v 16.924597 50.999516 -18.474861
v 24.803207 50.999516 -3.544412
v 24.803207 49.998516 -3.544411
v 24.764099 49.998516 3.808177
v 24.764099 50.999516 3.808177
v 24.271584 49.998516 6.217146
v 24.271584 50.999516 6.217146
v 21.421709 49.998516 12.995104
v 21.421709 50.999516 12.995104
v 8.315164 50.999516 23.635143
v 8.315164 49.998516 23.635143
vt 0.000000 0.275000
vt 1.000000 0.275000
vt 1.000000 0.525000
vt 0.000000 0.525000
vn -0.005323 0.000000 0.999986
vn -0.103313 0.000000 0.994649
vn -0.295375 0.000000 0.955381
vn -0.387600 0.000000 0.921828
vn -0.476084 0.000000 0.879400
vn -0.925903 0.000000 0.377762
vn -0.958472 0.000000 0.285186
vn -0.999986 0.000000 -0.005322
vn -0.994650 0.000000 -0.103303
vn -0.955381 0.000000 -0.295375
vn -0.921830 0.000000 -0.387594
vn -0.879401 0.000000 -0.476083
vn -0.828502 0.000000 -0.559986
vn -0.769623 0.000000 -0.638498
vn -0.551136 0.000000 -0.834416
vn -0.466697 0.000000 -0.884417
vn -0.092720 0.000000 -0.995692
vn 0.005326 0.000000 -0.999986
vn 0.200305 0.000000 -0.979734
vn 0.387596 0.000000 -0.921829
vn 0.476081 0.000000 -0.879401
vn 0.559990 0.000000 -0.828500
vn 0.638496 0.000000 -0.769625
vn 0.710861 0.000000 -0.703332
vn 0.981810 -0.000000 -0.189865
vn 0.995692 -0.000000 -0.092721
vn 0.994649 0.000000 0.103311
vn 0.979733 0.000000 0.200307
vn 0.955382 0.000000 0.295374
vn 0.879399 0.000000 0.476085
vn 0.828500 0.000000 0.559990
vn 0.377761 0.000000 0.925903
vn 0.285190 0.000000 0.958471
s 1
f 44/1/1 43/2/1 92/3/1 45/4/1
f 95/1/2 91/2/2 42/3/2 96/4/2
f 41/1/3 40/2/3 39/3/3 90/4/3
f 94/1/4 89/2/4 38/3/4 93/4/4
f 98/1/5 37/2/5 88/3/5 97/4/5
f 36/1/6 86/2/6 87/3/6 35/4/6
f 99/1/7 85/2/7 84/3/7 100/4/7
f 83/1/8 34/2/8 33/3/8 82/4/8
f 102/1/9 81/2/9 32/3/9 101/4/9
f 80/1/10 30/2/10 79/3/10 31/4/10
f 103/1/11 28/2/11 29/3/11 104/4/11
f 105/1/12 78/2/12 26/3/12 106/4/12
f 108/1/13 27/2/13 25/3/13 107/4/13
f 110/1/14 77/2/14 76/3/14 109/4/14
f 75/1/15 74/2/15 23/3/15 24/4/15
f 112/1/16 73/2/16 72/3/16 111/4/16
f 22/1/17 21/2/17 19/3/17 20/4/17
f 114/1/18 71/2/18 18/3/18 113/4/18
f 16/1/19 17/2/19 15/3/19 70/4/19
f 14/1/20 12/2/20 69/3/20 13/4/20
f 115/1/21 11/2/21 68/3/21 116/4/21
f 117/1/22 67/2/22 10/3/22 118/4/22
f 120/1/23 66/2/23 65/3/23 119/4/23
f 122/1/24 64/2/24 9/3/24 121/4/24
f 8/1/25 7/2/25 62/3/25 63/4/25
f 123/1/26 6/2/26 61/3/26 124/4/26
f 60/1/27 5/2/27 4/3/27 59/4/27
f 126/1/28 3/2/28 2/3/28 125/4/28
f 128/1/29 58/2/29 57/3/29 127/4/29
f 1/1/30 55/2/30 54/3/30 56/4/30
f 130/1/31 53/2/31 52/3/31 129/4/31
f 50/1/32 48/2/32 49/3/32 51/4/32
f 131/1/33 47/2/33 46/3/33 132/4/33
