o wins
v 7.578713 9.535000 2.848094
v 8.831713 9.187000 0.765095
v 10.246712 9.778000 1.905095
v 15.020713 6.482000 3.491095
v 14.412713 7.179000 1.950095
v 15.109714 4.337000 5.350095
v 11.931713 5.636001 8.622095
v 9.848713 6.936000 8.600095
v 7.335712 9.187000 5.266094
v 9.760713 9.082001 6.741094
v 9.330712 10.033000 3.429095
v 11.841712 9.423000 3.594095
v 11.656713 9.082001 1.034095
v 13.181713 8.130000 1.050095
v 13.366713 8.471001 3.611095
v 13.589712 8.216001 4.175095
v 14.842713 6.227000 5.261095
v 13.523712 8.123000 4.823095
v 13.925713 6.482000 6.786095
v 12.516712 7.179000 7.657094
v 12.672713 8.471001 5.700094
v 13.188713 8.216001 5.381094
v 10.991713 8.130000 7.640094
v 12.114712 8.820001 5.694095
v 9.152713 9.778000 5.200095
v 11.441712 9.423000 4.800095
v 11.506713 9.516001 4.153095
v 12.357713 9.168000 3.276095
v 12.915712 8.820001 3.282095
v 12.571712 8.910000 4.506094
v 11.663713 9.168000 5.365095
v 10.756712 8.236000 -0.424905
v 8.166713 8.236000 7.371094
v 12.839713 6.936000 -0.402905
v 14.521712 5.636000 0.826095
v 13.856712 4.685000 7.433095
v 15.352713 4.685000 2.931095
v 4.519712 15.716000 3.726094
v 4.103713 20.608999 1.720094
v 5.637712 15.716000 0.364094
v -7.353287 9.187000 5.345094
v -8.205287 8.236000 7.442094
v -11.032287 8.130000 7.683095
v -9.899287 6.936000 8.653094
v -12.557287 7.179000 7.684094
v -15.127287 4.337000 5.351095
v -15.020287 6.482000 3.493095
v -14.860288 6.227000 5.265095
v -14.494287 5.636000 0.833095
v -14.397287 7.179000 1.958095
v -12.800287 6.936000 -0.377905
v -11.631288 9.082001 1.070095
v -10.231287 9.778000 1.955095
v -8.803288 9.187000 0.829095
v -9.329288 10.033000 3.488095
v -11.512288 9.516001 4.190094
v -9.169288 9.778000 5.260095
v -11.454288 9.423000 4.838095
v -9.792287 9.082001 6.796094
v -11.682287 9.168000 5.400095
v -12.136288 8.820001 5.725094
v -13.958287 6.482000 6.799094
v -13.207288 8.216001 5.401095
v -13.537288 8.123000 4.840095
v -13.595287 8.216001 4.191095
v -13.367287 8.471001 3.629095
v -13.156287 8.130000 1.071095
v -12.913288 8.820001 3.305095
v -12.694287 8.471001 5.725094
v -12.355287 9.168000 3.304095
v -12.581287 8.910000 4.533094
v -11.842288 9.423000 3.628095
v -7.572287 9.535000 2.924095
v -10.717287 8.236000 -0.379905
v -11.982287 5.636001 8.655095
v -13.896288 4.685000 7.446095
v -15.346288 4.685000 2.930095
v -4.538288 15.716000 3.782094
v -5.622287 15.716000 0.409094
v -4.102288 20.608999 1.782094
v 5.721713 10.032999 -7.557906
v 4.151713 9.082000 -10.505905
v 4.549713 9.778000 -8.896906
v 3.145713 6.935999 -12.070906
v 5.866713 7.178999 -12.849906
v 7.088713 4.684999 -13.443905
v 7.519712 6.481999 -12.957906
v 11.460712 5.636000 -8.446905
v 10.802712 6.936000 -6.469906
v 10.238713 8.130000 -7.851906
v 9.118712 8.236000 -5.244906
v 6.859713 9.186999 -5.097906
v 7.352713 9.778000 -6.846906
v 4.631712 9.535000 -6.068905
v 4.633712 8.130000 -11.951906
v 6.676713 8.820000 -11.016906
v 9.150713 6.226999 -12.246906
v 7.733713 8.216000 -11.384906
v 8.759712 8.216000 -10.634906
v 10.322713 6.481999 -10.906905
v 10.720712 7.178999 -9.298905
v 8.904713 8.471000 -10.045905
v 8.728713 8.820000 -9.516906
v 9.005713 9.082000 -6.954906
v 8.277713 9.168000 -9.187905
v 7.671713 9.422999 -9.148906
v 7.075713 9.516000 -9.408905
v 6.500713 9.168000 -10.487906
v 6.646712 9.422999 -9.898906
v 7.128713 8.471000 -11.345905
v 7.737712 8.909999 -10.314906
v 8.330712 8.123000 -11.124906
v 3.031713 9.186999 -7.897905
v 2.487713 8.235999 -10.094905
v 4.830713 5.636000 -13.296906
v 9.316712 4.336999 -12.472905
v 10.916713 4.684999 -10.643906
v 2.495713 20.608999 -3.104906
v 1.672713 15.716000 -4.979905
v 4.531713 15.716000 -2.887906
v -10.928288 6.936000 -6.410905
v -11.580287 5.636000 -8.388906
v -11.029287 4.684999 -10.583905
v -10.837288 7.178999 -9.238906
v -10.434288 6.481999 -10.845906
v -9.423287 4.336999 -12.408905
v -7.625287 6.481999 -12.886906
v -4.934288 5.636000 -13.217906
v -3.254287 6.935999 -11.986906
v -2.602288 8.235999 -10.008905
v -4.742287 8.130000 -11.872906
v -4.668287 9.778000 -8.817905
v -3.153287 9.186999 -7.813905
v -5.843287 10.032999 -7.481905
v -7.477288 9.778000 -6.776906
v -9.130287 9.082000 -6.888906
v -8.394287 9.168000 -9.119905
v -10.360288 8.130000 -7.790905
v -8.845287 8.820000 -9.449905
v -9.019287 8.471000 -9.979905
v -8.441287 8.123000 -11.056905
v -9.258287 6.226999 -12.180905
v -8.872287 8.216000 -10.568905
v -7.238287 8.471000 -11.273906
v -5.972288 7.178999 -12.773905
v -4.265287 9.082000 -10.424905
v -6.788287 8.820000 -10.943906
v -6.761287 9.422999 -9.825906
v -7.191287 9.516000 -9.336905
v -7.789288 9.422999 -9.078905
v -7.844288 8.216000 -11.315906
v -7.851288 8.909999 -10.244905
v -6.614287 9.168000 -10.413906
v -4.759287 9.535000 -5.988906
v -6.990287 9.186999 -5.024906
v -9.248287 8.236000 -5.178905
v -7.192287 4.684999 -13.372906
v -1.761287 15.716000 -4.921906
v -2.590287 20.608999 -3.048906
v -4.626287 15.716000 -2.838906
v 2.442713 9.187000 8.912094
v 2.442713 4.685000 15.784094
v 0.070713 4.337001 16.315096
v -1.665287 6.482000 15.645095
v -4.036287 5.636001 14.331095
v -3.401288 8.130001 13.130095
v -2.300287 9.187000 8.912094
v -1.665287 9.778001 10.615094
v 0.070713 9.535000 8.380095
v 0.070713 10.033000 10.226094
v 1.806713 9.778001 10.615094
v 0.070713 9.516001 12.519094
v 0.706713 9.423000 12.661095
v 1.171713 9.168001 13.050095
v 3.077713 9.082001 11.678095
v 1.341712 8.820001 13.582094
v 3.543713 8.130001 13.130095
v 3.077713 7.179000 14.582095
v 1.806713 6.482000 15.645095
v 1.171713 8.471001 14.113094
v 0.706713 8.216001 14.502094
v 0.070713 6.227000 16.034096
v 0.070713 8.123001 14.645095
v -0.564287 8.216001 14.502094
v -2.936287 7.179000 14.582095
v -1.029287 9.168001 13.050095
v -2.936287 9.082001 11.678095
v -0.564287 9.423000 12.661095
v 0.070713 8.910001 13.641095
v -1.029287 8.471001 14.113094
v -1.200287 8.820001 13.582094
v 4.813713 6.936000 12.348095
v -4.036287 8.236000 10.364095
v 4.178713 8.236000 10.364095
v -4.672287 6.936000 12.348095
v 4.178713 5.636001 14.331095
v -2.300287 4.685000 15.784094
v 1.815713 15.716000 5.754094
v -1.726287 15.716000 5.754094
v 0.044713 20.608999 4.727094
vt -0.022228 1.588894
vt -0.180363 1.518407
vt 0.256900 1.487550
vt 0.137820 1.577561
vt -0.294197 1.384964
vt 0.303114 1.342920
vt -0.333252 1.224467
vt 0.264058 1.182423
vt -0.287038 1.079836
vt 0.150224 1.048980
vt -0.167959 0.989753
vt -0.007910 0.978492
vt 0.990018 1.594086
vt 0.829969 1.583337
vt 0.710535 1.493692
vt 1.147940 1.523087
vt 0.663896 1.349208
vt 1.261349 1.389351
vt 0.702455 1.188565
vt 1.299908 1.228707
vt 0.815864 1.054829
vt 1.253268 1.084150
vt 0.973786 0.983830
vt 1.133905 0.994578
vt 1.250008 0.642142
vt 1.113563 0.555130
vt 1.516873 0.550670
vt 1.397652 0.640534
vt 1.024749 0.402822
vt 1.575775 0.396753
vt 1.007525 0.226019
vt 1.558551 0.219877
vt 1.066427 0.072103
vt 1.469738 0.067569
vt 1.185648 -0.017761
vt 1.333292 -0.019370
vt 0.492577 -0.001675
vt 0.324519 -0.040575
vt 0.201471 -0.146744
vt 0.660706 -0.040575
vt 0.156391 -0.291813
vt 0.783755 -0.146744
vt 0.201471 -0.436809
vt 0.828764 -0.291813
vt 0.324519 -0.543052
vt 0.783755 -0.436809
vt 0.492577 -0.581879
vt 0.660706 -0.543052
vt -0.272083 0.638852
vt -0.419727 0.638706
vt -0.539799 0.550158
vt -0.136417 0.550451
vt -0.600189 0.396827
vt -0.049163 0.397265
vt -0.584666 0.219804
vt -0.033640 0.220243
vt -0.497412 0.066619
vt -0.094031 0.066911
vt -0.361747 -0.021783
vt -0.214102 -0.021637
vt 1.378656 0.281590
vt 1.403039 0.371088
vt 1.363488 0.371527
vt 1.303168 0.307401
vt 1.298561 0.260093
vt 0.887170 0.584451
vt 0.778439 0.485301
vt 0.807925 0.338623
vt 0.165889 0.334529
vt 0.196793 0.480768
vt 0.089054 0.581161
vt 1.036019 1.365295
vt 1.108459 1.388693
vt 1.078051 1.424521
vt 0.989096 1.299048
vt 1.031341 1.280037
vt 0.606128 0.975202
vt 0.664463 0.838103
vt 0.808776 0.822236
vt 0.159651 0.818653
vt 0.303964 0.834008
vt 0.362724 0.970961
vt 0.492577 -0.386357
vt 0.492577 -0.459769
vt 0.537657 -0.449313
vt 0.402488 -0.382043
vt 0.414609 -0.420869
vt 0.616264 0.190337
vt 0.490735 0.265431
vt 0.365205 0.190337
vt 1.539626 0.226385
vt 1.446134 0.258411
vt 1.422389 0.217610
vt 1.474628 0.114877
vt 1.213292 1.185201
vt 1.125896 1.119613
vt 1.020567 1.558550
vt 1.035736 1.443532
vt 1.136173 1.506562
vt -0.280588 1.286618
vt -0.252023 1.404121
vt -0.141308 1.383867
vt -0.110758 1.419549
vt -0.168668 1.501736
vt 0.151429 1.479215
vt 0.006407 1.411287
vt 0.018741 1.372533
vt 0.185239 1.373338
vt 0.492577 -0.136654
vt 0.492577 -0.304317
vt 0.537657 -0.314700
vt 0.615626 -0.165097
vt 0.447568 -0.314700
vt 0.414609 -0.343143
vt 0.447568 -0.449313
vt 0.582667 -0.382043
vt 0.570617 -0.420869
vt 0.570617 -0.343143
vt 0.369529 -0.165097
vt 0.279439 -0.242823
vt 0.246480 -0.348993
vt 0.279439 -0.455162
vt 0.369529 -0.532888
vt 0.492577 -0.561332
vt 0.615626 -0.532889
vt 0.705715 -0.455162
vt 0.738746 -0.348993
vt 0.705715 -0.242823
vt -0.064544 1.274919
vt -0.022157 1.293784
vt 0.008321 1.329539
vt -0.068939 1.360176
vt -0.068442 1.438487
vt -0.025489 1.435416
vt -0.139394 1.302046
vt -0.151727 1.340800
vt -0.107427 1.277917
vt 0.156674 1.255835
vt 0.073390 1.158147
vt 0.064246 1.545096
vt -0.052920 1.553358
vt -0.246778 1.180741
vt -0.159595 1.114787
vt -0.042429 1.106598
vt 1.106262 1.306945
vt 1.074295 1.282889
vt 1.118737 1.345625
vt 0.992853 1.440681
vt 0.948340 1.377944
vt 0.960815 1.416624
vt 0.958688 1.334877
vt 1.008730 1.111716
vt 0.893124 1.163704
vt 1.247456 1.291005
vt 1.219246 1.408581
vt 0.903402 1.550653
vt 0.816006 1.484991
vt 0.781841 1.379260
vt 0.810052 1.261611
vt -0.324322 0.257314
vt -0.328433 0.304696
vt -0.351823 0.345789
vt -0.404204 0.279616
vt -0.427736 0.369407
vt -0.388185 0.369480
vt -0.476077 0.304623
vt -0.459916 0.345716
vt -0.448575 0.216148
vt -0.471966 0.257168
vt -0.372662 0.192457
vt -0.412214 0.192457
vt -0.340482 0.216221
vt -0.237635 0.468118
vt -0.173700 0.356026
vt -0.336867 0.532829
vt -0.444960 0.532756
vt -0.532923 0.467899
vt -0.577082 0.355660
vt -0.565741 0.226092
vt -0.501807 0.113927
vt -0.402503 0.049216
vt -0.294410 0.049289
vt -0.206518 0.114146
vt -0.162359 0.226458
vt 1.346264 0.194724
vt 1.314296 0.218780
vt 1.385815 0.194285
vt 1.450813 0.305792
vt 1.435006 0.347032
vt 1.326913 0.348275
vt 1.136315 0.230845
vt 1.148932 0.360340
vt 1.179411 0.118168
vt 1.266665 0.052433
vt 1.374757 0.051190
vt 1.552243 0.355806
vt 1.509147 0.468483
vt 1.421893 0.534291
vt 1.313800 0.535461
vt 1.213859 0.471774
vn -0.321975 0.836402 -0.443582
vn -0.322168 0.836477 -0.443298
vn -0.322224 0.836461 -0.443289
vn -0.322060 0.836453 -0.443423
vn 0.323470 0.836452 -0.442397
vn 0.323524 0.836445 -0.442371
vn 0.323600 0.836498 -0.442216
vn 0.323572 0.836475 -0.442280
vn 0.323413 0.836326 -0.442677
vn 0.520135 0.836396 0.172920
vn 0.520066 0.836455 0.172839
vn 0.520031 0.836523 0.172618
vn 0.520048 0.836467 0.172839
vn 0.520112 0.836396 0.172989
vn 0.000000 0.836628 0.547772
vn 0.000000 0.836480 0.547997
vn 0.000000 0.836371 0.548164
vn -0.521768 0.836371 0.168050
vn -0.521768 0.836482 0.167498
vn -0.521747 0.836508 0.167438
vn -0.521768 0.836482 0.167497
vn -0.521768 0.836371 0.168051
vn 0.518876 0.837550 0.170934
vn 0.583758 0.810022 -0.055452
vn 0.471816 0.879849 -0.056856
vn 0.318705 0.942442 0.100772
vn 0.305734 0.923765 0.230476
vn 0.928617 0.205542 0.308786
vn -0.931730 0.205390 0.299417
vn 0.324412 0.836329 -0.441877
vn 0.513504 0.701346 -0.494308
vn 0.427503 0.682821 -0.592425
vn 0.193518 0.942442 -0.272561
vn 0.312967 0.923795 -0.220496
vn 0.577899 0.205420 -0.789788
vn -0.575488 0.205481 -0.791559
vn -0.001282 0.835078 0.550066
vn -0.004669 0.682943 0.730430
vn 0.122776 0.701193 0.702292
vn -0.236427 0.815149 0.528764
vn -0.202918 0.745079 0.635304
vn 0.000000 0.205390 0.978668
vn 0.888424 0.351390 0.295236
vn 0.703513 0.671072 0.233833
vn 0.628559 0.704093 0.330393
vn 0.732536 0.394696 0.554582
vn 0.671377 0.733665 -0.104556
vn 0.737846 0.674886 -0.008301
vn 0.527970 0.836848 0.144414
vn 0.500839 0.865291 0.019623
vn 0.275277 0.394513 -0.876675
vn 0.319193 0.689657 -0.649953
vn 0.552721 0.351268 -0.755669
vn -0.735710 0.603351 -0.307596
vn -0.819025 0.512955 -0.256905
vn -0.750298 0.394757 -0.530259
vn -0.680135 0.507462 -0.529008
vn -0.505203 0.704123 -0.498947
vn -0.435743 0.671102 -0.599719
vn -0.550432 0.351207 -0.757378
vn 0.217750 0.674886 -0.705039
vn -0.126774 0.813807 -0.567125
vn -0.073122 0.878506 -0.472091
vn 0.298959 0.836818 -0.458602
vn 0.000000 0.998627 -0.051851
vn 0.000000 0.947630 0.319346
vn 0.115360 0.923460 0.365856
vn 0.295175 0.955321 0.014313
vn -0.115329 0.923460 0.365886
vn -0.218329 0.878567 0.424726
vn -0.126255 0.689627 0.713034
vn 0.230628 0.813776 0.533403
vn 0.218299 0.740043 0.636128
vn 0.218360 0.878567 0.424726
vn -0.295267 0.955290 0.014283
vn -0.511490 0.836818 0.195105
vn -0.590594 0.674886 0.442335
vn -0.511429 0.513047 0.689322
vn -0.295389 0.394635 0.870022
vn 0.000000 0.351512 0.936155
vn 0.295297 0.394696 0.870052
vn 0.511429 0.513108 0.689291
vn 0.590594 0.674886 0.442335
vn 0.511460 0.836818 0.195166
vn -0.240120 0.961638 0.132511
vn 0.000000 0.996887 0.078707
vn -0.415937 0.865291 0.279672
vn -0.478469 0.734428 0.481307
vn -0.414319 0.603381 0.681326
vn -0.240120 0.505844 0.828486
vn 0.000000 0.470717 0.882260
vn 0.240089 0.505905 0.828486
vn 0.415845 0.602191 0.681448
vn 0.478469 0.734428 0.481307
vn 0.414319 0.865596 0.281137
vn 0.240028 0.961638 0.132725
vn -0.308329 0.923490 -0.228156
vn -0.187658 0.947630 -0.258278
vn -0.121799 0.923429 -0.363842
vn -0.322214 0.836390 -0.443403
vn -0.318430 0.704184 -0.634571
vn -0.196997 0.740226 -0.642811
vn -0.500168 0.813807 -0.295785
vn -0.550493 0.740196 -0.386059
vn -0.426283 0.878567 -0.215247
vn 0.230384 0.955321 -0.185125
vn 0.030580 0.998627 0.042024
vn 0.008667 0.513138 -0.858241
vn -0.272530 0.394848 -0.877377
vn -0.737785 0.674917 -0.010712
vn -0.528489 0.836818 0.142766
vn -0.247200 0.955321 0.161840
vn 0.114322 0.961577 -0.249489
vn -0.047578 0.996704 -0.065554
vn 0.169897 0.865596 -0.470962
vn 0.105960 0.733573 -0.671255
vn -0.063997 0.601978 -0.795923
vn -0.292642 0.505722 -0.811518
vn -0.518693 0.470565 -0.713767
vn -0.669942 0.734458 -0.108127
vn -0.500961 0.865261 0.018159
vn -0.272195 0.961638 0.033692
vn 0.501083 0.813807 -0.294259
vn 0.426984 0.878567 -0.213874
vn 0.551775 0.740135 -0.384320
vn 0.210425 0.750542 -0.626392
vn 0.096500 0.877071 -0.470504
vn 0.109592 0.809320 -0.576983
vn 0.103549 0.929136 -0.354869
vn 0.246681 0.955290 0.162847
vn -0.030610 0.998627 0.041902
vn 0.819788 0.513016 -0.254311
vn 0.752068 0.394635 -0.527818
vn -0.005890 0.513138 -0.858272
vn -0.215674 0.674825 -0.705710
vn -0.297494 0.836818 -0.459548
vn -0.229865 0.955321 -0.185736
vn 0.272073 0.961638 0.034547
vn 0.046602 0.996857 -0.063753
vn 0.736686 0.603381 -0.305246
vn 0.681814 0.507462 -0.526841
vn 0.520371 0.472243 -0.711447
vn 0.295267 0.505539 -0.810663
vn 0.066500 0.601917 -0.795740
vn -0.101993 0.734458 -0.670919
vn -0.168462 0.865596 -0.471511
vn -0.113498 0.961608 -0.249794
vn -0.313120 0.923460 0.221625
vn -0.303964 0.947661 0.097537
vn -0.383587 0.923490 0.001953
vn -0.521836 0.836390 0.167547
vn -0.578295 0.813837 -0.056520
vn -0.471206 0.878536 -0.078066
vn -0.702292 0.704154 0.104312
vn -0.672323 0.740104 -0.013398
vn -0.631703 0.704215 0.324046
vn -0.705802 0.671163 0.226539
vn -0.437269 0.813776 0.382763
vn -0.538743 0.740104 0.402417
vn -0.337626 0.878567 0.337809
vn -0.103916 0.955321 -0.276650
vn 0.049409 0.998627 -0.015900
vn -0.342265 0.836818 -0.427259
vn -0.601672 0.674917 -0.427137
vn -0.812647 0.513169 -0.276131
vn -0.918729 0.394543 -0.015198
vn -0.891354 0.351451 0.286203
vn -0.737999 0.394665 0.547319
vn -0.499771 0.513077 0.697806
vn -0.240486 0.674856 0.697623
vn -0.029389 0.836818 0.546678
vn 0.076632 0.955321 0.285379
vn -0.199896 0.961608 -0.187841
vn -0.077120 0.996704 0.024689
vn -0.393597 0.865322 -0.310251
vn -0.604572 0.733665 -0.310068
vn -0.776055 0.602100 -0.187536
vn -0.861293 0.507462 0.025269
vn -0.839198 0.472365 0.269448
vn -0.715384 0.505814 0.482040
vn -0.521561 0.601886 0.604663
vn -0.310709 0.733451 0.604541
vn -0.139195 0.865230 0.481613
vn -0.055055 0.961608 0.268777
vn 0.433393 0.813807 0.387097
vn 0.334269 0.878506 0.341197
vn 0.534715 0.740104 0.407758
vn 0.701224 0.704154 0.111423
vn 0.672353 0.740165 -0.006745
vn 0.369579 0.929136 -0.010041
vn -0.079470 0.955290 0.284677
vn -0.049196 0.998627 -0.016419
vn 0.024018 0.836818 0.546892
vn 0.233436 0.674886 0.699973
vn 0.492874 0.513138 0.702628
vn 0.918729 0.394787 -0.005890
vn 0.815363 0.513138 -0.267983
vn 0.605976 0.674917 -0.420972
vn 0.346446 0.836879 -0.423750
vn 0.106601 0.955290 -0.275674
vn 0.076876 0.996704 0.025483
vn 0.052370 0.961577 0.269387
vn 0.136143 0.865566 0.481857
vn 0.304727 0.733573 0.607410
vn 0.515610 0.601947 0.609699
vn 0.710044 0.507553 0.488021
vn 0.836360 0.472488 0.277871
vn 0.860897 0.507614 0.033937
vn 0.777215 0.603442 -0.178228
vn 0.607685 0.733573 -0.304178
vn 0.396619 0.865291 -0.306436
vn 0.203162 0.961608 -0.184454
s 1
f 157/1/1 126/2/1 129/3/1 128/4/1
f 126/2/2 123/5/2 130/6/2 129/3/2
f 123/5/3 122/7/3 133/8/3 130/6/3
f 122/7/2 121/9/2 154/10/2 133/8/2
f 121/9/4 156/11/4 155/12/4 154/10/4
f 86/13/5 115/14/5 84/15/5 116/16/5
f 116/16/6 84/15/6 114/17/6 117/18/6
f 117/18/7 114/17/7 113/19/7 88/20/7
f 88/20/8 113/19/8 94/21/8 89/22/8
f 89/22/9 94/21/9 92/23/9 91/24/9
f 32/25/10 2/26/10 35/27/10 34/28/10
f 2/26/11 1/29/11 37/30/11 35/27/11
f 1/29/12 9/31/12 6/32/12 37/30/12
f 9/31/13 33/33/13 36/34/13 6/32/13
f 33/33/14 8/35/14 7/36/14 36/34/14
f 169/37/15 167/38/15 193/39/15 161/40/15
f 161/40/16 193/39/16 195/41/16 194/42/16
f 194/42/17 195/41/17 165/43/17 192/44/17
f 192/44/16 165/43/16 197/45/16 196/46/16
f 196/46/15 197/45/15 163/47/15 162/48/15
f 74/49/18 51/50/18 49/51/18 54/52/18
f 54/52/19 49/51/19 77/53/19 73/54/19
f 73/54/20 77/53/20 46/55/20 41/56/20
f 41/56/21 46/55/21 76/57/21 42/58/21
f 42/58/22 76/57/22 75/59/22 44/60/22
f 30/61/23 29/62/24 28/63/25
f 30/61/23 27/64/26 26/65/27
f 40/66/28 39/67/28 38/68/28
f 78/69/29 80/70/29 79/71/29
f 111/72/30 99/73/31 112/74/32
f 111/72/30 107/75/33 106/76/34
f 119/77/35 118/78/35 120/79/35
f 160/80/36 159/81/36 158/82/36
f 189/83/37 183/84/38 181/85/39
f 189/83/37 191/86/40 190/87/41
f 198/88/42 200/89/42 199/90/42
f 17/91/43 18/92/44 22/93/45 19/94/46
f 89/22/47 90/95/48 104/96/49 91/24/50
f 87/97/51 98/98/52 112/74/32 97/99/53
f 122/7/54 124/100/55 125/101/56 123/5/57
f 125/101/56 143/102/58 141/103/59 142/104/60
f 131/105/61 147/106/62 153/107/63 146/108/64
f 170/109/65 172/110/66 173/111/67 171/112/68
f 173/111/67 172/110/66 188/113/69 189/83/37
f 191/86/40 189/83/37 188/113/69 186/114/70
f 183/84/38 189/83/37 190/87/41 184/115/71
f 176/116/72 189/83/37 181/85/39 180/117/73
f 173/111/67 189/83/37 176/116/72 174/118/74
f 168/119/75 188/113/69 172/110/66 170/109/65
f 187/120/76 186/114/70 188/113/69 168/119/75
f 166/121/77 191/86/40 186/114/70 187/120/76
f 185/122/78 190/87/41 191/86/40 166/121/77
f 164/123/79 184/115/71 190/87/41 185/122/78
f 182/124/80 183/84/38 184/115/71 164/123/79
f 179/125/81 181/85/39 183/84/38 182/124/80
f 178/126/82 180/117/73 181/85/39 179/125/81
f 177/127/83 176/116/72 180/117/73 178/126/82
f 175/128/84 174/118/74 176/116/72 177/127/83
f 171/112/68 173/111/67 174/118/74 175/128/84
f 167/38/85 168/119/75 170/109/65 169/37/86
f 193/39/87 187/120/76 168/119/75 167/38/85
f 195/41/88 166/121/77 187/120/76 193/39/87
f 165/43/89 185/122/78 166/121/77 195/41/88
f 197/45/90 164/123/79 185/122/78 165/43/89
f 163/47/91 182/124/80 164/123/79 197/45/90
f 162/48/92 179/125/81 182/124/80 163/47/91
f 196/46/93 178/126/82 179/125/81 162/48/92
f 192/44/94 177/127/83 178/126/82 196/46/93
f 194/42/95 175/128/84 177/127/83 192/44/94
f 161/40/96 171/112/68 175/128/84 194/42/95
f 169/37/86 170/109/65 171/112/68 161/40/96
f 150/129/97 149/130/98 148/131/99 152/132/100
f 147/106/62 152/132/100 148/131/99 153/107/63
f 151/133/101 152/132/100 147/106/62 144/134/102
f 143/102/58 152/132/100 151/133/101 141/103/59
f 139/135/103 152/132/100 143/102/58 140/136/104
f 150/129/97 152/132/100 139/135/103 137/137/105
f 132/138/106 148/131/99 149/130/98 134/139/107
f 146/108/64 153/107/63 148/131/99 132/138/106
f 145/140/108 144/134/102 147/106/62 131/105/61
f 127/141/109 151/133/101 144/134/102 145/140/108
f 142/104/60 141/103/59 151/133/101 127/141/109
f 124/100/55 140/136/104 143/102/58 125/101/56
f 138/142/110 139/135/103 140/136/104 124/100/55
f 136/143/111 137/137/105 139/135/103 138/142/110
f 135/144/112 150/129/97 137/137/105 136/143/111
f 134/139/107 149/130/98 150/129/97 135/144/112
f 133/8/113 132/138/106 134/139/107 154/10/114
f 130/6/115 146/108/64 132/138/106 133/8/113
f 129/3/116 131/105/61 146/108/64 130/6/115
f 128/4/117 145/140/108 131/105/61 129/3/116
f 157/1/118 127/141/109 145/140/108 128/4/117
f 126/2/119 142/104/60 127/141/109 157/1/118
f 123/5/57 125/101/56 142/104/60 126/2/119
f 121/9/120 138/142/110 124/100/55 122/7/54
f 156/11/121 136/143/111 138/142/110 121/9/120
f 155/12/122 135/144/112 136/143/111 156/11/121
f 154/10/114 134/139/107 135/144/112 155/12/122
f 103/145/123 111/72/30 106/76/34 105/146/124
f 99/73/31 111/72/30 103/145/123 102/147/125
f 110/148/126 111/72/30 112/74/32 98/98/52
f 108/149/127 111/72/30 110/148/126 96/150/128
f 107/75/33 111/72/30 108/149/127 109/151/129
f 93/152/130 106/76/34 107/75/33 81/153/131
f 104/96/49 105/146/124 106/76/34 93/152/130
f 90/95/48 103/145/123 105/146/124 104/96/49
f 101/154/132 102/147/125 103/145/123 90/95/48
f 100/155/133 99/73/31 102/147/125 101/154/132
f 97/99/53 112/74/32 99/73/31 100/155/133
f 85/156/134 110/148/126 98/98/52 87/97/51
f 95/157/135 96/150/128 110/148/126 85/156/134
f 82/158/136 108/149/127 96/150/128 95/157/135
f 83/159/137 109/151/129 108/149/127 82/158/136
f 81/153/131 107/75/33 109/151/129 83/159/137
f 92/23/138 93/152/130 81/153/131 94/21/139
f 91/24/50 104/96/49 93/152/130 92/23/138
f 88/20/140 101/154/132 90/95/48 89/22/47
f 117/18/141 100/155/133 101/154/132 88/20/140
f 116/16/142 97/99/53 100/155/133 117/18/141
f 86/13/143 87/97/51 97/99/53 116/16/142
f 115/14/144 85/156/134 87/97/51 86/13/143
f 84/15/145 95/157/135 85/156/134 115/14/144
f 114/17/146 82/158/136 95/157/135 84/15/145
f 113/19/147 83/159/137 82/158/136 114/17/146
f 94/21/139 81/153/131 83/159/137 113/19/147
f 58/160/148 56/161/149 72/162/150 71/163/151
f 68/164/152 71/163/151 72/162/150 70/165/153
f 65/166/154 71/163/151 68/164/152 66/167/155
f 63/168/156 71/163/151 65/166/154 64/169/157
f 61/170/158 71/163/151 63/168/156 69/171/159
f 58/160/148 71/163/151 61/170/158 60/172/160
f 53/173/161 72/162/150 56/161/149 55/174/162
f 52/175/163 70/165/153 72/162/150 53/173/161
f 67/176/164 68/164/152 70/165/153 52/175/163
f 50/177/165 66/167/155 68/164/152 67/176/164
f 47/178/166 65/166/154 66/167/155 50/177/165
f 48/179/167 64/169/157 65/166/154 47/178/166
f 62/180/168 63/168/156 64/169/157 48/179/167
f 45/181/169 69/171/159 63/168/156 62/180/168
f 43/182/170 61/170/158 69/171/159 45/181/169
f 59/183/171 60/172/160 61/170/158 43/182/170
f 57/184/172 58/160/148 60/172/160 59/183/171
f 55/174/162 56/161/149 58/160/148 57/184/172
f 54/52/173 53/173/161 55/174/162 73/54/174
f 74/49/175 52/175/163 53/173/161 54/52/173
f 51/50/176 67/176/164 52/175/163 74/49/175
f 49/51/177 50/177/165 67/176/164 51/50/176
f 77/53/178 47/178/166 50/177/165 49/51/177
f 46/55/179 48/179/167 47/178/166 77/53/178
f 76/57/180 62/180/168 48/179/167 46/55/179
f 75/59/181 45/181/169 62/180/168 76/57/180
f 44/60/182 43/182/170 45/181/169 75/59/181
f 42/58/183 59/183/171 43/182/170 44/60/182
f 41/56/184 57/184/172 59/183/171 42/58/183
f 73/54/174 55/174/162 57/184/172 41/56/184
f 24/185/185 30/61/23 26/65/27 31/186/186
f 22/93/45 30/61/23 24/185/185 21/187/187
f 16/188/188 30/61/23 22/93/45 18/92/44
f 29/62/24 30/61/23 16/188/188 15/189/189
f 27/64/26 30/61/23 28/63/25 12/190/190
f 25/191/191 26/65/27 27/64/26 11/192/192
f 10/193/193 31/186/186 26/65/27 25/191/191
f 23/194/194 24/185/185 31/186/186 10/193/193
f 20/195/195 21/187/187 24/185/185 23/194/194
f 19/94/46 22/93/45 21/187/187 20/195/195
f 4/196/196 16/188/188 18/92/44 17/91/43
f 5/197/197 15/189/189 16/188/188 4/196/196
f 14/198/198 29/62/24 15/189/189 5/197/197
f 13/199/199 28/63/25 29/62/24 14/198/198
f 3/200/200 12/190/190 28/63/25 13/199/199
f 11/192/192 27/64/26 12/190/190 3/200/200
f 11/192/192 1/29/201 9/31/202 25/191/191
f 33/33/203 10/193/193 25/191/191 9/31/202
f 8/35/204 23/194/194 10/193/193 33/33/203
f 7/36/205 20/195/195 23/194/194 8/35/204
f 36/34/206 19/94/46 20/195/195 7/36/205
f 6/32/207 17/91/43 19/94/46 36/34/206
f 37/30/208 4/196/196 17/91/43 6/32/207
f 35/27/209 5/197/197 4/196/196 37/30/208
f 34/28/210 14/198/198 5/197/197 35/27/209
f 32/25/211 13/199/199 14/198/198 34/28/210
f 2/26/212 3/200/200 13/199/199 32/25/211
f 1/29/201 11/192/192 3/200/200 2/26/212
