o body
v 0.011713 27.258999 0.412094
v 5.637712 15.716000 0.364094
v 4.519712 15.716000 3.726094
v 4.358712 14.802999 4.820094
v 4.103713 20.608999 1.720094
v -3.667288 22.785002 1.642094
v -4.102288 20.608999 1.782094
v -4.538288 15.716000 3.782094
v -5.622287 15.716000 0.409094
v 1.306713 14.804999 -6.323905
v 1.672713 15.716000 -4.979906
v 4.531713 15.716000 -2.887906
v 2.495713 20.608999 -3.104906
v -0.992287 14.802999 -5.716906
v -4.626287 15.716000 -2.838906
v -1.761287 15.716000 -4.921906
v -2.590287 20.608999 -3.048906
v 0.044713 22.785002 4.270093
v 2.905712 14.805000 6.623094
v 1.815713 15.716000 5.754094
v -1.726287 15.716000 5.754094
v 0.044713 20.608999 4.727094
v 6.162713 14.802999 -0.609906
v 5.924712 14.804999 -2.945905
v 8.527713 10.103001 -2.358905
v -19.975288 -0.005000 -6.097905
v -8.527287 10.103001 -2.351905
v -1.390287 14.804999 -6.264906
v -2.816288 14.802999 5.946095
v 2.905712 14.802999 5.946095
v 0.044713 22.792999 4.915094
v -2.816288 14.805000 6.623094
v -2.566288 27.258999 3.960093
v 2.589712 27.258999 3.961093
v 5.254713 10.103001 7.663095
v 12.363712 -0.004999 17.397095
v 19.997713 -0.005000 -6.097905
v 0.011713 -0.005001 -20.618906
v 0.012713 3.658999 -20.618906
v -19.975288 3.659000 -6.097905
v -12.341288 3.659001 17.397095
v 12.363712 3.659001 17.397095
v -12.341288 -0.004999 17.398096
v -0.010287 10.103000 -8.540906
v 0.011713 27.258999 -3.972906
v -4.160287 27.258999 -0.942906
v 4.182713 27.258999 -0.942906
v 19.997713 3.659000 -6.097905
v -2.321287 22.785000 -2.679906
v -5.620288 14.802999 -2.353906
v -6.019288 14.804999 -2.901906
v 2.606713 22.792999 -3.256906
v 5.524713 14.802999 -2.398906
v 0.906713 14.802999 -5.777905
v 2.225713 22.785000 -2.735906
v -4.388288 14.802999 4.878094
v -6.137288 14.802999 -0.568906
v -6.782288 14.804999 -0.361906
v -5.033288 14.805000 5.085094
v -4.281288 22.792999 1.840094
v -2.701288 22.792999 -3.201906
v -5.272288 10.103001 7.658094
v 3.669713 22.785002 1.576094
v 6.805713 14.804999 -0.395906
v 4.282712 22.792999 1.780094
v 5.001712 14.805000 5.034094
v -2.321287 22.785000 -2.679906
v -2.321287 22.785000 -2.679906
v -0.992287 14.802999 -5.716906
v -0.992287 14.802999 -5.716906
v -5.620288 14.802999 -2.353906
v -5.620288 14.802999 -2.353906
v -6.019288 14.804999 -2.901906
v -6.019288 14.804999 -2.901906
v -2.701288 22.792999 -3.201906
v -1.390287 14.804999 -6.264906
v 2.589712 27.258999 3.961093
v 2.589712 27.258999 3.961093
v 5.254713 10.103001 7.663095
v 5.254713 10.103001 7.663095
v 12.363712 3.659001 17.397095
v 12.363712 3.659001 17.397095
v 12.363712 -0.004999 17.397095
v -12.341288 -0.004999 17.398096
v -12.341288 3.659001 17.397095
v -12.341288 3.659001 17.397095
v -12.341288 3.659001 17.397095
v 12.363712 3.659001 17.397095
v -5.272288 10.103001 7.658094
v -5.272288 10.103001 7.658094
v -5.272288 10.103001 7.658094
v 5.254713 10.103001 7.663095
v -2.566288 27.258999 3.960093
v -2.566288 27.258999 3.960093
v -4.160287 27.258999 -0.942906
v -4.160287 27.258999 -0.942906
v -8.527287 10.103001 -2.351905
v 0.011713 27.258999 -3.972906
v 0.011713 27.258999 -3.972906
v -0.010287 10.103000 -8.540906
v -0.010287 10.103000 -8.540906
v 0.012713 3.658999 -20.618906
v 0.012713 3.658999 -20.618906
v 0.011713 -0.005001 -20.618906
v 19.997713 3.659000 -6.097905
v 19.997713 3.659000 -6.097905
v 19.997713 -0.005000 -6.097905
v 8.527713 10.103001 -2.358905
v 8.527713 10.103001 -2.358905
v 19.997713 3.659000 -6.097905
v 4.182713 27.258999 -0.942906
v 4.182713 27.258999 -0.942906
v 8.527713 10.103001 -2.358905
v -8.527287 10.103001 -2.351905
v -8.527287 10.103001 -2.351905
v -0.010287 10.103000 -8.540906
v -19.975288 3.659000 -6.097905
v -19.975288 3.659000 -6.097905
v -19.975288 3.659000 -6.097905
v 0.012713 3.658999 -20.618906
v -19.975288 -0.005000 -6.097905
v 1.306713 14.804999 -6.323905
v 1.306713 14.804999 -6.323905
v 2.606713 22.792999 -3.256906
v 2.606713 22.792999 -3.256906
v 5.924712 14.804999 -2.945905
v 5.924712 14.804999 -2.945905
v 5.524713 14.802999 -2.398906
v 5.524713 14.802999 -2.398906
v 2.225713 22.785000 -2.735906
v 0.906713 14.802999 -5.777905
v 2.225713 22.785000 -2.735906
v 0.906713 14.802999 -5.777905
v 4.358712 14.802999 4.820094
v 4.358712 14.802999 4.820094
v 3.669713 22.785002 1.576094
v 3.669713 22.785002 1.576094
v 6.162713 14.802999 -0.609906
v 6.162713 14.802999 -0.609906
v 6.805713 14.804999 -0.395906
v 6.805713 14.804999 -0.395906
v 4.282712 22.792999 1.780094
v 5.001712 14.805000 5.034094
v -2.816288 14.802999 5.946095
v -2.816288 14.802999 5.946095
v 0.044713 22.785002 4.270093
v 0.044713 22.785002 4.270093
v 2.905712 14.802999 5.946095
v 2.905712 14.802999 5.946095
v 2.905712 14.805000 6.623094
v 2.905712 14.805000 6.623094
v 0.044713 22.792999 4.915094
v -2.816288 14.805000 6.623094
v 4.282712 22.792999 1.780094
v 5.001712 14.805000 5.034094
v 0.044713 22.792999 4.915094
v -2.816288 14.805000 6.623094
v -1.390287 14.804999 -6.264906
v -2.701288 22.792999 -3.201906
v -5.033288 14.805000 5.085094
v -5.033288 14.805000 5.085094
v -6.782288 14.804999 -0.361906
v -6.782288 14.804999 -0.361906
v -4.281288 22.792999 1.840094
v -4.281288 22.792999 1.840094
v -3.667288 22.785002 1.642094
v -3.667288 22.785002 1.642094
v -6.137288 14.802999 -0.568906
v -4.388288 14.802999 4.878094
v -6.137288 14.802999 -0.568906
v -4.388288 14.802999 4.878094
vt 0.492201 0.497000
vt 0.601986 0.534500
vt 0.492201 0.618356
vt 0.560057 0.398781
vt 0.604618 0.459140
vt 0.424346 0.398809
vt 0.382390 0.534500
vt 0.379205 0.457480
vt 0.560504 0.598540
vt 0.420793 0.597018
vt 0.493070 0.372379
vt 0.671026 0.519362
vt 0.716351 0.573688
vt 0.610856 0.405285
vt 0.599907 0.460801
vt 0.588483 0.464786
vt 0.606619 0.375008
vt 0.493070 0.390229
vt 0.493070 0.377582
vt 0.539684 0.349159
vt 0.568374 0.343846
vt 0.446456 0.349159
vt 0.417766 0.343846
vt 0.630202 0.296327
vt 0.568374 0.325109
vt 0.417766 0.325109
vt 0.353121 0.296466
vt 0.817318 0.026937
vt 0.167058 0.026937
vt 0.505217 -0.207922
vt 0.505217 0.225820
vt 1.157141 0.225820
vt 1.157141 -0.207922
vt 0.445534 0.644620
vt 0.423714 0.592784
vt 0.430795 0.582572
vt 0.465775 0.666621
vt 0.370125 0.586972
vt 0.343962 0.573550
vt 0.267447 0.573494
vt 0.333460 0.588716
vt 0.455299 0.681787
vt 0.491622 0.744776
vt -0.033876 0.677166
vt 0.492228 1.079037
vt -0.149329 0.664805
vt -0.149329 1.098548
vt 0.502596 1.098548
vt 0.502596 0.664805
vt 0.611172 0.588328
vt 0.557583 0.594334
vt 0.550476 0.584122
vt 0.637309 0.574795
vt 0.535921 0.646225
vt 0.515759 0.668310
vt 0.526287 0.683420
vt 0.647837 0.589933
vt 1.018252 0.677166
vt 0.505217 0.664805
vt 0.505217 1.098548
vt 1.157141 1.098548
vt 1.157141 0.664805
vt 0.343909 0.497083
vt 0.383917 0.459085
vt 0.395367 0.462960
vt 0.330354 0.524149
vt 0.372441 0.403735
vt 0.376389 0.373403
vt 0.359412 0.367674
vt 0.313377 0.518421
vt -0.149329 0.228441
vt -0.149329 0.662184
vt 0.502596 0.662184
vt 0.502596 0.228441
vt 0.640283 0.498329
vt 0.654102 0.525284
vt 0.623543 0.369085
vt 0.505217 0.228441
vt 0.505217 0.662184
vt 1.157141 0.662184
vt 1.157141 0.228441
vn 0.000000 1.000000 0.000000
vn 0.929075 0.207068 0.306406
vn 0.932737 0.205573 0.296121
vn 0.931120 0.206763 0.300363
vn -0.929167 0.212409 0.302469
vn -0.928922 0.211585 0.303842
vn -0.928983 0.210944 0.303995
vn 0.576739 0.208075 -0.789941
vn 0.570330 0.207343 -0.794794
vn 0.572222 0.207892 -0.793298
vn -0.573748 0.211219 -0.791284
vn -0.575091 0.211280 -0.790307
vn -0.574572 0.210425 -0.790918
vn -0.003632 0.208899 0.977905
vn 0.002747 0.208991 0.977905
vn -0.000702 0.208930 0.977905
vn 0.927427 0.212653 0.307596
vn 0.928709 0.205420 0.308573
vn 0.928800 0.205634 0.308267
vn 0.000031 0.205420 0.978668
vn -0.000031 0.205603 0.978607
vn 0.000031 0.205603 0.978607
vn -0.003693 0.212134 0.977203
vn 0.002686 0.212226 0.977203
vn 0.941557 -0.336802 0.002533
vn -0.941557 -0.336802 0.002533
vn 0.000000 0.999969 -0.002930
vn -0.000061 0.833888 0.551897
vn 0.000000 0.000122 1.000000
vn -0.575243 0.205420 -0.791742
vn -0.575091 0.205451 -0.791833
vn -0.575243 0.205298 -0.791772
vn -0.573717 0.212012 -0.791101
vn -0.575091 0.212043 -0.790094
vn -0.763024 -0.336833 0.551622
vn 0.759758 -0.336589 -0.556261
vn 0.001709 0.999969 0.002380
vn -0.323862 0.834468 -0.445784
vn -0.587756 0.000061 -0.809015
vn 0.577929 0.205512 -0.789758
vn 0.577868 0.205542 -0.789788
vn 0.577807 0.205512 -0.789850
vn 0.576281 0.212195 -0.789209
vn 0.569872 0.211432 -0.794031
vn -0.758476 -0.336894 -0.557817
vn 0.761284 -0.336772 0.554064
vn -0.001740 0.999969 0.002380
vn 0.323283 0.834895 -0.445387
vn 0.587786 -0.000061 -0.808985
vn -0.931791 0.205573 0.299081
vn -0.931883 0.205451 0.298929
vn -0.931822 0.205451 0.299112
vn -0.929228 0.213050 0.301859
vn -0.928953 0.212226 0.303201
vn 0.285897 -0.336863 0.897061
vn -0.290750 -0.336619 -0.895596
vn 0.002808 0.999969 -0.000885
vn -0.525071 0.833766 0.170629
vn -0.951048 0.000031 0.309000
vn 0.928770 0.205573 0.308359
vn 0.931089 0.211188 0.297342
vn 0.299722 -0.336741 -0.892605
vn -0.294900 -0.336833 0.894162
vn -0.002777 0.999969 -0.000916
vn 0.523881 0.834529 0.170476
vn 0.951048 0.000000 0.309000
s 1
f 1/1/1 47/2/1 99/3/1
f 112/2/2 78/4/3 65/5/4
f 94/6/5 96/7/6 60/8/7
f 98/3/8 111/2/9 52/9/10
f 46/7/11 45/3/12 61/10/13
f 34/4/14 33/6/15 31/11/16
f 65/5/4 64/12/17 25/13/17 112/2/2
f 3/14/18 5/15/19 63/16/19 4/17/18
f 18/18/20 22/19/20 20/20/21 30/21/21
f 21/22/22 22/19/20 18/18/20 29/23/22
f 29/23/22 30/21/21 20/20/21 21/22/22
f 35/24/23 19/25/23 32/26/24 62/27/24
f 31/11/16 33/6/15 62/27/24 32/26/24
f 31/11/16 19/25/23 35/24/23 34/4/14
f 147/18/25 156/11/25 157/26/25 145/23/25
f 149/21/26 151/25/26 152/11/26 146/18/26
f 144/23/27 153/26/27 150/25/27 148/21/27
f 42/28/28 92/24/28 91/27/28 41/29/28
f 36/30/29 88/31/29 87/32/29 43/33/29
f 16/34/30 17/35/31 49/36/31 14/37/30
f 49/36/31 17/35/31 15/38/32 50/39/32
f 14/37/30 50/39/32 15/38/32 16/34/30
f 27/40/33 51/41/33 28/42/34 44/43/34
f 61/10/13 45/3/12 44/43/34 28/42/34
f 61/10/13 51/41/33 27/40/33 46/7/11
f 68/36/35 159/10/35 158/42/35 70/37/35
f 72/39/36 74/41/36 75/10/36 67/36/36
f 69/37/37 76/42/37 73/41/37 71/39/37
f 40/44/38 115/40/38 116/43/38 39/45/38
f 26/46/39 119/47/39 120/48/39 38/49/39
f 12/50/40 13/51/41 55/52/41 53/53/40
f 55/52/41 13/51/41 11/54/42 54/55/42
f 53/53/40 54/55/42 11/54/42 12/50/40
f 101/43/43 10/56/43 24/57/44 113/13/44
f 52/9/10 111/2/9 113/13/44 24/57/44
f 52/9/10 10/56/43 101/43/43 98/3/8
f 130/52/45 125/9/45 127/57/45 129/53/45
f 133/55/46 123/56/46 124/9/46 132/52/46
f 128/53/47 126/57/47 122/56/47 131/55/47
f 103/45/48 100/43/48 109/13/48 48/58/48
f 104/59/49 102/60/49 106/61/49 37/62/49
f 9/63/50 7/64/51 6/65/51 57/66/50
f 6/65/51 7/64/51 8/67/52 56/68/52
f 57/66/50 56/68/52 8/67/52 9/63/50
f 90/27/53 59/69/53 58/70/54 97/40/54
f 60/8/7 96/7/6 97/40/54 58/70/54
f 60/8/7 59/69/53 90/27/53 94/6/5
f 167/65/55 165/8/55 163/70/55 168/66/55
f 169/68/56 160/69/56 164/8/56 166/65/56
f 170/66/57 162/70/57 161/69/57 171/68/57
f 86/29/58 89/27/58 114/40/58 117/44/58
f 84/71/59 85/72/59 118/73/59 121/74/59
f 63/16/19 5/15/19 2/75/60 23/76/60
f 4/17/18 23/76/60 2/75/60 3/14/18
f 25/13/17 64/12/17 66/77/61 80/24/61
f 65/5/4 78/4/3 80/24/61 66/77/61
f 137/16/62 154/5/62 155/77/62 135/17/62
f 139/76/63 141/12/63 142/5/63 136/16/63
f 134/17/64 143/77/64 140/12/64 138/76/64
f 110/58/65 108/13/65 79/24/65 82/28/65
f 107/78/66 105/79/66 81/80/66 83/81/66
f 93/6/1 1/1/1 99/3/1 95/7/1
f 47/2/1 1/1/1 93/6/1 77/4/1
