o win3
v 24.760605 50.001476 3.811735
v 24.268084 49.001476 6.220696
v 21.418196 49.001476 12.998625
v 18.471359 49.001476 16.928080
v 16.723503 50.001476 18.657433
v 12.762901 50.001476 21.562269
v 5.954999 50.001476 24.339825
v 5.954999 49.001476 24.339825
v 3.540934 50.001476 24.806671
v 1.092728 50.001476 25.034643
v 1.092728 49.001476 25.034643
v -3.811663 50.001476 24.767534
v -6.220626 50.001476 24.275023
v -16.928041 50.001476 18.478327
v -16.928041 49.001476 18.478327
v -20.207115 50.001476 14.821515
v -22.709759 50.001476 10.595251
v -22.709759 49.001476 10.595251
v -25.021566 50.001476 -1.359095
v -24.767540 49.001476 -3.804739
v -16.730455 50.001476 -18.650492
v -14.821506 49.001476 -20.200205
v -8.318634 50.001476 -23.631689
v -5.961951 49.001476 -24.332914
v -1.099668 49.001476 -25.027733
v 1.359092 50.001476 -25.014647
v 1.359092 49.001476 -25.014647
v 8.562799 50.001476 -23.541849
v 8.562799 49.001476 -23.541849
v 10.829405 49.001476 -22.588833
v 15.028778 50.001476 -20.041336
v 15.028778 49.001476 -20.041336
v 16.921129 50.001476 -18.471395
v 16.921129 49.001476 -18.471395
v 18.650484 49.001476 -16.723537
v 20.200197 49.001476 -14.814585
v 22.702843 49.001476 -10.588322
v 22.702843 50.001476 -10.588322
v 24.332905 50.001476 -5.955022
v 24.332905 49.001476 -5.955022
v 25.027725 49.001476 -1.092742
v 25.027725 50.001476 -1.092742
v 24.760605 49.001476 3.811735
v 24.268084 50.001476 6.220696
v 21.418196 50.001476 12.998625
v 20.041296 50.001476 15.035741
v 20.041296 49.001476 15.035741
v 16.723503 49.001476 18.657433
v 12.762901 49.001476 21.562269
v 10.588295 50.001476 22.709772
v 10.588295 49.001476 22.709772
v -3.811663 49.001476 24.767534
v -6.220626 49.001476 24.275023
v -18.657400 49.001476 16.730459
v -20.207115 49.001476 14.821515
v -24.339821 49.001476 5.961950
v -24.806683 50.001476 3.547877
v -24.806683 49.001476 3.547877
v -25.021566 49.001476 -1.359095
v -24.275032 50.001476 -6.213707
v -24.767540 50.001476 -3.804739
v -24.275032 49.001476 -6.213707
v -23.548769 50.001476 -8.562801
v -23.548769 49.001476 -8.562801
v -16.730455 49.001476 -18.650492
v -14.821506 50.001476 -20.200205
v -8.318634 49.001476 -23.631689
v -5.961951 50.001476 -24.332914
v -1.099668 50.001476 -25.027733
v 10.829405 50.001476 -22.588833
v 20.200197 50.001476 -14.814585
v 24.799746 50.001476 -3.540950
v 24.799746 49.001476 -3.540950
v 21.555328 50.001476 -12.762926
v 21.555328 49.001476 -12.762926
v 18.650484 50.001476 -16.723537
v -10.595247 50.001476 -22.702852
v -10.595247 49.001476 -22.702852
v -12.769853 49.001476 -21.555338
v -12.769853 50.001476 -21.555338
v -24.339821 50.001476 5.961950
v -23.638607 50.001476 8.318643
v -23.638607 49.001476 8.318643
v -18.657400 50.001476 16.730459
v 3.540934 49.001476 24.806671
v 14.814547 49.001476 20.207136
v 14.814547 50.001476 20.207136
v 18.471359 50.001476 16.928080
v 20.200197 49.001476 -14.814585
v 20.200197 50.001476 -14.814585
v 16.921129 50.001476 -18.471395
v 16.921129 49.001476 -18.471395
v -8.318634 50.001476 -23.631689
v -8.318634 49.001476 -23.631689
v -14.821506 49.001476 -20.200205
v -14.821506 50.001476 -20.200205
v 12.762901 50.001476 21.562269
v 12.762901 49.001476 21.562269
v 16.723503 50.001476 18.657433
v 16.723503 49.001476 18.657433
v 20.041296 50.001476 15.035741
v 20.041296 49.001476 15.035741
v 21.555328 50.001476 -12.762926
v 21.555328 49.001476 -12.762926
v -10.595247 50.001476 -22.702852
v -10.595247 49.001476 -22.702852
v -12.769853 49.001476 -21.555338
v -12.769853 50.001476 -21.555338
v -23.638607 50.001476 8.318643
v -23.638607 49.001476 8.318643
v 14.814547 49.001476 20.207136
v 14.814547 50.001476 20.207136
v 18.471359 49.001476 16.928080
v 18.471359 50.001476 16.928080
v 3.540934 50.001476 24.806671
v 3.540934 49.001476 24.806671
v -18.657400 49.001476 16.730459
v -18.657400 50.001476 16.730459
v -24.339821 49.001476 5.961950
v -24.339821 50.001476 5.961950
v 18.650484 49.001476 -16.723537
v 18.650484 50.001476 -16.723537
v 24.799746 50.001476 -3.540950
v 24.799746 49.001476 -3.540950
vt 0.000000 0.512500
vt 1.000000 0.512500
vt 1.000000 0.762500
vt 0.000000 0.762500
vn 0.995692 -0.000000 -0.092720
vn 0.981810 0.000000 -0.189866
vn 0.884417 0.000000 -0.466697
vn 0.834416 0.000000 -0.551136
vn 0.776375 0.000000 -0.630271
vn 0.710859 0.000000 -0.703334
vn 0.638498 0.000000 -0.769623
vn 0.387593 0.000000 -0.921831
vn 0.005322 0.000000 -0.999986
vn -0.285191 0.000000 -0.958471
vn -0.377760 0.000000 -0.925904
vn -0.466697 0.000000 -0.884417
vn -0.551137 0.000000 -0.834415
vn -0.630272 0.000000 -0.776374
vn -0.955382 0.000000 -0.295373
vn -0.994649 0.000000 -0.103313
vn -0.981809 0.000000 0.189874
vn -0.958472 0.000000 0.285185
vn -0.925902 0.000000 0.377765
vn -0.776373 0.000000 0.630274
vn -0.710861 0.000000 0.703333
vn -0.200306 0.000000 0.979733
vn 0.092717 0.000000 0.995692
vn 0.189868 0.000000 0.981810
vn 0.466693 0.000000 0.884419
vn 0.551139 0.000000 0.834414
vn 0.630268 0.000000 0.776377
vn 0.703334 0.000000 0.710859
vn 0.769622 0.000000 0.638500
vn 0.828500 0.000000 0.559989
vn 0.979733 0.000000 0.200310
s 1
f 72/1/1 42/2/1 41/3/1 73/4/1
f 39/1/2 123/2/2 124/3/2 40/4/2
f 74/1/3 38/2/3 37/3/3 75/4/3
f 71/1/4 103/2/4 104/3/4 36/4/4
f 76/1/5 90/2/5 89/3/5 35/4/5
f 33/1/6 122/2/6 121/3/6 34/4/6
f 31/1/7 91/2/7 92/3/7 32/4/7
f 28/1/8 70/2/8 30/3/8 29/4/8
f 69/1/9 26/2/9 27/3/9 25/4/9
f 23/1/10 68/2/10 24/3/10 67/4/10
f 77/1/11 93/2/11 94/3/11 78/4/11
f 80/1/12 105/2/12 106/3/12 79/4/12
f 66/1/13 108/2/13 107/3/13 22/4/13
f 21/1/14 96/2/14 95/3/14 65/4/14
f 60/1/15 63/2/15 64/3/15 62/4/15
f 19/1/16 61/2/16 20/3/16 59/4/16
f 81/1/17 57/2/17 58/3/17 56/4/17
f 82/1/18 120/2/18 119/3/18 83/4/18
f 17/1/19 109/2/19 110/3/19 18/4/19
f 84/1/20 16/2/20 55/3/20 54/4/20
f 14/1/21 118/2/21 117/3/21 15/4/21
f 12/1/22 13/2/22 53/3/22 52/4/22
f 9/1/23 10/2/23 11/3/23 85/4/23
f 7/1/24 115/2/24 116/3/24 8/4/24
f 6/1/25 50/2/25 51/3/25 49/4/25
f 87/1/26 97/2/26 98/3/26 86/4/26
f 5/1/27 112/2/27 111/3/27 48/4/27
f 88/1/28 99/2/28 100/3/28 4/4/28
f 46/1/29 114/2/29 113/3/29 47/4/29
f 45/1/30 101/2/30 102/3/30 3/4/30
f 1/1/31 44/2/31 2/3/31 43/4/31
