o win5
v -3.808285 50.999016 24.764059
v -6.217246 49.999016 24.271538
v -12.995174 49.999016 21.421648
v -16.924629 49.999016 18.474810
v -18.653980 50.999016 16.726954
v -21.558817 50.999016 12.766352
v -24.336370 50.999016 5.958449
v -24.336370 49.999016 5.958449
v -24.803219 50.999016 3.544384
v -25.031189 50.999016 1.096178
v -25.031189 49.999016 1.096178
v -24.764080 50.999016 -3.808213
v -24.271566 50.999016 -6.217176
v -18.474869 50.999016 -16.924589
v -18.474869 49.999016 -16.924589
v -14.818057 50.999016 -20.203663
v -10.591794 50.999016 -22.706306
v -10.591794 49.999016 -22.706306
v 1.362553 50.999016 -25.018114
v 3.808197 49.999016 -24.764086
v 18.653948 50.999016 -16.726999
v 20.203661 49.999016 -14.818048
v 23.635145 50.999016 -8.315177
v 24.336369 49.999016 -5.958493
v 25.031187 49.999016 -1.096210
v 25.018101 50.999016 1.362550
v 25.018101 49.999016 1.362550
v 23.545301 50.999016 8.566257
v 23.545301 49.999016 8.566257
v 22.592285 49.999016 10.832862
v 20.044786 50.999016 15.032235
v 20.044786 49.999016 15.032235
v 18.474848 50.999016 16.924587
v 18.474848 49.999016 16.924587
v 16.726990 49.999016 18.653940
v 14.818035 49.999016 20.203653
v 10.591772 49.999016 22.706299
v 10.591772 50.999016 22.706299
v 5.958472 50.999016 24.336359
v 5.958472 49.999016 24.336359
v 1.096192 49.999016 25.031179
v 1.096192 50.999016 25.031179
v -3.808285 49.999016 24.764059
v -6.217246 50.999016 24.271538
v -12.995174 50.999016 21.421648
v -15.032290 50.999016 20.044746
v -15.032290 49.999016 20.044746
v -18.653980 49.999016 16.726954
v -21.558817 49.999016 12.766352
v -22.706320 50.999016 10.591745
v -22.706320 49.999016 10.591745
v -24.764080 49.999016 -3.808213
v -24.271566 49.999016 -6.217176
v -16.727001 49.999016 -18.653950
v -14.818057 49.999016 -20.203663
v -5.958492 49.999016 -24.336369
v -3.544419 50.999016 -24.803230
v -3.544419 49.999016 -24.803230
v 1.362553 49.999016 -25.018112
v 6.217165 50.999016 -24.271576
v 3.808197 50.999016 -24.764086
v 6.217165 49.999016 -24.271576
v 8.566258 50.999016 -23.545313
v 8.566258 49.999016 -23.545313
v 18.653948 49.999016 -16.726999
v 20.203661 50.999016 -14.818048
v 23.635145 49.999016 -8.315176
v 24.336369 50.999016 -5.958493
v 25.031187 50.999016 -1.096210
v 22.592285 50.999016 10.832862
v 14.818035 50.999016 20.203653
v 3.544400 50.999016 24.803200
v 3.544400 49.999016 24.803200
v 12.766376 50.999016 21.558784
v 12.766376 49.999016 21.558784
v 16.726990 50.999016 18.653940
v 22.706308 50.999016 -10.591789
v 22.706308 49.999016 -10.591789
v 21.558794 49.999016 -12.766396
v 21.558794 50.999016 -12.766396
v -5.958492 50.999016 -24.336369
v -8.315185 50.999016 -23.635153
v -8.315185 49.999016 -23.635153
v -16.727001 50.999016 -18.653950
v -24.803219 49.999016 3.544384
v -20.203684 49.999016 14.817997
v -20.203684 50.999016 14.817997
v -16.924629 50.999016 18.474810
v 14.818035 49.999016 20.203653
v 14.818035 50.999016 20.203653
v 18.474848 50.999016 16.924587
v 18.474848 49.999016 16.924587
v 23.635145 50.999016 -8.315177
v 23.635145 49.999016 -8.315176
v 20.203661 49.999016 -14.818048
v 20.203661 50.999016 -14.818048
v -21.558817 50.999016 12.766352
v -21.558817 49.999016 12.766352
v -18.653980 50.999016 16.726954
v -18.653980 49.999016 16.726954
v -15.032290 50.999016 20.044746
v -15.032290 49.999016 20.044746
v 12.766376 50.999016 21.558784
v 12.766376 49.999016 21.558784
v 22.706308 50.999016 -10.591789
v 22.706308 49.999016 -10.591789
v 21.558794 49.999016 -12.766396
v 21.558794 50.999016 -12.766396
v -8.315185 50.999016 -23.635153
v -8.315185 49.999016 -23.635153
v -20.203684 49.999016 14.817997
v -20.203684 50.999016 14.817997
v -16.924629 49.999016 18.474810
v -16.924629 50.999016 18.474810
v -24.803219 50.999016 3.544384
v -24.803219 49.999016 3.544384
v -16.727001 49.999016 -18.653950
v -16.727001 50.999016 -18.653950
v -5.958492 49.999016 -24.336369
v -5.958492 50.999016 -24.336369
v 16.726990 49.999016 18.653940
v 16.726990 50.999016 18.653940
v 3.544400 50.999016 24.803200
v 3.544400 49.999016 24.803200
vt 0.000000 0.725000
vt 1.000000 0.725000
vt 1.000000 0.975000
vt 0.000000 0.975000
vn 0.092720 0.000000 0.995692
vn 0.189866 0.000000 0.981810
vn 0.466697 0.000000 0.884417
vn 0.551136 0.000000 0.834416
vn 0.630271 0.000000 0.776375
vn 0.703334 0.000000 0.710860
vn 0.769624 0.000000 0.638498
vn 0.921831 0.000000 0.387593
vn 0.999986 0.000000 0.005322
vn 0.958471 -0.000000 -0.285190
vn 0.925903 -0.000000 -0.377760
vn 0.884417 0.000000 -0.466697
vn 0.834415 0.000000 -0.551137
vn 0.776375 0.000000 -0.630272
vn 0.295373 0.000000 -0.955382
vn 0.103313 -0.000001 -0.994649
vn -0.189874 0.000000 -0.981809
vn -0.285186 0.000000 -0.958472
vn -0.377764 0.000000 -0.925902
vn -0.630273 0.000000 -0.776373
vn -0.703333 0.000000 -0.710860
vn -0.979733 0.000000 -0.200307
vn -0.995693 0.000000 0.092716
vn -0.981809 0.000000 0.189869
vn -0.884419 0.000000 0.466693
vn -0.834414 0.000000 0.551139
vn -0.776377 0.000000 0.630268
vn -0.710860 0.000000 0.703334
vn -0.638500 0.000000 0.769622
vn -0.559989 0.000000 0.828500
vn -0.200310 0.000000 0.979733
s 1
f 72/1/1 42/2/1 41/3/1 73/4/1
f 39/1/2 123/2/2 124/3/2 40/4/2
f 74/1/3 38/2/3 37/3/3 75/4/3
f 71/1/4 103/2/4 104/3/4 36/4/4
f 76/1/5 90/2/5 89/3/5 35/4/5
f 33/1/6 122/2/6 121/3/6 34/4/6
f 31/1/7 91/2/7 92/3/7 32/4/7
f 28/1/8 70/2/8 30/3/8 29/4/8
f 69/1/9 26/2/9 27/3/9 25/4/9
f 23/1/10 68/2/10 24/3/10 67/4/10
f 77/1/11 93/2/11 94/3/11 78/4/11
f 80/1/12 105/2/12 106/3/12 79/4/12
f 66/1/13 108/2/13 107/3/13 22/4/13
f 21/1/14 96/2/14 95/3/14 65/4/14
f 60/1/15 63/2/15 64/3/15 62/4/15
f 19/1/16 61/2/16 20/3/16 59/4/16
f 81/1/17 57/2/17 58/3/17 56/4/17
f 82/1/18 120/2/18 119/3/18 83/4/18
f 17/1/19 109/2/19 110/3/19 18/4/19
f 84/1/20 16/2/20 55/3/20 54/4/20
f 14/1/21 118/2/21 117/3/21 15/4/21
f 12/1/22 13/2/22 53/3/22 52/4/22
f 9/1/23 10/2/23 11/3/23 85/4/23
f 7/1/24 115/2/24 116/3/24 8/4/24
f 6/1/25 50/2/25 51/3/25 49/4/25
f 87/1/26 97/2/26 98/3/26 86/4/26
f 5/1/27 112/2/27 111/3/27 48/4/27
f 88/1/28 99/2/28 100/3/28 4/4/28
f 46/1/29 114/2/29 113/3/29 47/4/29
f 45/1/30 101/2/30 102/3/30 3/4/30
f 1/1/31 44/2/31 2/3/31 43/4/31
