o win8
v -10.829401 52.000000 22.595751
v -6.213689 50.999001 24.275038
v -6.213689 52.000000 24.275038
v -3.804720 50.999001 24.767553
v -3.804720 52.000000 24.767553
v 1.099684 52.000000 25.034641
v 3.547869 52.000000 24.806662
v 5.961948 52.000000 24.339821
v 16.730453 50.999001 18.657400
v 20.048275 50.999001 15.035664
v 21.425177 52.000000 12.998550
v 22.595753 52.000000 10.836297
v 23.548780 50.999001 8.569686
v 23.548780 52.000000 8.569686
v 24.275043 50.999001 6.220593
v 24.767551 52.000000 3.811624
v 24.275043 52.000000 6.220593
v 25.021561 50.999001 1.365991
v 25.034657 50.999001 -1.092775
v 24.806677 50.999001 -3.540972
v 25.034657 52.000000 -1.092775
v 24.806677 52.000000 -3.540972
v 21.562239 50.999001 -12.762951
v 20.207108 50.999001 -14.814610
v 15.035658 50.998997 -20.041382
v 12.998556 50.998997 -21.418261
v 15.035658 52.000000 -20.041382
v 10.836301 52.000000 -22.588844
v 10.836301 50.998997 -22.588844
v 8.569685 52.000000 -23.541870
v 6.220595 50.998997 -24.268135
v 3.811632 50.998997 -24.760651
v 1.366003 50.998997 -25.014648
v 1.366003 52.000000 -25.014648
v -10.588301 50.998997 -22.702864
v -10.588301 52.000000 -22.702864
v -21.418224 52.000000 -12.991693
v -22.588800 50.999001 -10.829462
v -23.541832 50.999001 -8.562870
v -23.541832 52.000000 -8.562870
v -24.268105 52.000000 -6.213766
v -24.760616 50.999001 -3.804806
v -25.014643 52.000000 -1.359168
v -25.027733 52.000000 1.099671
v -25.027733 50.999001 1.099671
v -24.332912 50.999001 5.961935
v -24.332912 52.000000 5.961935
v -23.631689 52.000000 8.318621
v -23.631689 50.999001 8.318621
v -22.702850 52.000000 10.595229
v -22.702850 50.999001 10.595229
v -15.028761 50.999001 20.048264
v -15.028761 52.000000 20.048264
v -12.991648 50.999001 21.425163
v -12.991648 52.000000 21.425163
v -10.829401 50.999001 22.595751
v -8.562783 50.999001 23.548775
v -8.562783 52.000000 23.548775
v -1.359076 50.999001 25.021574
v -1.359076 52.000000 25.021574
v 1.099684 50.999001 25.034641
v 3.547869 50.999001 24.806662
v 5.961948 50.999001 24.339821
v 16.730453 52.000000 18.657400
v 18.478317 50.999001 16.928047
v 18.478317 52.000000 16.928047
v 20.048275 52.000000 15.035664
v 21.425177 50.999001 12.998550
v 22.595753 50.999001 10.836297
v 24.767551 50.999001 3.811624
v 25.021561 52.000000 1.365991
v 22.709753 50.999001 -10.588346
v 22.709753 52.000000 -10.588346
v 21.562239 52.000000 -12.762951
v 20.207108 52.000000 -14.814610
v 16.928009 50.999001 -18.471439
v 16.928009 52.000000 -18.471439
v 12.998556 52.000000 -21.418261
v 8.569685 50.998997 -23.541870
v 6.220595 52.000000 -24.268135
v 3.811632 52.000000 -24.760651
v -1.092735 50.998997 -25.027735
v -1.092735 52.000000 -25.027735
v -5.955009 50.998997 -24.332918
v -5.955009 52.000000 -24.332918
v -8.311698 52.000000 -23.631702
v -8.311698 50.998997 -23.631702
v -21.418224 50.999001 -12.991693
v -22.588800 52.000000 -10.829462
v -24.268105 50.999001 -6.213766
v -24.760616 52.000000 -3.804806
v -25.014643 50.999001 -1.359168
v -23.541832 50.999001 -8.562870
v -23.541832 52.000000 -8.562870
v -25.014643 52.000000 -1.359168
v -25.014643 50.999001 -1.359168
v -22.588800 50.999001 -10.829462
v -22.588800 52.000000 -10.829462
v -8.311698 52.000000 -23.631702
v -8.311698 50.998997 -23.631702
v 1.366003 50.998997 -25.014648
v 1.366003 52.000000 -25.014648
v 8.569685 52.000000 -23.541870
v 8.569685 50.998997 -23.541870
v 10.836301 52.000000 -22.588844
v 10.836301 50.998997 -22.588844
v 12.998556 50.998997 -21.418261
v 12.998556 52.000000 -21.418261
v 15.035658 50.998997 -20.041382
v 15.035658 52.000000 -20.041382
v 21.562239 50.999001 -12.762951
v 21.562239 52.000000 -12.762951
v 25.034657 50.999001 -1.092775
v 25.034657 52.000000 -1.092775
v 22.595753 52.000000 10.836297
v 22.595753 50.999001 10.836297
v 21.425177 52.000000 12.998550
v 21.425177 50.999001 12.998550
v 20.048275 50.999001 15.035664
v 20.048275 52.000000 15.035664
v 18.478317 50.999001 16.928047
v 18.478317 52.000000 16.928047
v 3.547869 52.000000 24.806662
v 3.547869 50.999001 24.806662
v -3.804720 50.999001 24.767553
v -3.804720 52.000000 24.767553
v -6.213689 50.999001 24.275038
v -6.213689 52.000000 24.275038
v -12.991648 50.999001 21.425163
v -12.991648 52.000000 21.425163
v -23.631689 52.000000 8.318621
v -23.631689 50.999001 8.318621
vt 0.000000 0.487500
vt 1.000000 0.487500
vt 1.000000 0.737500
vt 0.000000 0.737500
vn -0.999986 0.000000 -0.005324
vn -0.994649 0.000000 -0.103313
vn -0.955381 0.000000 -0.295375
vn -0.921828 0.000000 -0.387600
vn -0.879400 0.000000 -0.476084
vn -0.377762 0.000000 -0.925903
vn -0.285186 0.000000 -0.958472
vn 0.005322 0.000000 -0.999986
vn 0.103302 0.000000 -0.994650
vn 0.295374 0.000000 -0.955382
vn 0.387594 0.000000 -0.921830
vn 0.476083 0.000000 -0.879401
vn 0.559985 0.000000 -0.828502
vn 0.638499 0.000000 -0.769623
vn 0.834416 0.000000 -0.551136
vn 0.884417 0.000000 -0.466697
vn 0.995692 -0.000000 -0.092720
vn 0.999986 0.000000 0.005326
vn 0.979734 0.000000 0.200304
vn 0.921829 0.000000 0.387596
vn 0.879402 0.000000 0.476081
vn 0.828500 0.000000 0.559990
vn 0.769625 0.000000 0.638496
vn 0.703333 0.000000 0.710861
vn 0.189865 0.000000 0.981810
vn 0.092721 0.000000 0.995692
vn -0.103311 0.000000 0.994649
vn -0.200307 0.000000 0.979733
vn -0.295373 0.000000 0.955382
vn -0.476085 0.000000 0.879399
vn -0.559989 0.000000 0.828500
vn -0.925903 0.000000 0.377761
vn -0.958471 0.000000 0.285190
s 1
f 44/1/1 43/2/1 92/3/1 45/4/1
f 95/1/2 91/2/2 42/3/2 96/4/2
f 41/1/3 40/2/3 39/3/3 90/4/3
f 94/1/4 89/2/4 38/3/4 93/4/4
f 98/1/5 37/2/5 88/3/5 97/4/5
f 36/1/6 86/2/6 87/3/6 35/4/6
f 99/1/7 85/2/7 84/3/7 100/4/7
f 83/1/8 34/2/8 33/3/8 82/4/8
f 102/1/9 81/2/9 32/3/9 101/4/9
f 80/1/10 30/2/10 79/3/10 31/4/10
f 103/1/11 28/2/11 29/3/11 104/4/11
f 105/1/12 78/2/12 26/3/12 106/4/12
f 108/1/13 27/2/13 25/3/13 107/4/13
f 110/1/14 77/2/14 76/3/14 109/4/14
f 75/1/15 74/2/15 23/3/15 24/4/15
f 112/1/16 73/2/16 72/3/16 111/4/16
f 22/1/17 21/2/17 19/3/17 20/4/17
f 114/1/18 71/2/18 18/3/18 113/4/18
f 16/1/19 17/2/19 15/3/19 70/4/19
f 14/1/20 12/2/20 69/3/20 13/4/20
f 115/1/21 11/2/21 68/3/21 116/4/21
f 117/1/22 67/2/22 10/3/22 118/4/22
f 120/1/23 66/2/23 65/3/23 119/4/23
f 122/1/24 64/2/24 9/3/24 121/4/24
f 8/1/25 7/2/25 62/3/25 63/4/25
f 123/1/26 6/2/26 61/3/26 124/4/26
f 60/1/27 5/2/27 4/3/27 59/4/27
f 126/1/28 3/2/28 2/3/28 125/4/28
f 128/1/29 58/2/29 57/3/29 127/4/29
f 1/1/30 55/2/30 54/3/30 56/4/30
f 130/1/31 53/2/31 52/3/31 129/4/31
f 50/1/32 48/2/32 49/3/32 51/4/32
f 131/1/33 47/2/33 46/3/33 132/4/33
