# 3ds Max Wavefront OBJ Exporter v0.97b - (c)2007 guruware
# File Created: 16.09.2011 20:13:27

#
# object Box006
#

v  -21.6945 187.1322 7.5618
v  26.7553 187.1322 7.5618
v  26.7553 187.1322 -38.6396
v  -21.6945 187.1322 -38.6396
v  -21.6945 -12.8741 19.9733
v  26.7553 -12.8741 19.9733
v  26.7553 -12.8741 -38.6396
v  -21.6945 -12.8741 -38.6396
v  -20.1804 186.3307 4.5332
v  -20.1804 186.3307 -35.7290
v  7.5052 186.3307 -35.7290
v  7.5052 186.3307 4.5332
v  -20.1804 281.1399 4.5332
v  -0.7451 281.1399 4.5332
v  -0.7451 281.1399 -35.7290
v  -20.1804 281.1399 -35.7290
# 16 vertices

vn 0.0000 1.0000 -0.0000
vn 0.0000 0.0629 0.9980
vn 1.0000 0.0000 -0.0000
vn 0.0000 0.0000 -1.0000
vn -1.0000 0.0000 -0.0000
vn 0.0000 -1.0000 -0.0000
vn 0.0000 0.0000 1.0000
vn 0.9951 0.0986 -0.0000
# 8 vertex normals

vt 0.7284 0.7703 0.0000
vt 0.7284 0.5818 0.0000
vt 0.9477 0.5818 0.0000
vt 0.9477 0.7703 0.0000
vt -0.0026 -0.0060 0.0000
vt 0.3302 -0.0060 0.0000
vt 0.3302 1.1185 0.0000
vt -0.0026 1.1185 0.0000
vt 0.3636 -0.0122 0.0000
vt 0.0236 -0.0122 0.0000
vt 0.0236 1.1191 0.0000
vt 0.2916 1.1191 0.0000
vt -0.0100 0.0069 0.0000
vt 0.3472 0.0069 0.0000
vt 0.3472 1.1196 0.0000
vt -0.0100 1.1196 0.0000
vt 0.0051 -0.0063 0.0000
vt 0.3640 -0.0063 0.0000
vt 0.2880 1.1183 0.0000
vt 0.0051 1.1183 0.0000
vt 0.5773 0.7699 0.0000
vt 0.5773 0.6577 0.0000
vt 0.6638 0.6577 0.0000
vt 0.6638 0.7699 0.0000
vt 0.7669 0.8755 0.0000
vt 0.7669 0.7345 0.0000
vt 0.9346 0.7345 0.0000
vt 0.9346 0.8755 0.0000
vt 0.2339 -0.0030 0.0000
vt 0.0611 -0.0030 0.0000
vt 0.1126 0.4694 0.0000
vt 0.2339 0.4694 0.0000
vt 0.0079 -0.0030 0.0000
vt 0.2439 -0.0030 0.0000
vt 0.2439 0.4732 0.0000
vt 0.0079 0.4732 0.0000
vt 0.0607 0.0014 0.0000
vt 0.2427 0.0014 0.0000
vt 0.2427 0.4776 0.0000
vt 0.1150 0.4776 0.0000
vt 0.0088 0.0008 0.0000
vt 0.2447 0.0008 0.0000
vt 0.2447 0.4770 0.0000
vt 0.0088 0.4770 0.0000
# 44 texture coords

g Box006
s off
f 1/1/1 2/2/1 3/3/1 4/4/1 
f 5/5/2 6/6/2 2/7/2 1/8/2 
f 6/9/3 7/10/3 3/11/3 2/12/3 
f 7/13/4 8/14/4 4/15/4 3/16/4 
f 8/17/5 5/18/5 1/19/5 4/20/5 
f 9/21/6 10/22/6 11/23/6 12/24/6 
f 13/25/1 14/26/1 15/27/1 16/28/1 
f 9/29/7 12/30/7 14/31/7 13/32/7 
f 12/33/8 11/34/8 15/35/8 14/36/8 
f 11/37/4 10/38/4 16/39/4 15/40/4 
f 10/41/5 9/42/5 13/43/5 16/44/5 
# 11 polygons

