# 3ds Max Wavefront OBJ Exporter v0.97b - (c)2007 guruware
# File Created: 17.09.2011 00:09:02

#
# object Box009
#

v  4.6695 235.0193 11.8780
v  21.9106 241.3629 11.8780
v  21.9106 241.3629 -11.5459
v  4.6695 235.0193 -11.5459
v  -23.3163 -14.1866 11.8780
v  21.9106 -14.1866 11.8780
v  -12.8873 125.4220 11.8780
v  21.9106 -14.1866 -11.5459
v  -23.3163 -14.1866 -11.5459
v  -12.8873 125.4220 -11.5459
# 10 vertices

vn -0.3163 0.9486 -0.0000
vn -0.0000 0.0000 1.0000
vn 1.0000 0.0000 -0.0000
vn -0.0000 0.0000 -1.0000
vn -0.9966 0.0821 -0.0000
vn -0.9847 0.1741 -0.0000
# 6 vertex normals

vt 0.7238 1.2108 0.0000
vt 0.7238 1.0559 0.0000
vt 0.9528 1.0559 0.0000
vt 0.9528 1.2108 0.0000
vt -0.0034 0.0047 0.0000
vt 0.3601 0.0047 0.0000
vt 0.3601 1.6086 0.0000
vt 0.0804 0.8809 0.0000
vt 0.2215 1.5688 0.0000
vt 0.5190 -0.0013 0.0000
vt 0.6558 -0.0013 0.0000
vt 0.6558 1.9153 0.0000
vt 0.5190 1.9153 0.0000
vt -0.0034 0.0115 0.0000
vt 0.0809 0.8814 0.0000
vt 0.2227 1.5643 0.0000
vt 0.3620 0.0115 0.0000
vt 0.3620 1.6038 0.0000
vt 0.7194 0.0091 0.0000
vt 0.9497 0.0091 0.0000
vt 0.9497 0.5948 0.0000
vt 0.7194 0.5948 0.0000
vt 0.7194 1.0546 0.0000
vt 0.9497 1.0546 0.0000
# 24 texture coords

g Box009
s off
f 1/1/1 2/2/1 3/3/1 4/4/1 
f 5/5/2 6/6/2 2/7/2 7/8/2 
f 2/7/2 1/9/2 7/8/2 
f 6/10/3 8/11/3 3/12/3 2/13/3 
f 9/14/4 10/15/4 4/16/4 8/17/4 
f 8/17/4 4/16/4 3/18/4 
f 9/19/5 5/20/5 7/21/5 10/22/5 
f 4/23/6 10/22/6 7/21/6 1/24/6 
# 6 polygons - 2 triangles

