# 3ds Max Wavefront OBJ Exporter v0.97b - (c)2007 guruware
# File Created: 17.09.2011 00:34:00

#
# object Box021
#

v  -17.7855 17.8205 15.4277
v  -17.7855 17.8205 -15.5133
v  -15.1239 17.8205 -18.1749
v  18.2251 17.8205 -15.5133
v  15.5635 17.8205 -18.1749
v  18.2251 17.8205 15.4277
v  15.5635 17.8205 18.0894
v  -15.1239 17.8205 18.0894
v  12.1626 20.9853 18.0894
v  12.1626 48.7916 18.0894
v  -11.7230 48.7916 18.0894
v  -11.7230 20.9853 18.0894
v  18.2251 20.9853 -12.1124
v  18.2251 48.7916 -12.1124
v  18.2251 48.7916 12.0268
v  18.2251 20.9853 12.0268
v  -11.7230 20.9853 -18.1749
v  -11.7230 48.7916 -18.1749
v  12.1626 48.7916 -18.1749
v  12.1626 20.9853 -18.1749
v  -17.7855 20.9853 12.0268
v  -17.7855 48.7916 12.0268
v  -17.7855 48.7916 -12.1124
v  -17.7855 20.9853 -12.1124
v  18.2251 51.9564 15.4277
v  15.5635 51.9564 18.0894
v  -19.8214 110.4347 16.2710
v  -20.4077 53.9380 16.5139
v  -16.2101 53.9380 20.7116
v  -15.9672 110.4347 20.1252
v  15.5635 51.9564 -18.1749
v  18.2251 51.9564 -15.5133
v  -17.7855 51.9564 -15.5133
v  -15.1239 51.9564 -18.1749
v  16.4068 110.4347 20.1252
v  20.2610 110.4347 16.2710
v  16.4068 110.4347 -20.2107
v  20.2610 110.4347 -16.3566
v  -15.9672 110.4347 -20.2107
v  -19.8214 110.4347 -16.3566
v  12.8722 107.1324 20.1595
v  -12.4325 107.1324 20.1595
v  -12.6470 57.2403 20.6773
v  13.0866 57.2403 20.6773
v  20.2952 107.1324 -12.8219
v  20.2952 107.1324 12.7364
v  20.8131 57.2403 12.9509
v  20.8131 57.2403 -13.0364
v  -12.4325 107.1324 -20.2450
v  12.8722 107.1324 -20.2450
v  13.0866 57.2403 -20.7628
v  -12.6470 57.2403 -20.7628
v  -19.8556 107.1324 12.7364
v  -19.8556 107.1324 -12.8219
v  -20.3735 57.2403 -13.0364
v  -20.3735 57.2403 12.9509
v  16.6497 53.9380 20.7116
v  20.8473 53.9380 16.5139
v  -15.1239 51.9564 18.0894
v  -17.7855 51.9564 15.4277
v  20.8473 53.9380 -16.5995
v  16.6497 53.9380 -20.7971
v  -16.2101 53.9380 -20.7971
v  -20.4077 53.9380 -16.5995
v  31.4335 16.0333 12.6149
v  31.5543 16.0333 -12.8082
v  31.5543 19.1308 -12.8082
v  31.4335 19.1308 12.6149
v  13.6629 16.0333 -30.8705
v  13.6629 19.1308 -30.8705
v  -11.7602 16.0333 -30.9913
v  -11.7602 19.1308 -30.9913
v  -29.8225 16.0333 -13.0999
v  -29.8225 19.1308 -13.0999
v  -29.9433 16.0333 12.3232
v  -29.9433 19.1308 12.3232
v  -12.0519 16.0333 30.3855
v  -12.0519 19.1308 30.3855
v  13.3712 16.0333 30.5063
v  13.3712 19.1308 30.5063
v  26.6845 16.0333 5.4340
v  26.7373 16.0333 -5.6728
v  15.1078 16.0333 5.7615
v  19.9059 16.0333 2.5883
v  15.1642 16.0333 -6.1103
v  19.9319 16.0333 -2.8917
v  15.0909 16.0333 22.0706
v  22.9819 16.0333 14.2543
v  6.6733 16.0333 14.1162
v  12.3098 16.0333 15.2652
v  16.2032 16.0333 11.4086
v  -4.8710 16.0333 25.6366
v  6.2358 16.0333 25.6893
v  -5.1985 16.0333 14.0598
v  -2.0254 16.0333 18.8579
v  3.4547 16.0333 18.8839
v  -21.5077 16.0333 14.0429
v  -13.6913 16.0333 21.9339
v  -13.5532 16.0333 5.6253
v  -14.7022 16.0333 11.2618
v  -10.8457 16.0333 15.1552
v  -25.0736 16.0333 -5.9190
v  -25.1264 16.0333 5.1878
v  -13.4968 16.0333 -6.2465
v  -18.2949 16.0333 -3.0734
v  -18.3209 16.0333 2.4067
v  -13.4799 16.0333 -22.5557
v  -21.3709 16.0333 -14.7393
v  -5.0623 16.0333 -14.6012
v  -10.6988 16.0333 -15.7502
v  -14.5922 16.0333 -11.8937
v  6.4820 16.0333 -26.1216
v  -4.6248 16.0333 -26.1744
v  6.8095 16.0333 -14.5448
v  3.6363 16.0333 -19.3429
v  -1.8437 16.0333 -19.3689
v  23.1186 16.0333 -14.5279
v  15.3023 16.0333 -22.4189
v  16.3132 16.0333 -11.7468
v  12.4566 16.0333 -15.6402
v  26.6845 -10.9983 5.4340
v  26.7373 -10.9983 -5.6728
v  19.9059 -10.9983 2.5883
v  19.9319 -10.9983 -2.8917
v  15.0909 -10.9983 22.0706
v  22.9819 -10.9983 14.2543
v  12.3098 -10.9983 15.2652
v  16.2032 -10.9983 11.4086
v  -4.8710 -10.9983 25.6366
v  6.2358 -10.9983 25.6893
v  -2.0254 -10.9983 18.8579
v  3.4547 -10.9983 18.8839
v  -21.5077 -10.9983 14.0429
v  -13.6913 -10.9983 21.9339
v  -14.7022 -10.9983 11.2618
v  -10.8457 -10.9983 15.1552
v  -25.0736 -10.9983 -5.9190
v  -25.1264 -10.9983 5.1878
v  -18.2949 -10.9983 -3.0734
v  -18.3209 -10.9983 2.4067
v  -13.4799 -10.9983 -22.5557
v  -21.3709 -10.9983 -14.7393
v  -10.6988 -10.9983 -15.7502
v  -14.5922 -10.9983 -11.8937
v  6.4820 -10.9983 -26.1216
v  -4.6248 -10.9983 -26.1744
v  3.6363 -10.9983 -19.3429
v  -1.8437 -10.9983 -19.3689
v  23.1186 -10.9983 -14.5279
v  15.3023 -10.9983 -22.4189
v  16.3132 -10.9983 -11.7468
v  12.4566 -10.9983 -15.6402
# 152 vertices

vn 0.0000 -1.0000 -0.0000
vn 0.0000 0.0000 1.0000
vn 1.0000 0.0000 -0.0000
vn 0.0000 0.0000 -1.0000
vn -1.0000 0.0000 -0.0000
vn 0.7071 0.0000 0.7071
vn -0.7071 0.0097 0.7071
vn 0.7071 0.0000 -0.7071
vn -0.7071 0.0000 -0.7071
vn 0.0000 1.0000 -0.0000
vn 0.0000 0.0097 1.0000
vn 1.0000 0.0097 -0.0000
vn 0.0000 0.0097 -1.0000
vn -1.0000 0.0097 -0.0000
vn 0.7071 0.0097 0.7071
vn -0.7071 0.0000 0.7071
vn 0.7071 0.0097 -0.7071
vn -0.7071 0.0097 -0.7071
vn 0.0000 -0.7763 0.6304
vn 0.4458 -0.7763 0.4458
vn 0.6304 -0.7763 -0.0000
vn 0.4458 -0.7763 -0.4458
vn 0.0000 -0.7763 -0.6304
vn -0.4458 -0.7763 -0.4458
vn -0.6304 -0.7763 -0.0000
vn -0.4458 -0.7763 0.4458
vn 1.0000 0.0000 0.0048
vn 0.7105 0.0000 -0.7037
vn 0.0048 0.0000 -1.0000
vn -0.7037 0.0000 -0.7105
vn -1.0000 0.0000 -0.0048
vn -0.7105 0.0000 0.7037
vn -0.0048 0.0000 1.0000
vn 0.7037 0.0000 0.7105
vn -0.3871 0.0000 0.9221
vn -0.3783 0.0000 -0.9257
vn -0.9257 0.0000 0.3783
vn 0.3871 0.0000 -0.9221
vn -0.9221 0.0000 -0.3871
vn 0.0047 0.0000 -1.0000
vn 0.9257 0.0000 -0.3783
vn 0.9221 0.0000 0.3871
vn 0.3783 0.0000 0.9257
# 43 vertex normals

vt 0.7598 0.4434 0.0000
vt 0.9149 0.4434 0.0000
vt 0.9283 0.4552 0.0000
vt 0.9149 0.6031 0.0000
vt 0.9283 0.5913 0.0000
vt 0.7598 0.6031 0.0000
vt 0.7464 0.5913 0.0000
vt 0.7464 0.4552 0.0000
vt 0.6465 0.0144 0.0000
vt 0.6465 0.3819 0.0000
vt 0.3685 0.3819 0.0000
vt 0.3685 0.0144 0.0000
vt 0.6524 0.0065 0.0000
vt 0.6524 0.3741 0.0000
vt 0.3714 0.3741 0.0000
vt 0.3714 0.0065 0.0000
vt 0.6477 -0.0017 0.0000
vt 0.6477 0.3659 0.0000
vt 0.3697 0.3659 0.0000
vt 0.3697 -0.0017 0.0000
vt 0.6534 0.0144 0.0000
vt 0.6534 0.3819 0.0000
vt 0.3724 0.3819 0.0000
vt 0.3724 0.0144 0.0000
vt 0.9284 0.0260 0.0000
vt 0.9284 0.2229 0.0000
vt 0.9142 0.2229 0.0000
vt 0.9142 0.0260 0.0000
vt 0.7254 0.5603 0.0000
vt 0.7223 0.2343 0.0000
vt 0.7447 0.2343 0.0000
vt 0.7460 0.5603 0.0000
vt 0.7623 0.0217 0.0000
vt 0.7623 0.2186 0.0000
vt 0.7481 0.2186 0.0000
vt 0.7481 0.0217 0.0000
vt 0.9402 0.0217 0.0000
vt 0.9402 0.2186 0.0000
vt 0.9260 0.2186 0.0000
vt 0.9260 0.0217 0.0000
vt 0.9378 0.4532 0.0000
vt 0.9378 0.5968 0.0000
vt 0.9185 0.6139 0.0000
vt 0.7355 0.5968 0.0000
vt 0.7549 0.6139 0.0000
vt 0.7355 0.4532 0.0000
vt 0.7549 0.4361 0.0000
vt 0.9185 0.4361 0.0000
vt 0.3298 0.5386 0.0000
vt 0.0092 0.5386 0.0000
vt 0.0065 0.0212 0.0000
vt 0.3326 0.0212 0.0000
vt 0.3564 0.5324 0.0000
vt 0.0326 0.5324 0.0000
vt 0.0298 0.0151 0.0000
vt 0.3591 0.0151 0.0000
vt 0.3580 0.5308 0.0000
vt 0.0374 0.5308 0.0000
vt 0.0347 0.0135 0.0000
vt 0.3608 0.0135 0.0000
vt 0.3530 0.5386 0.0000
vt 0.0292 0.5386 0.0000
vt 0.0264 0.0212 0.0000
vt 0.3557 0.0212 0.0000
vt 0.9392 0.5603 0.0000
vt 0.9187 0.5603 0.0000
vt 0.9200 0.2343 0.0000
vt 0.9424 0.2343 0.0000
vt 0.7363 0.0260 0.0000
vt 0.7505 0.0260 0.0000
vt 0.7505 0.2229 0.0000
vt 0.7363 0.2229 0.0000
vt 0.7578 0.5560 0.0000
vt 0.7373 0.5560 0.0000
vt 0.7342 0.2300 0.0000
vt 0.7565 0.2300 0.0000
vt 0.9511 0.5560 0.0000
vt 0.9305 0.5560 0.0000
vt 0.9318 0.2300 0.0000
vt 0.9542 0.2300 0.0000
vt 0.7333 0.5961 0.0000
vt 0.7333 0.4504 0.0000
vt 0.7543 0.6147 0.0000
vt 0.9204 0.6147 0.0000
vt 0.9414 0.5961 0.0000
vt 0.9414 0.4504 0.0000
vt 0.9204 0.4318 0.0000
vt 0.7543 0.4318 0.0000
vt 0.9010 0.2534 0.0000
vt 0.7637 0.2534 0.0000
vt 0.7648 0.5412 0.0000
vt 0.8998 0.5412 0.0000
vt 0.7545 0.2309 0.0000
vt 0.9312 0.2309 0.0000
vt 0.9121 0.2500 0.0000
vt 0.7735 0.2500 0.0000
vt 0.7558 0.5569 0.0000
vt 0.7747 0.5378 0.0000
vt 0.9299 0.5569 0.0000
vt 0.9110 0.5378 0.0000
vt 0.9128 0.2491 0.0000
vt 0.7756 0.2491 0.0000
vt 0.7767 0.5369 0.0000
vt 0.9117 0.5369 0.0000
vt 0.9284 0.5603 0.0000
vt 0.7544 0.5603 0.0000
vt 0.7732 0.5412 0.0000
vt 0.9096 0.5412 0.0000
vt 0.9297 0.2343 0.0000
vt 0.9107 0.2534 0.0000
vt 0.7531 0.2343 0.0000
vt 0.7721 0.2534 0.0000
vt 0.7686 0.2047 0.0000
vt 0.8960 0.2047 0.0000
vt 0.8960 0.0443 0.0000
vt 0.7686 0.0443 0.0000
vt 0.9254 0.2195 0.0000
vt 0.7603 0.2195 0.0000
vt 0.7785 0.2012 0.0000
vt 0.9072 0.2012 0.0000
vt 0.9254 0.0226 0.0000
vt 0.9072 0.0408 0.0000
vt 0.7603 0.0226 0.0000
vt 0.7785 0.0408 0.0000
vt 0.7805 0.2003 0.0000
vt 0.9079 0.2003 0.0000
vt 0.9079 0.0399 0.0000
vt 0.7805 0.0399 0.0000
vt 0.9239 0.2229 0.0000
vt 0.7589 0.2229 0.0000
vt 0.7770 0.2047 0.0000
vt 0.9058 0.2047 0.0000
vt 0.9239 0.0260 0.0000
vt 0.9058 0.0443 0.0000
vt 0.7589 0.0260 0.0000
vt 0.7770 0.0443 0.0000
vt 0.7886 0.2219 0.0000
vt 0.8069 0.2219 0.0000
vt 0.8069 0.2243 0.0000
vt 0.7886 0.2243 0.0000
vt 0.8199 0.2219 0.0000
vt 0.8199 0.2243 0.0000
vt 0.8310 0.1966 0.0000
vt 0.8493 0.1966 0.0000
vt 0.8493 0.1990 0.0000
vt 0.8310 0.1990 0.0000
vt 0.8623 0.1966 0.0000
vt 0.8623 0.1990 0.0000
vt 0.8734 0.1966 0.0000
vt 0.8917 0.1966 0.0000
vt 0.8917 0.1990 0.0000
vt 0.8734 0.1990 0.0000
vt 0.9047 0.1966 0.0000
vt 0.9047 0.1990 0.0000
vt 0.7886 0.1966 0.0000
vt 0.8069 0.1966 0.0000
vt 0.8069 0.1990 0.0000
vt 0.7886 0.1990 0.0000
vt 0.8199 0.1966 0.0000
vt 0.8199 0.1990 0.0000
vt 0.8104 0.1718 0.0000
vt 0.7921 0.1717 0.0000
vt 0.7973 0.1680 0.0000
vt 0.8053 0.1681 0.0000
vt 0.7970 0.1590 0.0000
vt 0.7993 0.1628 0.0000
vt 0.8056 0.1591 0.0000
vt 0.8033 0.1628 0.0000
vt 0.7792 0.1577 0.0000
vt 0.7853 0.1590 0.0000
vt 0.7909 0.1652 0.0000
vt 0.7910 0.1525 0.0000
vt 0.7902 0.1569 0.0000
vt 0.7930 0.1599 0.0000
vt 0.7793 0.1379 0.0000
vt 0.7827 0.1435 0.0000
vt 0.7827 0.1521 0.0000
vt 0.7911 0.1432 0.0000
vt 0.7876 0.1457 0.0000
vt 0.7876 0.1500 0.0000
vt 0.7923 0.1240 0.0000
vt 0.7911 0.1305 0.0000
vt 0.7854 0.1366 0.0000
vt 0.7971 0.1367 0.0000
vt 0.7931 0.1358 0.0000
vt 0.7903 0.1388 0.0000
vt 0.8106 0.1241 0.0000
vt 0.8054 0.1278 0.0000
vt 0.7974 0.1277 0.0000
vt 0.8057 0.1368 0.0000
vt 0.8034 0.1330 0.0000
vt 0.7994 0.1330 0.0000
vt 0.8235 0.1381 0.0000
vt 0.8174 0.1368 0.0000
vt 0.8118 0.1306 0.0000
vt 0.8117 0.1433 0.0000
vt 0.8125 0.1389 0.0000
vt 0.8097 0.1359 0.0000
vt 0.8234 0.1579 0.0000
vt 0.8200 0.1523 0.0000
vt 0.8200 0.1437 0.0000
vt 0.8116 0.1526 0.0000
vt 0.8151 0.1501 0.0000
vt 0.8151 0.1458 0.0000
vt 0.8116 0.1653 0.0000
vt 0.8173 0.1592 0.0000
vt 0.8096 0.1600 0.0000
vt 0.8124 0.1570 0.0000
vt 0.8018 0.2219 0.0000
vt 0.7938 0.2219 0.0000
vt 0.7938 0.2009 0.0000
vt 0.8018 0.2009 0.0000
vt 0.8165 0.1966 0.0000
vt 0.8116 0.1966 0.0000
vt 0.8116 0.1756 0.0000
vt 0.8165 0.1756 0.0000
vt 0.8847 0.1966 0.0000
vt 0.8808 0.1966 0.0000
vt 0.8808 0.1756 0.0000
vt 0.8847 0.1756 0.0000
vt 0.8265 0.1966 0.0000
vt 0.8216 0.1966 0.0000
vt 0.8216 0.1756 0.0000
vt 0.8265 0.1756 0.0000
vt 0.8138 0.1966 0.0000
vt 0.8082 0.1966 0.0000
vt 0.8082 0.1756 0.0000
vt 0.8138 0.1756 0.0000
vt 0.8987 0.1966 0.0000
vt 0.8938 0.1966 0.0000
vt 0.8938 0.1756 0.0000
vt 0.8987 0.1756 0.0000
vt 0.8320 0.1966 0.0000
vt 0.8292 0.1966 0.0000
vt 0.8292 0.1756 0.0000
vt 0.8320 0.1756 0.0000
vt 0.8243 0.1966 0.0000
vt 0.8243 0.1756 0.0000
vt 0.8018 0.1966 0.0000
vt 0.7938 0.1966 0.0000
vt 0.7938 0.1756 0.0000
vt 0.8018 0.1756 0.0000
vt 0.9013 0.1966 0.0000
vt 0.8964 0.1966 0.0000
vt 0.8964 0.1756 0.0000
vt 0.9013 0.1756 0.0000
vt 0.8423 0.1966 0.0000
vt 0.8384 0.1966 0.0000
vt 0.8384 0.1756 0.0000
vt 0.8423 0.1756 0.0000
vt 0.7841 0.2219 0.0000
vt 0.7792 0.2219 0.0000
vt 0.7792 0.2009 0.0000
vt 0.7841 0.2009 0.0000
vt 0.8986 0.1966 0.0000
vt 0.8930 0.1966 0.0000
vt 0.8930 0.1756 0.0000
vt 0.8986 0.1756 0.0000
vt 0.8563 0.1966 0.0000
vt 0.8514 0.1966 0.0000
vt 0.8514 0.1756 0.0000
vt 0.8563 0.1756 0.0000
vt 0.7896 0.2219 0.0000
vt 0.7868 0.2219 0.0000
vt 0.7868 0.2009 0.0000
vt 0.7896 0.2009 0.0000
vt 0.7819 0.2219 0.0000
vt 0.7819 0.2009 0.0000
vt 0.8866 0.1966 0.0000
vt 0.8786 0.1966 0.0000
vt 0.8786 0.1756 0.0000
vt 0.8866 0.1756 0.0000
vt 0.8589 0.1966 0.0000
vt 0.8540 0.1966 0.0000
vt 0.8540 0.1756 0.0000
vt 0.8589 0.1756 0.0000
vt 0.7999 0.2219 0.0000
vt 0.7960 0.2219 0.0000
vt 0.7960 0.2009 0.0000
vt 0.7999 0.2009 0.0000
vt 0.7841 0.1966 0.0000
vt 0.7792 0.1966 0.0000
vt 0.7792 0.1756 0.0000
vt 0.7841 0.1756 0.0000
vt 0.8562 0.1966 0.0000
vt 0.8506 0.1966 0.0000
vt 0.8506 0.1756 0.0000
vt 0.8562 0.1756 0.0000
vt 0.8139 0.2219 0.0000
vt 0.8090 0.2219 0.0000
vt 0.8090 0.2009 0.0000
vt 0.8139 0.2009 0.0000
vt 0.7896 0.1966 0.0000
vt 0.7868 0.1966 0.0000
vt 0.7868 0.1756 0.0000
vt 0.7896 0.1756 0.0000
vt 0.7819 0.1966 0.0000
vt 0.7819 0.1756 0.0000
vt 0.8442 0.1966 0.0000
vt 0.8362 0.1966 0.0000
vt 0.8362 0.1756 0.0000
vt 0.8442 0.1756 0.0000
vt 0.8165 0.2219 0.0000
vt 0.8116 0.2219 0.0000
vt 0.8116 0.2009 0.0000
vt 0.8165 0.2009 0.0000
vt 0.7999 0.1966 0.0000
vt 0.7960 0.1966 0.0000
vt 0.7960 0.1756 0.0000
vt 0.7999 0.1756 0.0000
vt 0.8689 0.1966 0.0000
vt 0.8640 0.1966 0.0000
vt 0.8640 0.1756 0.0000
vt 0.8689 0.1756 0.0000
vt 0.8138 0.2219 0.0000
vt 0.8082 0.2219 0.0000
vt 0.8082 0.2009 0.0000
vt 0.8138 0.2009 0.0000
vt 0.8139 0.1966 0.0000
vt 0.8090 0.1966 0.0000
vt 0.8090 0.1756 0.0000
vt 0.8139 0.1756 0.0000
vt 0.8744 0.1966 0.0000
vt 0.8716 0.1966 0.0000
vt 0.8716 0.1756 0.0000
vt 0.8744 0.1756 0.0000
vt 0.8667 0.1966 0.0000
vt 0.8667 0.1756 0.0000
vt 0.8583 0.1717 0.0000
vt 0.8400 0.1718 0.0000
vt 0.8270 0.1579 0.0000
vt 0.8711 0.1379 0.0000
vt 0.8269 0.1381 0.0000
vt 0.8398 0.1241 0.0000
vt 0.8581 0.1240 0.0000
vt 0.8711 0.1577 0.0000
# 336 texture coords

g Box021
s off
f 1/1/1 2/2/1 3/3/1 4/4/1 
f 3/3/1 5/5/1 4/4/1 
f 4/4/1 6/6/1 7/7/1 1/1/1 
f 8/8/1 1/1/1 7/7/1 
f 9/9/2 10/10/2 11/11/2 12/12/2 
f 13/13/3 14/14/3 15/15/3 16/16/3 
f 17/17/4 18/18/4 19/19/4 20/20/4 
f 21/21/5 22/22/5 23/23/5 24/24/5 
f 6/25/6 25/26/6 26/27/6 7/28/6 
f 27/29/7 28/30/7 29/31/7 30/32/7 
f 5/33/8 31/34/8 32/35/8 4/36/8 
f 2/37/9 33/38/9 34/39/9 3/40/9 
f 30/41/10 35/42/10 36/43/10 37/44/10 
f 36/43/10 38/45/10 37/44/10 
f 37/44/10 39/46/10 40/47/10 30/41/10 
f 27/48/10 30/41/10 40/47/10 
f 41/49/11 42/50/11 43/51/11 44/52/11 
f 45/53/12 46/54/12 47/55/12 48/56/12 
f 49/57/13 50/58/13 51/59/13 52/60/13 
f 53/61/14 54/62/14 55/63/14 56/64/14 
f 36/65/15 35/66/15 57/67/15 58/68/15 
f 1/69/16 8/70/16 59/71/16 60/72/16 
f 37/73/17 38/74/17 61/75/17 62/76/17 
f 40/77/18 39/78/18 63/79/18 64/80/18 
f 59/8/19 26/7/19 57/81/19 29/82/19 
f 26/7/20 25/6/20 58/83/20 57/81/20 
f 25/6/21 32/4/21 61/84/21 58/83/21 
f 32/4/22 31/5/22 62/85/22 61/84/22 
f 31/5/23 34/3/23 63/86/23 62/85/23 
f 34/3/24 33/2/24 64/87/24 63/86/24 
f 33/2/25 60/1/25 28/88/25 64/87/25 
f 60/1/26 59/8/26 29/82/26 28/88/26 
f 29/31/11 57/67/11 44/89/11 43/90/11 
f 30/32/11 29/31/11 43/90/11 42/91/11 
f 35/66/11 30/32/11 42/91/11 41/92/11 
f 57/67/11 35/66/11 41/92/11 44/89/11 
f 58/93/12 61/94/12 48/95/12 47/96/12 
f 36/97/12 58/93/12 47/96/12 46/98/12 
f 38/99/12 36/97/12 46/98/12 45/100/12 
f 61/94/12 38/99/12 45/100/12 48/95/12 
f 62/76/13 63/79/13 52/101/13 51/102/13 
f 37/73/13 62/76/13 51/102/13 50/103/13 
f 39/78/13 37/73/13 50/103/13 49/104/13 
f 63/79/13 39/78/13 49/104/13 52/101/13 
f 27/105/14 40/106/14 54/107/14 53/108/14 
f 28/109/14 27/105/14 53/108/14 56/110/14 
f 64/111/14 28/109/14 56/110/14 55/112/14 
f 40/106/14 64/111/14 55/112/14 54/107/14 
f 26/27/2 59/71/2 11/113/2 10/114/2 
f 7/28/2 26/27/2 10/114/2 9/115/2 
f 8/70/2 7/28/2 9/115/2 12/116/2 
f 59/71/2 8/70/2 12/116/2 11/113/2 
f 32/117/3 25/118/3 15/119/3 14/120/3 
f 4/121/3 32/117/3 14/120/3 13/122/3 
f 6/123/3 4/121/3 13/122/3 16/124/3 
f 25/118/3 6/123/3 16/124/3 15/119/3 
f 34/39/4 31/34/4 19/125/4 18/126/4 
f 3/40/4 34/39/4 18/126/4 17/127/4 
f 5/33/4 3/40/4 17/127/4 20/128/4 
f 31/34/4 5/33/4 20/128/4 19/125/4 
f 60/129/5 33/130/5 23/131/5 22/132/5 
f 1/133/5 60/129/5 22/132/5 21/134/5 
f 2/135/5 1/133/5 21/134/5 24/136/5 
f 33/130/5 2/135/5 24/136/5 23/131/5 
f 65/137/27 66/138/27 67/139/27 68/140/27 
f 66/138/28 69/141/28 70/142/28 67/139/28 
f 69/143/29 71/144/29 72/145/29 70/146/29 
f 71/144/30 73/147/30 74/148/30 72/145/30 
f 73/149/31 75/150/31 76/151/31 74/152/31 
f 75/150/32 77/153/32 78/154/32 76/151/32 
f 77/155/33 79/156/33 80/157/33 78/158/33 
f 79/156/34 65/159/34 68/160/34 80/157/34 
f 66/161/1 65/162/1 81/163/1 82/164/1 
f 65/162/1 83/165/1 84/166/1 81/163/1 
f 83/165/1 85/167/1 86/168/1 84/166/1 
f 85/167/1 66/161/1 82/164/1 86/168/1 
f 65/162/1 79/169/1 87/170/1 88/171/1 
f 79/169/1 89/172/1 90/173/1 87/170/1 
f 89/172/1 83/165/1 91/174/1 90/173/1 
f 83/165/1 65/162/1 88/171/1 91/174/1 
f 79/169/1 77/175/1 92/176/1 93/177/1 
f 77/175/1 94/178/1 95/179/1 92/176/1 
f 94/178/1 89/172/1 96/180/1 95/179/1 
f 89/172/1 79/169/1 93/177/1 96/180/1 
f 77/175/1 75/181/1 97/182/1 98/183/1 
f 75/181/1 99/184/1 100/185/1 97/182/1 
f 99/184/1 94/178/1 101/186/1 100/185/1 
f 94/178/1 77/175/1 98/183/1 101/186/1 
f 75/181/1 73/187/1 102/188/1 103/189/1 
f 73/187/1 104/190/1 105/191/1 102/188/1 
f 104/190/1 99/184/1 106/192/1 105/191/1 
f 99/184/1 75/181/1 103/189/1 106/192/1 
f 73/187/1 71/193/1 107/194/1 108/195/1 
f 71/193/1 109/196/1 110/197/1 107/194/1 
f 109/196/1 104/190/1 111/198/1 110/197/1 
f 104/190/1 73/187/1 108/195/1 111/198/1 
f 71/193/1 69/199/1 112/200/1 113/201/1 
f 69/199/1 114/202/1 115/203/1 112/200/1 
f 114/202/1 109/196/1 116/204/1 115/203/1 
f 109/196/1 71/193/1 113/201/1 116/204/1 
f 69/199/1 66/161/1 117/205/1 118/206/1 
f 66/161/1 85/167/1 119/207/1 117/205/1 
f 85/167/1 114/202/1 120/208/1 119/207/1 
f 114/202/1 69/199/1 118/206/1 120/208/1 
f 82/209/27 81/210/27 121/211/27 122/212/27 
f 81/213/35 84/214/35 123/215/35 121/216/35 
f 84/217/31 86/218/31 124/219/31 123/220/31 
f 86/221/36 82/222/36 122/223/36 124/224/36 
f 88/225/34 87/226/34 125/227/34 126/228/34 
f 87/229/37 90/230/37 127/231/37 125/232/37 
f 90/233/30 91/234/30 128/235/30 127/236/30 
f 91/234/38 88/237/38 126/238/38 128/235/38 
f 93/239/33 92/240/33 129/241/33 130/242/33 
f 92/243/39 95/244/39 131/245/39 129/246/39 
f 95/247/40 96/248/40 132/249/40 131/250/40 
f 96/251/41 93/252/41 130/253/41 132/254/41 
f 98/255/32 97/256/32 133/257/32 134/258/32 
f 97/259/36 100/260/36 135/261/36 133/262/36 
f 100/263/28 101/264/28 136/265/28 135/266/28 
f 101/264/42 98/267/42 134/268/42 136/265/42 
f 103/269/31 102/270/31 137/271/31 138/272/31 
f 102/273/38 105/274/38 139/275/38 137/276/38 
f 105/277/27 106/278/27 140/279/27 139/280/27 
f 106/281/43 103/282/43 138/283/43 140/284/43 
f 108/285/30 107/286/30 141/287/30 142/288/30 
f 107/289/41 110/290/41 143/291/41 141/292/41 
f 110/293/34 111/294/34 144/295/34 143/296/34 
f 111/294/35 108/297/35 142/298/35 144/295/35 
f 113/299/29 112/300/29 145/301/29 146/302/29 
f 112/303/42 115/304/42 147/305/42 145/306/42 
f 115/307/33 116/308/33 148/309/33 147/310/33 
f 116/311/37 113/312/37 146/313/37 148/314/37 
f 118/315/28 117/316/28 149/317/28 150/318/28 
f 117/319/43 119/320/43 151/321/43 149/322/43 
f 119/323/32 120/324/32 152/325/32 151/326/32 
f 120/324/39 118/327/39 150/328/39 152/325/39 
f 70/329/10 72/330/10 74/331/10 68/332/10 
f 74/331/10 76/333/10 78/334/10 68/332/10 
f 78/334/10 80/335/10 68/332/10 
f 67/336/10 70/329/10 68/332/10 
f 89/172/1 94/178/1 99/184/1 85/167/1 
f 99/184/1 104/190/1 109/196/1 85/167/1 
f 109/196/1 114/202/1 85/167/1 
f 83/165/1 89/172/1 85/167/1 
# 136 polygons - 8 triangles

