# 3ds Max Wavefront OBJ Exporter v0.97b - (c)2007 guruware
# File Created: 17.09.2011 00:33:47

#
# object Box022
#

v  -19.9343 113.8042 20.2456
v  20.5231 113.8042 20.2456
v  20.5231 113.8042 -20.2117
v  -19.9343 113.8042 -20.2117
v  -20.8086 -12.0774 21.1199
v  21.3974 -12.0774 21.1199
v  21.3974 54.5301 21.1199
v  -20.8086 54.5301 21.1199
v  21.3974 -12.0774 -21.0860
v  21.3974 54.5301 -21.0860
v  -20.8086 -12.0774 -21.0860
v  -20.8086 54.5301 -21.0860
# 12 vertices

vn 0.0000 1.0000 -0.0000
vn 0.0000 0.0000 1.0000
vn 1.0000 0.0000 -0.0000
vn 0.0000 0.0000 -1.0000
vn -1.0000 0.0000 -0.0000
vn 0.0000 0.0147 0.9999
vn 0.9999 0.0147 -0.0000
vn 0.0000 0.0147 -0.9999
vn -0.9999 0.0147 -0.0000
# 9 vertex normals

vt 0.7346 0.4255 0.0000
vt 0.9407 0.4255 0.0000
vt 0.9407 0.6152 0.0000
vt 0.7346 0.6152 0.0000
vt 0.3653 0.0103 0.0000
vt 0.6608 0.0103 0.0000
vt 0.6608 0.5116 0.0000
vt 0.3653 0.5116 0.0000
vt 0.3588 0.0103 0.0000
vt 0.6543 0.0103 0.0000
vt 0.6543 0.5116 0.0000
vt 0.3588 0.5116 0.0000
vt 0.3670 0.0136 0.0000
vt 0.6625 0.0136 0.0000
vt 0.6625 0.5150 0.0000
vt 0.3670 0.5150 0.0000
vt 0.3605 0.0103 0.0000
vt 0.6560 0.0103 0.0000
vt 0.6560 0.5116 0.0000
vt 0.3605 0.5116 0.0000
vt 0.0075 0.0064 0.0000
vt 0.3557 0.0064 0.0000
vt 0.3485 0.5568 0.0000
vt 0.0147 0.5568 0.0000
vt 0.0066 0.0075 0.0000
vt 0.3548 0.0075 0.0000
vt 0.3476 0.5579 0.0000
vt 0.0138 0.5579 0.0000
vt 0.0075 0.0101 0.0000
vt 0.3557 0.0101 0.0000
vt 0.3485 0.5605 0.0000
vt 0.0147 0.5605 0.0000
vt 0.0093 0.0050 0.0000
vt 0.3576 0.0050 0.0000
vt 0.3503 0.5554 0.0000
vt 0.0165 0.5554 0.0000
# 36 texture coords

g Box022
s off
f 1/1/1 2/2/1 3/3/1 4/4/1 
f 5/5/2 6/6/2 7/7/2 8/8/2 
f 6/9/3 9/10/3 10/11/3 7/12/3 
f 9/13/4 11/14/4 12/15/4 10/16/4 
f 11/17/5 5/18/5 8/19/5 12/20/5 
f 8/21/6 7/22/6 2/23/6 1/24/6 
f 7/25/7 10/26/7 3/27/7 2/28/7 
f 10/29/8 12/30/8 4/31/8 3/32/8 
f 12/33/9 8/34/9 1/35/9 4/36/9 
# 9 polygons

