# 3ds Max Wavefront OBJ Exporter v0.97b - (c)2007 guruware
# File Created: 17.09.2011 20:37:34

#
# object Box038
#

v  -37.2958 44.2464 39.1161
v  34.6040 44.2464 39.1161
v  34.6040 44.2464 -44.4995
v  -37.2958 44.2464 -44.4995
v  34.6040 -36.8109 39.1161
v  34.6040 16.3306 39.1161
v  -37.2958 16.3306 39.1161
v  -37.2958 -36.8109 39.1161
v  34.6040 -36.8109 -44.4995
v  34.6040 16.3306 -44.4995
v  -37.2958 -36.8109 -44.4995
v  -37.2958 16.3306 -44.4995
v  -29.4414 86.8239 -5.3673
v  28.7975 86.8239 -5.3673
v  28.7975 86.8239 -36.7616
v  -29.4414 86.8239 -36.7616
v  -29.4414 42.7921 14.7066
v  28.7975 42.7921 14.7066
v  28.7975 42.7921 -36.7616
v  -29.4414 42.7921 -36.7616
# 20 vertices

vn 0.0000 1.0000 -0.0000
vn 0.0000 0.0000 1.0000
vn 1.0000 0.0000 -0.0000
vn 0.0000 0.0000 -1.0000
vn -1.0000 0.0000 -0.0000
vn 0.0000 1.0000 0.0000
vn 0.0000 0.3718 0.9283
# 7 vertex normals

vt 0.7083 0.0363 0.0000
vt 0.9535 0.0363 0.0000
vt 0.9535 0.2782 0.0000
vt 0.7083 0.2782 0.0000
vt 0.9514 0.0119 0.0000
vt 0.9514 0.1869 0.0000
vt 0.7063 0.1869 0.0000
vt 0.7063 0.0119 0.0000
vt 0.9651 0.0163 0.0000
vt 0.9651 0.1913 0.0000
vt 0.6800 0.1913 0.0000
vt 0.6800 0.0163 0.0000
vt 0.9561 0.0136 0.0000
vt 0.9561 0.1886 0.0000
vt 0.7109 0.1886 0.0000
vt 0.7109 0.0136 0.0000
vt 0.9590 0.0102 0.0000
vt 0.9590 0.1851 0.0000
vt 0.6739 0.1851 0.0000
vt 0.6739 0.0102 0.0000
vt 0.7351 0.1650 0.0000
vt 0.9337 0.1650 0.0000
vt 0.9337 0.2558 0.0000
vt 0.7351 0.2558 0.0000
vt 0.7331 0.2740 0.0000
vt 0.9316 0.2740 0.0000
vt 0.9316 0.4190 0.0000
vt 0.7331 0.4190 0.0000
vt 0.7633 0.2784 0.0000
vt 0.9387 0.2784 0.0000
vt 0.9387 0.4234 0.0000
vt 0.8317 0.4234 0.0000
vt 0.7307 0.2757 0.0000
vt 0.9293 0.2757 0.0000
vt 0.9293 0.4207 0.0000
vt 0.7307 0.4207 0.0000
vt 0.7003 0.2723 0.0000
vt 0.8758 0.2723 0.0000
vt 0.8073 0.4173 0.0000
vt 0.7003 0.4173 0.0000
vt 0.3382 0.1800 0.0000
vt 0.0440 0.1800 0.0000
vt 0.0440 0.0053 0.0000
vt 0.3382 0.0053 0.0000
vt 0.3505 0.1780 0.0000
vt 0.0084 0.1780 0.0000
vt 0.0084 0.0033 0.0000
vt 0.3505 0.0033 0.0000
vt 0.3396 0.1791 0.0000
vt 0.0455 0.1791 0.0000
vt 0.0455 0.0045 0.0000
vt 0.3396 0.0045 0.0000
vt 0.3514 0.1808 0.0000
vt 0.0093 0.1808 0.0000
vt 0.0093 0.0061 0.0000
vt 0.3514 0.0061 0.0000
# 56 texture coords

g Box038
s off
f 1/1/1 2/2/1 3/3/1 4/4/1 
f 5/5/2 6/6/2 7/7/2 8/8/2 
f 9/9/3 10/10/3 6/11/3 5/12/3 
f 11/13/4 12/14/4 10/15/4 9/16/4 
f 8/17/5 7/18/5 12/19/5 11/20/5 
f 13/21/6 14/22/6 15/23/6 16/24/6 
f 17/25/7 18/26/7 14/27/7 13/28/7 
f 18/29/3 19/30/3 15/31/3 14/32/3 
f 19/33/4 20/34/4 16/35/4 15/36/4 
f 20/37/5 17/38/5 13/39/5 16/40/5 
f 2/41/2 1/42/2 7/43/2 6/44/2 
f 3/45/3 2/46/3 6/47/3 10/48/3 
f 4/49/4 3/50/4 10/51/4 12/52/4 
f 1/53/5 4/54/5 12/55/5 7/56/5 
# 14 polygons

