# Blender v2.65 (sub 0) OBJ File: 'scale-wankery.blend'
# www.blender.org
o Box011
v 13.460300 56.902096 13.378559
v 13.460300 56.902103 -13.280641
v -13.198950 56.902103 -13.280641
v -13.198950 56.902096 13.378559
v 14.036450 -6.038702 13.954649
v 14.036450 27.265049 13.954655
v -13.775050 27.265049 13.954655
v -13.775050 -6.038702 13.954649
v 14.036450 -6.038698 -13.856750
v 14.036450 27.265053 -13.856745
v -13.775050 -6.038698 -13.856750
v -13.775050 27.265053 -13.856745
v 13.460300 56.902096 13.378559
v 13.460300 56.902096 13.378559
v 14.036450 27.265049 13.954655
v -13.775050 -6.038698 -13.856750
v -13.775050 27.265053 -13.856745
v 14.036450 -6.038698 -13.856750
v 14.036450 27.265053 -13.856745
v 13.460300 56.902103 -13.280641
v 13.460300 56.902103 -13.280641
v -13.198950 56.902103 -13.280641
v -13.198950 56.902103 -13.280641
v -13.198950 56.902096 13.378559
v -13.198950 56.902096 13.378559
v 14.036450 -6.038702 13.954649
v -13.775050 27.265049 13.954655
v -13.775050 -6.038702 13.954649
vt 0.940700 0.425500
vt 0.940700 0.615200
vt 0.734600 0.615200
vt 0.734600 0.425500
vt 0.660800 0.010300
vt 0.660800 0.511600
vt 0.365300 0.511600
vt 0.365300 0.010300
vt 0.654300 0.010300
vt 0.654300 0.511600
vt 0.358800 0.511600
vt 0.358800 0.010300
vt 0.662500 0.013600
vt 0.662500 0.515000
vt 0.367000 0.515000
vt 0.367000 0.013600
vt 0.656000 0.010300
vt 0.656000 0.511600
vt 0.360500 0.511600
vt 0.360500 0.010300
vt 0.355700 0.006400
vt 0.348500 0.556800
vt 0.014700 0.556800
vt 0.007500 0.006400
vt 0.013800 0.557900
vt 0.006600 0.007500
vt 0.354800 0.007500
vt 0.347600 0.557900
vt 0.355700 0.010100
vt 0.348500 0.560500
vt 0.014700 0.560500
vt 0.007500 0.010100
vt 0.357600 0.005000
vt 0.350300 0.555400
vt 0.016500 0.555400
vt 0.009300 0.005000
vn 0.000000 1.000000 0.000000
vn 0.000000 0.000000 1.000000
vn 0.000000 0.009644 0.999939
vn 1.000000 0.000000 0.000000
vn 0.999939 0.009644 0.000000
vn 0.000000 0.000000 -1.000000
vn 0.000000 0.009644 -0.999939
vn -1.000000 0.000000 0.000000
vn -0.999939 0.009644 0.000000
vn 0.000000 0.019410 0.999786
vn 0.999786 0.019410 0.000000
vn 0.000000 0.019410 -0.999786
vn -0.999786 0.019410 0.000000
s 1
f 13/1/1 2/2/1 3/3/1 4/4/1
f 26/5/2 6/6/3 7/7/3 8/8/2
f 9/9/4 10/10/5 15/11/5 5/12/4
f 11/13/6 12/14/7 19/15/7 18/16/6
f 28/17/8 27/18/9 17/19/9 16/20/8
f 6/21/3 1/22/10 24/23/10 7/24/3
f 14/25/11 15/26/5 10/27/5 20/28/11
f 12/29/7 22/30/12 21/31/12 19/32/7
f 27/33/9 25/34/13 23/35/13 17/36/9
