# 3ds Max Wavefront OBJ Exporter v0.97b - (c)2007 guruware
# File Created: 17.09.2011 00:10:33

#
# object Box018
#

v  -0.1127 215.7488 1.7434
v  2.9712 215.7488 1.7434
v  2.9712 215.7488 -2.4777
v  -0.1127 215.7488 -2.4777
v  -16.9058 -12.5909 17.8775
v  19.7644 -12.5909 17.8775
v  19.7644 169.5824 17.8775
v  -16.9058 169.5824 17.8775
v  19.7644 -12.5909 -18.6118
v  19.7644 169.5824 -18.6118
v  -16.9058 -12.5909 -18.6118
v  -16.9058 169.5824 -18.6118
# 12 vertices

vn 0.0000 1.0000 -0.0000
vn 0.0000 0.0000 1.0000
vn 1.0000 0.0000 -0.0000
vn 0.0000 0.0000 -1.0000
vn -1.0000 0.0000 -0.0000
vn 0.0000 0.3939 0.9191
vn 0.9191 0.3939 -0.0000
vn 0.0000 0.3939 -0.9191
vn -0.9191 0.3939 -0.0000
# 9 vertex normals

vt 0.8087 0.8368 0.0000
vt 0.8087 0.8527 0.0000
vt 0.7860 0.8527 0.0000
vt 0.7860 0.8368 0.0000
vt 0.0326 -0.0266 0.0000
vt 0.3451 -0.0266 0.0000
vt 0.3451 1.2863 0.0000
vt 0.0326 1.2863 0.0000
vt 0.0220 -0.0266 0.0000
vt 0.3457 -0.0266 0.0000
vt 0.3457 1.2863 0.0000
vt 0.0220 1.2863 0.0000
vt 0.0320 -0.0266 0.0000
vt 0.3445 -0.0266 0.0000
vt 0.3445 1.2863 0.0000
vt 0.0320 1.2863 0.0000
vt 0.0203 -0.0310 0.0000
vt 0.3440 -0.0310 0.0000
vt 0.3440 1.2819 0.0000
vt 0.0203 1.2819 0.0000
vt 0.8109 0.6637 0.0000
vt 0.8614 0.6637 0.0000
vt 0.8382 0.7174 0.0000
vt 0.8340 0.7174 0.0000
vt 0.8092 0.6637 0.0000
vt 0.8383 0.7174 0.0000
vt 0.8323 0.7174 0.0000
vt 0.8108 0.6637 0.0000
vt 0.8613 0.6637 0.0000
vt 0.8381 0.7174 0.0000
vt 0.8339 0.7174 0.0000
vt 0.8089 0.6630 0.0000
vt 0.8612 0.6630 0.0000
vt 0.8380 0.7167 0.0000
vt 0.8320 0.7167 0.0000
# 35 texture coords

g Box018
s off
f 1/1/1 2/2/1 3/3/1 4/4/1 
f 5/5/2 6/6/2 7/7/2 8/8/2 
f 6/9/3 9/10/3 10/11/3 7/12/3 
f 9/13/4 11/14/4 12/15/4 10/16/4 
f 11/17/5 5/18/5 8/19/5 12/20/5 
f 8/21/6 7/22/6 2/23/6 1/24/6 
f 7/25/7 10/22/7 3/26/7 2/27/7 
f 10/28/8 12/29/8 4/30/8 3/31/8 
f 12/32/9 8/33/9 1/34/9 4/35/9 
# 9 polygons

