# 3ds Max Wavefront OBJ Exporter v0.97b - (c)2007 guruware
# File Created: 17.09.2011 20:57:53

#
# object Cylinder002
#

v  13.8038 -12.3084 -24.3322
v  13.8038 144.4635 -24.3322
v  27.1795 144.4635 -1.1650
v  27.1795 -12.3084 -1.1650
v  -12.9474 -12.3084 -24.3322
v  -12.9474 144.4635 -24.3322
v  -26.3231 -12.3084 -1.1650
v  -26.3231 144.4635 -1.1650
v  -12.9474 -12.3084 22.0023
v  -12.9474 144.4635 22.0023
v  13.8038 -12.3084 22.0023
v  13.8038 144.4635 22.0023
v  5.1940 191.5564 -9.4196
v  -4.3376 191.5564 -9.4196
v  -9.1033 191.5564 -1.1650
v  5.1940 191.5564 7.0896
v  -4.3375 191.5564 7.0896
v  9.9598 191.5564 -1.1650
v  5.6573 149.6509 -10.2222
v  10.8867 149.6509 -1.1650
v  -4.8010 149.6509 -10.2222
v  -10.0302 149.6509 -1.1650
v  -4.8010 149.6509 7.8923
v  5.6573 149.6509 7.8923
# 24 vertices

vn 0.8660 0.0000 -0.5000
vn 0.0000 0.0000 -1.0000
vn -0.8660 0.0000 -0.5000
vn -0.8660 0.0000 0.5000
vn 0.0000 0.0000 1.0000
vn 0.8660 0.0000 0.5000
vn 0.0000 1.0000 -0.0000
vn 0.3202 0.9291 -0.1849
vn 0.0000 0.9291 -0.3697
vn -0.3202 0.9291 -0.1849
vn -0.3202 0.9291 0.1849
vn 0.0000 0.9291 0.3697
vn 0.3202 0.9291 0.1849
vn 0.8659 0.0177 -0.4999
vn 0.0000 0.0177 -0.9998
vn -0.8659 0.0177 -0.4999
vn -0.8659 0.0177 0.4999
vn 0.0000 0.0177 0.9998
vn 0.8659 0.0177 0.4999
# 19 vertex normals

vt 0.3501 0.0091 0.0000
vt 0.3501 0.9771 0.0000
vt 0.1814 0.9771 0.0000
vt 0.1814 0.0091 0.0000
vt 0.3410 0.0099 0.0000
vt 0.3410 0.9779 0.0000
vt 0.1463 0.9779 0.0000
vt 0.1463 0.0099 0.0000
vt 0.1728 0.0090 0.0000
vt 0.1728 0.9771 0.0000
vt 0.0042 0.9771 0.0000
vt 0.0042 0.0090 0.0000
vt 0.3414 0.0090 0.0000
vt 0.3414 0.9771 0.0000
vt 0.3374 0.0087 0.0000
vt 0.3374 0.9767 0.0000
vt 0.1427 0.9767 0.0000
vt 0.1427 0.0087 0.0000
vt 0.0128 0.9771 0.0000
vt 0.0128 0.0091 0.0000
vt 0.8637 0.7278 0.0000
vt 0.8103 0.7278 0.0000
vt 0.7836 0.6864 0.0000
vt 0.8637 0.6450 0.0000
vt 0.8103 0.6450 0.0000
vt 0.8904 0.6864 0.0000
vt 0.9119 0.8027 0.0000
vt 0.8663 0.7319 0.0000
vt 0.8956 0.6864 0.0000
vt 0.9868 0.6864 0.0000
vt 0.7621 0.8027 0.0000
vt 0.8077 0.7319 0.0000
vt 0.6872 0.6864 0.0000
vt 0.7785 0.6864 0.0000
vt 0.7621 0.5701 0.0000
vt 0.8077 0.6409 0.0000
vt 0.9119 0.5701 0.0000
vt 0.8663 0.6409 0.0000
vt 0.8568 0.2313 0.0000
vt 0.6936 0.2284 0.0000
vt 0.6936 0.1987 0.0000
vt 0.8568 0.1987 0.0000
vt 0.8587 0.3337 0.0000
vt 0.6955 0.3320 0.0000
vt 0.6955 0.2977 0.0000
vt 0.8587 0.2960 0.0000
vt 0.7990 0.2632 0.0000
vt 0.9622 0.2632 0.0000
vt 0.9622 0.2929 0.0000
vt 0.7990 0.2958 0.0000
vt 0.7990 0.2306 0.0000
vt 0.9622 0.2335 0.0000
vt 0.8587 0.3741 0.0000
vt 0.6955 0.3724 0.0000
vt 0.6955 0.3381 0.0000
vt 0.8587 0.3365 0.0000
vt 0.6936 0.1690 0.0000
vt 0.8568 0.1661 0.0000
# 58 texture coords

g Cylinder002
s off
f 1/1/1 2/2/1 3/3/1 4/4/1 
f 5/5/2 6/6/2 2/7/2 1/8/2 
f 7/9/3 8/10/3 6/11/3 5/12/3 
f 9/13/4 10/14/4 8/10/4 7/9/4 
f 11/15/5 12/16/5 10/17/5 9/18/5 
f 4/4/6 3/3/6 12/19/6 11/20/6 
f 13/21/7 14/22/7 15/23/7 16/24/7 
f 15/23/7 17/25/7 16/24/7 
f 18/26/7 13/21/7 16/24/7 
f 2/27/8 19/28/8 20/29/8 3/30/8 
f 6/31/9 21/32/9 19/28/9 2/27/9 
f 8/33/10 22/34/10 21/32/10 6/31/10 
f 10/35/11 23/36/11 22/34/11 8/33/11 
f 12/37/12 24/38/12 23/36/12 10/35/12 
f 3/30/13 20/29/13 24/38/13 12/37/13 
f 19/39/14 13/40/14 18/41/14 20/42/14 
f 21/43/15 14/44/15 13/45/15 19/46/15 
f 22/47/16 15/48/16 14/49/16 21/50/16 
f 23/51/17 17/52/17 15/48/17 22/47/17 
f 24/53/18 16/54/18 17/55/18 23/56/18 
f 20/42/19 18/41/19 16/57/19 24/58/19 
# 19 polygons - 2 triangles

