# Blender v2.65 (sub 0) OBJ File: 'scale-wankery.blend'
# www.blender.org
o Box038
v -18.647900 22.123196 19.558054
v 17.302000 22.123196 19.558054
v 17.302000 22.123203 -22.249746
v -18.647900 22.123203 -22.249746
v 17.302000 -18.405455 19.558046
v 17.302000 8.165298 19.558052
v -18.647900 8.165298 19.558052
v -18.647900 -18.405455 19.558046
v 17.302000 -18.405447 -22.249754
v 17.302000 8.165304 -22.249748
v -18.647900 -18.405447 -22.249754
v -18.647900 8.165304 -22.249748
v -14.720700 43.411949 -2.683643
v 14.398750 43.411949 -2.683643
v 14.398750 43.411953 -18.380793
v -14.720700 43.411953 -18.380793
v -14.720700 21.396048 7.353303
v 14.398750 21.396048 7.353303
v 14.398750 21.396053 -18.380796
v -14.720700 21.396053 -18.380796
v 14.398750 43.411949 -2.683643
v 14.398750 43.411949 -2.683643
v 14.398750 21.396048 7.353303
v 17.302000 22.123196 19.558054
v 17.302000 22.123196 19.558054
v 17.302000 8.165298 19.558052
v 14.398750 43.411953 -18.380793
v 14.398750 43.411953 -18.380793
v 14.398750 21.396053 -18.380796
v -18.647900 22.123203 -22.249746
v -18.647900 22.123203 -22.249746
v -18.647900 8.165304 -22.249748
v -18.647900 -18.405447 -22.249754
v -14.720700 43.411949 -2.683643
v -14.720700 43.411949 -2.683643
v -14.720700 21.396048 7.353303
v 17.302000 -18.405447 -22.249754
v 17.302000 8.165304 -22.249748
v 17.302000 22.123203 -22.249746
v 17.302000 22.123203 -22.249746
v -14.720700 43.411953 -18.380793
v -14.720700 43.411953 -18.380793
v -14.720700 21.396053 -18.380796
v -18.647900 22.123196 19.558054
v -18.647900 22.123196 19.558054
v 17.302000 -18.405455 19.558046
v -18.647900 8.165298 19.558052
v -18.647900 -18.405455 19.558046
vt 0.708300 0.036300
vt 0.953500 0.036300
vt 0.953500 0.278200
vt 0.708300 0.278200
vt 0.951400 0.011900
vt 0.951400 0.186900
vt 0.706300 0.186900
vt 0.706300 0.011900
vt 0.965100 0.016300
vt 0.965100 0.191300
vt 0.680000 0.191300
vt 0.680000 0.016300
vt 0.956100 0.013600
vt 0.956100 0.188600
vt 0.710900 0.188600
vt 0.710900 0.013600
vt 0.959000 0.010200
vt 0.959000 0.185100
vt 0.673900 0.185100
vt 0.673900 0.010200
vt 0.735100 0.165000
vt 0.933700 0.165000
vt 0.933700 0.255800
vt 0.735100 0.255800
vt 0.733100 0.274000
vt 0.931600 0.274000
vt 0.931600 0.419000
vt 0.733100 0.419000
vt 0.763300 0.278400
vt 0.938700 0.278400
vt 0.938700 0.423400
vt 0.831700 0.423400
vt 0.730700 0.275700
vt 0.929300 0.275700
vt 0.929300 0.420700
vt 0.730700 0.420700
vt 0.700300 0.272300
vt 0.875800 0.272300
vt 0.807300 0.417300
vt 0.700300 0.417300
vt 0.338200 0.180000
vt 0.044000 0.180000
vt 0.044000 0.005300
vt 0.338200 0.005300
vt 0.350500 0.178000
vt 0.008400 0.178000
vt 0.008400 0.003300
vt 0.350500 0.003300
vt 0.339600 0.179100
vt 0.045500 0.179100
vt 0.045500 0.004500
vt 0.339600 0.004500
vt 0.351400 0.180800
vt 0.009300 0.180800
vt 0.009300 0.006100
vt 0.351400 0.006100
vn 0.000000 1.000000 0.000000
vn 0.000000 0.000000 1.000000
vn 1.000000 0.000000 0.000000
vn 0.000000 0.000000 -1.000000
vn -1.000000 0.000000 0.000000
vn 0.000000 0.414808 0.909879
s 1
f 1/1/1 24/2/1 3/3/1 30/4/1
f 46/5/2 6/6/2 7/7/2 8/8/2
f 9/9/3 10/10/3 26/11/3 5/12/3
f 11/13/4 12/14/4 38/15/4 37/16/4
f 48/17/5 47/18/5 32/19/5 33/20/5
f 34/21/1 21/22/1 27/23/1 41/24/1
f 17/25/6 18/26/6 14/27/6 13/28/6
f 23/29/3 29/30/3 15/31/3 22/32/3
f 19/33/4 20/34/4 16/35/4 28/36/4
f 43/37/5 36/38/5 35/39/5 42/40/5
f 2/41/2 44/42/2 7/43/2 6/44/2
f 39/45/3 25/46/3 26/47/3 10/48/3
f 4/49/4 40/50/4 38/51/4 12/52/4
f 45/53/5 31/54/5 32/55/5 47/56/5
