# Blender v2.65 (sub 0) OBJ File: 'scale-wankery.blend'
# www.blender.org
o Box101
v -6.581450 -12.250251 5.146998
v -6.581450 -12.250249 -7.057052
v 6.653950 -12.250249 -7.057052
v 6.653950 -12.250251 5.146998
v -1.306700 97.162949 0.283316
v 1.379200 97.162949 0.283316
v 1.379200 97.162949 -2.193334
v -1.306700 97.162949 -2.193334
v 16.547251 10.843951 -6.294948
v 16.547300 10.843949 5.108902
v -16.836800 10.843949 5.108902
v -16.836800 10.843951 -6.294948
v 16.547251 16.320650 5.108903
v 16.547300 16.320652 -6.294947
v -16.836800 16.320652 -6.294947
v -16.836800 16.320650 5.108903
v 24.201599 18.365450 5.108903
v 24.201599 18.365452 -6.294947
v 24.201599 22.007502 -6.294946
v 24.201599 22.007500 5.108904
v -24.491100 18.365452 -6.294947
v -24.491100 18.365450 5.108903
v -24.491100 22.007500 5.108904
v -24.491100 22.007502 -6.294946
v 5.585900 10.843947 16.089151
v -5.817950 10.843947 16.108803
v -5.875450 10.843953 -17.275198
v 5.528450 10.843953 -17.294847
v -5.817950 16.320648 16.108803
v 5.585900 16.320648 16.089201
v 5.528450 16.320652 -17.294847
v -5.875450 16.320652 -17.275198
v -5.804750 18.365446 23.763153
v 5.599100 18.365446 23.743504
v 5.599100 22.007496 23.743504
v -5.804750 22.007496 23.763153
v 5.515250 18.365454 -24.949146
v -5.888600 18.365454 -24.929497
v -5.888600 22.007504 -24.929497
v 5.515250 22.007504 -24.949146
v 24.201599 18.365452 -6.294947
v 24.201599 18.365452 -6.294947
v 24.201599 22.007502 -6.294946
v 24.201599 22.007502 -6.294946
v -5.888600 22.007504 -24.929497
v -5.888600 22.007504 -24.929497
v 5.515250 22.007504 -24.949146
v 5.515250 22.007504 -24.949146
v -5.817950 16.320648 16.108803
v -5.817950 16.320648 16.108803
v -5.875450 16.320652 -17.275198
v -5.875450 16.320652 -17.275198
v -24.491100 18.365450 5.108903
v -24.491100 18.365450 5.108903
v -24.491100 22.007500 5.108904
v -24.491100 22.007500 5.108904
v 5.515250 18.365454 -24.949146
v 5.515250 18.365454 -24.949146
v -5.888600 18.365454 -24.929497
v -5.888600 18.365454 -24.929497
v -16.836800 10.843949 5.108902
v -16.836800 10.843949 5.108902
v -16.836800 16.320650 5.108903
v -16.836800 16.320650 5.108903
v 16.547251 16.320650 5.108903
v 16.547251 16.320650 5.108903
v 5.528450 16.320652 -17.294847
v 5.528450 16.320652 -17.294847
v 5.585900 16.320648 16.089201
v 5.585900 16.320648 16.089201
v 5.599100 22.007496 23.743504
v 5.599100 22.007496 23.743504
v -1.306700 97.162949 0.283316
v -1.306700 97.162949 0.283316
v 1.379200 97.162949 0.283316
v 1.379200 97.162949 0.283316
v -5.875450 10.843953 -17.275198
v -5.875450 10.843953 -17.275198
v -24.491100 18.365452 -6.294947
v -24.491100 18.365452 -6.294947
v -24.491100 22.007502 -6.294946
v -24.491100 22.007502 -6.294946
v 16.547251 10.843951 -6.294948
v 16.547251 10.843951 -6.294948
v -5.804750 22.007496 23.763153
v -5.804750 22.007496 23.763153
v -5.817950 10.843947 16.108803
v -5.817950 10.843947 16.108803
v -5.804750 18.365446 23.763153
v -5.804750 18.365446 23.763153
v 16.547300 10.843949 5.108902
v 16.547300 10.843949 5.108902
v 5.599100 18.365446 23.743504
v 5.599100 18.365446 23.743504
v 1.379200 97.162949 -2.193334
v 1.379200 97.162949 -2.193334
v -16.836800 16.320652 -6.294947
v -16.836800 16.320652 -6.294947
v 5.585900 10.843947 16.089151
v 5.585900 10.843947 16.089151
v -6.581450 -12.250251 5.146998
v -6.581450 -12.250251 5.146998
v -1.306700 97.162949 -2.193334
v -1.306700 97.162949 -2.193334
v 5.528450 10.843953 -17.294847
v 5.528450 10.843953 -17.294847
v 24.201599 18.365450 5.108903
v 24.201599 18.365450 5.108903
v 6.653950 -12.250251 5.146998
v 6.653950 -12.250251 5.146998
v 16.547300 16.320652 -6.294947
v 16.547300 16.320652 -6.294947
v 6.653950 -12.250249 -7.057052
v 6.653950 -12.250249 -7.057052
v 24.201599 22.007500 5.108904
v 24.201599 22.007500 5.108904
v -6.581450 -12.250249 -7.057052
v -6.581450 -12.250249 -7.057052
v -16.836800 10.843951 -6.294948
v -16.836800 10.843951 -6.294948
vt 0.794900 0.718800
vt 0.794900 0.650400
vt 0.871100 0.648400
vt 0.871100 0.716800
vt 0.918000 0.679700
vt 0.933600 0.681600
vt 0.931600 0.697300
vt 0.916000 0.695300
vt 0.699200 0.029300
vt 0.787100 0.029300
vt 0.753900 0.558600
vt 0.736300 0.558600
vt 0.710900 0.031300
vt 0.791000 0.031300
vt 0.759800 0.560500
vt 0.742200 0.560500
vt 0.703100 0.029300
vt 0.709000 0.029300
vt 0.755900 0.558600
vt 0.740200 0.558600
vt 0.793000 0.779300
vt 0.730500 0.779300
vt 0.730500 0.593800
vt 0.793000 0.593800
vt 0.929700 0.259800
vt 0.929700 0.285200
vt 0.718800 0.285200
vt 0.718800 0.259800
vt 0.710900 0.179700
vt 0.785200 0.179700
vt 0.785200 0.195300
vt 0.710900 0.195300
vt 0.935500 0.259800
vt 0.935500 0.285200
vt 0.720700 0.285200
vt 0.720700 0.259800
vt 0.714800 0.175800
vt 0.787100 0.175800
vt 0.787100 0.195300
vt 0.714800 0.195300
vt 0.793000 0.822300
vt 0.730500 0.822300
vt 0.730500 0.548800
vt 0.793000 0.548800
vt 0.980500 0.293000
vt 0.980500 0.312500
vt 0.669900 0.312500
vt 0.669900 0.293000
vt 0.984400 0.293000
vt 0.984400 0.312500
vt 0.671900 0.312500
vt 0.671900 0.293000
vt 0.955100 0.779300
vt 0.892600 0.779300
vt 0.894500 0.591800
vt 0.957000 0.591800
vt 0.939500 0.259800
vt 0.939500 0.285200
vt 0.724600 0.285200
vt 0.724600 0.259800
vt 0.705100 0.175800
vt 0.779300 0.175800
vt 0.779300 0.195300
vt 0.705100 0.195300
vt 0.710900 0.175800
vt 0.785200 0.175800
vt 0.955100 0.824200
vt 0.892600 0.824200
vt 0.894500 0.548800
vt 0.957000 0.548800
vt 0.986300 0.293000
vt 0.986300 0.312500
vt 0.675800 0.312500
vt 0.675800 0.293000
vt 0.986300 0.296900
vt 0.671900 0.296900
vn 0.000000 -1.000000 0.000000
vn 0.000000 1.000000 0.000000
vn 0.000000 0.044404 0.998993
vn 0.998810 0.048128 0.000000
vn 0.000000 0.044404 -0.998993
vn -0.998810 0.048128 0.000000
vn 0.000000 0.000000 1.000000
vn 0.000000 0.000000 0.999969
vn 1.000000 0.000000 0.000000
vn 0.000000 0.000000 -1.000000
vn 0.000000 0.000000 -0.999969
vn -1.000000 0.000000 0.000000
vn 0.700888 -0.713248 0.000000
vn -0.700888 -0.713248 0.000000
vn -0.596362 0.802698 0.000000
vn 0.596362 0.802698 0.000000
vn -0.999969 0.000000 0.001709
vn 0.001709 0.000000 0.999969
vn 0.999969 0.000000 -0.001709
vn -0.001709 0.000000 -0.999969
vn 0.001190 -0.713248 0.700888
vn -0.001190 -0.713248 -0.700888
vn -0.001007 0.802698 -0.596362
vn 0.001007 0.802698 0.596362
s 1
f 101/1/1 2/2/1 3/3/1 109/4/1
f 5/5/2 6/6/2 7/7/2 8/8/2
f 1/9/3 4/10/3 75/11/3 73/12/3
f 110/13/4 113/14/4 95/15/4 76/16/4
f 114/17/5 117/10/5 103/11/5 96/12/5
f 118/18/6 102/10/6 74/19/6 104/20/6
f 83/21/1 91/22/1 62/23/1 12/24/1
f 13/21/2 112/22/2 15/23/2 63/24/2
f 10/25/7 65/26/7 64/27/8 61/28/7
f 17/29/9 18/30/9 19/31/9 20/32/9
f 119/33/10 98/34/11 111/35/11 84/36/10
f 21/37/12 22/38/12 23/39/12 24/40/12
f 41/41/13 107/42/13 92/22/13 9/21/13
f 53/43/14 79/44/14 120/24/14 11/23/14
f 115/41/15 43/42/15 14/22/15 66/21/15
f 81/43/16 55/44/16 16/24/16 97/23/16
f 108/45/7 116/46/7 65/26/7 10/25/7
f 56/47/7 54/48/7 61/28/7 64/27/8
f 80/49/10 82/50/10 98/34/11 119/33/10
f 44/51/11 42/52/10 84/36/10 111/35/11
f 100/53/1 87/54/1 77/55/1 28/56/1
f 29/55/2 70/56/2 68/53/2 32/54/2
f 88/57/17 50/58/17 51/59/17 78/60/17
f 89/61/18 34/62/18 71/63/18 85/64/18
f 105/33/19 67/34/19 69/59/19 25/60/19
f 37/65/20 38/66/20 39/31/20 40/32/20
f 93/67/21 33/68/21 26/54/21 99/53/21
f 59/69/22 57/70/22 106/56/22 27/55/22
f 36/69/23 35/70/23 30/56/23 49/55/23
f 47/67/24 45/68/24 52/54/24 31/53/24
f 90/71/17 86/72/17 50/58/17 88/57/17
f 46/73/17 60/74/17 78/60/17 51/59/17
f 58/75/19 48/72/19 67/34/19 105/33/19
f 72/51/19 94/76/19 25/60/19 69/59/19
