# 3ds Max Wavefront OBJ Exporter v0.97b - (c)2007 guruware
# File Created: 17.09.2011 00:32:28

#
# object Box020
#

v  -8.7199 131.2020 10.5217
v  12.0642 131.2020 10.5217
v  12.0642 131.2020 -10.2623
v  -8.7199 131.2020 -10.2623
v  -18.8356 -11.7368 20.6375
v  22.1799 -11.7368 20.6375
v  22.1799 52.9920 20.6375
v  -18.8356 52.9920 20.6375
v  22.1799 -11.7368 -20.3780
v  22.1799 52.9920 -20.3780
v  -18.8356 -11.7368 -20.3780
v  -18.8356 52.9920 -20.3780
# 12 vertices

vn 0.0000 1.0000 -0.0000
vn 0.0000 0.0000 1.0000
vn 1.0000 0.0000 -0.0000
vn 0.0000 0.0000 -1.0000
vn -1.0000 0.0000 -0.0000
vn 0.0000 0.1283 0.9917
vn 0.9917 0.1283 -0.0000
vn 0.0000 0.1283 -0.9917
vn -0.9917 0.1283 -0.0000
# 9 vertex normals

vt 0.7819 0.4728 0.0000
vt 0.8811 0.4728 0.0000
vt 0.8811 0.5720 0.0000
vt 0.7819 0.5720 0.0000
vt 0.3653 0.0103 0.0000
vt 0.6608 0.0103 0.0000
vt 0.6608 0.5116 0.0000
vt 0.3653 0.5116 0.0000
vt 0.3588 0.0103 0.0000
vt 0.6543 0.0103 0.0000
vt 0.6543 0.5116 0.0000
vt 0.3588 0.5116 0.0000
vt 0.3670 0.0136 0.0000
vt 0.6625 0.0136 0.0000
vt 0.6625 0.5150 0.0000
vt 0.3670 0.5150 0.0000
vt 0.3605 0.0103 0.0000
vt 0.6560 0.0103 0.0000
vt 0.6560 0.5116 0.0000
vt 0.3605 0.5116 0.0000
vt 0.0122 0.5136 0.0000
vt 0.3461 0.5136 0.0000
vt 0.2637 1.1293 0.0000
vt 0.0946 1.1293 0.0000
vt 0.0048 0.5136 0.0000
vt 0.3387 0.5136 0.0000
vt 0.2564 1.1293 0.0000
vt 0.0872 1.1293 0.0000
vt 0.0141 0.5170 0.0000
vt 0.3480 0.5170 0.0000
vt 0.2656 1.1327 0.0000
vt 0.0965 1.1327 0.0000
vt 0.0068 0.5136 0.0000
vt 0.3406 0.5136 0.0000
vt 0.2583 1.1293 0.0000
vt 0.0891 1.1293 0.0000
# 36 texture coords

g Box020
s off
f 1/1/1 2/2/1 3/3/1 4/4/1 
f 5/5/2 6/6/2 7/7/2 8/8/2 
f 6/9/3 9/10/3 10/11/3 7/12/3 
f 9/13/4 11/14/4 12/15/4 10/16/4 
f 11/17/5 5/18/5 8/19/5 12/20/5 
f 8/21/6 7/22/6 2/23/6 1/24/6 
f 7/25/7 10/26/7 3/27/7 2/28/7 
f 10/29/8 12/30/8 4/31/8 3/32/8 
f 12/33/9 8/34/9 1/35/9 4/36/9 
# 9 polygons

