# 3ds Max Wavefront OBJ Exporter v0.97b - (c)2007 guruware
# File Created: 17.09.2011 21:01:13

#
# object Box011
#

v  26.9206 113.8042 26.7571
v  26.9206 113.8042 -26.5613
v  -26.3979 113.8042 -26.5613
v  -26.3979 113.8042 26.7571
v  28.0729 -12.0774 27.9093
v  28.0729 54.5301 27.9093
v  -27.5501 54.5301 27.9093
v  -27.5501 -12.0774 27.9093
v  28.0729 -12.0774 -27.7135
v  28.0729 54.5301 -27.7135
v  -27.5501 -12.0774 -27.7135
v  -27.5501 54.5301 -27.7135
# 12 vertices

vn 0.0000 1.0000 -0.0000
vn 0.0000 0.0000 1.0000
vn 1.0000 0.0000 -0.0000
vn 0.0000 0.0000 -1.0000
vn -1.0000 0.0000 -0.0000
vn 0.0000 0.0147 0.9999
vn 0.9999 0.0147 -0.0000
vn 0.0000 0.0147 -0.9999
vn -0.9999 0.0147 -0.0000
# 9 vertex normals

vt 0.9407 0.4255 0.0000
vt 0.9407 0.6152 0.0000
vt 0.7346 0.6152 0.0000
vt 0.7346 0.4255 0.0000
vt 0.6608 0.0103 0.0000
vt 0.6608 0.5116 0.0000
vt 0.3653 0.5116 0.0000
vt 0.3653 0.0103 0.0000
vt 0.6543 0.0103 0.0000
vt 0.6543 0.5116 0.0000
vt 0.3588 0.5116 0.0000
vt 0.3588 0.0103 0.0000
vt 0.6625 0.0136 0.0000
vt 0.6625 0.5150 0.0000
vt 0.3670 0.5150 0.0000
vt 0.3670 0.0136 0.0000
vt 0.6560 0.0103 0.0000
vt 0.6560 0.5116 0.0000
vt 0.3605 0.5116 0.0000
vt 0.3605 0.0103 0.0000
vt 0.3557 0.0064 0.0000
vt 0.3485 0.5568 0.0000
vt 0.0147 0.5568 0.0000
vt 0.0075 0.0064 0.0000
vt 0.3548 0.0075 0.0000
vt 0.3476 0.5579 0.0000
vt 0.0138 0.5579 0.0000
vt 0.0066 0.0075 0.0000
vt 0.3557 0.0101 0.0000
vt 0.3485 0.5605 0.0000
vt 0.0147 0.5605 0.0000
vt 0.0075 0.0101 0.0000
vt 0.3576 0.0050 0.0000
vt 0.3503 0.5554 0.0000
vt 0.0165 0.5554 0.0000
vt 0.0093 0.0050 0.0000
# 36 texture coords

g Box011
s off
f 1/1/1 2/2/1 3/3/1 4/4/1 
f 5/5/2 6/6/2 7/7/2 8/8/2 
f 9/9/3 10/10/3 6/11/3 5/12/3 
f 11/13/4 12/14/4 10/15/4 9/16/4 
f 8/17/5 7/18/5 12/19/5 11/20/5 
f 6/21/6 1/22/6 4/23/6 7/24/6 
f 10/25/7 2/26/7 1/27/7 6/28/7 
f 12/29/8 3/30/8 2/31/8 10/32/8 
f 7/33/9 4/34/9 3/35/9 12/36/9 
# 9 polygons

