# 3ds Max Wavefront OBJ Exporter v0.97b - (c)2007 guruware
# File Created: 17.09.2011 00:12:45

#
# object Cylinder006
#

v  23.7810 -12.3084 -1.0782
v  12.0761 -12.3084 -21.3516
v  12.0761 144.4635 -21.3516
v  23.7810 144.4635 -1.0782
v  -11.3336 -12.3084 -21.3516
v  -11.3336 144.4635 -21.3516
v  -23.0385 -12.3084 -1.0782
v  -23.0385 144.4635 -1.0782
v  -11.3336 -12.3084 19.1952
v  -11.3336 144.4635 19.1952
v  12.0761 -12.3084 19.1952
v  12.0761 144.4635 19.1952
v  4.5417 191.5564 -8.3017
v  -3.7993 191.5564 -8.3017
v  -7.9697 191.5564 -1.0782
v  4.5417 191.5564 6.1453
v  -3.7992 191.5564 6.1453
v  8.7122 191.5564 -1.0782
v  4.9472 149.6509 -9.0041
v  9.5233 149.6509 -1.0782
v  -4.2048 149.6509 -9.0041
v  -8.7808 149.6509 -1.0782
v  -4.2048 149.6509 6.8477
v  4.9472 149.6509 6.8477
# 24 vertices

vn 0.8660 0.0000 -0.5000
vn -0.0000 0.0000 -1.0000
vn -0.8660 0.0000 -0.5000
vn -0.8660 0.0000 0.5000
vn 0.0000 0.0000 1.0000
vn 0.8660 0.0000 0.5000
vn 0.0000 1.0000 -0.0000
vn 0.3202 0.9291 -0.1849
vn -0.0000 0.9291 -0.3697
vn -0.3202 0.9291 -0.1849
vn -0.3202 0.9291 0.1849
vn 0.0000 0.9291 0.3697
vn 0.3202 0.9291 0.1849
vn 0.8659 0.0177 -0.4999
vn -0.0000 0.0177 -0.9998
vn -0.8659 0.0177 -0.4999
vn -0.8659 0.0177 0.4999
vn 0.0000 0.0177 0.9998
vn 0.8659 0.0177 0.4999
# 19 vertex normals

vt 0.1814 0.0091 0.0000
vt 0.3501 0.0091 0.0000
vt 0.3501 0.9771 0.0000
vt 0.1814 0.9771 0.0000
vt 0.1463 0.0099 0.0000
vt 0.3410 0.0099 0.0000
vt 0.3410 0.9779 0.0000
vt 0.1463 0.9779 0.0000
vt 0.0042 0.0090 0.0000
vt 0.1728 0.0090 0.0000
vt 0.1728 0.9771 0.0000
vt 0.0042 0.9771 0.0000
vt 0.3414 0.0090 0.0000
vt 0.3414 0.9771 0.0000
vt 0.1427 0.0087 0.0000
vt 0.3374 0.0087 0.0000
vt 0.3374 0.9767 0.0000
vt 0.1427 0.9767 0.0000
vt 0.0128 0.0091 0.0000
vt 0.0128 0.9771 0.0000
vt 0.8637 0.7278 0.0000
vt 0.8103 0.7278 0.0000
vt 0.7836 0.6864 0.0000
vt 0.8637 0.6450 0.0000
vt 0.8103 0.6450 0.0000
vt 0.8904 0.6864 0.0000
vt 0.9868 0.6864 0.0000
vt 0.9119 0.8027 0.0000
vt 0.8663 0.7319 0.0000
vt 0.8956 0.6864 0.0000
vt 0.7621 0.8027 0.0000
vt 0.8077 0.7319 0.0000
vt 0.6872 0.6864 0.0000
vt 0.7785 0.6864 0.0000
vt 0.7621 0.5701 0.0000
vt 0.8077 0.6409 0.0000
vt 0.9119 0.5701 0.0000
vt 0.8663 0.6409 0.0000
vt 0.8568 0.1987 0.0000
vt 0.8568 0.2313 0.0000
vt 0.6936 0.2284 0.0000
vt 0.6936 0.1987 0.0000
vt 0.8587 0.2960 0.0000
vt 0.8587 0.3337 0.0000
vt 0.6955 0.3320 0.0000
vt 0.6955 0.2977 0.0000
vt 0.7990 0.2958 0.0000
vt 0.7990 0.2632 0.0000
vt 0.9622 0.2632 0.0000
vt 0.9622 0.2929 0.0000
vt 0.7990 0.2306 0.0000
vt 0.9622 0.2335 0.0000
vt 0.8587 0.3365 0.0000
vt 0.8587 0.3741 0.0000
vt 0.6955 0.3724 0.0000
vt 0.6955 0.3381 0.0000
vt 0.8568 0.1661 0.0000
vt 0.6936 0.1690 0.0000
# 58 texture coords

g Cylinder006
s off
f 1/1/1 2/2/1 3/3/1 4/4/1 
f 2/5/2 5/6/2 6/7/2 3/8/2 
f 5/9/3 7/10/3 8/11/3 6/12/3 
f 7/10/4 9/13/4 10/14/4 8/11/4 
f 9/15/5 11/16/5 12/17/5 10/18/5 
f 11/19/6 1/1/6 4/4/6 12/20/6 
f 13/21/7 14/22/7 15/23/7 16/24/7 
f 15/23/7 17/25/7 16/24/7 
f 18/26/7 13/21/7 16/24/7 
f 4/27/8 3/28/8 19/29/8 20/30/8 
f 3/28/9 6/31/9 21/32/9 19/29/9 
f 6/31/10 8/33/10 22/34/10 21/32/10 
f 8/33/11 10/35/11 23/36/11 22/34/11 
f 10/35/12 12/37/12 24/38/12 23/36/12 
f 12/37/13 4/27/13 20/30/13 24/38/13 
f 20/39/14 19/40/14 13/41/14 18/42/14 
f 19/43/15 21/44/15 14/45/15 13/46/15 
f 21/47/16 22/48/16 15/49/16 14/50/16 
f 22/48/17 23/51/17 17/52/17 15/49/17 
f 23/53/18 24/54/18 16/55/18 17/56/18 
f 24/57/19 20/39/19 18/42/19 16/58/19 
# 19 polygons - 2 triangles

