# Blender v2.65 (sub 0) OBJ File: 'scale-wankery.blend'
# www.blender.org
o Box020
v -4.359950 65.600998 5.260860
v 6.032100 65.600998 5.260860
v 6.032100 65.600998 -5.131139
v -4.359950 65.600998 -5.131139
v -9.417800 -5.868402 10.318749
v 11.089950 -5.868402 10.318749
v 11.089950 26.495998 10.318755
v -9.417800 26.495998 10.318755
v 11.089950 -5.868399 -10.189001
v 11.089950 26.496002 -10.188995
v -9.417800 -5.868399 -10.189001
v -9.417800 26.496002 -10.188995
v 11.089950 -5.868402 10.318749
v 11.089950 26.495998 10.318755
v -4.359950 65.600998 -5.131139
v -4.359950 65.600998 -5.131139
v -9.417800 26.496002 -10.188995
v -9.417800 -5.868399 -10.189001
v 6.032100 65.600998 5.260860
v 6.032100 65.600998 5.260860
v -9.417800 -5.868402 10.318749
v -9.417800 26.495998 10.318755
v 11.089950 -5.868399 -10.189001
v 11.089950 26.496002 -10.188995
v 6.032100 65.600998 -5.131139
v 6.032100 65.600998 -5.131139
v -4.359950 65.600998 5.260860
v -4.359950 65.600998 5.260860
vt 0.781900 0.472800
vt 0.881100 0.472800
vt 0.881100 0.572000
vt 0.781900 0.572000
vt 0.365300 0.010300
vt 0.660800 0.010300
vt 0.660800 0.511600
vt 0.365300 0.511600
vt 0.358800 0.010300
vt 0.654300 0.010300
vt 0.654300 0.511600
vt 0.358800 0.511600
vt 0.367000 0.013600
vt 0.662500 0.013600
vt 0.662500 0.515000
vt 0.367000 0.515000
vt 0.360500 0.010300
vt 0.656000 0.010300
vt 0.656000 0.511600
vt 0.360500 0.511600
vt 0.263700 1.129300
vt 0.094600 1.129300
vt 0.012200 0.513600
vt 0.346100 0.513600
vt 0.004800 0.513600
vt 0.338700 0.513600
vt 0.256400 1.129300
vt 0.087200 1.129300
vt 0.014100 0.517000
vt 0.348000 0.517000
vt 0.265600 1.132700
vt 0.096500 1.132700
vt 0.258300 1.129300
vt 0.089100 1.129300
vt 0.006800 0.513600
vt 0.340600 0.513600
vn 0.000000 1.000000 0.000000
vn 0.000000 0.000000 1.000000
vn 0.000000 0.061525 0.998077
vn 1.000000 0.000000 0.000000
vn 0.998077 0.061525 0.000000
vn 0.000000 0.000000 -1.000000
vn 0.000000 0.061525 -0.998077
vn -1.000000 0.000000 0.000000
vn -0.998077 0.061525 0.000000
vn 0.000000 0.128269 0.991729
vn 0.991729 0.128269 0.000000
vn 0.000000 0.128269 -0.991729
vn -0.991729 0.128269 0.000000
s 1
f 1/1/1 19/2/1 3/3/1 15/4/1
f 5/5/2 6/6/2 7/7/3 22/8/3
f 13/9/4 23/10/4 10/11/5 14/12/5
f 9/13/6 11/14/6 12/15/7 24/16/7
f 18/17/8 21/18/8 8/19/9 17/20/9
f 2/21/10 27/22/10 22/23/3 7/24/3
f 14/25/5 10/26/5 25/27/11 20/28/11
f 24/29/7 12/30/7 4/31/12 26/32/12
f 28/33/13 16/34/13 17/35/9 8/36/9
