# Blender v2.65 (sub 0) OBJ File: 'scale-wankery.blend'
# www.blender.org
o Box026
v -3.124700 22.114847 6.838054
v 3.764400 22.114847 6.838054
v 7.285600 22.114849 3.316904
v 3.764400 22.114851 -7.738346
v 7.285600 22.114849 -4.217196
v -3.124700 22.114851 -7.738346
v -6.645900 22.114849 -4.217196
v -6.645900 22.114849 3.316904
v -3.898750 -5.761002 8.475899
v 4.538450 -5.761002 8.475899
v 8.850950 -5.761001 4.163399
v 8.850950 -5.760999 -5.063701
v 4.538450 -5.760999 -9.376151
v -3.898750 -5.760999 -9.376151
v -8.211200 -5.760999 -5.063701
v -8.211200 -5.761001 4.163399
v -3.124700 22.114851 -7.738346
v -3.124700 22.114851 -7.738346
v -6.645900 22.114849 -4.217196
v -6.645900 22.114849 -4.217196
v 7.285600 22.114849 3.316904
v 7.285600 22.114849 3.316904
v 8.850950 -5.761001 4.163399
v -8.211200 -5.760999 -5.063701
v 3.764400 22.114847 6.838054
v 3.764400 22.114847 6.838054
v 3.764400 22.114851 -7.738346
v 3.764400 22.114851 -7.738346
v 4.538450 -5.760999 -9.376151
v -6.645900 22.114849 3.316904
v -6.645900 22.114849 3.316904
v -8.211200 -5.761001 4.163399
v -3.898750 -5.760999 -9.376151
v 7.285600 22.114849 -4.217196
v 7.285600 22.114849 -4.217196
v 8.850950 -5.760999 -5.063701
v -3.124700 22.114847 6.838054
v -3.124700 22.114847 6.838054
v -3.898750 -5.761002 8.475899
v 4.538450 -5.761002 8.475899
vt 0.954200 0.465200
vt 0.954200 0.574300
vt 0.898400 0.630100
vt 0.723400 0.574300
vt 0.779100 0.630100
vt 0.779100 0.409500
vt 0.723400 0.465200
vt 0.898400 0.409500
vt 0.642300 0.466000
vt 0.533100 0.466000
vt 0.520900 0.008600
vt 0.654600 0.008600
vt 0.513700 0.009800
vt 0.659900 0.009800
vt 0.646500 0.467200
vt 0.527100 0.467200
vt 0.516900 0.009800
vt 0.650600 0.009800
vt 0.638300 0.467200
vt 0.529200 0.467200
vt 0.512600 0.009800
vt 0.658800 0.009800
vt 0.645400 0.467200
vt 0.526000 0.467200
vt 0.368100 0.010400
vt 0.490600 0.010400
vt 0.482000 0.465400
vt 0.382000 0.465400
vt 0.482100 0.464200
vt 0.382100 0.464200
vt 0.370300 0.009200
vt 0.492800 0.009200
vt 0.367800 0.010400
vt 0.490300 0.010400
vt 0.479600 0.465400
vt 0.379600 0.465400
vt 0.369900 0.010400
vt 0.492400 0.010400
vt 0.483800 0.465400
vt 0.383800 0.465400
vn 0.000000 1.000000 0.000000
vn 0.000000 0.999969 0.000000
vn 0.000000 0.058626 0.998260
vn 0.998413 0.056063 0.000000
vn 0.000000 0.058626 -0.998260
vn -0.998413 0.056063 0.000000
vn 0.705771 0.061037 0.705771
vn -0.705771 0.061037 0.705771
vn 0.705771 0.061037 -0.705771
vn -0.705771 0.061037 -0.705771
s 1
f 1/1/1 2/2/1 21/3/1 27/4/1
f 21/3/1 34/5/2 27/4/1
f 7/6/1 1/1/1 27/4/1 6/7/1
f 30/8/2 1/1/1 7/6/1
f 25/9/3 37/10/3 39/11/3 10/12/3
f 11/13/4 12/14/4 5/15/4 3/16/4
f 13/17/5 14/18/5 17/19/5 4/20/5
f 15/21/6 32/22/6 8/23/6 19/24/6
f 40/25/7 23/26/7 22/27/7 26/28/7
f 38/29/8 31/30/8 16/31/8 9/32/8
f 36/33/9 29/34/9 28/35/9 35/36/9
f 33/37/10 24/38/10 20/39/10 18/40/10
