# 3ds Max Wavefront OBJ Exporter v0.97b - (c)2007 guruware
# File Created: 17.09.2011 00:17:35

#
# object Box026
#

v  -6.2494 44.2297 13.6761
v  7.5288 44.2297 13.6761
v  14.5712 44.2297 6.6338
v  7.5288 44.2297 -15.4767
v  14.5712 44.2297 -8.4344
v  -6.2494 44.2297 -15.4767
v  -13.2918 44.2297 -8.4344
v  -13.2918 44.2297 6.6338
v  -7.7975 -11.5220 16.9518
v  9.0769 -11.5220 16.9518
v  17.7019 -11.5220 8.3268
v  17.7019 -11.5220 -10.1274
v  9.0769 -11.5220 -18.7523
v  -7.7975 -11.5220 -18.7523
v  -16.4224 -11.5220 -10.1274
v  -16.4224 -11.5220 8.3268
# 16 vertices

vn 0.0000 1.0000 -0.0000
vn 0.0000 0.0532 0.9986
vn 0.9987 0.0509 -0.0000
vn 0.0000 0.0532 -0.9986
vn -0.9987 0.0509 -0.0000
vn 0.7060 0.0554 0.7060
vn -0.7060 0.0554 0.7060
vn 0.7060 0.0554 -0.7060
vn -0.7060 0.0554 -0.7060
# 9 vertex normals

vt 0.9542 0.4652 0.0000
vt 0.9542 0.5743 0.0000
vt 0.8984 0.6301 0.0000
vt 0.7234 0.5743 0.0000
vt 0.7791 0.6301 0.0000
vt 0.7234 0.4652 0.0000
vt 0.7791 0.4095 0.0000
vt 0.8984 0.4095 0.0000
vt 0.5209 0.0086 0.0000
vt 0.6546 0.0086 0.0000
vt 0.6423 0.4660 0.0000
vt 0.5331 0.4660 0.0000
vt 0.5137 0.0098 0.0000
vt 0.6599 0.0098 0.0000
vt 0.6465 0.4672 0.0000
vt 0.5271 0.4672 0.0000
vt 0.5169 0.0098 0.0000
vt 0.6506 0.0098 0.0000
vt 0.6383 0.4672 0.0000
vt 0.5292 0.4672 0.0000
vt 0.5126 0.0098 0.0000
vt 0.6588 0.0098 0.0000
vt 0.6454 0.4672 0.0000
vt 0.5260 0.4672 0.0000
vt 0.3681 0.0104 0.0000
vt 0.4906 0.0104 0.0000
vt 0.4820 0.4654 0.0000
vt 0.3820 0.4654 0.0000
vt 0.4821 0.4642 0.0000
vt 0.3821 0.4642 0.0000
vt 0.3703 0.0092 0.0000
vt 0.4928 0.0092 0.0000
vt 0.3678 0.0104 0.0000
vt 0.4903 0.0104 0.0000
vt 0.4796 0.4654 0.0000
vt 0.3796 0.4654 0.0000
vt 0.3699 0.0104 0.0000
vt 0.4924 0.0104 0.0000
vt 0.4838 0.4654 0.0000
vt 0.3838 0.4654 0.0000
# 40 texture coords

g Box026
s off
f 1/1/1 2/2/1 3/3/1 4/4/1 
f 3/3/1 5/5/1 4/4/1 
f 4/4/1 6/6/1 7/7/1 1/1/1 
f 8/8/1 1/1/1 7/7/1 
f 9/9/2 10/10/2 2/11/2 1/12/2 
f 11/13/3 12/14/3 5/15/3 3/16/3 
f 13/17/4 14/18/4 6/19/4 4/20/4 
f 15/21/5 16/22/5 8/23/5 7/24/5 
f 10/25/6 11/26/6 3/27/6 2/28/6 
f 1/29/7 8/30/7 16/31/7 9/32/7 
f 12/33/8 13/34/8 4/35/8 5/36/8 
f 14/37/9 15/38/9 7/39/9 6/40/9 
# 10 polygons - 2 triangles

