# Blender v2.65 (sub 0) OBJ File: 'scale-wankery.blend'
# www.blender.org
o Box043
v -5.621250 7.132949 4.388901
v -3.822250 7.132949 2.479951
v -3.878450 7.132950 0.584751
v -7.861350 7.132950 -1.326449
v -5.966150 7.132950 -1.382699
v -9.660350 7.132950 0.582501
v -9.604150 7.132949 2.477701
v -7.516450 7.132949 4.445101
v -5.369550 -2.158851 5.031099
v -3.166300 -2.158850 2.693150
v -3.235150 -2.158850 0.372050
v -5.791950 -2.158850 -2.037500
v -8.113050 -2.158850 -1.968650
v -10.316350 -2.158850 0.369300
v -10.247500 -2.158850 2.690400
v -7.690650 -2.158851 5.099949
v -10.247500 -11.500550 2.690398
v -7.690650 -11.500551 5.099948
v -8.113050 -11.500550 -1.968652
v -10.316350 -11.500550 0.369298
v -3.235150 -11.500550 0.372048
v -5.791950 -11.500550 -2.037502
v -5.369550 -11.500551 5.031098
v -3.166300 -11.500550 2.693148
v -1.562750 7.132950 -2.513449
v 1.060300 7.132950 -2.513449
v 2.401000 7.132950 -3.854149
v 1.060300 7.132951 -8.063499
v 2.401000 7.132951 -6.722799
v -1.562750 7.132951 -8.063499
v -2.903450 7.132951 -6.722799
v -2.903450 7.132950 -3.854149
v -1.857500 -2.158850 -1.889800
v 1.355050 -2.158850 -1.889800
v 2.997050 -2.158849 -3.531850
v 2.997050 -2.158849 -7.045101
v 1.355050 -2.158849 -8.687100
v -1.857500 -2.158849 -8.687100
v -3.499500 -2.158849 -7.045101
v -3.499500 -2.158849 -3.531850
v -3.499500 -11.500549 -7.045102
v -3.499500 -11.500549 -3.531852
v 1.355050 -11.500549 -8.687102
v -1.857500 -11.500549 -8.687102
v 2.997050 -11.500549 -3.531802
v 2.997050 -11.500549 -7.045102
v -1.857500 -11.500550 -1.889802
v 1.355050 -11.500550 -1.889802
v 3.259600 7.132949 2.548451
v 5.100900 7.132949 4.416701
v 6.996900 7.132949 4.430451
v 9.053800 7.132950 0.520801
v 9.040000 7.132949 2.416801
v 7.212500 7.132950 -1.347399
v 5.316500 7.132950 -1.361199
v 3.273400 7.132950 0.652451
v 2.608600 -2.158850 2.776300
v 4.863600 -2.158851 5.064350
v 7.185700 -2.158851 5.081200
v 9.687950 -2.158850 2.615050
v 9.704800 -2.158850 0.292950
v 7.449800 -2.158850 -1.995050
v 5.127700 -2.158850 -2.011950
v 2.625450 -2.158850 0.454200
v 5.127700 -11.500550 -2.011952
v 2.625450 -11.500550 0.454198
v 9.704800 -11.500550 0.292948
v 7.449800 -11.500550 -1.995052
v 7.185700 -11.500551 5.081198
v 9.687950 -11.500550 2.615048
v 2.608600 -11.500550 2.776298
v 4.863600 -11.500551 5.064348
v -1.562750 7.132948 11.372101
v 1.060300 7.132948 11.372101
v 2.401000 7.132948 10.031351
v 1.060300 7.132949 5.822001
v 2.401000 7.132949 7.162701
v -1.562750 7.132949 5.822001
v -2.903450 7.132949 7.162701
v -2.903450 7.132948 10.031351
v -1.857500 -2.158852 11.995700
v 1.355050 -2.158852 11.995700
v 2.997050 -2.158852 10.353700
v 2.997050 -2.158851 6.840400
v 1.355050 -2.158851 5.198400
v -1.857500 -2.158851 5.198400
v -3.499500 -2.158851 6.840400
v -3.499500 -2.158852 10.353700
v -3.499500 -11.500551 6.840398
v -3.499500 -11.500552 10.353698
v 1.355050 -11.500551 5.198398
v -1.857500 -11.500551 5.198398
v 2.997050 -11.500552 10.353698
v 2.997050 -11.500551 6.840398
v -1.857500 -11.500552 11.995698
v 1.355050 -11.500552 11.995698
v 9.040000 7.132949 2.416801
v 9.040000 7.132949 2.416801
v 9.687950 -2.158850 2.615050
v -2.903450 7.132950 -3.854149
v -2.903450 7.132950 -3.854149
v -3.499500 -2.158849 -3.531850
v -9.660350 7.132950 0.582501
v -9.660350 7.132950 0.582501
v -10.316350 -2.158850 0.369300
v -1.562750 7.132948 11.372101
v -1.562750 7.132948 11.372101
v -2.903450 7.132948 10.031351
v -2.903450 7.132948 10.031351
v -5.791950 -2.158850 -2.037500
v -5.791950 -11.500550 -2.037502
v -7.690650 -2.158851 5.099949
v -7.690650 -11.500551 5.099948
v 5.316500 7.132950 -1.361199
v 5.316500 7.132950 -1.361199
v 5.127700 -2.158850 -2.011950
v -1.562750 7.132950 -2.513449
v -1.562750 7.132950 -2.513449
v -1.857500 -2.158850 -1.889800
v 2.997050 -2.158852 10.353700
v 2.997050 -11.500552 10.353698
v -3.499500 -2.158849 -7.045101
v -3.499500 -11.500549 -7.045102
v 3.259600 7.132949 2.548451
v 3.259600 7.132949 2.548451
v 2.608600 -2.158850 2.776300
v 2.401000 7.132949 7.162701
v 2.401000 7.132949 7.162701
v 2.997050 -2.158851 6.840400
v 7.449800 -2.158850 -1.995050
v 7.449800 -11.500550 -1.995052
v 1.060300 7.132951 -8.063499
v 1.060300 7.132951 -8.063499
v -1.562750 7.132951 -8.063499
v -1.562750 7.132951 -8.063499
v -2.903450 7.132951 -6.722799
v -2.903450 7.132951 -6.722799
v -9.604150 7.132949 2.477701
v -9.604150 7.132949 2.477701
v -10.247500 -2.158850 2.690400
v -7.861350 7.132950 -1.326449
v -7.861350 7.132950 -1.326449
v -5.966150 7.132950 -1.382699
v -5.966150 7.132950 -1.382699
v 2.401000 7.132948 10.031351
v 2.401000 7.132948 10.031351
v 5.127700 -11.500550 -2.011952
v 2.997050 -11.500551 6.840398
v 3.273400 7.132950 0.652451
v 3.273400 7.132950 0.652451
v 2.625450 -2.158850 0.454200
v 2.401000 7.132950 -3.854149
v 2.401000 7.132950 -3.854149
v 2.401000 7.132951 -6.722799
v 2.401000 7.132951 -6.722799
v -10.316350 -11.500550 0.369298
v -8.113050 -2.158850 -1.968650
v -8.113050 -11.500550 -1.968652
v 2.997050 -2.158849 -3.531850
v -5.621250 7.132949 4.388901
v -5.621250 7.132949 4.388901
v -7.516450 7.132949 4.445101
v -7.516450 7.132949 4.445101
v -1.857500 -2.158849 -8.687100
v -1.857500 -11.500549 -8.687102
v 6.996900 7.132949 4.430451
v 6.996900 7.132949 4.430451
v 7.185700 -2.158851 5.081200
v 1.060300 7.132948 11.372101
v 1.060300 7.132948 11.372101
v -2.903450 7.132949 7.162701
v -2.903450 7.132949 7.162701
v -3.822250 7.132949 2.479951
v -3.822250 7.132949 2.479951
v -3.878450 7.132950 0.584751
v -3.878450 7.132950 0.584751
v -3.499500 -2.158851 6.840400
v -3.499500 -11.500551 6.840398
v -1.562750 7.132949 5.822001
v -1.562750 7.132949 5.822001
v -1.857500 -2.158851 5.198400
v -1.857500 -11.500551 5.198398
v 9.053800 7.132950 0.520801
v 9.053800 7.132950 0.520801
v 7.212500 7.132950 -1.347399
v 7.212500 7.132950 -1.347399
v 9.687950 -11.500550 2.615048
v 1.060300 7.132950 -2.513449
v 1.060300 7.132950 -2.513449
v 7.185700 -11.500551 5.081198
v 5.100900 7.132949 4.416701
v 5.100900 7.132949 4.416701
v -1.857500 -11.500550 -1.889802
v -1.857500 -2.158852 11.995700
v 2.625450 -11.500550 0.454198
v -3.166300 -2.158850 2.693150
v 1.355050 -2.158851 5.198400
v 1.355050 -11.500551 5.198398
v 1.060300 7.132949 5.822001
v 1.060300 7.132949 5.822001
v 2.997050 -2.158849 -7.045101
v 2.997050 -11.500549 -7.045102
v 1.355050 -2.158849 -8.687100
v 1.355050 -11.500549 -8.687102
v -10.247500 -11.500550 2.690398
v 2.608600 -11.500550 2.776298
v -3.235150 -2.158850 0.372050
v -5.369550 -2.158851 5.031099
v -5.369550 -11.500551 5.031098
v -3.166300 -11.500550 2.693148
v 1.355050 -2.158850 -1.889800
v 1.355050 -11.500550 -1.889802
v -3.499500 -2.158852 10.353700
v -3.499500 -11.500552 10.353698
v 1.355050 -2.158852 11.995700
v 9.704800 -2.158850 0.292950
v 9.704800 -11.500550 0.292948
v 4.863600 -2.158851 5.064350
v 4.863600 -11.500551 5.064348
v 2.997050 -11.500549 -3.531802
v -3.499500 -11.500549 -3.531852
v 1.355050 -11.500552 11.995698
v -3.235150 -11.500550 0.372048
v -1.857500 -11.500552 11.995698
vt 0.954200 0.465200
vt 0.954200 0.574300
vt 0.898400 0.630100
vt 0.723400 0.574300
vt 0.779100 0.630100
vt 0.779100 0.409500
vt 0.723400 0.465200
vt 0.898400 0.409500
vt 0.589700 0.152000
vt 0.529800 0.152000
vt 0.523100 0.009900
vt 0.596400 0.009900
vt 0.519200 0.010200
vt 0.599300 0.010200
vt 0.592000 0.152300
vt 0.526500 0.152300
vt 0.520900 0.010200
vt 0.594200 0.010200
vt 0.587500 0.152300
vt 0.527600 0.152300
vt 0.518500 0.010200
vt 0.598700 0.010200
vt 0.591400 0.152300
vt 0.525900 0.152300
vt 0.371300 0.010100
vt 0.444200 0.010100
vt 0.439000 0.152400
vt 0.379600 0.152400
vt 0.439100 0.152100
vt 0.379600 0.152100
vt 0.372600 0.009800
vt 0.445400 0.009800
vt 0.371100 0.010100
vt 0.444000 0.010100
vt 0.437600 0.152400
vt 0.378100 0.152400
vt 0.372400 0.010200
vt 0.445200 0.010200
vt 0.440100 0.152400
vt 0.380600 0.152400
vt 0.512600 0.009800
vt 0.658800 0.009800
vt 0.516900 0.009800
vt 0.650600 0.009800
vt 0.513700 0.009800
vt 0.659900 0.009800
vt 0.520900 0.008600
vt 0.654600 0.008600
vt 0.370300 0.009200
vt 0.492800 0.009200
vt 0.368100 0.010400
vt 0.490600 0.010400
vt 0.369900 0.010400
vt 0.492400 0.010400
vt 0.367800 0.010400
vt 0.490300 0.010400
vn 0.000000 1.000000 0.000000
vn 0.000000 0.999969 0.000000
vn 0.726096 0.066958 0.684286
vn 0.727348 0.033143 0.685446
vn 0.685476 0.031648 -0.727378
vn 0.684408 0.063997 -0.726249
vn -0.727348 0.033143 -0.685446
vn -0.726096 0.066958 -0.684286
vn -0.685476 0.031648 0.727378
vn -0.684408 0.063997 0.726249
vn 0.998932 0.034577 -0.029603
vn 0.998932 0.034639 -0.029603
vn 0.997101 0.069704 -0.029572
vn 0.029572 0.069704 0.997101
vn 0.029603 0.034639 0.998932
vn 0.029603 0.034577 0.998932
vn -0.029633 0.034639 -0.998932
vn -0.029633 0.034577 -0.998932
vn -0.029572 0.069704 -0.997101
vn -0.998932 0.034577 0.029603
vn -0.998932 0.034639 0.029603
vn -0.997101 0.069704 0.029572
vn -0.685812 0.000000 0.727744
vn -0.727744 0.000000 -0.685812
vn 0.685812 0.000000 -0.727744
vn 0.727744 0.000000 0.685812
vn 0.029633 0.000000 0.999542
vn 0.999542 0.000000 -0.029633
vn -0.999542 0.000000 0.029633
vn -0.029633 0.000000 -0.999542
vn 0.000000 0.033143 0.999420
vn 0.000000 0.066958 0.997742
vn 0.999481 0.031648 0.000000
vn 0.997925 0.063997 0.000000
vn 0.000000 0.033143 -0.999420
vn 0.000000 0.066958 -0.997742
vn -0.999481 0.031648 0.000000
vn -0.997925 0.063997 0.000000
vn 0.706687 0.034577 0.706656
vn 0.706687 0.034639 0.706656
vn 0.705374 0.069704 0.705374
vn -0.705374 0.069704 0.705374
vn -0.706687 0.034639 0.706656
vn -0.706687 0.034577 0.706656
vn 0.706656 0.034639 -0.706656
vn 0.706656 0.034577 -0.706656
vn 0.705374 0.069704 -0.705374
vn -0.706656 0.034577 -0.706656
vn -0.706656 0.034639 -0.706656
vn -0.705374 0.069704 -0.705374
vn -1.000000 0.000000 0.000000
vn -0.999969 0.000000 0.000000
vn 0.000000 0.000000 -1.000000
vn 1.000000 0.000000 0.000000
vn 0.000000 0.000000 1.000000
vn -0.707114 0.000000 0.707083
vn 0.707083 0.000000 0.707083
vn -0.707083 0.000000 -0.707083
vn 0.707083 0.000000 -0.707083
vn -0.711814 0.033143 0.701559
vn -0.710624 0.066958 0.700369
vn 0.701590 0.031648 0.711844
vn 0.700491 0.063997 0.710746
vn 0.711814 0.033143 -0.701559
vn 0.710593 0.066958 -0.700369
vn -0.701590 0.031648 -0.711844
vn -0.700491 0.063997 -0.710746
vn -0.007233 0.034577 0.999359
vn -0.007233 0.034639 0.999359
vn -0.007233 0.069704 0.997528
vn -0.997528 0.069704 -0.007233
vn -0.999359 0.034639 -0.007233
vn -0.999359 0.034577 -0.007233
vn 0.999359 0.034639 0.007233
vn 0.999359 0.034577 0.007233
vn 0.997528 0.069704 0.007233
vn 0.007263 0.034577 -0.999359
vn 0.007263 0.034639 -0.999359
vn 0.007233 0.069704 -0.997528
vn -0.701926 0.000000 -0.712210
vn 0.712210 0.000000 -0.701926
vn 0.701926 0.000000 0.712210
vn -0.712210 0.000000 0.701926
vn -0.999969 0.000000 -0.007233
vn -0.007233 0.000000 0.999969
vn 0.007263 0.000000 -0.999969
vn 0.999969 0.000000 0.007233
vn 0.706656 0.034577 0.706656
vn 0.706656 0.034639 0.706656
vn -0.706656 0.034639 0.706656
vn -0.706656 0.034577 0.706656
vn 0.999969 0.000000 0.000000
vn -0.707083 0.000000 0.707083
s 1
f 1/1/1 2/2/1 3/3/1 4/4/2
f 3/3/1 5/5/1 4/4/2
f 138/6/1 1/1/1 4/4/2 103/7/1
f 8/8/1 1/1/1 138/6/1
f 173/9/3 160/10/3 208/11/4 10/12/4
f 11/13/5 12/14/5 143/15/6 175/16/6
f 13/17/7 14/18/7 6/19/8 141/20/8
f 140/21/9 16/22/9 162/23/10 7/24/10
f 196/25/11 207/26/12 176/27/13 174/28/13
f 161/29/14 163/30/14 112/31/15 9/32/16
f 110/33/17 157/34/18 142/35/19 144/36/19
f 105/37/20 15/38/21 139/39/22 104/40/22
f 16/22/9 140/21/9 17/41/23 18/42/23
f 14/18/7 13/17/7 19/43/24 20/44/24
f 12/14/5 11/13/5 223/45/25 22/46/25
f 10/12/4 208/11/4 23/47/26 24/48/26
f 9/32/16 112/31/15 113/49/27 209/50/27
f 207/26/12 196/25/11 210/51/28 21/52/28
f 15/38/21 105/37/20 156/53/29 205/54/29
f 157/34/18 110/33/17 111/55/30 158/56/30
f 117/1/1 26/2/1 27/3/1 28/4/1
f 27/3/1 29/5/1 28/4/1
f 28/4/1 30/7/1 136/6/1 117/1/1
f 100/8/1 117/1/1 136/6/1
f 33/11/31 211/12/31 188/9/32 25/10/32
f 35/13/33 36/14/33 154/15/34 152/16/34
f 37/17/35 38/18/35 134/19/36 132/20/36
f 39/21/37 40/22/37 32/23/38 31/24/38
f 34/25/39 159/26/40 153/27/41 189/28/41
f 118/29/42 101/30/42 102/31/43 119/32/44
f 201/33/45 203/34/46 133/35/47 155/36/47
f 164/37/48 122/38/49 137/39/50 135/40/50
f 40/22/37 39/21/37 41/41/51 221/42/52
f 38/18/35 37/17/35 43/43/53 165/44/53
f 36/14/33 35/13/33 45/45/54 46/46/54
f 211/12/31 33/11/31 193/47/55 48/48/55
f 119/32/44 102/31/43 42/49/56 47/50/56
f 159/26/40 34/25/39 212/51/57 220/52/57
f 122/38/49 164/37/48 44/53/58 123/54/58
f 203/34/46 201/33/45 202/55/59 204/56/59
f 49/1/1 50/2/1 166/3/1 52/4/1
f 166/3/1 97/5/1 52/4/1
f 52/4/1 54/7/1 114/6/2 49/1/1
f 149/8/1 49/1/1 114/6/2
f 57/11/60 58/12/60 191/9/61 124/10/61
f 59/13/62 60/14/62 53/15/63 51/16/63
f 216/17/64 62/18/64 185/19/65 183/20/65
f 63/21/66 64/22/66 56/23/67 55/24/67
f 218/25/68 168/26/69 167/27/70 192/28/70
f 125/29/71 150/30/71 151/31/72 126/32/73
f 99/33/74 61/34/75 184/35/76 98/36/76
f 130/37/77 116/38/78 115/39/79 186/40/79
f 64/22/66 63/21/66 147/41/80 195/42/80
f 62/18/64 216/17/64 67/43/81 68/44/81
f 60/14/62 59/13/62 69/45/82 70/46/82
f 58/12/60 57/11/60 206/47/83 72/48/83
f 126/32/73 151/31/72 66/49/84 71/50/84
f 168/26/69 218/25/68 219/51/85 190/52/85
f 116/38/78 130/37/77 131/53/86 65/54/86
f 61/34/75 99/33/74 187/55/87 217/56/87
f 73/1/1 74/2/1 145/3/1 76/4/1
f 145/3/1 127/5/1 76/4/1
f 76/4/1 179/7/1 79/6/1 73/1/1
f 80/8/1 73/1/1 79/6/1
f 81/11/31 82/12/31 169/9/32 106/10/32
f 83/13/33 84/14/33 77/15/34 75/16/34
f 85/17/35 181/18/35 78/19/36 199/20/36
f 177/21/37 213/22/37 108/23/38 171/24/38
f 215/25/88 120/26/89 146/27/41 170/28/41
f 107/29/42 109/30/42 88/31/90 194/32/91
f 129/33/45 197/34/46 200/35/47 128/36/47
f 86/37/48 87/38/49 172/39/50 180/40/50
f 213/22/37 177/21/37 89/41/52 90/42/51
f 181/18/35 85/17/35 91/43/53 92/44/53
f 84/14/33 83/13/33 121/45/54 94/46/92
f 82/12/31 81/11/31 95/47/55 222/48/55
f 194/32/91 88/31/90 214/49/93 224/50/93
f 120/26/89 215/25/88 96/51/57 93/52/57
f 87/38/49 86/37/48 182/53/58 178/54/58
f 197/34/46 129/33/45 148/55/59 198/56/59
