# 3ds Max Wavefront OBJ Exporter v0.97b - (c)2007 guruware
# File Created: 17.09.2011 21:01:24

#
# object Box012
#

v  -23.5660 17.8205 20.4076
v  -23.5660 17.8205 -20.3693
v  -20.0583 17.8205 -23.8770
v  23.8921 17.8205 -20.3693
v  20.3844 17.8205 -23.8770
v  23.8921 17.8205 20.4076
v  20.3844 17.8205 23.9154
v  -20.0583 17.8205 23.9154
v  15.9024 48.7916 23.9154
v  -15.5763 48.7916 23.9154
v  -15.5763 20.9853 23.9154
v  15.9024 20.9853 23.9154
v  23.8921 48.7916 -15.8873
v  23.8921 48.7916 15.9256
v  23.8921 20.9853 15.9256
v  23.8921 20.9853 -15.8873
v  -15.5763 48.7916 -23.8770
v  15.9024 48.7916 -23.8770
v  15.9024 20.9853 -23.8770
v  -15.5763 20.9853 -23.8770
v  -23.5660 48.7916 15.9256
v  -23.5660 48.7916 -15.8873
v  -23.5660 20.9853 -15.8873
v  -23.5660 20.9853 15.9256
v  23.8921 51.9564 20.4076
v  20.3844 51.9564 23.9154
v  -27.0218 53.9380 21.8391
v  -21.4898 53.9380 27.3712
v  -21.1697 110.4347 26.5984
v  -26.2491 110.4347 21.5190
v  20.3844 51.9564 -23.8770
v  23.8921 51.9564 -20.3693
v  -23.5660 51.9564 -20.3693
v  -20.0583 51.9564 -23.8770
v  21.4958 110.4347 26.5984
v  26.5752 110.4347 21.5190
v  21.4958 110.4347 -26.5600
v  26.5752 110.4347 -21.4807
v  -21.1697 110.4347 -26.5600
v  -26.2491 110.4347 -21.4807
v  -16.5113 107.1324 26.6436
v  -16.7940 57.2403 27.3260
v  17.1201 57.2403 27.3260
v  16.8376 107.1324 26.6436
v  26.6203 107.1324 16.8608
v  27.3028 57.2403 17.1434
v  27.3028 57.2403 -17.1050
v  26.6203 107.1324 -16.8223
v  16.8376 107.1324 -26.6052
v  17.1201 57.2403 -27.2876
v  -16.7940 57.2403 -27.2876
v  -16.5113 107.1324 -26.6052
v  -26.2942 107.1324 -16.8223
v  -26.9767 57.2403 -17.1050
v  -26.9767 57.2403 17.1434
v  -26.2942 107.1324 16.8608
v  21.8159 53.9380 27.3712
v  27.3479 53.9380 21.8391
v  -20.0583 51.9564 23.9154
v  -23.5660 51.9564 20.4076
v  27.3479 53.9380 -21.8008
v  21.8159 53.9380 -27.3328
v  -21.4898 53.9380 -27.3328
v  -27.0218 53.9380 -21.8008
v  41.4586 16.0333 -16.8043
v  41.4586 19.1308 -16.8043
v  41.2994 19.1308 16.7006
v  41.2994 16.0333 16.7006
v  17.8796 16.0333 -40.6085
v  17.8796 19.1308 -40.6085
v  -15.6253 16.0333 -40.7677
v  -15.6253 19.1308 -40.7677
v  -39.4295 16.0333 -17.1887
v  -39.4295 19.1308 -17.1887
v  -39.5887 16.0333 16.3162
v  -39.5887 19.1308 16.3162
v  -16.0097 16.0333 40.1204
v  -16.0097 19.1308 40.1204
v  17.4952 16.0333 40.2796
v  17.4952 19.1308 40.2796
v  35.0407 16.0333 7.2370
v  35.1103 16.0333 -7.4006
v  19.7838 16.0333 7.6686
v  26.1072 16.0333 3.4866
v  19.8582 16.0333 -7.9772
v  26.1415 16.0333 -3.7354
v  19.7616 16.0333 29.1622
v  30.1611 16.0333 18.8612
v  8.6681 16.0333 18.6792
v  16.0964 16.0333 20.1934
v  21.2275 16.0333 15.1109
v  -6.5461 16.0333 33.8618
v  8.0915 16.0333 33.9313
v  -6.9777 16.0333 18.6049
v  -2.7959 16.0333 24.9282
v  4.4263 16.0333 24.9625
v  -28.4715 16.0333 18.5826
v  -18.1703 16.0333 28.9821
v  -17.9883 16.0333 7.4891
v  -19.5025 16.0333 14.9174
v  -14.4201 16.0333 20.0485
v  -33.1709 16.0333 -7.7251
v  -33.2405 16.0333 6.9125
v  -17.9139 16.0333 -8.1567
v  -24.2373 16.0333 -3.9749
v  -24.2716 16.0333 3.2473
v  -17.8917 16.0333 -29.6504
v  -28.2912 16.0333 -19.3493
v  -6.7982 16.0333 -19.1673
v  -14.2265 16.0333 -20.6815
v  -19.3576 16.0333 -15.5991
v  8.4160 16.0333 -34.3499
v  -6.2216 16.0333 -34.4195
v  8.8476 16.0333 -19.0929
v  4.6656 16.0333 -25.4163
v  -2.5564 16.0333 -25.4506
v  30.3412 16.0333 -19.0707
v  20.0402 16.0333 -29.4702
v  21.3724 16.0333 -15.4055
v  16.2899 16.0333 -20.5366
v  35.0407 -10.9983 7.2370
v  35.1103 -10.9983 -7.4006
v  26.1072 -10.9983 3.4866
v  26.1415 -10.9983 -3.7354
v  19.7616 -10.9983 29.1622
v  30.1611 -10.9983 18.8612
v  16.0964 -10.9983 20.1934
v  21.2275 -10.9983 15.1109
v  -6.5461 -10.9983 33.8618
v  8.0915 -10.9983 33.9313
v  -2.7959 -10.9983 24.9282
v  4.4263 -10.9983 24.9625
v  -28.4715 -10.9983 18.5826
v  -18.1703 -10.9983 28.9821
v  -19.5025 -10.9983 14.9174
v  -14.4201 -10.9983 20.0485
v  -33.1709 -10.9983 -7.7251
v  -33.2405 -10.9983 6.9125
v  -24.2373 -10.9983 -3.9749
v  -24.2716 -10.9983 3.2473
v  -17.8917 -10.9983 -29.6504
v  -28.2912 -10.9983 -19.3493
v  -14.2265 -10.9983 -20.6815
v  -19.3576 -10.9983 -15.5991
v  8.4160 -10.9983 -34.3499
v  -6.2216 -10.9983 -34.4195
v  4.6656 -10.9983 -25.4163
v  -2.5564 -10.9983 -25.4506
v  30.3412 -10.9983 -19.0707
v  20.0402 -10.9983 -29.4702
v  21.3724 -10.9983 -15.4055
v  16.2899 -10.9983 -20.5366
# 152 vertices

vn 0.0000 -1.0000 -0.0000
vn 0.0000 0.0000 1.0000
vn 1.0000 0.0000 -0.0000
vn 0.0000 0.0000 -1.0000
vn -1.0000 0.0000 -0.0000
vn 0.7071 0.0000 0.7071
vn -0.7071 0.0097 0.7071
vn 0.7071 0.0000 -0.7071
vn -0.7071 0.0000 -0.7071
vn 0.0000 1.0000 -0.0000
vn 0.0000 0.0097 1.0000
vn 1.0000 0.0097 -0.0000
vn 0.0000 0.0097 -1.0000
vn -1.0000 0.0097 -0.0000
vn 0.7071 0.0097 0.7071
vn -0.7071 0.0000 0.7071
vn 0.7071 0.0097 -0.7071
vn -0.7071 0.0097 -0.7071
vn 0.0000 -0.7763 0.6304
vn 0.4458 -0.7763 0.4458
vn 0.6304 -0.7763 -0.0000
vn 0.4458 -0.7763 -0.4458
vn 0.0000 -0.7763 -0.6304
vn -0.4458 -0.7763 -0.4458
vn -0.6304 -0.7763 -0.0000
vn -0.4458 -0.7763 0.4458
vn 1.0000 0.0000 0.0048
vn 0.7105 0.0000 -0.7037
vn 0.0048 0.0000 -1.0000
vn -0.7037 0.0000 -0.7105
vn -1.0000 0.0000 -0.0048
vn -0.7105 0.0000 0.7037
vn -0.0048 0.0000 1.0000
vn 0.7037 0.0000 0.7105
vn -0.3871 0.0000 0.9221
vn -0.3783 0.0000 -0.9257
vn -0.9257 0.0000 0.3783
vn 0.3871 0.0000 -0.9221
vn -0.9221 0.0000 -0.3871
vn 0.0047 0.0000 -1.0000
vn 0.9257 0.0000 -0.3783
vn 0.9221 0.0000 0.3871
vn 0.3783 0.0000 0.9257
# 43 vertex normals

vt 0.7598 0.4434 0.0000
vt 0.9149 0.4434 0.0000
vt 0.9283 0.4552 0.0000
vt 0.9149 0.6031 0.0000
vt 0.9283 0.5913 0.0000
vt 0.7598 0.6031 0.0000
vt 0.7464 0.5913 0.0000
vt 0.7464 0.4552 0.0000
vt 0.6465 0.3819 0.0000
vt 0.3685 0.3819 0.0000
vt 0.3685 0.0144 0.0000
vt 0.6465 0.0144 0.0000
vt 0.6524 0.3741 0.0000
vt 0.3714 0.3741 0.0000
vt 0.3714 0.0065 0.0000
vt 0.6524 0.0065 0.0000
vt 0.6477 0.3659 0.0000
vt 0.3697 0.3659 0.0000
vt 0.3697 -0.0017 0.0000
vt 0.6477 -0.0017 0.0000
vt 0.6534 0.3819 0.0000
vt 0.3724 0.3819 0.0000
vt 0.3724 0.0144 0.0000
vt 0.6534 0.0144 0.0000
vt 0.9284 0.2229 0.0000
vt 0.9142 0.2229 0.0000
vt 0.9142 0.0260 0.0000
vt 0.9284 0.0260 0.0000
vt 0.7223 0.2343 0.0000
vt 0.7447 0.2343 0.0000
vt 0.7460 0.5603 0.0000
vt 0.7254 0.5603 0.0000
vt 0.7623 0.2186 0.0000
vt 0.7481 0.2186 0.0000
vt 0.7481 0.0217 0.0000
vt 0.7623 0.0217 0.0000
vt 0.9402 0.2186 0.0000
vt 0.9260 0.2186 0.0000
vt 0.9260 0.0217 0.0000
vt 0.9402 0.0217 0.0000
vt 0.9378 0.4532 0.0000
vt 0.9378 0.5968 0.0000
vt 0.9185 0.6139 0.0000
vt 0.7355 0.5968 0.0000
vt 0.7549 0.6139 0.0000
vt 0.7355 0.4532 0.0000
vt 0.7549 0.4361 0.0000
vt 0.9185 0.4361 0.0000
vt 0.0092 0.5386 0.0000
vt 0.0065 0.0212 0.0000
vt 0.3326 0.0212 0.0000
vt 0.3298 0.5386 0.0000
vt 0.0326 0.5324 0.0000
vt 0.0298 0.0151 0.0000
vt 0.3591 0.0151 0.0000
vt 0.3564 0.5324 0.0000
vt 0.0374 0.5308 0.0000
vt 0.0347 0.0135 0.0000
vt 0.3608 0.0135 0.0000
vt 0.3580 0.5308 0.0000
vt 0.0292 0.5386 0.0000
vt 0.0264 0.0212 0.0000
vt 0.3557 0.0212 0.0000
vt 0.3530 0.5386 0.0000
vt 0.9187 0.5603 0.0000
vt 0.9200 0.2343 0.0000
vt 0.9424 0.2343 0.0000
vt 0.9392 0.5603 0.0000
vt 0.7505 0.0260 0.0000
vt 0.7505 0.2229 0.0000
vt 0.7363 0.2229 0.0000
vt 0.7363 0.0260 0.0000
vt 0.7373 0.5560 0.0000
vt 0.7342 0.2300 0.0000
vt 0.7565 0.2300 0.0000
vt 0.7578 0.5560 0.0000
vt 0.9305 0.5560 0.0000
vt 0.9318 0.2300 0.0000
vt 0.9542 0.2300 0.0000
vt 0.9511 0.5560 0.0000
vt 0.7333 0.5961 0.0000
vt 0.7333 0.4504 0.0000
vt 0.7543 0.6147 0.0000
vt 0.9204 0.6147 0.0000
vt 0.9414 0.5961 0.0000
vt 0.9414 0.4504 0.0000
vt 0.9204 0.4318 0.0000
vt 0.7543 0.4318 0.0000
vt 0.9010 0.2534 0.0000
vt 0.7637 0.2534 0.0000
vt 0.7648 0.5412 0.0000
vt 0.8998 0.5412 0.0000
vt 0.9312 0.2309 0.0000
vt 0.9121 0.2500 0.0000
vt 0.7735 0.2500 0.0000
vt 0.7545 0.2309 0.0000
vt 0.7747 0.5378 0.0000
vt 0.7558 0.5569 0.0000
vt 0.9110 0.5378 0.0000
vt 0.9299 0.5569 0.0000
vt 0.9128 0.2491 0.0000
vt 0.7756 0.2491 0.0000
vt 0.7767 0.5369 0.0000
vt 0.9117 0.5369 0.0000
vt 0.7544 0.5603 0.0000
vt 0.7732 0.5412 0.0000
vt 0.9096 0.5412 0.0000
vt 0.9284 0.5603 0.0000
vt 0.9107 0.2534 0.0000
vt 0.9297 0.2343 0.0000
vt 0.7721 0.2534 0.0000
vt 0.7531 0.2343 0.0000
vt 0.7686 0.2047 0.0000
vt 0.8960 0.2047 0.0000
vt 0.8960 0.0443 0.0000
vt 0.7686 0.0443 0.0000
vt 0.7603 0.2195 0.0000
vt 0.7785 0.2012 0.0000
vt 0.9072 0.2012 0.0000
vt 0.9254 0.2195 0.0000
vt 0.9072 0.0408 0.0000
vt 0.9254 0.0226 0.0000
vt 0.7785 0.0408 0.0000
vt 0.7603 0.0226 0.0000
vt 0.7805 0.2003 0.0000
vt 0.9079 0.2003 0.0000
vt 0.9079 0.0399 0.0000
vt 0.7805 0.0399 0.0000
vt 0.7589 0.2229 0.0000
vt 0.7770 0.2047 0.0000
vt 0.9058 0.2047 0.0000
vt 0.9239 0.2229 0.0000
vt 0.9058 0.0443 0.0000
vt 0.9239 0.0260 0.0000
vt 0.7770 0.0443 0.0000
vt 0.7589 0.0260 0.0000
vt 0.8069 0.2219 0.0000
vt 0.8069 0.2243 0.0000
vt 0.7886 0.2243 0.0000
vt 0.7886 0.2219 0.0000
vt 0.8199 0.2219 0.0000
vt 0.8199 0.2243 0.0000
vt 0.8493 0.1966 0.0000
vt 0.8493 0.1990 0.0000
vt 0.8310 0.1990 0.0000
vt 0.8310 0.1966 0.0000
vt 0.8623 0.1966 0.0000
vt 0.8623 0.1990 0.0000
vt 0.8917 0.1966 0.0000
vt 0.8917 0.1990 0.0000
vt 0.8734 0.1990 0.0000
vt 0.8734 0.1966 0.0000
vt 0.9047 0.1966 0.0000
vt 0.9047 0.1990 0.0000
vt 0.8069 0.1966 0.0000
vt 0.8069 0.1990 0.0000
vt 0.7886 0.1990 0.0000
vt 0.7886 0.1966 0.0000
vt 0.8199 0.1966 0.0000
vt 0.8199 0.1990 0.0000
vt 0.7921 0.1717 0.0000
vt 0.7973 0.1680 0.0000
vt 0.8053 0.1681 0.0000
vt 0.8104 0.1718 0.0000
vt 0.7970 0.1590 0.0000
vt 0.7993 0.1628 0.0000
vt 0.8056 0.1591 0.0000
vt 0.8033 0.1628 0.0000
vt 0.7792 0.1577 0.0000
vt 0.7853 0.1590 0.0000
vt 0.7909 0.1652 0.0000
vt 0.7910 0.1525 0.0000
vt 0.7902 0.1569 0.0000
vt 0.7930 0.1599 0.0000
vt 0.7793 0.1379 0.0000
vt 0.7827 0.1435 0.0000
vt 0.7827 0.1521 0.0000
vt 0.7911 0.1432 0.0000
vt 0.7876 0.1457 0.0000
vt 0.7876 0.1500 0.0000
vt 0.7923 0.1240 0.0000
vt 0.7911 0.1305 0.0000
vt 0.7854 0.1366 0.0000
vt 0.7971 0.1367 0.0000
vt 0.7931 0.1358 0.0000
vt 0.7903 0.1388 0.0000
vt 0.8106 0.1241 0.0000
vt 0.8054 0.1278 0.0000
vt 0.7974 0.1277 0.0000
vt 0.8057 0.1368 0.0000
vt 0.8034 0.1330 0.0000
vt 0.7994 0.1330 0.0000
vt 0.8235 0.1381 0.0000
vt 0.8174 0.1368 0.0000
vt 0.8118 0.1306 0.0000
vt 0.8117 0.1433 0.0000
vt 0.8125 0.1389 0.0000
vt 0.8097 0.1359 0.0000
vt 0.8234 0.1579 0.0000
vt 0.8200 0.1523 0.0000
vt 0.8200 0.1437 0.0000
vt 0.8116 0.1526 0.0000
vt 0.8151 0.1501 0.0000
vt 0.8151 0.1458 0.0000
vt 0.8116 0.1653 0.0000
vt 0.8173 0.1592 0.0000
vt 0.8096 0.1600 0.0000
vt 0.8124 0.1570 0.0000
vt 0.7938 0.2219 0.0000
vt 0.7938 0.2009 0.0000
vt 0.8018 0.2009 0.0000
vt 0.8018 0.2219 0.0000
vt 0.8116 0.1966 0.0000
vt 0.8116 0.1756 0.0000
vt 0.8165 0.1756 0.0000
vt 0.8165 0.1966 0.0000
vt 0.8808 0.1966 0.0000
vt 0.8808 0.1756 0.0000
vt 0.8847 0.1756 0.0000
vt 0.8847 0.1966 0.0000
vt 0.8216 0.1966 0.0000
vt 0.8216 0.1756 0.0000
vt 0.8265 0.1756 0.0000
vt 0.8265 0.1966 0.0000
vt 0.8082 0.1966 0.0000
vt 0.8082 0.1756 0.0000
vt 0.8138 0.1756 0.0000
vt 0.8138 0.1966 0.0000
vt 0.8938 0.1966 0.0000
vt 0.8938 0.1756 0.0000
vt 0.8987 0.1756 0.0000
vt 0.8987 0.1966 0.0000
vt 0.8292 0.1966 0.0000
vt 0.8292 0.1756 0.0000
vt 0.8320 0.1756 0.0000
vt 0.8320 0.1966 0.0000
vt 0.8243 0.1966 0.0000
vt 0.8243 0.1756 0.0000
vt 0.7938 0.1966 0.0000
vt 0.7938 0.1756 0.0000
vt 0.8018 0.1756 0.0000
vt 0.8018 0.1966 0.0000
vt 0.8964 0.1966 0.0000
vt 0.8964 0.1756 0.0000
vt 0.9013 0.1756 0.0000
vt 0.9013 0.1966 0.0000
vt 0.8384 0.1966 0.0000
vt 0.8384 0.1756 0.0000
vt 0.8423 0.1756 0.0000
vt 0.8423 0.1966 0.0000
vt 0.7792 0.2219 0.0000
vt 0.7792 0.2009 0.0000
vt 0.7841 0.2009 0.0000
vt 0.7841 0.2219 0.0000
vt 0.8930 0.1966 0.0000
vt 0.8930 0.1756 0.0000
vt 0.8986 0.1756 0.0000
vt 0.8986 0.1966 0.0000
vt 0.8514 0.1966 0.0000
vt 0.8514 0.1756 0.0000
vt 0.8563 0.1756 0.0000
vt 0.8563 0.1966 0.0000
vt 0.7868 0.2219 0.0000
vt 0.7868 0.2009 0.0000
vt 0.7896 0.2009 0.0000
vt 0.7896 0.2219 0.0000
vt 0.7819 0.2219 0.0000
vt 0.7819 0.2009 0.0000
vt 0.8786 0.1966 0.0000
vt 0.8786 0.1756 0.0000
vt 0.8866 0.1756 0.0000
vt 0.8866 0.1966 0.0000
vt 0.8540 0.1966 0.0000
vt 0.8540 0.1756 0.0000
vt 0.8589 0.1756 0.0000
vt 0.8589 0.1966 0.0000
vt 0.7960 0.2219 0.0000
vt 0.7960 0.2009 0.0000
vt 0.7999 0.2009 0.0000
vt 0.7999 0.2219 0.0000
vt 0.7792 0.1966 0.0000
vt 0.7792 0.1756 0.0000
vt 0.7841 0.1756 0.0000
vt 0.7841 0.1966 0.0000
vt 0.8506 0.1966 0.0000
vt 0.8506 0.1756 0.0000
vt 0.8562 0.1756 0.0000
vt 0.8562 0.1966 0.0000
vt 0.8090 0.2219 0.0000
vt 0.8090 0.2009 0.0000
vt 0.8139 0.2009 0.0000
vt 0.8139 0.2219 0.0000
vt 0.7868 0.1966 0.0000
vt 0.7868 0.1756 0.0000
vt 0.7896 0.1756 0.0000
vt 0.7896 0.1966 0.0000
vt 0.7819 0.1966 0.0000
vt 0.7819 0.1756 0.0000
vt 0.8362 0.1966 0.0000
vt 0.8362 0.1756 0.0000
vt 0.8442 0.1756 0.0000
vt 0.8442 0.1966 0.0000
vt 0.8116 0.2219 0.0000
vt 0.8116 0.2009 0.0000
vt 0.8165 0.2009 0.0000
vt 0.8165 0.2219 0.0000
vt 0.7960 0.1966 0.0000
vt 0.7960 0.1756 0.0000
vt 0.7999 0.1756 0.0000
vt 0.7999 0.1966 0.0000
vt 0.8640 0.1966 0.0000
vt 0.8640 0.1756 0.0000
vt 0.8689 0.1756 0.0000
vt 0.8689 0.1966 0.0000
vt 0.8082 0.2219 0.0000
vt 0.8082 0.2009 0.0000
vt 0.8138 0.2009 0.0000
vt 0.8138 0.2219 0.0000
vt 0.8090 0.1966 0.0000
vt 0.8090 0.1756 0.0000
vt 0.8139 0.1756 0.0000
vt 0.8139 0.1966 0.0000
vt 0.8716 0.1966 0.0000
vt 0.8716 0.1756 0.0000
vt 0.8744 0.1756 0.0000
vt 0.8744 0.1966 0.0000
vt 0.8667 0.1966 0.0000
vt 0.8667 0.1756 0.0000
vt 0.8583 0.1717 0.0000
vt 0.8400 0.1718 0.0000
vt 0.8270 0.1579 0.0000
vt 0.8711 0.1379 0.0000
vt 0.8269 0.1381 0.0000
vt 0.8398 0.1241 0.0000
vt 0.8581 0.1240 0.0000
vt 0.8711 0.1577 0.0000
# 336 texture coords

g Box012
s off
f 1/1/1 2/2/1 3/3/1 4/4/1 
f 3/3/1 5/5/1 4/4/1 
f 4/4/1 6/6/1 7/7/1 1/1/1 
f 8/8/1 1/1/1 7/7/1 
f 9/9/2 10/10/2 11/11/2 12/12/2 
f 13/13/3 14/14/3 15/15/3 16/16/3 
f 17/17/4 18/18/4 19/19/4 20/20/4 
f 21/21/5 22/22/5 23/23/5 24/24/5 
f 25/25/6 26/26/6 7/27/6 6/28/6 
f 27/29/7 28/30/7 29/31/7 30/32/7 
f 31/33/8 32/34/8 4/35/8 5/36/8 
f 33/37/9 34/38/9 3/39/9 2/40/9 
f 29/41/10 35/42/10 36/43/10 37/44/10 
f 36/43/10 38/45/10 37/44/10 
f 37/44/10 39/46/10 40/47/10 29/41/10 
f 30/48/10 29/41/10 40/47/10 
f 41/49/11 42/50/11 43/51/11 44/52/11 
f 45/53/12 46/54/12 47/55/12 48/56/12 
f 49/57/13 50/58/13 51/59/13 52/60/13 
f 53/61/14 54/62/14 55/63/14 56/64/14 
f 35/65/15 57/66/15 58/67/15 36/68/15 
f 8/69/16 59/70/16 60/71/16 1/72/16 
f 38/73/17 61/74/17 62/75/17 37/76/17 
f 39/77/18 63/78/18 64/79/18 40/80/18 
f 26/7/19 57/81/19 28/82/19 59/8/19 
f 25/6/20 58/83/20 57/81/20 26/7/20 
f 32/4/21 61/84/21 58/83/21 25/6/21 
f 31/5/22 62/85/22 61/84/22 32/4/22 
f 34/3/23 63/86/23 62/85/23 31/5/23 
f 33/2/24 64/87/24 63/86/24 34/3/24 
f 60/1/25 27/88/25 64/87/25 33/2/25 
f 59/8/26 28/82/26 27/88/26 60/1/26 
f 57/66/11 43/89/11 42/90/11 28/30/11 
f 28/30/11 42/90/11 41/91/11 29/31/11 
f 29/31/11 41/91/11 44/92/11 35/65/11 
f 35/65/11 44/92/11 43/89/11 57/66/11 
f 61/93/12 47/94/12 46/95/12 58/96/12 
f 58/96/12 46/95/12 45/97/12 36/98/12 
f 36/98/12 45/97/12 48/99/12 38/100/12 
f 38/100/12 48/99/12 47/94/12 61/93/12 
f 63/78/13 51/101/13 50/102/13 62/75/13 
f 62/75/13 50/102/13 49/103/13 37/76/13 
f 37/76/13 49/103/13 52/104/13 39/77/13 
f 39/77/13 52/104/13 51/101/13 63/78/13 
f 40/105/14 53/106/14 56/107/14 30/108/14 
f 30/108/14 56/107/14 55/109/14 27/110/14 
f 27/110/14 55/109/14 54/111/14 64/112/14 
f 64/112/14 54/111/14 53/106/14 40/105/14 
f 59/70/2 10/113/2 9/114/2 26/26/2 
f 26/26/2 9/114/2 12/115/2 7/27/2 
f 7/27/2 12/115/2 11/116/2 8/69/2 
f 8/69/2 11/116/2 10/113/2 59/70/2 
f 25/117/3 14/118/3 13/119/3 32/120/3 
f 32/120/3 13/119/3 16/121/3 4/122/3 
f 4/122/3 16/121/3 15/123/3 6/124/3 
f 6/124/3 15/123/3 14/118/3 25/117/3 
f 31/33/4 18/125/4 17/126/4 34/38/4 
f 34/38/4 17/126/4 20/127/4 3/39/4 
f 3/39/4 20/127/4 19/128/4 5/36/4 
f 5/36/4 19/128/4 18/125/4 31/33/4 
f 33/129/5 22/130/5 21/131/5 60/132/5 
f 60/132/5 21/131/5 24/133/5 1/134/5 
f 1/134/5 24/133/5 23/135/5 2/136/5 
f 2/136/5 23/135/5 22/130/5 33/129/5 
f 65/137/27 66/138/27 67/139/27 68/140/27 
f 69/141/28 70/142/28 66/138/28 65/137/28 
f 71/143/29 72/144/29 70/145/29 69/146/29 
f 73/147/30 74/148/30 72/144/30 71/143/30 
f 75/149/31 76/150/31 74/151/31 73/152/31 
f 77/153/32 78/154/32 76/150/32 75/149/32 
f 79/155/33 80/156/33 78/157/33 77/158/33 
f 68/159/34 67/160/34 80/156/34 79/155/34 
f 68/161/1 81/162/1 82/163/1 65/164/1 
f 83/165/1 84/166/1 81/162/1 68/161/1 
f 85/167/1 86/168/1 84/166/1 83/165/1 
f 85/167/1 65/164/1 82/163/1 86/168/1 
f 79/169/1 87/170/1 88/171/1 68/161/1 
f 89/172/1 90/173/1 87/170/1 79/169/1 
f 83/165/1 91/174/1 90/173/1 89/172/1 
f 83/165/1 68/161/1 88/171/1 91/174/1 
f 77/175/1 92/176/1 93/177/1 79/169/1 
f 94/178/1 95/179/1 92/176/1 77/175/1 
f 89/172/1 96/180/1 95/179/1 94/178/1 
f 89/172/1 79/169/1 93/177/1 96/180/1 
f 75/181/1 97/182/1 98/183/1 77/175/1 
f 99/184/1 100/185/1 97/182/1 75/181/1 
f 94/178/1 101/186/1 100/185/1 99/184/1 
f 94/178/1 77/175/1 98/183/1 101/186/1 
f 73/187/1 102/188/1 103/189/1 75/181/1 
f 104/190/1 105/191/1 102/188/1 73/187/1 
f 99/184/1 106/192/1 105/191/1 104/190/1 
f 99/184/1 75/181/1 103/189/1 106/192/1 
f 71/193/1 107/194/1 108/195/1 73/187/1 
f 109/196/1 110/197/1 107/194/1 71/193/1 
f 104/190/1 111/198/1 110/197/1 109/196/1 
f 104/190/1 73/187/1 108/195/1 111/198/1 
f 69/199/1 112/200/1 113/201/1 71/193/1 
f 114/202/1 115/203/1 112/200/1 69/199/1 
f 109/196/1 116/204/1 115/203/1 114/202/1 
f 109/196/1 71/193/1 113/201/1 116/204/1 
f 65/164/1 117/205/1 118/206/1 69/199/1 
f 85/167/1 119/207/1 117/205/1 65/164/1 
f 114/202/1 120/208/1 119/207/1 85/167/1 
f 114/202/1 69/199/1 118/206/1 120/208/1 
f 81/209/27 121/210/27 122/211/27 82/212/27 
f 84/213/35 123/214/35 121/215/35 81/216/35 
f 86/217/31 124/218/31 123/219/31 84/220/31 
f 82/221/36 122/222/36 124/223/36 86/224/36 
f 87/225/34 125/226/34 126/227/34 88/228/34 
f 90/229/37 127/230/37 125/231/37 87/232/37 
f 91/233/30 128/234/30 127/235/30 90/236/30 
f 88/237/38 126/238/38 128/234/38 91/233/38 
f 92/239/33 129/240/33 130/241/33 93/242/33 
f 95/243/39 131/244/39 129/245/39 92/246/39 
f 96/247/40 132/248/40 131/249/40 95/250/40 
f 93/251/41 130/252/41 132/253/41 96/254/41 
f 97/255/32 133/256/32 134/257/32 98/258/32 
f 100/259/36 135/260/36 133/261/36 97/262/36 
f 101/263/28 136/264/28 135/265/28 100/266/28 
f 98/267/42 134/268/42 136/264/42 101/263/42 
f 102/269/31 137/270/31 138/271/31 103/272/31 
f 105/273/38 139/274/38 137/275/38 102/276/38 
f 106/277/27 140/278/27 139/279/27 105/280/27 
f 103/281/43 138/282/43 140/283/43 106/284/43 
f 107/285/30 141/286/30 142/287/30 108/288/30 
f 110/289/41 143/290/41 141/291/41 107/292/41 
f 111/293/34 144/294/34 143/295/34 110/296/34 
f 108/297/35 142/298/35 144/294/35 111/293/35 
f 112/299/29 145/300/29 146/301/29 113/302/29 
f 115/303/42 147/304/42 145/305/42 112/306/42 
f 116/307/33 148/308/33 147/309/33 115/310/33 
f 113/311/37 146/312/37 148/313/37 116/314/37 
f 117/315/28 149/316/28 150/317/28 118/318/28 
f 119/319/43 151/320/43 149/321/43 117/322/43 
f 120/323/32 152/324/32 151/325/32 119/326/32 
f 118/327/39 150/328/39 152/324/39 120/323/39 
f 70/329/10 72/330/10 74/331/10 67/332/10 
f 74/331/10 76/333/10 78/334/10 67/332/10 
f 78/334/10 80/335/10 67/332/10 
f 66/336/10 70/329/10 67/332/10 
f 89/172/1 94/178/1 99/184/1 85/167/1 
f 99/184/1 104/190/1 109/196/1 85/167/1 
f 109/196/1 114/202/1 85/167/1 
f 83/165/1 89/172/1 85/167/1 
# 136 polygons - 8 triangles

