#
# object MQ
#

v  10.112841606140 12.850010871887 10.111487388611
v  19.424898147583 12.850153923035 10.111693382263
v  19.615766525269 100.827415466309 10.111689567566
v  10.262295722961 113.098922729492 10.260772705078
v  24.405000686646 111.656364440918 -2.128384113312
v  12.110736846924 124.159873962402 0.015074817464
v  24.408357620239 111.657562255859 2.117612838745
v  0.000000177822 119.159599304199 -0.000000177822
v  10.260772705078 113.098922729492 -10.262296676636
v  17.831659317017 103.186492919922 8.016588211060
v  19.615766525269 100.827415466309 -10.111691474915
v  17.826637268066 103.190139770508 -8.030407905579
v  12.128067970276 110.741180419922 6.755161285400
v  12.128504753113 110.738075256348 -6.762460231781
v  10.111487388611 12.850010871887 -10.112841606140
v  19.424898147583 12.850153923035 -10.111693382263
v  -10.111487388611 12.850010871887 10.112840652466
v  -10.110359191895 12.850153923035 19.425439834595
v  -10.110344886780 100.827636718750 19.616308212280
v  -10.260772705078 113.098922729492 10.262294769287
v  2.128383398056 111.656364440918 24.405000686646
v  -0.015074991621 124.159873962402 12.110736846924
v  -2.117613554001 111.657562255859 24.408357620239
v  -8.016588211060 103.186492919922 17.831659317017
v  10.113035202026 100.827194213867 19.615224838257
v  8.030407905579 103.190139770508 17.826637268066
v  -6.755161285400 110.741180419922 12.128067970276
v  6.762460231781 110.738075256348 12.128504753113
v  10.113027572632 12.850153923035 19.424360275269
v  -10.112841606140 12.850010871887 -10.111487388611
v  -19.424898147583 12.850153923035 -10.111693382263
v  -19.615766525269 100.827415466309 -10.111689567566
v  -10.262295722961 113.098922729492 -10.260772705078
v  -24.405000686646 111.656364440918 2.128384113312
v  -12.110736846924 124.159873962402 -0.015074817464
v  -24.408357620239 111.657562255859 -2.117612838745
v  -17.831659317017 103.186492919922 -8.016588211060
v  -19.615766525269 100.827415466309 10.111691474915
v  -17.826637268066 103.190139770508 8.030407905579
v  -12.128067970276 110.741180419922 -6.755161285400
v  -12.128504753113 110.738075256348 6.762460231781
v  -19.424898147583 12.850153923035 10.111693382263
v  10.110359191895 12.850153923035 -19.425436019897
v  10.110344886780 100.827636718750 -19.616308212280
v  -2.128384590149 111.656364440918 -24.405000686646
v  0.015074643306 124.159873962402 -12.110736846924
v  2.117612123489 111.657562255859 -24.408357620239
v  8.016588211060 103.186492919922 -17.831659317017
v  -10.113035202026 100.827194213867 -19.615224838257
v  -8.030407905579 103.190139770508 -17.826637268066
v  6.755161285400 110.741180419922 -12.128067970276
v  -6.762460231781 110.738075256348 -12.128504753113
v  -10.113027572632 12.850153923035 -19.424356460571
v  -24.266183853149 0.000000000000 -14.239166259766
v  -14.087286949158 0.000000000000 -24.418064117432
v  14.159368515015 0.000000000000 -24.418064117432
v  -24.266183853149 0.000000000000 14.766930580139
v  24.338264465332 0.000000000000 14.766930580139
v  14.159368515015 0.000000000000 24.945825576782
v  -14.087286949158 0.000000000000 24.945825576782
v  24.338264465332 0.000000000000 -14.239166259766
v  -14.087286949158 13.821890830994 24.945825576782
v  14.159368515015 13.821890830994 24.945825576782
v  24.338264465332 13.821890830994 14.766930580139
v  24.338264465332 13.821890830994 -14.239166259766
v  14.159368515015 13.821890830994 -24.418064117432
v  -14.087286949158 13.821890830994 -24.418064117432
v  -24.266183853149 13.821890830994 -14.239166259766
v  -24.266183853149 13.821890830994 14.766930580139
# 69 vertices

vn 0.001049017184 -0.000190730396 0.999999463558
vn -0.000022047438 0.000000086856 0.999999940395
vn 0.206279456615 0.145972087979 0.967543780804
vn 0.494830846786 0.714342296124 0.494830846786
vn 0.712613523006 0.701556384563 -0.000762561278
vn -0.315598189831 0.948892176151 0.001122188172
vn 0.560549736023 0.623849928379 0.544605553150
vn -0.000000019050 1.000000000000 0.000000012180
vn 0.494830846786 0.714342296124 -0.494830846786
vn 0.796616613865 0.604474604130 0.003529917914
vn 0.797591149807 0.603198528290 -0.000000000000
vn 0.436186969280 0.321307778358 -0.840536892414
vn 0.796616911888 0.604474842548 -0.003434516024
vn 0.595619916916 0.698799669743 0.396126329899
vn 0.595687329769 0.698878765106 -0.395885080099
vn 0.295624881983 0.407390147448 -0.864082872868
vn 0.302525997162 0.375391632318 -0.876104593277
vn 0.302847206593 0.375316917896 0.876025557518
vn 0.000953652023 -0.000190730396 -0.999999523163
vn 0.000123270758 -0.000000236219 -0.999999940395
vn 0.789721786976 -0.613465070724 -0.000405352359
vn 0.789793610573 -0.613372683525 -0.000381450664
vn -0.999999463558 -0.000190730396 0.001049017184
vn -0.999999940395 -0.000000098921 0.000121143239
vn -0.967534780502 0.145931690931 0.206349909306
vn -0.494830846786 0.714342296124 0.494830846786
vn 0.000762561278 0.701556384563 0.712613523006
vn -0.001122188172 0.948892176151 -0.315598189831
vn -0.544605553150 0.623849928379 0.560549736023
vn -0.003529917914 0.604474604130 0.796616613865
vn 0.000055838482 0.603319168091 0.797499954700
vn 0.840609729290 0.321256816387 0.436084091663
vn 0.003434516024 0.604474842548 0.796616911888
vn -0.396126329899 0.698799669743 0.595619916916
vn 0.395885080099 0.698878765106 0.595687329769
vn 0.864082872868 0.407390147448 0.295624881983
vn 0.876104593277 0.375391632318 0.302525997162
vn -0.876025557518 0.375316917896 0.302847206593
vn 0.999999523163 -0.000190730396 0.000953652023
vn 0.999999940395 -0.000000050309 -0.000019981040
vn 0.000405352359 -0.613465070724 0.789721786976
vn 0.000381450664 -0.613372683525 0.789793610573
vn -0.001049017184 -0.000190730396 -0.999999463558
vn 0.000022047438 0.000000086856 -0.999999940395
vn -0.206279456615 0.145972087979 -0.967543780804
vn -0.494830846786 0.714342296124 -0.494830846786
vn -0.712613523006 0.701556384563 0.000762561278
vn 0.315598189831 0.948892176151 -0.001122188172
vn -0.560549736023 0.623849928379 -0.544605553150
vn -0.796616613865 0.604474604130 -0.003529917914
vn -0.797591149807 0.603198528290 -0.000000000000
vn -0.436186850071 0.321307778358 0.840536892414
vn -0.796616911888 0.604474842548 0.003434516024
vn -0.595619916916 0.698799669743 -0.396126329899
vn -0.595687329769 0.698878765106 0.395885080099
vn -0.295624881983 0.407390147448 0.864082872868
vn -0.302525997162 0.375391632318 0.876104593277
vn -0.302847206593 0.375316917896 -0.876025557518
vn -0.000953652023 -0.000190730396 0.999999523163
vn -0.000123123318 -0.000000235899 0.999999940395
vn -0.789721786976 -0.613465070724 0.000405352359
vn -0.789793610573 -0.613372683525 0.000381450664
vn 0.999999463558 -0.000190730396 -0.001049017184
vn 1.000000000000 -0.000000098925 -0.000121143312
vn 0.967534780502 0.145931705832 -0.206349939108
vn -0.000762561278 0.701556384563 -0.712613523006
vn 0.001122188172 0.948892176151 0.315598189831
vn 0.544605553150 0.623849928379 -0.560549736023
vn 0.003529917914 0.604474604130 -0.796616613865
vn -0.000055838482 0.603319168091 -0.797499954700
vn -0.840609729290 0.321256816387 -0.436084091663
vn -0.003434516024 0.604474842548 -0.796616911888
vn 0.396126329899 0.698799669743 -0.595619916916
vn -0.395885080099 0.698878765106 -0.595687329769
vn -0.864082872868 0.407390147448 -0.295624881983
vn -0.876104593277 0.375391632318 -0.302525997162
vn 0.876025557518 0.375316917896 -0.302847206593
vn -0.999999523163 -0.000190730396 -0.000953652023
vn -0.999999940395 -0.000000050309 0.000019981047
vn -0.000405352359 -0.613465070724 -0.789721786976
vn -0.000381450664 -0.613372683525 -0.789793610573
vn 0.000000000000 -1.000000000000 -0.000000000000
vn 0.000000000000 1.000000000000 -0.000000000000
vn 0.000000000000 0.000000000000 1.000000000000
vn 1.000000000000 0.000000000000 -0.000000000000
vn 0.000000000000 0.000000000000 -1.000000000000
vn -1.000000000000 0.000000000000 -0.000000000000
vn 0.707202136517 0.000000000000 0.707011401653
vn 0.707011401653 0.000000000000 0.707202136517
vn -0.707011401653 0.000000000000 0.707202136517
vn -0.707202136517 0.000000000000 0.707011401653
vn 0.707011401653 0.000000000000 -0.707202136517
vn 0.707202136517 0.000000000000 -0.707011401653
vn -0.707202136517 0.000000000000 -0.707011401653
vn -0.707011401653 0.000000000000 -0.707202136517
vn 0.000053374049 -0.002169506624 0.999997615814
vn 0.000053374049 -0.002169506857 0.999997675419
vn 0.000053374057 -0.002169507090 0.999997735023
vn 0.000053530646 -0.002169471234 0.999997675419
vn -0.000053374049 -0.002169538056 -0.999997615814
vn -0.000053374049 -0.002169538056 -0.999997675419
vn -0.000053374057 -0.002169538289 -0.999997735023
vn -0.000053530646 -0.002169502201 -0.999997675419
vn 0.999997675419 -0.002169512678 -0.000000000000
vn 0.999997675419 -0.002169512445 -0.000000000000
vn 0.999997615814 -0.002169512445 -0.000000000000
vn -0.999997675419 -0.002169512678 -0.000000000000
vn -0.999997675419 -0.002169512445 -0.000000000000
vn -0.999997615814 -0.002169512445 -0.000000000000
# 109 vertex normals

vt 0.409776985645 0.273763000965 0.000000000000
vt 0.459493011236 0.273862004280 0.000000000000
vt 0.459816008806 0.904407978058 0.000000000000
vt 0.409776985645 0.991859018803 0.000000000000
vt 0.529366016388 0.874375998974 0.000000000000
vt 0.622985005379 0.889590024948 0.000000000000
vt 0.529372990131 0.904668986797 0.000000000000
vt 0.069227002561 0.991859018803 0.000000000000
vt 0.014461999759 0.906822025776 0.000000000000
vt 0.124018996954 0.906849980354 0.000000000000
vt 0.026450999081 0.817842006683 0.000000000000
vt 0.015277000144 0.796738028526 0.000000000000
vt 0.123237997293 0.796763002872 0.000000000000
vt 0.112117998302 0.817903995514 0.000000000000
vt 0.033174999058 0.885375022888 0.000000000000
vt 0.105337001383 0.885374009609 0.000000000000
vt 0.525771975517 0.787191987038 0.000000000000
vt 0.575257003307 0.803340971470 0.000000000000
vt 0.575298011303 0.975706994534 0.000000000000
vt 0.525771975517 0.991859018803 0.000000000000
vt 0.608411014080 0.843887984753 0.000000000000
vt 0.644375979900 0.748142004013 0.000000000000
vt 0.680572986603 0.843887984753 0.000000000000
vt 0.517404973507 0.273764997721 0.000000000000
vt 0.517404973507 0.991859018803 0.000000000000
vt 0.467370003462 0.904406011105 0.000000000000
vt 0.467694997787 0.273862987757 0.000000000000
vt 0.478169739246 0.636363804340 0.000000000000
vt 0.472943574190 0.635802388191 0.000000000000
vt 0.473833799362 0.635802805424 0.000000000000
vt 0.478169679642 0.636167943478 0.000000000000
vt 0.470315396786 0.637608349323 0.000000000000
vt 0.468833178282 0.639051735401 0.000000000000
vt 0.463276535273 0.639051735401 0.000000000000
vt 0.468833178282 0.633495151997 0.000000000000
vt 0.461794316769 0.634938597679 0.000000000000
vt 0.463276535273 0.633495151997 0.000000000000
vt 0.467361241579 0.632061779499 0.000000000000
vt 0.464748471975 0.640485107899 0.000000000000
vt 0.466054856777 0.636273443699 0.000000000000
vt 0.740114212036 0.991876065731 0.722969651222
vt 0.740113973618 0.004798516631 0.720800161362
vt 0.955196082592 0.004798516631 0.720787942410
vt 0.955196201801 0.991871178150 0.722957372665
vt 0.955167651176 0.991876065731 0.277030408382
vt 0.955167651176 0.004798516631 0.279200017452
vt 0.740085661411 0.004798516631 0.279212236404
vt 0.740085661411 0.991871178150 0.277042686939
# 48 texture coords

g MQ
usemtl Tower2
s 1
f 1/1/1 2/2/2 3/3/3 4/4/4 
s 2
f 5/5/5 6/6/6 7/7/7 
s 3
f 8/8/8 4/9/4 9/10/9 
s 4
f 10/11/10 3/12/11 11/13/12 12/14/13 
s 5
f 10/11/10 13/15/14 4/9/4 3/12/3 
s 6
f 9/10/9 14/16/15 12/14/13 11/13/12 
s 7
f 14/16/15 9/10/9 4/9/4 13/15/14 
s 9
f 5/5/16 12/17/17 14/18/15 6/6/6 
s 10
f 13/19/14 10/20/18 7/7/7 6/6/6 
s 19
f 13/21/14 6/22/6 14/23/15 
s 28
f 15/24/19 9/25/9 11/26/12 16/27/20 
s off
f 7/28/21 10/29/22 12/30/22 5/31/21 
s 1
f 17/1/23 18/2/24 19/3/25 20/4/26 
s 2
f 21/5/27 22/6/28 23/7/29 
s 3
f 8/8/8 20/9/26 4/10/4 
s 4
f 24/11/30 19/12/31 25/13/32 26/14/33 
s 5
f 24/11/30 27/15/34 20/9/26 19/12/25 
s 6
f 4/10/4 28/16/35 26/14/33 25/13/32 
s 7
f 28/16/35 4/10/4 20/9/26 27/15/34 
s 9
f 21/5/36 26/17/37 28/18/35 22/6/28 
s 10
f 27/19/34 24/20/38 23/7/29 22/6/28 
s 19
f 27/21/34 22/22/28 28/23/35 
s 28
f 1/24/39 4/25/4 25/26/32 29/27/40 
s off
f 23/28/41 24/29/42 26/30/42 21/31/41 
s 1
f 30/1/43 31/2/44 32/3/45 33/4/46 
s 2
f 34/5/47 35/6/48 36/7/49 
s 3
f 8/8/8 33/9/46 20/10/26 
s 4
f 37/11/50 32/12/51 38/13/52 39/14/53 
s 5
f 37/11/50 40/15/54 33/9/46 32/12/45 
s 6
f 20/10/26 41/16/55 39/14/53 38/13/52 
s 7
f 41/16/55 20/10/26 33/9/46 40/15/54 
s 9
f 34/5/56 39/17/57 41/18/55 35/6/48 
s 10
f 40/19/54 37/20/58 36/7/49 35/6/48 
s 19
f 40/21/54 35/22/48 41/23/55 
s 28
f 17/24/59 20/25/26 38/26/52 42/27/60 
s off
f 36/28/61 37/29/62 39/30/62 34/31/61 
s 1
f 15/1/63 43/2/64 44/3/65 9/4/9 
s 2
f 45/5/66 46/6/67 47/7/68 
s 3
f 8/8/8 9/9/9 33/10/46 
s 4
f 48/11/69 44/12/70 49/13/71 50/14/72 
s 5
f 48/11/69 51/15/73 9/9/9 44/12/65 
s 6
f 33/10/46 52/16/74 50/14/72 49/13/71 
s 7
f 52/16/74 33/10/46 9/9/9 51/15/73 
s 9
f 45/5/75 50/17/76 52/18/74 46/6/67 
s 10
f 51/19/73 48/20/77 47/7/68 46/6/67 
s 19
f 51/21/73 46/22/67 52/23/74 
s 28
f 30/24/78 33/25/46 49/26/71 53/27/79 
s off
f 47/28/80 48/29/81 50/30/81 45/31/80 
s 2
f 54/32/82 55/33/82 56/34/82 57/35/82 
f 58/36/82 59/37/82 60/35/82 61/34/82 
s 4
f 62/37/83 63/38/83 64/35/83 65/33/83 
f 66/33/83 67/39/83 68/34/83 69/37/83 
s 8
f 63/33/84 62/34/84 60/37/84 59/35/84 
s 16
f 65/33/85 64/34/85 58/37/85 61/35/85 
s 32
f 67/33/86 66/34/86 56/37/86 55/35/86 
s 64
f 69/33/87 68/34/87 54/37/87 57/35/87 
s 2
f 56/34/82 61/40/82 60/35/82 57/40/82 
s 4
f 65/33/83 66/40/83 69/37/83 62/40/83 
s off
f 64/40/88 63/35/89 59/40/89 58/37/88 
f 62/40/90 69/37/91 57/40/91 60/35/90 
f 66/40/92 65/33/93 61/40/93 56/34/92 
f 68/40/94 67/34/95 55/40/95 54/33/94 
f 19/41/96 18/42/97 29/43/98 25/44/99 
f 44/45/100 43/46/101 53/47/102 49/48/103 
f 2/43/104 16/42/105 11/41/104 3/44/106 
f 31/47/107 42/46/108 38/45/107 32/48/109 
# 54 polygons - 12 triangles

