o pyramid
v 0.010000 -3.107500 3.107500
v 3.118000 -3.107500 0.000500
v -3.098000 -3.107500 0.000500
v 0.010000 3.107500 0.000500
v 0.010000 -3.107500 -3.107500
v 0.010000 3.107500 0.000500
v 0.010000 3.107500 0.000500
v 0.010000 3.107500 0.000500
v 0.010000 -3.107500 3.107500
v -3.098000 -3.107500 0.000500
v 3.118000 -3.107500 0.000500
v 0.010000 -3.107500 -3.107500
vt 0.000000 -1.000000
vn 0.666555 0.333323 0.666768
vn -0.666555 0.333323 0.666768
vn -0.666646 0.333354 -0.666646
vn 0.666646 0.333354 -0.666646
s off
f 4/1/1 1/1/1 2/1/1
f 3/1/2 9/1/2 8/1/2
f 7/1/3 5/1/3 10/1/3
f 6/1/4 11/1/4 12/1/4
