# OBJ written from C:\Users\rivalin\Desktop\pioneer\data\models\buildings\high_development\high_development_skyscraper_1\high_development_skyscraper_1_collision.obj

o Mesh
v -15 5 -25
v -25 5 -15
v -25 5 15
v -15 5 25
v 15 5 -25
v 25 5 -15
v 25 5 15
v 15 5 25
v -15 22 25
v -25 22 15
v -25 22 -15
v -15 22 -25
v 25 22 15
v 15 22 25
v 15 22 -25
v 25 22 -15
v -12 22 22
v -22 22 12
v -22 22 -12
v -12 22 -22
v 22 22 12
v 12 22 22
v 12 22 -22
v 22 22 -12
v -12 27 22
v -22 27 12
v -22 27 -12
v -12 27 -22
v 22 27 12
v 12 27 22
v 12 27 -22
v 22 27 -12
v -15 27 25
v -25 27 15
v -25 27 -15
v -15 27 -25
v 25 27 15
v 15 27 25
v 15 27 -25
v 25 27 -15
v -17.0711 5 -30
v -30 5 -17.0711
v -30 5 17.0711
v -17.0711 5 30
v 17.0711 5 -30
v 30 5 -17.0711
v 30 5 17.0711
v 17.0711 5 30
v -17.0711 -25 -30
v -30 -25 -17.0711
v -30 -25 17.0711
v -17.0711 -25 30
v 17.0711 -25 -30
v 30 -25 -17.0711
v 30 -25 17.0711
v 17.0711 -25 30
v -15 127 25
v -15 127 -25
v 15 127 25
v 15 127 -25
v -25 127 -15
v 25 127 -15
v -25 127 15
v 25 127 15
v -15 56.5 25
v -25 56.5 15
v -25 56.5 -15
v -15 56.5 -25
v 25 56.5 15
v 15 56.5 25
v 15 56.5 -25
v 25 56.5 -15
v -15 66.5 25
v -25 66.5 15
v -25 66.5 -15
v -15 66.5 -25
v 25 66.5 15
v 15 66.5 25
v 15 66.5 -25
v 25 66.5 -15
v -15.4142 57.5 26
v -26 57.5 15.4142
v -26 57.5 -15.4142
v -15.4142 57.5 -26
v 26 57.5 15.4142
v 15.4142 57.5 26
v 15.4142 57.5 -26
v 26 57.5 -15.4142
v -15.4142 65.5 26
v -26 65.5 15.4142
v -26 65.5 -15.4142
v -15.4142 65.5 -26
v 26 65.5 15.4142
v 15.4142 65.5 26
v 15.4142 65.5 -26
v 26 65.5 -15.4142
v -17.0711 -55 -30
v -30 -55 -17.0711
v -30 -55 17.0711
v -17.0711 -55 30
v 17.0711 -55 -30
v 30 -55 -17.0711
v 30 -55 17.0711
v 17.0711 -55 30
v -15 127 25
v -15 127 -25
v 15 127 25
v 15 127 -25
v -15 137 15
v -15 137 -15
v 15 137 15
v 15 137 -15
v -13 137 13
v -13 137 -13
v 13 137 13
v 13 137 -13
v -13 136 13
v -13 136 -13
v 13 136 13
v 13 136 -13
v -25 127 -15
v 25 127 -15
v -25 127 15
v 25 127 15
vn -0.707107 -0 -0.707107
vn 0 0 -1
vn 0.707107 0 -0.707107
vn 1 0 0
vn 0.707107 0 0.707107
vn 0 0 1
vn -0.707107 0 0.707107
vn -1 -0 -0
vn 0 1 0
vn 0 -1 0
vn 0.707107 -0.707107 0
vn 0.500002 -0.707103 -0.500002
vn 0 -0.707107 -0.707107
vn -0.500002 -0.707103 -0.500002
vn -0.707107 -0.707107 -0
vn -0.500002 -0.707103 0.500002
vn 0 -0.707107 0.707107
vn 0.500002 -0.707103 0.500002
vn 0.500002 0.707103 -0.500002
vn 0.707107 0.707107 0
vn 0.500002 0.707103 0.500002
vn 0 0.707107 0.707107
vn -0.500002 0.707103 0.500002
vn -0.707107 0.707107 0
vn -0.500002 0.707103 -0.500002
vn 0 0.707107 -0.707107
vn -0.57735 0.57735 0.57735
vn 0.57735 0.57735 0.57735
vn -0.57735 0.57735 -0.57735
vn 0.57735 0.57735 -0.57735
vt 0.270907 0.175763
vt 0.231191 0.175763
vt 0.231191 0.0899608
vt 0.270907 0.0899608
vt 0.145038 0.175763
vt 0.145038 0.0899608
vt 0.111277 0.175763
vt 0.111277 0.0899608
vt 0.0392035 0.175763
vt 0.0392035 0.0899608
vt 0.00592044 0.175763
vt 0.00592044 0.0899608
vt 0.47908 0.175763
vt 0.383742 0.175763
vt 0.383742 0.0899608
vt 0.47908 0.0899608
vt 0.342965 0.175763
vt 0.342965 0.0899608
vt 0.383742 0.194692
vt 0.342965 0.194692
vt 0.270907 0.194692
vt 0.231191 0.194692
vt 0.145038 0.194692
vt 0.111277 0.194692
vt 0.0392035 0.194692
vt 0.00592044 0.194692
vt 0.47908 0.194692
vt 0.231191 0.00621271
vt 0.270907 0.00621271
vt 0.145038 0.00621271
vt 0.111277 0.00621271
vt 0.0392035 0.00621271
vt 0.00592044 0.00621271
vt 0.383742 0.00621271
vt 0.47908 0.00621271
vt 0.342965 0.00621271
vt 0.145038 0.242804
vt 0.145038 0.258445
vt 0.111277 0.258445
vt 0.111277 0.242804
vt 0.342965 0.282858
vt 0.342965 0.258445
vt 0.383742 0.258445
vt 0.383742 0.282858
vt 0.270907 0.258445
vt 0.270907 0.282858
vt 0.231191 0.282858
vt 0.231191 0.258445
vt 0.111277 0.296483
vt 0.111277 0.282858
vt 0.145038 0.282858
vt 0.145038 0.296483
vt 0.00592044 0.296483
vt 0.00592044 0.282858
vt 0.0392035 0.282858
vt 0.0392035 0.296483
vt 0.00592044 0.258445
vt 0.0392035 0.258445
vt 0.342965 0.296483
vt 0.383742 0.296483
vt 0.270907 0.296483
vt 0.231191 0.296483
vt 0.342965 0.242804
vt 0.383742 0.242804
vt 0.270907 0.242804
vt 0.231191 0.242804
vt 0.00592044 0.242804
vt 0.0392035 0.242804
vt 0.47908 0.242804
vt 0.47908 0.258445
vt 0.47908 0.282858
vt 0.47908 0.296483
vt 0.342965 0.43455
vt 0.342965 0.460591
vt 0.270907 0.460591
vt 0.270907 0.43455
vt 0.111277 0.43455
vt 0.111277 0.460591
vt 0.0392035 0.460591
vt 0.0392035 0.43455
vt 0.231191 0.43455
vt 0.231191 0.460591
vt 0.145038 0.460591
vt 0.145038 0.43455
vt 0.383742 0.43455
vt 0.383742 0.460591
vt 0.47908 0.43455
vt 0.47908 0.460591
vt 0.00592044 0.460591
vt 0.00592044 0.43455
vt 0.0392035 0.429811
vt 0.111277 0.429811
vt 0.145038 0.429811
vt 0.231191 0.429811
vt 0.270907 0.429811
vt 0.342965 0.429811
vt 0.383742 0.429811
vt 0.47908 0.429811
vt 0.00592044 0.429811
vt 0.145038 0.463233
vt 0.111277 0.463233
vt 0.0392035 0.463233
vt 0.00592044 0.463233
vt 0.47908 0.463233
vt 0.383742 0.463233
vt 0.342965 0.463233
vt 0.270907 0.463233
vt 0.231191 0.463233
vt 0.96118 0.158499
vt 0.92541 0.154624
vt 0.92541 0.0843794
vt 0.96118 0.0793145
vt 0.853305 0.0843794
vt 0.853305 0.154624
vt 0.817533 0.15969
vt 0.817533 0.0805048
vt 0.858183 0.149872
vt 0.920532 0.149872
vt 0.858183 0.089132
vt 0.920532 0.089132
vt 0.859381 0.148705
vt 0.919335 0.148705
vt 0.859381 0.0902985
vt 0.919335 0.0902985
vt 0.849019 0.0504216
vt 0.926866 0.0504216
vt 0.929695 0.188582
vt 0.85185 0.188582
vt 0.0392035 0.678235
vt 0.00592044 0.678235
vt 0.383742 0.678235
vt 0.342965 0.678235
vt 0.47908 0.678235
vt 0.270907 0.678235
vt 0.111277 0.678235
vt 0.231191 0.678235
vt 0.145038 0.678235
mtllib high_development_skyscraper_1_collision.mtl
usemtl material1
g Default
f 42/1/1 41/2/1 49/3/1 50/4/1
f 41/2/2 45/5/2 53/6/2 49/3/2
f 45/5/3 46/7/3 54/8/3 53/6/3
f 46/7/4 47/9/4 55/10/4 54/8/4
f 47/9/5 48/11/5 56/12/5 55/10/5
f 48/13/6 44/14/6 52/15/6 56/16/6
f 44/14/7 43/17/7 51/18/7 52/15/7
f 43/17/8 42/1/8 50/4/8 51/18/8
f 44/14/9 4/19/9 3/20/9 43/17/9
f 42/1/9 43/17/9 3/20/9 2/21/9
f 41/2/9 42/1/9 2/21/9 1/22/9
f 45/5/9 41/2/9 1/22/9 5/23/9
f 45/5/9 5/23/9 6/24/9 46/7/9
f 47/9/9 46/7/9 6/24/9 7/25/9
f 48/11/9 47/9/9 7/25/9 8/26/9
f 44/14/9 48/13/9 8/27/9 4/19/9
f 50/4/1 49/3/1 97/28/1 98/29/1
f 49/3/2 53/6/2 101/30/2 97/28/2
f 53/6/3 54/8/3 102/31/3 101/30/3
f 54/8/4 55/10/4 103/32/4 102/31/4
f 55/10/5 56/12/5 104/33/5 103/32/5
f 56/16/6 52/15/6 100/34/6 104/35/6
f 52/15/7 51/18/7 99/36/7 100/34/7
f 51/18/8 50/4/8 98/29/8 99/36/8
f 15/37/9 23/38/9 24/39/9 16/40/9
f 26/41/7 18/42/7 17/43/7 25/44/7
f 19/45/1 27/46/1 28/47/1 20/48/1
f 40/49/10 32/50/10 31/51/10 39/52/10
f 38/53/10 30/54/10 29/55/10 37/56/10
f 30/54/5 22/57/5 21/58/5 29/55/5
f 23/38/3 31/51/3 32/50/3 24/39/3
f 34/59/10 26/41/10 25/44/10 33/60/10
f 27/46/10 35/61/10 36/62/10 28/47/10
f 18/42/9 10/63/9 9/64/9 17/43/9
f 11/65/9 19/45/9 20/48/9 12/66/9
f 22/57/9 14/67/9 13/68/9 21/58/9
f 10/63/9 18/42/9 19/45/9 11/65/9
f 14/69/9 22/70/9 17/43/9 9/64/9
f 16/40/9 24/39/9 21/58/9 13/68/9
f 12/66/9 20/48/9 23/38/9 15/37/9
f 18/42/8 26/41/8 27/46/8 19/45/8
f 22/70/6 30/71/6 25/44/6 17/43/6
f 24/39/4 32/50/4 29/55/4 21/58/4
f 20/48/2 28/47/2 31/51/2 23/38/2
f 1/22/1 2/21/1 11/65/1 12/66/1
f 3/20/8 10/63/8 11/65/8 2/21/8
f 4/19/7 9/64/7 10/63/7 3/20/7
f 8/26/5 7/25/5 13/68/5 14/67/5
f 7/25/4 6/24/4 16/40/4 13/68/4
f 5/23/3 15/37/3 16/40/3 6/24/3
f 5/23/2 1/22/2 12/66/2 15/37/2
f 4/19/6 8/27/6 14/69/6 9/64/6
f 40/49/10 37/56/10 29/55/10 32/50/10
f 36/62/10 39/52/10 31/51/10 28/47/10
f 34/59/10 35/61/10 27/46/10 26/41/10
f 38/72/10 33/60/10 25/44/10 30/71/10
f 82/73/8 90/74/8 91/75/8 83/76/8
f 88/77/4 96/78/4 93/79/4 85/80/4
f 84/81/2 92/82/2 95/83/2 87/84/2
f 90/74/7 82/73/7 81/85/7 89/86/7
f 83/76/1 91/75/1 92/82/1 84/81/1
f 89/86/6 81/85/6 86/87/6 94/88/6
f 87/84/3 95/83/3 96/78/3 88/77/3
f 85/80/5 93/79/5 94/89/5 86/90/5
f 88/77/11 85/80/11 69/91/11 72/92/11
f 87/84/12 88/77/12 72/92/12 71/93/12
f 84/81/13 87/84/13 71/93/13 68/94/13
f 84/81/14 68/94/14 67/95/14 83/76/14
f 82/73/15 83/76/15 67/95/15 66/96/15
f 81/85/16 82/73/16 66/96/16 65/97/16
f 86/87/17 81/85/17 65/97/17 70/98/17
f 86/90/18 70/99/18 69/91/18 85/80/18
f 95/83/19 79/100/19 80/101/19 96/78/19
f 93/79/20 96/78/20 80/101/20 77/102/20
f 94/89/21 93/79/21 77/102/21 78/103/21
f 89/86/22 94/88/22 78/104/22 73/105/22
f 89/86/23 73/105/23 74/106/23 90/74/23
f 91/75/24 90/74/24 74/106/24 75/107/24
f 92/82/25 91/75/25 75/107/25 76/108/25
f 95/83/26 92/82/26 76/108/26 79/100/26
f 107/109/22 111/110/22 109/111/22 105/112/22
f 110/113/26 112/114/26 108/115/26 106/116/26
f 111/110/9 112/114/9 116/117/9 115/118/9
f 112/114/9 110/113/9 114/119/9 116/117/9
f 110/113/9 109/111/9 113/120/9 114/119/9
f 109/111/9 111/110/9 115/118/9 113/120/9
f 115/118/8 116/117/8 120/121/8 119/122/8
f 116/117/6 114/119/6 118/123/6 120/121/6
f 114/119/4 113/120/4 117/124/4 118/123/4
f 113/120/2 115/118/2 119/122/2 117/124/2
f 110/113/24 121/125/24 123/126/24 109/111/24
f 111/110/20 124/127/20 122/128/20 112/114/20
f 109/111/27 123/126/27 105/112/27
f 107/109/28 124/127/28 111/110/28
f 121/125/29 110/113/29 106/116/29
f 122/128/30 108/115/30 112/114/30
f 120/121/9 118/123/9 117/124/9 119/122/9
f 37/56/4 40/49/4 72/92/4 69/91/4
f 35/61/8 34/59/8 66/96/8 67/95/8
f 38/53/5 37/56/5 69/91/5 70/99/5
f 39/52/2 36/62/2 68/94/2 71/93/2
f 34/59/7 33/60/7 65/97/7 66/96/7
f 33/60/6 38/72/6 70/98/6 65/97/6
f 36/62/1 35/61/1 67/95/1 68/94/1
f 40/49/3 39/52/3 71/93/3 72/92/3
f 78/103/5 77/102/5 64/129/5 59/130/5
f 74/106/7 73/105/7 57/131/7 63/132/7
f 73/105/6 78/104/6 59/133/6 57/131/6
f 75/107/8 74/106/8 63/132/8 61/134/8
f 77/102/4 80/101/4 62/135/4 64/129/4
f 79/100/2 76/108/2 58/136/2 60/137/2
f 76/108/1 75/107/1 61/134/1 58/136/1
f 80/101/3 79/100/3 60/137/3 62/135/3
