# OBJ written from C:\Users\rivalin\Desktop\pioneer\data\models\ships\(2)Light\(2E)cargo_hauler\cargo_hauler_collision.obj

o collision
v -4.26274 -4.59117 -5.51
v -3.14142 -5.71249 -7.09579
v -3.14142 -5.71249 -13.9242
v -4.26274 -4.59117 -15.51
v 4.26274 -4.59117 -5.51
v 3.14142 -5.71249 -7.09579
v 3.14142 -5.71249 -13.9242
v 4.26274 -4.59117 -15.51
v -9.09117 0.237259 -5.51
v -10.2125 1.35858 -7.09579
v -10.2125 1.35858 -13.9242
v -9.09117 0.237258 -15.51
v 9.09117 0.237259 -5.51
v 10.2125 1.35858 -7.09579
v 10.2125 1.35858 -13.9242
v 9.09117 0.237259 -15.51
v -9.09117 -0.237259 -5.51
v -10.2125 -1.35858 -7.09579
v -10.2125 -1.35858 -13.9242
v -9.09117 -0.237258 -15.51
v 9.09117 -0.237259 -5.51
v 10.2125 -1.35858 -7.09579
v 10.2125 -1.35858 -13.9242
v 9.09117 -0.237258 -15.51
v -4.26274 4.59117 -5.51
v -3.14142 5.71249 -7.09579
v -3.14142 5.71249 -13.9242
v -4.26274 4.59117 -15.51
v 4.26274 4.59117 -5.51
v 3.14142 5.71249 -7.09579
v 3.14142 5.71249 -13.9242
v 4.26274 4.59117 -15.51
v -4.26274 -4.59117 17.49
v -3.14142 -5.71249 15.9042
v -3.14142 -5.71249 9.07579
v -4.26274 -4.59117 7.49
v 4.26274 -4.59117 17.49
v 3.14142 -5.71249 15.9042
v 3.14142 -5.71249 9.07579
v 4.26274 -4.59117 7.49
v -9.09117 0.237259 17.49
v -10.2125 1.35858 15.9042
v -10.2125 1.35858 9.07579
v -9.09117 0.237258 7.49
v 9.09117 0.237259 17.49
v 10.2125 1.35858 15.9042
v 10.2125 1.35858 9.07579
v 9.09117 0.237259 7.49
v -9.09117 -0.237259 17.49
v -10.2125 -1.35858 15.9042
v -10.2125 -1.35858 9.07579
v -9.09117 -0.237258 7.49
v 9.09117 -0.237259 17.49
v 10.2125 -1.35858 15.9042
v 10.2125 -1.35858 9.07579
v 9.09117 -0.237258 7.49
v -4.26274 4.59117 17.49
v -3.14142 5.71249 15.9042
v -3.14142 5.71249 9.07579
v -4.26274 4.59117 7.49
v 4.26274 4.59117 17.49
v 3.14142 5.71249 15.9042
v 3.14142 5.71249 9.07579
v 4.26274 4.59117 7.49
v -7.65685 -7.98528 -15.51
v -13.6066 -2.03553 -13.9242
v -12.4853 -3.15685 -15.51
v -6.53554 -9.1066 -13.9242
v 6.53553 -9.1066 -13.9242
v 7.65685 -7.98528 -15.51
v 13.6066 -2.03553 -13.9242
v 12.4853 -3.15685 -15.51
v -13.6066 2.03553 -13.9242
v -12.4853 3.15685 -15.51
v -7.65685 7.98528 -15.51
v -6.53554 9.1066 -13.9242
v 6.53554 9.1066 -13.9242
v 13.6066 2.03553 -13.9242
v 12.4853 3.15685 -15.51
v 7.65685 7.98528 -15.51
v -7.65685 -7.98528 -5.51
v -12.4853 -3.15685 -5.51
v -13.6066 -2.03553 -7.09579
v -6.53553 -9.1066 -7.09579
v 6.53553 -9.1066 -7.09579
v 7.65685 -7.98528 -5.51
v 12.4853 -3.15685 -5.51
v 13.6066 -2.03553 -7.09579
v -12.4853 3.15685 -5.51
v -13.6066 2.03553 -7.09579
v -7.65685 7.98528 -5.51
v -6.53553 9.1066 -7.09579
v 6.53553 9.1066 -7.09579
v 12.4853 3.15685 -5.51
v 13.6066 2.03553 -7.09579
v 7.65685 7.98528 -5.51
v -7.65685 -7.98528 7.49
v -13.6066 -2.03553 9.07579
v -12.4853 -3.15685 7.49
v -6.53554 -9.1066 9.07579
v 6.53553 -9.1066 9.07579
v 7.65685 -7.98528 7.49
v 13.6066 -2.03553 9.07579
v 12.4853 -3.15685 7.49
v -13.6066 2.03553 9.07579
v -12.4853 3.15685 7.49
v -7.65685 7.98528 7.49
v -6.53554 9.1066 9.07579
v 6.53554 9.1066 9.07579
v 13.6066 2.03553 9.07579
v 12.4853 3.15685 7.49
v 7.65685 7.98528 7.49
v -7.65685 -7.98528 17.49
v -12.4853 -3.15685 17.49
v -13.6066 -2.03553 15.9042
v -6.53553 -9.1066 15.9042
v 6.53553 -9.1066 15.9042
v 7.65685 -7.98528 17.49
v 12.4853 -3.15685 17.49
v 13.6066 -2.03553 15.9042
v -12.4853 3.15685 17.49
v -13.6066 2.03553 15.9042
v -7.65685 7.98528 17.49
v -6.53553 9.1066 15.9042
v 6.53553 9.1066 15.9042
v 12.4853 3.15685 17.49
v 13.6066 2.03553 15.9042
v 7.65685 7.98528 17.49
v -10.0711 -1.32843 -17.51
v -5.82843 -5.57107 -17.51
v 5.82843 -5.57107 -17.51
v 10.0711 -1.32843 -17.51
v 10.0711 1.32843 -17.51
v 5.82843 5.57107 -17.51
v -5.82843 5.57107 -17.51
v -10.0711 1.32843 -17.51
v -10.0711 -1.32843 -20.01
v 10.0711 -1.32843 -20.01
v 10.0711 1.32843 -20.01
v -10.0711 1.32843 -20.01
v -5.82843 -1.32843 -24.01
v 5.82843 -1.32843 -24.01
v -5.82843 1.32843 -24.01
v 5.82843 1.32843 -24.01
v -5.82843 -5.57107 -20.01
v -5.82843 5.57107 -20.01
v 5.82843 -5.57107 -20.01
v 5.82843 5.57107 -20.01
v -10.0711 -1.32843 -16.51
v -5.82843 -5.57107 -16.51
v 5.82843 -5.57107 -16.51
v 10.0711 -1.32843 -16.51
v 10.0711 1.32843 -16.51
v 5.82843 5.57107 -16.51
v -5.82843 5.57107 -16.51
v -10.0711 1.32843 -16.51
v -11.5711 -1.94975 -16.51
v -6.44975 -7.07107 -16.51
v 6.44975 -7.07107 -16.51
v 11.5711 -1.94975 -16.51
v 11.5711 1.94975 -16.51
v 6.44975 7.07107 -16.51
v -6.44975 7.07107 -16.51
v -11.5711 1.94975 -16.51
v -11.5711 -1.94975 18.49
v -6.44975 -7.07107 18.49
v 6.44975 -7.07107 18.49
v 11.5711 -1.94975 18.49
v 11.5711 1.94975 18.49
v 6.44975 7.07107 18.49
v -6.44975 7.07107 18.49
v -11.5711 1.94975 18.49
v -9.97107 -1.28701 18.49
v -5.78701 -5.47107 18.49
v 5.78701 -5.47107 18.49
v 9.97107 -1.28701 18.49
v 9.97107 1.28701 18.49
v 5.78701 5.47107 18.49
v -5.78701 5.47107 18.49
v -9.97107 1.28701 18.49
v -9.97107 -1.28701 23.54
v -5.78701 -5.47107 23.54
v 5.78701 -5.47107 23.54
v 9.97107 -1.28701 23.54
v 9.97107 1.28701 23.54
v 5.78701 5.47107 23.54
v -5.78701 5.47107 23.54
v -9.97107 1.28701 23.54
vn 0.707107 0.707107 -7.04571e-007
vn -0.707107 -0.707107 3.52285e-007
vn -0.707107 -0.707107 -4.40357e-007
vn -0.707107 0.707107 -2.20178e-007
vn 0.707107 -0.707107 4.40357e-008
vn 0.707107 -0.707107 -4.40357e-007
vn 0.707107 0.707107 0
vn 0.5 0.500001 0.707106
vn 0.707107 0.707107 -2.46891e-008
vn 0.5 0.5 -0.707106
vn 1.40489e-007 -1.40489e-007 -1
vn -0.5 -0.500001 -0.707106
vn -0.707107 -0.707107 -9.87562e-008
vn -0.5 -0.5 0.707106
vn -2.80979e-007 2.80979e-007 1
vn 0.5 0.5 0.707106
vn -0.5 -0.5 0.707107
vn -1.40489e-007 1.40489e-007 1
vn -0.5 -0.5 -0.707106
vn 0 0 -1
vn 0.5 0.500001 -0.707106
vn 0.707107 0.707107 -9.87562e-008
vn 0 0 1
vn -0.707107 -0.707107 -4.93781e-008
vn -1.4049e-007 1.40489e-007 -1
vn 0.707107 0.707107 -4.93781e-008
vn 2.10734e-007 -2.10734e-007 1
vn -0.5 -0.500001 0.707106
vn -0.707107 -0.707107 -2.46891e-008
vn -0.5 0.5 -0.707106
vn -2.10734e-007 -2.10734e-007 -1
vn 0.5 -0.500001 -0.707106
vn 0.707107 -0.707107 -2.46891e-008
vn 0.500001 -0.5 0.707106
vn 2.80979e-007 2.80979e-007 1
vn -0.5 0.500001 0.707106
vn -0.707107 0.707107 -4.93781e-008
vn -0.5 0.500001 -0.707106
vn 1.4049e-007 1.40489e-007 -1
vn 0.5 -0.5 -0.707106
vn 0.5 -0.500001 0.707106
vn -2.10734e-007 -2.10734e-007 1
vn -0.5 0.5 0.707106
vn 0.5 -0.5 0.707106
vn 0.707107 -0.707107 -9.87562e-008
vn -0.707107 0.707107 -2.46891e-008
vn 0.707107 -0.707107 -4.93781e-008
vn -0.707107 -0.707107 -4.40357e-008
vn 0.707107 0.707107 4.40357e-008
vn 0.707107 0.707107 2.64214e-007
vn 0.707107 -0.707107 2.20178e-007
vn -0.707107 0.707107 5.72464e-007
vn -0.707107 0.707107 2.64214e-007
vn -0.707107 -0.707107 4.40357e-008
vn -1 0 0
vn 1 0 0
vn -0 -1 -0
vn -0.707107 -0.707107 -0
vn -0.707107 0.707107 0
vn 0 1 0
vn 0.707107 -0.707107 0
vn -0.565685 -0.565685 -0.6
vn 0 -0.685994 -0.727607
vn 0.565685 0.565685 -0.6
vn 0 0.685994 -0.727607
vn -0.565685 0.565685 -0.6
vn 0.565685 -0.565685 -0.6
vn -0.685994 0 -0.727607
vn 0.685994 0 -0.727607
vt 0 0
vt -0.0270701 0
vt 0 1
mtllib cargo_hauler_collision.mtl
usemtl Default
g Default
f 36/1/1 44/1/1 43/1/1 42/2/1 41/3/1 33/1/1 34/1/1 35/1/1
f 61/1/2 62/1/2 63/1/2 64/1/2 56/1/2 55/1/2 54/2/2 53/3/2
f 32/1/3 24/1/3 23/1/3 22/2/3 21/3/3 29/1/3 30/1/3 31/1/3
f 8/1/4 7/1/4 6/2/4 5/3/4 13/1/4 14/1/4 15/1/4 16/1/4
f 52/1/5 60/1/5 59/1/5 58/2/5 57/3/5 49/1/5 50/1/5 51/1/5
f 28/1/6 27/1/6 26/2/6 25/3/6 17/1/6 18/1/6 19/1/6 20/1/6
f 40/1/4 39/1/4 38/2/4 37/3/4 45/1/4 46/1/4 47/1/4 48/1/4
f 12/1/7 11/1/7 10/2/7 9/3/7 1/1/7 2/1/7 3/1/7 4/1/7
f 119/1/8 120/1/8 46/1/8 45/1/8
f 120/1/9 103/1/9 47/1/9 46/1/9
f 103/1/10 104/1/10 48/1/10 47/1/10
f 102/1/11 40/1/11 48/1/11 104/1/11
f 102/1/12 101/1/12 39/1/12 40/1/12
f 101/1/13 117/2/13 38/2/13 39/1/13
f 117/2/14 118/3/14 37/3/14 38/2/14
f 118/3/15 119/1/15 45/1/15 37/3/15
f 87/1/16 88/1/16 14/1/16 13/1/16
f 88/1/9 71/1/9 15/1/9 14/1/9
f 71/1/10 72/1/10 16/1/10 15/1/10
f 70/1/11 8/1/11 16/1/11 72/1/11
f 70/1/12 69/1/12 7/1/12 8/1/12
f 69/1/13 85/2/13 6/2/13 7/1/13
f 85/2/17 86/3/17 5/3/17 6/2/17
f 86/3/18 87/1/18 13/1/18 5/3/18
f 51/1/19 105/1/19 106/1/19 52/1/19
f 52/1/20 106/1/20 107/1/20 60/1/20
f 59/1/21 60/1/21 107/1/21 108/1/21
f 108/1/22 124/2/22 58/2/22 59/1/22
f 58/2/16 124/2/16 123/3/16 57/3/16
f 49/1/23 57/3/23 123/3/23 121/1/23
f 50/1/14 49/1/14 121/1/14 122/1/14
f 122/1/24 105/1/24 51/1/24 50/1/24
f 19/1/19 73/1/19 74/1/19 20/1/19
f 20/1/25 74/1/25 75/1/25 28/1/25
f 27/1/21 28/1/21 75/1/21 76/1/21
f 92/2/26 26/2/26 27/1/26 76/1/26
f 26/2/16 92/2/16 91/3/16 25/3/16
f 17/1/27 25/3/27 91/3/27 89/1/27
f 18/1/28 17/1/28 89/1/28 90/1/28
f 90/1/29 73/1/29 19/1/29 18/1/29
f 63/1/30 109/1/30 112/1/30 64/1/30
f 112/1/31 111/1/31 56/1/31 64/1/31
f 111/1/32 110/1/32 55/1/32 56/1/32
f 110/1/33 127/2/33 54/2/33 55/1/33
f 126/3/34 53/3/34 54/2/34 127/2/34
f 128/1/35 61/1/35 53/3/35 126/3/35
f 62/1/36 61/1/36 128/1/36 125/1/36
f 125/1/37 109/1/37 63/1/37 62/1/37
f 31/1/38 77/1/38 80/1/38 32/1/38
f 24/1/39 32/1/39 80/1/39 79/1/39
f 23/1/40 24/1/40 79/1/40 78/1/40
f 78/1/33 95/2/33 22/2/33 23/1/33
f 22/2/41 95/2/41 94/3/41 21/3/41
f 21/3/42 94/3/42 96/1/42 29/1/42
f 30/1/43 29/1/43 96/1/43 93/1/43
f 93/1/37 77/1/37 31/1/37 30/1/37
f 43/1/30 44/1/30 99/1/30 98/1/30
f 98/1/37 115/2/37 42/2/37 43/1/37
f 42/2/43 115/2/43 114/3/43 41/3/43
f 41/3/23 114/3/23 113/1/23 33/1/23
f 34/1/44 33/1/44 113/1/44 116/1/44
f 116/1/45 100/1/45 35/1/45 34/1/45
f 35/1/32 100/1/32 97/1/32 36/1/32
f 44/1/20 36/1/20 97/1/20 99/1/20
f 11/1/30 12/1/30 67/1/30 66/1/30
f 66/1/46 83/2/46 10/2/46 11/1/46
f 10/2/43 83/2/43 82/3/43 9/3/43
f 9/3/23 82/3/23 81/1/23 1/1/23
f 2/1/44 1/1/44 81/1/44 84/1/44
f 84/1/47 68/1/47 3/1/47 2/1/47
f 3/1/40 68/1/40 65/1/40 4/1/40
f 12/1/20 4/1/20 65/1/20 67/1/20
f 99/1/48 97/1/48 100/1/48 116/1/48 113/1/48 114/3/48 115/2/48 98/1/48
f 111/1/49 112/1/49 109/1/49 125/1/49 128/1/49 126/3/49 127/2/49 110/1/49
f 80/1/50 77/1/50 93/1/50 96/1/50 94/3/50 95/2/50 78/1/50 79/1/50
f 70/1/51 72/1/51 71/1/51 88/1/51 87/1/51 86/3/51 85/2/51 69/1/51
f 107/1/52 106/1/52 105/1/52 122/1/52 121/1/52 123/3/52 124/2/52 108/1/52
f 75/1/53 74/1/53 73/1/53 90/1/53 89/1/53 91/3/53 92/2/53 76/1/53
f 102/1/51 104/1/51 103/1/51 120/1/51 119/1/51 118/3/51 117/2/51 101/1/51
f 67/1/54 65/1/54 68/1/54 84/1/54 81/1/54 82/3/54 83/2/54 66/1/54
f 129/1/55 136/1/55 140/1/55 137/1/55
f 133/1/56 132/1/56 138/1/56 139/1/56
f 131/1/57 130/1/57 145/1/57 147/1/57
f 130/1/58 129/1/58 137/1/58 145/1/58
f 136/1/59 135/1/59 146/1/59 140/1/59
f 135/1/60 134/1/60 148/1/60 146/1/60
f 134/1/7 133/1/7 139/1/7 148/1/7
f 132/1/61 131/1/61 147/1/61 138/1/61
f 137/1/62 141/1/62 145/1/62
f 141/1/63 142/1/63 147/1/63 145/1/63
f 139/1/64 144/1/64 148/1/64
f 146/1/65 148/1/65 144/1/65 143/1/65
f 140/1/66 146/1/66 143/1/66
f 138/1/67 147/1/67 142/1/67
f 141/1/20 143/1/20 144/1/20 142/1/20
f 141/1/68 137/1/68 140/1/68 143/1/68
f 144/1/69 139/1/69 138/1/69 142/1/69
f 133/1/7 134/1/7 154/1/7 153/1/7
f 134/1/60 135/1/60 155/1/60 154/1/60
f 135/1/59 136/1/59 156/1/59 155/1/59
f 136/1/55 129/1/55 149/1/55 156/1/55
f 129/1/58 130/1/58 150/1/58 149/1/58
f 130/1/57 131/1/57 151/1/57 150/1/57
f 131/1/61 132/1/61 152/1/61 151/1/61
f 132/1/56 133/1/56 153/1/56 152/1/56
f 152/1/20 153/1/20 161/1/20 160/1/20
f 153/1/20 154/1/20 162/1/20 161/1/20
f 154/1/20 155/1/20 163/1/20 162/1/20
f 155/1/20 156/1/20 164/1/20 163/1/20
f 156/1/20 149/1/20 157/1/20 164/1/20
f 149/1/20 150/1/20 158/1/20 157/1/20
f 150/1/20 151/1/20 159/1/20 158/1/20
f 151/1/20 152/1/20 160/1/20 159/1/20
f 164/1/55 157/1/55 165/1/55 172/1/55
f 157/1/58 158/1/58 166/1/58 165/1/58
f 158/1/57 159/1/57 167/1/57 166/1/57
f 159/1/61 160/1/61 168/1/61 167/1/61
f 160/1/56 161/1/56 169/1/56 168/1/56
f 161/1/7 162/1/7 170/1/7 169/1/7
f 162/1/60 163/1/60 171/1/60 170/1/60
f 163/1/59 164/1/59 172/1/59 171/1/59
f 171/1/23 172/1/23 180/1/23 179/1/23
f 172/1/23 165/1/23 173/1/23 180/1/23
f 165/1/23 166/1/23 174/1/23 173/1/23
f 166/1/23 167/1/23 175/1/23 174/1/23
f 167/1/23 168/1/23 176/1/23 175/1/23
f 168/1/23 169/1/23 177/1/23 176/1/23
f 169/1/23 170/1/23 178/1/23 177/1/23
f 170/1/23 171/1/23 179/1/23 178/1/23
f 176/1/56 177/1/56 185/1/56 184/1/56
f 177/1/7 178/1/7 186/1/7 185/1/7
f 178/1/60 179/1/60 187/1/60 186/1/60
f 179/1/59 180/1/59 188/1/59 187/1/59
f 180/1/55 173/1/55 181/1/55 188/1/55
f 173/1/58 174/1/58 182/1/58 181/1/58
f 174/1/57 175/1/57 183/1/57 182/1/57
f 175/1/61 176/1/61 184/1/61 183/1/61
f 185/1/23 186/1/23 187/1/23 188/1/23 181/1/23 182/1/23 183/1/23 184/1/23
