o hammerleftgear
v -10.518623 -11.496529 -34.878231
v -11.594687 -11.295739 -34.878857
v -11.517632 -11.295580 -36.378902
v -10.451829 -11.496370 -36.378273
v -10.584588 -11.496840 -33.378151
v -11.670913 -11.296051 -33.378769
v -10.650582 -11.497144 -31.878071
v -11.747168 -11.296354 -31.878683
v -10.716606 -11.497438 -30.377993
v -11.823452 -11.296649 -30.378599
v -10.782269 -11.497796 -28.877895
v -11.899376 -11.297007 -28.878496
v -13.016482 -11.096216 -28.879103
v -12.054001 -11.297217 -25.878439
v -13.191628 -11.096426 -25.879038
v -12.583436 -11.094790 -36.379532
v -12.670752 -11.094949 -34.879486
v -12.757237 -11.095261 -33.379395
v -12.843753 -11.095564 -31.879303
v -12.930298 -11.095859 -30.379213
v -10.916373 -11.498006 -25.877840
v -12.583436 -10.994789 -36.379532
v -12.670752 -10.994948 -34.879486
v -11.517632 -11.195580 -36.378902
v -12.757237 -10.995260 -33.379395
v -10.584588 -11.396841 -33.378151
v -10.518623 -11.396529 -34.878231
v -12.843753 -10.995564 -31.879303
v -10.650582 -11.397144 -31.878071
v -12.930298 -10.995858 -30.379213
v -10.716606 -11.397438 -30.377993
v -13.016482 -10.996217 -28.879103
v -10.782269 -11.397796 -28.877895
v -13.191628 -10.996427 -25.879038
v -12.054001 -11.197216 -25.878439
v -10.916373 -11.398005 -25.877840
v -10.451829 -11.396370 -36.378273
v -13.228793 -11.296141 -3.378760
v -11.937256 -11.496929 -3.378241
v -12.137844 -11.497288 1.121872
v -13.460164 -11.296500 1.121360
v -14.433352 -11.095167 -4.879353
v -13.152076 -11.295956 -4.878826
v -14.520330 -11.095352 -3.379288
v -12.203775 -11.497547 2.621955
v -13.536356 -11.296759 2.621447
v -12.270302 -11.497714 4.122009
v -13.613143 -11.296926 4.121505
v -12.337389 -11.497797 5.622036
v -13.690490 -11.297009 5.621532
v -14.782483 -11.095711 1.120841
v -11.870798 -11.496744 -4.878298
v -14.868936 -11.095970 2.620936
v -14.955983 -11.096138 4.120997
v -15.043591 -11.096221 5.621028
v -14.520330 -10.995352 -3.379288
v -14.782483 -10.995711 1.120841
v -12.137844 -11.397287 1.121872
v -11.937256 -11.396929 -3.378241
v -13.152076 -11.195956 -4.878826
v -14.433352 -10.995167 -4.879353
v -14.868936 -10.995971 2.620936
v -12.203775 -11.397547 2.621955
v -14.955983 -10.996138 4.120997
v -12.270302 -11.397715 4.122009
v -15.043591 -10.996221 5.621028
v -13.690490 -11.197009 5.621532
v -12.337389 -11.397797 5.622036
v -11.870798 -11.396744 -4.878298
v -15.252233 -11.296429 35.615517
v -13.693919 -11.497217 35.616135
v -13.759838 -11.495177 36.705330
v -15.328183 -11.294466 36.705330
v -12.191280 -11.695916 38.208569
v -12.191280 -11.695916 39.708569
v -13.759626 -11.495205 38.208569
v -13.759626 -11.495205 39.708569
v -12.191280 -11.695916 44.208569
v -12.191280 -11.695915 45.708569
v -13.759626 -11.495205 44.208569
v -13.759626 -11.495204 45.708569
v -12.191280 -11.695916 41.208569
v -12.191280 -11.695916 42.708569
v -13.759626 -11.495205 41.208569
v -13.759626 -11.495205 42.708569
v -12.135605 -11.698005 35.616756
v -12.191492 -11.695889 36.705952
v -15.327971 -11.294493 38.208569
v -15.327971 -11.294493 39.708569
v -15.327971 -11.294493 44.208569
v -15.327971 -11.294492 45.708569
v -15.327971 -11.294493 41.208569
v -15.327971 -11.294493 42.708569
v -12.191280 -11.595917 44.208569
v -13.759626 -11.395204 45.708569
v -12.191280 -11.595916 45.708569
v -15.327971 -11.194493 42.708569
v -15.327971 -11.194493 44.208569
v -12.191280 -11.595917 42.708569
v -15.327971 -11.194493 41.208569
v -12.191280 -11.595917 41.208569
v -15.327971 -11.194493 39.708569
v -12.191280 -11.595917 39.708569
v -15.327971 -11.194493 38.208569
v -12.191280 -11.595917 38.208569
v -12.191492 -11.595889 36.705952
v -12.135605 -11.598004 35.616756
v -13.693919 -11.397217 35.616135
v -15.328183 -11.194465 36.705330
v -15.252233 -11.196428 35.615517
v -15.327971 -11.194492 45.708569
v -15.327971 -11.294492 45.708569
v -13.759626 -11.495204 45.708569
v -12.191280 -11.695915 45.708569
v -12.191280 -11.695916 44.208569
v -12.191280 -11.695916 42.708569
v -12.191280 -11.695916 41.208569
v -12.191280 -11.695916 39.708569
v -12.191280 -11.695916 38.208569
v -12.191492 -11.695889 36.705952
v -12.135605 -11.698005 35.616756
v -13.693919 -11.497217 35.616135
v -15.252233 -11.296429 35.615517
v -15.328183 -11.294466 36.705330
v -15.327971 -11.294493 38.208569
v -15.327971 -11.294493 39.708569
v -15.327971 -11.294493 41.208569
v -15.327971 -11.294493 42.708569
v -15.327971 -11.294493 44.208569
v -14.433352 -11.095167 -4.879353
v -14.520330 -11.095352 -3.379288
v -14.782483 -11.095711 1.120841
v -14.868936 -11.095970 2.620936
v -14.955983 -11.096138 4.120997
v -15.043591 -11.096221 5.621028
v -13.690490 -11.297009 5.621532
v -12.337389 -11.497797 5.622036
v -12.270302 -11.497714 4.122009
v -12.203775 -11.497547 2.621955
v -12.137844 -11.497288 1.121872
v -11.937256 -11.496929 -3.378241
v -11.870798 -11.496744 -4.878298
v -13.152076 -11.295956 -4.878826
v -11.517632 -11.295580 -36.378902
v -12.583436 -11.094790 -36.379532
v -12.670752 -11.094949 -34.879486
v -12.757237 -11.095261 -33.379395
v -12.843753 -11.095564 -31.879303
v -12.930298 -11.095859 -30.379213
v -13.016482 -11.096216 -28.879103
v -13.191628 -11.096426 -25.879038
v -12.054001 -11.297217 -25.878439
v -10.916373 -11.498006 -25.877840
v -10.782269 -11.497796 -28.877895
v -10.716606 -11.497438 -30.377993
v -10.650582 -11.497144 -31.878071
v -10.584588 -11.496840 -33.378151
v -10.518623 -11.496529 -34.878231
v -10.451829 -11.496370 -36.378273
vt 0.266298 0.679121
vt 0.272748 0.679152
vt 0.272261 0.688137
vt 0.265872 0.688107
vt 0.266725 0.670135
vt 0.273236 0.670166
vt 0.267151 0.661149
vt 0.273724 0.661180
vt 0.267577 0.652163
vt 0.274212 0.652195
vt 0.268004 0.643177
vt 0.274700 0.643209
vt 0.281396 0.643240
vt 0.275676 0.625237
vt 0.282495 0.625269
vt 0.278649 0.688168
vt 0.279199 0.679183
vt 0.279748 0.670197
vt 0.280297 0.661211
vt 0.280847 0.652226
vt 0.268857 0.625206
vt 0.282994 0.490452
vt 0.275253 0.490418
vt 0.276532 0.463460
vt 0.284458 0.463495
vt 0.290186 0.499471
vt 0.282506 0.499437
vt 0.290735 0.490486
vt 0.276958 0.454474
vt 0.284945 0.454509
vt 0.277385 0.445489
vt 0.285433 0.445523
vt 0.277811 0.436503
vt 0.285921 0.436538
vt 0.292383 0.463529
vt 0.274826 0.499404
vt 0.292933 0.454543
vt 0.293482 0.445558
vt 0.294031 0.436572
vt 0.295679 0.256823
vt 0.286339 0.256786
vt 0.286751 0.250277
vt 0.296151 0.250315
vt 0.277372 0.241252
vt 0.277393 0.232265
vt 0.286772 0.241290
vt 0.286793 0.232303
vt 0.277456 0.205305
vt 0.277478 0.196318
vt 0.286856 0.205343
vt 0.286877 0.196356
vt 0.277414 0.223279
vt 0.277435 0.214292
vt 0.286814 0.223316
vt 0.286835 0.214330
vt 0.276999 0.256748
vt 0.277351 0.250239
vt 0.296172 0.241328
vt 0.296193 0.232341
vt 0.296256 0.205381
vt 0.296277 0.196394
vt 0.296214 0.223354
vt 0.296235 0.214367
vn -0.183416 -0.982989 -0.009526
vn -0.185126 -0.982679 -0.008347
vn -0.181742 -0.983301 -0.009439
vn -0.183419 -0.983000 -0.008270
vn -0.180097 -0.983604 -0.009354
vn -0.181745 -0.983312 -0.008194
vn -0.178481 -0.983900 -0.009270
vn -0.180100 -0.983615 -0.008120
vn -0.176893 -0.984187 -0.009188
vn -0.178484 -0.983910 -0.008047
vn -0.176894 -0.984187 -0.009186
vn -0.173799 -0.984728 -0.010215
vn -0.185122 -0.982668 -0.009614
vn -0.183414 -0.982977 -0.010781
vn -0.183417 -0.982989 -0.009524
vn -0.181740 -0.983289 -0.010682
vn -0.181743 -0.983301 -0.009437
vn -0.180095 -0.983592 -0.010586
vn -0.180098 -0.983604 -0.009352
vn -0.178479 -0.983888 -0.010490
vn -0.178482 -0.983900 -0.009268
vn -0.176892 -0.984175 -0.010397
vn -0.173799 -0.984740 -0.009027
vn -0.176896 -0.984197 -0.007976
vn 0.185120 0.982656 0.010880
vn 0.181740 0.983289 0.010682
vn 0.183420 0.983000 0.008270
vn 0.180094 0.983592 0.010586
vn 0.181745 0.983311 0.008194
vn 0.178479 0.983888 0.010490
vn 0.180100 0.983615 0.008119
vn 0.176891 0.984176 0.010398
vn 0.178484 0.983910 0.008047
vn 0.173798 0.984728 0.010215
vn 0.176893 0.984187 0.009186
vn 0.173803 0.984749 0.007838
vn 0.185125 0.982680 0.008348
vn 0.183417 0.982989 0.009526
vn -0.153613 -0.988107 -0.006926
vn -0.150117 -0.988638 -0.007797
vn -0.154812 -0.987911 -0.008039
vn -0.153610 -0.988090 -0.009029
vn -0.148987 -0.988809 -0.007738
vn -0.150118 -0.988645 -0.006769
vn -0.147874 -0.988976 -0.007680
vn -0.148989 -0.988816 -0.006718
vn -0.146776 -0.989140 -0.007624
vn -0.147875 -0.988984 -0.006668
vn -0.153611 -0.988099 -0.007977
vn -0.150116 -0.988629 -0.008824
vn -0.153611 -0.988099 -0.007978
vn -0.154814 -0.987919 -0.006981
vn -0.150118 -0.988637 -0.007795
vn -0.148986 -0.988801 -0.008757
vn -0.148987 -0.988809 -0.007737
vn -0.147872 -0.988968 -0.008692
vn -0.147873 -0.988976 -0.007680
vn -0.146775 -0.989132 -0.008627
vn 0.150115 0.988629 0.008824
vn 0.153613 0.988107 0.006926
vn 0.154811 0.987902 0.009098
vn 0.148985 0.988801 0.008757
vn 0.150118 0.988645 0.006769
vn 0.147872 0.988968 0.008691
vn 0.148988 0.988816 0.006718
vn 0.146775 0.989132 0.008627
vn 0.147874 0.988976 0.007680
vn 0.146778 0.989147 0.006619
vn 0.154813 0.987919 0.006981
vn 0.153611 0.988099 0.007977
vn -0.127789 -0.991784 -0.005876
vn -0.126938 -0.991886 -0.007060
vn -0.126941 -0.991910 -0.000000
vn -0.126941 -0.991910 0.000001
vn -0.127790 -0.991791 -0.004631
vn -0.126937 -0.991894 -0.005825
vn -0.126942 -0.991910 -0.000000
vn -0.126942 -0.991910 0.000001
vn 0.126942 0.991910 -0.000001
vn 0.126941 0.991910 0.000000
vn 0.126941 0.991910 -0.000001
vn 0.127790 0.991791 0.004631
vn 0.126938 0.991894 0.005823
vn 0.127787 0.991776 0.007119
vn 0.126942 0.991910 0.000001
vn 0.000000 0.000000 1.000000
vn 1.000000 0.000000 0.000000
vn 1.000000 0.000000 -0.000141
vn 0.998686 0.000000 0.051243
vn 0.000399 0.000000 -1.000000
vn 0.000397 0.000000 -1.000000
vn -0.997580 -0.000000 -0.069523
vn -1.000000 0.000000 0.000141
vn -1.000000 0.000000 0.000000
vn -0.998323 -0.000000 -0.057886
vn -0.998307 -0.000000 -0.058156
vn -0.998343 -0.000000 -0.057536
vn -0.998321 -0.000000 -0.057932
vn -0.998299 -0.000000 -0.058304
vn -0.000372 0.000000 1.000000
vn 0.999001 0.000000 0.044679
vn 0.999018 0.000000 0.044306
vn 0.999036 0.000000 0.043909
vn 0.999008 0.000000 0.044530
vn 0.999020 0.000000 0.044260
vn 0.000412 0.000000 -1.000000
vn 0.000411 0.000000 -1.000000
vn 0.000591 0.000000 -1.000000
vn -0.998310 -0.000000 -0.058110
vn -0.998342 -0.000000 -0.057558
vn -0.998341 -0.000000 -0.057578
vn -0.998340 -0.000000 -0.057597
vn -0.998354 -0.000000 -0.057358
vn -0.998300 -0.000000 -0.058282
vn -0.000526 0.000000 1.000000
vn 0.999002 0.000000 0.044656
vn 0.999043 0.000000 0.043730
vn 0.999033 0.000000 0.043971
vn 0.999034 0.000000 0.043951
vn 0.999035 0.000000 0.043932
vn 0.999010 0.000000 0.044484
s off
f 1/1/1 2/2/1 3/3/1
f 1/1/2 3/3/2 4/4/2
f 5/5/3 6/6/3 2/2/3
f 2/2/4 1/1/4 5/5/4
f 7/7/5 8/8/5 6/6/5
f 7/7/6 6/6/6 5/5/6
f 9/9/7 10/10/7 8/8/7
f 9/9/8 8/8/8 7/7/8
f 11/11/9 12/12/9 10/10/9
f 11/11/10 10/10/10 9/9/10
f 13/13/11 12/12/11 14/14/11
f 13/13/12 14/14/12 15/15/12
f 16/16/13 3/3/13 2/2/13
f 16/16/14 2/2/14 17/17/14
f 17/17/15 2/2/15 6/6/15
f 17/17/16 6/6/16 18/18/16
f 18/18/17 6/6/17 8/8/17
f 18/18/18 8/8/18 19/19/18
f 19/19/19 8/8/19 10/10/19
f 19/19/20 10/10/20 20/20/20
f 20/20/21 10/10/21 12/12/21
f 20/20/22 12/12/22 13/13/22
f 21/21/23 14/14/23 12/12/23
f 21/21/24 12/12/24 11/11/24
f 22/16/25 23/17/25 24/3/25
f 23/17/26 25/18/26 26/5/26
f 23/17/27 26/5/27 27/1/27
f 25/18/28 28/19/28 29/7/28
f 25/18/29 29/7/29 26/5/29
f 28/19/30 30/20/30 31/9/30
f 28/19/31 31/9/31 29/7/31
f 30/20/32 32/13/32 33/11/32
f 30/20/33 33/11/33 31/9/33
f 32/13/34 34/15/34 35/14/34
f 32/13/35 35/14/35 33/11/35
f 35/14/36 36/21/36 33/11/36
f 27/1/37 37/4/37 24/3/37
f 27/1/38 24/3/38 23/17/38
f 38/22/39 39/23/39 40/24/39
f 38/22/40 40/24/40 41/25/40
f 42/26/41 43/27/41 38/22/41
f 42/26/42 38/22/42 44/28/42
f 45/29/43 46/30/43 41/25/43
f 45/29/44 41/25/44 40/24/44
f 47/31/45 48/32/45 46/30/45
f 47/31/46 46/30/46 45/29/46
f 49/33/47 50/34/47 48/32/47
f 49/33/48 48/32/48 47/31/48
f 44/28/49 38/22/49 41/25/49
f 44/28/50 41/25/50 51/35/50
f 39/23/51 38/22/51 43/27/51
f 39/23/52 43/27/52 52/36/52
f 51/35/53 41/25/53 46/30/53
f 51/35/54 46/30/54 53/37/54
f 53/37/55 46/30/55 48/32/55
f 53/37/56 48/32/56 54/38/56
f 54/38/57 48/32/57 50/34/57
f 54/38/58 50/34/58 55/39/58
f 56/28/59 57/35/59 58/24/59
f 56/28/60 58/24/60 59/23/60
f 56/28/61 60/27/61 61/26/61
f 57/35/62 62/37/62 63/29/62
f 57/35/63 63/29/63 58/24/63
f 62/37/64 64/38/64 65/31/64
f 62/37/65 65/31/65 63/29/65
f 64/38/66 66/39/66 67/34/66
f 64/38/67 67/34/67 65/31/67
f 67/34/68 68/33/68 65/31/68
f 59/23/69 69/36/69 60/27/69
f 59/23/70 60/27/70 56/28/70
f 70/40/71 71/41/71 72/42/71
f 72/42/72 73/43/72 70/40/72
f 74/44/73 75/45/73 76/46/73
f 75/45/73 77/47/73 76/46/73
f 78/48/74 79/49/74 80/50/74
f 79/49/74 81/51/74 80/50/74
f 82/52/73 83/53/73 84/54/73
f 83/53/73 85/55/73 84/54/73
f 71/41/75 86/56/75 87/57/75
f 71/41/76 87/57/76 72/42/76
f 76/46/77 72/42/77 87/57/77
f 76/46/73 87/57/73 74/44/73
f 77/47/73 75/45/73 82/52/73
f 82/52/73 84/54/73 77/47/73
f 85/55/73 83/53/73 78/48/73
f 78/48/73 80/50/73 85/55/73
f 88/58/77 76/46/77 77/47/77
f 77/47/77 89/59/77 88/58/77
f 90/60/78 80/50/78 81/51/78
f 81/51/78 91/61/78 90/60/78
f 92/62/77 84/54/77 85/55/77
f 85/55/77 93/63/77 92/62/77
f 72/42/77 76/46/77 88/58/77
f 72/42/73 88/58/73 73/43/73
f 77/47/77 84/54/77 89/59/77
f 84/54/77 92/62/77 89/59/77
f 85/55/77 80/50/77 93/63/77
f 80/50/77 90/60/77 93/63/77
f 94/48/79 95/51/79 96/49/79
f 94/48/80 97/63/80 98/60/80
f 94/48/81 98/60/81 95/51/81
f 99/53/80 100/62/80 97/63/80
f 99/53/80 97/63/80 94/48/80
f 101/52/80 102/59/80 100/62/80
f 101/52/80 100/62/80 99/53/80
f 103/45/80 104/58/80 102/59/80
f 103/45/80 102/59/80 101/52/80
f 105/44/80 104/58/80 103/45/80
f 106/57/82 107/56/82 108/41/82
f 109/43/83 106/57/83 108/41/83
f 109/43/84 108/41/84 110/40/84
f 104/58/80 105/44/80 106/57/80
f 104/58/85 106/57/85 109/43/85
f 98/60/81 111/61/81 95/51/81
f 81/51/86 95/51/86 112/51/86
f 95/51/86 111/61/86 112/51/86
f 79/49/86 96/49/86 113/49/86
f 96/49/86 95/51/86 113/49/86
f 78/48/87 94/48/87 96/49/87
f 96/49/87 114/48/87 78/48/87
f 83/53/87 99/53/87 94/48/87
f 94/48/87 115/53/87 83/53/87
f 82/52/87 101/52/87 99/53/87
f 99/53/87 116/52/87 82/52/87
f 75/45/87 103/45/87 101/52/87
f 101/52/87 117/45/87 75/45/87
f 74/44/87 105/44/87 118/44/87
f 105/44/87 103/45/87 118/44/87
f 87/57/88 106/57/88 105/44/88
f 87/57/88 105/44/88 119/57/88
f 86/56/89 107/56/89 120/56/89
f 107/56/89 106/57/89 120/56/89
f 71/41/90 108/41/90 107/56/90
f 71/41/90 107/56/90 121/41/90
f 70/40/91 110/40/91 108/41/91
f 70/40/91 108/41/91 122/40/91
f 73/43/92 109/43/92 110/40/92
f 73/43/92 110/40/92 123/43/92
f 88/58/93 104/58/93 124/58/93
f 104/58/93 109/43/93 124/58/93
f 89/59/94 102/59/94 125/59/94
f 102/59/94 104/58/94 125/59/94
f 92/62/94 100/62/94 102/59/94
f 92/62/94 102/59/94 126/62/94
f 93/63/94 97/63/94 100/62/94
f 93/63/94 100/62/94 127/63/94
f 90/60/94 98/60/94 97/63/94
f 90/60/94 97/63/94 128/60/94
f 91/61/94 111/61/94 98/60/94
f 91/61/94 98/60/94 129/61/94
f 44/28/95 56/28/95 130/28/95
f 56/28/95 61/26/95 130/28/95
f 51/35/96 57/35/96 131/35/96
f 57/35/96 56/28/96 131/35/96
f 53/37/97 62/37/97 132/37/97
f 62/37/97 57/35/97 132/37/97
f 54/38/98 64/38/98 133/38/98
f 64/38/98 62/37/98 133/38/98
f 55/39/99 66/39/99 134/39/99
f 66/39/99 64/38/99 134/39/99
f 50/34/100 67/34/100 135/34/100
f 67/34/100 66/39/100 135/34/100
f 49/33/100 68/33/100 136/33/100
f 68/33/100 67/34/100 136/33/100
f 47/31/101 65/31/101 68/33/101
f 47/31/101 68/33/101 137/31/101
f 45/29/102 63/29/102 65/31/102
f 45/29/102 65/31/102 138/29/102
f 40/24/103 58/24/103 63/29/103
f 40/24/103 63/29/103 139/24/103
f 39/23/104 59/23/104 58/24/104
f 39/23/104 58/24/104 140/23/104
f 52/36/105 69/36/105 59/23/105
f 52/36/105 59/23/105 141/36/105
f 43/27/106 60/27/106 69/36/106
f 43/27/106 69/36/106 142/27/106
f 42/26/107 61/26/107 60/27/107
f 42/26/107 60/27/107 143/26/107
f 16/16/108 22/16/108 24/3/108
f 16/16/108 24/3/108 144/16/108
f 17/17/109 23/17/109 145/17/109
f 23/17/109 22/16/109 145/17/109
f 18/18/110 25/18/110 146/18/110
f 25/18/110 23/17/110 146/18/110
f 19/19/111 28/19/111 147/19/111
f 28/19/111 25/18/111 147/19/111
f 20/20/112 30/20/112 148/20/112
f 30/20/112 28/19/112 148/20/112
f 13/13/113 32/13/113 149/13/113
f 32/13/113 30/20/113 149/13/113
f 15/15/114 34/15/114 150/15/114
f 34/15/114 32/13/114 150/15/114
f 14/14/115 35/14/115 151/14/115
f 35/14/115 34/15/115 151/14/115
f 21/21/115 36/21/115 152/21/115
f 36/21/115 35/14/115 152/21/115
f 11/11/116 33/11/116 36/21/116
f 11/11/116 36/21/116 153/11/116
f 9/9/117 31/9/117 33/11/117
f 9/9/117 33/11/117 154/9/117
f 7/7/118 29/7/118 31/9/118
f 7/7/118 31/9/118 155/7/118
f 5/5/119 26/5/119 29/7/119
f 5/5/119 29/7/119 156/5/119
f 1/1/120 27/1/120 26/5/120
f 1/1/120 26/5/120 157/1/120
f 4/4/121 37/4/121 27/1/121
f 4/4/121 27/1/121 158/4/121
f 3/3/108 24/3/108 37/4/108
f 3/3/108 37/4/108 159/3/108
