# 3ds Max Wavefront OBJ Exporter v0.97b - (c)2007 guruware
# File Created: 13.01.2013 15:34:32

#
# object 
#

#
# object collision_pad3
#

v  50.0000 50.5000 -133.7540
v  -0.0000 50.5000 -97.4269
v  30.9017 50.5000 -107.4675
v  -30.9017 50.5000 -107.4675
v  -50.0000 50.5000 -133.7540
v  -50.0000 50.5000 -166.2460
v  -30.9017 50.5000 -192.5325
v  0.0000 50.5000 -202.5731
v  30.9017 50.5000 -192.5325
v  50.0000 50.5000 -166.2460
# 10 vertices

vn 0.0000 1.0000 -0.0000
# 1 vertex normals

vt 50.0000 50.0000 0.0000
vt -0.0000 50.0000 0.0000
vt 30.9017 50.0000 0.0000
vt -30.9017 50.0000 0.0000
vt -50.0000 50.0000 0.0000
vt 0.0000 50.0000 0.0000
# 6 texture coords

g collision_pad3
f 1/1/1 2/2/1 3/3/1 
f 1/1/1 4/4/1 2/2/1 
f 1/1/1 5/5/1 4/4/1 
f 1/1/1 6/5/1 5/5/1 
f 1/1/1 7/4/1 6/5/1 
f 1/1/1 8/6/1 7/4/1 
f 1/1/1 9/3/1 8/6/1 
f 1/1/1 10/1/1 9/3/1 
# 8 faces

#
# object collision_pad2
#

v  200.0000 50.5000 16.2460
v  150.0000 50.5000 52.5731
v  180.9017 50.5000 42.5325
v  119.0983 50.5000 42.5325
v  100.0000 50.5000 16.2460
v  100.0000 50.5000 -16.2460
v  119.0983 50.5000 -42.5325
v  150.0000 50.5000 -52.5731
v  180.9017 50.5000 -42.5325
v  200.0000 50.5000 -16.2460
# 10 vertices

vn 0.0000 1.0000 -0.0000
# 1 vertex normals

vt 200.0000 50.0000 0.0000
vt 150.0000 50.0000 0.0000
vt 180.9017 50.0000 0.0000
vt 119.0983 50.0000 0.0000
vt 100.0000 50.0000 0.0000
# 5 texture coords

g collision_pad2
f 11/7/2 12/8/2 13/9/2 
f 11/7/2 14/10/2 12/8/2 
f 11/7/2 15/11/2 14/10/2 
f 11/7/2 16/11/2 15/11/2 
f 11/7/2 17/10/2 16/11/2 
f 11/7/2 18/8/2 17/10/2 
f 11/7/2 19/9/2 18/8/2 
f 11/7/2 20/7/2 19/9/2 
# 8 faces

#
# object collision_pad4
#

v  50.0000 50.5000 166.2460
v  -0.0000 50.5000 202.5731
v  30.9017 50.5000 192.5325
v  -30.9017 50.5000 192.5325
v  -50.0000 50.5000 166.2460
v  -50.0000 50.5000 133.7540
v  -30.9017 50.5000 107.4675
v  0.0000 50.5000 97.4269
v  30.9017 50.5000 107.4675
v  50.0000 50.5000 133.7540
# 10 vertices

vn 0.0000 1.0000 -0.0000
# 1 vertex normals

vt 50.0000 50.0000 0.0000
vt -0.0000 50.0000 0.0000
vt 30.9017 50.0000 0.0000
vt -30.9017 50.0000 0.0000
vt -50.0000 50.0000 0.0000
vt 0.0000 50.0000 0.0000
# 6 texture coords

g collision_pad4
f 21/12/3 22/13/3 23/14/3 
f 21/12/3 24/15/3 22/13/3 
f 21/12/3 25/16/3 24/15/3 
f 21/12/3 26/16/3 25/16/3 
f 21/12/3 27/15/3 26/16/3 
f 21/12/3 28/17/3 27/15/3 
f 21/12/3 29/14/3 28/17/3 
f 21/12/3 30/12/3 29/14/3 
# 8 faces

#
# object collision_pad1
#

v  -100.0000 50.5000 16.2460
v  -150.0000 50.5000 52.5731
v  -119.0983 50.5000 42.5325
v  -180.9017 50.5000 42.5325
v  -200.0000 50.5000 16.2460
v  -200.0000 50.5000 -16.2460
v  -180.9017 50.5000 -42.5325
v  -150.0000 50.5000 -52.5731
v  -119.0983 50.5000 -42.5325
v  -100.0000 50.5000 -16.2460
# 10 vertices

vn 0.0000 1.0000 -0.0000
# 1 vertex normals

vt -100.0000 50.0000 0.0000
vt -150.0000 50.0000 0.0000
vt -119.0983 50.0000 0.0000
vt -180.9017 50.0000 0.0000
vt -200.0000 50.0000 0.0000
# 5 texture coords

g collision_pad1
f 31/18/4 32/19/4 33/20/4 
f 31/18/4 34/21/4 32/19/4 
f 31/18/4 35/22/4 34/21/4 
f 31/18/4 36/22/4 35/22/4 
f 31/18/4 37/21/4 36/22/4 
f 31/18/4 38/19/4 37/21/4 
f 31/18/4 39/20/4 38/19/4 
f 31/18/4 40/18/4 39/20/4 
# 8 faces

