# OBJ written from C:\Users\rivalin\Documents\GitHub\pioneer\data\models\ships\(1)Light\(1F)passenger_ship\passenger_ship_collision.obj

o Mesh (2)
v 2.595 -2.5275 -14.27
v -2.595 -2.5275 -14.27
v 2.595 2.5275 -14.27
v -2.595 2.5275 -14.27
v 2.595 0 -19.47
v -2.595 0 -19.47
v 4.925 0 -14.27
v -4.925 0 -14.27
v 2.595 -2.5275 15.51
v -2.595 -2.5275 15.51
v 2.595 2.5275 15.51
v -2.595 2.5275 15.51
v 4.925 0 15.51
v -4.925 0 15.51
v 2.595 0 17.95
v -2.595 0 17.95
v 5.0862 -1.19342 10.2243
v 5.0862 1.19342 10.2243
v -5.0862 -1.19342 10.2243
v -5.0862 1.19342 10.2243
v 5.0862 -1.19342 17.0243
v 5.0862 1.19342 17.0243
v -5.0862 -1.19342 17.0243
v -5.0862 1.19342 17.0243
v 5.0862 -0.221425 13.4363
v 5.0862 0.221425 13.4363
v -5.0862 -0.221425 13.4363
v -5.0862 0.221425 13.4363
v 5.0862 -0.221425 16.0523
v 5.0862 0.221425 16.0523
v -5.0862 -0.221425 16.0523
v -5.0862 0.221425 16.0523
v 7.0462 -0.221425 14.8763
v 7.0462 0.221425 14.8763
v -7.0462 -0.221425 14.8763
v -7.0462 0.221425 14.8763
v 7.0462 -0.221425 16.0523
v 7.0462 0.221425 16.0523
v -7.0462 -0.221425 16.0523
v -7.0462 0.221425 16.0523
vn 0 -0.974522 -0.224291
vn 0 -0.899387 -0.437154
vn 0 0.899387 -0.437154
vn 0 0.974522 -0.224291
vn 0.72596 -0.669234 -0.158454
vn 0.698328 -0.643761 -0.312905
vn 0.72596 0.669234 -0.158454
vn 0.698328 0.643761 -0.312905
vn -0.72596 -0.669234 -0.158454
vn -0.698328 -0.643761 -0.312905
vn -0.698328 0.643761 -0.312905
vn -0.72596 0.669234 -0.158454
vn 0 -1 0
vn 0.701079 -0.646297 0.301312
vn 0.701079 0.646297 0.301312
vn 0 1 0
vn -0.701079 0.646297 0.301312
vn -0.701079 -0.646297 0.301312
vn -0.317263 -0.658662 0.682282
vn 0.317263 -0.658662 0.682282
vn -0.317263 0.658662 0.682282
vn 0.317263 0.658662 0.682282
vn -0.49911 0.719387 0.483085
vn -0.49911 -0.719387 0.483085
vn 0.49911 0.719387 0.483085
vn 0.49911 -0.719387 0.483085
vn 1 0 0
vn -1 0 0
vn 0 0 1
vn -0.592077 0 -0.805882
vn 0.592077 0 -0.805882
vn 0 0 -1
vt 0.5 0.333333
vt 0.25 0.333333
vt 0.25 0.5
vt 0.5 0.5
vt 0.25 0.666667
vt 0.5 0.666667
vt 0.5 0.444968
vt 0.5 0.555032
vt 0.25 0.555032
vt 0.25 0.444968
vt 0.270621 0.444968
vt 0.229379 0.555032
vt 0.479379 0.555032
vt 0.520621 0.444968
mtllib passenger_ship_collision.mtl
usemtl Default
g Default
f 1/1/1 2/2/1 6/3/2 5/4/2
f 5/4/3 6/3/3 4/5/4 3/6/4
f 7/4/5 1/1/5 5/4/6
f 7/4/7 5/4/8 3/6/7
f 2/2/9 8/3/9 6/3/10
f 6/3/11 8/3/12 4/5/12
f 2/2/1 1/1/1 9/1/13 10/2/13
f 1/1/5 7/4/5 13/4/14 9/1/14
f 7/4/7 3/6/7 11/6/15 13/4/15
f 3/6/4 4/5/4 12/5/16 11/6/16
f 4/5/12 8/3/12 14/3/17 12/5/17
f 8/3/9 2/2/9 10/2/18 14/3/18
f 10/2/19 9/1/20 15/4/20 16/3/19
f 12/5/21 16/3/21 15/4/22 11/6/22
f 12/5/23 14/3/17 16/3/21
f 10/2/24 16/3/19 14/3/18
f 11/6/25 15/4/22 13/4/15
f 9/1/26 13/4/14 15/4/20
f 17/7/27 18/8/27 22/8/27 21/7/27
f 18/8/16 20/9/16 24/9/16 22/8/16
f 20/9/28 19/10/28 23/10/28 24/9/28
f 19/10/13 17/7/13 21/7/13 23/10/13
f 22/8/29 24/9/29 23/10/29 21/7/29
f 27/11/13 31/10/13 39/10/13 35/11/13
f 31/10/29 32/12/29 40/12/29 39/10/29
f 32/12/16 28/9/16 36/9/16 40/12/16
f 28/9/30 27/11/30 35/11/30 36/9/30
f 26/13/16 30/8/16 38/8/16 34/13/16
f 30/8/29 29/14/29 37/14/29 38/8/29
f 29/14/13 25/7/13 33/7/13 37/14/13
f 25/7/31 26/13/31 34/13/31 33/7/31
f 33/7/27 34/13/27 38/8/27 37/14/27
f 36/9/28 35/11/28 39/10/28 40/12/28
f 19/10/32 20/9/32 18/8/32 17/7/32
