# 3ds Max Wavefront OBJ Exporter v0.94b - (c)2007 guruware
# File Created: 29.09.2010 23:19:06

#
# object bottom
#

v  -2.8000 -1.1224 2.9414
v  -1.9500 -1.1224 -0.0586
v  -1.0000 -1.6441 0.9930
v  -1.2731 -1.8134 2.9414
v  -1.2731 -1.8724 3.6191
v  -1.4500 -1.7987 5.9550
v  -2.8000 -1.1193 6.7607
v  -1.5615 -0.9686 -3.0586
v  -1.0000 -1.0922 -3.0586
v  -1.0000 -1.1224 -2.5361
v  -0.9800 -0.8284 -5.7920
v  -1.0000 -0.9435 -5.3000
v  0.0000 -0.3725 -6.8000
v  0.0000 -0.6364 -6.3500
v  -0.5000 -0.6364 -6.3500
v  -0.5000 -0.3725 -6.6500
v  0.0000 -0.8284 -5.7920
v  -0.5000 -0.8284 -5.7920
v  0.0000 -0.9435 -5.3000
v  -0.5000 -0.9435 -5.3000
v  0.0000 -1.0922 -3.0586
v  -0.5000 -1.0922 -3.0586
v  0.0000 -1.1224 -2.5361
v  -0.5000 -1.1224 -2.5361
v  0.0000 -1.1224 -0.0586
v  -0.5000 -1.1224 -0.0586
v  0.0000 -1.6441 0.9930
v  0.0000 -1.5626 2.9414
v  -0.5000 -1.8134 2.9414
v  -0.5000 -1.6441 0.9930
v  0.0000 -1.5519 3.6191
v  -0.5000 -1.8724 3.6191
v  0.0000 -1.5519 6.4943
v  -0.5000 -1.8724 5.9414
v  -0.9800 -0.6364 -6.0586
v  -0.9800 -0.3725 -6.2000
v  -1.7646 -0.8363 -1.3408
v  -1.9590 -0.8706 0.4311
v  -2.2774 -0.9626 0.4288
v  -2.2151 -0.9157 2.7657
v  -2.9410 -1.1260 2.7190
v  -3.5508 -1.2743 4.9811
v  -4.6774 -1.6016 4.8512
v  -3.7976 -1.3579 3.9994
v  -3.3448 -1.2345 3.3850
v  -4.5915 -1.5858 4.1272
v  -5.7529 -1.9191 4.3142
v  -5.8040 -1.9289 4.7212
v  -6.0455 -1.9985 4.7401
v  -5.8957 -1.9602 4.3372
v  -5.8319 -1.9333 5.0094
v  -6.1157 -2.0164 4.9288
v  -4.7255 -1.6097 5.3237
v  -3.8320 -1.3483 5.5776
v  -3.6188 -1.2882 5.4445
v  -2.8544 -1.0733 4.9674
v  -2.9975 -1.1400 2.9138
v  -2.4815 -0.9684 4.7346
v  2.8000 -1.1224 2.9414
v  1.2731 -1.8134 2.9414
v  1.0000 -1.6441 0.9930
v  1.9500 -1.1224 -0.0586
v  1.4500 -1.7987 5.9550
v  1.2731 -1.8724 3.6191
v  2.8000 -1.1193 6.7607
v  1.5615 -0.9686 -3.0586
v  1.0000 -1.1224 -2.5361
v  1.0000 -1.0922 -3.0586
v  1.0000 -0.9435 -5.3000
v  0.9800 -0.8284 -5.7920
v  0.5000 -0.3725 -6.6500
v  0.5000 -0.6364 -6.3500
v  0.5000 -0.8284 -5.7920
v  0.5000 -0.9435 -5.3000
v  0.5000 -1.0922 -3.0586
v  0.5000 -1.1224 -2.5361
v  0.5000 -1.1224 -0.0586
v  0.5000 -1.6441 0.9930
v  0.5000 -1.8134 2.9414
v  0.5000 -1.8724 3.6191
v  0.5000 -1.8724 5.9414
v  0.9800 -0.3725 -6.2000
v  0.9800 -0.6364 -6.0586
v  1.7646 -0.8363 -1.3408
v  2.2774 -0.9626 0.4288
v  1.9590 -0.8706 0.4311
v  2.2151 -0.9157 2.7657
v  2.9410 -1.1260 2.7190
v  3.5508 -1.2743 4.9811
v  3.3448 -1.2345 3.3850
v  3.7976 -1.3579 3.9994
v  4.6774 -1.6016 4.8512
v  4.5915 -1.5858 4.1272
v  5.7529 -1.9191 4.3142
v  5.8040 -1.9289 4.7212
v  5.8957 -1.9602 4.3372
v  6.0455 -1.9985 4.7401
v  5.8319 -1.9333 5.0094
v  6.1157 -2.0164 4.9288
v  4.7255 -1.6097 5.3237
v  3.8320 -1.3483 5.5776
v  3.6188 -1.2882 5.4445
v  2.8544 -1.0733 4.9674
v  2.9975 -1.1400 2.9138
v  2.4815 -0.9684 4.7346
# 105 vertices

vn -0.4128 -0.9085 -0.0648
vn -0.3834 -0.9172 -0.1086
vn -0.3909 -0.9130 -0.1166
vn -0.4275 -0.9005 -0.0798
vn -0.8419 -0.5376 -0.0468
vn -0.4470 -0.8945 -0.0049
vn -0.4492 -0.8934 0.0007
vn -0.2186 -0.9734 -0.0684
vn -0.1079 -0.9923 -0.0616
vn -0.0899 -0.9949 -0.0455
vn -0.0332 -0.9994 -0.0127
vn -0.1256 -0.9356 -0.3300
vn -0.3656 -0.9142 -0.1751
vn -0.0000 -0.8190 -0.5738
vn 0.0000 -0.9086 -0.4177
vn -0.1692 -0.8431 -0.5104
vn -0.2995 -0.6930 -0.6558
vn 0.0000 -0.9609 -0.2769
vn 0.0000 -0.9891 -0.1475
vn 0.0000 -0.9981 -0.0620
vn 0.0000 -0.9996 -0.0289
vn 0.0000 -1.0000 0.0000
vn -0.0000 -0.9978 -0.0661
vn 0.0000 -1.0000 0.0003
vn 0.4160 -0.9088 -0.0311
vn 0.0000 -0.9962 -0.0866
vn 0.0000 -1.0000 0.0079
vn 0.5203 -0.8539 -0.0132
vn 0.5397 -0.8419 0.0000
vn -0.4300 -0.6668 -0.6087
vn -0.6370 -0.3641 -0.6795
vn 0.0000 -0.9962 -0.0867
vn -0.0096 -0.9995 -0.0315
vn 0.0000 -0.9997 -0.0263
vn -0.0773 -0.9970 0.0000
vn -0.0611 -0.9981 0.0066
vn 0.2775 -0.9607 0.0118
vn 0.2775 -0.9607 0.0119
vn 0.2776 -0.9606 0.0118
vn 0.2776 -0.9606 0.0116
vn 0.2776 -0.9606 0.0119
vn 0.2777 -0.9606 0.0119
vn 0.2778 -0.9606 0.0120
vn 0.2777 -0.9606 0.0120
vn 0.2779 -0.9605 0.0118
vn 0.2778 -0.9606 0.0121
vn 0.2782 -0.9605 0.0119
vn 0.2777 -0.9606 0.0122
vn 0.2778 -0.9606 0.0122
vn 0.2778 -0.9606 0.0118
vn 0.2780 -0.9605 0.0120
vn 0.2775 -0.9606 0.0119
vn 0.4128 -0.9085 -0.0648
vn 0.4275 -0.9005 -0.0798
vn 0.3909 -0.9130 -0.1166
vn 0.3834 -0.9172 -0.1086
vn 0.4470 -0.8945 -0.0049
vn 0.8419 -0.5376 -0.0468
vn 0.4492 -0.8934 0.0007
vn 0.2186 -0.9734 -0.0684
vn 0.0332 -0.9994 -0.0127
vn 0.0899 -0.9949 -0.0455
vn 0.1079 -0.9923 -0.0616
vn 0.3656 -0.9142 -0.1751
vn 0.1256 -0.9356 -0.3300
vn 0.2995 -0.6930 -0.6558
vn 0.1692 -0.8431 -0.5104
vn -0.4160 -0.9088 -0.0311
vn -0.5203 -0.8539 -0.0132
vn -0.5397 -0.8419 0.0000
vn 0.6370 -0.3641 -0.6795
vn 0.4300 -0.6668 -0.6087
vn 0.0096 -0.9995 -0.0315
vn 0.0611 -0.9981 0.0066
vn 0.0773 -0.9970 0.0000
vn -0.2775 -0.9607 0.0118
vn -0.2775 -0.9607 0.0119
vn -0.2776 -0.9606 0.0118
vn -0.2776 -0.9606 0.0116
vn -0.2776 -0.9606 0.0119
vn -0.2778 -0.9606 0.0120
vn -0.2777 -0.9606 0.0119
vn -0.2777 -0.9606 0.0120
vn -0.2779 -0.9605 0.0118
vn -0.2782 -0.9605 0.0119
vn -0.2778 -0.9606 0.0121
vn -0.2777 -0.9606 0.0122
vn -0.2778 -0.9606 0.0122
vn -0.2778 -0.9606 0.0118
vn -0.2780 -0.9605 0.0120
vn -0.2775 -0.9606 0.0119
# 91 vertex normals

vt 0.7629 0.7849 0.0000
vt 0.5851 0.7406 0.0000
vt 0.6451 0.6828 0.0000
vt 0.7601 0.6952 0.0000
vt 0.7999 0.6940 0.0000
vt 0.9375 0.7000 0.0000
vt 0.9873 0.7778 0.0000
vt 0.4082 0.7234 0.0000
vt 0.4071 0.6904 0.0000
vt 0.4378 0.6894 0.0000
vt 0.2465 0.6943 0.0000
vt 0.2755 0.6945 0.0000
vt 0.1855 0.6386 0.0000
vt 0.2119 0.6378 0.0000
vt 0.2129 0.6671 0.0000
vt 0.1953 0.6677 0.0000
vt 0.2447 0.6367 0.0000
vt 0.2457 0.6661 0.0000
vt 0.2736 0.6358 0.0000
vt 0.2746 0.6652 0.0000
vt 0.4053 0.6316 0.0000
vt 0.4062 0.6610 0.0000
vt 0.4360 0.6307 0.0000
vt 0.4369 0.6600 0.0000
vt 0.5815 0.6260 0.0000
vt 0.5824 0.6554 0.0000
vt 0.6433 0.6241 0.0000
vt 0.7577 0.6205 0.0000
vt 0.7587 0.6498 0.0000
vt 0.6442 0.6535 0.0000
vt 0.7975 0.6192 0.0000
vt 0.7985 0.6486 0.0000
vt 0.9664 0.6138 0.0000
vt 0.9349 0.6442 0.0000
vt 0.2309 0.6948 0.0000
vt 0.2226 0.6950 0.0000
vt 0.5095 0.7321 0.0000
vt 0.6139 0.7402 0.0000
vt 0.6144 0.7589 0.0000
vt 0.7515 0.7509 0.0000
vt 0.7501 0.7936 0.0000
vt 0.8842 0.8252 0.0000
vt 0.8786 0.8917 0.0000
vt 0.8269 0.8416 0.0000
vt 0.7900 0.8161 0.0000
vt 0.8359 0.8880 0.0000
vt 0.8491 0.9558 0.0000
vt 0.8731 0.9581 0.0000
vt 0.8746 0.9722 0.0000
vt 0.8507 0.9642 0.0000
vt 0.8901 0.9592 0.0000
vt 0.8859 0.9760 0.0000
vt 0.9065 0.8936 0.0000
vt 0.9197 0.8407 0.0000
vt 0.9115 0.8284 0.0000
vt 0.8821 0.7844 0.0000
vt 0.7617 0.7966 0.0000
vt 0.8677 0.7629 0.0000
vt 0.7525 0.4560 0.0000
vt 0.7554 0.5457 0.0000
vt 0.6414 0.5653 0.0000
vt 0.5779 0.5115 0.0000
vt 0.9321 0.5297 0.0000
vt 0.7952 0.5444 0.0000
vt 0.9769 0.4489 0.0000
vt 0.4024 0.5399 0.0000
vt 0.4341 0.5719 0.0000
vt 0.4034 0.5729 0.0000
vt 0.2718 0.5771 0.0000
vt 0.2429 0.5792 0.0000
vt 0.1934 0.6089 0.0000
vt 0.2110 0.6084 0.0000
vt 0.2438 0.6073 0.0000
vt 0.2727 0.6064 0.0000
vt 0.4044 0.6023 0.0000
vt 0.4350 0.6013 0.0000
vt 0.5806 0.5967 0.0000
vt 0.6423 0.5947 0.0000
vt 0.7568 0.5911 0.0000
vt 0.7966 0.5898 0.0000
vt 0.9330 0.5855 0.0000
vt 0.2189 0.5799 0.0000
vt 0.2272 0.5796 0.0000
vt 0.5029 0.5248 0.0000
vt 0.6059 0.4914 0.0000
vt 0.6066 0.5101 0.0000
vt 0.7433 0.4907 0.0000
vt 0.7392 0.4481 0.0000
vt 0.8709 0.4081 0.0000
vt 0.7776 0.4232 0.0000
vt 0.8128 0.3954 0.0000
vt 0.8612 0.3422 0.0000
vt 0.8188 0.3485 0.0000
vt 0.8277 0.2800 0.0000
vt 0.8515 0.2762 0.0000
vt 0.8287 0.2715 0.0000
vt 0.8521 0.2620 0.0000
vt 0.8684 0.2740 0.0000
vt 0.8631 0.2575 0.0000
vt 0.8889 0.3384 0.0000
vt 0.9055 0.3905 0.0000
vt 0.8980 0.4032 0.0000
vt 0.8714 0.4490 0.0000
vt 0.7505 0.4444 0.0000
vt 0.8584 0.4714 0.0000
# 105 texture coords

g bottom
s 256
f 1/1/1 2/2/2 3/3/3 4/4/4 
f 4/4/4 5/5/5 6/6/6 1/1/1 
f 7/7/7 1/1/1 6/6/6 
s 4
f 8/8/8 9/9/9 10/10/10 2/2/11 
f 8/8/8 11/11/12 12/12/13 9/9/9 
f 13/13/14 14/14/15 15/15/16 16/16/17 
f 14/14/15 17/17/18 18/18/18 15/15/16 
f 17/17/18 19/19/19 20/20/19 18/18/18 
f 19/19/19 21/21/20 22/22/20 20/20/19 
f 21/21/20 23/23/21 24/24/21 22/22/20 
f 23/23/21 25/25/22 26/26/22 24/24/21 
s 2
f 27/27/23 28/28/24 29/29/25 30/30/26 
f 28/28/24 31/31/27 32/32/28 29/29/25 
f 31/31/27 33/33/22 34/34/29 32/32/28 
s 4
f 16/16/17 15/15/16 35/35/30 36/36/31 
f 15/15/16 18/18/18 11/11/12 35/35/30 
f 18/18/18 20/20/19 12/12/13 11/11/12 
f 20/20/19 22/22/20 9/9/9 12/12/13 
f 22/22/20 24/24/21 10/10/10 9/9/9 
f 24/24/21 26/26/22 2/2/11 10/10/10 
s 1
f 30/30/26 29/29/26 4/4/32 3/3/26 
f 29/29/26 32/32/33 5/5/34 4/4/32 
f 32/32/33 34/34/35 6/6/36 5/5/34 
s 2
f 37/37/37 38/38/38 39/39/38 
f 40/40/39 41/41/40 39/39/38 38/38/38 
f 42/42/41 43/43/42 44/44/43 45/45/41 
f 44/44/43 43/43/42 46/46/44 
f 47/47/45 46/46/44 43/43/42 48/48/43 
f 48/48/43 49/49/46 50/50/47 47/47/45 
f 51/51/48 52/52/49 49/49/46 48/48/43 
f 43/43/42 53/53/39 51/51/48 48/48/43 
f 54/54/50 43/43/42 42/42/41 55/55/51 
f 53/53/39 43/43/42 54/54/50 
f 55/55/51 42/42/41 56/56/52 
f 45/45/41 40/40/39 56/56/52 42/42/41 
f 40/40/39 45/45/41 57/57/39 41/41/40 
f 56/56/52 40/40/39 58/58/41 
s 256
f 59/59/53 60/60/54 61/61/55 62/62/56 
f 60/60/54 59/59/53 63/63/57 64/64/58 
f 65/65/59 63/63/57 59/59/53 
s 4
f 66/66/60 62/62/61 67/67/62 68/68/63 
f 66/66/60 68/68/63 69/69/64 70/70/65 
f 13/13/14 71/71/66 72/72/67 14/14/15 
f 14/14/15 72/72/67 73/73/18 17/17/18 
f 17/17/18 73/73/18 74/74/19 19/19/19 
f 19/19/19 74/74/19 75/75/20 21/21/20 
f 21/21/20 75/75/20 76/76/21 23/23/21 
f 23/23/21 76/76/21 77/77/22 25/25/22 
s 2
f 27/27/23 78/78/26 79/79/68 28/28/24 
f 28/28/24 79/79/68 80/80/69 31/31/27 
f 31/31/27 80/80/69 81/81/70 33/33/22 
s 4
f 71/71/66 82/82/71 83/83/72 72/72/67 
f 72/72/67 83/83/72 70/70/65 73/73/18 
f 73/73/18 70/70/65 69/69/64 74/74/19 
f 74/74/19 69/69/64 68/68/63 75/75/20 
f 75/75/20 68/68/63 67/67/62 76/76/21 
f 76/76/21 67/67/62 62/62/61 77/77/22 
s 1
f 78/78/26 61/61/26 60/60/32 79/79/26 
f 79/79/26 60/60/32 64/64/34 80/80/73 
f 80/80/73 64/64/34 63/63/74 81/81/75 
s 2
f 84/84/76 85/85/77 86/86/77 
f 87/87/78 86/86/77 85/85/77 88/88/79 
f 89/89/80 90/90/80 91/91/81 92/92/82 
f 91/91/81 93/93/83 92/92/82 
f 94/94/84 95/95/81 92/92/82 93/93/83 
f 95/95/81 94/94/84 96/96/85 97/97/86 
f 98/98/87 95/95/81 97/97/86 99/99/88 
f 92/92/82 95/95/81 98/98/87 100/100/78 
f 101/101/89 102/102/90 89/89/80 92/92/82 
f 100/100/78 101/101/89 92/92/82 
f 102/102/90 103/103/91 89/89/80 
f 90/90/80 89/89/80 103/103/91 87/87/78 
f 87/87/78 88/88/79 104/104/78 90/90/80 
f 103/103/91 105/105/80 87/87/78 
# 62 polygons - 12 triangles

