# 3ds Max Wavefront OBJ Exporter v0.94b - (c)2007 guruware
# File Created: 09.10.2010 20:12:28

#
# object fighter_collision
#

v  1.5218 0.4234 -0.8762
v  0.5577 0.7458 5.8900
v  1.9689 0.4485 6.1858
v  0.9800 -0.0839 -6.0586
v  1.0000 0.3449 -3.3653
v  1.5615 0.3582 -0.9884
v  0.5577 0.5983 -0.3961
v  0.5000 0.5493 -0.4446
v  0.5000 0.1865 -5.2112
v  5.9512 -1.7680 4.3348
v  3.8531 -0.9297 3.9970
v  6.1713 -1.8243 4.9264
v  2.5371 -0.5009 4.7322
v  1.8201 -0.3689 -1.3432
v  0.9800 -0.3725 -6.2000
v  0.0000 0.4812 -1.4182
v  0.0000 0.3501 -2.4374
v  0.0000 0.3449 -3.3653
v  0.0000 0.0951 -5.4975
v  0.0000 0.1865 -5.2112
v  0.0000 -0.0024 -5.5453
v  2.0077 0.3799 5.2718
v  2.6000 -0.3704 5.4084
v  2.0077 0.3807 6.2607
v  2.6000 -0.3692 6.7607
v  2.8000 -1.1224 2.9414
v  0.9800 -0.8284 -5.7920
v  1.5615 -0.3725 -3.0586
v  2.8000 -1.1193 6.7607
v  2.4433 1.0076 4.2604
v  1.9856 0.3766 2.7930
v  1.8626 0.4154 2.9414
v  3.1557 2.0164 5.2197
v  0.5000 0.6982 5.9414
v  0.0000 -1.5519 6.4943
v  1.0500 -1.5340 1.0224
v  1.0000 -1.6441 0.9930
v  1.0000 -1.1224 -0.0586
v  0.9500 -1.5340 1.0224
v  1.8215 0.1097 6.0024
v  2.3973 -0.9887 6.0876
v  0.5000 -1.8724 5.9414
v  0.9296 0.1097 6.0024
v  3.4181 -1.1535 3.2394
v  3.7976 -1.3579 3.9994
v  2.9410 -1.1260 2.7190
v  1.7646 -0.8363 -1.3408
v  3.8320 -1.3483 5.5776
v  3.8875 -0.9201 5.5752
v  6.1157 -2.0164 4.9288
v  5.8957 -1.9602 4.3372
v  3.4003 -0.7672 3.3826
v  3.3821 -0.8471 3.5469
v  2.9200 -1.0965 3.7535
v  3.3998 -1.0984 3.7672
v  3.4009 -0.7783 3.7692
v  2.9211 -0.7767 3.7555
v  1.9416 0.4367 2.7761
v  1.5615 0.3582 -0.0586
v  1.5210 0.4211 -0.0565
v  1.8218 0.4776 2.9213
v  1.8290 0.5017 5.1012
v  0.5577 0.6191 2.9399
v  0.5000 0.5692 2.9414
v  0.5577 0.5964 -0.0601
v  0.5000 0.5470 -0.0586
v  0.0000 0.6771 5.9626
v  0.0000 -1.8724 5.9414
v  0.0000 -1.7963 4.2919
v  1.9500 -1.1224 -0.0586
v  0.0000 -1.1224 -0.0586
v  0.0000 -0.5255 -5.3048
v  0.9298 -1.5272 5.7875
v  0.0000 0.2393 -4.5959
v  0.0000 0.6237 2.7484
v  0.0000 0.5493 -0.4446
v  0.0000 -0.3725 -6.2000
v  0.0000 -0.3725 -6.8000
v  0.0000 -1.4673 0.6365
v  0.0000 -1.6441 0.9930
v  0.0000 -1.5060 2.5108
v  0.0000 -0.3725 -6.4980
v  -0.5577 0.7458 5.8900
v  -1.5218 0.4234 -0.8762
v  -1.9689 0.4485 6.1858
v  -1.0000 0.3449 -3.3653
v  -0.9800 -0.0839 -6.0586
v  -1.5615 0.3582 -0.9884
v  -0.5577 0.5983 -0.3961
v  -0.5000 0.5493 -0.4446
v  -0.5000 0.1865 -5.2112
v  -3.8531 -0.9297 3.9970
v  -5.9512 -1.7680 4.3348
v  -6.1713 -1.8243 4.9264
v  -2.5371 -0.5009 4.7322
v  -1.8201 -0.3689 -1.3432
v  -0.9800 -0.3725 -6.2000
v  -2.6000 -0.3704 5.4084
v  -2.0077 0.3799 5.2718
v  -2.6000 -0.3692 6.7607
v  -2.0077 0.3807 6.2607
v  -0.9800 -0.8284 -5.7920
v  -2.8000 -1.1224 2.9414
v  -1.5615 -0.3725 -3.0586
v  -2.8000 -1.1193 6.7607
v  -1.9856 0.3766 2.7930
v  -2.4433 1.0076 4.2604
v  -1.8626 0.4154 2.9414
v  -3.1557 2.0164 5.2197
v  -0.5000 0.6982 5.9414
v  -1.0000 -1.6441 0.9930
v  -1.0500 -1.5340 1.0224
v  -1.0000 -1.1224 -0.0586
v  -0.9500 -1.5340 1.0224
v  -2.3973 -0.9887 6.0876
v  -1.8215 0.1097 6.0024
v  -0.5000 -1.8724 5.9414
v  -0.9296 0.1097 6.0024
v  -3.7976 -1.3579 3.9994
v  -3.4181 -1.1535 3.2394
v  -2.9410 -1.1260 2.7190
v  -3.8875 -0.9201 5.5752
v  -3.8320 -1.3483 5.5776
v  -1.7646 -0.8363 -1.3408
v  -6.1157 -2.0164 4.9288
v  -5.8957 -1.9602 4.3372
v  -3.4003 -0.7672 3.3826
v  -3.3821 -0.8471 3.5469
v  -3.4009 -0.7783 3.7692
v  -3.3998 -1.0984 3.7672
v  -2.9200 -1.0965 3.7535
v  -2.9211 -0.7767 3.7555
v  -1.5615 0.3582 -0.0586
v  -1.9416 0.4367 2.7761
v  -1.5210 0.4211 -0.0565
v  -1.8218 0.4776 2.9213
v  -1.8290 0.5017 5.1012
v  -0.5000 0.5692 2.9414
v  -0.5577 0.6191 2.9399
v  -0.5000 0.5470 -0.0586
v  -0.5577 0.5964 -0.0601
v  -1.9500 -1.1224 -0.0586
v  -0.9298 -1.5272 5.7875
# 143 vertices

vn 0.2095 0.9777 -0.0167
vn 0.5523 0.8226 -0.1351
vn 0.1673 0.9856 -0.0231
vn 0.1560 0.9869 -0.0424
vn 0.2652 0.9519 -0.1535
vn 0.3778 0.9244 -0.0526
vn 0.3388 0.9390 0.0588
vn 0.3022 0.9531 -0.0150
vn -0.8009 0.2635 -0.5377
vn -0.1125 0.9855 -0.1267
vn 0.0000 1.0000 -0.0056
vn 0.0000 0.9527 -0.3040
vn 0.3980 0.4036 -0.8238
vn 0.7898 0.6034 -0.1103
vn 0.7849 0.6196 -0.0005
vn 0.9786 -0.0212 -0.2047
vn 0.9612 0.2563 -0.1017
vn 0.5204 0.8539 -0.0007
vn 0.9705 -0.1608 -0.1796
vn -0.1366 0.9248 -0.3551
vn -0.8163 0.5745 0.0596
vn -0.1457 0.2665 0.9528
vn 0.9127 -0.3660 -0.1816
vn -0.9127 -0.3660 -0.1816
vn -0.7877 -0.2926 0.5421
vn -0.4115 0.8166 0.4047
vn 0.6801 -0.1694 0.7132
vn 0.3246 -0.5776 -0.7490
vn 0.4163 -0.8042 -0.4242
vn -0.9488 0.1192 0.2927
vn 0.2606 -0.0392 0.9647
vn 0.8957 -0.2637 -0.3581
vn 0.3101 0.8843 -0.3490
vn 0.3235 -0.5706 -0.7548
vn 0.9132 -0.2727 -0.3028
vn 0.6065 0.5976 -0.5245
vn -0.0286 -0.0062 0.9996
vn 0.8247 0.5514 -0.1259
vn 0.6886 0.6005 0.4065
vn 0.6525 0.7575 -0.0201
vn 0.5636 0.8260 -0.0007
vn 0.0085 0.7289 0.6846
vn -0.6537 0.7561 -0.0325
vn -0.6523 0.7579 -0.0057
vn -0.6503 0.7597 0.0045
vn 0.8408 0.5414 0.0000
vn 0.0315 0.2319 0.9722
vn -0.2777 -0.9606 0.0120
vn -0.2776 -0.9606 0.0119
vn -0.2777 -0.9606 0.0119
vn 0.0000 -0.9939 0.1103
vn 0.0000 -0.9936 -0.1130
vn -0.1101 -0.0702 0.9914
vn -0.0000 0.9963 -0.0855
vn 0.0000 0.9963 -0.0855
vn -0.0144 0.9997 -0.0211
vn 0.0000 0.9997 -0.0233
vn 0.0000 0.9976 -0.0698
vn 0.0000 0.8705 -0.4921
vn 0.0000 1.0000 0.0000
vn 0.0000 -0.8958 -0.4444
vn 0.1671 -0.9857 -0.0204
vn 0.3556 -0.9225 -0.1504
vn 0.0387 -0.9911 -0.1271
vn -0.2095 0.9777 -0.0167
vn -0.5523 0.8226 -0.1351
vn -0.1673 0.9856 -0.0231
vn -0.1560 0.9869 -0.0424
vn -0.2652 0.9519 -0.1535
vn -0.3778 0.9244 -0.0526
vn -0.3388 0.9390 0.0588
vn -0.3022 0.9531 -0.0150
vn 0.8009 0.2635 -0.5377
vn 0.1125 0.9855 -0.1267
vn -0.3980 0.4036 -0.8238
vn -0.7898 0.6034 -0.1103
vn -0.7849 0.6196 -0.0005
vn -0.9786 -0.0212 -0.2047
vn -0.9612 0.2563 -0.1017
vn -0.5204 0.8539 -0.0007
vn -0.9705 -0.1608 -0.1796
vn 0.1366 0.9248 -0.3551
vn 0.8163 0.5745 0.0596
vn 0.1457 0.2665 0.9528
vn 0.7877 -0.2926 0.5421
vn 0.4115 0.8166 0.4047
vn -0.6801 -0.1694 0.7132
vn -0.3246 -0.5776 -0.7490
vn -0.4163 -0.8042 -0.4242
vn 0.9488 0.1192 0.2927
vn -0.2606 -0.0392 0.9647
vn -0.8957 -0.2637 -0.3581
vn -0.3101 0.8843 -0.3490
vn -0.3235 -0.5706 -0.7548
vn -0.9132 -0.2727 -0.3028
vn -0.6065 0.5976 -0.5245
vn 0.0286 -0.0062 0.9996
vn -0.8247 0.5514 -0.1259
vn -0.6886 0.6005 0.4065
vn -0.6525 0.7575 -0.0201
vn -0.5636 0.8260 -0.0007
vn -0.0085 0.7289 0.6846
vn 0.6537 0.7561 -0.0325
vn 0.6523 0.7579 -0.0057
vn 0.6503 0.7597 0.0045
vn -0.8408 0.5414 0.0000
vn -0.0315 0.2319 0.9722
vn 0.2777 -0.9606 0.0120
vn 0.2776 -0.9606 0.0119
vn 0.2777 -0.9606 0.0119
vn 0.1101 -0.0702 0.9914
vn 0.0144 0.9997 -0.0211
vn -0.0000 0.9976 -0.0698
vn 0.0000 0.9591 -0.2829
vn -0.0000 0.8705 -0.4921
vn -0.1671 -0.9857 -0.0204
vn -0.3556 -0.9225 -0.1504
vn -0.0387 -0.9911 -0.1271
# 118 vertex normals

vt 0.3648 0.3118 0.0000
vt 0.2091 0.2989 0.0000
vt 0.3642 0.2833 0.0000
vt 0.6516 0.3037 0.0000
vt 0.6073 0.3088 0.0000
vt 0.5313 0.2786 0.0000
vt 0.3835 0.3106 0.0000
vt 0.3839 0.3366 0.0000
vt 0.3652 0.3369 0.0000
vt 0.5318 0.3099 0.0000
vt 0.5322 0.3377 0.0000
vt 0.4169 0.3394 0.0000
vt 0.6297 0.3213 0.0000
vt 0.0936 0.0320 0.0000
vt 0.0949 0.0455 0.0000
vt 0.0788 0.0442 0.0000
vt 0.0622 0.1060 0.0000
vt 0.0885 0.1083 0.0000
vt 0.0488 0.1560 0.0000
vt 0.0835 0.2099 0.0000
vt 0.1712 0.1814 0.0000
vt 0.2066 0.2438 0.0000
vt 0.7098 0.3262 0.0000
vt 0.6988 0.3086 0.0000
vt 0.7067 0.3085 0.0000
vt 0.4553 0.3388 0.0000
vt 0.5320 0.3268 0.0000
vt 0.5364 0.3307 0.0000
vt 0.6888 0.3265 0.0000
vt 0.6679 0.3358 0.0000
vt 0.6837 0.3356 0.0000
vt 0.7088 0.3202 0.0000
vt 0.7061 0.3203 0.0000
vt 0.1209 0.4379 0.0000
vt 0.1493 0.3966 0.0000
vt 0.1257 0.4320 0.0000
vt 0.0704 0.4051 0.0000
vt 0.0344 0.3511 0.0000
vt 0.1319 0.3510 0.0000
vt 0.1417 0.4051 0.0000
vt 0.3098 0.2967 0.0000
vt 0.5261 0.2967 0.0000
vt 0.5261 0.3508 0.0000
vt 0.0344 0.2970 0.0000
vt 0.3098 0.3508 0.0000
vt 0.7424 0.3508 0.0000
vt 0.7424 0.3078 0.0000
vt 0.9588 0.3318 0.0000
vt 7.5000 59.7712 0.0000
vt 7.5000 59.0109 0.0000
vt 7.1212 60.0000 0.0000
vt 6.9891 73.1474 0.0000
vt 7.5000 73.5386 0.0000
vt 7.5000 73.1375 0.0000
vt 7.5000 80.0000 0.0000
vt 27.7164 47.0110 0.0000
vt 22.5000 40.0000 0.0000
vt 15.0000 80.0000 0.0000
vt 22.5000 80.0000 0.0000
vt 30.0000 80.0000 0.0000
vt 70.8224 53.6852 0.0000
vt 76.7304 48.7783 0.0000
vt 70.8224 76.1670 0.0000
vt 66.5044 77.8133 0.0000
vt 23.6075 74.4420 0.0000
vt 16.0402 73.8473 0.0000
vt 17.7673 70.5498 0.0000
vt 20.1935 65.9174 0.0000
vt 23.6075 65.4563 0.0000
vt 47.2150 62.2671 0.0000
vt 63.0683 60.1255 0.0000
vt 85.8968 23.5166 0.0000
vt 94.4299 0.0000 0.0000
vt 3.0000 5.0000 0.0000
vt 3.0000 6.0000 0.0000
vt 4.0000 6.0000 0.0000
vt 4.0000 5.0000 0.0000
vt 7.5000 40.0000 0.0000
vt 6.4328 73.1582 0.0000
vt 7.5000 74.0413 0.0000
vt 0.0000 80.0000 0.0000
vt 5.5829 60.0000 0.0000
vt 5.9673 58.6229 0.0000
vt 5.8053 40.0000 0.0000
vt 5.7829 37.4266 0.0000
vt 7.5000 33.8016 0.0000
vt 0.8684 0.2740 0.0000
vt 0.8515 0.2762 0.0000
vt 0.8521 0.2620 0.0000
vt 0.8889 0.3384 0.0000
vt 0.9055 0.3905 0.0000
vt 0.8612 0.3422 0.0000
vt 0.8980 0.4032 0.0000
vt 0.8714 0.4490 0.0000
vt 0.8709 0.4081 0.0000
vt 0.8653 0.6024 0.0000
vt 0.9664 0.6138 0.0000
vt 0.8992 0.5940 0.0000
vt 0.8426 0.6047 0.0000
vt 0.4042 0.5963 0.0000
vt 0.4038 0.5846 0.0000
vt 0.3519 0.6027 0.0000
vt 0.9058 0.9669 0.0000
vt 0.8047 0.9669 0.0000
vt 0.8047 0.9196 0.0000
vt 0.9550 0.9028 0.0000
vt 0.1685 0.7992 0.0000
vt 0.1454 0.7907 0.0000
vt 0.1454 0.8052 0.0000
vt 0.1627 0.8080 0.0000
vt 0.1714 0.8021 0.0000
vt 0.3759 0.3469 0.0000
vt 0.3652 0.3471 0.0000
vt 0.3653 0.3540 0.0000
vt 0.3761 0.3539 0.0000
vt 0.3813 0.3468 0.0000
vt 0.4170 0.3464 0.0000
vt 0.4171 0.3533 0.0000
vt 0.7125 0.3261 0.0000
vt 0.7096 0.3173 0.0000
vt 0.7322 0.3349 0.0000
vt 25.9481 44.6344 0.0000
vt 25.1082 43.5055 0.0000
vt 26.4123 45.2583 0.0000
vt 0.6791 0.5282 0.0000
vt 0.7525 0.4560 0.0000
vt 0.7554 0.5457 0.0000
vt 0.6714 0.5601 0.0000
vt 0.8323 0.5740 0.0000
vt 0.9321 0.5297 0.0000
vt 0.9330 0.5855 0.0000
vt 0.8875 0.5869 0.0000
vt 0.2614 0.6058 0.0000
vt 0.2394 0.6047 0.0000
vt 0.4034 0.5729 0.0000
vt 0.2994 0.5996 0.0000
# 136 texture coords

g fighter_collision
s off
f 1/1/1 2/2/1 3/3/1 
f 4/4/2 5/5/2 6/6/2 
f 1/7/3 7/8/3 2/9/3 
f 6/10/4 5/11/4 8/12/4 
f 4/4/5 9/13/5 5/5/5 
f 10/14/6 11/15/6 12/16/6 
f 12/17/7 11/18/7 13/19/7 
f 13/20/8 11/21/8 14/22/8 
f 9/23/9 4/24/9 15/25/9 
f 16/26/10 5/11/10 17/27/10 
f 18/28/11 17/27/11 5/11/11 
f 19/29/12 20/30/12 9/31/12 
f 9/23/13 21/32/13 19/33/13 
f 22/34/14 23/35/14 15/36/14 
f 24/37/15 25/38/15 23/39/15 22/40/15 
f 26/41/16 27/42/16 28/43/16 
f 28/39/17 25/38/17 29/44/17 
f 29/44/18 26/41/18 28/45/18 
f 28/46/19 27/47/19 15/48/19 
f 30/49/20 31/50/20 32/51/20 
f 32/52/21 22/53/21 33/54/21 
f 34/55/22 35/55/22 24/55/22 
f 36/56/23 37/56/23 38/57/23 
f 38/57/24 37/56/24 39/56/24 
f 24/58/25 40/58/25 41/59/25 29/59/25 
f 29/60/26 41/60/26 42/60/26 
f 35/58/27 42/58/27 43/55/27 
f 35/55/28 43/55/28 40/55/28 24/55/28 
f 44/61/29 45/61/29 46/62/29 
f 47/63/30 48/64/30 49/64/30 14/63/30 
f 48/65/31 50/66/31 12/66/31 49/65/31 
f 50/67/32 51/68/32 12/68/32 
f 51/69/33 45/70/33 12/70/33 
f 45/71/34 44/61/34 52/61/34 12/71/34 
f 46/72/35 47/73/35 14/73/35 53/72/35 
f 53/61/36 44/61/36 46/62/36 
f 54/74/37 55/75/37 56/76/37 57/77/37 
f 58/50/38 31/50/38 59/78/38 60/78/38 
f 61/51/39 32/51/39 31/50/39 58/50/39 
f 62/79/40 22/79/40 32/51/40 61/51/40 
f 24/55/41 22/80/41 62/80/41 
f 2/81/42 34/81/42 24/81/42 
f 63/82/43 64/83/43 34/81/43 2/81/43 
f 65/84/44 66/84/44 64/83/44 63/82/44 
f 8/85/45 66/84/45 65/84/45 
f 60/78/46 59/78/46 6/86/46 
f 67/55/47 35/55/47 34/55/47 
f 50/87/48 45/88/48 51/89/48 
f 50/90/49 48/91/49 45/92/49 
f 48/93/50 47/94/50 45/95/50 
f 42/96/51 35/97/51 68/98/51 69/99/51 
f 70/100/52 71/101/52 72/102/52 
f 40/103/53 43/104/53 73/105/53 41/106/53 
f 74/107/54 18/108/54 5/109/54 9/110/54 
f 74/107/55 9/110/55 20/111/55 
f 75/112/56 67/113/56 34/114/56 8/115/56 
f 75/112/57 8/115/57 76/116/57 
f 76/117/58 8/118/58 5/11/58 16/26/58 
f 21/32/59 9/23/59 15/119/59 77/120/59 
f 77/120/60 15/119/60 78/121/60 
f 79/122/61 71/57/61 70/57/61 37/123/61 
f 79/122/61 37/123/61 80/124/61 
f 79/125/62 70/126/62 29/127/62 81/128/62 
f 81/129/63 29/130/63 42/131/63 69/132/63 
f 82/133/64 15/134/64 70/135/64 72/136/64 
f 83/2/65 84/1/65 85/3/65 
f 86/5/66 87/4/66 88/6/66 
f 89/8/67 84/7/67 83/9/67 
f 86/11/68 88/10/68 90/12/68 
f 91/13/69 87/4/69 86/5/69 
f 92/15/70 93/14/70 94/16/70 
f 92/18/71 94/17/71 95/19/71 
f 92/21/72 95/20/72 96/22/72 
f 87/24/73 91/23/73 97/25/73 
f 86/11/74 16/26/74 17/27/74 
f 17/27/11 18/28/11 86/11/11 
f 20/30/12 19/29/12 91/31/12 
f 21/32/75 91/23/75 19/33/75 
f 98/35/76 99/34/76 97/36/76 
f 98/39/77 100/38/77 101/37/77 99/40/77 
f 102/42/78 103/41/78 104/43/78 
f 100/38/79 104/39/79 105/44/79 
f 103/41/80 105/44/80 104/45/80 
f 102/47/81 104/46/81 97/48/81 
f 106/50/82 107/49/82 108/51/82 
f 99/53/83 108/52/83 109/54/83 
f 35/55/84 110/55/84 101/55/84 
f 111/56/24 112/56/24 113/57/24 
f 111/56/23 113/57/23 114/56/23 
f 115/59/85 116/58/85 101/58/85 105/59/85 
f 115/60/86 105/60/86 117/60/86 
f 117/58/87 35/58/87 118/55/87 
f 116/55/88 118/55/88 35/55/88 101/55/88 
f 119/61/89 120/61/89 121/62/89 
f 122/64/90 123/64/90 124/63/90 96/63/90 
f 94/66/91 125/66/91 123/65/91 122/65/91 
f 126/68/92 125/67/92 94/68/92 
f 119/70/93 126/69/93 94/70/93 
f 127/61/94 120/61/94 119/71/94 94/71/94 
f 96/73/95 124/73/95 121/72/95 128/72/95 
f 120/61/96 128/61/96 121/62/96 
f 129/76/97 130/75/97 131/74/97 132/77/97 
f 133/78/98 106/50/98 134/50/98 135/78/98 
f 106/50/99 108/51/99 136/51/99 134/50/99 
f 108/51/100 99/79/100 137/79/100 136/51/100 
f 99/80/101 101/55/101 137/80/101 
f 110/81/102 83/81/102 101/81/102 
f 110/81/103 138/83/103 139/82/103 83/81/103 
f 138/83/104 140/84/104 141/84/104 139/82/104 
f 140/84/105 90/85/105 141/84/105 
f 133/78/106 135/78/106 88/86/106 
f 35/55/107 67/55/107 110/55/107 
f 119/88/108 125/87/108 126/89/108 
f 123/91/109 125/90/109 119/92/109 
f 124/94/110 123/93/110 119/95/110 
f 68/98/51 35/97/51 117/96/51 69/99/51 
f 71/101/52 142/100/52 72/102/52 
f 143/105/111 118/104/111 116/103/111 115/106/111 
f 86/109/55 18/108/55 74/107/55 91/110/55 
f 91/110/55 74/107/55 20/111/55 
f 110/114/112 67/113/112 75/112/112 90/115/112 
f 90/115/57 75/112/57 76/116/57 
f 86/11/113 90/118/113 76/117/113 16/26/113 
f 77/120/114 78/121/114 97/119/114 21/32/114 
f 21/32/115 97/119/115 91/23/115 
f 142/57/61 71/57/61 79/122/61 111/123/61 
f 111/123/61 79/122/61 80/124/61 
f 105/127/116 142/126/116 79/125/116 81/128/116 
f 117/131/117 105/130/117 81/129/117 69/132/117 
f 142/135/118 97/134/118 82/133/118 72/136/118 
# 46 polygons - 84 triangles

