# OBJ written from C:\Users\rivalin\Creative\Personal Work\Paragon\Paragon\PARAGON1\data\models\ships\(1)Light\(1A)military_combat_corvette\military_combat_corvette_collision.obj

o Mesh (2)
v 4.63717 -4.19652 10.1559
v 4.63717 3.94652 10.1559
v -4.63717 3.94652 10.1559
v -4.63717 -4.19652 10.1559
v 1.00918 -0.5 -18.0941
v 1.00918 0.25 -18.0941
v -1.00918 -0.5 -18.0941
v -1.00918 0.25 -18.0941
v -9.33396 -1.84813 10.1559
v 9.33396 -1.84813 10.1559
v -9.33396 1.59812 10.1559
v 9.33396 1.59812 10.1559
v 4.63717 -4.19652 12.8959
v 4.63717 3.94652 12.8959
v -4.63717 3.94652 12.8959
v -4.63717 -4.19652 12.8959
v -9.33396 -1.84813 12.8959
v 9.33396 -1.84813 12.8959
v -9.33396 1.59812 12.8959
v 9.33396 1.59812 12.8959
v 4.40676 -3.22052 15.7759
v 4.40676 2.97052 15.7759
v -4.40676 2.97052 15.7759
v -4.40676 -3.22052 15.7759
v -8.35796 -1.24492 15.7759
v 8.35796 -1.24492 15.7759
v -8.35796 0.994924 15.7759
v 8.35796 0.994924 15.7759
vn 0.440559 0.881117 -0.171873
vn 0.440559 -0.881117 -0.171873
vn 0.959219 0 -0.282665
vn -0.440559 0.881117 -0.171873
vn -0.440559 -0.881117 -0.171873
vn -0.959219 0 -0.282665
vn 0 0 -1
vn 0 -0.991547 -0.129744
vn 0 0.991547 -0.129744
vn 1 0 0
vn 0.447214 0.894427 0
vn 0 1 0
vn -0.447214 0.894427 0
vn -1 0 0
vn -0.447214 -0.894427 0
vn 0 -1 0
vn 0.447214 -0.894427 0
vn -0.947093 0 0.320959
vn -0.423553 -0.847106 0.320959
vn 0 -0.947093 0.320959
vn 0.423553 -0.847106 0.320959
vn 0.947093 0 0.320959
vn 0.423553 0.847106 0.320959
vn 0 0.947093 0.320959
vn -0.423553 0.847106 0.320959
vn 0 0 1
vt 0.476192 0.588054
vt 0.476192 0.538862
vt 0.526177 0.588054
vt 0.476192 0.661548
vt 0.476192 0.612356
vt 0.526177 0.612356
vt 0.367474 0.538862
vt 0.367474 0.588054
vt 0.317492 0.588054
vt 0.367474 0.612356
vt 0.367474 0.661548
vt 0.317492 0.612356
vt 0.305429 0.617409
vt 0.305429 0.583001
vt 0.362533 0.673611
vt 0.481133 0.673611
vt 0.53824 0.617409
vt 0.53824 0.583
vt 0.481133 0.5268
vt 0.362533 0.5268
mtllib military_combat_corvette_collision.mtl
usemtl hull
g Default
f 6/1/1 2/2/1 12/3/1
f 1/4/2 5/5/2 10/6/2
f 5/5/3 6/1/3 12/3/3 10/6/3
f 3/7/4 8/8/4 11/9/4
f 7/10/5 4/11/5 9/12/5
f 9/12/6 11/9/6 8/8/6 7/10/6
f 7/10/7 8/8/7 6/1/7 5/5/7
f 4/11/8 7/10/8 5/5/8 1/4/8
f 2/2/9 6/1/9 8/8/9 3/7/9
f 10/6/10 12/3/10 20/3/10 18/6/10
f 12/3/11 2/2/11 14/2/11 20/3/11
f 2/2/12 3/7/12 15/7/12 14/2/12
f 3/7/13 11/9/13 19/9/13 15/7/13
f 11/9/14 9/12/14 17/12/14 19/9/14
f 9/12/15 4/11/15 16/11/15 17/12/15
f 4/11/16 1/4/16 13/4/16 16/11/16
f 1/4/17 10/6/17 18/6/17 13/4/17
f 19/9/18 17/12/18 25/13/18 27/14/18
f 17/12/19 16/11/19 24/15/19 25/13/19
f 16/11/20 13/4/20 21/16/20 24/15/20
f 13/4/21 18/6/21 26/17/21 21/16/21
f 18/6/22 20/3/22 28/18/22 26/17/22
f 20/3/23 14/2/23 22/19/23 28/18/23
f 14/2/24 15/7/24 23/20/24 22/19/24
f 15/7/25 19/9/25 27/14/25 23/20/25
f 26/17/26 28/18/26 22/19/26 23/20/26 27/14/26 25/13/26 24/15/26 21/16/26
