o pit_glo
v -2.686795 2.619494 3.767402
v -2.582931 2.679487 3.778735
v -2.626829 2.723414 3.778760
v -2.686795 2.739491 3.778769
v -2.746761 2.723414 3.778760
v -2.790658 2.679487 3.778735
v -2.806727 2.619481 3.778701
v -2.790658 2.559474 3.778667
v -2.746761 2.515549 3.778641
v -2.686795 2.499470 3.778633
v -2.626829 2.515549 3.778641
v -2.582931 2.559474 3.778667
v -2.566863 2.619481 3.778701
v -2.403033 2.783323 3.864619
v -2.299169 2.843162 4.013306
v -2.522965 2.903334 3.864687
v -2.462999 3.007101 4.013399
v -2.686795 2.947262 3.864713
v -2.686795 3.067106 4.013433
v -2.850625 2.903334 3.864687
v -2.910590 3.007101 4.013399
v -2.970556 2.783323 3.864619
v -3.074420 2.843163 4.013306
v -3.014455 2.619385 3.864525
v -3.134386 2.619220 4.013178
v -2.970556 2.455449 3.864432
v -3.074420 2.395277 4.013051
v -2.850625 2.335436 3.864364
v -2.910590 2.231340 4.012958
v -2.686795 2.291509 3.864338
v -2.686795 2.171333 4.012923
v -2.522965 2.335436 3.864364
v -2.462999 2.231340 4.012958
v -2.403033 2.455449 3.864432
v -2.299169 2.395276 4.013051
v -2.359135 2.619385 3.864525
v -2.239203 2.619220 4.013178
v 2.686798 2.619494 3.767402
v 2.582934 2.679487 3.778735
v 2.626833 2.723414 3.778760
v 2.686798 2.739491 3.778770
v 2.746764 2.723414 3.778760
v 2.790662 2.679487 3.778735
v 2.806730 2.619481 3.778701
v 2.790662 2.559474 3.778667
v 2.746764 2.515549 3.778642
v 2.686798 2.499470 3.778633
v 2.626833 2.515549 3.778642
v 2.582934 2.559474 3.778667
v 2.566867 2.619481 3.778701
v 2.403037 2.783323 3.864619
v 2.299173 2.843162 4.013306
v 2.522969 2.903334 3.864687
v 2.463003 3.007101 4.013400
v 2.686798 2.947262 3.864713
v 2.686798 3.067106 4.013434
v 2.850627 2.903334 3.864687
v 2.910594 3.007101 4.013400
v 2.970559 2.783323 3.864619
v 3.074424 2.843163 4.013306
v 3.014458 2.619385 3.864526
v 3.134389 2.619220 4.013178
v 2.970560 2.455449 3.864432
v 3.074424 2.395277 4.013052
v 2.850627 2.335436 3.864364
v 2.910594 2.231340 4.012958
v 2.686798 2.291509 3.864338
v 2.686798 2.171333 4.012924
v 2.522969 2.335436 3.864364
v 2.463003 2.231340 4.012958
v 2.403037 2.455449 3.864432
v 2.359139 2.619385 3.864526
v 2.299173 2.395276 4.013052
v 2.239207 2.619220 4.013178
v -4.266440 1.777641 4.006594
v -4.424973 1.766167 4.006594
v -4.403734 1.766167 3.930962
v -4.345707 1.766167 3.875595
v -4.266439 1.766167 3.855329
v -4.187174 1.766167 3.875595
v -4.129147 1.766167 3.930962
v -4.107907 1.766167 4.006594
v -4.699560 1.679010 4.006594
v -4.641533 1.679010 3.799963
v -4.483000 1.679010 3.648698
v -4.266439 1.679010 3.593333
v -4.049880 1.679010 3.648698
v -3.972481 1.528892 3.518622
v -3.891348 1.679010 3.799963
v -3.756550 1.528892 3.724653
v -3.833321 1.679010 4.006594
v -3.677515 1.528892 4.006094
v -4.857380 1.528892 4.006094
v -4.778345 1.528892 3.724653
v -4.562413 1.528892 3.518622
v -4.267447 1.528892 3.443210
v -4.857380 0.350078 4.006094
v -4.778345 0.350078 3.724653
v -4.562413 0.350078 3.518622
v -4.267447 0.350078 3.443210
v -3.972481 0.350078 3.518622
v -3.756550 0.350078 3.724653
v -3.677515 0.350078 4.006094
v 4.266442 1.777641 4.006594
v 4.424976 1.766167 4.006594
v 4.403737 1.766167 3.930962
v 4.345710 1.766167 3.875596
v 4.266442 1.766167 3.855330
v 4.187178 1.766167 3.875596
v 4.129150 1.766167 3.930962
v 4.107911 1.766167 4.006594
v 4.699564 1.679010 4.006594
v 4.641536 1.679010 3.799964
v 4.778348 1.528892 3.724653
v 4.483004 1.679010 3.648699
v 4.266442 1.679010 3.593334
v 4.267450 1.528892 3.443210
v 4.049883 1.679010 3.648699
v 3.972484 1.528892 3.518623
v 3.891351 1.679010 3.799964
v 3.833323 1.679010 4.006594
v 4.857384 1.528892 4.006094
v 4.562416 1.528892 3.518623
v 3.756553 1.528892 3.724653
v 3.677517 1.528892 4.006094
v 4.857384 0.350078 4.006094
v 4.778348 0.350078 3.724653
v 4.562416 0.350078 3.518623
v 4.267450 0.350078 3.443210
v 3.972484 0.350078 3.518623
v 3.756553 0.350078 3.724653
v 3.677517 0.350078 4.006094
v 0.512270 2.476543 3.998647
v 0.323452 2.644107 3.998647
v -0.001978 2.642357 3.998647
v -0.327407 0.588601 3.998647
v 0.323452 0.588601 3.998648
v 0.561683 0.777072 3.998648
v -0.355913 0.535702 3.841930
v -0.412924 0.429902 3.841930
v -0.441429 0.377002 3.998647
v -0.565639 0.777072 3.998647
v -0.615012 0.746531 3.841930
v -0.713757 0.685447 3.841930
v -0.763130 0.654906 3.998647
v -0.652837 1.177235 3.998647
v -0.709848 1.177235 3.841930
v -0.823870 1.177235 3.841930
v -0.880881 1.177235 3.998647
v -0.516226 2.476543 3.998647
v -0.561271 2.503697 3.841930
v -0.651360 2.558005 3.841930
v -0.696405 2.585158 3.998647
v -0.327407 2.644107 3.998647
v -0.355913 2.691138 3.841930
v -0.412924 2.785201 3.841930
v -0.441429 2.832232 3.998647
v -0.001978 2.696664 3.841930
v -0.001978 2.779834 3.841930
v -0.001978 2.834141 3.998647
v 0.351957 2.691138 3.841929
v 0.408968 2.785200 3.841930
v 0.437474 2.832232 3.998647
v 0.557315 2.503697 3.841930
v 0.647405 2.558005 3.841929
v 0.692449 2.585158 3.998647
v 0.657785 1.177235 3.998648
v 0.714796 1.177235 3.841930
v 0.828818 1.177235 3.841930
v 0.885829 1.177235 3.998648
v 0.611056 0.746531 3.841930
v 0.709801 0.685447 3.841930
v 0.759175 0.654906 3.998648
v -0.001978 0.590570 3.998648
v 0.344970 0.535702 3.841930
v -0.001978 0.529486 3.841930
v 0.408968 0.429902 3.841930
v -0.001978 0.435939 3.841930
v 0.437474 0.377002 3.998648
v -0.001978 0.374855 3.998648
vt 0.000000 0.000000
vt 1.000000 0.000000
vt 1.000000 1.000000
vt 0.000000 1.000000
vn 0.252113 0.000549 -0.967681
vn 0.000000 0.000549 -0.999969
vn 0.126072 0.218787 -0.967559
vn 0.238685 0.138249 -0.961180
vn -0.126072 0.218787 -0.967559
vn 0.000000 0.276040 -0.961119
vn -0.252113 0.000549 -0.967681
vn -0.238685 0.138249 -0.961180
vn -0.126041 -0.217627 -0.967834
vn -0.238655 -0.137120 -0.961364
vn 0.126041 -0.217627 -0.967834
vn 0.000000 -0.274850 -0.961455
vn 0.238655 -0.137120 -0.961364
vn 0.539506 0.311747 -0.782098
vn 0.622852 0.000458 -0.782311
vn 0.311563 0.539781 -0.782006
vn 0.000000 0.623280 -0.781976
vn -0.311563 0.539781 -0.782006
vn -0.539506 0.311747 -0.782098
vn -0.622852 0.000458 -0.782311
vn -0.539384 -0.310739 -0.782586
vn -0.311441 -0.538621 -0.782861
vn 0.000000 -0.622059 -0.782952
vn 0.311441 -0.538621 -0.782861
vn 0.539384 -0.310739 -0.782586
vn 0.674154 0.389355 -0.627613
vn 0.778283 0.000366 -0.627888
vn 0.389325 0.674276 -0.627491
vn 0.000000 0.778619 -0.627461
vn -0.389325 0.674276 -0.627491
vn -0.674154 0.389355 -0.627613
vn -0.778283 0.000366 -0.627888
vn -0.673971 -0.388501 -0.628315
vn -0.389141 -0.673238 -0.628681
vn 0.000000 -0.777490 -0.628834
vn 0.389141 -0.673238 -0.628681
vn 0.673971 -0.388501 -0.628315
vn 0.674123 0.389355 -0.627613
vn -0.484787 0.000000 -0.874630
vn -0.451857 0.364147 -0.814356
vn 0.000092 0.362743 -0.931852
vn 0.000000 0.000000 -1.000000
vn 0.451735 0.365459 -0.813837
vn 0.484787 0.000000 -0.874630
vn 0.857021 0.000000 -0.515244
vn 0.796472 0.369976 -0.478225
vn 0.888272 0.385662 -0.249428
vn 0.962737 0.000000 -0.270363
vn -0.889431 0.382702 -0.249763
vn -0.504776 0.851527 -0.141728
vn -0.463973 0.840327 -0.280190
vn -0.797174 0.367779 -0.478744
vn -0.000244 0.834468 -0.551012
vn 0.263924 0.837184 -0.478957
vn 0.461562 0.842036 -0.279061
vn 0.502121 0.853206 -0.140996
vn 0.797174 0.367779 -0.478744
vn 0.889431 0.382702 -0.249763
vn 0.451857 0.364147 -0.814356
vn -0.000061 0.362743 -0.931852
vn 0.000244 0.834468 -0.551012
vn 0.265023 0.836207 -0.480087
vn -0.451735 0.365459 -0.813837
vn -0.263924 0.837184 -0.478957
vn -0.796472 0.369976 -0.478195
vn -0.461562 0.842036 -0.279031
vn -0.888272 0.385662 -0.249428
vn -0.502121 0.853206 -0.140996
vn -0.183386 0.981079 -0.061708
vn 0.000000 0.998474 -0.054781
vn -0.098697 0.978759 -0.179632
vn -0.187872 0.975524 -0.114048
vn 0.098697 0.978759 -0.179632
vn 0.000000 0.974212 -0.225593
vn 0.183386 0.981079 -0.061708
vn 0.187872 0.975524 -0.114048
vn 0.463973 0.840327 -0.280190
vn 0.504776 0.851527 -0.141728
vn -0.857021 0.000000 -0.515244
vn -0.962737 0.000000 -0.270363
vn -0.265023 0.836207 -0.480087
vn -0.221351 0.625629 -0.748039
vn -0.310984 0.882473 -0.352855
vn -0.789850 0.504898 -0.348064
vn -0.560991 0.358837 -0.745964
vn -0.942595 0.056642 -0.328990
vn -0.638661 0.037751 -0.768517
vn -0.600971 -0.310068 -0.736656
vn -0.837184 -0.431898 -0.335490
vn -0.340129 -0.880001 -0.331462
vn -0.244087 -0.632984 -0.734642
vn 0.000000 -0.951353 -0.308054
vn 0.000000 -0.588610 -0.808405
vn 0.340129 -0.880001 -0.331462
vn 0.244087 -0.632984 -0.734642
vn 0.221442 0.623035 -0.750175
vn 0.312449 0.879299 -0.359355
vn -0.000031 0.939634 -0.342174
vn 0.000000 0.574206 -0.818690
vn -0.228706 -0.622974 -0.748039
vn 0.000000 -0.573779 -0.818964
vn -0.321360 -0.875149 -0.361644
vn 0.000000 -0.939909 -0.341411
vn 0.564928 0.349071 -0.747642
vn 0.794916 0.492172 -0.354717
vn -0.567400 -0.340251 -0.749809
vn -0.801935 -0.481857 -0.353069
vn 0.635517 0.033296 -0.771325
vn 0.943327 0.050264 -0.328013
vn -0.638722 -0.029023 -0.768853
vn -0.943266 -0.043733 -0.329051
vn 0.602374 -0.308206 -0.736290
vn 0.838557 -0.429029 -0.335734
vn -0.601642 0.302866 -0.739097
vn -0.842097 0.423811 -0.333476
vn -0.251900 0.632130 -0.732749
vn -0.349773 0.875362 -0.333689
vn 0.000000 0.588275 -0.808649
vn 0.000000 0.951598 -0.307291
vn 0.251900 0.632130 -0.732749
vn 0.349773 0.875362 -0.333689
vn 0.600299 0.304575 -0.739464
vn 0.840815 0.426496 -0.333262
vn 0.641346 -0.032411 -0.766533
vn 0.942747 -0.048585 -0.329905
vn 0.563524 -0.344371 -0.750847
vn 0.798120 -0.488693 -0.352367
vn 0.228706 -0.622974 -0.748039
vn 0.321360 -0.875149 -0.361644
s 1
f 13/1/1 1/2/2 3/3/3 2/4/4
f 3/1/3 1/2/2 5/3/5 4/4/6
f 5/1/5 1/2/2 7/3/7 6/4/8
f 7/1/7 1/2/2 9/3/9 8/4/10
f 9/1/9 1/2/2 11/3/11 10/4/12
f 11/1/11 1/2/2 13/3/1 12/4/13
f 14/1/14 36/2/15 13/3/1 2/4/4
f 16/1/16 14/2/14 2/3/4 3/4/3
f 18/1/17 16/2/16 3/3/3 4/4/6
f 20/1/18 18/2/17 4/3/6 5/4/5
f 22/1/19 20/2/18 5/3/5 6/4/8
f 24/1/20 22/2/19 6/3/8 7/4/7
f 26/1/21 24/2/20 7/3/7 8/4/10
f 28/1/22 26/2/21 8/3/10 9/4/9
f 30/1/23 28/2/22 9/3/9 10/4/12
f 32/1/24 30/2/23 10/3/12 11/4/11
f 34/1/25 32/2/24 11/3/11 12/4/13
f 36/1/15 34/2/25 12/3/13 13/4/1
f 15/1/26 37/2/27 36/3/15 14/4/14
f 17/1/28 15/2/26 14/3/14 16/4/16
f 19/1/29 17/2/28 16/3/16 18/4/17
f 21/1/30 19/2/29 18/3/17 20/4/18
f 23/1/31 21/2/30 20/3/18 22/4/19
f 25/1/32 23/2/31 22/3/19 24/4/20
f 27/1/33 25/2/32 24/3/20 26/4/21
f 29/1/34 27/2/33 26/3/21 28/4/22
f 31/1/35 29/2/34 28/3/22 30/4/23
f 33/1/36 31/2/35 30/3/23 32/4/24
f 35/1/37 33/2/36 32/3/24 34/4/25
f 37/1/27 35/2/37 34/3/25 36/4/15
f 40/1/5 38/2/2 50/3/7 39/4/8
f 42/1/3 38/2/2 40/3/5 41/4/6
f 44/1/1 38/2/2 42/3/3 43/4/4
f 46/1/11 38/2/2 44/3/1 45/4/13
f 48/1/9 38/2/2 46/3/11 47/4/12
f 50/1/7 38/2/2 48/3/9 49/4/10
f 51/1/19 39/2/8 50/3/7 72/4/20
f 53/1/18 40/2/5 39/3/8 51/4/19
f 55/1/17 41/2/6 40/3/5 53/4/18
f 57/1/16 42/2/3 41/3/6 55/4/17
f 59/1/14 43/2/4 42/3/3 57/4/16
f 61/1/15 44/2/1 43/3/4 59/4/14
f 63/1/25 45/2/13 44/3/1 61/4/15
f 65/1/24 46/2/11 45/3/13 63/4/25
f 67/1/23 47/2/12 46/3/11 65/4/24
f 69/1/22 48/2/9 47/3/12 67/4/23
f 71/1/21 49/2/10 48/3/9 69/4/22
f 72/1/20 50/2/7 49/3/10 71/4/21
f 52/1/31 51/2/19 72/3/20 74/4/32
f 54/1/30 53/2/18 51/3/19 52/4/31
f 56/1/29 55/2/17 53/3/18 54/4/30
f 58/1/28 57/2/16 55/3/17 56/4/29
f 60/1/38 59/2/14 57/3/16 58/4/28
f 62/1/27 61/2/15 59/3/14 60/4/38
f 64/1/37 63/2/25 61/3/15 62/4/27
f 66/1/36 65/2/24 63/3/25 64/4/37
f 68/1/35 67/2/23 65/3/24 66/4/36
f 70/1/34 69/2/22 67/3/23 68/4/35
f 73/1/33 71/2/21 69/3/22 70/4/34
f 74/1/32 72/2/20 71/3/21 73/4/33
f 130/1/39 119/2/40 117/3/41 129/4/42
f 129/1/42 117/2/41 123/3/43 128/4/44
f 127/1/45 114/2/46 122/3/47 126/4/48
f 125/1/49 121/2/50 120/3/51 124/4/52
f 117/1/41 116/2/53 115/3/54 123/4/43
f 114/1/46 113/2/55 112/3/56 122/4/47
f 103/1/48 102/2/45 90/3/57 92/4/58
f 102/1/45 101/2/44 88/3/59 90/4/57
f 101/1/44 100/2/42 96/3/60 88/4/59
f 88/1/59 96/2/60 86/3/61 87/4/62
f 96/1/60 95/2/63 85/3/64 86/4/61
f 95/1/63 94/2/65 84/3/66 85/4/64
f 94/1/65 93/2/67 83/3/68 84/4/66
f 76/1/69 75/2/70 78/3/71 77/4/72
f 78/1/71 75/2/70 80/3/73 79/4/74
f 80/1/73 75/2/70 82/3/75 81/4/76
f 84/1/66 83/2/68 76/3/69 77/4/72
f 85/1/64 84/2/66 77/3/72 78/4/71
f 86/1/61 85/2/64 78/3/71 79/4/74
f 87/1/62 86/2/61 79/3/74 80/4/73
f 89/1/77 87/2/62 80/3/73 81/4/76
f 91/1/78 89/2/77 81/3/76 82/4/75
f 90/1/57 88/2/59 87/3/62 89/4/77
f 92/1/58 90/2/57 89/3/77 91/4/78
f 98/1/79 97/2/80 93/3/67 94/4/65
f 99/1/39 98/2/79 94/3/65 95/4/63
f 100/1/42 99/2/39 95/3/63 96/4/60
f 107/1/73 104/2/70 105/3/75 106/4/76
f 109/1/71 104/2/70 107/3/73 108/4/74
f 111/1/69 104/2/70 109/3/71 110/4/72
f 113/1/55 106/2/76 105/3/75 112/4/56
f 115/1/54 107/2/73 106/3/76 113/4/55
f 116/1/53 108/2/74 107/3/73 115/4/54
f 118/1/81 109/2/71 108/3/74 116/4/53
f 120/1/51 110/2/72 109/3/71 118/4/81
f 121/1/50 111/2/69 110/3/72 120/4/51
f 123/1/43 115/2/54 113/3/55 114/4/46
f 119/1/40 118/2/81 116/3/53 117/4/41
f 124/1/52 120/2/51 118/3/81 119/4/40
f 128/1/44 123/2/43 114/3/46 127/4/45
f 131/1/79 124/2/52 119/3/40 130/4/39
f 132/1/80 125/2/49 124/3/52 131/4/79
f 175/1/82 137/2/83 138/3/84 171/4/85
f 171/1/85 138/2/84 167/3/86 168/4/87
f 164/1/88 133/2/89 134/3/90 161/4/91
f 161/1/91 134/2/90 135/3/92 158/4/93
f 158/1/93 135/2/92 154/3/94 155/4/95
f 139/1/96 136/2/97 174/3/98 176/4/99
f 140/1/100 139/2/96 176/3/99 178/4/101
f 141/1/102 140/2/100 178/3/101 180/4/103
f 143/1/104 142/2/105 136/3/97 139/4/96
f 144/1/106 143/2/104 139/3/96 140/4/100
f 145/1/107 144/2/106 140/3/100 141/4/102
f 147/1/108 146/2/109 142/3/105 143/4/104
f 148/1/110 147/2/108 143/3/104 144/4/106
f 149/1/111 148/2/110 144/3/106 145/4/107
f 151/1/112 150/2/113 146/3/109 147/4/108
f 152/1/114 151/2/112 147/3/108 148/4/110
f 153/1/115 152/2/114 148/3/110 149/4/111
f 155/1/95 154/2/94 150/3/113 151/4/112
f 156/1/116 155/2/95 151/3/112 152/4/114
f 157/1/117 156/2/116 152/3/114 153/4/115
f 159/1/118 158/2/93 155/3/95 156/4/116
f 160/1/119 159/2/118 156/3/116 157/4/117
f 162/1/120 161/2/91 158/3/93 159/4/118
f 163/1/121 162/2/120 159/3/118 160/4/119
f 165/1/122 164/2/88 161/3/91 162/4/120
f 166/1/123 165/2/122 162/3/120 163/4/121
f 133/1/89 164/2/88 168/3/87 167/4/86
f 169/1/124 168/2/87 164/3/88 165/4/122
f 170/1/125 169/2/124 165/3/122 166/4/123
f 172/1/126 171/2/85 168/3/87 169/4/124
f 173/1/127 172/2/126 169/3/124 170/4/125
f 177/1/128 175/2/82 171/3/85 172/4/126
f 179/1/129 177/2/128 172/3/126 173/4/127
f 176/1/99 174/2/98 137/3/83 175/4/82
f 178/1/101 176/2/99 175/3/82 177/4/128
f 180/1/103 178/2/101 177/3/128 179/4/129
