o gun2_1
v 4.430065 0.200089 -18.799999
v 3.569963 -0.199937 -19.500000
v 3.800000 0.429596 -18.799999
v 3.800000 0.429596 -19.500000
v 3.569963 -0.199937 -18.799999
v 4.430058 -0.199970 -18.799999
v 3.799945 -0.429972 -18.799999
v 4.200028 -0.429978 -18.799999
v 3.740049 -0.114961 -19.700001
v 4.114964 -0.259985 -19.700001
v 3.799945 -0.429972 -19.500000
v 4.260061 0.115002 -19.700001
v 4.114995 0.260068 -19.700001
v 3.885011 0.259975 -19.700001
v 3.570015 0.200024 -18.799999
v 4.200245 0.429999 -19.500000
v 4.200245 0.429999 -18.799999
v 3.740016 0.114989 -19.700001
v 4.430065 0.200089 -19.500000
v 4.430058 -0.199970 -19.500000
v 4.200028 -0.429978 -19.500000
v 4.260025 -0.114969 -19.700001
v 3.570015 0.200024 -19.500000
v 3.885024 -0.259836 -19.700001
v -3.884983 -0.259836 -19.700001
v -3.569974 0.200024 -19.500000
v -4.259984 -0.114969 -19.700001
v -4.199987 -0.429978 -19.500000
v -4.430017 -0.199970 -19.500000
v -4.430024 0.200089 -19.500000
v -3.739975 0.114989 -19.700001
v -4.200204 0.429999 -18.799999
v -4.200204 0.429999 -19.500000
v -3.569974 0.200024 -18.799999
v -3.884970 0.259975 -19.700001
v -4.114954 0.260068 -19.700001
v -4.260020 0.115002 -19.700001
v -3.799904 -0.429972 -19.500000
v -4.114923 -0.259985 -19.700001
v -3.740008 -0.114961 -19.700001
v -4.199987 -0.429978 -18.799999
v -3.799904 -0.429972 -18.799999
v -4.430017 -0.199970 -18.799999
v -3.569921 -0.199937 -18.799999
v -3.799959 0.429596 -19.500000
v -3.799959 0.429596 -18.799999
v -3.569921 -0.199937 -19.500000
v -4.430024 0.200089 -18.799999
vt -1.131889 0.419354
vt -0.795884 0.419354
vt -0.795884 0.567765
vt -1.131889 0.567765
vt -0.795884 0.654814
vt -1.131889 0.654814
vt -1.131889 0.606746
vt -0.795884 0.606746
vt -0.795884 0.435699
vt -1.131889 0.435699
vt -0.795884 0.200011
vt -1.131889 0.200011
vt -1.131889 0.287198
vt -0.795884 0.287198
vt -1.131889 0.248254
vt -0.795884 0.248254
vt -0.699883 0.513665
vt -0.699883 0.420009
vt -0.699883 0.533331
vt -0.699883 0.563743
vt -0.699883 0.434977
vt -0.699883 0.341423
vt -0.699883 0.291251
vt -0.699883 0.321662
vn 0.923917 0.382580 0.000000
vn 0.864528 0.360210 -0.350414
vn 0.360027 0.864650 -0.350291
vn 0.382305 0.924009 0.000000
vn -0.360393 0.864559 -0.350139
vn -0.382733 0.923856 0.000000
vn -0.923673 0.383129 0.000000
vn -0.864406 0.360637 -0.350322
vn -0.864498 -0.360240 -0.350444
vn -0.923917 -0.382550 0.000000
vn 0.360210 -0.864528 -0.350444
vn 0.382641 -0.923887 0.000000
vn -0.382733 -0.923826 0.000000
vn -0.360363 -0.864467 -0.350383
vn 0.923856 -0.382702 0.000000
vn 0.864498 -0.360332 -0.350383
vn 0.273904 0.672262 -0.687735
vn 0.672018 0.274087 -0.687918
vn -0.671987 0.274483 -0.687765
vn -0.274422 0.672445 -0.687338
vn -0.671957 -0.274148 -0.687948
vn -0.274209 -0.671926 -0.687948
vn 0.274087 -0.672018 -0.687918
vn 0.672018 -0.274239 -0.687857
vn 0.864406 0.360637 -0.350322
vn 0.360393 0.864559 -0.350139
vn 0.382733 0.923856 0.000000
vn 0.923673 0.383129 0.000000
vn 0.274422 0.672445 -0.687338
vn -0.273904 0.672262 -0.687735
vn -0.360027 0.864650 -0.350291
vn 0.360363 -0.864467 -0.350383
vn 0.864498 -0.360240 -0.350444
vn 0.923917 -0.382550 0.000000
vn 0.382733 -0.923826 0.000000
vn -0.864498 -0.360332 -0.350383
vn -0.360210 -0.864528 -0.350444
vn -0.382641 -0.923887 0.000000
vn -0.923856 -0.382702 0.000000
vn -0.672018 0.274087 -0.687918
vn -0.672018 -0.274239 -0.687857
vn -0.864528 0.360210 -0.350414
vn -0.274087 -0.672018 -0.687918
vn 0.274209 -0.671926 -0.687948
vn 0.671957 -0.274148 -0.687948
vn 0.671987 0.274483 -0.687765
vn -0.923917 0.382580 0.000000
vn -0.382305 0.924009 0.000000
s 1
f 1/1/1 19/2/2 16/3/3 17/4/4
f 17/4/4 16/3/3 4/5/5 3/6/6
f 15/7/7 23/8/8 2/9/9 5/10/10
f 21/11/11 8/12/12 7/13/13 11/14/14
f 19/2/2 1/1/1 6/15/15 20/16/16
f 13/17/17 16/3/3 19/2/2 12/18/18
f 18/19/19 23/8/8 4/5/5 14/20/20
f 9/21/21 2/9/9 23/8/8 18/19/19
f 24/22/22 11/14/14 2/9/9 9/21/21
f 10/23/23 21/11/11 11/14/14 24/22/22
f 22/24/24 20/16/16 21/11/11 10/23/23
f 12/18/18 19/2/2 20/16/16 22/24/24
f 20/16/16 6/15/15 8/12/12 21/11/11
f 11/14/14 7/13/13 5/10/10 2/9/9
f 14/20/20 4/5/5 16/3/3 13/17/17
f 23/8/8 15/7/7 3/6/6 4/5/5
f 26/8/25 45/5/26 46/6/27 34/7/28
f 35/20/29 36/17/30 33/3/31 45/5/26
f 38/14/32 47/9/33 44/10/34 42/13/35
f 29/16/36 28/11/37 41/12/38 43/15/39
f 37/18/40 27/24/41 29/16/36 30/2/42
f 27/24/41 39/23/43 28/11/37 29/16/36
f 39/23/43 25/22/44 38/14/32 28/11/37
f 25/22/44 40/21/45 47/9/33 38/14/32
f 40/21/45 31/19/46 26/8/25 47/9/33
f 31/19/46 35/20/29 45/5/26 26/8/25
f 36/17/30 37/18/40 30/2/42 33/3/31
f 43/15/39 48/1/47 30/2/42 29/16/36
f 28/11/37 38/14/32 42/13/35 41/12/38
f 34/7/28 44/10/34 47/9/33 26/8/25
f 32/4/48 46/6/27 45/5/26 33/3/31
f 48/1/47 32/4/48 33/3/31 30/2/42
