o pit_0
v 8.199813 1.247461 4.000000
v 6.936061 1.024422 3.005941
v -8.199956 1.247430 4.000000
v -6.970936 1.024422 3.005940
v 4.614400 0.350000 0.262643
v -4.626464 0.350000 0.262642
v -2.899997 3.350001 -0.540141
v 2.899995 3.350001 -0.540140
v -0.652677 1.067499 0.679241
v -0.652677 0.868188 1.131764
v 0.647366 1.067484 0.679217
v 0.647366 0.868173 1.131751
v -2.997782 1.068300 0.687494
v -4.626464 0.350000 0.262642
v 2.982518 1.068300 0.687495
v 4.614400 0.350000 0.262643
v 8.199813 0.350154 2.998013
v 8.199813 0.350154 4.000000
v 8.199813 0.350154 4.000000
v 8.199813 1.247461 4.000000
v 3.455407 3.350000 4.000000
v -3.460677 3.350002 4.000000
v -8.199956 1.247430 4.000000
v -8.199956 0.350154 4.000000
v -8.199956 0.350154 4.000000
v -8.199956 0.350154 2.998006
v -8.199956 1.247430 4.000000
v -3.460677 3.350002 4.000000
v 8.199813 1.247461 4.000000
v 3.455407 3.350000 4.000000
v 8.199813 0.350154 4.000000
v -8.199956 0.350154 4.000000
v -0.652677 0.350000 0.679217
v -0.652677 0.350008 1.131764
v 0.647366 0.350000 0.679217
v 0.647366 0.349992 1.131751
v 0.647366 0.349992 1.919476
v -0.652677 0.868188 1.919489
v -0.652677 0.350008 1.919489
v 0.647366 0.868173 1.919476
v -2.997782 1.068300 0.687494
v 8.199813 1.247461 2.998009
v 2.982518 1.068300 0.687495
v -8.199956 1.247430 2.998009
v -3.460676 3.350002 3.005940
v 3.455407 3.350002 3.005941
v 4.614400 0.350000 0.262643
v 8.199813 0.350154 2.998013
v -4.626464 0.350000 0.262642
v -8.199956 0.350154 2.998006
vt 0.000000 0.000000
vt 1.000000 0.000000
vt 1.000000 1.000000
vt 0.000000 1.000000
vn -0.206702 -0.977844 0.032350
vn -0.219306 -0.975494 0.017212
vn 0.219642 -0.975402 0.017396
vn 0.206885 -0.977813 0.032685
vn -0.707083 0.000000 0.707083
vn 0.707083 0.000000 0.707083
vn -0.677938 -0.547624 0.490402
vn -0.513382 -0.700980 0.495010
vn 0.520249 -0.696463 0.494186
vn 0.688070 -0.540544 0.484054
vn -1.000000 0.000000 0.000000
vn 1.000000 0.000000 0.000000
vn 0.000000 1.000000 0.000000
vn 0.000000 1.000000 -0.000031
vn 0.325053 -0.815760 0.478347
vn 0.000000 -0.509079 0.860714
vn -0.322855 -0.818842 0.474563
vn 0.000000 0.000000 -1.000000
vn 0.405255 -0.913633 0.031983
vn 0.207251 -0.978271 0.000000
vn 0.405530 -0.914060 0.000000
vn -0.207038 -0.978301 0.000000
vn -0.404889 -0.913785 0.031648
vn -0.405133 -0.914243 0.000000
s 1
f 8/1/1 46/2/2 45/3/3 7/4/4
f 38/1/5 39/2/5 37/3/6 40/4/6
f 19/1/7 1/2/7 2/3/8 48/4/8
f 4/1/9 3/2/10 32/3/10 50/4/9
f 34/1/11 10/2/11 9/3/11 33/4/11
f 38/1/5 10/2/11 34/3/11 39/4/5
f 36/1/12 35/2/12 11/3/12 12/4/12
f 40/1/6 37/2/6 36/3/12 12/4/12
f 26/1/13 17/2/13 5/3/14 6/4/14
f 50/1/9 14/2/15 41/3/15 4/4/9
f 49/1/16 16/2/16 15/3/16 13/4/16
f 48/1/8 2/2/8 43/3/17 47/4/17
f 25/1/18 23/2/18 20/3/18 31/4/18
f 21/1/18 20/2/18 23/3/18 22/4/18
f 44/1/19 45/2/3 28/3/20 27/4/21
f 45/1/3 46/2/2 30/3/22 28/4/20
f 46/1/2 42/2/23 29/3/24 30/4/22
f 17/1/13 26/2/13 24/3/13 18/4/13
f 7/1/4 45/2/3 44/3/19
f 8/1/1 42/2/23 46/3/2
