o dash_glo
v -0.413579 1.397616 0.004246
v 0.015200 1.463863 -0.218174
v 0.318392 1.350774 0.161522
v 0.318393 1.444460 -0.153029
v 0.015200 1.397586 0.004242
v 0.443979 1.397616 0.004245
v -0.287993 1.350774 0.161522
v 2.899995 3.350001 -0.540140
v -2.899997 3.350001 -0.540141
v -3.793827 1.462682 -0.375035
v 3.778563 1.462682 -0.375034
v -6.970936 1.024422 3.005940
v 6.936061 1.024422 3.005941
v 0.329497 1.067484 1.581087
v -0.329490 1.067499 1.581100
v -0.287993 1.444460 -0.153030
v 0.015200 1.331371 0.226667
v -8.199956 1.247430 2.998009
v 8.199813 1.247461 2.998009
v 3.299999 1.500001 -0.740138
v 3.299999 1.500001 -0.740138
v -3.300000 1.500001 -0.740137
v -3.300000 1.500001 -0.740137
v -0.652677 0.868188 1.919489
v 0.647366 0.868173 1.919476
v 2.982518 1.068300 0.687495
v -2.997782 1.068300 0.687494
v -2.997782 1.068300 0.687494
v 2.982518 1.068300 0.687495
vt 0.176344 0.656370
vt 0.141314 0.692200
vt 0.176344 0.728032
vt 0.190853 0.692200
vt 0.106285 0.728032
vt 0.141314 0.742874
vt 0.865150 -0.055709
vt 0.891836 0.176660
vt 0.084400 0.178059
vt -0.107142 0.064561
vt 0.187641 0.506904
vt 0.099901 0.506906
vt 0.020094 0.572803
vt 0.261620 0.572800
vt 0.863061 -0.056485
vt -0.106931 0.065129
vt 0.079328 0.175540
vt 0.889748 0.175884
vt 0.866815 0.815504
vt 0.076964 0.815504
vt 0.113132 0.986355
vt 0.828821 0.986355
vt 0.376881 0.576031
vt 0.927802 0.576031
vt 0.894413 0.309850
vt 0.410270 0.309850
vt 0.141314 0.641529
vt 0.106285 0.656370
vt 0.091776 0.692200
vn 0.000000 0.958342 0.285531
vn 0.000031 0.958373 0.285440
vn 0.000000 0.958403 0.285348
vn -0.000061 0.958373 0.285440
vn 0.000031 0.958403 0.285379
vn 0.000000 0.958403 0.285318
vn -0.149113 0.953215 0.262825
vn 0.000000 0.861629 0.507492
vn 0.150395 0.952483 0.264809
vn 0.000000 0.957183 0.289438
vn 0.000000 -0.107456 0.994201
vn 0.000000 0.958342 0.285562
vn 0.000031 0.958373 0.285470
vn 0.000061 0.958373 0.285440
s 1
f 4/1/1 5/2/2 3/3/3 6/4/4
f 3/3/3 5/2/2 7/5/5 17/6/6
f 11/7/7 29/8/7 13/9/7 19/10/7
f 14/11/8 15/12/8 24/13/8 25/14/8
f 10/15/9 18/16/9 12/17/9 28/18/9
f 21/19/10 23/20/10 27/21/10 26/22/10
f 22/23/11 20/24/11 8/25/11 9/26/11
f 4/1/1 2/27/12 16/28/13 5/2/2
f 16/28/13 1/29/14 7/5/5 5/2/2
