o sc_glow
v 1.400000 -0.300001 -21.340141
v 1.400000 -0.300001 -22.590141
v 1.400000 0.399999 -22.840141
v -1.400000 0.399999 -21.340141
v 1.400000 0.399999 -21.340141
v -1.400000 0.399999 -22.840141
v -1.400000 -0.300001 -22.590141
v -1.400000 -0.300001 -21.340141
vt 0.565072 0.951582
vt 0.565061 0.011024
vt 0.016752 0.009794
vt 0.018979 0.949022
vn 0.577349 -0.577349 -0.577349
vn 0.577349 0.577349 -0.577349
vn 0.707083 0.707083 0.000000
vn 0.707083 -0.707083 0.000000
vn -0.707083 0.707083 0.000000
vn -0.577349 0.577349 -0.577349
vn -0.577349 -0.577349 -0.577349
vn -0.707083 -0.707083 0.000000
s 1
f 4/1/1 8/2/2 7/3/3 6/4/4
f 2/3/5 1/2/6 5/1/7 3/4/8
f 8/2/2 1/2/6 2/3/5 7/3/3
f 6/4/4 3/4/8 5/1/7 4/1/1
f 5/1/7 1/2/6 8/2/2 4/1/1
