o layer_1
v -13.000036 1.000000 6.659859
v 3.300000 1.500000 -0.740141
v 13.000000 1.000000 6.659859
v -3.300000 1.500000 -0.740141
v -2.500000 0.999999 -22.340141
v 2.500000 0.999999 -22.340141
v 5.000000 -4.699999 6.659859
v -2.500000 -4.700000 -0.340141
v 13.000034 -1.000000 6.659859
v -5.000000 -4.699999 6.659859
v -2.500000 -1.000001 -22.340141
v -13.000036 -1.000000 6.659859
v 2.500000 -4.700000 -0.340141
v 2.500000 -1.000001 -22.340141
v 6.500000 1.000001 16.259859
v -6.500000 1.000001 16.259859
v 13.000000 1.000000 6.659859
v 2.500000 5.200000 10.409859
v -2.500000 5.200000 10.409859
v -13.000036 1.000000 6.659859
v 6.500000 1.000001 16.259859
v 2.500000 5.200000 10.409859
v -6.500000 1.000001 16.259859
v -2.500000 5.200000 10.409859
vt 0.148354 0.003055
vt 0.441584 0.003055
vt 0.351359 0.135009
vt 0.238579 0.135009
vt 0.588199 0.219594
vt 0.001739 0.219594
vt 0.412848 0.737997
vt 0.649419 0.084612
vt 0.649419 0.580283
vt 0.593093 0.737997
vt 0.998643 0.737997
vt 0.818398 0.737997
vt 0.762072 0.580283
vt 0.762072 0.084612
vt 0.238579 0.873722
vt 0.220534 0.386510
vt 0.369404 0.386510
vt 0.351359 0.873722
vn 0.000000 0.812311 0.583178
vn 0.444929 0.843349 0.301248
vn -0.444929 0.843349 0.301248
vn -0.416181 -0.896756 -0.150273
vn 0.416181 -0.896756 -0.150273
vn -0.070986 0.997131 -0.025697
vn 0.070986 0.997131 -0.025697
s 1
f 16/1/1 15/2/1 18/3/1 19/4/1
f 22/3/2 21/2/2 17/5/2
f 20/6/3 23/1/3 24/4/3
f 12/7/4 11/8/4 8/9/4 10/10/4
f 9/11/5 7/12/5 13/13/5 14/14/5
f 5/15/6 1/6/6 4/16/6
f 2/17/7 3/5/7 6/18/7
