o gun1_1_
v 0.104242 -1.633400 -22.379749
v 0.387750 -1.219526 -22.199749
v -0.233259 -1.503019 -22.379749
v -0.179262 -1.786527 -22.199749
v -0.386289 -1.579520 -22.199749
v -0.386295 -1.219467 -22.199749
v 0.234749 -1.296057 -22.379749
v -0.179457 -1.012548 -22.199749
v 0.104254 -1.165570 -22.379749
v -0.102732 -1.165486 -22.379749
v -0.233292 -1.296046 -22.379749
v 0.180813 -1.786522 -22.199749
v -0.102704 -1.633534 -22.379749
v 0.234719 -1.503012 -22.379749
v 0.180764 -1.012911 -22.199749
v 0.387797 -1.579491 -22.199749
vt -0.699883 0.563743
vt -0.699883 0.513665
vt -0.795884 0.567765
vt -0.795884 0.654814
vt -0.699883 0.420009
vt -0.699883 0.321662
vt -0.795884 0.248254
vt -0.795884 0.419354
vt -0.699883 0.291251
vt -0.795884 0.200011
vt -0.699883 0.341423
vt -0.795884 0.287198
vt -0.699883 0.434977
vt -0.795884 0.435699
vt -0.699883 0.533331
vt -0.795884 0.606746
vn 0.274422 0.672445 -0.687338
vn -0.273904 0.672262 -0.687735
vn -0.672018 0.274087 -0.687918
vn -0.672018 -0.274239 -0.687857
vn -0.274087 -0.672018 -0.687918
vn 0.274209 -0.671926 -0.687948
vn 0.671926 -0.274148 -0.687948
vn 0.671987 0.274483 -0.687765
s 1
f 9/1/1 10/2/2 8/3/2 15/4/1
f 11/5/3 3/6/4 5/7/4 6/8/3
f 3/6/4 13/9/5 4/10/5 5/7/4
f 13/9/5 1/11/6 12/12/6 4/10/5
f 1/11/6 14/13/7 16/14/7 12/12/6
f 14/13/7 7/15/8 2/16/8 16/14/7
f 7/15/8 9/1/1 15/4/1 2/16/8
f 10/2/2 11/5/3 6/8/3 8/3/2
