o back
v 14.000000 -2.000000 8.999969
v -14.000000 -2.000000 8.999969
v -4.000000 -1.999999 16.999969
v 7.000000 4.000001 16.999969
v -7.000000 4.000001 16.999969
v 4.000000 -1.999999 16.999969
v 7.000000 4.000001 16.999969
v 4.000000 -1.999999 16.999969
v -4.000000 -1.999999 16.999969
v -7.000000 4.000001 16.999969
vt -0.359400 -0.016000
vt -0.005400 -0.016000
vt -0.253200 -0.988000
vt -0.748800 -0.988000
vt -0.996600 -0.016000
vt -0.642600 -0.016000
vn 0.596271 -0.298135 0.745354
vn -0.596271 -0.298135 0.745354
vn 0.000000 0.000000 1.000000
s 1
f 6/1/1 1/2/1 4/3/1
f 5/4/2 2/5/2 3/6/2
f 10/4/3 9/6/3 8/1/3 7/3/3
