o engine
v -3.000000 3.000001 16.999969
v 3.000000 3.000001 15.999969
v 3.000000 3.000001 16.999969
v 2.000000 0.000001 15.999969
v -2.000000 0.000001 16.999969
v -3.000000 3.000001 15.999969
v -2.000000 0.000001 15.999969
v 2.000000 0.000001 16.999969
v 2.000000 0.000001 15.999969
v 3.000000 3.000001 15.999969
v 3.000000 3.000001 16.999969
v 2.000000 0.000001 16.999969
v -2.000000 0.000001 16.999969
v -2.000000 0.000001 15.999969
v -3.000000 3.000001 16.999969
v -3.000000 3.000001 15.999969
vt 0.267154 0.364253
vt 0.600152 0.364253
vt 0.600152 1.363244
vt 0.267154 1.363244
vt 0.600141 0.031246
vt 0.600141 0.364243
vt -0.731847 0.364243
vt -0.731847 0.031246
vt 0.267144 0.031246
vt 0.267144 0.364243
vt 2.265126 0.364243
vt 2.265126 0.031246
vn -0.948668 0.316202 0.000000
vn 0.000000 1.000000 0.000000
vn 0.948668 0.316202 0.000000
vn 0.000000 -1.000000 0.000000
s 1
f 3/1/1 2/2/1 4/3/1 8/4/1
f 12/5/2 9/6/2 7/7/2 5/8/2
f 6/2/3 1/1/3 13/4/3 14/3/3
f 15/9/4 16/10/4 10/11/4 11/12/4
