o pit_f
v -4.548944 1.899000 -11.000016
v 4.550005 0.999991 -11.000016
v -4.550005 0.999991 -11.000016
v -6.650002 0.999991 -6.000031
v 6.650001 0.999991 -6.000031
v 3.550005 0.999991 -11.000016
v 4.548997 1.899000 -11.000016
v -3.550005 0.999991 -11.000016
vt 1.000000 1.000000
vt 0.000000 1.000000
vt 0.158203 0.009766
vt 0.841797 0.009766
vt 0.851563 0.388672
vt 0.820313 0.021484
vt 0.607422 0.021484
vt 0.578125 0.388672
vn 0.000000 1.000000 0.000000
vn 0.000000 0.000000 1.000000
s 1
f 4/1/1 5/2/1 2/3/1 3/4/1
f 1/5/2 8/6/2 6/7/2 7/8/2
