o tip_cv0
v -3.500000 0.999999 -14.000032
v 0.000000 -2.000001 -24.000032
v 3.500000 0.999999 -14.000032
v 7.000000 4.000000 -4.000031
v -7.000000 4.000000 -4.000031
v 0.000000 -2.000001 -24.000032
v 3.500000 0.999999 -14.000032
v -3.500000 0.999999 -14.000032
v -14.000000 -2.000000 -9.000032
v 14.000000 -2.000000 -9.000032
vt -0.587025 -0.755100
vt -0.671550 -0.513600
vt -0.333450 -0.513600
vt -0.417975 -0.755100
vt -0.840600 -0.634350
vt -0.502500 -0.996600
vt -0.164400 -0.634350
vn 0.000000 0.957823 -0.287332
vn -0.420606 0.817866 -0.392560
vn 0.420606 0.817866 -0.392560
s 1
f 8/1/1 5/2/1 4/3/1 7/4/1
f 9/5/2 1/1/2 6/6/2
f 2/6/3 3/4/3 10/7/3
