o bot
v -6.006979 -3.000002 7.999969
v -3.435527 -3.000002 3.399969
v -3.435527 -3.000002 7.999979
v -6.006978 -3.000002 3.399969
v 0.000000 -2.000001 -24.000032
v -14.000000 -2.000000 -9.000032
v 14.000000 -2.000000 -9.000032
v 14.000000 -2.000000 8.999969
v 4.000000 -1.999999 16.999969
v -4.000000 -1.999999 16.999969
v -14.000000 -2.000000 8.999969
v -6.006979 -3.000002 7.999969
v -6.006978 -3.000002 3.399969
v -7.004610 -1.999999 3.399969
v -7.004611 -1.999998 7.999969
v -3.435527 -3.000002 3.399969
v -3.435527 -3.000002 7.999979
v -2.437895 -1.999999 3.399969
v -2.437897 -1.999998 7.999979
v -2.437897 -1.999998 7.999979
v -7.004611 -1.999998 7.999969
v -3.435527 -3.000002 7.999979
v -6.006979 -3.000002 7.999969
vt -0.502500 -0.995600
vt -0.164400 -0.633350
vt -0.840600 -0.633350
vt -0.405900 -0.005450
vt -0.599100 -0.005450
vt -0.840600 -0.198650
vt -0.164400 -0.198650
vt 0.329102 0.777344
vt 0.329102 0.666016
vt 0.352539 0.666016
vt 0.352539 0.777344
vt 0.439453 0.666016
vt 0.439453 0.777344
vt 0.415039 0.777344
vt 0.415039 0.666016
vt 0.747193 0.496497
vt 0.747193 0.383090
vt 0.718790 0.407865
vt 0.718790 0.471723
vn 0.000000 -1.000000 0.000000
vn -0.707938 -0.706259 0.000000
vn 0.707938 -0.706259 0.000000
vn 0.000000 0.000000 1.000000
s 1
f 5/1/1 7/2/1 6/3/1
f 9/4/1 10/5/1 11/6/1 8/7/1
f 8/7/1 11/6/1 6/3/1 7/2/1
f 15/8/2 14/9/2 13/10/2 12/11/2
f 18/12/3 19/13/3 17/14/3 16/15/3
f 3/14/1 1/11/1 4/10/1 2/15/1
f 20/16/4 21/17/4 23/18/4 22/19/4
