o scoop
v 6.048148 -3.000004 3.399999
v 7.045780 -2.000000 3.400000
v 7.045777 -1.999997 8.000001
v 3.476696 -3.000004 3.399998
v 2.479064 -2.000000 3.399998
v 2.479064 -1.999997 7.999999
v 6.048148 -3.000004 3.399999
v 7.045777 -1.999997 8.000001
v 3.476696 -3.000004 3.399998
v 2.479064 -1.999997 7.999999
vt 0.779475 0.011086
vt 0.992921 0.011086
vt 0.992921 0.992934
vt 0.224520 0.011086
vt 0.011074 0.992934
vt 0.011074 0.011086
vn 0.707938 -0.706259 0.000000
vn -0.707938 -0.706259 0.000000
vn 0.000000 -0.977172 0.212409
s 1
f 1/1/1 2/2/1 3/3/1
f 4/4/2 6/5/2 5/6/2
f 7/1/3 8/3/3 10/5/3 9/4/3
