o clock
v 3.552234 3.552236 -0.000003
v 4.350581 2.511811 -0.000003
v 4.852442 1.300211 -0.000003
v 5.023617 0.000004 -0.000003
v 4.852442 -1.300203 -0.000003
v 4.350581 -2.511804 -0.000003
v 3.552235 -3.552228 -0.000003
v 2.511811 -4.350574 -0.000003
v 1.300211 -4.852436 -0.000003
v 0.000004 -5.023612 -0.000003
v -1.300203 -4.852437 -0.000003
v -2.511804 -4.350576 -0.000003
v -3.552229 -3.552231 -0.000003
v -4.350576 -2.511806 -0.000003
v -4.852437 -1.300206 -0.000003
v -5.023614 0.000001 -0.000003
v -4.852438 1.300208 -0.000003
v -4.350578 2.511809 -0.000003
v -3.552233 3.552234 -0.000003
v -2.511809 4.350580 -0.000003
v -1.300209 4.852442 -0.000003
v -0.000002 5.023619 -0.000003
v 1.300205 4.852444 -0.000003
v 2.511806 4.350584 -0.000003
vt 0.567364 0.982350
vt 0.443120 0.982350
vt 0.323110 0.950193
vt 0.687375 0.950193
vt 0.215511 0.888071
vt 0.794974 0.888071
vt 0.127657 0.800217
vt 0.882828 0.800217
vt 0.065535 0.692619
vt 0.944950 0.692618
vt 0.033378 0.572608
vt 0.977106 0.572608
vt 0.033378 0.448364
vt 0.977106 0.448364
vt 0.065535 0.328353
vt 0.944949 0.328353
vt 0.127657 0.220754
vt 0.882827 0.220754
vt 0.215511 0.132900
vt 0.794974 0.132900
vt 0.323110 0.070778
vt 0.687375 0.070778
vt 0.443121 0.038621
vt 0.567365 0.038621
vn 0.000000 0.000000 1.000000
s 1
f 23/1/1 22/2/1 21/3/1
f 24/4/1 23/1/1 21/3/1
f 24/4/1 21/3/1 20/5/1
f 1/6/1 24/4/1 20/5/1
f 1/6/1 20/5/1 19/7/1
f 2/8/1 1/6/1 19/7/1
f 2/8/1 19/7/1 18/9/1
f 3/10/1 2/8/1 18/9/1
f 3/10/1 18/9/1 17/11/1
f 4/12/1 3/10/1 17/11/1
f 4/12/1 17/11/1 16/13/1
f 5/14/1 4/12/1 16/13/1
f 5/14/1 16/13/1 15/15/1
f 6/16/1 5/14/1 15/15/1
f 6/16/1 15/15/1 14/17/1
f 7/18/1 6/16/1 14/17/1
f 7/18/1 14/17/1 13/19/1
f 8/20/1 7/18/1 13/19/1
f 8/20/1 13/19/1 12/21/1
f 9/22/1 8/20/1 12/21/1
f 9/22/1 12/21/1 11/23/1
f 10/24/1 9/22/1 11/23/1
