# OBJ written from C:\Users\rivalin\Desktop\high_development_hab_2.obj

o Mesh
v -9.5 7 -10
v -12.5 7 -7
v -12.5 7 7
v -9.5 7 10
v -9.5 16 10
v -12.5 16 7
v -12.5 16 -7
v -9.5 16 -10
v 9.5 7 -10
v 12.5 7 -7
v 12.5 7 7
v 9.5 7 10
v 12.5 16 7
v 9.5 16 10
v 9.5 16 -10
v 12.5 16 -7
v -6.5 19 7
v -9.5 19 4
v -9.5 19 -4
v -6.5 19 -7
v 9.5 19 4
v 6.5 19 7
v 6.5 19 -7
v 9.5 19 -4
v -9.5 7 -16
v -6.5 7 -19
v -9.5 16 -16
v -6.5 16 -19
v 9.5 7 -16
v 6.5 7 -19
v 9.5 16 -16
v 6.5 16 -19
v -6.5 19 -13
v -3.5 19 -16
v 6.5 19 -13
v 3.5 19 -16
v 9.5 11 -10
v 9.5 14 -10
v 12.5 14 -7
v 12.5 11 -7
v 12.5 11 7
v 12.5 14 7
v 9.5 14 10
v 9.5 11 10
v -12.5 11 -7
v -12.5 14 -7
v -9.5 14 -10
v -9.5 11 -10
v -9.5 11 10
v -9.5 14 10
v -12.5 14 7
v -12.5 11 7
v -9.5 11 -16
v -9.5 14 -16
v -6.5 14 -19
v -6.5 11 -19
v 6.5 11 -19
v 6.5 14 -19
v 9.5 14 -16
v 9.5 11 -16
v 12.5 7 0
v -12.5 7 0
v 12.5 16 0
v 9.5 19 0
v -12.5 16 0
v -9.5 19 0
v 12.5 11 0
v 12.5 14 0
v -12.5 11 0
v -12.5 14 0
v -11.5 7 -10.8284
v -14.5 7 -7.82843
v -14.5 7 7.82843
v -10.3284 7 12
v 11.5 7 -10.8284
v 14.5 7 -7.82843
v 14.5 7 7.82843
v 10.3284 7 12
v -11.5 7 -16.8284
v -7.32843 7 -21
v 11.5 7 -16.8284
v 7.32843 7 -21
v 14.5 7 0
v -14.5 7 0
v -13.5 3 -11.6569
v -16.5 3 -8.65685
v -16.5 3 8.65685
v -11.1569 3 14
v 13.5 3 -11.6569
v 16.5 3 -8.65685
v 16.5 3 8.65685
v 11.1569 3 14
v -13.5 3 -17.6569
v -8.15686 3 -23
v 13.5 3 -17.6569
v 8.15686 3 -23
v 16.5 3 0
v -16.5 3 0
v -15.5 3 -12.4853
v -18.5 3 -9.48528
v -18.5 3 9.48528
v -11.9853 3 16
v 15.5 3 -12.4853
v 18.5 3 -9.48528
v 18.5 3 9.48528
v 11.9853 3 16
v -15.5 3 -18.4853
v -8.98529 3 -25
v 15.5 3 -18.4853
v 8.98529 3 -25
v 18.5 3 0
v -18.5 3 0
v -15.5 -27 -12.4853
v -18.5 -27 -9.48528
v -18.5 -27 9.48528
v -11.9853 -27 16
v 15.5 -27 -12.4853
v 18.5 -27 -9.48528
v 18.5 -27 9.48528
v 11.9853 -27 16
v -15.5 -27 -18.4853
v -8.98529 -27 -25
v 15.5 -27 -18.4853
v 8.98529 -27 -25
v 18.5 -27 0
v -18.5 -27 0
v 9.5 11 -10
v 9.5 14 -10
v 12.5 14 -7
v 12.5 11 -7
v -12.5 11 -7
v -12.5 14 -7
v -9.5 14 -10
v -9.5 11 -10
v -9.5 11 -16
v -9.5 14 -16
v -6.5 14 -19
v -6.5 11 -19
v 6.5 11 -19
v 6.5 14 -19
v 9.5 14 -16
v 9.5 11 -16
v 12.5 11 0
v 12.5 14 0
v -12.5 11 0
v -12.5 14 0
v 12 11 6.79289
v 12 14 6.79289
v 9.29289 14 9.5
v 9.29289 11 9.5
v -9.29289 11 9.5
v -9.29289 14 9.5
v -12 14 6.79289
v -12 11 6.79289
v 12 11 0
v 12 14 0
v -12 11 0
v -12 14 0
v 12.5 11 7
v 12.5 14 7
v 9.5 14 10
v 9.5 11 10
v -9.5 11 10
v -9.5 14 10
v -12.5 14 7
v -12.5 11 7
v 12.5 11 0
v 12.5 14 0
v -12.5 11 0
v -12.5 14 0
v 12 11 6.79289
v 12 14 6.79289
v 9.29289 14 9.5
v 9.29289 11 9.5
v -9.29289 11 9.5
v -9.29289 14 9.5
v -12 14 6.79289
v -12 11 6.79289
v 12 11 0
v 12 14 0
v -12 11 0
v -12 14 0
vn 0 1 0
vn 0.707106 0 -0.707107
vn 1 0 0
vn 0.707109 0 -0.707104
vn 0.707108 0 0.707106
vn 0 0 1
vn -0.707108 0 0.707106
vn -1 -0 -0
vn -0.707109 -0 -0.707104
vn -0.707106 -0 -0.707107
vn 0 0 -1
vn 0.408248 0.816497 -0.408248
vn 0.408248 0.816497 0.408248
vn -0.408248 0.816497 0.408248
vn -0.408248 0.816497 -0.408248
vn 0 0.707107 0.707107
vn -0.707107 0.707107 0
vn 0.707107 0.707107 0
vn 0 0.707107 -0.707107
vn 0.707107 0 -0.707107
vn 0.707107 0 0.707107
vn -0.707107 -0 -0.707107
vn -0.707107 0 0.707107
vn 0.63245 0.447222 -0.632455
vn 0.894427 0.447214 0
vn 0.632449 0.447222 -0.632456
vn 0.894427 0.447214 0
vn 0.632455 0.447222 0.63245
vn 0 0.447214 0.894427
vn -0.632459 0.447213 0.632453
vn -0.894427 0.447214 0
vn -0.632453 0.447212 -0.632459
vn -0.894427 0.447214 0
vn -0.632453 0.447215 -0.632458
vn 0 0.447214 -0.894427
vn 0 -1 0
vn 0.707107 0 0.707107
vn -0.707107 0 0.707107
vt 0.354332 0.244909
vt 0.432042 0.244909
vt 0.432042 0.271776
vt 0.354332 0.271776
vt 0.275728 0.271776
vt 0.275728 0.244909
vt 0.086274 0.244909
vt 0.086274 0.271776
vt 0.0138313 0.244909
vt 0.0138313 0.271776
vt 0.509081 0.749201
vt 0.592681 0.749201
vt 0.592681 0.776069
vt 0.509081 0.776069
vt 0.432747 0.749201
vt 0.432747 0.776069
vt 0.399649 0.776069
vt 0.399649 0.749201
vt 0.346961 0.776069
vt 0.346961 0.749201
vt 0.267127 0.749201
vt 0.267127 0.776069
vt 0.10134 0.749201
vt 0.10134 0.776069
vt 0.013839 0.776069
vt 0.013839 0.749201
vt 0.595134 0.271776
vt 0.546152 0.271776
vt 0.546152 0.244909
vt 0.595134 0.244909
vt 0.508476 0.271776
vt 0.508476 0.244909
vt 0.013839 0.518043
vt 0.10134 0.518043
vt 0.546152 0.0137512
vt 0.595134 0.0137512
vt 0.508476 0.0137512
vt 0.432042 0.0137512
vt 0.354332 0.0137512
vt 0.275728 0.0137512
vt 0.086274 0.0137512
vt 0.0138313 0.0137512
vt 0.509081 0.518043
vt 0.592681 0.518043
vt 0.432747 0.518043
vt 0.399649 0.518043
vt 0.346961 0.518043
vt 0.267127 0.518043
vt 0.546152 0.433811
vt 0.546152 0.488664
vt 0.508476 0.488664
vt 0.508476 0.433811
vt 0.275728 0.488664
vt 0.275728 0.433811
vt 0.354332 0.433811
vt 0.354332 0.488664
vt 0.0138313 0.488664
vt 0.0138313 0.433811
vt 0.086274 0.433811
vt 0.086274 0.488664
vt 0.432747 0.938103
vt 0.432747 0.992956
vt 0.399649 0.992956
vt 0.399649 0.938103
vt 0.267127 0.992956
vt 0.267127 0.938103
vt 0.346961 0.938103
vt 0.346961 0.992956
vt 0.013839 0.992956
vt 0.013839 0.938103
vt 0.10134 0.938103
vt 0.10134 0.992956
vt 0.835126 0.894518
vt 0.779409 0.89452
vt 0.75155 0.866662
vt 0.751548 0.801659
vt 0.779406 0.773799
vt 0.835123 0.773798
vt 0.595134 0.433811
vt 0.595134 0.488664
vt 0.546152 0.401686
vt 0.508476 0.401686
vt 0.508476 0.35482
vt 0.546152 0.35482
vt 0.508476 0.404148
vt 0.546152 0.404148
vt 0.354332 0.401686
vt 0.275728 0.401686
vt 0.275728 0.35482
vt 0.354332 0.35482
vt 0.275728 0.404148
vt 0.354332 0.404148
vt 0.432747 0.905978
vt 0.399649 0.905978
vt 0.399649 0.859112
vt 0.432747 0.859112
vt 0.399649 0.90844
vt 0.432747 0.90844
vt 0.086274 0.401686
vt 0.0138313 0.401686
vt 0.0138313 0.35482
vt 0.086274 0.35482
vt 0.0138313 0.404148
vt 0.086274 0.404148
vt 0.346961 0.905978
vt 0.267127 0.905978
vt 0.267127 0.859112
vt 0.346961 0.859112
vt 0.267127 0.90844
vt 0.346961 0.90844
vt 0.10134 0.905978
vt 0.013839 0.905978
vt 0.013839 0.859112
vt 0.10134 0.859112
vt 0.013839 0.90844
vt 0.10134 0.90844
vt 0.595134 0.401686
vt 0.595134 0.35482
vt 0.595134 0.404148
vt 0.432007 0.433811
vt 0.432007 0.488664
vt 0.509081 0.938103
vt 0.509081 0.992956
vt 0.592681 0.938103
vt 0.592681 0.992956
vt 0.90013 0.922375
vt 0.900126 0.745938
vt 0.93727 0.745937
vt 0.965129 0.773795
vt 0.965132 0.894515
vt 0.937275 0.922374
vt 0.862985 0.922376
vt 0.862981 0.745939
vt 0.509081 0.859112
vt 0.509081 0.905978
vt 0.592681 0.905978
vt 0.592681 0.859112
vt 0.509081 0.90844
vt 0.592681 0.90844
vt 0.432042 0.35482
vt 0.432042 0.401686
vt 0.432042 0.404148
vt 0.346961 0.825715
vt 0.399649 0.825715
vt 0.267127 0.825715
vt 0.10134 0.825715
vt 0.013839 0.825715
vt 0.546152 0.321423
vt 0.595134 0.321423
vt 0.508476 0.321423
vt 0.432042 0.321423
vt 0.354332 0.321423
vt 0.275728 0.321423
vt 0.086274 0.321423
vt 0.0138313 0.321423
vt 0.509081 0.825715
vt 0.592681 0.825715
vt 0.432747 0.825715
vt 0.626901 0.485062
vt 0.626901 0.447386
vt 0.657772 0.447386
vt 0.657772 0.485062
vt 0.691193 0.593889
vt 0.691193 0.56079
vt 0.722064 0.56079
vt 0.722064 0.593889
vt 0.626901 0.398404
vt 0.657772 0.398404
vt 0.691193 0.646576
vt 0.722064 0.646576
vt 0.691193 0.726411
vt 0.722064 0.726411
vt 0.691193 0.892197
vt 0.722064 0.892197
vt 0.691193 0.979699
vt 0.722064 0.979699
vt 0.657772 0.561531
vt 0.626901 0.561531
vt 0.691193 0.484457
vt 0.722064 0.484457
vt 0.691193 0.478216
vt 0.722064 0.47837
vt 0.657772 0.568031
vt 0.626901 0.568031
vt 0.743365 0.069911
vt 0.775959 0.101715
vt 0.770641 0.103932
vt 0.741178 0.0754688
vt 0.775959 0.303551
vt 0.770641 0.301365
vt 0.744178 0.3355
vt 0.741964 0.330194
vt 0.668808 0.335705
vt 0.668808 0.330392
vt 0.852075 0.0314598
vt 0.926492 0.0314188
vt 0.924293 0.0367355
vt 0.852075 0.0367753
vt 0.958606 0.0632833
vt 0.95329 0.0654896
vt 0.958606 0.265221
vt 0.95329 0.263025
vt 0.926749 0.297142
vt 0.924542 0.29183
vt 0.852075 0.29722
vt 0.852075 0.291905
vt 0.668808 0.069911
vt 0.668808 0.0754688
vt 0.626901 0.717809
vt 0.626901 0.639205
vt 0.657772 0.639205
vt 0.657772 0.717809
vt 0.626901 0.907264
vt 0.657772 0.907264
vt 0.626901 0.979706
vt 0.657772 0.979706
vt 0.722064 0.405704
vt 0.691193 0.40555
mtllib high_development_hab_2.mtl
usemtl material1
g Default
f 105/1/1 111/2/1 97/3/1 91/4/1
f 105/1/1 91/4/1 92/5/1 106/6/1
f 102/7/1 106/6/1 92/5/1 88/8/1
f 101/9/1 102/7/1 88/8/1 87/10/1
f 112/11/1 101/12/1 87/13/1 98/14/1
f 100/15/1 112/11/1 98/14/1 86/16/1
f 86/16/1 85/17/1 99/18/1 100/15/1
f 85/17/1 93/19/1 107/20/1 99/18/1
f 108/21/1 107/20/1 93/19/1 94/22/1
f 110/23/1 108/21/1 94/22/1 96/24/1
f 110/23/1 96/24/1 95/25/1 109/26/1
f 95/27/1 89/28/1 103/29/1 109/30/1
f 89/28/1 90/31/1 104/32/1 103/29/1
f 111/2/1 104/32/1 90/31/1 97/3/1
f 110/23/2 109/26/2 123/33/2 124/34/2
f 109/30/3 103/29/3 117/35/3 123/36/3
f 103/29/4 104/32/4 118/37/4 117/35/4
f 104/32/3 111/2/3 125/38/3 118/37/3
f 111/2/3 105/1/3 119/39/3 125/38/3
f 105/1/5 106/6/5 120/40/5 119/39/5
f 106/6/6 102/7/6 116/41/6 120/40/6
f 102/7/7 101/9/7 115/42/7 116/41/7
f 101/12/8 112/11/8 126/43/8 115/44/8
f 112/11/8 100/15/8 114/45/8 126/43/8
f 100/15/9 99/18/9 113/46/9 114/45/9
f 99/18/8 107/20/8 121/47/8 113/46/8
f 107/20/10 108/21/10 122/48/10 121/47/10
f 108/21/11 110/23/11 124/34/11 122/48/11
f 15/49/12 23/50/12 24/51/12 16/52/12
f 22/53/13 14/54/13 13/55/13 21/56/13
f 18/57/14 6/58/14 5/59/14 17/60/14
f 7/61/15 19/62/15 20/63/15 8/64/15
f 14/54/16 22/53/16 17/60/16 5/59/16
f 34/65/15 28/66/15 27/67/15 33/68/15
f 35/69/12 31/70/12 32/71/12 36/72/12
f 20/63/17 33/68/17 27/67/17 8/64/17
f 23/73/1 35/74/1 36/75/1 34/76/1 33/77/1 20/78/1
f 15/49/18 31/79/18 35/80/18 23/50/18
f 32/71/19 28/66/19 34/65/19 36/72/19
f 37/81/20 40/82/20 10/83/20 9/84/20
f 15/49/20 16/52/20 39/85/20 38/86/20
f 41/87/21 44/88/21 12/89/21 11/90/21
f 13/55/21 14/54/21 43/91/21 42/92/21
f 45/93/22 48/94/22 1/95/22 2/96/22
f 7/61/22 8/64/22 47/97/22 46/98/22
f 49/99/23 52/100/23 3/101/23 4/102/23
f 5/59/23 6/58/23 51/103/23 50/104/23
f 44/88/6 49/99/6 4/102/6 12/89/6
f 14/54/6 5/59/6 50/104/6 43/91/6
f 53/105/22 56/106/22 26/107/22 25/108/22
f 27/67/22 28/66/22 55/109/22 54/110/22
f 57/111/20 60/112/20 29/113/20 30/114/20
f 32/71/20 31/70/20 59/115/20 58/116/20
f 60/117/3 37/81/3 9/84/3 29/118/3
f 31/79/3 15/49/3 38/86/3 59/119/3
f 48/94/8 53/105/8 25/108/8 1/95/8
f 8/64/8 27/67/8 54/110/8 47/97/8
f 56/106/11 57/111/11 30/114/11 26/107/11
f 28/66/11 32/71/11 58/116/11 55/109/11
f 13/55/18 63/120/18 64/121/18 21/56/18
f 63/120/18 16/52/18 24/51/18 64/121/18
f 7/61/17 65/122/17 66/123/17 19/62/17
f 65/122/17 6/124/17 18/125/17 66/123/17
f 64/126/1 66/127/1 18/128/1 17/129/1 22/130/1 21/131/1
f 66/127/1 64/126/1 24/132/1 23/73/1 20/78/1 19/133/1
f 2/96/8 62/134/8 69/135/8 45/93/8
f 52/136/8 69/135/8 62/134/8 3/137/8
f 46/98/8 70/138/8 65/122/8 7/61/8
f 6/124/8 65/122/8 70/138/8 51/139/8
f 11/90/3 61/140/3 67/141/3 41/87/3
f 40/82/3 67/141/3 61/140/3 10/83/3
f 42/92/3 68/142/3 63/120/3 13/55/3
f 16/52/3 63/120/3 68/142/3 39/85/3
f 1/95/1 25/108/1 79/143/1 71/144/1
f 80/145/1 79/143/1 25/108/1 26/107/1
f 82/146/1 80/145/1 26/107/1 30/114/1
f 81/147/1 82/146/1 30/114/1 29/113/1
f 29/118/1 9/84/1 75/148/1 81/149/1
f 9/84/1 10/83/1 76/150/1 75/148/1
f 83/151/1 76/150/1 10/83/1 61/140/1
f 77/152/1 83/151/1 61/140/1 11/90/1
f 78/153/1 77/152/1 11/90/1 12/89/1
f 74/154/1 78/153/1 12/89/1 4/102/1
f 73/155/1 74/154/1 4/102/1 3/101/1
f 84/156/1 73/157/1 3/137/1 62/134/1
f 72/158/1 84/156/1 62/134/1 2/96/1
f 2/96/1 1/95/1 71/144/1 72/158/1
f 95/25/24 96/24/24 82/146/24 81/147/24
f 81/149/25 75/148/25 89/28/25 95/27/25
f 75/148/26 76/150/26 90/31/26 89/28/26
f 97/3/27 90/31/27 76/150/27 83/151/27
f 91/4/27 97/3/27 83/151/27 77/152/27
f 92/5/28 91/4/28 77/152/28 78/153/28
f 88/8/29 92/5/29 78/153/29 74/154/29
f 87/10/30 88/8/30 74/154/30 73/155/30
f 98/14/31 87/13/31 73/157/31 84/156/31
f 86/16/31 98/14/31 84/156/31 72/158/31
f 72/158/32 71/144/32 85/17/32 86/16/32
f 71/144/33 79/143/33 93/19/33 85/17/33
f 94/22/34 93/19/34 79/143/34 80/145/34
f 96/24/35 94/22/35 80/145/35 82/146/35
f 130/159/20 127/160/20 128/161/20 129/162/20
f 134/163/22 131/164/22 132/165/22 133/166/22
f 127/160/3 142/167/3 141/168/3 128/161/3
f 135/169/8 134/163/8 133/166/8 136/170/8
f 138/171/22 135/169/22 136/170/22 137/172/22
f 139/173/11 138/171/11 137/172/11 140/174/11
f 142/175/20 139/173/20 140/174/20 141/176/20
f 129/162/3 144/177/3 143/178/3 130/159/3
f 131/164/8 145/179/8 146/180/8 132/165/8
f 146/180/6 145/179/6 157/181/6 158/182/6
f 143/178/6 144/177/6 156/183/6 155/184/6
f 160/185/36 161/186/36 173/187/36 172/188/36
f 161/186/36 164/189/36 176/190/36 173/187/36
f 164/189/36 165/191/36 177/192/36 176/190/36
f 165/191/36 170/193/36 182/194/36 177/192/36
f 169/195/1 166/196/1 178/197/1 181/198/1
f 166/196/1 163/199/1 175/200/1 178/197/1
f 163/199/1 162/201/1 174/202/1 175/200/1
f 162/201/1 159/203/1 171/204/1 174/202/1
f 159/203/1 167/205/1 179/206/1 171/204/1
f 168/207/36 160/185/36 172/188/36 180/208/36
f 150/209/37 147/210/37 148/211/37 149/212/37
f 151/213/6 150/209/6 149/212/6 152/214/6
f 154/215/38 151/213/38 152/214/38 153/216/38
f 147/210/3 155/184/3 156/183/3 148/211/3
f 153/217/8 158/182/8 157/181/8 154/218/8
