# OBJ written from C:\Users\rivalin\Desktop\pioneer\data\models\buildings\high_development\high_development_hab_2\high_development_hab_2_collision.obj

o Mesh
v -9.5 7 -10
v -12.5 7 -7
v -12.5 7 7
v -9.5 7 10
v -9.5 16 10
v -12.5 16 7
v -12.5 16 -7
v -9.5 16 -10
v 9.5 7 -10
v 12.5 7 -7
v 12.5 7 7
v 9.5 7 10
v 12.5 16 7
v 9.5 16 10
v 9.5 16 -10
v 12.5 16 -7
v -6.5 19 7
v -9.5 19 4
v -9.5 19 -4
v -6.5 19 -7
v 9.5 19 4
v 6.5 19 7
v 6.5 19 -7
v 9.5 19 -4
v -9.5 7 -16
v -6.5 7 -19
v -9.5 16 -16
v -6.5 16 -19
v 9.5 7 -16
v 6.5 7 -19
v 9.5 16 -16
v 6.5 16 -19
v -6.5 19 -13
v -3.5 19 -16
v 6.5 19 -13
v 3.5 19 -16
v -11.5 7 -10.8284
v -14.5 7 -7.82843
v -14.5 7 7.82843
v -10.3284 7 12
v 11.5 7 -10.8284
v 14.5 7 -7.82843
v 14.5 7 7.82843
v 10.3284 7 12
v -11.5 7 -16.8284
v -7.32843 7 -21
v 11.5 7 -16.8284
v 7.32843 7 -21
v -13.5 3 -11.6569
v -16.5 3 -8.65685
v -16.5 3 8.65685
v -11.1569 3 14
v 13.5 3 -11.6569
v 16.5 3 -8.65685
v 16.5 3 8.65685
v 11.1569 3 14
v -13.5 3 -17.6569
v -8.15686 3 -23
v 13.5 3 -17.6569
v 8.15686 3 -23
v -15.5 3 -12.4853
v -18.5 3 -9.48528
v -18.5 3 9.48528
v -11.9853 3 16
v 15.5 3 -12.4853
v 18.5 3 -9.48528
v 18.5 3 9.48528
v 11.9853 3 16
v -15.5 3 -18.4853
v -8.98529 3 -25
v 15.5 3 -18.4853
v 8.98529 3 -25
v -15.5 -27 -12.4853
v -18.5 -27 -9.48528
v -18.5 -27 9.48528
v -11.9853 -27 16
v 15.5 -27 -12.4853
v 18.5 -27 -9.48528
v 18.5 -27 9.48528
v 11.9853 -27 16
v -15.5 -27 -18.4853
v -8.98529 -27 -25
v 15.5 -27 -18.4853
v 8.98529 -27 -25
vn 0 1 0
vn 0.707106 0 -0.707107
vn 1 0 0
vn 0.707109 0 -0.707104
vn 0.707108 0 0.707106
vn 0 0 1
vn -0.707108 0 0.707106
vn -0.707109 -0 -0.707104
vn -1 -0 -0
vn -0.707106 -0 -0.707107
vn 0 0 -1
vn 0.408248 0.816497 -0.408248
vn 0.408248 0.816497 0.408248
vn -0.408248 0.816497 0.408248
vn -0.408248 0.816497 -0.408248
vn 0 0.707107 0.707107
vn -0.707107 0.707107 0
vn 0.707107 0.707107 0
vn 0 0.707107 -0.707107
vn 0.63245 0.447222 -0.632455
vn 0.894427 0.447214 0
vn 0.632449 0.447222 -0.632456
vn 0.632455 0.447222 0.63245
vn 0 0.447214 0.894427
vn -0.632459 0.447213 0.632453
vn -0.632453 0.447212 -0.632459
vn -0.894427 0.447214 0
vn -0.632453 0.447215 -0.632458
vn 0 0.447214 -0.894427
vn 0.707107 0 -0.707107
vn -0.707107 0 0.707107
vn 0.707107 0 0.707107
vn -0.707107 -0 -0.707107
vt 0.354332 0.244909
vt 0.354332 0.271776
vt 0.275728 0.271776
vt 0.275728 0.244909
vt 0.086274 0.244909
vt 0.086274 0.271776
vt 0.0138313 0.244909
vt 0.0138313 0.271776
vt 0.432747 0.776069
vt 0.399649 0.776069
vt 0.399649 0.749201
vt 0.432747 0.749201
vt 0.346961 0.776069
vt 0.346961 0.749201
vt 0.267127 0.749201
vt 0.267127 0.776069
vt 0.10134 0.749201
vt 0.10134 0.776069
vt 0.013839 0.776069
vt 0.013839 0.749201
vt 0.595134 0.271776
vt 0.546152 0.271776
vt 0.546152 0.244909
vt 0.595134 0.244909
vt 0.508476 0.271776
vt 0.508476 0.244909
vt 0.013839 0.518043
vt 0.10134 0.518043
vt 0.546152 0.0137512
vt 0.595134 0.0137512
vt 0.508476 0.0137512
vt 0.275728 0.0137512
vt 0.354332 0.0137512
vt 0.086274 0.0137512
vt 0.0138313 0.0137512
vt 0.399649 0.518043
vt 0.432747 0.518043
vt 0.346961 0.518043
vt 0.267127 0.518043
vt 0.546152 0.433811
vt 0.546152 0.488664
vt 0.508476 0.488664
vt 0.508476 0.433811
vt 0.275728 0.488664
vt 0.275728 0.433811
vt 0.354332 0.433811
vt 0.354332 0.488664
vt 0.0138313 0.488664
vt 0.0138313 0.433811
vt 0.086274 0.433811
vt 0.086274 0.488664
vt 0.432747 0.938103
vt 0.432747 0.992956
vt 0.399649 0.992956
vt 0.399649 0.938103
vt 0.267127 0.992956
vt 0.267127 0.938103
vt 0.346961 0.938103
vt 0.346961 0.992956
vt 0.013839 0.992956
vt 0.013839 0.938103
vt 0.10134 0.938103
vt 0.10134 0.992956
vt 0.835126 0.894518
vt 0.779409 0.89452
vt 0.75155 0.866662
vt 0.751548 0.801659
vt 0.779406 0.773799
vt 0.835123 0.773798
vt 0.595134 0.433811
vt 0.595134 0.488664
vt 0.399649 0.859112
vt 0.346961 0.859112
vt 0.346961 0.825715
vt 0.399649 0.825715
vt 0.267127 0.825715
vt 0.267127 0.859112
vt 0.10134 0.825715
vt 0.10134 0.859112
vt 0.013839 0.825715
vt 0.013839 0.859112
vt 0.595134 0.35482
vt 0.546152 0.35482
vt 0.546152 0.321423
vt 0.595134 0.321423
vt 0.508476 0.35482
vt 0.508476 0.321423
vt 0.275728 0.321423
vt 0.354332 0.321423
vt 0.354332 0.35482
vt 0.275728 0.35482
vt 0.086274 0.321423
vt 0.086274 0.35482
vt 0.0138313 0.321423
vt 0.0138313 0.35482
vt 0.432747 0.859112
vt 0.432747 0.825715
vt 0.862981 0.745939
vt 0.93727 0.745937
vt 0.965129 0.773795
vt 0.965132 0.894515
vt 0.937275 0.922374
vt 0.862985 0.922376
vt 0.592681 0.859112
vt 0.592681 0.938103
vt 0.592681 0.518043
vt 0.592681 0.749201
vt 0.592681 0.776069
vt 0.592681 0.825715
vt 0.592681 0.992956
mtllib high_development_hab_2_collision.mtl
usemtl material1
g Default
f 67/1/1 55/2/1 56/3/1 68/4/1
f 64/5/1 68/4/1 56/3/1 52/6/1
f 63/7/1 64/5/1 52/6/1 51/8/1
f 50/9/1 49/10/1 61/11/1 62/12/1
f 49/10/1 57/13/1 69/14/1 61/11/1
f 70/15/1 69/14/1 57/13/1 58/16/1
f 72/17/1 70/15/1 58/16/1 60/18/1
f 72/17/1 60/18/1 59/19/1 71/20/1
f 59/21/1 53/22/1 65/23/1 71/24/1
f 53/22/1 54/25/1 66/26/1 65/23/1
f 72/17/2 71/20/2 83/27/2 84/28/2
f 71/24/3 65/23/3 77/29/3 83/30/3
f 65/23/4 66/26/4 78/31/4 77/29/4
f 67/1/5 68/4/5 80/32/5 79/33/5
f 68/4/6 64/5/6 76/34/6 80/32/6
f 64/5/7 63/7/7 75/35/7 76/34/7
f 62/12/8 61/11/8 73/36/8 74/37/8
f 61/11/9 69/14/9 81/38/9 73/36/9
f 69/14/10 70/15/10 82/39/10 81/38/10
f 70/15/11 72/17/11 84/28/11 82/39/11
f 15/40/12 23/41/12 24/42/12 16/43/12
f 22/44/13 14/45/13 13/46/13 21/47/13
f 18/48/14 6/49/14 5/50/14 17/51/14
f 7/52/15 19/53/15 20/54/15 8/55/15
f 14/45/16 22/44/16 17/51/16 5/50/16
f 34/56/15 28/57/15 27/58/15 33/59/15
f 35/60/12 31/61/12 32/62/12 36/63/12
f 20/54/17 33/59/17 27/58/17 8/55/17
f 23/64/1 35/65/1 36/66/1 34/67/1 33/68/1 20/69/1
f 15/40/18 31/70/18 35/71/18 23/41/18
f 32/62/19 28/57/19 34/56/19 36/63/19
f 1/72/1 25/73/1 45/74/1 37/75/1
f 46/76/1 45/74/1 25/73/1 26/77/1
f 48/78/1 46/76/1 26/77/1 30/79/1
f 47/80/1 48/78/1 30/79/1 29/81/1
f 29/82/1 9/83/1 41/84/1 47/85/1
f 9/83/1 10/86/1 42/87/1 41/84/1
f 44/88/1 43/89/1 11/90/1 12/91/1
f 40/92/1 44/88/1 12/91/1 4/93/1
f 39/94/1 40/92/1 4/93/1 3/95/1
f 2/96/1 1/72/1 37/75/1 38/97/1
f 59/19/20 60/18/20 48/78/20 47/80/20
f 47/85/21 41/84/21 53/22/21 59/21/21
f 41/84/22 42/87/22 54/25/22 53/22/22
f 56/3/23 55/2/23 43/89/23 44/88/23
f 52/6/24 56/3/24 44/88/24 40/92/24
f 51/8/25 52/6/25 40/92/25 39/94/25
f 38/97/26 37/75/26 49/10/26 50/9/26
f 37/75/27 45/74/27 57/13/27 49/10/27
f 58/16/28 57/13/28 45/74/28 46/76/28
f 60/18/29 58/16/29 46/76/29 48/78/29
f 29/81/30 30/79/30 32/62/30 31/61/30
f 10/86/30 9/83/30 15/40/30 16/43/30
f 25/73/9 1/72/9 8/55/9 27/58/9
f 3/95/31 4/93/31 5/50/31 6/49/31
f 30/79/11 26/77/11 28/57/11 32/62/11
f 12/91/32 11/90/32 13/46/32 14/45/32
f 9/83/3 29/82/3 31/70/3 15/40/3
f 26/77/33 25/73/33 27/58/33 28/57/33
f 1/72/33 2/96/33 7/52/33 8/55/33
f 4/93/6 12/91/6 14/45/6 5/50/6
f 23/64/1 20/69/1 19/98/1 18/99/1 17/100/1 22/101/1 21/102/1 24/103/1
f 54/25/21 42/87/21 43/89/21 55/2/21
f 2/96/9 3/104/9 6/105/9 7/52/9
f 13/46/18 16/43/18 24/42/18 21/47/18
f 11/90/3 10/86/3 16/43/3 13/46/3
f 62/12/9 74/37/9 75/106/9 63/107/9
f 66/26/3 67/1/3 79/33/3 78/31/3
f 63/107/1 51/108/1 50/9/1 62/12/1
f 39/109/1 3/104/1 2/96/1 38/97/1
f 67/1/1 66/26/1 54/25/1 55/2/1
f 42/87/1 10/86/1 11/90/1 43/89/1
f 51/108/27 39/109/27 38/97/27 50/9/27
f 7/52/17 6/105/17 18/110/17 19/53/17
