o top
v -5.003099 0.001174 -9.173533
v 0.074561 3.317658 0.992870
v 4.995113 0.001174 -9.173533
v -14.010162 0.001174 -2.176066
v -14.002990 0.001174 6.821203
v 13.996792 0.001174 6.822272
v 8.983538 3.361180 8.823361
v -9.004800 3.361180 8.823359
v 0.074560 3.361180 8.823386
v 13.996020 0.001174 -2.181983
v 2.921453 -1.609607 0.102345
v 1.903047 -2.649680 6.565745
v -1.881109 -2.635548 6.565745
v -2.949227 -1.609607 0.102345
v 1.903048 -2.663766 0.102345
v -1.881109 -2.649680 6.565745
v -1.881108 -2.663766 0.102345
v 1.903047 -2.649680 6.565745
v 1.903048 -2.663766 0.102345
v 0.074561 3.317658 0.992870
v -9.004800 3.361180 8.823359
v -9.004800 3.361180 8.823359
v -14.010162 0.001174 -2.176066
v 8.983538 3.361180 8.823361
v 8.983538 3.361180 8.823361
v 13.996020 0.001174 -2.181983
v -1.881108 -2.663766 0.102345
vt 0.660084 -0.542921
vt 0.289246 0.153014
vt -0.070119 -0.542921
vt 1.317902 -0.063912
vt 1.317380 0.551990
vt 0.952344 0.689046
vt -0.727491 -0.064320
vt -0.361412 0.689046
vt -0.727546 0.552063
vt 0.289246 0.689049
vt 0.212705 0.934632
vt 0.243199 1.128160
vt 0.243199 0.934632
vt 0.356504 0.934632
vt 0.356504 1.128160
vt 0.388486 0.934632
vn -0.088839 0.959960 -0.265633
vn 0.000793 0.964263 -0.264901
vn 0.089755 0.959838 -0.265755
vn -0.558000 0.829798 0.000427
vn 0.556719 0.830683 -0.000031
vn 0.000000 0.999969 -0.005554
vn -0.176794 0.959685 -0.218482
vn 0.178655 0.959288 -0.218665
vn 0.719169 -0.694784 0.001495
vn -0.702414 -0.711722 0.003082
vn 0.000000 -0.999969 0.002167
s 1
f 1/1/1 20/2/2 3/3/3
f 4/4/4 5/5/4 22/6/4
f 10/7/5 25/8/5 6/9/5
f 7/8/6 2/2/6 8/6/6 9/10/6
f 1/1/1 23/4/7 21/6/7 20/2/2
f 24/8/8 26/7/8 3/3/3 20/2/2
f 11/11/9 12/12/9 15/13/9
f 27/14/10 13/15/10 14/16/10
f 17/14/11 19/13/11 18/12/11 16/15/11
