o trees
v 2.416099 5.489737 4.579126
v 2.416099 4.782937 4.579126
v 2.416099 4.782937 3.573259
v 2.416099 5.489737 3.573260
v 2.416099 5.489737 4.579126
v 2.416099 4.782937 4.579126
v 2.416099 4.782937 3.573259
v 2.416099 5.489737 3.573260
v 2.919032 5.489736 4.076192
v 2.919032 4.782937 4.076192
v 1.913166 4.782937 4.076192
v 1.913166 5.489737 4.076192
v 2.919032 5.489736 4.076192
v 2.919032 4.782937 4.076192
v 1.913166 4.782937 4.076192
v 1.913166 5.489737 4.076192
v 2.416099 6.079052 6.929781
v 2.416099 4.776972 6.929781
v 2.416099 4.776972 5.076754
v 2.416099 6.079052 5.076754
v 2.416099 6.079052 6.929781
v 2.416099 4.776972 6.929781
v 2.416099 4.776972 5.076754
v 2.416099 6.079052 5.076754
v 3.342613 6.079051 6.003267
v 3.342612 4.776971 6.003267
v 1.489585 4.776971 6.003267
v 1.489586 6.079052 6.003267
v 3.342613 6.079051 6.003267
v 3.342612 4.776971 6.003267
v 1.489585 4.776971 6.003267
v 1.489586 6.079052 6.003267
v 0.540834 5.797737 6.822926
v 0.540834 4.787954 6.822926
v 0.540834 4.787954 5.385875
v 0.540834 5.797737 5.385876
v 0.540834 5.797737 6.822926
v 0.540834 4.787954 6.822926
v 0.540834 4.787954 5.385875
v 0.540834 5.797737 5.385876
v 1.259359 5.797736 6.104400
v 1.259359 4.787953 6.104400
v -0.177692 4.787953 6.104400
v -0.177691 5.797737 6.104400
v 1.259359 5.797736 6.104400
v 1.259359 4.787953 6.104400
v -0.177692 4.787953 6.104400
v -0.177691 5.797737 6.104400
v -1.256282 6.477615 6.754633
v -1.256281 4.794902 6.754633
v -1.256281 4.794902 4.359918
v -1.256281 6.477615 4.359918
v -1.256281 6.477614 6.754633
v -1.256281 4.794902 6.754633
v -1.256281 4.794902 4.359918
v -1.256281 6.477615 4.359918
v -0.058923 6.477614 5.557275
v -0.058923 4.794901 5.557275
v -2.453639 4.794902 5.557275
v -2.453639 6.477614 5.557275
v -0.058923 6.477614 5.557275
v -0.058923 4.794901 5.557275
v -2.453639 4.794901 5.557275
v -2.453639 6.477614 5.557275
v -2.286194 5.526210 6.543867
v -2.286194 4.789147 6.543867
v -2.286194 4.789147 5.494932
v -2.286194 5.526210 5.494932
v -2.286194 5.526210 6.543867
v -2.286194 4.789147 6.543867
v -2.286194 4.789147 5.494932
v -2.286194 5.526210 5.494932
v -1.761726 5.526210 6.019399
v -1.761726 4.789147 6.019399
v -2.810662 4.789147 6.019399
v -2.810662 5.526210 6.019399
v -1.761726 5.526210 6.019399
v -1.761726 4.789146 6.019399
v -2.810662 4.789146 6.019399
v -2.810662 5.526210 6.019399
v -0.362704 5.797737 5.306807
v -0.362704 4.787954 5.306807
v -0.362704 4.787954 3.869756
v -0.362704 5.797737 3.869757
v -0.362704 5.797737 5.306807
v -0.362704 4.787954 5.306807
v -0.362704 4.787954 3.869756
v -0.362704 5.797737 3.869757
v 0.355822 5.797736 4.588282
v 0.355822 4.787953 4.588282
v -1.081229 4.787953 4.588282
v -1.081228 5.797737 4.588282
v 0.355822 5.797736 4.588281
v 0.355822 4.787953 4.588281
v -1.081229 4.787953 4.588281
v -1.081228 5.797737 4.588281
vt 0.000000 0.000000
vt 1.000000 0.000000
vt 1.000000 1.000000
vt 0.000000 1.000000
vn 1.000000 0.000000 0.000000
vn -1.000000 0.000000 0.000000
vn 0.000000 0.000000 -1.000000
vn 0.000000 0.000000 1.000000
s off
f 1/1/1 2/2/1 3/3/1 4/4/1
f 5/1/2 8/2/2 7/3/2 6/4/2
f 9/1/3 10/2/3 11/3/3 12/4/3
f 13/1/4 16/2/4 15/3/4 14/4/4
f 17/1/1 18/2/1 19/3/1 20/4/1
f 21/1/2 24/2/2 23/3/2 22/4/2
f 25/1/3 26/2/3 27/3/3 28/4/3
f 29/1/4 32/2/4 31/3/4 30/4/4
f 33/1/1 34/2/1 35/3/1 36/4/1
f 37/1/2 40/2/2 39/3/2 38/4/2
f 41/1/3 42/2/3 43/3/3 44/4/3
f 45/1/4 48/2/4 47/3/4 46/4/4
f 49/1/1 50/2/1 51/3/1 52/4/1
f 53/1/2 56/2/2 55/3/2 54/4/2
f 57/1/3 58/2/3 59/3/3 60/4/3
f 61/1/4 64/2/4 63/3/4 62/4/4
f 65/1/1 66/2/1 67/3/1 68/4/1
f 69/1/2 72/2/2 71/3/2 70/4/2
f 73/1/3 74/2/3 75/3/3 76/4/3
f 77/1/4 80/2/4 79/3/4 78/4/4
f 81/1/1 82/2/1 83/3/1 84/4/1
f 85/1/2 88/2/2 87/3/2 86/4/2
f 89/1/3 90/2/3 91/3/3 92/4/3
f 93/1/4 96/2/4 95/3/4 94/4/4
