o socket
v -1.000000 0.000000 3.000000
v 1.000000 0.000000 3.000000
v -3.000000 0.000000 9.999999
v 3.000000 0.000000 9.999999
v -3.000000 -49.624569 10.000001
v 3.000000 -49.624569 10.000001
v -3.000000 -49.624569 -6.999997
v -7.000000 -49.624569 -2.999998
v 7.000000 -49.624569 -2.999998
v 7.000000 -49.624569 3.000002
v 3.000000 -49.624569 -6.999997
v -7.000000 -49.624569 3.000002
v -7.000000 0.000000 3.000000
v 3.000000 -0.000000 -7.000000
v 7.000000 0.000000 3.000000
v 7.000000 -0.000000 -3.000000
v -7.000000 -0.000000 -3.000000
v -3.000000 -0.000000 -7.000000
v -1.000000 0.000000 7.000000
v 1.000000 0.000000 7.000000
v -3.000000 0.000000 9.999999
v -3.000000 0.000000 9.999999
v 3.000000 0.000000 9.999999
v 3.000000 0.000000 9.999999
v 7.000000 0.000000 3.000000
v 7.000000 0.000000 3.000000
v 7.000000 -0.000000 -3.000000
v 7.000000 -0.000000 -3.000000
v 3.000000 -0.000000 -7.000000
v 3.000000 -0.000000 -7.000000
v -3.000000 -0.000000 -7.000000
v -3.000000 -0.000000 -7.000000
v -7.000000 -0.000000 -3.000000
v -7.000000 -0.000000 -3.000000
v -7.000000 0.000000 3.000000
v -7.000000 0.000000 3.000000
v -7.000000 -49.624569 3.000002
v -7.000000 -49.624569 -2.999998
v -3.000000 -49.624569 -6.999997
v 3.000000 -49.624569 -6.999997
v 7.000000 -49.624569 -2.999998
v 7.000000 -49.624569 3.000002
v 3.000000 -49.624569 10.000001
v -3.000000 -49.624569 10.000001
vt 0.012175 0.012175
vt 0.987825 0.012175
vt 0.987825 0.987825
vt 0.012175 0.987825
vt 0.709068 0.012175
vt 0.987825 0.413913
vt 0.987825 0.758260
vt 0.709068 0.987825
vt 0.290932 0.012175
vt 0.290932 0.987825
vt 0.012175 0.758260
vt 0.012175 0.413913
vn 0.000000 1.000000 0.000000
vn 0.000000 0.000000 1.000000
vn 0.868221 0.000000 0.496109
vn 1.000000 0.000000 0.000000
vn 0.707083 0.000000 -0.707083
vn 0.000000 0.000000 -1.000000
vn -0.707083 0.000000 -0.707083
vn -1.000000 0.000000 0.000000
vn -0.868221 0.000000 0.496109
s 1
f 2/1/1 1/2/1 19/3/1 20/4/1
f 4/5/1 15/6/1 16/7/1 14/8/1
f 3/9/1 18/10/1 17/11/1 13/12/1
f 3/9/1 4/5/1 14/8/1 18/10/1
f 22/1/2 5/2/2 6/3/2 24/4/2
f 23/1/3 43/2/3 10/3/3 26/4/3
f 9/1/4 28/2/4 25/3/4 42/4/4
f 41/1/5 11/2/5 30/3/5 27/4/5
f 7/1/6 32/2/6 29/3/6 40/4/6
f 39/1/7 8/2/7 34/3/7 31/4/7
f 38/1/8 12/2/8 36/3/8 33/4/8
f 21/1/9 35/2/9 37/3/9 44/4/9
