o glow
v 2.918344 -0.010484 -12.352992
v 2.918344 -0.010483 12.352992
v -2.918345 -0.010483 12.352990
v -2.918343 -0.010484 -12.352997
v 2.918346 12.231160 -12.352987
v 2.918342 12.231161 12.353001
v -2.918345 12.231161 12.352988
v -2.918344 12.231160 -12.352994
vt 0.000000 0.000000
vt 1.000000 0.000000
vt 1.000000 1.000000
vt 0.000000 1.000000
vn 0.575213 0.578387 -0.578387
vn 0.578387 -0.578387 -0.575213
vn -0.576250 -0.576281 -0.579455
vn -0.579455 0.576281 -0.576281
vn -0.578387 -0.578387 0.575213
vn -0.575213 0.578387 0.578387
vn 0.576250 -0.576281 0.579455
vn 0.579455 0.576281 0.576281
s 1
f 5/1/1 1/2/2 4/3/3
f 5/1/1 4/3/3 8/4/4
f 3/1/5 7/2/6 8/3/4
f 3/1/5 8/3/4 4/4/3
f 2/1/7 6/2/8 7/3/6
f 2/1/7 7/3/6 3/4/5
f 1/1/2 5/2/1 6/3/8
f 1/1/2 6/3/8 2/4/7
f 5/1/1 8/2/4 7/3/6
f 5/1/1 7/3/6 6/4/8
f 1/1/2 2/2/7 3/3/5
f 1/1/2 3/3/5 4/4/3
