# OBJ written from C:\Users\rivalin\Creative\Personal Work\Paragon\Paragon\PARAGON1\data\models\ships\(0)Ultra-Light\(0F)passenger_shuttle\passenger_shuttle_collision.obj

o Cube
v 3.1825 0.38 2.68
v -3.1825 0.38 2.68
v 3.1825 0.84 2.68
v -3.1825 0.84 2.68
v -0.5 -0.83 -2.65
v 0.5 -0.83 -2.65
v 0.5 -0.83 3.14
v -0.5 -0.83 3.14
v -0.5 2.07 -2.65
v 0.5 2.07 -2.65
v 0.5 2.07 3.14
v -0.5 2.07 3.14
v 1.8 0.62 -2.65
v 1.8 0.62 3.14
v -1.8 0.62 3.14
v -1.8 0.62 -2.65
v -0.5 0.62 -4.65
v 0.5 0.62 -4.65
v -3.1825 0.38 1.67
v -1.6925 0.38 0.18
v 1.6925 0.38 0.18
v 3.1825 0.38 1.67
v -3.1825 0.84 1.67
v -1.6925 0.84 0.18
v 1.6925 0.84 0.18
v 3.1825 0.84 1.67
vn 0 0 1
vn 0 -0.951213 -0.308537
vn 0 -1 0
vn 0 0.951213 -0.308537
vn 0 1 0
vn 0.72574 -0.650664 -0.223468
vn 0.744569 -0.667545 0
vn 0.72574 0.650664 -0.223468
vn 0.744569 0.667545 0
vn -0.744569 -0.667545 0
vn -0.72574 -0.650664 -0.223468
vn -0.744569 0.667545 0
vn -0.72574 0.650664 -0.223468
vn 0 0.80961 -0.586968
vn 0 -0.80961 -0.586968
vn -0.670205 -0.600873 -0.435633
vn -0.670205 0.600873 -0.435633
vn 0.670205 -0.600873 -0.435633
vn 0.670205 0.600873 -0.435633
vn -0.707107 0 -0.707107
vn 0.707107 0 -0.707107
vn 0 0 -1
vn 1 0 0
vn -1 0 0
vt 0.25 0
vt 0.5 0
vt 0.5 0.333333
vt 0.25 0.333333
vt 0.25 1
vt 0.25 0.666667
vt 0.5 0.666667
vt 0.5 1
vt 0.75 0.333333
vt 0.75 0.5
vt 0.5 0.5
vt 0.75 0.666667
vt 0.25 0.5
vt 0 0.5
vt 0 0.333333
vt 0 0.666667
vt 1 0.666667
vt 1 0.5
vt 1 0.333333
vt -1 0
vt 0 0
vt 0 1
vt -1 1
mtllib passenger_shuttle_collision.mtl
usemtl Default
g Default
f 3//1 4//1 2//1 1//1
f 19//20 23//20 24//20 20//20
f 26//21 22//21 21//21 25//21
f 20//3 21//3 22//3 1//3 2//3 19//3
f 25//22 21//22 20//22 24//22
f 3//23 1//23 22//23 26//23
f 23//24 19//24 2//24 4//24
f 23//5 4//5 3//5 26//5 25//5 24//5
usemtl material1
f 5//2 6//2 7//3 8//3
f 9//4 12//5 11//5 10//4
f 6//6 13//6 14//7 7//7
f 13//8 10//8 11//9 14//9
f 7//1 14//1 15//1 8//1
f 14//1 11//1 12//1 15//1
f 8//10 15//10 16//11 5//11
f 15//12 12//12 9//13 16//13
f 9//4 10//4 18//14 17//14
f 6//2 5//2 17//15 18//15
f 5//11 16//11 17//16
f 16//13 9//13 17//17
f 18//18 13//6 6//6
f 18//19 10//8 13//8
