# 3ds Max Wavefront OBJ Exporter v0.94b - (c)2007 guruware
# File Created: 21.10.2010 06:43:35

#
# object screen
#

v  -0.2280 -0.1109 -0.0097
v  -0.2280 -0.1064 0.0097
v  -1.0280 -0.1064 0.0097
v  -1.0280 -0.1109 -0.0097
v  -0.2280 0.2788 -0.0997
v  -1.0280 0.2788 -0.0997
v  -1.0280 0.2833 -0.0802
v  -0.2280 0.2833 -0.0802
# 8 vertices

vn 0.0000 -0.9744 0.2250
vn -0.0000 0.9744 -0.2250
vn 0.0000 -0.2250 -0.9744
vn -1.0000 -0.0000 0.0000
vn -0.0000 0.2250 0.9744
vn 1.0000 0.0000 0.0000
# 6 vertex normals

vt 1.0000 0.0000 0.0000
vt 1.0000 0.0200 0.0000
vt 0.2000 0.0200 0.0000
vt 0.2000 0.0000 0.0000
vt 0.0000 0.0000 0.0000
vt 0.8000 0.0000 0.0000
vt 0.8000 0.0200 0.0000
vt 0.0000 0.0200 0.0000
vt 0.8000 0.4000 0.0000
vt 0.0000 0.4000 0.0000
vt 0.0200 0.0000 0.0000
vt 0.0200 0.4000 0.0000
# 12 texture coords

g screen
s 2
f 1/1/1 2/2/1 3/3/1 4/4/1 
s 4
f 5/5/2 6/6/2 7/7/2 8/8/2 
s 8
f 1/5/3 4/6/3 6/9/3 5/10/3 
s 16
f 4/5/4 3/11/4 7/12/4 6/10/4 
s 32
f 3/5/5 2/6/5 8/9/5 7/10/5 
s 64
f 2/5/6 1/11/6 5/12/6 8/10/6 
# 6 polygons

