o pant_coll_top
v 8.118800 -3.551601 -11.814700
v 3.865600 -3.140302 -18.740101
v -3.865700 -3.140302 -18.740101
v -8.118900 -3.551601 -11.814700
v 3.904400 3.544900 -3.912500
v -3.904400 3.544900 -3.912500
v -9.548600 -3.705501 -8.804100
v 8.598100 1.235999 -8.384201
v 9.548600 -3.705501 -8.804100
v -8.606700 1.224200 12.317000
v 8.606700 1.224200 12.317000
v 6.771500 1.997699 -11.619500
v 6.226000 0.670599 -14.425500
v -6.533500 -4.313599 17.932501
v -3.865700 -1.235602 -18.740101
v -4.875500 -3.396302 -17.999599
v 4.875400 -3.396302 -17.999599
v 3.865600 -1.235602 -18.740101
v -5.940400 -1.743299 18.913799
v 3.887600 3.243501 12.112200
v 3.016600 4.439301 12.771900
v -9.562600 -3.628699 13.028900
v -4.875500 -1.385403 -17.999599
v -6.226100 0.670599 -14.425500
v -6.771500 1.997699 -11.619500
v -8.598100 1.235999 -8.384201
v -7.827100 1.293500 14.947100
v -6.222400 2.037401 17.574900
v 6.222400 2.037401 17.574900
v 7.827100 1.293500 14.947100
v 4.875400 -1.385403 -17.999599
v 9.562600 -3.628699 13.028900
v 8.679000 -3.291699 14.929300
v 6.533500 -4.313599 17.932501
v -8.679000 -3.291699 14.929300
v 5.940400 -1.743299 18.913799
v -3.887600 3.243501 12.112200
v -3.016600 4.439301 12.771900
v 3.887600 3.243501 12.112200
v -3.887600 3.243501 12.112200
v -3.016600 4.439301 12.771900
v 3.016600 4.439301 12.771900
v -3.865700 -1.235602 -18.740101
v -4.875500 -1.385403 -17.999599
v -4.875500 -1.385403 -17.999599
v -6.226100 0.670599 -14.425500
v -6.771500 1.997699 -11.619500
v -8.598100 1.235999 -8.384201
v -8.606700 1.224200 12.317000
v -7.827100 1.293500 14.947100
v -6.222400 2.037401 17.574900
v -6.222400 2.037401 17.574900
v 6.222400 2.037401 17.574900
v 6.222400 2.037401 17.574900
v 7.827100 1.293500 14.947100
v 8.606700 1.224200 12.317000
v 8.598100 1.235999 -8.384201
v 6.771500 1.997699 -11.619500
v 6.226000 0.670599 -14.425500
v 4.875400 -1.385403 -17.999599
v 4.875400 -1.385403 -17.999599
v 3.865600 -1.235602 -18.740101
v 4.875400 -3.396302 -17.999599
v 5.940400 -1.743299 18.913799
v 6.533500 -4.313599 17.932501
v -5.940400 -1.743299 18.913799
v -6.533500 -4.313599 17.932501
v -4.875500 -3.396302 -17.999599
vt 0.944336 0.357422
vt 0.821289 0.357422
vt 0.834961 0.376465
vt 0.930664 0.376465
vt 0.660645 0.113770
vt 0.664551 0.058594
vt 0.838379 0.058594
vt 0.842285 0.113770
vt 0.655762 0.020508
vt 0.847168 0.020508
vt 0.655273 0.360352
vt 0.639648 0.355957
vt 0.639648 0.387207
vt 0.655273 0.389648
vt 0.775391 0.360352
vt 0.775391 0.389648
vt 0.791016 0.387207
vt 0.791016 0.355957
vt 0.356934 0.437988
vt 0.477051 0.393066
vt 0.477051 0.603516
vt 0.356934 0.559082
vt 0.520508 0.594727
vt 0.520508 0.401855
vt 0.587891 0.437988
vt 0.587891 0.558594
vt 0.108398 0.558594
vt 0.108398 0.437988
vt 0.023926 0.594727
vt 0.023926 0.401855
vt 0.098633 0.451660
vt 0.098633 0.544922
vt 0.064941 0.619141
vt 0.064941 0.377441
vt 0.426758 0.631836
vt 0.426758 0.364746
vt 0.105957 0.631836
vt 0.105957 0.364746
vt 0.079102 0.755371
vt 0.032715 0.770508
vt 0.017578 0.731934
vt 0.038086 0.675293
vt 0.079102 0.686523
vt 0.120605 0.687500
vt 0.109375 0.760742
vt 0.076660 0.823730
vt 0.015137 0.847168
vt 0.030273 0.808594
vt 0.076660 0.892578
vt 0.035645 0.903809
vt 0.118164 0.891602
vt 0.106934 0.818359
vt 0.450195 0.761719
vt 0.443848 0.687012
vt 0.441406 0.892090
vt 0.447754 0.817383
vt 0.576660 0.422852
vt 0.495117 0.819824
vt 0.590820 0.822266
vt 0.590820 0.852051
vt 0.535645 0.883301
vt 0.491699 0.903320
vt 0.576660 0.573730
vt 0.497559 0.759277
vt 0.538086 0.695801
vt 0.593262 0.727051
vt 0.593262 0.756836
vt 0.494141 0.675781
vn 0.000000 0.483047 -0.875576
vn 0.000000 0.333811 0.942625
vn 0.000000 -0.012146 0.999908
vn 0.000000 -0.356670 0.934202
vn -0.311106 0.000000 -0.950346
vn -0.591327 0.000000 -0.806391
vn 0.311106 0.000000 -0.950346
vn 0.591327 0.000000 -0.806391
vn 0.181890 0.981567 -0.058504
vn 0.144688 0.971679 -0.186804
vn -0.144688 0.971679 -0.186804
vn -0.181890 0.981567 -0.058504
vn -0.256996 0.823664 -0.505478
vn 0.256996 0.823664 -0.505478
vn 0.267647 0.818628 -0.508103
vn -0.267647 0.818628 -0.508103
vn -0.326548 0.945006 0.017792
vn 0.326548 0.945006 0.017792
vn -0.305673 0.928770 0.209510
vn 0.305673 0.928770 0.209510
vn -0.480575 0.876797 0.015656
vn 0.480575 0.876797 0.015656
vn -0.421400 0.906796 -0.008545
vn 0.421400 0.906796 -0.008545
vn -0.404950 0.912992 0.049440
vn 0.404950 0.912992 0.049440
vn -0.870937 0.115818 0.477523
vn -0.818171 -0.030396 0.574145
vn -0.837153 0.054170 0.544237
vn -0.849086 0.138340 0.509751
vn -0.892239 0.170568 0.418073
vn -0.966460 0.198614 0.162603
vn 0.870937 0.115818 0.477523
vn 0.837153 0.054170 0.544237
vn 0.818171 -0.030396 0.574145
vn 0.892239 0.170568 0.418073
vn 0.849086 0.138340 0.509751
vn 0.966460 0.198614 0.162603
vn -0.953063 0.209265 -0.218726
vn 0.953063 0.209265 -0.218726
vn 0.510758 0.647542 -0.565508
vn 0.910977 0.187231 -0.367473
vn 0.894528 0.088046 -0.438246
vn 0.915891 0.162603 -0.366924
vn 0.905026 0.226936 -0.359691
vn -0.510758 0.647542 -0.565508
vn -0.910977 0.187231 -0.367443
vn -0.915922 0.162603 -0.366924
vn -0.894528 0.088046 -0.438246
vn -0.905026 0.226936 -0.359691
s 1
f 20/1/1 37/2/1 38/3/1 21/4/1
f 52/5/2 19/6/3 36/7/3 54/8/2
f 14/9/4 34/10/4 36/7/3 19/6/3
f 3/11/5 68/12/6 44/13/6 43/14/5
f 2/15/7 62/16/7 60/17/8 63/18/8
f 2/15/7 3/11/5 43/14/5 62/16/7
f 5/19/9 12/20/10 25/21/11 6/22/12
f 24/23/13 25/21/11 12/20/10 13/24/14
f 24/23/13 13/24/14 18/25/15 15/26/16
f 5/19/9 6/22/12 40/27/17 39/28/18
f 28/29/19 29/30/20 42/31/20 41/32/19
f 28/29/19 41/32/19 40/27/17 27/33/21
f 30/34/22 39/28/18 42/31/20 29/30/20
f 6/22/12 25/21/11 26/35/23
f 5/19/9 8/36/24 12/20/10
f 10/37/25 27/33/21 40/27/17
f 11/38/26 39/28/18 30/34/22
f 5/19/9 39/28/18 11/38/26 8/36/24
f 6/22/12 26/35/23 10/37/25 40/27/17
f 35/39/27 67/40/28 66/41/29
f 35/39/27 66/41/29 51/42/30 50/43/31
f 35/39/27 50/43/31 49/44/32 22/45/32
f 33/46/33 64/47/34 65/48/35
f 33/46/33 55/49/36 53/50/37 64/47/34
f 56/51/38 55/49/36 33/46/33 32/52/38
f 7/53/39 22/45/32 49/44/32 48/54/39
f 57/55/40 56/51/38 32/52/38 9/56/40
f 13/24/14 31/57/41 18/25/15
f 1/58/42 17/59/43 61/60/43 59/61/44
f 1/58/42 59/61/44 58/62/45
f 1/58/42 58/62/45 57/55/40 9/56/40
f 24/23/13 15/26/16 23/63/46
f 4/64/47 46/65/48 45/66/49 16/67/49
f 4/64/47 47/68/50 46/65/48
f 4/64/47 7/53/39 48/54/39 47/68/50
