o maschinä
v 8.985425 -3.202264 9.762872
v 9.230734 -2.777374 9.762872
v 9.230734 -2.286758 9.762872
v 7.399719 -2.286758 9.762872
v 7.399719 -2.777374 9.762872
v 7.645028 -3.202264 9.762872
v 8.069917 -3.447572 9.762872
v 8.560535 -3.447572 9.762872
v 8.985424 -3.202264 5.685351
v 9.230734 -2.777379 5.685351
v 9.230735 -2.286758 5.685351
v 7.399719 -2.286753 5.685351
v 7.399719 -2.777375 5.685351
v 7.645027 -3.202264 5.685351
v 8.069916 -3.447572 5.685351
v 8.560534 -3.447572 5.685351
v -7.603220 -3.214134 9.762872
v -7.357910 -2.789244 9.762872
v -7.357910 -2.298628 9.762872
v -9.188925 -2.298628 9.762872
v -9.188925 -2.789244 9.762872
v -8.943616 -3.214134 9.762872
v -8.518728 -3.459442 9.762872
v -8.028109 -3.459442 9.762872
v -7.603220 -3.214134 5.685352
v -7.357910 -2.789249 5.685352
v -7.357909 -2.298628 5.685352
v -9.188925 -2.298623 5.685352
v -9.188926 -2.789244 5.685352
v -8.943617 -3.214134 5.685352
v -8.518729 -3.459442 5.685352
v -8.028110 -3.459442 5.685352
v 10.156072 -3.283502 9.071839
v 9.661605 -4.139943 8.689745
v 6.465328 -3.283499 8.689745
v 7.816231 -4.634407 8.689745
v 8.310700 -2.287710 9.071839
v 8.310700 -2.287710 8.689745
v 9.661606 -4.139942 9.071839
v 8.805164 -4.634408 9.071839
v 7.816233 -4.634408 9.071839
v 6.959794 -4.139941 9.071839
v 6.465328 -3.283501 9.071839
v 6.465329 -2.294569 9.071839
v 10.156072 -2.294570 9.071839
v 8.805161 -4.634408 8.689745
v 6.959792 -4.139939 8.689745
v 6.465329 -2.294567 8.689745
v 10.156072 -3.283504 8.689745
v 10.156073 -2.294572 8.689745
v -6.428151 -2.294571 7.522577
v -10.118893 -2.294570 7.522577
v -9.624430 -4.139942 7.522577
v -8.767989 -4.634408 7.522577
v -6.922617 -4.139944 7.140483
v -6.428150 -2.294573 7.140483
v -7.779061 -4.634409 7.140483
v -8.273522 -2.287710 7.522577
v -8.273522 -2.287710 7.140483
v -6.922616 -4.139943 7.522577
v -7.779057 -4.634409 7.522577
v -10.118895 -3.283502 7.522577
v -6.428151 -3.283503 7.522577
v -8.767993 -4.634408 7.140483
v -9.624432 -4.139940 7.140483
v -10.118895 -3.283499 7.140483
v -10.118893 -2.294568 7.140483
v -6.428151 -3.283504 7.140483
v 10.156072 -3.283502 8.297208
v 6.465329 -2.294569 8.297208
v 6.465328 -3.283501 8.297208
v 7.816233 -4.634408 8.297208
v 10.156073 -2.294572 7.915113
v 6.465329 -2.294567 7.915113
v 6.465328 -3.283499 7.915113
v 6.959792 -4.139939 7.915114
v 8.310700 -2.287710 8.297208
v 8.310700 -2.287710 7.915113
v 9.661606 -4.139942 8.297208
v 8.805164 -4.634408 8.297208
v 6.959794 -4.139941 8.297208
v 10.156072 -2.294570 8.297208
v 9.661605 -4.139943 7.915114
v 8.805161 -4.634409 7.915114
v 7.816231 -4.634407 7.915114
v 10.156072 -3.283504 7.915113
v 9.661606 -4.139942 6.734114
v 10.156072 -3.283502 6.734113
v 6.465328 -3.283501 6.734113
v 8.805164 -4.634408 6.734114
v 9.661605 -4.139943 6.352020
v 10.156072 -3.283504 6.352020
v 10.156073 -2.294572 6.352020
v 7.816231 -4.634407 6.352020
v 8.805161 -4.634409 6.352020
v 8.310700 -2.287710 6.734113
v 8.310700 -2.287710 6.352020
v 7.816233 -4.634408 6.734114
v 6.959794 -4.139941 6.734114
v 6.465329 -2.294570 6.734113
v 10.156072 -2.294570 6.734113
v 6.959792 -4.139940 6.352020
v 6.465328 -3.283499 6.352020
v 6.465329 -2.294567 6.352020
v -6.922616 -4.139942 8.297208
v -10.118893 -2.294570 8.297207
v -7.779057 -4.634409 8.297208
v -6.922617 -4.139944 7.915114
v -6.428151 -3.283504 7.915113
v -10.118893 -2.294568 7.915113
v -8.273522 -2.287710 8.297207
v -8.273522 -2.287710 7.915113
v -8.767989 -4.634408 8.297208
v -9.624430 -4.139942 8.297208
v -10.118895 -3.283502 8.297208
v -6.428151 -3.283503 8.297208
v -6.428151 -2.294571 8.297207
v -7.779061 -4.634409 7.915114
v -8.767993 -4.634408 7.915114
v -9.624432 -4.139940 7.915114
v -10.118895 -3.283499 7.915113
v -6.428150 -2.294573 7.915113
v -6.428150 -2.294573 9.478209
v -8.767993 -4.634408 9.478209
v -8.273522 -2.287710 9.478209
v -6.922616 -4.139942 9.860302
v -7.779057 -4.634409 9.860302
v -8.767989 -4.634408 9.860302
v -9.624430 -4.139942 9.860302
v -10.118895 -3.283502 9.860302
v -10.118893 -2.294570 9.860302
v -6.428151 -3.283503 9.860302
v -6.428151 -2.294571 9.860302
v -6.922617 -4.139944 9.478209
v -7.779061 -4.634409 9.478209
v -9.624432 -4.139940 9.478209
v -10.118895 -3.283499 9.478209
v -10.118893 -2.294568 9.478209
v -6.428151 -3.283504 9.478209
v -6.922616 -4.139943 5.959484
v -8.767989 -4.634408 5.959484
v -6.922617 -4.139944 5.577390
v -6.428151 -3.283504 5.577389
v -6.428150 -2.294573 5.577389
v -10.118895 -3.283499 5.577389
v -9.624430 -4.139940 5.577390
v -8.273522 -2.287710 5.959483
v -8.273522 -2.287710 5.577389
v -7.779057 -4.634409 5.959484
v -9.624430 -4.139942 5.959484
v -10.118895 -3.283502 5.959483
v -10.118893 -2.294570 5.959483
v -6.428150 -3.283503 5.959483
v -6.428150 -2.294571 5.959483
v -7.779061 -4.634409 5.577390
v -8.767991 -4.634408 5.577390
v -10.118893 -2.294568 5.577389
v 9.661606 -4.139942 7.522578
v 10.156072 -3.283502 7.522577
v 6.465329 -2.294570 7.522577
v 6.959794 -4.139941 7.522578
v 10.156072 -3.283504 7.140483
v 6.465329 -2.294567 7.140483
v 6.465328 -3.283499 7.140483
v 7.816231 -4.634407 7.140484
v 8.805161 -4.634409 7.140484
v 8.310700 -2.287710 7.522577
v 8.310700 -2.287710 7.140483
v 8.805164 -4.634408 7.522578
v 7.816233 -4.634408 7.522578
v 6.465328 -3.283501 7.522577
v 10.156072 -2.294570 7.522577
v 9.661605 -4.139943 7.140484
v 6.959792 -4.139940 7.140484
v 10.156073 -2.294572 7.140483
v 9.661606 -4.139942 5.959484
v 10.156073 -2.294570 5.959483
v 6.465329 -3.283501 5.959483
v 7.816233 -4.634407 5.959484
v 6.465330 -2.294567 5.577389
v 7.816231 -4.634407 5.577390
v 8.310700 -2.287710 5.959483
v 8.310700 -2.287710 5.577389
v 8.805164 -4.634408 5.959484
v 6.959794 -4.139941 5.959484
v 6.465329 -2.294569 5.959483
v 10.156073 -3.283502 5.959483
v 9.661605 -4.139943 5.577390
v 8.805162 -4.634408 5.577390
v 6.959792 -4.139939 5.577390
v 6.465328 -3.283499 5.577389
v 10.156072 -3.283504 5.577389
v 10.156073 -2.294573 5.577389
v -6.428151 -2.294571 9.071839
v -6.428150 -2.294573 8.689745
v -10.118893 -2.294568 8.689745
v -10.118895 -3.283499 8.689745
v -8.273522 -2.287710 9.071839
v -8.273522 -2.287710 8.689745
v -6.922616 -4.139942 9.071839
v -7.779057 -4.634409 9.071839
v -8.767989 -4.634408 9.071839
v -9.624430 -4.139942 9.071839
v -10.118895 -3.283502 9.071839
v -10.118893 -2.294570 9.071839
v -6.428151 -3.283503 9.071839
v -6.922617 -4.139944 8.689745
v -7.779061 -4.634409 8.689745
v -8.767993 -4.634408 8.689745
v -9.624432 -4.139940 8.689745
v -6.428151 -3.283504 8.689745
v -10.118895 -3.283502 6.734113
v -9.624430 -4.139942 6.734114
v -8.767989 -4.634408 6.734114
v -7.779057 -4.634409 6.734114
v -6.922617 -4.139944 6.352020
v -6.428150 -2.294573 6.352019
v -10.118893 -2.294568 6.352019
v -10.118895 -3.283499 6.352019
v -9.624432 -4.139940 6.352020
v -8.273522 -2.287710 6.734113
v -8.273522 -2.287710 6.352019
v -6.922616 -4.139943 6.734114
v -10.118893 -2.294570 6.734113
v -6.428151 -3.283503 6.734113
v -6.428151 -2.294571 6.734113
v -7.779061 -4.634409 6.352020
v -8.767993 -4.634408 6.352020
v -6.428151 -3.283504 6.352019
v 10.156072 -3.283504 9.478209
v 10.156073 -2.294572 9.478209
v 6.465329 -2.294567 9.478209
v 6.959792 -4.139939 9.478209
v 8.310700 -2.287710 9.478209
v 9.661606 -4.139942 9.860303
v 8.805164 -4.634408 9.860303
v 7.816233 -4.634408 9.860303
v 6.959794 -4.139941 9.860303
v 6.465328 -3.283501 9.860303
v 6.465329 -2.294570 9.860303
v 10.156072 -3.283502 9.860303
v 10.156072 -2.294570 9.860303
v 9.661605 -4.139943 9.478209
v 8.805161 -4.634408 9.478209
v 7.816231 -4.634407 9.478209
v 6.465328 -3.283499 9.478209
vt 0.000001 0.714287
vt 0.551958 0.714286
vt 0.551958 0.857142
vt 0.000001 0.857144
vt 0.551959 0.999999
vt 0.000001 1.000000
vt 0.000000 0.000002
vt 0.551958 0.000000
vt 0.551958 0.142858
vt 0.000000 0.142858
vt 0.551958 0.285715
vt 0.000000 0.285716
vt 0.551958 0.428572
vt 0.000001 0.428573
vt 0.551958 0.571429
vt 0.000001 0.571430
vt 0.551960 0.479896
vt 0.922794 0.479898
vt 0.922794 0.575876
vt 0.551960 0.575875
vt 0.922793 0.671856
vt 0.551959 0.671853
vt 0.551959 0.000006
vt 0.922793 0.000000
vt 0.922794 0.095980
vt 0.551960 0.095985
vt 0.922795 0.191960
vt 0.551961 0.191963
vt 0.922795 0.287940
vt 0.551961 0.287941
vt 0.922795 0.383919
vt 0.551961 0.383919
vt 0.860905 0.859261
vt 0.990315 0.635117
vt 0.507352 0.505708
vt 0.990314 0.635118
vt 0.990315 0.376298
vt 0.990315 0.376299
vt 0.024389 0.376298
vt 0.024389 0.635117
vt 0.024389 0.635116
vt 0.024389 0.376297
vt 0.153798 0.859261
vt 0.153797 0.859260
vt 0.377942 0.988670
vt 0.377941 0.988670
vt 0.636761 0.988671
vt 0.636760 0.988671
vt 0.633352 0.993737
vt 0.858089 0.865359
vt 0.506164 0.510184
vt 0.950776 0.072960
vt 0.950776 0.204890
vt 0.655065 0.204890
vt 0.655064 0.072960
vt 0.313606 0.204890
vt 0.313606 0.072960
vt 0.313605 0.072960
vt 0.313605 0.204890
vt 0.655063 0.204890
vt 0.950775 0.204890
vt 0.041171 0.072960
vt 0.041170 0.204890
vt 0.336882 0.204890
vt 0.336883 0.072960
vt 0.678340 0.204890
vt 0.678341 0.072960
vt 0.324953 0.210167
vt 0.324953 0.078237
vt 0.029242 0.078237
vt 0.029240 0.210167
vn 0.710105 -0.704093 0.000000
vn 0.704062 -0.710105 0.000000
vn 0.964812 -0.262917 0.000000
vn 0.967009 -0.254707 0.000000
vn 1.000000 0.000000 0.000000
vn -1.000000 0.000000 0.000000
vn -0.967009 -0.254677 0.000000
vn -0.964812 -0.262917 0.000000
vn -0.710105 -0.704093 0.000000
vn -0.704093 -0.710105 0.000000
vn -0.262917 -0.964812 0.000000
vn -0.254707 -0.967009 0.000000
vn 0.254677 -0.967009 0.000000
vn 0.262917 -0.964812 0.000000
vn 0.558824 -0.557573 0.613819
vn 0.762749 -0.203467 0.613819
vn 0.000000 0.000000 1.000000
vn 0.000000 0.000000 -1.000000
vn 0.762291 -0.205145 -0.613819
vn 0.557573 -0.558824 -0.613819
vn 0.707083 0.000000 0.707083
vn 0.710959 0.000000 -0.703207
vn -0.710959 0.000000 0.703207
vn -0.762291 -0.205145 0.613819
vn -0.762749 -0.203467 -0.613819
vn -0.707083 0.000000 -0.707083
vn -0.557573 -0.558824 0.613819
vn -0.558824 -0.557573 -0.613819
vn -0.203467 -0.762749 0.613819
vn -0.205145 -0.762291 -0.613819
vn 0.205145 -0.762291 0.613819
vn 0.203467 -0.762749 -0.613819
vn -0.762291 -0.205145 0.613788
s 1
f 1/1/1 9/2/2 10/3/3
f 1/1/1 10/3/3 2/4/4
f 2/4/4 10/3/3 11/5/5
f 2/4/4 11/5/5 3/6/5
f 4/7/6 12/8/6 13/9/7
f 4/7/6 13/9/7 5/10/8
f 5/10/8 13/9/7 14/11/9
f 5/10/8 14/11/9 6/12/10
f 6/12/10 14/11/9 15/13/11
f 6/12/10 15/13/11 7/14/12
f 7/14/12 15/13/11 16/15/13
f 7/14/12 16/15/13 8/16/14
f 9/2/2 1/1/1 8/16/14
f 9/2/2 8/16/14 16/15/13
f 17/17/1 25/18/2 26/19/3
f 17/17/1 26/19/3 18/20/4
f 18/20/4 26/19/3 27/21/5
f 18/20/4 27/21/5 19/22/5
f 20/23/6 28/24/6 29/25/7
f 20/23/6 29/25/7 21/26/8
f 21/26/8 29/25/7 30/27/9
f 21/26/8 30/27/9 22/28/10
f 22/28/10 30/27/9 31/29/11
f 22/28/10 31/29/11 23/30/12
f 23/30/12 31/29/11 32/31/13
f 23/30/12 32/31/13 24/32/14
f 25/18/2 17/17/1 24/32/14
f 25/18/2 24/32/14 32/31/13
f 39/33/15 33/34/16 37/35/17
f 38/35/18 49/36/19 34/33/20
f 37/35/17 33/34/16 45/37/21
f 38/35/18 50/38/22 49/36/19
f 37/35/17 44/39/23 43/40/24
f 38/35/18 35/41/25 48/42/26
f 37/35/17 43/40/24 42/43/27
f 38/35/18 47/44/28 35/41/25
f 37/35/17 42/43/27 41/45/29
f 38/35/18 36/46/30 47/44/28
f 37/35/17 41/45/29 40/47/31
f 38/35/18 46/48/32 36/46/30
f 40/49/31 39/50/15 37/51/17
f 38/35/18 34/33/20 46/48/32
f 39/52/15 34/53/20 49/54/19
f 49/54/19 33/55/16 39/52/15
f 33/55/16 49/54/19 50/56/22
f 33/55/16 50/56/22 45/57/21
f 44/58/23 48/59/26 35/60/25
f 44/58/23 35/60/25 43/55/24
f 43/55/24 35/60/25 47/61/28
f 43/55/24 47/61/28 42/52/27
f 42/62/27 47/63/28 36/64/30
f 42/62/27 36/64/30 41/65/29
f 41/65/29 36/64/30 46/66/32
f 41/65/29 46/66/32 40/67/31
f 34/68/20 39/69/15 40/70/31
f 34/68/20 40/70/31 46/71/32
f 58/35/17 60/33/15 63/34/16
f 59/35/18 68/36/19 55/33/20
f 58/35/17 63/34/16 51/37/21
f 59/35/18 56/38/22 68/36/19
f 58/35/17 52/39/23 62/40/24
f 59/35/18 66/41/25 67/42/26
f 58/35/17 62/40/24 53/43/27
f 59/35/18 65/44/28 66/41/25
f 58/35/17 53/43/27 54/45/29
f 59/35/18 64/46/30 65/44/28
f 58/35/17 54/45/29 61/47/31
f 59/35/18 57/48/32 64/46/30
f 61/49/31 60/50/15 58/51/17
f 59/35/18 55/33/20 57/48/32
f 60/52/15 55/53/20 68/54/19
f 60/52/15 68/54/19 63/55/16
f 63/55/16 68/54/19 56/56/22
f 63/55/16 56/56/22 51/57/21
f 52/58/23 67/59/26 66/60/25
f 52/58/23 66/60/25 62/55/24
f 62/55/24 66/60/25 65/61/28
f 62/55/24 65/61/28 53/52/27
f 53/62/27 65/63/28 64/64/30
f 53/62/27 64/64/30 54/65/29
f 54/65/29 64/64/30 57/66/32
f 54/65/29 57/66/32 61/67/31
f 55/68/20 60/69/15 61/70/31
f 55/68/20 61/70/31 57/71/32
f 77/35/17 79/33/15 69/34/16
f 78/35/18 86/36/19 83/33/20
f 77/35/17 69/34/16 82/37/21
f 78/35/18 73/38/22 86/36/19
f 77/35/17 70/39/23 71/40/24
f 78/35/18 75/41/25 74/42/26
f 77/35/17 71/40/24 81/43/27
f 78/35/18 76/44/28 75/41/25
f 77/35/17 81/43/27 72/45/29
f 78/35/18 85/46/30 76/44/28
f 77/35/17 72/45/29 80/47/31
f 78/35/18 84/48/32 85/46/30
f 80/49/31 79/50/15 77/51/17
f 78/35/18 83/33/20 84/48/32
f 79/52/15 83/53/20 86/54/19
f 79/52/15 86/54/19 69/55/16
f 69/55/16 86/54/19 73/56/22
f 69/55/16 73/56/22 82/57/21
f 70/58/23 74/59/26 75/60/25
f 70/58/23 75/60/25 71/55/24
f 71/55/24 75/60/25 76/61/28
f 71/55/24 76/61/28 81/52/27
f 81/62/27 76/63/28 85/64/30
f 81/62/27 85/64/30 72/65/29
f 72/65/29 85/64/30 84/66/32
f 72/65/29 84/66/32 80/67/31
f 83/68/20 79/69/15 80/70/31
f 83/68/20 80/70/31 84/71/32
f 96/35/17 87/33/15 88/34/16
f 97/35/18 92/36/19 91/33/20
f 96/35/17 88/34/16 101/37/21
f 97/35/18 93/38/22 92/36/19
f 96/35/17 100/39/23 89/40/24
f 97/35/18 103/41/25 104/42/26
f 96/35/17 89/40/24 99/43/27
f 97/35/18 102/44/28 103/41/25
f 96/35/17 99/43/27 98/45/29
f 97/35/18 94/46/30 102/44/28
f 96/35/17 98/45/29 90/47/31
f 97/35/18 95/48/32 94/46/30
f 90/49/31 87/50/15 96/51/17
f 97/35/18 91/33/20 95/48/32
f 87/52/15 91/53/20 92/54/19
f 87/52/15 92/54/19 88/55/16
f 88/55/16 92/54/19 93/56/22
f 88/55/16 93/56/22 101/57/21
f 100/58/23 104/59/26 103/60/25
f 100/58/23 103/60/25 89/55/24
f 89/55/24 103/60/25 102/61/28
f 89/55/24 102/61/28 99/52/27
f 99/62/27 102/63/28 94/64/30
f 99/62/27 94/64/30 98/65/29
f 98/65/29 94/64/30 95/66/32
f 98/65/29 95/66/32 90/67/31
f 91/68/20 87/69/15 90/70/31
f 91/68/20 90/70/31 95/71/32
f 111/35/17 105/33/15 116/34/16
f 112/35/18 109/36/19 108/33/20
f 111/35/17 116/34/16 117/37/21
f 112/35/18 122/38/22 109/36/19
f 111/35/17 106/39/23 115/40/24
f 112/35/18 121/41/25 110/42/26
f 111/35/17 115/40/24 114/43/27
f 112/35/18 120/44/28 121/41/25
f 111/35/17 114/43/27 113/45/29
f 112/35/18 119/46/30 120/44/28
f 111/35/17 113/45/29 107/47/31
f 112/35/18 118/48/32 119/46/30
f 107/49/31 105/50/15 111/51/17
f 112/35/18 108/33/20 118/48/32
f 105/52/15 108/53/20 109/54/19
f 105/52/15 109/54/19 116/55/16
f 116/55/16 109/54/19 122/56/22
f 116/55/16 122/56/22 117/57/21
f 106/58/23 110/59/26 121/60/25
f 106/58/23 121/60/25 115/55/24
f 115/55/24 121/60/25 120/61/28
f 115/55/24 120/61/28 114/52/27
f 114/62/27 120/63/28 119/64/30
f 114/62/27 119/64/30 113/65/29
f 113/65/29 119/64/30 118/66/32
f 113/65/29 118/66/32 107/67/31
f 108/68/20 105/69/15 107/70/31
f 108/68/20 107/70/31 118/71/32
f 139/36/19 134/33/20 125/35/18
f 125/35/18 123/38/22 139/36/19
f 125/35/18 137/41/25 138/42/26
f 125/35/18 136/44/28 137/41/25
f 125/35/18 124/46/30 136/44/28
f 125/35/18 135/48/32 124/46/30
f 125/35/18 134/33/20 135/48/32
f 126/52/1 134/53/20 139/54/19
f 126/52/1 139/54/19 132/55/4
f 132/55/4 139/54/19 123/56/22
f 132/55/4 123/56/22 133/57/5
f 131/58/6 138/59/26 137/60/25
f 131/58/6 137/60/25 130/55/8
f 130/55/8 137/60/25 136/61/28
f 130/55/8 136/61/28 129/52/10
f 129/62/10 136/63/28 124/64/30
f 129/62/10 124/64/30 128/65/12
f 128/65/12 124/64/30 135/66/32
f 128/65/12 135/66/32 127/67/14
f 134/68/20 126/69/1 127/70/14
f 134/68/20 127/70/14 135/71/32
f 147/35/17 140/33/15 153/34/16
f 148/35/18 143/36/19 142/33/20
f 147/35/17 153/34/16 154/37/21
f 148/35/18 144/38/22 143/36/19
f 147/35/17 152/39/23 151/40/33
f 148/35/18 145/41/25 157/42/26
f 147/35/17 151/40/33 150/43/27
f 148/35/18 146/44/28 145/41/25
f 147/35/17 150/43/27 141/45/29
f 148/35/18 156/46/30 146/44/28
f 147/35/17 141/45/29 149/47/31
f 148/35/18 155/48/32 156/46/30
f 149/49/31 140/50/15 147/51/17
f 148/35/18 142/33/20 155/48/32
f 140/52/15 142/53/20 143/54/19
f 140/52/15 143/54/19 153/55/16
f 153/55/16 143/54/19 144/56/22
f 153/55/16 144/56/22 154/57/21
f 152/58/23 157/59/26 145/60/25
f 152/58/23 145/60/25 151/55/33
f 151/55/33 145/60/25 146/61/28
f 151/55/33 146/61/28 150/52/27
f 150/62/27 146/63/28 156/64/30
f 150/62/27 156/64/30 141/65/29
f 141/65/29 156/64/30 155/66/32
f 141/65/29 155/66/32 149/67/31
f 142/68/20 140/69/15 149/70/31
f 142/68/20 149/70/31 155/71/32
f 167/35/17 158/33/15 159/34/16
f 168/35/18 162/36/19 173/33/20
f 167/35/17 159/34/16 172/37/21
f 168/35/18 175/38/22 162/36/19
f 167/35/17 160/39/23 171/40/24
f 168/35/18 164/41/25 163/42/26
f 167/35/17 171/40/24 161/43/27
f 168/35/18 174/44/28 164/41/25
f 167/35/17 161/43/27 170/45/29
f 168/35/18 165/46/30 174/44/28
f 167/35/17 170/45/29 169/47/31
f 168/35/18 166/48/32 165/46/30
f 169/49/31 158/50/15 167/51/17
f 168/35/18 173/33/20 166/48/32
f 158/52/15 173/53/20 162/54/19
f 158/52/15 162/54/19 159/55/16
f 159/55/16 162/54/19 175/56/22
f 159/55/16 175/56/22 172/57/21
f 160/58/23 163/59/26 164/60/25
f 160/58/23 164/60/25 171/55/24
f 171/55/24 164/60/25 174/61/28
f 171/55/24 174/61/28 161/52/27
f 161/62/27 174/63/28 165/64/30
f 161/62/27 165/64/30 170/65/29
f 170/65/29 165/64/30 166/66/32
f 170/65/29 166/66/32 169/67/31
f 173/68/20 158/69/15 169/70/31
f 173/68/20 169/70/31 166/71/32
f 182/35/17 176/33/15 187/34/16
f 183/35/18 192/36/19 188/33/20
f 182/35/17 187/34/16 177/37/21
f 183/35/18 193/38/22 192/36/19
f 182/35/17 186/39/23 178/40/24
f 183/35/18 191/41/25 180/42/26
f 182/35/17 178/40/24 185/43/27
f 183/35/18 190/44/28 191/41/25
f 182/35/17 185/43/27 179/45/29
f 183/35/18 181/46/30 190/44/28
f 182/35/17 179/45/29 184/47/31
f 183/35/18 189/48/32 181/46/30
f 184/49/31 176/50/15 182/51/17
f 183/35/18 188/33/20 189/48/32
f 176/52/15 188/53/20 192/54/19
f 176/52/15 192/54/19 187/55/16
f 187/55/16 192/54/19 193/56/22
f 187/55/16 193/56/22 177/57/21
f 186/58/23 180/59/26 191/60/25
f 186/58/23 191/60/25 178/55/24
f 178/55/24 191/60/25 190/61/28
f 178/55/24 190/61/28 185/52/27
f 185/62/27 190/63/28 181/64/30
f 185/62/27 181/64/30 179/65/29
f 179/65/29 181/64/30 189/66/32
f 179/65/29 189/66/32 184/67/31
f 188/68/20 176/69/15 184/70/31
f 188/68/20 184/70/31 189/71/32
f 198/35/17 200/33/15 206/34/16
f 199/35/18 211/36/19 207/33/20
f 198/35/17 206/34/16 194/37/21
f 199/35/18 195/38/22 211/36/19
f 198/35/17 205/39/23 204/40/24
f 199/35/18 197/41/25 196/42/26
f 198/35/17 204/40/24 203/43/27
f 199/35/18 210/44/28 197/41/25
f 198/35/17 203/43/27 202/45/29
f 199/35/18 209/46/30 210/44/28
f 198/35/17 202/45/29 201/47/31
f 199/35/18 208/48/32 209/46/30
f 201/49/31 200/50/15 198/51/17
f 199/35/18 207/33/20 208/48/32
f 200/52/15 207/53/20 211/54/19
f 200/52/15 211/54/19 206/55/16
f 206/55/16 211/54/19 195/56/22
f 206/55/16 195/56/22 194/57/21
f 205/58/23 196/59/26 197/60/25
f 205/58/23 197/60/25 204/55/24
f 204/55/24 197/60/25 210/61/28
f 204/55/24 210/61/28 203/52/27
f 203/62/27 210/63/28 209/64/30
f 203/62/27 209/64/30 202/65/29
f 202/65/29 209/64/30 208/66/32
f 202/65/29 208/66/32 201/67/31
f 207/68/20 200/69/15 201/70/31
f 207/68/20 201/70/31 208/71/32
f 221/35/17 223/33/15 225/34/16
f 222/35/18 229/36/19 216/33/20
f 221/35/17 225/34/16 226/37/21
f 222/35/18 217/38/22 229/36/19
f 221/35/17 224/39/23 212/40/24
f 222/35/18 219/41/25 218/42/26
f 221/35/17 212/40/24 213/43/27
f 222/35/18 220/44/28 219/41/25
f 221/35/17 213/43/27 214/45/29
f 222/35/18 228/46/30 220/44/28
f 221/35/17 214/45/29 215/47/31
f 222/35/18 227/48/32 228/46/30
f 215/49/31 223/50/15 221/51/17
f 222/35/18 216/33/20 227/48/32
f 223/52/15 216/53/20 229/54/19
f 223/52/15 229/54/19 225/55/16
f 225/55/16 229/54/19 217/56/22
f 225/55/16 217/56/22 226/57/21
f 224/58/23 218/59/26 219/60/25
f 224/58/23 219/60/25 212/55/24
f 212/55/24 219/60/25 220/61/28
f 212/55/24 220/61/28 213/52/27
f 213/62/27 220/63/28 228/64/30
f 213/62/27 228/64/30 214/65/29
f 214/65/29 228/64/30 227/66/32
f 214/65/29 227/66/32 215/67/31
f 216/68/20 223/69/15 215/70/31
f 216/68/20 215/70/31 227/71/32
f 230/36/19 243/33/20 234/35/18
f 234/35/18 231/38/22 230/36/19
f 234/35/18 246/41/25 232/42/26
f 234/35/18 233/44/28 246/41/25
f 234/35/18 245/46/30 233/44/28
f 234/35/18 244/48/32 245/46/30
f 234/35/18 243/33/20 244/48/32
f 235/52/1 243/53/20 230/54/19
f 235/52/1 230/54/19 241/55/4
f 241/55/4 230/54/19 231/56/22
f 241/55/4 231/56/22 242/57/5
f 240/58/6 232/59/26 246/60/25
f 240/58/6 246/60/25 239/55/8
f 239/55/8 246/60/25 233/61/28
f 239/55/8 233/61/28 238/52/10
f 238/62/10 233/63/28 245/64/30
f 238/62/10 245/64/30 237/65/12
f 237/65/12 245/64/30 244/66/32
f 237/65/12 244/66/32 236/67/14
f 243/68/20 235/69/1 236/70/14
f 243/68/20 236/70/14 244/71/32
