o schacht
v 6.070402 -2.394777 9.848225
v 6.070402 -2.394777 9.848225
v 6.070403 -2.394778 -4.163807
v 6.070403 -2.394778 -4.163807
v 6.070403 -5.656240 -4.163815
v 10.453980 -5.656240 -4.164106
v 10.453980 -2.394778 -4.164097
v 10.453980 -2.394778 -4.164097
v 10.453971 -2.394777 9.847925
v 10.453971 -2.394777 9.847925
v 10.453971 -5.656230 9.847925
v 6.070402 -5.656230 9.848225
v -6.070394 -2.394777 9.848223
v -6.070394 -5.656230 9.848224
v -6.070394 -2.394777 9.848223
v -6.070393 -5.656240 -4.163816
v -6.070393 -2.394778 -4.163808
v -6.070393 -2.394778 -4.163808
v -10.453961 -2.394778 -4.164099
v -10.453961 -2.394778 -4.164099
v -10.453961 -5.656240 -4.164107
v -10.453963 -5.656230 9.847923
v -10.453963 -2.394777 9.847923
v -10.453963 -2.394777 9.847923
v 10.453971 -5.656230 9.847925
v -10.453961 -2.394778 -4.164099
v -6.070393 -2.394778 -4.163808
v -6.070394 -5.656230 9.848224
v 6.070403 -2.394778 -4.163807
v 10.453980 -2.394778 -4.164097
v 6.070402 -2.394777 9.848225
v 6.070402 -5.656230 9.848225
v -6.070394 -2.394777 9.848223
v -10.453961 -5.656240 -4.164107
v 6.070403 -5.656239 1.071865
v 6.070403 -5.656240 -4.163815
v 10.453980 -5.656240 -4.164106
v 10.453972 -5.656239 0.878625
v 10.453971 -2.394777 9.847925
v -6.070393 -5.656240 -4.163816
v -6.070393 -5.656239 1.071864
v -10.453962 -5.656239 0.878624
v -10.453963 -2.394777 9.847923
v -10.453963 -5.656230 9.847923
v 1.069463 -3.099184 -17.338215
v 1.069464 -2.864480 -22.948654
v -1.069450 -2.864480 -22.948656
v -1.069451 -3.099184 -17.338215
v -1.070684 -0.756866 -17.339668
v -1.070684 -0.756866 -17.339668
v -1.070684 -0.732972 -22.956844
v -1.070684 -0.732972 -22.956844
v 0.000007 -0.728534 -22.956881
v 1.070697 -0.732972 -22.956844
v 1.070697 -0.732972 -22.956844
v 1.070697 -0.756866 -17.339668
v 1.070697 -0.756866 -17.339668
v 0.000006 -0.756426 -17.339695
v 2.241191 -3.099184 -17.338215
v 2.242424 -0.756866 -17.339668
v -2.241178 -3.099184 -17.338215
v -2.242411 -0.756866 -17.339668
v -2.242438 0.018702 -17.332844
v -2.242438 0.018702 -17.332844
v 0.000006 0.018807 -17.332851
v 2.242450 0.018702 -17.332844
v 2.242450 0.018702 -17.332844
v 2.241190 -3.266451 -13.222458
v 2.242424 -0.769486 -13.219234
v 2.242450 0.012211 -13.213299
v 2.242450 0.012211 -13.213299
v 0.000006 0.012176 -13.213299
v -2.242438 0.012211 -13.213299
v -2.242438 0.012211 -13.213299
v -2.241179 -3.266451 -13.222458
v -2.242412 -0.769486 -13.219235
v 1.070697 -0.756866 -17.339668
v 2.242450 0.018702 -17.332844
v 0.000007 -2.860050 -22.948460
v -1.069450 -2.864480 -22.948656
v -1.070684 -0.732972 -22.956844
v -1.069451 -3.099184 -17.338215
v 2.241191 -3.099184 -17.338215
v 1.070697 -0.732972 -22.956844
v 1.069464 -2.864480 -22.948654
v 2.242424 -0.769486 -13.219234
v 2.242424 -0.756866 -17.339668
v -2.241178 -3.099184 -17.338215
v -2.242411 -0.756866 -17.339668
v -2.242438 0.012211 -13.213299
v 0.000007 -0.728534 -22.956881
v 2.241190 -3.266451 -13.222458
v 1.069463 -3.099184 -17.338215
v 0.000006 0.018807 -17.332851
v 2.242450 0.012211 -13.213299
v -2.241179 -3.266451 -13.222458
v -2.242438 0.018702 -17.332844
v -1.070684 -0.756866 -17.339668
v 0.000006 -0.756426 -17.339695
v 0.000006 -0.769522 -13.219234
v 0.000006 -3.266487 -13.222458
v -2.242412 -0.769486 -13.219235
v 0.000006 0.012176 -13.213299
vt 0.007813 0.320313
vt 1.000000 0.007813
vt 1.000000 0.320313
vt 0.007813 0.007813
vt 1.000000 0.765625
vt 0.687500 1.000000
vt 0.687500 0.765625
vt 1.000000 1.000000
vt 0.632813 0.304688
vt 0.007813 0.546875
vt 0.007813 0.304688
vt 0.703125 0.546875
vt 0.468750 0.234375
vt 0.703125 0.234375
vt 0.468750 0.546875
vt 0.007813 0.773438
vt 1.000000 0.546875
vt 0.640625 0.773438
vt 1.000000 0.773438
vt 1.000000 0.632813
vt 0.007813 0.632813
vt 0.703125 0.007813
vt 0.390625 0.007813
vt 0.390625 0.234375
vt 1.000000 0.070313
vt 1.000000 0.304688
vt 0.007813 0.843750
vt 0.007813 0.609375
vt 0.320313 0.843750
vt 0.320313 0.609375
vt 0.007813 1.000000
vt 0.554688 0.851563
vt 0.468750 1.000000
vt 0.468750 0.851563
vt 0.554688 1.000000
vt 0.710938 0.554688
vt 1.000000 0.367188
vt 0.710938 0.367188
vt 0.109375 0.296875
vt 0.515625 0.132813
vt 0.515625 0.281250
vt 0.109375 0.132813
vt 0.328125 0.375000
vt 0.164063 0.406250
vt 0.171875 0.343750
vt 0.328125 0.429688
vt 1.000000 0.312500
vt 0.710938 0.312500
vt 0.703125 0.328125
vt 1.000000 0.171875
vt 1.000000 0.328125
vt 0.703125 0.171875
vt 0.335938 0.343750
vt 0.007813 0.929688
vt 0.398438 1.000000
vt 0.398438 0.929688
vt 0.648438 0.843750
vt 0.492188 0.671875
vt 0.648438 0.671875
vt 0.492188 0.843750
vt 0.492188 0.609375
vt 0.648438 0.609375
vt 0.398438 0.851563
vt 1.000000 0.554688
vt 1.000000 0.718750
vt 0.703125 0.718750
vt 0.593750 0.156250
vt 0.593750 0.320313
vt 0.015625 0.328125
vt 0.007813 0.382813
vt 0.703125 0.773438
vt 0.171875 0.328125
vt 0.398438 0.843750
vt 0.328125 0.671875
vt 0.328125 0.843750
vt 0.328125 0.609375
vt 0.132813 0.078125
vt 0.132813 0.257813
vt 0.054688 0.078125
vt 0.054688 0.257813
vt 0.328125 0.257813
vt 0.414063 0.257813
vt 0.304688 0.437500
vt 0.414063 0.468750
vt 0.007813 0.070313
vn 0.000000 -1.000000 0.000000
vn 0.000061 0.000000 1.000000
vn 1.000000 0.000000 0.000000
vn -0.000061 0.000000 -1.000000
vn -1.000000 0.000000 0.000000
vn -0.000061 0.000000 1.000000
vn 0.000061 0.000000 -1.000000
vn 0.000031 0.003876 0.999969
vn 0.000000 0.003815 0.999969
vn 0.000000 0.003937 0.999969
vn -0.999969 0.000488 0.000000
vn -0.999969 0.000336 0.000000
vn -0.999969 0.000519 0.000000
vn -1.000000 0.000183 0.000000
vn -0.999969 0.000549 0.000000
vn 0.000000 0.022370 0.999725
vn 0.000000 -0.008789 0.999939
vn 0.000000 0.027680 0.999603
vn -1.000000 0.000031 0.000000
vn 0.000000 -0.999969 -0.001587
vn -0.000031 -0.999969 -0.001556
vn 0.000000 0.027528 0.999603
vn 0.000000 -0.999969 -0.004486
vn -0.002258 -0.999969 -0.004608
vn -0.000397 -0.999969 -0.004242
vn 0.000000 -0.999969 -0.004944
vn 0.000000 0.001282 -0.999969
vn 0.000000 0.003265 -0.999969
vn 0.000000 0.005280 -0.999969
vn 0.000000 0.007569 -0.999969
vn -0.000031 0.003876 0.999969
vn 0.999969 0.000519 0.000000
vn 0.999969 0.000336 0.000000
vn 0.999969 0.000488 0.000000
vn 1.000000 0.000183 0.000000
vn 0.999969 0.000549 0.000000
vn 1.000000 0.000031 0.000000
vn 0.000031 -0.999969 -0.001556
vn 0.000397 -0.999969 -0.004242
vn 0.002258 -0.999969 -0.004608
vn 0.000000 0.000610 0.999969
s 1
f 10/1/1 3/2/1 8/3/1
f 3/2/1 10/1/1 2/4/1
f 6/5/2 4/6/2 5/7/2
f 4/6/2 6/5/2 7/8/2
f 35/9/3 1/10/3 12/11/3
f 32/12/4 9/13/4 11/14/4
f 9/13/4 32/12/4 31/15/4
f 25/16/5 30/17/5 38/18/5
f 30/17/5 25/16/5 39/10/5
f 38/18/5 30/17/5 37/19/5
f 20/3/1 18/20/1 24/1/1
f 15/21/1 24/1/1 18/20/1
f 16/22/6 17/14/6 21/23/6
f 19/24/6 21/23/6 17/14/6
f 41/9/5 27/25/5 40/26/5
f 22/27/7 23/28/7 14/29/7
f 13/30/7 14/29/7 23/28/7
f 26/8/3 44/16/3 42/18/3
f 43/31/3 44/16/3 26/8/3
f 26/8/3 42/18/3 34/19/3
f 46/32/8 53/33/9 79/34/10
f 53/33/9 46/32/8 55/35/9
f 68/36/11 60/37/12 59/17/13
f 60/37/12 68/36/11 69/38/14
f 45/39/13 54/40/13 85/41/15
f 54/40/13 45/39/13 57/42/13
f 87/43/16 65/44/17 58/45/18
f 65/44/17 87/43/16 67/46/17
f 69/38/14 66/47/19 60/37/12
f 66/47/19 69/38/14 71/48/19
f 70/49/20 94/50/20 78/51/21
f 70/49/20 72/52/20 94/50/20
f 58/45/18 56/53/22 87/43/16
f 99/54/23 84/55/24 77/31/25
f 99/54/23 91/56/26 84/55/24
f 92/57/27 100/58/28 86/59/29
f 100/58/28 92/57/27 101/60/27
f 86/59/29 103/61/30 95/62/30
f 103/61/30 86/59/29 100/58/28
f 79/34/10 53/33/9 47/63/31
f 52/55/9 47/63/31 53/33/9
f 61/64/32 62/65/33 75/12/34
f 76/66/35 75/12/34 62/65/33
f 80/50/36 51/3/32 48/67/32
f 50/68/32 48/67/32 51/3/32
f 58/45/18 65/44/17 89/69/16
f 64/70/17 89/69/16 65/44/17
f 62/65/33 63/19/37 76/66/35
f 74/71/37 76/66/35 63/19/37
f 97/2/38 94/50/20 73/22/20
f 72/52/20 73/22/20 94/50/20
f 89/69/16 49/72/22 58/45/18
f 98/27/39 81/73/40 99/54/23
f 81/73/40 91/56/26 99/54/23
f 102/74/29 100/58/28 96/75/27
f 101/60/27 96/75/27 100/58/28
f 90/76/30 103/61/30 102/74/29
f 102/74/29 103/61/30 100/58/28
f 82/77/41 49/78/22 88/79/41
f 49/78/22 89/80/16 88/79/41
f 93/81/41 83/82/41 56/83/22
f 83/82/41 87/84/16 56/83/22
f 28/11/5 33/85/5 41/9/5
f 33/85/5 27/25/5 41/9/5
f 1/10/3 35/9/3 29/17/3
f 35/9/3 36/26/3 29/17/3
