# OBJ written from C:\Users\rivalin\Desktop\utility_ship_collision.obj

o Collision
v -10.9718 -1.1 -20
v 10.9718 -1.1 -20
v -5.13849 -4.6 -20
v -5.13849 4.6 -20
v 5.13849 -4.6 -20
v 5.13849 4.6 -20
v -11.9437 -1.1 14.1
v 11.9437 -1.1 14.1
v -5.27698 -5.1 14.1
v -5.27698 5.1 14.1
v 5.27698 -5.1 14.1
v 5.27698 5.1 14.1
v -11.9437 -1.1 -20
v 11.9437 -1.1 -20
v -5.27698 -5.1 -20
v -5.27698 5.1 -20
v 5.27698 -5.1 -20
v 5.27698 5.1 -20
v -10.9718 1.1 -20
v 10.9718 1.1 -20
v -11.9437 1.1 14.1
v 11.9437 1.1 14.1
v -11.9437 1.1 -20
v 11.9437 1.1 -20
v -5.13849 -1.1 -32
v 5.13849 -1.1 -32
v -5.13849 1.1 -32
v 5.13849 1.1 -32
v -10.9718 -1.1 -27
v -10.9718 1.1 -27
v -5.13849 -4.6 -27
v -5.13849 4.6 -27
v 5.13849 -4.6 -27
v 5.13849 4.6 -27
v 10.9718 -1.1 -27
v 10.9718 1.1 -27
v -12.4937 -0.353303 -14.875
v 12.4937 -0.353303 -14.875
v -12.4937 0.353303 -14.875
v 12.4937 0.353303 -14.875
v 12.4937 -0.353303 -18.125
v -12.4937 -0.353303 -18.125
v -12.4937 0.353303 -18.125
v 12.4937 0.353303 -18.125
v -15.2937 -0.353303 -14.875
v 15.2937 -0.353303 -14.875
v -15.2937 0.353303 -14.875
v 15.2937 0.353303 -14.875
v 15.2937 -0.353303 -16.625
v -15.2937 -0.353303 -16.625
v -15.2937 0.353303 -16.625
v 15.2937 0.353303 -16.625
v -11.9437 -1.1 6.8
v 11.9437 -1.1 6.8
v -6.30598 -4.4826 6.8
v -6.30598 4.4826 6.8
v 6.30598 -4.4826 6.8
v 6.30598 4.4826 6.8
v -11.9437 -1.1 -18.8
v 11.9437 -1.1 -18.8
v -6.30598 -4.4826 -18.8
v -6.30598 4.4826 -18.8
v 6.30598 -4.4826 -18.8
v 6.30598 4.4826 -18.8
v -11.9437 1.1 6.8
v 11.9437 1.1 6.8
v -11.9437 1.1 -18.8
v 11.9437 1.1 -18.8
v 11.9437 -1.1 -14.2
v 6.30598 -4.4826 -14.2
v 11.9437 -1.1 2.2
v 6.30598 -4.4826 2.2
v -6.30598 -4.4826 -14.2
v -6.30598 -4.4826 2.2
v -11.9437 -1.1 -14.2
v -11.9437 -1.1 2.2
v -11.9437 1.1 -14.2
v -11.9437 1.1 2.2
v 11.9437 1.1 -14.2
v 11.9437 1.1 2.2
v 6.30598 4.4826 -14.2
v 6.30598 4.4826 2.2
v -6.30598 4.4826 -14.2
v -6.30598 4.4826 2.2
v -12.7437 -1.55295 6.8
v 12.7437 -1.55295 6.8
v -12.7437 -1.55295 -18.8
v 12.7437 -1.55295 -18.8
v -12.7437 1.55295 6.8
v 12.7437 1.55295 6.8
v -12.7437 1.55295 -18.8
v 12.7437 1.55295 -18.8
v 12.7437 -1.55295 -14.2
v 12.7437 -1.55295 2.2
v -12.7437 -1.55295 -14.2
v -12.7437 -1.55295 2.2
v -12.7437 1.55295 -14.2
v -12.7437 1.55295 2.2
v 12.7437 1.55295 -14.2
v 12.7437 1.55295 2.2
v -6.48605 4.78273 6.8
v -7.10344 4.93708 6.8
v 6.48605 4.78273 6.8
v 7.10344 4.93708 6.8
v -6.48605 4.78273 -18.8
v -7.10344 4.93708 -18.8
v 6.48605 4.78273 -18.8
v 7.10344 4.93708 -18.8
v 6.48605 4.78273 -14.2
v 7.10344 4.93708 -14.2
v 6.48605 4.78273 2.2
v 7.10344 4.93708 2.2
v -6.48605 4.78273 -14.2
v -7.10344 4.93708 -14.2
v -6.48605 4.78273 2.2
v -7.10344 4.93708 2.2
v -6.48605 -4.78273 6.8
v -7.10344 -4.93708 6.8
v 6.48605 -4.78273 6.8
v 7.10344 -4.93708 6.8
v -6.48605 -4.78273 -18.8
v -7.10344 -4.93708 -18.8
v 6.48605 -4.78273 -18.8
v 7.10344 -4.93708 -18.8
v 6.48605 -4.78273 -14.2
v 7.10344 -4.93708 -14.2
v 6.48605 -4.78273 2.2
v 7.10344 -4.93708 2.2
v -6.48605 -4.78273 -14.2
v -7.10344 -4.93708 -14.2
v -6.48605 -4.78273 2.2
v -7.10344 -4.93708 2.2
v -2.28746 6.052 -15.0058
v -2.28746 6.052 -17.9942
v 2.28746 6.052 -17.9942
v 2.28746 6.052 -15.0058
v -2.28746 5.052 -15.0058
v -2.28746 5.052 -17.9942
v 2.28746 5.052 -17.9942
v 2.28746 5.052 -15.0058
v -3.28746 5.052 -15.0058
v -3.28746 5.052 -17.9942
v 3.28746 5.052 -17.9942
v 3.28746 5.052 -15.0058
v -2.28746 6.052 5.99419
v -2.28746 6.052 3.00581
v 2.28746 6.052 3.00581
v 2.28746 6.052 5.99419
v -2.28746 5.052 5.99419
v -2.28746 5.052 3.00581
v 2.28746 5.052 3.00581
v 2.28746 5.052 5.99419
v -3.28746 5.052 5.99419
v -3.28746 5.052 3.00581
v 3.28746 5.052 3.00581
v 3.28746 5.052 5.99419
v 4.67698 -5.1 -19.275
v -4.67698 -5.1 -19.275
v 4.67698 -5.55 -19.275
v 1.92698 -8.3 -19.275
v -4.67698 -5.55 -19.275
v -1.92698 -8.3 -19.275
v 4.67698 -5.1 7.275
v -4.67698 -5.1 7.275
v 4.67698 -5.55 7.275
v 1.92698 -8.3 7.275
v -4.67698 -5.55 7.275
v -1.92698 -8.3 7.275
v 2 -5.525 9
v -2 -5.525 9
v -2 5.525 9
v 2 5.525 9
v -2 -5.525 14.5
v 2 -5.525 14.5
v 2 5.525 14.5
v -2 5.525 14.5
v -2 -4.025 16.5
v 2 -4.025 16.5
v 2 4.025 16.5
v -2 4.025 16.5
v -11.0037 -0.567781 14.1
v 11.0037 -0.567781 14.1
v -5.01662 -4.16 14.1
v -5.01662 4.16 14.1
v 5.01662 -4.16 14.1
v 5.01662 4.16 14.1
v -11.0037 0.567781 14.1
v 11.0037 0.567781 14.1
v -11.0037 -0.567781 15.4
v 11.0037 -0.567781 15.4
v -5.01662 -4.16 15.4
v -5.01662 4.16 15.4
v 5.01662 -4.16 15.4
v 5.01662 4.16 15.4
v -11.0037 0.567781 15.4
v 11.0037 0.567781 15.4
vn 0 0 -1
vn 0.226447 0.797951 -0.558566
vn 0.339682 0.857334 -0.386774
vn 0.495816 0.826357 -0.26702
vn -0.226447 -0.797951 -0.558566
vn -0.339682 -0.857334 -0.386774
vn -0.495816 -0.826357 -0.26702
vn -0.226447 0.797951 -0.558566
vn -0.495816 0.826357 -0.26702
vn -0.339682 0.857334 -0.386774
vn 0.226447 -0.797951 -0.558566
vn 0.495816 -0.826357 -0.26702
vn 0.339682 -0.857334 -0.386774
vn 0.15691 -0.908614 -0.38704
vn -0.15691 -0.908614 -0.38704
vn -0.15691 0.908614 -0.38704
vn 0.15691 0.908614 -0.38704
vn 0.184713 -0.960986 -0.205882
vn 0.266934 -0.963715 0
vn -0.266934 -0.963715 0
vn -0.184713 -0.960986 -0.205882
vn 1 0 0
vn -1 0 0
vn 0.184713 0.960986 -0.205882
vn -0.184713 0.960986 -0.205882
vn -0.266934 0.963715 0
vn 0.266934 0.963715 0
vn 0.650793 0 -0.759255
vn -0.650793 0 -0.759255
vn 0 0 1
vn 0 -1 0
vn 0.472221 0 -0.88148
vn 0 1 0
vn -0.472221 0 -0.88148
vn -0.242539 0.970142 0
vn 0.242539 0.970142 0
vn -0.857503 0.514479 0
vn 0.857503 0.514479 0
vn 0.514493 0.857495 0
vn -0.514493 0.857495 0
vn 0.242539 -0.970142 0
vn -0.242539 -0.970142 0
vn -0.857503 -0.514479 0
vn 0.857503 -0.514479 0
vn 0.514493 -0.857495 0
vn -0.514493 -0.857495 0
vn -0.707107 0.707107 0
vn 0.707107 0.707107 0
vn 0 0.948683 0.316228
vn 0 -0.948683 0.316228
vn 0 0.8 0.6
vn 0 -0.8 0.6
vn -0.266932 -0.963715 0
vn 0.266932 -0.963715 0
vn 0.266932 0.963715 0
vn -0.266932 0.963715 0
vn -0.266932 -0.963715 0
vn 0.266932 -0.963715 0
vn -0.266932 0.963715 0
vn 0.266932 0.963715 0
vn -0.514497 -0.857492 0
vn -0.339992 -0.922431 -0.183102
vn -0.514493 0.857495 0
vn -0.514497 0.857492 0
vn -0.339992 0.922431 -0.183102
vn 0.514493 -0.857495 0
vn -0.514493 -0.857495 0
vn 0.514493 0.857495 0
vn -0.514493 -0.857495 0
vn 0.514497 -0.857492 0
vn 0.339992 -0.922431 -0.183102
vn -0.514493 0.857495 0
vn 0.514497 0.857492 0
vn 0.339992 0.922431 -0.183102
vn 0.514493 0.857495 0
vn 0.514493 -0.857495 0
vn -0.707107 -0.707107 0
vn 0.707107 -0.707107 0
mtllib utility_ship_collision.mtl
usemtl hull
g Default
f 1//1 13//1 23//1 19//1
f 14//1 2//1 20//1 24//1
f 18//1 6//1 4//1 16//1
f 17//1 15//1 3//1 5//1
f 28//1 26//1 25//1 27//1
f 28//2 34//3 36//4
f 25//5 31//6 29//7
f 27//8 30//9 32//10
f 26//11 35//12 33//13
f 33//14 31//15 25//5 26//11
f 28//2 27//8 32//16 34//17
f 33//18 5//19 3//20 31//21
f 35//22 36//22 20//22 2//22
f 30//23 29//23 1//23 19//23
f 34//24 32//25 4//26 6//27
f 35//28 26//28 28//28 36//28
f 25//29 29//29 30//29 27//29
f 40//30 38//30 46//30 48//30
f 38//31 41//31 49//31 46//31
f 41//32 44//32 52//32 49//32
f 44//33 40//33 48//33 52//33
f 37//30 39//30 47//30 45//30
f 39//33 43//33 51//33 47//33
f 43//34 42//34 50//34 51//34
f 42//31 37//31 45//31 50//31
f 50//23 45//23 47//23 51//23
f 52//22 48//22 46//22 49//22
f 100//1 94//1 71//1 80//1
f 86//30 90//30 66//30 54//30
f 89//30 85//30 53//30 65//30
f 96//1 98//1 78//1 76//1
f 93//30 99//30 79//30 69//30
f 92//1 88//1 60//1 68//1
f 87//1 91//1 67//1 59//1
f 97//30 95//30 75//30 77//30
f 87//23 95//23 97//23 91//23
f 96//23 85//23 89//23 98//23
f 92//22 99//22 93//22 88//22
f 100//22 90//22 86//22 94//22
f 110//35 108//35 107//35 109//35
f 113//36 105//36 106//36 114//36
f 104//35 112//35 111//35 103//35
f 116//36 102//36 101//36 115//36
f 100//1 80//1 82//1 111//1 112//1
f 58//37 103//37 111//37 82//37
f 90//30 104//30 103//30 58//30 66//30
f 89//30 65//30 56//30 101//30 102//30
f 84//38 115//38 101//38 56//38
f 98//1 116//1 115//1 84//1 78//1
f 92//1 68//1 64//1 107//1 108//1
f 81//37 109//37 107//37 64//37
f 99//30 110//30 109//30 81//30 79//30
f 62//38 105//38 113//38 83//38
f 91//1 106//1 105//1 62//1 67//1
f 97//30 77//30 83//30 113//30 114//30
f 110//39 99//39 92//39 108//39
f 104//39 90//39 100//39 112//39
f 97//40 114//40 106//40 91//40
f 89//40 102//40 116//40 98//40
f 130//41 122//41 121//41 129//41
f 125//42 123//42 124//42 126//42
f 128//42 120//42 119//42 127//42
f 118//41 132//41 131//41 117//41
f 94//1 128//1 127//1 72//1 71//1
f 86//30 54//30 57//30 119//30 120//30
f 72//43 127//43 119//43 57//43
f 96//1 76//1 74//1 131//1 132//1
f 55//44 117//44 131//44 74//44
f 85//30 118//30 117//30 55//30 53//30
f 93//30 69//30 70//30 125//30 126//30
f 63//43 123//43 125//43 70//43
f 88//1 124//1 123//1 63//1 60//1
f 87//1 59//1 61//1 121//1 122//1
f 73//44 129//44 121//44 61//44
f 95//30 130//30 129//30 73//30 75//30
f 93//45 126//45 124//45 88//45
f 86//45 120//45 128//45 94//45
f 130//46 95//46 87//46 122//46
f 118//46 85//46 96//46 132//46
f 134//1 135//1 139//1 138//1
f 136//30 133//30 137//30 140//30
f 136//33 135//33 134//33 133//33
f 133//47 134//47 142//47 141//47
f 135//48 136//48 144//48 143//48
f 136//30 140//30 144//30
f 139//1 135//1 143//1
f 137//30 133//30 141//30
f 134//1 138//1 142//1
f 146//1 147//1 151//1 150//1
f 148//30 145//30 149//30 152//30
f 148//33 147//33 146//33 145//33
f 145//47 146//47 154//47 153//47
f 147//48 148//48 156//48 155//48
f 148//30 152//30 156//30
f 151//1 147//1 155//1
f 149//30 145//30 153//30
f 146//1 150//1 154//1
f 160//1 162//1 161//1 158//1 157//1 159//1
f 168//30 166//30 165//30 163//30 164//30 167//30
f 171//1 172//1 169//1 170//1
f 171//23 170//23 173//23 176//23
f 169//22 172//22 175//22 174//22
f 172//33 171//33 176//49 175//49
f 170//31 169//31 174//50 173//50
f 175//49 176//49 180//51 179//51
f 176//23 173//23 177//23 180//23
f 173//50 174//50 178//52 177//52
f 174//22 175//22 179//22 178//22
f 177//30 178//30 179//30 180//30
f 21//30 7//30 181//30 187//30
f 9//30 11//30 185//30 183//30
f 8//30 22//30 188//30 182//30
f 12//30 10//30 184//30 186//30
f 187//23 181//23 189//23 195//23
f 183//53 185//54 193//54 191//53
f 182//22 188//22 196//22 190//22
f 186//55 184//56 192//56 194//55
f 22//22 8//22 14//22 24//22
f 7//23 21//23 23//23 13//23
f 9//57 15//57 17//58 11//58
f 10//59 12//60 18//60 16//59
f 1//61 29//7 31//62 3//20
f 187//63 195//63 192//56 184//56
f 30//9 19//64 4//26 32//65
f 14//66 8//66 11//58 17//58
f 181//67 183//53 191//53 189//67
f 22//68 24//68 18//60 12//60
f 14//1 17//1 5//1 2//1
f 24//1 20//1 6//1 18//1
f 22//30 12//30 186//30 188//30
f 8//30 182//30 185//30 11//30
f 7//69 13//69 15//57 9//57
f 35//12 2//70 5//19 33//71
f 23//72 21//72 10//59 16//59
f 13//1 1//1 3//1 15//1
f 20//73 36//4 34//74 6//27
f 188//75 186//55 194//55 196//75
f 23//1 16//1 4//1 19//1
f 21//30 187//30 184//30 10//30
f 7//30 9//30 183//30 181//30
f 182//76 190//76 193//54 185//54
f 195//30 189//30 191//30 193//30 190//30 196//30 194//30 192//30
f 166//31 168//31 162//31 160//31
f 168//77 167//77 161//77 162//77
f 165//78 166//78 160//78 159//78
f 163//22 165//22 159//22 157//22
f 167//23 164//23 158//23 161//23
