o bot
v 8.983537 -3.261580 8.823359
v 4.995111 -1.121683 8.810859
v -9.004807 -3.261580 8.823358
v -5.009267 -1.121683 8.810858
v 8.983538 3.361180 8.823361
v 5.971452 1.510012 8.818672
v 0.074560 3.361180 8.823385
v 0.997285 1.510012 8.818672
v -1.002631 1.510012 8.818672
v -6.001288 1.510012 8.818671
v -9.004800 3.361180 8.823359
v 13.996792 0.001174 6.822271
v -14.002988 0.001174 6.821202
v 4.995113 0.001174 -9.173533
v -5.003099 0.001174 -9.173533
v -14.010162 0.001174 -2.176066
v 13.996020 0.001174 -2.181983
v 8.983537 -3.261580 8.823359
v 8.983537 -3.261580 8.823359
v 8.983537 -3.261580 8.823359
v 13.996792 0.001174 6.822271
v 8.983538 3.361180 8.823361
v 13.996020 0.001174 -2.181983
v -9.004807 -3.261580 8.823358
v -9.004807 -3.261580 8.823358
v -14.002988 0.001174 6.821202
v -14.010162 0.001174 -2.176066
v -9.004807 -3.261580 8.823358
v -9.004800 3.361180 8.823359
vt 0.465776 0.237628
vt 0.507864 0.322065
vt 0.556998 0.237628
vt 0.101501 0.322065
vt 0.101501 0.019982
vt -0.127168 0.168806
vt 0.922000 0.322065
vt 1.149981 0.168806
vt 0.922000 0.019982
vt 0.742530 -0.183161
vt 0.934821 1.460129
vt 1.175338 0.455775
vt -0.170417 0.455235
vt 0.070443 1.460129
vt 0.262096 -0.183161
vt -0.170454 1.277411
vt 1.174994 1.277313
vt 0.283424 0.117589
vt 0.739752 0.117589
vt 0.238890 0.237628
vt 0.785001 0.237628
vn 0.000000 -0.002655 0.999969
vn 0.000000 -0.002533 0.999969
vn 0.370708 0.000000 0.928739
vn -0.371838 0.000000 0.928281
vn -0.082308 -0.977233 -0.195471
vn -0.164037 -0.963561 -0.211158
vn 0.163915 -0.963622 -0.211005
vn 0.082247 -0.977264 -0.195379
vn 0.545457 -0.838130 -0.000031
vn -0.546739 -0.837275 0.000427
vn -0.001221 0.002625 0.999969
vn -0.000885 0.000000 0.999969
vn 0.000885 0.000000 0.999969
vn 0.001221 0.002625 0.999969
vn -0.001221 -0.001556 0.999969
vn 0.001221 -0.001556 0.999969
s 1
f 8/1/1 7/2/2 9/3/1
f 22/4/3 19/5/3 21/6/3
f 29/7/4 13/8/4 28/9/4
f 15/10/5 25/11/5 16/12/6
f 23/13/7 18/14/8 14/15/8
f 1/14/9 17/13/9 12/16/9
f 27/12/10 24/11/10 26/17/10
f 18/14/8 25/11/5 15/10/5 14/15/8
f 20/5/11 2/18/12 4/19/13 3/9/14
f 20/5/11 5/4/15 6/20/15 2/18/12
f 5/4/15 7/2/2 8/1/1 6/20/15
f 9/3/1 7/2/2 11/7/16 10/21/16
f 10/21/16 11/7/16 3/9/14 4/19/13
f 9/3/1 4/19/13 2/18/12 8/1/1
