o 001
v 1.808810 0.879183 -9.984962
v 1.384806 1.513747 -9.983442
v 0.750238 1.937751 -9.982430
v -2.129900 5.273243 -8.477414
v -3.936996 4.065784 -8.480296
v -1.805380 0.879183 -9.984962
v -5.144459 2.258693 -8.484611
v -1.954271 0.130659 -9.986737
v -1.805380 -0.617864 -9.988535
v -5.144458 -2.004526 -8.494794
v -0.746808 -1.676430 -9.991059
v 0.750239 -1.676430 -9.991059
v 1.384806 -1.252429 -9.990049
v 1.808810 -0.617864 -9.988535
v 5.147888 -2.004526 -8.494795
v 5.896412 6.015154 -5.709445
v -5.892981 -5.774207 -5.737609
v 9.086600 3.874914 -2.100358
v -3.761364 -8.973021 -2.131051
v 0.001715 -9.721544 -2.132838
v 3.764799 -8.973021 -2.131051
v -9.831692 0.102495 1.802615
v 8.338076 0.093861 5.416800
v -7.700078 -3.096318 5.409177
v 0.001715 -8.242478 5.396883
v 2.133330 5.233407 8.195262
v -5.144459 2.218862 8.188065
v -5.568463 0.087251 8.182977
v -5.144458 -2.044358 8.177879
v -2.129898 -5.058906 8.170679
v 2.133330 -5.058906 8.170679
v 3.940427 -3.851445 8.173558
v 5.147888 -2.044358 8.177879
v 1.957700 0.083676 9.680010
v 1.808810 0.832200 9.681804
v 1.384806 1.466766 9.683323
v 0.750238 1.890764 9.684335
v 0.001715 2.039658 9.684695
v -0.746809 1.890764 9.684335
v -1.381376 1.466766 9.683323
v -1.805380 0.832199 9.681806
v -1.954271 0.083676 9.680010
v -1.805380 -0.664844 9.678224
v -1.381376 -1.299412 9.676711
v -0.746808 -1.723413 9.675696
v 0.001715 -1.872301 9.675338
v 0.750239 -1.723413 9.675696
v 1.384806 -1.299412 9.676713
v 1.808810 -0.664844 9.678224
v 0.001715 0.131119 -10.179389
v 0.759642 -1.709795 9.182144
v 0.003860 -1.860130 9.182024
v 1.400364 -1.281679 9.182485
v 1.828479 -0.640958 9.182995
v 1.978814 0.114823 9.183598
v 1.828479 0.870606 9.184200
v 1.400363 1.511326 9.184710
v 0.759642 1.939442 9.185051
v 0.003860 2.089777 9.185170
v -0.751922 1.939442 9.185051
v -1.392643 1.511326 9.184710
v -1.820760 0.870605 9.184200
v -1.971094 0.114823 9.183598
v -1.820759 -0.640958 9.182995
v -1.392643 -1.281680 9.182485
v -0.751921 -1.709795 9.182144
v 1.957700 0.130660 -9.986737
v 0.001715 -1.825321 -9.991409
v -1.381376 -1.252429 -9.990049
v -1.381376 1.513747 -9.983442
v -0.746809 1.937751 -9.982430
v 0.001715 2.086637 -9.982074
v 5.147888 2.258693 -8.484611
v 5.571893 0.127083 -8.489703
v 3.940427 -3.811616 -8.499111
v 2.133330 -5.019074 -8.501992
v 0.001715 -5.443083 -8.503012
v -2.129898 -5.019074 -8.501992
v -3.936995 -3.811619 -8.499110
v -5.568463 0.127083 -8.489701
v 0.001715 5.697239 -8.476395
v 2.133330 5.273243 -8.477414
v 3.940425 4.065784 -8.480296
v 6.954984 7.065092 -2.092734
v 6.954984 7.055745 1.819227
v 3.940425 4.025953 8.192384
v 5.147888 2.218862 8.188065
v 7.703508 3.284040 5.424417
v 7.703508 -3.096318 5.409177
v 9.086600 -3.660575 1.793624
v 6.954987 -6.850752 1.786004
v 6.954987 -6.841408 -2.125958
v 3.191903 -7.581295 -5.741927
v 0.001715 -8.215865 -5.743444
v -3.188470 -7.581295 -5.741927
v -6.951554 -6.841412 -2.125959
v -9.083170 -3.651232 -2.118338
v -9.831692 0.111840 -2.109347
v -8.334646 0.120474 -5.723531
v -7.700078 -3.069705 -5.731148
v -9.083170 3.874912 -2.100358
v -6.951554 7.065091 -2.092735
v -5.892983 6.015153 -5.709445
v -7.700078 3.310651 -5.715901
v -3.761368 9.196704 -2.087645
v 0.001714 9.945223 -2.085855
v 0.001715 8.456813 -5.703612
v -3.188473 7.822241 -5.705127
v 0.001715 5.657414 8.196280
v 0.001715 8.430197 5.436713
v 0.001714 9.935876 1.826110
v -3.761368 9.187343 1.824318
v -6.951554 7.055744 1.819226
v -9.083170 3.865564 1.811605
v -9.083170 -3.660576 1.793625
v -6.951554 -6.850752 1.786004
v -3.761364 -8.982363 1.780913
v 3.191903 -7.607909 5.398396
v 0.001715 -5.482905 8.169664
v -3.936995 -3.851446 8.173558
v -3.188470 -7.607911 5.398398
v -5.892981 -5.800823 5.402717
v -8.334646 0.093860 5.416800
v -3.936996 4.025953 8.192384
v -5.892983 5.988540 5.430880
v -7.700078 3.284039 5.424417
v 5.896414 -5.800819 5.402717
v -2.129900 5.233407 8.195262
v -3.188473 7.795634 5.435196
v 0.001715 -9.730886 1.779124
v 3.764799 -8.982363 1.780914
v 5.896414 -5.774206 -5.737610
v 7.703508 -3.069707 -5.731147
v 8.338076 0.120474 -5.723531
v 7.703508 3.310652 -5.715904
v 9.086600 3.865567 1.811605
v 9.086600 -3.651231 -2.118337
v 9.835123 0.102496 1.802615
v 5.571893 0.087252 8.182978
v 5.896412 5.988541 5.430880
v 3.191902 7.795634 5.435196
v 3.764797 9.187345 1.824318
v 3.191902 7.822241 -5.705127
v 3.764797 9.196706 -2.087643
v 9.835123 0.111841 -2.109347
vt 0.289732 -0.205154
vt 0.097085 -0.208421
vt 0.194114 -0.206471
vt 0.671567 -0.208052
vt 0.479382 -0.205006
vt 0.574821 -0.206194
vt 1.078436 1.191795
vt 0.868965 1.188081
vt 0.972593 1.190279
vt 1.292763 1.191864
vt 1.185577 1.192358
vt -0.100881 1.188241
vt -0.310639 1.191864
vt -0.204676 1.190405
vt 0.290243 1.179899
vt 0.098912 1.183291
vt 0.195351 1.181252
vt 0.478382 1.179838
vt 0.384326 1.179407
vt 0.669511 1.183139
vt 0.767960 1.185571
vt 0.679454 0.985930
vt 0.779147 0.988093
vt 0.573197 1.181138
vt 0.580546 0.984127
vt 0.482218 0.982946
vt 0.384193 0.982552
vt 0.286157 0.983000
vt 0.088841 0.986061
vt 0.187797 0.984227
vt -0.315170 0.993547
vt -0.213031 0.992300
vt 1.288232 0.993547
vt 1.185737 0.993967
vt 1.083255 0.993490
vt 0.981152 0.992195
vt 0.879725 0.990295
vt 0.781280 0.789880
vt 0.681387 0.788260
vt 0.482984 0.786019
vt 0.581998 0.786907
vt 0.384168 0.785721
vt 0.285344 0.786056
vt 0.186309 0.786975
vt 0.086887 0.788349
vt -0.010912 0.988237
vt -0.013046 0.789978
vt -0.111550 0.990430
vt -0.113540 0.791618
vt -0.214562 0.793016
vt -0.315991 0.793948
vt 1.287412 0.793948
vt 1.185764 0.794263
vt 1.084125 0.793909
vt 0.881734 0.791526
vt 0.982720 0.792944
vt 0.782065 0.590702
vt 0.682102 0.589806
vt 0.582537 0.589057
vt 0.483271 0.588563
vt 0.384160 0.588395
vt 0.285043 0.588577
vt 0.185758 0.589082
vt 0.086165 0.589840
vt -0.013832 0.590738
vt -0.215122 0.592415
vt -0.114270 0.591643
vt -0.316291 0.592931
vt 1.287111 0.592931
vt 1.185772 0.593108
vt 1.084440 0.592916
vt 0.983291 0.592388
vt 0.882469 0.591609
vt 0.682324 0.390276
vt 0.782307 0.390368
vt 0.582706 0.390195
vt 0.483362 0.390138
vt 0.384160 0.390113
vt 0.284952 0.390126
vt 0.185589 0.390173
vt 0.085943 0.390247
vt -0.014074 0.390337
vt -0.215296 0.390507
vt -0.114496 0.390428
vt -0.316386 0.390562
vt 1.185772 0.390586
vt 1.287016 0.390562
vt 1.084535 0.390574
vt 0.983465 0.390529
vt 0.882695 0.390457
vt 0.682132 0.189521
vt 0.782094 0.188852
vt 0.582563 0.190072
vt 0.483289 0.190429
vt 0.384168 0.190541
vt 0.285040 0.190394
vt 0.185743 0.190006
vt 0.086142 0.189433
vt -0.013861 0.188757
vt -0.114301 0.188079
vt -0.215149 0.187504
vt -0.316310 0.187126
vt 1.185764 0.187005
vt 1.084444 0.187163
vt 0.983307 0.187573
vt 0.882494 0.188168
vt 0.681114 -0.012425
vt 0.780971 -0.013687
vt 0.482893 -0.010696
vt 0.581802 -0.011378
vt 0.384193 -0.010477
vt 0.285483 -0.010751
vt 0.186542 -0.011479
vt 0.087180 -0.012559
vt -0.012736 -0.013833
vt -0.113261 -0.015110
vt -0.214357 -0.016194
vt 1.185738 -0.017143
vt 1.287092 0.187126
vt 1.287509 -0.016910
vt 1.083979 -0.016853
vt 0.982478 -0.016088
vt 0.881435 -0.014974
vt 0.774066 -0.216884
vt 0.674928 -0.215304
vt 0.577209 -0.213999
vt 0.480511 -0.213153
vt 0.384331 -0.212880
vt 0.288122 -0.213217
vt 0.191339 -0.214118
vt -0.005815 -0.217058
vt 0.093489 -0.215462
vt -0.106777 -0.218670
vt -0.209360 -0.220046
vt -0.315893 -0.016910
vt -0.313237 -0.220962
vt 0.977277 -0.219919
vt 1.081042 -0.220893
vt 0.874853 -0.218506
vt 0.387456 1.278005
vt 0.000302 1.185739
vt 1.500291 -0.213078
vt 1.185288 -0.216806
vt 1.396825 -0.215076
vt 1.291546 -0.216397
vt 1.700487 -0.208421
vt -0.103111 -0.213078
vt -0.001886 -0.210737
vt 0.871006 -0.212690
vt 1.079124 -0.216230
vt 0.974107 -0.214773
vt 1.185584 -0.221262
vt 1.290166 -0.220962
vt 0.770176 -0.210327
vt 0.384587 -0.204644
vn 0.000000 0.000793 -0.999969
vn 0.000000 0.000763 -0.999969
vn 0.071657 -0.170660 -0.982696
vn 0.173009 -0.069308 -0.982452
vn 0.161779 -0.159459 -0.973846
vn -0.071657 -0.170660 -0.982696
vn 0.000000 -0.226478 -0.973998
vn -0.173009 -0.069308 -0.982452
vn -0.161779 -0.159459 -0.973846
vn -0.072726 0.177923 -0.981323
vn -0.173040 0.074007 -0.982116
vn -0.161260 0.162572 -0.973418
vn 0.071688 0.176855 -0.981597
vn 0.000000 0.228187 -0.973601
vn 0.174139 0.075045 -0.981842
vn 0.228828 0.002319 -0.973449
vn 0.529496 0.220679 -0.819056
vn 0.572131 0.001953 -0.820124
vn 0.160253 0.163579 -0.973418
vn 0.404065 0.406659 -0.819330
vn 0.218940 0.529160 -0.819758
vn 0.000000 0.573626 -0.819086
vn -0.218940 0.530534 -0.818873
vn -0.528123 0.220710 -0.819941
vn -0.403272 0.407453 -0.819330
vn -0.217963 -0.524277 -0.823145
vn -0.404553 -0.404035 -0.820368
vn 0.000000 -0.572222 -0.820063
vn 0.217963 -0.524277 -0.823145
vn 0.406018 -0.404035 -0.819666
vn 0.527573 -0.215461 -0.821711
vn 0.836146 0.001282 -0.548448
vn 0.774804 0.320994 -0.544603
vn 0.321238 0.773949 -0.545640
vn 0.593585 0.592059 -0.545030
vn 0.000000 0.840083 -0.542405
vn -0.321238 0.773949 -0.545640
vn -0.593585 0.592059 -0.545030
vn -0.774804 0.320994 -0.544603
vn -0.572131 0.001953 -0.820124
vn -0.836146 0.001282 -0.548448
vn -0.528123 -0.216803 -0.820978
vn -0.774957 -0.319681 -0.545183
vn -0.592364 -0.589801 -0.548814
vn -0.321268 -0.771355 -0.549333
vn 0.000000 -0.837489 -0.546403
vn 0.321268 -0.771355 -0.549333
vn 0.773949 -0.320200 -0.546251
vn 0.592242 -0.590930 -0.547716
vn 0.981445 0.000458 -0.191687
vn 0.906125 0.376934 -0.191839
vn 0.693381 0.695334 -0.188910
vn 0.374493 0.907407 -0.190588
vn 0.000000 0.982330 -0.187109
vn -0.374493 0.907407 -0.190588
vn -0.692434 0.696005 -0.190008
vn -0.905881 0.378063 -0.190741
vn -0.981445 0.000458 -0.191687
vn -0.693014 -0.694174 -0.194433
vn -0.906491 -0.376263 -0.191443
vn -0.373547 -0.907102 -0.193823
vn 0.000000 -0.980987 -0.193976
vn 0.373547 -0.907102 -0.193823
vn 0.693014 -0.694174 -0.194433
vn 0.906491 -0.376263 -0.191443
vn 0.907132 0.375286 0.190344
vn 0.981017 -0.000458 0.193854
vn 0.694571 0.692618 0.194403
vn 0.376629 0.906064 0.192755
vn 0.000000 0.980560 0.196204
vn -0.376629 0.906064 0.192755
vn -0.695547 0.691977 0.193304
vn -0.907376 0.374126 0.191412
vn -0.981017 -0.000458 0.193854
vn -0.695547 -0.692892 0.190008
vn -0.907376 -0.375042 0.189642
vn -0.376537 -0.906552 0.190619
vn 0.000000 -0.982330 0.187109
vn 0.376537 -0.906552 0.190619
vn 0.695547 -0.692862 0.190008
vn 0.907376 -0.375042 0.189642
vn 0.774957 0.319681 0.545183
vn 0.836146 -0.001282 0.548448
vn 0.590899 0.591174 0.548906
vn 0.319681 0.773492 0.547197
vn 0.000000 0.834834 0.550462
vn -0.319681 0.773492 0.547197
vn -0.590899 0.591174 0.548906
vn -0.774957 0.319681 0.545183
vn -0.836146 -0.001282 0.548448
vn -0.773949 -0.322825 0.544725
vn -0.591876 -0.594775 0.543931
vn -0.319987 -0.773827 0.546617
vn 0.000855 -0.839381 0.543474
vn 0.321055 -0.774132 0.545549
vn 0.591876 -0.594775 0.543931
vn 0.773949 -0.322825 0.544725
vn 0.529496 0.216773 0.820124
vn 0.570849 -0.002503 0.821039
vn 0.218757 0.526170 0.821711
vn 0.404035 0.401288 0.821986
vn 0.000000 0.570177 0.821497
vn -0.218757 0.526170 0.821711
vn -0.404035 0.401288 0.821986
vn -0.529496 0.216773 0.820124
vn -0.570849 -0.002503 0.821039
vn -0.528520 -0.220374 0.819788
vn -0.406018 -0.407971 0.817713
vn -0.000977 -0.572588 0.819819
vn -0.218970 -0.529130 0.819758
vn 0.218421 -0.530503 0.819025
vn 0.406018 -0.407971 0.817713
vn 0.528520 -0.220374 0.819788
vn 0.382672 0.001495 0.923856
vn 0.352123 0.147679 0.924223
vn 0.267953 0.271004 0.924497
vn 0.146428 0.351329 0.924711
vn 0.000000 0.380474 0.924772
vn -0.146428 0.351329 0.924711
vn -0.267953 0.271004 0.924497
vn -0.382672 0.001495 0.923856
vn -0.352123 0.147649 0.924223
vn -0.354961 -0.145177 0.923521
vn -0.270577 -0.272774 0.923215
vn -0.142979 -0.357158 0.923002
vn 0.270577 -0.272774 0.923215
vn 0.142979 -0.357158 0.923002
vn 0.354961 -0.145177 0.923521
vn 0.000000 0.002380 -0.999969
vn -0.228828 0.002319 -0.973449
vn 0.000000 -0.384869 0.922941
s 1
f 60/1/1 62/2/1 61/3/2
f 56/4/1 58/5/1 57/6/2
f 12/7/3 14/8/4 13/9/5
f 11/10/6 12/7/3 68/11/7
f 9/12/8 11/13/6 69/14/9
f 71/15/10 6/16/11 70/17/12
f 3/18/13 71/15/10 72/19/14
f 1/20/15 67/21/16 14/8/4
f 1/20/15 73/22/17 67/21/16
f 73/22/17 74/23/18 67/21/16
f 1/20/15 2/24/19 83/25/20
f 1/20/15 83/25/20 73/22/17
f 82/26/21 83/25/20 2/24/19
f 82/26/21 2/24/19 3/18/13
f 72/19/14 81/27/22 3/18/13
f 81/27/22 82/26/21 3/18/13
f 72/19/14 71/15/10 81/27/22
f 71/15/10 4/28/23 81/27/22
f 7/29/24 5/30/25 70/17/12
f 7/29/24 70/17/12 6/16/11
f 11/13/6 78/31/26 69/14/9
f 78/31/26 79/32/27 69/14/9
f 11/10/6 68/11/7 78/33/26
f 68/11/7 77/34/28 78/33/26
f 12/7/3 76/35/29 68/11/7
f 76/35/29 77/34/28 68/11/7
f 12/7/3 13/9/5 76/35/29
f 13/9/5 75/36/30 76/35/29
f 15/37/31 75/36/30 13/9/5
f 15/37/31 13/9/5 14/8/4
f 74/23/18 73/22/17 134/38/32
f 73/22/17 135/39/33 134/38/32
f 82/26/21 143/40/34 83/25/20
f 143/40/34 16/41/35 83/25/20
f 82/26/21 81/27/22 143/40/34
f 81/27/22 107/42/36 143/40/34
f 4/28/23 108/43/37 81/27/22
f 108/43/37 107/42/36 81/27/22
f 4/28/23 5/30/25 108/43/37
f 5/30/25 103/44/38 108/43/37
f 5/30/25 7/29/24 103/44/38
f 7/29/24 104/45/39 103/44/38
f 80/46/40 99/47/41 7/29/24
f 99/47/41 104/45/39 7/29/24
f 80/46/40 10/48/42 99/47/41
f 10/48/42 100/49/43 99/47/41
f 79/32/27 17/50/44 10/48/42
f 17/50/44 100/49/43 10/48/42
f 78/31/26 95/51/45 79/32/27
f 95/51/45 17/50/44 79/32/27
f 78/33/26 77/34/28 95/52/45
f 77/34/28 94/53/46 95/52/45
f 76/35/29 93/54/47 77/34/28
f 93/54/47 94/53/46 77/34/28
f 15/37/31 133/55/48 75/36/30
f 133/55/48 132/56/49 75/36/30
f 74/23/18 134/38/32 15/37/31
f 134/38/32 133/55/48 15/37/31
f 134/38/32 135/39/33 145/57/50
f 135/39/33 18/58/51 145/57/50
f 135/39/33 16/41/35 18/58/51
f 16/41/35 84/59/52 18/58/51
f 16/41/35 143/40/34 84/59/52
f 143/40/34 144/60/53 84/59/52
f 143/40/34 107/42/36 144/60/53
f 107/42/36 106/61/54 144/60/53
f 108/43/37 105/62/55 107/42/36
f 105/62/55 106/61/54 107/42/36
f 103/44/38 102/63/56 108/43/37
f 102/63/56 105/62/55 108/43/37
f 104/45/39 101/64/57 103/44/38
f 101/64/57 102/63/56 103/44/38
f 99/47/41 98/65/58 104/45/39
f 98/65/58 101/64/57 104/45/39
f 96/66/59 97/67/60 100/49/43
f 96/66/59 100/49/43 17/50/44
f 17/50/44 95/51/45 96/66/59
f 95/51/45 19/68/61 96/66/59
f 95/52/45 94/53/46 19/69/61
f 94/53/46 20/70/62 19/69/61
f 93/54/47 21/71/63 94/53/46
f 21/71/63 20/70/62 94/53/46
f 132/56/49 92/72/64 93/54/47
f 92/72/64 21/71/63 93/54/47
f 132/56/49 133/55/48 92/72/64
f 133/55/48 137/73/65 92/72/64
f 18/58/51 136/74/66 145/57/50
f 136/74/66 138/75/67 145/57/50
f 18/58/51 84/59/52 136/74/66
f 84/59/52 85/76/68 136/74/66
f 144/60/53 142/77/69 84/59/52
f 142/77/69 85/76/68 84/59/52
f 144/60/53 106/61/54 142/77/69
f 106/61/54 111/78/70 142/77/69
f 105/62/55 112/79/71 106/61/54
f 112/79/71 111/78/70 106/61/54
f 105/62/55 102/63/56 112/79/71
f 102/63/56 113/80/72 112/79/71
f 102/63/56 101/64/57 113/80/72
f 101/64/57 114/81/73 113/80/72
f 101/64/57 98/65/58 114/81/73
f 98/65/58 22/82/74 114/81/73
f 96/66/59 116/83/75 97/67/60
f 116/83/75 115/84/76 97/67/60
f 19/68/61 117/85/77 96/66/59
f 117/85/77 116/83/75 96/66/59
f 20/70/62 130/86/78 19/69/61
f 130/86/78 117/87/77 19/69/61
f 20/70/62 21/71/63 130/86/78
f 21/71/63 131/88/79 130/86/78
f 21/71/63 92/72/64 131/88/79
f 92/72/64 91/89/80 131/88/79
f 92/72/64 137/73/65 91/89/80
f 137/73/65 90/90/81 91/89/80
f 136/74/66 88/91/82 138/75/67
f 88/91/82 23/92/83 138/75/67
f 136/74/66 85/76/68 88/91/82
f 85/76/68 140/93/84 88/91/82
f 85/76/68 142/77/69 140/93/84
f 142/77/69 141/94/85 140/93/84
f 142/77/69 111/78/70 141/94/85
f 111/78/70 110/95/86 141/94/85
f 112/79/71 129/96/87 111/78/70
f 129/96/87 110/95/86 111/78/70
f 113/80/72 125/97/88 112/79/71
f 125/97/88 129/96/87 112/79/71
f 114/81/73 126/98/89 113/80/72
f 126/98/89 125/97/88 113/80/72
f 114/81/73 22/82/74 126/98/89
f 22/82/74 123/99/90 126/98/89
f 115/84/76 116/83/75 24/100/91
f 116/83/75 122/101/92 24/100/91
f 116/83/75 117/85/77 122/101/92
f 117/85/77 121/102/93 122/101/92
f 130/86/78 131/88/79 25/103/94
f 131/88/79 118/104/95 25/103/94
f 91/89/80 127/105/96 131/88/79
f 127/105/96 118/104/95 131/88/79
f 90/90/81 89/106/97 91/89/80
f 89/106/97 127/105/96 91/89/80
f 88/91/82 87/107/98 23/92/83
f 87/107/98 139/108/99 23/92/83
f 141/94/85 26/109/100 140/93/84
f 26/109/100 86/110/101 140/93/84
f 141/94/85 110/95/86 26/109/100
f 110/95/86 109/111/102 26/109/100
f 129/96/87 128/112/103 110/95/86
f 128/112/103 109/111/102 110/95/86
f 129/96/87 125/97/88 128/112/103
f 125/97/88 124/113/104 128/112/103
f 126/98/89 27/114/105 125/97/88
f 27/114/105 124/113/104 125/97/88
f 126/98/89 123/99/90 27/114/105
f 123/99/90 28/115/106 27/114/105
f 24/100/91 29/116/107 123/99/90
f 29/116/107 28/115/106 123/99/90
f 122/101/92 120/117/108 24/100/91
f 120/117/108 29/116/107 24/100/91
f 25/103/94 119/118/109 121/119/93
f 119/118/109 30/120/110 121/119/93
f 118/104/95 31/121/111 25/103/94
f 31/121/111 119/118/109 25/103/94
f 127/105/96 89/106/97 32/122/112
f 89/106/97 33/123/113 32/122/112
f 89/106/97 23/92/83 33/123/113
f 23/92/83 139/108/99 33/123/113
f 139/108/99 87/107/98 34/124/114
f 87/107/98 35/125/115 34/124/114
f 87/107/98 86/110/101 35/125/115
f 86/110/101 36/126/116 35/125/115
f 86/110/101 26/109/100 36/126/116
f 26/109/100 37/127/117 36/126/116
f 109/111/102 38/128/118 26/109/100
f 38/128/118 37/127/117 26/109/100
f 109/111/102 128/112/103 38/128/118
f 128/112/103 39/129/119 38/128/118
f 124/113/104 40/130/120 128/112/103
f 40/130/120 39/129/119 128/112/103
f 28/115/106 42/131/121 27/114/105
f 42/131/121 41/132/122 27/114/105
f 29/116/107 43/133/123 28/115/106
f 43/133/123 42/131/121 28/115/106
f 120/117/108 44/134/124 29/116/107
f 44/134/124 43/133/123 29/116/107
f 120/117/108 30/135/110 44/134/124
f 30/135/110 45/136/125 44/134/124
f 32/122/112 48/137/126 31/121/111
f 48/137/126 47/138/127 31/121/111
f 32/122/112 33/123/113 48/137/126
f 33/123/113 49/139/128 48/137/126
f 33/123/113 139/108/99 49/139/128
f 139/108/99 34/124/114 49/139/128
f 2/24/19 1/20/15 3/18/13
f 1/20/15 50/140/129 3/18/13
f 50/140/129 9/12/8 6/16/11
f 9/12/8 8/141/130 6/16/11
f 99/47/41 100/49/43 98/65/58
f 100/49/43 97/67/60 98/65/58
f 134/38/32 145/57/50 133/55/48
f 145/57/50 137/73/65 133/55/48
f 97/67/60 115/84/76 98/65/58
f 115/84/76 22/82/74 98/65/58
f 137/73/65 145/57/50 90/90/81
f 145/57/50 138/75/67 90/90/81
f 115/84/76 24/100/91 22/82/74
f 24/100/91 123/99/90 22/82/74
f 90/90/81 138/75/67 89/106/97
f 138/75/67 23/92/83 89/106/97
f 6/16/11 71/15/10 50/140/129
f 71/15/10 3/18/13 50/140/129
f 12/7/3 11/10/6 50/140/129
f 11/13/6 9/12/8 50/140/129
f 1/20/15 14/8/4 50/140/129
f 14/8/4 12/7/3 50/140/129
f 64/142/1 52/143/1 65/144/1
f 52/143/1 66/145/1 65/144/1
f 52/143/1 64/142/1 62/146/1
f 64/147/1 63/148/1 62/2/1
f 52/143/1 54/149/1 51/150/1
f 54/149/1 53/151/1 51/150/1
f 31/121/111 47/138/127 119/118/109
f 47/138/127 46/152/131 119/118/109
f 30/120/110 119/118/109 45/153/125
f 119/118/109 46/152/131 45/153/125
f 27/114/105 41/132/122 124/113/104
f 41/132/122 40/130/120 124/113/104
f 127/105/96 32/122/112 118/104/95
f 32/122/112 31/121/111 118/104/95
f 122/101/92 121/102/93 120/117/108
f 121/102/93 30/135/110 120/117/108
f 88/91/82 140/93/84 87/107/98
f 140/93/84 86/110/101 87/107/98
f 130/86/78 25/103/94 117/87/77
f 25/103/94 121/119/93 117/87/77
f 76/35/29 75/36/30 93/54/47
f 75/36/30 132/56/49 93/54/47
f 83/25/20 16/41/35 73/22/17
f 16/41/35 135/39/33 73/22/17
f 14/8/4 67/21/16 15/37/31
f 67/21/16 74/23/18 15/37/31
f 9/12/8 69/14/9 10/48/42
f 69/14/9 79/32/27 10/48/42
f 9/12/8 10/48/42 8/141/130
f 10/48/42 80/46/40 8/141/130
f 6/16/11 8/141/130 7/29/24
f 8/141/130 80/46/40 7/29/24
f 5/30/25 4/28/23 71/15/10
f 5/30/25 71/15/10 70/17/12
f 55/154/1 54/149/1 56/4/1
f 54/149/1 58/5/1 56/4/1
f 59/155/2 58/5/1 60/1/1
f 58/5/1 62/2/1 60/1/1
f 62/146/1 58/5/1 52/143/1
f 58/5/1 54/149/1 52/143/1
