o 003
v 13.558912 5.712425 6.090655
v 14.068481 5.712425 5.989296
v 13.919233 6.072745 5.989296
v 14.500473 5.712425 5.700648
v 14.224697 6.378208 5.700648
v 14.789120 5.712425 5.268657
v 14.428801 6.582313 5.268657
v 14.890480 5.712425 4.759088
v 14.500473 6.653985 4.759088
v 14.789120 5.712425 4.249519
v 14.428801 6.582313 4.249519
v 13.558912 6.942633 4.249519
v 13.558912 7.043993 4.759088
v 13.558912 6.942633 5.268657
v 13.558912 6.653986 5.700648
v 13.558912 6.221994 5.989296
v 13.198593 6.072745 5.989296
v 12.893129 6.378209 5.700648
v 12.689024 6.582313 5.268657
v 12.617352 6.653986 4.759088
v 12.689024 6.582314 4.249519
v 12.328705 5.712425 4.249519
v 12.227345 5.712425 4.759088
v 12.328705 5.712425 5.268657
v 12.617352 5.712425 5.700648
v 13.049343 5.712425 5.989296
v 13.198593 5.352105 5.989296
v 12.893129 5.046641 5.700648
v 12.689024 4.842536 5.268657
v 12.617352 4.770864 4.759088
v 12.689024 4.842536 4.249519
v 13.558912 4.482217 4.249519
v 13.558912 4.380857 4.759088
v 13.558912 4.482217 5.268657
v 13.558912 4.770864 5.700648
v 13.558912 5.202856 5.989296
v 13.919231 5.352105 5.989296
v 14.224697 5.046641 5.700648
v 14.428801 4.842536 5.268657
v 14.500473 4.770864 4.759088
v 14.428801 4.842536 4.249519
v -13.562162 5.712425 6.090655
v -13.052593 5.712425 5.989296
v -13.201841 6.072745 5.989296
v -12.620602 5.712425 5.700648
v -12.896378 6.378208 5.700648
v -12.331955 5.712425 5.268657
v -12.692274 6.582313 5.268657
v -12.230595 5.712425 4.759088
v -12.620602 6.653985 4.759088
v -12.331955 5.712425 4.249519
v -12.692274 6.582313 4.249519
v -13.562162 6.942633 4.249519
v -13.562162 7.043993 4.759088
v -13.562162 6.942633 5.268657
v -13.562162 6.653986 5.700648
v -13.562162 6.221994 5.989296
v -13.922482 6.072745 5.989296
v -14.227945 6.378209 5.700648
v -14.432051 6.582313 5.268657
v -14.503723 6.653986 4.759088
v -14.432051 6.582314 4.249519
v -14.792370 5.712425 4.249519
v -14.893730 5.712425 4.759088
v -14.792370 5.712425 5.268657
v -14.503723 5.712425 5.700648
v -14.071732 5.712425 5.989296
v -13.922482 5.352105 5.989296
v -14.227945 5.046641 5.700648
v -14.432051 4.842536 5.268657
v -14.503723 4.770864 4.759088
v -14.432051 4.842536 4.249519
v -13.562162 4.482217 4.249519
v -13.562162 4.380857 4.759088
v -13.562162 4.482217 5.268657
v -13.562162 4.770864 5.700648
v -13.562162 5.202856 5.989296
v -13.201843 5.352105 5.989296
v -12.896378 5.046641 5.700648
v -12.692274 4.842536 5.268657
v -12.620602 4.770864 4.759088
v -12.692274 4.842536 4.249519
vt 0.101731 0.459683
vt 0.199329 0.409026
vt 0.180002 0.538491
vt 0.336286 0.376210
vt 0.303217 0.611931
vt 0.494178 0.363561
vt 0.454488 0.670105
vt 0.654065 0.371840
vt 0.614644 0.705534
vt 0.796969 0.400556
vt 0.763254 0.713659
vt 0.511187 0.949536
vt 0.675163 0.943388
vt 0.351144 0.891165
vt 0.218690 0.778165
vt 0.131885 0.627267
vt 0.081606 0.623133
vt 0.126891 0.777391
vt 0.235743 0.897893
vt 0.394244 0.962412
vt 0.576250 0.956699
vt 0.341250 0.699499
vt 0.531649 0.712988
vt 0.183933 0.655748
vt 0.086529 0.592676
vt 0.060113 0.523527
vt 0.081606 0.387022
vt 0.126891 0.332318
vt 0.235743 0.305642
vt 0.394244 0.312764
vt 0.576250 0.353013
vt 0.511187 0.071657
vt 0.675163 0.125295
vt 0.351144 0.087438
vt 0.218690 0.167917
vt 0.131885 0.298809
vt 0.180002 0.309976
vt 0.303215 0.193225
vt 0.454488 0.123957
vt 0.614644 0.111349
vt 0.763254 0.158481
vt 0.916842 0.458247
vt 0.958435 0.522070
vt 0.936952 0.621664
vt 0.932009 0.591194
vt 0.891663 0.775889
vt 0.834611 0.654240
vt 0.782822 0.896358
vt 0.677319 0.697968
vt 0.624348 0.960853
vt 0.486961 0.711445
vt 0.442379 0.955130
vt 0.507455 0.948003
vt 0.343510 0.941846
vt 0.667470 0.889652
vt 0.799902 0.776676
vt 0.886692 0.625805
vt 0.838595 0.537048
vt 0.715410 0.610479
vt 0.564167 0.668639
vt 0.404041 0.704057
vt 0.255455 0.712171
vt 0.364635 0.370418
vt 0.221754 0.399121
vt 0.524493 0.362147
vt 0.682352 0.374796
vt 0.819274 0.407605
vt 0.838595 0.308567
vt 0.715410 0.191835
vt 0.564167 0.122573
vt 0.404041 0.109962
vt 0.255455 0.157079
vt 0.507455 0.070261
vt 0.343509 0.123881
vt 0.667470 0.086046
vt 0.799902 0.166519
vt 0.886692 0.297396
vt 0.936952 0.385588
vt 0.891663 0.330883
vt 0.782822 0.304197
vt 0.624348 0.311306
vt 0.442379 0.351539
vn 0.000000 0.000000 1.000000
vn 0.417493 0.000000 0.908658
vn 0.295206 0.295206 0.908658
vn 0.720481 0.000000 0.693442
vn 0.509445 0.509445 0.693442
vn 0.926847 0.000000 0.375378
vn 0.655385 0.655385 0.375378
vn 1.000000 0.000000 0.000000
vn 0.707083 0.707083 0.000000
vn 0.980773 0.000000 -0.195074
vn 0.693503 0.693503 -0.195074
vn 0.000000 1.000000 0.000000
vn 0.000000 0.980773 -0.195074
vn 0.000000 0.926847 0.375378
vn 0.000000 0.720481 0.693442
vn 0.000000 0.417493 0.908658
vn -0.295206 0.295206 0.908658
vn -0.509445 0.509445 0.693442
vn -0.655385 0.655385 0.375378
vn -0.707083 0.707083 0.000000
vn -0.693503 0.693503 -0.195074
vn -1.000000 0.000000 0.000000
vn -0.980773 0.000000 -0.195074
vn -0.926847 0.000000 0.375378
vn -0.720481 0.000000 0.693442
vn -0.417493 0.000000 0.908658
vn -0.295206 -0.295206 0.908658
vn -0.509445 -0.509445 0.693442
vn -0.655385 -0.655385 0.375378
vn -0.707083 -0.707083 0.000000
vn -0.693503 -0.693503 -0.195074
vn 0.000000 -1.000000 0.000000
vn 0.000000 -0.980773 -0.195074
vn 0.000000 -0.926847 0.375378
vn 0.000000 -0.720481 0.693442
vn 0.000000 -0.417493 0.908658
vn 0.295206 -0.295206 0.908658
vn 0.509445 -0.509445 0.693442
vn 0.655385 -0.655385 0.375378
vn 0.707083 -0.707083 0.000000
vn 0.693503 -0.693503 -0.195074
s 1
f 1/1/1 2/2/2 3/3/3
f 3/3/3 2/2/2 4/4/4 5/5/5
f 5/5/5 4/4/4 6/6/6 7/7/7
f 7/7/7 6/6/6 8/8/8 9/9/9
f 9/9/9 8/8/8 10/10/10 11/11/11
f 13/12/12 9/9/9 11/11/11 12/13/13
f 14/14/14 7/7/7 9/9/9 13/12/12
f 15/15/15 5/5/5 7/7/7 14/14/14
f 16/16/16 3/3/3 5/5/5 15/15/15
f 1/1/1 3/3/3 16/16/16
f 1/1/1 16/16/16 17/17/17
f 17/17/17 16/16/16 15/15/15 18/18/18
f 18/18/18 15/15/15 14/14/14 19/19/19
f 19/19/19 14/14/14 13/12/12 20/20/20
f 20/20/20 13/12/12 12/13/13 21/21/21
f 23/22/22 20/20/20 21/21/21 22/23/23
f 24/24/24 19/19/19 20/20/20 23/22/22
f 25/25/25 18/18/18 19/19/19 24/24/24
f 26/26/26 17/17/17 18/18/18 25/25/25
f 1/1/1 17/17/17 26/26/26
f 1/1/1 26/26/26 27/27/27
f 27/27/27 26/26/26 25/25/25 28/28/28
f 28/28/28 25/25/25 24/24/24 29/29/29
f 29/29/29 24/24/24 23/22/22 30/30/30
f 30/30/30 23/22/22 22/23/23 31/31/31
f 33/32/32 30/30/30 31/31/31 32/33/33
f 34/34/34 29/29/29 30/30/30 33/32/32
f 35/35/35 28/28/28 29/29/29 34/34/34
f 36/36/36 27/27/27 28/28/28 35/35/35
f 1/1/1 27/27/27 36/36/36
f 1/1/1 36/36/36 37/37/37
f 37/37/37 36/36/36 35/35/35 38/38/38
f 38/38/38 35/35/35 34/34/34 39/39/39
f 39/39/39 34/34/34 33/32/32 40/40/40
f 40/40/40 33/32/32 32/33/33 41/41/41
f 8/8/8 40/40/40 41/41/41 10/10/10
f 6/6/6 39/39/39 40/40/40 8/8/8
f 4/4/4 38/38/38 39/39/39 6/6/6
f 2/2/2 37/37/37 38/38/38 4/4/4
f 1/1/1 37/37/37 2/2/2
f 42/42/1 43/43/2 44/44/3
f 44/44/3 43/43/2 45/45/4 46/46/5
f 46/46/5 45/45/4 47/47/6 48/48/7
f 48/48/7 47/47/6 49/49/8 50/50/9
f 50/50/9 49/49/8 51/51/10 52/52/11
f 54/53/12 50/50/9 52/52/11 53/54/13
f 55/55/14 48/48/7 50/50/9 54/53/12
f 56/56/15 46/46/5 48/48/7 55/55/14
f 57/57/16 44/44/3 46/46/5 56/56/15
f 42/42/1 44/44/3 57/57/16
f 42/42/1 57/57/16 58/58/17
f 58/58/17 57/57/16 56/56/15 59/59/18
f 59/59/18 56/56/15 55/55/14 60/60/19
f 60/60/19 55/55/14 54/53/12 61/61/20
f 61/61/20 54/53/12 53/54/13 62/62/21
f 64/63/22 61/61/20 62/62/21 63/64/23
f 65/65/24 60/60/19 61/61/20 64/63/22
f 66/66/25 59/59/18 60/60/19 65/65/24
f 67/67/26 58/58/17 59/59/18 66/66/25
f 42/42/1 58/58/17 67/67/26
f 42/42/1 67/67/26 68/68/27
f 68/68/27 67/67/26 66/66/25 69/69/28
f 69/69/28 66/66/25 65/65/24 70/70/29
f 70/70/29 65/65/24 64/63/22 71/71/30
f 71/71/30 64/63/22 63/64/23 72/72/31
f 74/73/32 71/71/30 72/72/31 73/74/33
f 75/75/34 70/70/29 71/71/30 74/73/32
f 76/76/35 69/69/28 70/70/29 75/75/34
f 77/77/36 68/68/27 69/69/28 76/76/35
f 42/42/1 68/68/27 77/77/36
f 42/42/1 77/77/36 78/78/37
f 78/78/37 77/77/36 76/76/35 79/79/38
f 79/79/38 76/76/35 75/75/34 80/80/39
f 80/80/39 75/75/34 74/73/32 81/81/40
f 81/81/40 74/73/32 73/74/33 82/82/41
f 49/49/8 81/81/40 82/82/41 51/51/10
f 47/47/6 80/80/39 81/81/40 49/49/8
f 45/45/4 79/79/38 80/80/39 47/47/6
f 43/43/2 78/78/37 79/79/38 45/45/4
f 42/42/1 78/78/37 43/43/2
