# OBJ written from C:\Users\rivalin\Desktop\pioneer\data\models\buildings\high_development\high_development_hab_1\high_development_hab_1.obj

o Mesh
v -7 7 -10
v -10 7 -7
v -10 7 7
v -7 7 10
v -7 16 10
v -10 16 7
v -10 16 -7
v -7 16 -10
v 7 7 -10
v 10 7 -7
v 10 7 7
v 7 7 10
v 10 16 7
v 7 16 10
v 7 16 -10
v 10 16 -7
v -4 19 7
v -7 19 4
v -7 19 -4
v -4 19 -7
v 7 19 4
v 4 19 7
v 4 19 -7
v 7 19 -4
v 7 11 -10
v 7 14 -10
v 10 14 -7
v 10 11 -7
v 10 11 7
v 10 14 7
v 7 14 10
v 7 11 10
v -10 11 -7
v -10 14 -7
v -7 14 -10
v -7 11 -10
v -7 11 10
v -7 14 10
v -10 14 7
v -10 11 7
v -3 7 10
v 3 7 10
v 3 7 -10
v -3 7 -10
v -3 16 10
v 3 16 10
v 3 19 7
v -3 19 7
v 3 16 -10
v -3 16 -10
v -3 19 -7
v 3 19 -7
v 3 11 -10
v -3 11 -10
v -3 14 -10
v 3 14 -10
v -3 11 10
v 3 11 10
v 3 14 10
v -3 14 10
v 10 16 3
v 10 16 -3
v 7 19 -3
v 7 19 3
v -10 16 -3
v -10 16 3
v -7 19 3
v -7 19 -3
v 10 11 3
v 10 11 -3
v 10 14 -3
v 10 14 3
v -10 11 -3
v -10 11 3
v -10 14 3
v -10 14 -3
v -10 7 -3
v -10 7 3
v 10 7 3
v 10 7 -3
v 3 19 3
v 3 19 -3
v -3 19 -3
v -3 19 3
v -7.82843 7 -12
v -12 7 -7.82843
v -12 7 7.82843
v -7.82843 7 12
v 7.82843 7 -12
v 12 7 -7.82843
v 12 7 7.82843
v 7.82843 7 12
v -3 7 12
v 3 7 12
v 3 7 -12
v -3 7 -12
v -12 7 -3
v -12 7 3
v 12 7 3
v 12 7 -3
v -8.65686 3 -14
v -14 3 -8.65685
v -14 3 8.65685
v -8.65686 3 14
v 8.65686 3 -14
v 14 3 -8.65685
v 14 3 8.65685
v 8.65686 3 14
v -3 3 14
v 3 3 14
v 3 3 -14
v -3 3 -14
v -14 3 -3
v -14 3 3
v 14 3 3
v 14 3 -3
v -9.48529 3 -16
v -16 3 -9.48528
v -16 3 9.48528
v -9.48529 3 16
v 9.48529 3 -16
v 16 3 -9.48528
v 16 3 9.48528
v 9.48529 3 16
v -3 3 16
v 3 3 16
v 3 3 -16
v -3 3 -16
v -16 3 -3
v -16 3 3
v 16 3 3
v 16 3 -3
v -9.48529 -27 -16
v -16 -27 -9.48528
v -16 -27 9.48528
v -9.48529 -27 16
v 9.48529 -27 -16
v 16 -27 -9.48528
v 16 -27 9.48528
v 9.48529 -27 16
v -3 -27 16
v 3 -27 16
v 3 -27 -16
v -3 -27 -16
v -16 -27 -3
v -16 -27 3
v 16 -27 3
v 16 -27 -3
v -10 11 -7
v -10 14 -7
v -7 14 -10
v -7 11 -10
v -7 11 10
v -7 14 10
v -10 14 7
v -10 11 7
v -3 11 -10
v -3 14 -10
v -3 11 10
v -3 14 10
v -10 11 -3
v -10 11 3
v -10 14 3
v -10 14 -3
v -9.5 11 -6.79289
v -9.5 14 -6.79289
v -6.79289 14 -9.5
v -6.79289 11 -9.5
v -6.79289 11 9.5
v -6.79289 14 9.5
v -9.5 14 6.79289
v -9.5 11 6.79289
v -3 11 -9.5
v -3 14 -9.5
v -3 11 9.5
v -3 14 9.5
v -9.5 11 -3
v -9.5 11 3
v -9.5 14 3
v -9.5 14 -3
v 7 11 -10
v 7 14 -10
v 10 14 -7
v 10 11 -7
v 10 11 7
v 10 14 7
v 7 14 10
v 7 11 10
v 3 11 -10
v -3 11 -10
v -3 14 -10
v 3 14 -10
v -3 11 10
v 3 11 10
v 3 14 10
v -3 14 10
v 10 11 3
v 10 11 -3
v 10 14 -3
v 10 14 3
v -10 11 -3
v -10 11 3
v -10 14 3
v -10 14 -3
v -9.5 11 -6.79289
v -9.5 14 -6.79289
v -6.79289 14 -9.5
v -6.79289 11 -9.5
v -6.79289 11 9.5
v -6.79289 14 9.5
v -9.5 14 6.79289
v -9.5 11 6.79289
v -3 11 -9.5
v -3 14 -9.5
v -3 11 9.5
v -3 14 9.5
v -9.5 11 -3
v -9.5 11 3
v -9.5 14 3
v -9.5 14 -3
vn 0 1 0
vn 1 0 0
vn 0.707107 0 0.707106
vn 0 0 1
vn -0.707107 0 0.707106
vn -1 -0 -0
vn -0.707107 -0 -0.707106
vn 0 0 -1
vn 0.707107 0 -0.707106
vn 0.408248 0.816497 -0.408248
vn 0.408248 0.816497 0.408248
vn -0.408248 0.816497 0.408248
vn -0.408248 0.816497 -0.408248
vn 0.707107 0 -0.707107
vn 0.707107 0 0.707107
vn -0.707107 -0 -0.707107
vn -0.707107 0 0.707107
vn 0 0.707107 -0.707107
vn 0 0.707107 0.707107
vn 0.707107 0.707107 0
vn -0.707107 0.707107 0
vn -0.894427 0.447214 0
vn -0.632456 0.447213 -0.632456
vn 0 0.447214 -0.894427
vn 0.632455 0.447214 -0.632455
vn 0.894427 0.447214 0
vn 0.632456 0.447213 0.632456
vn 0 0.447214 0.894427
vn -0.632455 0.447214 0.632455
vn 0 -1 0
vt 0.676915 0.271653
vt 0.606621 0.271653
vt 0.606621 0.244859
vt 0.676915 0.244859
vt 0.56292 0.271653
vt 0.56292 0.244859
vt 0.47397 0.271653
vt 0.47397 0.244859
vt 0.420152 0.271653
vt 0.420152 0.244859
vt 0.370503 0.271653
vt 0.370503 0.244859
vt 0.313814 0.271653
vt 0.313814 0.244859
vt 0.24037 0.271653
vt 0.24037 0.244859
vt 0.185004 0.271653
vt 0.185004 0.244859
vt 0.137555 0.271653
vt 0.137555 0.244859
vt 0.0863712 0.271653
vt 0.0863712 0.244859
vt 0.0137354 0.271653
vt 0.0137354 0.244859
vt 0.97504 0.271653
vt 0.925075 0.271653
vt 0.925075 0.244859
vt 0.97504 0.244859
vt 0.864324 0.271653
vt 0.864324 0.244859
vt 0.81055 0.271653
vt 0.81055 0.244859
vt 0.736877 0.271653
vt 0.736877 0.244859
vt 0.606621 0.0135427
vt 0.676915 0.0135427
vt 0.56292 0.0135427
vt 0.47397 0.0135427
vt 0.420152 0.0135427
vt 0.370503 0.0135427
vt 0.313814 0.0135427
vt 0.24037 0.0135427
vt 0.185004 0.0135427
vt 0.137555 0.0135427
vt 0.0863712 0.0135427
vt 0.0137354 0.0135427
vt 0.925075 0.0135427
vt 0.97504 0.0135427
vt 0.864324 0.0135427
vt 0.81055 0.0135427
vt 0.736877 0.0135427
vt 0.81055 0.433693
vt 0.81055 0.488694
vt 0.736877 0.488694
vt 0.736877 0.433693
vt 0.47397 0.488694
vt 0.47397 0.433693
vt 0.56292 0.433693
vt 0.56292 0.488694
vt 0.24037 0.488694
vt 0.24037 0.433693
vt 0.313814 0.433693
vt 0.313814 0.488694
vt 0.0863712 0.433693
vt 0.0863712 0.488694
vt 0.0137354 0.488694
vt 0.0137354 0.433693
vt 0.81055 0.401709
vt 0.736877 0.401709
vt 0.736877 0.354816
vt 0.81055 0.354816
vt 0.736877 0.404122
vt 0.81055 0.404122
vt 0.56292 0.401709
vt 0.47397 0.401709
vt 0.47397 0.354816
vt 0.56292 0.354816
vt 0.47397 0.404122
vt 0.56292 0.404122
vt 0.0863712 0.401709
vt 0.0137354 0.401709
vt 0.0137354 0.354816
vt 0.0863712 0.354816
vt 0.0137354 0.404122
vt 0.0863712 0.404122
vt 0.313814 0.401709
vt 0.24037 0.401709
vt 0.24037 0.354816
vt 0.313814 0.354816
vt 0.24037 0.404122
vt 0.313814 0.404122
vt 0.370503 0.433693
vt 0.370503 0.404122
vt 0.420152 0.404122
vt 0.420152 0.433693
vt 0.676915 0.404122
vt 0.676915 0.433693
vt 0.606621 0.433693
vt 0.606621 0.404122
vt 0.370503 0.401709
vt 0.370503 0.354816
vt 0.420152 0.354816
vt 0.420152 0.401709
vt 0.925075 0.404122
vt 0.925075 0.433693
vt 0.864324 0.433693
vt 0.864324 0.404122
vt 0.925075 0.488694
vt 0.864324 0.488694
vt 0.925075 0.354816
vt 0.925075 0.401709
vt 0.864324 0.401709
vt 0.864324 0.354816
vt 0.676915 0.354816
vt 0.676915 0.401709
vt 0.606621 0.401709
vt 0.606621 0.354816
vt 0.370503 0.488694
vt 0.420152 0.488694
vt 0.676915 0.488694
vt 0.606621 0.488694
vt 0.845201 0.646561
vt 0.806073 0.646561
vt 0.806073 0.587868
vt 0.845201 0.587868
vt 0.137555 0.488694
vt 0.137555 0.433693
vt 0.185004 0.433693
vt 0.185004 0.488694
vt 0.943023 0.646561
vt 0.903894 0.646561
vt 0.903894 0.587868
vt 0.943023 0.587868
vt 0.137555 0.404122
vt 0.185004 0.404122
vt 0.137555 0.401709
vt 0.137555 0.354816
vt 0.185004 0.354816
vt 0.185004 0.401709
vt 0.845201 0.685689
vt 0.903894 0.685689
vt 0.845201 0.548739
vt 0.903894 0.548739
vt 0.97504 0.433693
vt 0.97504 0.488694
vt 0.97504 0.354816
vt 0.97504 0.401709
vt 0.97504 0.404122
vt 0.913677 0.548739
vt 0.943023 0.578086
vt 0.806073 0.578086
vt 0.835419 0.548739
vt 0.835419 0.685689
vt 0.806073 0.656343
vt 0.943023 0.656343
vt 0.913676 0.685689
vt 0.47397 0.321379
vt 0.56292 0.321379
vt 0.420152 0.321379
vt 0.370503 0.321379
vt 0.313814 0.321379
vt 0.24037 0.321379
vt 0.185004 0.321379
vt 0.137555 0.321379
vt 0.0863712 0.321379
vt 0.0137354 0.321379
vt 0.925075 0.321379
vt 0.97504 0.321379
vt 0.864324 0.321379
vt 0.81055 0.321379
vt 0.736877 0.321379
vt 0.676915 0.321379
vt 0.606621 0.321379
vt 0.256169 0.839082
vt 0.197394 0.897856
vt 0.19309 0.887466
vt 0.248823 0.831735
vt 0.10923 0.897857
vt 0.113534 0.887467
vt 0.0504537 0.839082
vt 0.0578006 0.831735
vt 0.25456 0.885345
vt 0.195477 0.943812
vt 0.191228 0.933399
vt 0.247252 0.87796
vt 0.107315 0.943347
vt 0.111673 0.93298
vt 0.0488496 0.884262
vt 0.0562352 0.876954
vt 0.254207 0.861738
vt 0.195556 0.920641
vt 0.19123 0.91026
vt 0.246844 0.854407
vt 0.107393 0.920826
vt 0.111675 0.910427
vt 0.0484967 0.862173
vt 0.0558285 0.854811
vt 0.254796 0.819753
vt 0.196019 0.878526
vt 0.191716 0.868136
vt 0.247449 0.812406
vt 0.107856 0.878527
vt 0.112159 0.868136
vt 0.0490785 0.819753
vt 0.0564253 0.812406
vt 0.736877 0.719097
vt 0.81055 0.719097
vt 0.81055 0.754032
vt 0.736877 0.754032
vt 0.47397 0.719097
vt 0.56292 0.719097
vt 0.56292 0.754032
vt 0.47397 0.754032
vt 0.376272 0.754032
vt 0.376272 0.719097
vt 0.420152 0.719097
vt 0.420152 0.754032
vt 0.920516 0.719097
vt 0.920516 0.754032
vt 0.864324 0.754032
vt 0.864324 0.719097
vt 0.143632 0.754032
vt 0.143632 0.719097
vt 0.17896 0.719097
vt 0.17896 0.754032
vt 0.676915 0.719097
vt 0.676915 0.754032
vt 0.606621 0.754032
vt 0.606621 0.719097
vt 0.925075 0.719097
vt 0.925075 0.754032
vt 0.137622 0.754032
vt 0.137622 0.719097
vt 0.370264 0.754032
vt 0.370264 0.719097
vt 0.18497 0.719097
vt 0.18497 0.754032
vt 0.0139171 0.719097
vt 0.0863712 0.719097
vt 0.0863712 0.754032
vt 0.0138022 0.754032
vt 0.24037 0.719097
vt 0.313681 0.719097
vt 0.313681 0.754032
vt 0.24037 0.754032
vt 0.97504 0.719097
vt 0.97504 0.754032
mtllib high_development_hab_1.mtl
usemtl material1
g Default
f 116/1/1 115/2/1 131/3/1 132/4/1
f 115/2/1 107/5/1 123/6/1 131/3/1
f 107/5/1 108/7/1 124/8/1 123/6/1
f 108/7/1 110/9/1 126/10/1 124/8/1
f 110/9/1 109/11/1 125/12/1 126/10/1
f 109/11/1 104/13/1 120/14/1 125/12/1
f 104/13/1 103/15/1 119/16/1 120/14/1
f 103/15/1 114/17/1 130/18/1 119/16/1
f 114/17/1 113/19/1 129/20/1 130/18/1
f 113/19/1 102/21/1 118/22/1 129/20/1
f 102/21/1 101/23/1 117/24/1 118/22/1
f 101/25/1 112/26/1 128/27/1 117/28/1
f 112/26/1 111/29/1 127/30/1 128/27/1
f 111/29/1 105/31/1 121/32/1 127/30/1
f 105/31/1 106/33/1 122/34/1 121/32/1
f 106/33/1 116/1/1 132/4/1 122/34/1
f 132/4/2 131/3/2 147/35/2 148/36/2
f 131/3/2 123/6/2 139/37/2 147/35/2
f 123/6/3 124/8/3 140/38/3 139/37/3
f 124/8/4 126/10/4 142/39/4 140/38/4
f 126/10/4 125/12/4 141/40/4 142/39/4
f 125/12/4 120/14/4 136/41/4 141/40/4
f 120/14/5 119/16/5 135/42/5 136/41/5
f 119/16/6 130/18/6 146/43/6 135/42/6
f 130/18/6 129/20/6 145/44/6 146/43/6
f 129/20/6 118/22/6 134/45/6 145/44/6
f 118/22/7 117/24/7 133/46/7 134/45/7
f 117/28/8 128/27/8 144/47/8 133/48/8
f 128/27/8 127/30/8 143/49/8 144/47/8
f 127/30/8 121/32/8 137/50/8 143/49/8
f 121/32/9 122/34/9 138/51/9 137/50/9
f 122/34/2 132/4/2 148/36/2 138/51/2
f 15/52/10 23/53/10 24/54/10 16/55/10
f 22/56/11 14/57/11 13/58/11 21/59/11
f 18/60/12 6/61/12 5/62/12 17/63/12
f 7/64/13 19/65/13 20/66/13 8/67/13
f 25/68/14 28/69/14 10/70/14 9/71/14
f 15/52/14 16/55/14 27/72/14 26/73/14
f 29/74/15 32/75/15 12/76/15 11/77/15
f 13/58/15 14/57/15 31/78/15 30/79/15
f 33/80/16 36/81/16 1/82/16 2/83/16
f 7/64/16 8/67/16 35/84/16 34/85/16
f 37/86/17 40/87/17 3/88/17 4/89/17
f 5/62/17 6/61/17 39/90/17 38/91/17
f 45/92/4 60/93/4 59/94/4 46/95/4
f 71/96/2 62/97/2 61/98/2 72/99/2
f 57/100/4 41/101/4 42/102/4 58/103/4
f 55/104/8 50/105/8 49/106/8 56/107/8
f 50/105/18 51/108/18 52/109/18 49/106/18
f 44/110/8 54/111/8 53/112/8 43/113/8
f 80/114/2 70/115/2 69/116/2 79/117/2
f 48/118/19 45/92/19 46/95/19 47/119/19
f 62/97/20 63/120/20 64/121/20 61/98/20
f 82/122/1 52/123/1 51/124/1 83/125/1
f 68/126/21 65/127/21 66/128/21 67/129/21
f 47/130/1 81/131/1 84/132/1 48/133/1
f 65/127/6 76/134/6 75/135/6 66/128/6
f 73/136/6 77/137/6 78/138/6 74/139/6
f 63/140/1 82/122/1 81/131/1 64/141/1
f 83/125/1 68/142/1 67/143/1 84/132/1
f 81/131/1 82/122/1 83/125/1 84/132/1
f 45/92/19 48/118/19 17/63/19 5/62/19
f 14/57/19 22/56/19 47/119/19 46/95/19
f 49/106/18 52/109/18 23/53/18 15/52/18
f 8/144/18 20/145/18 51/108/18 50/105/18
f 41/101/4 57/100/4 37/86/4 4/89/4
f 58/103/4 42/102/4 12/76/4 32/75/4
f 60/93/4 45/92/4 5/62/4 38/91/4
f 46/95/4 59/94/4 31/78/4 14/57/4
f 43/113/8 53/112/8 25/68/8 9/71/8
f 54/111/8 44/110/8 1/146/8 36/147/8
f 56/107/8 49/106/8 15/52/8 26/73/8
f 50/105/8 55/104/8 35/148/8 8/144/8
f 61/98/20 64/121/20 21/59/20 13/58/20
f 16/55/20 24/54/20 63/120/20 62/97/20
f 65/127/21 68/126/21 19/65/21 7/64/21
f 6/61/21 18/60/21 67/129/21 66/128/21
f 77/137/6 73/136/6 33/80/6 2/83/6
f 74/139/6 78/138/6 3/88/6 40/87/6
f 76/134/6 65/127/6 7/64/6 34/85/6
f 66/128/6 75/135/6 39/90/6 6/61/6
f 79/117/2 69/116/2 29/74/2 11/77/2
f 70/115/2 80/114/2 10/70/2 28/69/2
f 72/99/2 61/98/2 13/58/2 30/79/2
f 62/97/2 71/96/2 27/72/2 16/55/2
f 67/143/1 18/149/1 17/150/1 48/133/1 84/132/1
f 51/124/1 20/151/1 19/152/1 68/142/1 83/125/1
f 63/140/1 24/153/1 23/154/1 52/123/1 82/122/1
f 47/130/1 22/155/1 21/156/1 64/141/1 81/131/1
f 11/77/1 12/76/1 92/157/1 91/158/1
f 12/76/1 42/102/1 94/159/1 92/157/1
f 42/102/1 41/101/1 93/160/1 94/159/1
f 41/101/1 4/89/1 88/161/1 93/160/1
f 4/89/1 3/88/1 87/162/1 88/161/1
f 3/88/1 78/138/1 98/163/1 87/162/1
f 78/138/1 77/137/1 97/164/1 98/163/1
f 77/137/1 2/83/1 86/165/1 97/164/1
f 2/83/1 1/82/1 85/166/1 86/165/1
f 1/146/1 44/110/1 96/167/1 85/168/1
f 44/110/1 43/113/1 95/169/1 96/167/1
f 43/113/1 9/71/1 89/170/1 95/169/1
f 9/71/1 10/70/1 90/171/1 89/170/1
f 10/70/1 80/114/1 100/172/1 90/171/1
f 80/114/1 79/117/1 99/173/1 100/172/1
f 79/117/1 11/77/1 91/158/1 99/173/1
f 98/163/22 97/164/22 113/19/22 114/17/22
f 97/164/22 86/165/22 102/21/22 113/19/22
f 86/165/23 85/166/23 101/23/23 102/21/23
f 85/168/24 96/167/24 112/26/24 101/25/24
f 96/167/24 95/169/24 111/29/24 112/26/24
f 95/169/24 89/170/24 105/31/24 111/29/24
f 89/170/25 90/171/25 106/33/25 105/31/25
f 90/171/26 100/172/26 116/1/26 106/33/26
f 100/172/26 99/173/26 115/2/26 116/1/26
f 99/173/26 91/158/26 107/5/26 115/2/26
f 91/158/27 92/157/27 108/7/27 107/5/27
f 92/157/28 94/159/28 110/9/28 108/7/28
f 94/159/28 93/160/28 109/11/28 110/9/28
f 93/160/28 88/161/28 104/13/28 109/11/28
f 88/161/29 87/162/29 103/15/29 104/13/29
f 87/162/22 98/163/22 114/17/22 103/15/22
f 157/174/1 152/175/1 168/176/1 173/177/1
f 152/175/1 149/178/1 165/179/1 168/176/1
f 149/178/1 161/180/1 177/181/1 165/179/1
f 164/182/30 150/183/30 166/184/30 180/185/30
f 150/183/30 151/186/30 167/187/30 166/184/30
f 151/186/30 158/188/30 174/189/30 167/187/30
f 160/190/30 154/191/30 170/192/30 176/193/30
f 154/191/30 155/194/30 171/195/30 170/192/30
f 155/194/30 163/196/30 179/197/30 171/195/30
f 162/198/1 156/199/1 172/200/1 178/201/1
f 156/199/1 153/202/1 169/203/1 172/200/1
f 153/202/1 159/204/1 175/205/1 169/203/1
f 184/206/14 181/207/14 182/208/14 183/209/14
f 188/210/15 185/211/15 186/212/15 187/213/15
f 196/214/4 193/215/4 194/216/4 195/217/4
f 190/218/8 191/219/8 192/220/8 189/221/8
f 204/222/6 201/223/6 202/224/6 203/225/6
f 198/226/2 199/227/2 200/228/2 197/229/2
f 189/221/8 192/220/8 182/208/8 181/207/8
f 195/217/4 194/216/4 188/210/4 187/213/4
f 199/227/2 198/226/2 184/206/2 183/209/2
f 197/229/2 200/228/2 186/212/2 185/211/2
f 191/219/6 190/218/6 213/230/6 214/231/6
f 201/223/8 204/222/8 220/232/8 217/233/8
f 193/215/6 196/214/6 216/234/6 215/235/6
f 203/225/4 202/224/4 218/236/4 219/237/4
f 208/238/16 205/239/16 206/240/16 207/241/16
f 212/242/17 209/243/17 210/244/17 211/245/17
f 214/231/8 213/230/8 208/246/8 207/247/8
f 215/235/4 216/234/4 210/244/4 209/243/4
f 219/237/6 218/236/6 212/242/6 211/245/6
f 217/233/6 220/232/6 206/240/6 205/239/6
