# OBJ written from C:\Users\rivalin\Desktop\pioneer\data\models\buildings\terran_metropolis2\metropolis_building_1.obj

o Mesh
v -16.5 29.5 -22.5
v -22.5 29.5 -16.5
v -22.5 29.5 16.5
v -16.5 29.5 22.5
v -16.5 33.5 22.5
v -22.5 33.5 16.5
v -22.5 33.5 -16.5
v -16.5 33.5 -22.5
v 22.5 29.5 -16.5
v 16.5 29.5 -22.5
v 16.5 29.5 22.5
v 22.5 29.5 16.5
v 22.5 33.5 16.5
v 16.5 33.5 22.5
v 16.5 33.5 -22.5
v 22.5 33.5 -16.5
v -12.5 37.5 18.5
v -18.5 37.5 12.5
v -18.5 37.5 -12.5
v -12.5 37.5 -18.5
v 18.5 37.5 12.5
v 12.5 37.5 18.5
v 12.5 37.5 -18.5
v 18.5 37.5 -12.5
v -16 29.5 -22
v -22 29.5 -16
v -22 29.5 16
v -16 29.5 22
v 22 29.5 -16
v 16 29.5 -22
v 16 29.5 22
v 22 29.5 16
v -16 26.5 -22
v -22 26.5 -16
v -22 26.5 16
v -16 26.5 22
v 22 26.5 -16
v 16 26.5 -22
v 16 26.5 22
v 22 26.5 16
v -16.5 26.5 -22.5
v -22.5 26.5 -16.5
v -22.5 26.5 16.5
v -16.5 26.5 22.5
v 22.5 26.5 -16.5
v 16.5 26.5 -22.5
v 16.5 26.5 22.5
v 22.5 26.5 16.5
v -16.5 24 -22.5
v -22.5 24 -16.5
v -22.5 24 16.5
v -16.5 24 22.5
v 22.5 24 -16.5
v 16.5 24 -22.5
v 16.5 24 22.5
v 22.5 24 16.5
v -16 24 -22
v -22 24 -16
v -22 24 16
v -16 24 22
v 22 24 -16
v 16 24 -22
v 16 24 22
v 22 24 16
v -16 21 -22
v -22 21 -16
v -22 21 16
v -16 21 22
v 22 21 -16
v 16 21 -22
v 16 21 22
v 22 21 16
v -16.5 21 -22.5
v -22.5 21 -16.5
v -22.5 21 16.5
v -16.5 21 22.5
v 22.5 21 -16.5
v 16.5 21 -22.5
v 16.5 21 22.5
v 22.5 21 16.5
v -16.5 17 -22.5
v -22.5 17 -16.5
v -22.5 17 16.5
v -16.5 17 22.5
v 22.5 17 -16.5
v 16.5 17 -22.5
v 16.5 17 22.5
v 22.5 17 16.5
v -14.5 13 -20.5
v -20.5 13 -14.5
v -20.5 13 14.5
v -14.5 13 20.5
v 20.5 13 -14.5
v 14.5 13 -20.5
v 14.5 13 20.5
v 20.5 13 14.5
v -10.5 13 -16.5
v -16.5 13 -10.5
v -16.5 13 10.5
v -10.5 13 16.5
v 16.5 13 -10.5
v 10.5 13 -16.5
v 10.5 13 16.5
v 16.5 13 10.5
v -10.5 5 -16.5
v -16.5 5 -10.5
v -16.5 5 10.5
v -10.5 5 16.5
v 16.5 5 -10.5
v 10.5 5 -16.5
v 10.5 5 16.5
v 16.5 5 10.5
v -11.3284 5 -18.5
v -18.5 5 -11.3284
v -18.5 5 11.3284
v -11.3284 5 18.5
v 18.5 5 -11.3284
v 11.3284 5 -18.5
v 11.3284 5 18.5
v 18.5 5 11.3284
v -11.3284 -25 -18.5
v -18.5 -25 -11.3284
v -18.5 -25 11.3284
v -11.3284 -25 18.5
v 18.5 -25 -11.3284
v 11.3284 -25 -18.5
v 11.3284 -25 18.5
v 18.5 -25 11.3284
vn 0 1 0
vn 0.707107 0 0.707107
vn 0 0 1
vn -0.707107 0 0.707107
vn -1 0 0
vn -0.707107 0 -0.707107
vn 0 0 -1
vn 0.707107 0 -0.707107
vn 1 0 0
vn 0 -1 0
vn -0.57735 -0.57735 -0.57735
vn -0.57735 -0.57735 0.57735
vn 0.57735 -0.57735 -0.57735
vn 0.408248 0.816497 -0.408248
vn 0.408248 0.816497 0.408248
vn 0.57735 -0.57735 0.57735
vn -0.408248 0.816497 0.408248
vn -0.408248 0.816497 -0.408248
vn 0.707107 0.707107 0
vn 0 0.707107 -0.707107
vn -0.707107 0.707107 0
vn 0 0.707107 0.707107
vn -0.894427 -0.447214 0
vn -0 -0.447214 -0.894427
vn 0.894427 -0.447214 0
vn 0 -0.447214 0.894427
vt 0.775926 0.585273
vt 0.813306 0.640741
vt 0.820202 0.627778
vt 0.788889 0.581313
vt 0.775926 0.414727
vt 0.788889 0.418687
vt 0.813306 0.359259
vt 0.820202 0.372222
vt 0.936694 0.359259
vt 0.929798 0.372222
vt 0.974074 0.414727
vt 0.961111 0.418687
vt 0.974074 0.585273
vt 0.961111 0.581313
vt 0.936694 0.640741
vt 0.929798 0.627778
vt 0.786448 0.336574
vt 0.783333 0.333333
vt 0.75 0.377778
vt 0.753241 0.381145
vt 0.966667 0.333333
vt 0.963552 0.336574
vt 0.996759 0.381145
vt 1 0.377778
vt 0.996759 0.618855
vt 1 0.622222
vt 0.966667 0.666667
vt 0.963552 0.663426
vt 0.75 0.622222
vt 0.753241 0.618855
vt 0.786448 0.663426
vt 0.783333 0.666667
vt 0.25 0.711111
vt 0 0.711111
vt 0 0.622222
vt 0.25 0.622222
vt 0.533333 0.666667
vt 0.533333 1
vt 0.466667 1
vt 0.466667 0.666667
vt 0.954246 0.346296
vt 0.987037 0.391283
vt 0.795754 0.346296
vt 0.762963 0.391283
vt 0.987037 0.608717
vt 0.954246 0.653704
vt 0.308058 0.640741
vt 0.283333 0.666667
vt 0.275926 0.595095
vt 0.474074 0.595095
vt 0.5 0.622222
vt 0.441942 0.640741
vt 0.5 0.288889
vt 0.75 0.288889
vt 0.5 0.377778
vt 0 0.288889
vt 0.25 0.288889
vt 0.25 0.377778
vt 0 0.377778
vt 0.762963 0.608717
vt 0.795754 0.653704
vt 0.441942 0.359259
vt 0.466667 0.333333
vt 0.474074 0.404905
vt 0.283333 0.333333
vt 0.308058 0.359259
vt 0.275926 0.404905
vt 0.466667 0
vt 0.283333 0
vt 0.283333 1
mtllib metropolis_building_1.mtl
usemtl wall
g Default
f 67/17/1 75/18/1 76/19/1 68/20/1
f 74/21/1 66/22/1 65/23/1 73/24/1
f 62/25/10 54/26/10 53/27/10 61/28/10
f 55/29/10 63/30/10 64/31/10 56/32/10
f 51/18/10 59/17/10 60/20/10 52/19/10
f 58/22/10 50/21/10 49/24/10 57/23/10
f 78/26/1 70/25/1 69/28/1 77/27/1
f 71/30/1 79/29/1 80/32/1 72/31/1
f 16/33/8 9/34/8 10/35/8 15/36/8
f 14/37/2 11/38/2 12/39/2 13/40/2
f 54/26/8 46/26/8 45/27/8 53/27/8
f 47/29/2 55/29/2 56/32/2 48/32/2
f 42/21/1 34/22/1 33/23/1 41/24/1
f 35/17/1 43/18/1 44/19/1 36/20/1
f 86/26/8 78/26/8 77/27/8 85/27/8
f 43/18/4 51/18/4 52/19/4 44/19/4
f 50/21/6 42/21/6 41/24/6 49/24/6
f 46/26/1 38/25/1 37/28/1 45/27/1
f 79/29/2 87/29/2 88/32/2 80/32/2
f 39/30/1 47/29/1 48/32/1 40/31/1
f 90/41/11 82/21/11 81/24/11 89/42/11
f 83/18/12 91/43/12 92/44/12 84/19/12
f 94/45/13 86/26/13 85/27/13 93/46/13
f 24/47/14 16/48/14 15/36/14 23/49/14
f 22/50/15 14/51/15 13/40/15 21/52/15
f 6/53/4 3/54/4 4/19/4 5/55/4
f 2/56/6 7/57/6 8/58/6 1/59/6
f 87/29/16 95/60/16 96/61/16 88/32/16
f 9/27/10 29/28/10 30/25/10 10/26/10
f 98/10/10 90/41/10 89/42/10 97/12/10
f 11/29/10 31/30/10 32/31/10 12/32/10
f 84/19/4 76/19/4 75/18/4 83/18/4
f 82/21/6 74/21/6 73/24/6 81/24/6
f 91/43/10 99/8/10 100/6/10 92/44/10
f 102/14/10 94/45/10 93/46/10 101/16/10
f 26/22/10 2/21/10 1/24/10 25/23/10
f 95/60/10 103/4/10 104/3/10 96/61/10
f 3/18/10 27/17/10 28/20/10 4/19/10
f 18/62/17 6/63/17 5/55/17 17/64/17
f 7/65/18 19/66/18 20/67/18 8/58/18
f 106/10/6 98/10/6 97/12/6 105/12/6
f 99/8/4 107/8/4 108/6/4 100/6/4
f 101/16/8 109/16/8 110/14/8 102/14/8
f 103/4/2 111/4/2 112/3/2 104/3/2
f 3/68/5 6/63/5 7/65/5 2/69/5
f 14/51/3 5/55/3 4/19/3 11/29/3
f 10/35/7 1/59/7 8/58/7 15/36/7
f 16/48/9 13/40/9 12/39/9 9/70/9
f 16/48/19 24/47/19 21/52/19 13/40/19
f 8/58/20 20/67/20 23/49/20 15/36/20
f 6/63/21 18/62/21 19/66/21 7/65/21
f 14/51/22 22/50/22 17/64/22 5/55/22
f 21/52/1 24/47/1 23/49/1 20/67/1 19/66/1 18/62/1 17/64/1 22/50/1
f 12/32/10 32/31/10 29/28/10 9/27/10
f 4/19/10 28/20/10 31/30/10 11/29/10
f 2/21/10 26/22/10 27/17/10 3/18/10
f 10/26/10 30/25/10 25/23/10 1/24/10
f 42/21/1 43/18/1 35/17/1 34/22/1
f 46/26/1 41/24/1 33/23/1 38/25/1
f 48/32/1 45/27/1 37/28/1 40/31/1
f 44/19/1 47/29/1 39/30/1 36/20/1
f 42/21/5 50/21/5 51/18/5 43/18/5
f 46/26/7 54/26/7 49/24/7 41/24/7
f 48/32/9 56/32/9 53/27/9 45/27/9
f 44/19/3 52/19/3 55/29/3 47/29/3
f 56/32/10 64/31/10 61/28/10 53/27/10
f 52/19/10 60/20/10 63/30/10 55/29/10
f 50/21/10 58/22/10 59/17/10 51/18/10
f 54/26/10 62/25/10 57/23/10 49/24/10
f 74/21/1 75/18/1 67/17/1 66/22/1
f 78/26/1 73/24/1 65/23/1 70/25/1
f 80/32/1 77/27/1 69/28/1 72/31/1
f 76/19/1 79/29/1 71/30/1 68/20/1
f 80/32/9 88/32/9 85/27/9 77/27/9
f 76/19/3 84/19/3 87/29/3 79/29/3
f 74/21/5 82/21/5 83/18/5 75/18/5
f 78/26/7 86/26/7 81/24/7 73/24/7
f 82/21/23 90/41/23 91/43/23 83/18/23
f 86/26/24 94/45/24 89/42/24 81/24/24
f 88/32/25 96/61/25 93/46/25 85/27/25
f 84/19/26 92/44/26 95/60/26 87/29/26
f 90/41/10 98/10/10 99/8/10 91/43/10
f 94/45/10 102/14/10 97/12/10 89/42/10
f 96/61/10 104/3/10 101/16/10 93/46/10
f 92/44/10 100/6/10 103/4/10 95/60/10
f 98/10/5 106/10/5 107/8/5 99/8/5
f 102/14/7 110/14/7 105/12/7 97/12/7
f 104/3/9 112/3/9 109/16/9 101/16/9
f 100/6/3 108/6/3 111/4/3 103/4/3
usemtl window
f 70/25/8 62/25/8 61/28/8 69/28/8
f 72/31/2 64/31/2 63/30/2 71/30/2
f 34/22/6 26/22/6 25/23/6 33/23/6
f 59/17/4 67/17/4 68/20/4 60/20/4
f 66/22/6 58/22/6 57/23/6 65/23/6
f 36/20/4 28/20/4 27/17/4 35/17/4
f 29/28/8 37/28/8 38/25/8 30/25/8
f 40/31/2 32/31/2 31/30/2 39/30/2
f 30/25/7 38/25/7 33/23/7 25/23/7
f 32/31/9 40/31/9 37/28/9 29/28/9
f 28/20/3 36/20/3 39/30/3 31/30/3
f 26/22/5 34/22/5 35/17/5 27/17/5
f 58/22/5 66/22/5 67/17/5 59/17/5
f 62/25/7 70/25/7 65/23/7 57/23/7
f 64/31/9 72/31/9 69/28/9 61/28/9
f 60/20/3 68/20/3 71/30/3 63/30/3
usemtl foundation
f 119/1/1 120/2/1 112/3/1 111/4/1
f 116/5/1 119/1/1 111/4/1 108/6/1
f 115/7/1 116/5/1 108/6/1 107/8/1
f 114/9/1 115/7/1 107/8/1 106/10/1
f 113/11/1 114/9/1 106/10/1 105/12/1
f 118/13/1 113/11/1 105/12/1 110/14/1
f 117/15/1 118/13/1 110/14/1 109/16/1
f 120/2/1 117/15/1 109/16/1 112/3/1
f 120/2/2 119/1/2 127/1/2 128/2/2
f 119/1/3 116/5/3 124/5/3 127/1/3
f 116/5/4 115/7/4 123/7/4 124/5/4
f 115/7/5 114/9/5 122/9/5 123/7/5
f 114/9/6 113/11/6 121/11/6 122/9/6
f 113/11/7 118/13/7 126/13/7 121/11/7
f 118/13/8 117/15/8 125/15/8 126/13/8
f 117/15/9 120/2/9 128/2/9 125/15/9
