o head_b
v 0.083292 0.970062 0.181317
v 0.113811 0.917277 0.177176
v 0.108407 0.833062 0.143611
v 0.077800 0.761631 0.128117
v -0.064755 0.714278 0.163032
v -0.103359 0.833062 0.143611
v -0.082083 0.970062 0.181317
v -0.033646 0.963184 0.258119
v -0.046287 0.904407 0.288757
v -0.051622 0.835235 0.291075
v -0.046287 0.774900 0.259179
v -0.026468 0.708841 0.207931
v 0.027677 0.708841 0.207931
v 0.047496 0.774900 0.259179
v 0.056670 0.835235 0.291075
v 0.047496 0.904407 0.288757
v 0.034855 0.963184 0.258119
v -0.000347 1.001200 0.165163
v -0.112602 0.917277 0.177176
v -0.076591 0.761631 0.128117
v 0.065964 0.714278 0.163032
vt 0.228468 0.117595
vt 0.382921 0.139528
vt 0.489101 0.018305
vt 0.131151 0.285914
vt 0.342611 0.326953
vt 0.405808 0.950562
vt 0.578465 0.950562
vt 0.641661 0.739917
vt 0.342611 0.739917
vt 0.670914 0.547523
vt 0.325600 0.547523
vt 0.641661 0.326953
vt 0.601351 0.139528
vt 0.755804 0.117595
vt 0.853122 0.285914
vt 0.081427 0.554454
vt 0.915087 0.554454
vt 0.154474 0.782227
vt 0.829798 0.782227
vt 0.283721 0.933225
vt 0.700551 0.933225
vn -0.565142 0.713034 0.414899
vn -0.330546 0.711203 0.620380
vn -0.002258 0.944212 0.329264
vn -0.874386 0.083560 0.477920
vn -0.448714 0.274270 0.850520
vn -0.351268 -0.637410 0.685781
vn 0.351268 -0.637410 0.685781
vn 0.635762 -0.481399 0.603320
vn -0.638020 -0.469008 0.610645
vn 0.532456 -0.194861 0.823695
vn -0.515458 -0.196356 0.834101
vn 0.436720 0.286752 0.852626
vn 0.330424 0.711722 0.619861
vn 0.563066 0.715323 0.413800
vn 0.874142 0.105197 0.474075
vn -0.905393 -0.310343 0.289712
vn 0.900571 -0.313517 0.301065
vn -0.942259 -0.232124 0.241340
vn 0.936552 -0.253304 0.242195
vn -0.858974 -0.342265 0.380779
vn 0.858974 -0.342265 0.380779
s 1
f 7/1/1 8/2/2 18/3/3
f 19/4/4 9/5/5 8/2/2 7/1/1
f 12/6/6 13/7/7 14/8/8 11/9/9
f 11/9/9 14/8/8 15/10/10 10/11/11
f 10/11/11 15/10/10 16/12/12 9/5/5
f 9/5/5 16/12/12 17/13/13 8/2/2
f 8/2/2 17/13/13 18/3/3
f 17/13/13 1/14/14 18/3/3
f 1/14/14 17/13/13 16/12/12 2/15/15
f 6/16/16 10/11/11 19/4/4
f 10/11/11 9/5/5 19/4/4
f 15/10/10 3/17/17 2/15/15
f 15/10/10 2/15/15 16/12/12
f 11/9/9 10/11/11 6/16/16
f 6/16/16 20/18/18 11/9/9
f 3/17/17 15/10/10 14/8/8
f 14/8/8 4/19/19 3/17/17
f 5/20/20 12/6/6 11/9/9
f 11/9/9 20/18/18 5/20/20
f 21/21/21 4/19/19 14/8/8
f 14/8/8 13/7/7 21/21/21
