# OBJ written from C:\Users\rivalin\Desktop\pioneer\data\models\buildings\high_development\high_development_pad\high_development_pad.obj

o Mesh
v -26 10 20
v -20 10 26
v -20 10 -26
v -26 10 -20
v 20 10 26
v 26 10 20
v 26 10 -20
v 20 10 -26
v -28 8 22
v -22 8 28
v -22 8 -28
v -28 8 -22
v 22 8 28
v 28 8 22
v 28 8 -22
v 22 8 -28
v -28 8 22
v -22 8 28
v -22 8 -28
v -28 8 -22
v 22 8 28
v 28 8 22
v 28 8 -22
v 22 8 -28
v -31 8 22.6569
v -22.6569 8 31
v -22.6569 8 -31
v -31 8 -22.6569
v 22.6569 8 31
v 31 8 22.6569
v 31 8 -22.6569
v 22.6569 8 -31
v -33 4 23.4853
v -23.4853 4 33
v -23.4853 4 -33
v -33 4 -23.4853
v 23.4853 4 33
v 33 4 23.4853
v 33 4 -23.4853
v 23.4853 4 -33
v -35 4 24.3137
v -24.3137 4 35
v -24.3137 4 -35
v -35 4 -24.3137
v 24.3137 4 35
v 35 4 24.3137
v 35 4 -24.3137
v 24.3137 4 -35
v -35 -26 24.3137
v -24.3137 -26 35
v -24.3137 -26 -35
v -35 -26 -24.3137
v 24.3137 -26 35
v 35 -26 24.3137
v 35 -26 -24.3137
v 24.3137 -26 -35
v -24 10 19.1716
v -19.1716 10 24
v -19.1716 10 -24
v -24 10 -19.1716
v 19.1716 10 24
v 24 10 19.1716
v 24 10 -19.1716
v 19.1716 10 -24
v -24 11 19.1716
v -19.1716 11 24
v -19.1716 11 -24
v -24 11 -19.1716
v 19.1716 11 24
v 24 11 19.1716
v 24 11 -19.1716
v 19.1716 11 -24
v -24.3137 -56 -35
v 24.3137 -56 -35
v 35 -56 -24.3137
v 35 -56 24.3137
v 24.3137 -56 35
v -24.3137 -56 35
v -35 -56 24.3137
v -35 -56 -24.3137
v -5.23432 16.41 -19.5
v 5.23432 16.41 -19.5
v 5.23432 6.84 -19.5
v -5.23432 6.84 -19.5
v 5.23432 6.84 -29.5
v -5.23432 6.84 -29.5
v -5.23432 16.41 -26.5
v -5.23432 13.41 -29.5
v 5.23432 16.41 -26.5
v 5.23432 13.41 -29.5
v -2.64432 9.43 -19.5
v 2.64432 9.43 -19.5
v 2.64432 13.82 -19.5
v -2.64432 13.82 -19.5
v -2.64432 9.43 -20.8
v 2.64432 9.43 -20.8
v 2.64432 13.82 -20.8
v -2.64432 13.82 -20.8
vn 0 1 0
vn 0.707107 0 -0.707107
vn 1 0 0
vn 0.707107 0 0.707107
vn 0 0 1
vn -0.707107 0 0.707107
vn -1 -0 -0
vn -0.707107 -0 -0.707107
vn 0 0 -1
vn 0 0 0
vn 0.408248 0.816497 -0.408248
vn 0.408248 0.816497 0.408248
vn -0.408248 0.816497 -0.408248
vn -0.408248 0.816497 0.408248
vn 0.707107 0.707107 0
vn 0 0.707107 -0.707107
vn -0.707107 0.707107 0
vn 0 0.707107 0.707107
vn -0.894427 0.447214 0
vn -0.632457 0.44721 -0.632457
vn 0 0.447214 -0.894427
vn 0.632457 0.44721 -0.632457
vn 0.894427 0.447214 0
vn 0.632457 0.44721 0.632457
vn 0 0.447214 0.894427
vn -0.632457 0.44721 0.632457
vn -0 -1 -0
vt 0.090589 0.781097
vt 0.0138876 0.781097
vt 0.0138876 0.761507
vt 0.090589 0.761507
vt 0.980888 0.288097
vt 0.745498 0.288097
vt 0.745498 0.268507
vt 0.980888 0.268507
vt 0.662367 0.288097
vt 0.662367 0.268507
vt 0.423532 0.288097
vt 0.423532 0.268507
vt 0.344489 0.288097
vt 0.344489 0.268507
vt 0.0985006 0.288097
vt 0.0985006 0.268507
vt 0.0233689 0.288097
vt 0.0233689 0.268507
vt 0.363631 0.781097
vt 0.363631 0.761507
vt 0.0138876 0.61803
vt 0.090589 0.61803
vt 0.745498 0.12503
vt 0.980888 0.12503
vt 0.662367 0.12503
vt 0.423532 0.12503
vt 0.344489 0.12503
vt 0.0985006 0.12503
vt 0.0233689 0.12503
vt 0.363631 0.61803
vt 0.0233689 0.0108768
vt 0.0985006 0.0108768
vt 0.090589 0.503877
vt 0.363631 0.503877
vt 0.0138876 0.503877
vt 0.745498 0.0108768
vt 0.980888 0.0108768
vt 0.662367 0.0108768
vt 0.423532 0.0108768
vt 0.344489 0.0108768
vt 0.0138876 0.910912
vt 0.0138876 0.845843
vt 0.090589 0.845843
vt 0.090589 0.910912
vt 0.745498 0.352843
vt 0.745498 0.417912
vt 0.662367 0.417912
vt 0.662367 0.352843
vt 0.0985006 0.352843
vt 0.0985006 0.417912
vt 0.0233689 0.417912
vt 0.0233689 0.352843
vt 0.344489 0.417912
vt 0.344489 0.352843
vt 0.423532 0.352843
vt 0.423532 0.417912
vt 0.0138876 0.954457
vt 0.090589 0.954457
vt 0.662367 0.461457
vt 0.745498 0.461457
vt 0.0985006 0.461457
vt 0.0233689 0.461457
vt 0.423532 0.461457
vt 0.344489 0.461457
vt 0.980888 0.417912
vt 0.980888 0.461457
vt 0.363631 0.910912
vt 0.363631 0.954457
vt 0.980888 0.352843
vt 0.363631 0.845843
vt 0.0233689 0.321117
vt 0.0985006 0.321117
vt 0.090589 0.814117
vt 0.363631 0.814117
vt 0.0138876 0.814117
vt 0.745498 0.321117
vt 0.980888 0.321117
vt 0.662367 0.321117
vt 0.423532 0.321117
vt 0.344489 0.321117
vt 0.423532 0.485874
vt 0.344489 0.485874
vt 0.662367 0.485874
vt 0.745498 0.485874
vt 0.980888 0.485874
vt 0.090589 0.978874
vt 0.0138876 0.978874
vt 0.363631 0.978874
vt 0.0985006 0.485874
vt 0.0233689 0.485874
vt 0.61689 0.868513
vt 0.61689 0.818913
vt 0.66649 0.818913
vt 0.66649 0.868513
vt 0.585319 0.818913
vt 0.585319 0.868513
vt 0.571356 0.868513
vt 0.571356 0.818913
vt 0.541 0.919105
vt 0.541 0.884385
vt 0.554964 0.869505
vt 0.585543 0.869505
vt 0.585543 0.919105
vt 0.58653 0.869505
vt 0.620961 0.869505
vt 0.620961 0.919105
vt 0.58653 0.919105
vt 0.570366 0.818913
vt 0.570366 0.868513
vt 0.539786 0.868513
vt 0.525823 0.853633
vt 0.525823 0.818913
vt 0.615899 0.818913
vt 0.615899 0.868513
vt 0.621948 0.869505
vt 0.666491 0.869505
vt 0.654436 0.881776
vt 0.634003 0.881776
vt 0.666491 0.919105
vt 0.654436 0.906834
vt 0.621948 0.919105
vt 0.634003 0.906834
vt 0.519651 0.908271
vt 0.538924 0.908271
vt 0.538924 0.917469
vt 0.519651 0.917469
vt 0.50951 0.897206
vt 0.50951 0.872883
vt 0.518709 0.872883
vt 0.518709 0.897206
vt 0.538924 0.907351
vt 0.519651 0.907351
vt 0.519651 0.898152
vt 0.538924 0.898152
vt 0.499392 0.897206
vt 0.499392 0.872883
vt 0.50859 0.872883
vt 0.50859 0.897206
vt 0.538924 0.872883
vt 0.538924 0.897206
vt 0.519651 0.897206
vt 0.519651 0.872883
vt 0.090589 0.990123
vt 0.0138876 0.990123
vt 0.363631 0.990123
vt 0.0985006 0.497123
vt 0.0233689 0.497123
vt 0.344489 0.497123
vt 0.423532 0.497123
vt 0.662367 0.497123
vt 0.745498 0.497123
vt 0.980888 0.497123
vt 0.989432 0.692375
vt 0.989432 0.870057
vt 0.967057 0.892432
vt 0.789375 0.892432
vt 0.767 0.870057
vt 0.767 0.692375
vt 0.789375 0.67
vt 0.967057 0.67
mtllib high_development_pad.mtl
usemtl material1
g Default
f 40/1/1 39/2/1 47/3/1 48/4/1
f 39/5/1 38/6/1 46/7/1 47/8/1
f 38/6/1 37/9/1 45/10/1 46/7/1
f 37/9/1 34/11/1 42/12/1 45/10/1
f 34/11/1 33/13/1 41/14/1 42/12/1
f 33/13/1 36/15/1 44/16/1 41/14/1
f 36/15/1 35/17/1 43/18/1 44/16/1
f 35/19/1 40/1/1 48/4/1 43/20/1
f 48/4/2 47/3/2 55/21/2 56/22/2
f 47/8/3 46/7/3 54/23/3 55/24/3
f 46/7/4 45/10/4 53/25/4 54/23/4
f 45/10/5 42/12/5 50/26/5 53/25/5
f 42/12/6 41/14/6 49/27/6 50/26/6
f 41/14/7 44/16/7 52/28/7 49/27/7
f 44/16/8 43/18/8 51/29/8 52/28/8
f 43/20/9 48/4/9 56/22/9 51/30/9
f 52/28/8 51/29/8 73/31/8 80/32/8
f 51/30/9 56/22/9 74/33/9 73/34/9
f 56/22/2 55/21/2 75/35/2 74/33/2
f 55/24/3 54/23/3 76/36/3 75/37/3
f 54/23/4 53/25/4 77/38/4 76/36/4
f 53/25/5 50/26/5 78/39/5 77/38/5
f 50/26/6 49/27/6 79/40/6 78/39/6
f 49/27/7 52/28/7 80/32/7 79/40/7
f 15/41/10 23/42/10 24/43/10 16/44/10
f 22/45/10 14/46/10 13/47/10 21/48/10
f 20/49/10 12/50/10 11/51/10 19/52/10
f 9/53/10 17/54/10 18/55/10 10/56/10
f 7/57/11 15/41/11 16/44/11 8/58/11
f 5/59/12 13/47/12 14/46/12 6/60/12
f 12/50/13 4/61/13 3/62/13 11/51/13
f 10/56/14 2/63/14 1/64/14 9/53/14
f 14/46/15 15/65/15 7/66/15 6/60/15
f 16/44/16 11/67/16 3/68/16 8/58/16
f 12/50/17 9/53/17 1/64/17 4/61/17
f 10/56/18 13/47/18 5/59/18 2/63/18
f 22/45/10 23/69/10 15/65/10 14/46/10
f 24/43/10 19/70/10 11/67/10 16/44/10
f 20/49/10 17/54/10 9/53/10 12/50/10
f 18/55/10 21/48/10 13/47/10 10/56/10
f 20/49/1 19/52/1 27/71/1 28/72/1
f 19/70/1 24/43/1 32/73/1 27/74/1
f 24/43/1 23/42/1 31/75/1 32/73/1
f 23/69/1 22/45/1 30/76/1 31/77/1
f 22/45/1 21/48/1 29/78/1 30/76/1
f 21/48/1 18/55/1 26/79/1 29/78/1
f 18/55/1 17/54/1 25/80/1 26/79/1
f 17/54/1 20/49/1 28/72/1 25/80/1
f 25/80/19 28/72/19 36/15/19 33/13/19
f 28/72/20 27/71/20 35/17/20 36/15/20
f 27/74/21 32/73/21 40/1/21 35/19/21
f 32/73/22 31/75/22 39/2/22 40/1/22
f 31/77/23 30/76/23 38/6/23 39/5/23
f 30/76/24 29/78/24 37/9/24 38/6/24
f 29/78/25 26/79/25 34/11/25 37/9/25
f 26/79/26 25/80/26 33/13/26 34/11/26
f 1/64/1 2/63/1 58/81/1 57/82/1
f 2/63/1 5/59/1 61/83/1 58/81/1
f 5/59/1 6/60/1 62/84/1 61/83/1
f 6/60/1 7/66/1 63/85/1 62/84/1
f 7/57/1 8/58/1 64/86/1 63/87/1
f 8/58/1 3/68/1 59/88/1 64/86/1
f 3/62/1 4/61/1 60/89/1 59/90/1
f 4/61/1 1/64/1 57/82/1 60/89/1
f 83/91/27 84/92/27 86/93/27 85/94/27
f 90/95/16 88/96/16 87/97/16 89/98/16
f 81/99/7 87/100/7 88/101/7 86/102/7 84/103/7
f 82/104/1 89/105/1 87/106/1 81/107/1
f 83/108/3 85/109/3 90/110/3 89/111/3 82/112/3
f 90/95/9 85/113/9 86/114/9 88/96/9
f 81/115/5 84/116/5 91/117/5 94/118/5
f 84/116/5 83/119/5 92/120/5 91/117/5
f 83/119/5 82/121/5 93/122/5 92/120/5
f 82/121/5 81/115/5 94/118/5 93/122/5
f 94/123/3 91/124/3 95/125/3 98/126/3
f 91/127/1 92/128/1 96/129/1 95/130/1
f 92/131/7 93/132/7 97/133/7 96/134/7
f 93/135/27 94/136/27 98/137/27 97/138/27
f 95/139/5 96/140/5 97/141/5 98/142/5
f 63/87/2 64/86/2 72/143/2 71/144/2
f 64/86/9 59/88/9 67/145/9 72/143/9
f 59/90/8 60/89/8 68/146/8 67/147/8
f 60/89/7 57/82/7 65/148/7 68/146/7
f 57/82/6 58/81/6 66/149/6 65/148/6
f 58/81/5 61/83/5 69/150/5 66/149/5
f 61/83/4 62/84/4 70/151/4 69/150/4
f 62/84/3 63/85/3 71/152/3 70/151/3
f 66/153/1 69/154/1 70/155/1 71/156/1 72/157/1 67/158/1 68/159/1 65/160/1
