# 3ds Max Wavefront OBJ Exporter v0.94b - (c)2007 guruware
# File Created: 09.10.2010 19:34:23

#
# object sides
#

v  1.9856 0.3766 2.7930
v  2.4433 1.0076 4.2604
v  2.1007 0.2598 2.9414
v  2.3266 0.8352 5.5613
v  2.0077 0.3799 5.2718
v  2.1006 0.2619 5.1668
v  3.1557 2.0160 4.6746
v  3.1557 2.0164 5.2197
v  2.0500 -0.3725 -0.0586
v  2.6000 -0.3704 5.4084
v  1.0800 0.1126 -5.2112
v  0.9800 -0.3725 -6.2000
v  0.9800 -0.0839 -6.0586
v  2.0077 0.3807 6.2607
v  2.6000 -0.3692 6.7607
v  2.8000 -1.1224 2.9414
v  0.9800 -0.8284 -5.7920
v  1.5615 -0.3725 -3.0586
v  2.8000 -1.1193 6.7607
v  -2.4433 1.0076 4.2604
v  -1.9856 0.3766 2.7930
v  -2.1007 0.2598 2.9414
v  -2.1006 0.2619 5.1668
v  -2.0077 0.3799 5.2718
v  -2.3266 0.8352 5.5613
v  -3.1557 2.0164 5.2197
v  -3.1557 2.0160 4.6746
v  -2.0500 -0.3725 -0.0586
v  -2.6000 -0.3704 5.4084
v  -1.0800 0.1126 -5.2112
v  -0.9800 -0.3725 -6.2000
v  -0.9800 -0.0839 -6.0586
v  -2.6000 -0.3692 6.7607
v  -2.0077 0.3807 6.2607
v  -0.9800 -0.8284 -5.7920
v  -2.8000 -1.1224 2.9414
v  -1.5615 -0.3725 -3.0586
v  -2.8000 -1.1193 6.7607
# 38 vertices

vn 0.8539 0.3253 -0.4062
vn 0.9148 -0.3999 0.0571
vn 0.8571 -0.5152 0.0004
vn 0.8245 -0.5635 0.0527
vn 0.9948 0.0946 -0.0368
vn 0.8654 0.4885 -0.1118
vn 0.7962 0.5894 -0.1368
vn 0.8221 0.5641 -0.0765
vn 0.7969 0.5987 -0.0804
vn 0.9737 0.1572 -0.1648
vn 0.9842 0.0976 -0.1474
vn 0.9892 0.0645 -0.1317
vn 0.7849 0.6196 -0.0005
vn 0.5420 0.8403 -0.0068
vn 0.9719 -0.1492 -0.1819
vn 0.9802 0.0033 -0.1982
vn 0.9612 0.2563 -0.1017
vn 0.9433 0.3181 -0.0948
vn 0.9705 -0.1608 -0.1796
vn -0.8539 0.3253 -0.4062
vn -0.9148 -0.3999 0.0571
vn -0.8571 -0.5152 0.0004
vn -0.8245 -0.5635 0.0527
vn -0.8654 0.4885 -0.1118
vn -0.9948 0.0946 -0.0368
vn -0.7962 0.5894 -0.1368
vn -0.7969 0.5987 -0.0804
vn -0.8221 0.5641 -0.0765
vn -0.9737 0.1572 -0.1648
vn -0.9842 0.0976 -0.1474
vn -0.9892 0.0645 -0.1317
vn -0.7849 0.6196 -0.0005
vn -0.9719 -0.1492 -0.1819
vn -0.5420 0.8403 -0.0068
vn -0.9802 0.0033 -0.1982
vn -0.9612 0.2563 -0.1017
vn -0.9433 0.3181 -0.0948
vn -0.9705 -0.1608 -0.1796
# 38 vertex normals

vt 0.3205 0.4048 0.0000
vt 0.2147 0.4503 0.0000
vt 0.2432 0.4319 0.0000
vt 0.1209 0.4379 0.0000
vt 0.1417 0.4051 0.0000
vt 0.1493 0.3966 0.0000
vt 0.1257 0.4320 0.0000
vt 0.1848 0.5231 0.0000
vt 0.1455 0.5231 0.0000
vt 0.3098 0.3964 0.0000
vt 0.3098 0.3508 0.0000
vt 0.5261 0.4035 0.0000
vt 0.1319 0.3510 0.0000
vt 0.8977 0.3858 0.0000
vt 0.7424 0.3902 0.0000
vt 0.7424 0.3508 0.0000
vt 0.9690 0.3508 0.0000
vt 0.9588 0.3716 0.0000
vt 0.0704 0.4051 0.0000
vt 0.0344 0.3511 0.0000
vt 0.3098 0.2967 0.0000
vt 0.5261 0.2967 0.0000
vt 0.5261 0.3508 0.0000
vt 0.0344 0.2970 0.0000
vt 0.7424 0.3078 0.0000
vt 0.9588 0.3318 0.0000
# 26 texture coords

g sides
s off
f 1/1/1 2/2/1 3/3/1 
f 4/4/2 5/5/2 6/6/2 3/7/2 
s 16384
f 7/8/3 8/9/3 3/7/3 
s off
f 4/4/4 3/7/4 8/9/4 
s 1
f 3/10/5 9/11/6 1/12/7 
f 6/6/8 10/13/9 9/11/6 3/10/5 
f 11/14/10 1/15/7 9/16/6 12/17/11 
f 13/18/12 11/14/10 12/17/11 
f 14/19/13 15/20/13 10/13/13 5/5/13 
f 16/21/14 17/22/15 18/23/16 
f 18/13/16 15/20/17 19/24/18 
f 19/24/18 16/21/14 18/11/16 
f 18/16/16 17/25/15 12/26/19 
s off
f 20/2/20 21/1/20 22/3/20 
f 23/6/21 24/5/21 25/4/21 22/7/21 
s 16384
f 26/9/22 27/8/22 22/7/22 
s off
f 22/7/23 25/4/23 26/9/23 
s 1
f 28/11/24 22/10/25 21/12/26 
f 28/11/24 29/13/27 23/6/28 22/10/25 
f 28/16/24 21/15/26 30/14/29 31/17/30 
f 30/14/29 32/18/31 31/17/30 
f 29/13/32 33/20/32 34/19/32 24/5/32 
f 35/22/33 36/21/34 37/23/35 
f 33/20/36 37/13/35 38/24/37 
f 36/21/34 38/24/37 37/11/35 
f 35/25/33 37/16/35 31/26/38 
# 8 polygons - 18 triangles

