# 3ds Max Wavefront OBJ Exporter v0.94b - (c)2007 guruware
# File Created: 09.10.2010 19:35:26

#
# object glow
#

v  1.8215 0.1097 6.0024
v  0.9296 0.1097 6.0024
v  0.9298 -1.5272 5.7875
v  2.3973 -0.9887 6.0876
v  -0.9298 -1.5272 5.7875
v  -0.9296 0.1097 6.0024
v  -1.8215 0.1097 6.0024
v  -2.3973 -0.9887 6.0876
# 8 vertices

vn -0.0928 -0.0798 0.9925
vn 0.0000 -0.1302 0.9915
vn -0.1139 -0.0681 0.9912
vn -0.1917 -0.0244 0.9812
vn 0.1139 -0.0681 0.9912
vn 0.0928 -0.0798 0.9925
vn 0.1917 -0.0244 0.9812
# 7 vertex normals

vt 0.9058 0.9669 0.0000
vt 0.8047 0.9669 0.0000
vt 0.8047 0.9196 0.0000
vt 0.9550 0.9028 0.0000
# 4 texture coords

g glow
s 131072
f 1/1/1 2/2/2 3/3/3 4/4/4 
f 5/3/5 6/2/2 7/1/6 8/4/7 
# 2 polygons

