# 3ds Max Wavefront OBJ Exporter v0.94b - (c)2007 guruware
# File Created: 09.10.2010 19:35:56

#
# object innerwings
#

v  2.4433 1.0076 4.2604
v  1.9856 0.3766 2.7930
v  1.8626 0.4154 2.9414
v  2.0077 0.3799 5.2718
v  2.3266 0.8352 5.5613
v  3.1557 2.0164 5.2197
v  3.1557 2.0160 4.6746
v  0.0000 0.4981 5.9414
v  0.0000 -1.5519 6.4943
v  2.0077 0.3807 6.2607
v  0.5000 0.6982 5.9414
v  0.0000 -1.4673 0.6365
v  0.0000 -1.1224 -0.0586
v  1.9500 -1.1224 -0.0586
v  1.0500 -1.5340 1.0224
v  1.0000 -1.6441 0.9930
v  1.0000 -1.1224 -0.0586
v  1.0500 -1.0720 0.0911
v  0.9500 -1.0720 0.0911
v  0.9500 -1.5340 1.0224
v  1.8215 0.1097 6.0024
v  2.3973 -0.9887 6.0876
v  2.8000 -1.1193 6.7607
v  0.9298 -1.5272 5.7875
v  0.5000 -1.8724 5.9414
v  0.9296 0.1097 6.0024
v  3.4181 -1.1535 3.2394
v  3.7976 -1.3579 3.9994
v  2.9410 -1.1260 2.7190
v  1.7646 -0.8363 -1.3408
v  2.4815 -0.9684 4.7346
v  2.5371 -0.5009 4.7322
v  1.8201 -0.3689 -1.3432
v  3.8320 -1.3483 5.5776
v  3.8875 -0.9201 5.5752
v  6.1157 -2.0164 4.9288
v  6.1713 -1.8243 4.9264
v  5.8957 -1.9602 4.3372
v  5.9512 -1.7680 4.3348
v  3.8531 -0.9297 3.9970
v  3.4003 -0.7672 3.3826
v  3.3821 -0.8471 3.5469
v  3.3922 -1.0654 3.4659
v  2.9200 -1.0965 3.7535
v  3.3998 -1.0984 3.7672
v  3.4009 -0.7783 3.7692
v  2.9211 -0.7767 3.7555
v  2.6000 -0.3704 5.4084
v  2.1006 0.2619 5.1668
v  1.9416 0.4367 2.7761
v  1.5615 0.3582 -0.0586
v  1.5210 0.4211 -0.0565
v  1.8218 0.4776 2.9213
v  1.8290 0.5017 5.1012
v  1.9689 0.4485 6.1858
v  0.5577 0.7458 5.8900
v  0.5577 0.6191 2.9399
v  0.5000 0.5692 2.9414
v  0.5577 0.5964 -0.0601
v  0.5000 0.5470 -0.0586
v  0.5577 0.5983 -0.3961
v  0.5000 0.5493 -0.4446
v  1.0260 0.5922 -0.3961
v  1.0000 0.5493 -0.4446
v  1.5615 0.3582 -0.9884
v  0.0000 -1.6441 0.9930
v  -1.9856 0.3766 2.7930
v  -2.4433 1.0076 4.2604
v  -1.8626 0.4154 2.9414
v  -2.0077 0.3799 5.2718
v  -2.3266 0.8352 5.5613
v  -3.1557 2.0160 4.6746
v  -3.1557 2.0164 5.2197
v  -2.0077 0.3807 6.2607
v  -0.5000 0.6982 5.9414
v  -1.9500 -1.1224 -0.0586
v  -1.0000 -1.1224 -0.0586
v  -1.0000 -1.6441 0.9930
v  -1.0500 -1.5340 1.0224
v  -1.0500 -1.0720 0.0911
v  -0.9500 -1.0720 0.0911
v  -0.9500 -1.5340 1.0224
v  -2.3973 -0.9887 6.0876
v  -1.8215 0.1097 6.0024
v  -2.8000 -1.1193 6.7607
v  -0.9298 -1.5272 5.7875
v  -0.5000 -1.8724 5.9414
v  -0.9296 0.1097 6.0024
v  -3.7976 -1.3579 3.9994
v  -3.4181 -1.1535 3.2394
v  -2.9410 -1.1260 2.7190
v  -2.5371 -0.5009 4.7322
v  -2.4815 -0.9684 4.7346
v  -1.7646 -0.8363 -1.3408
v  -1.8201 -0.3689 -1.3432
v  -3.8875 -0.9201 5.5752
v  -3.8320 -1.3483 5.5776
v  -6.1713 -1.8243 4.9264
v  -6.1157 -2.0164 4.9288
v  -5.9512 -1.7680 4.3348
v  -5.8957 -1.9602 4.3372
v  -3.8531 -0.9297 3.9970
v  -3.4003 -0.7672 3.3826
v  -3.3821 -0.8471 3.5469
v  -3.3922 -1.0654 3.4659
v  -3.4009 -0.7783 3.7692
v  -3.3998 -1.0984 3.7672
v  -2.9200 -1.0965 3.7535
v  -2.9211 -0.7767 3.7555
v  -2.1006 0.2619 5.1668
v  -2.6000 -0.3704 5.4084
v  -1.5615 0.3582 -0.0586
v  -1.9416 0.4367 2.7761
v  -1.5210 0.4211 -0.0565
v  -1.8218 0.4776 2.9213
v  -1.8290 0.5017 5.1012
v  -1.9689 0.4485 6.1858
v  -0.5577 0.7458 5.8900
v  -0.5000 0.5692 2.9414
v  -0.5577 0.6191 2.9399
v  -0.5000 0.5470 -0.0586
v  -0.5577 0.5964 -0.0601
v  -0.5000 0.5493 -0.4446
v  -0.5577 0.5983 -0.3961
v  -1.0000 0.5493 -0.4446
v  -1.0260 0.5922 -0.3961
v  -1.5615 0.3582 -0.9884
# 127 vertices

vn -0.1366 0.9248 -0.3551
vn -0.8352 0.5466 0.0603
vn -0.7776 0.6287 -0.0005
vn -0.8106 0.5835 0.0501
vn -0.0000 0.2766 0.9610
vn 0.0000 0.2604 0.9655
vn -0.1360 0.2682 0.9537
vn -0.1300 0.3248 0.9368
vn 0.0000 -0.8958 -0.4444
vn 0.9127 -0.3660 -0.1816
vn -0.9127 -0.3660 -0.1816
vn -0.7877 -0.2926 0.5421
vn -0.4060 0.7978 0.4457
vn 0.5664 -0.3789 0.7319
vn 0.6036 -0.1037 0.7905
vn 0.3246 -0.5776 -0.7490
vn 0.4163 -0.8042 -0.4242
vn -0.9859 0.1178 0.1189
vn -0.5137 0.0664 0.8554
vn -0.0998 0.0176 0.9948
vn -0.1901 0.0295 0.9813
vn -0.5137 0.0655 0.8555
vn 0.2559 -0.0620 0.9647
vn 0.2566 -0.0586 0.9647
vn 0.8957 -0.2634 -0.3582
vn 0.1436 -0.0538 -0.9882
vn 0.4989 -0.0216 -0.8664
vn 0.1443 -0.0505 -0.9882
vn 0.5477 -0.0757 -0.8332
vn 0.8979 0.1888 -0.3976
vn 0.8792 0.1065 -0.4643
vn 0.8582 -0.4071 -0.3127
vn 0.9520 -0.1145 -0.2840
vn 0.9487 -0.1337 -0.2867
vn 0.8525 -0.4185 -0.3132
vn 0.8246 0.2299 -0.5168
vn 0.3759 0.8773 -0.2983
vn -0.0286 -0.0062 0.9996
vn 0.7850 0.6194 -0.0016
vn 0.8247 0.5514 -0.1259
vn 0.6886 0.6005 0.4065
vn 0.6525 0.7575 -0.0201
vn 0.6739 0.7383 -0.0268
vn 0.0129 0.7372 0.6755
vn -0.6537 0.7561 -0.0325
vn -0.6523 0.7579 -0.0057
vn -0.6499 0.7600 0.0044
vn 0.0046 0.7240 -0.6898
vn -0.2680 0.7884 -0.5537
vn 0.8408 0.5414 0.0000
vn -0.0000 -0.8958 -0.4444
vn 0.1366 0.9248 -0.3551
vn 0.8352 0.5466 0.0603
vn 0.7776 0.6287 -0.0005
vn 0.8106 0.5835 0.0501
vn 0.1360 0.2682 0.9537
vn 0.1300 0.3248 0.9368
vn 0.7877 -0.2926 0.5421
vn 0.4060 0.7978 0.4457
vn -0.5664 -0.3789 0.7319
vn -0.6036 -0.1037 0.7905
vn -0.3246 -0.5776 -0.7490
vn -0.4163 -0.8042 -0.4242
vn 0.9859 0.1178 0.1189
vn 0.1901 0.0295 0.9813
vn 0.0998 0.0176 0.9948
vn 0.5137 0.0664 0.8554
vn 0.5137 0.0655 0.8555
vn -0.2566 -0.0586 0.9647
vn -0.2559 -0.0620 0.9647
vn -0.8957 -0.2634 -0.3582
vn -0.4989 -0.0216 -0.8664
vn -0.1436 -0.0538 -0.9882
vn -0.1443 -0.0505 -0.9882
vn -0.5477 -0.0757 -0.8332
vn -0.8792 0.1065 -0.4643
vn -0.8979 0.1888 -0.3976
vn -0.9487 -0.1337 -0.2867
vn -0.9520 -0.1145 -0.2840
vn -0.8582 -0.4071 -0.3127
vn -0.8525 -0.4185 -0.3132
vn -0.8246 0.2299 -0.5168
vn -0.3759 0.8773 -0.2983
vn 0.0286 -0.0062 0.9996
vn -0.7850 0.6194 -0.0016
vn -0.8247 0.5514 -0.1259
vn -0.6886 0.6005 0.4065
vn -0.6525 0.7575 -0.0201
vn -0.6739 0.7383 -0.0268
vn -0.0129 0.7372 0.6755
vn 0.6537 0.7561 -0.0325
vn 0.6523 0.7579 -0.0057
vn 0.6499 0.7600 0.0044
vn -0.0046 0.7240 -0.6898
vn 0.2680 0.7884 -0.5537
vn -0.8408 0.5414 0.0000
# 96 vertex normals

vt 7.5000 59.7712 0.0000
vt 7.5000 59.0109 0.0000
vt 7.1212 60.0000 0.0000
vt 6.4328 73.1582 0.0000
vt 7.5000 74.0413 0.0000
vt 7.5000 73.5386 0.0000
vt 7.5000 73.1375 0.0000
vt 7.5000 60.0000 0.0000
vt 7.3214 60.0000 0.0000
vt 6.9891 73.1474 0.0000
vt 7.5000 80.0000 0.0000
vt 22.5000 40.0000 0.0000
vt 27.7164 47.0110 0.0000
vt 15.0000 80.0000 0.0000
vt 22.5000 80.0000 0.0000
vt 30.0000 80.0000 0.0000
vt 70.8224 53.6852 0.0000
vt 76.7304 48.7783 0.0000
vt 94.4299 47.0332 0.0000
vt 93.3521 67.5776 0.0000
vt 70.8224 76.1670 0.0000
vt 66.5044 77.8133 0.0000
vt 23.6075 74.4420 0.0000
vt 16.0402 73.8473 0.0000
vt 17.7673 70.5498 0.0000
vt 20.1935 65.9174 0.0000
vt 23.6075 65.4563 0.0000
vt 47.2150 62.2671 0.0000
vt 63.0683 60.1255 0.0000
vt 85.8968 23.5166 0.0000
vt 94.4299 0.0000 0.0000
vt 3.0000 5.0000 0.0000
vt 3.0000 6.0000 0.0000
vt 4.0000 6.0000 0.0000
vt 4.0000 5.0000 0.0000
vt 15.0000 72.9186 0.0000
vt 8.6769 73.1032 0.0000
vt 7.5000 40.0000 0.0000
vt 0.0000 80.0000 0.0000
vt 5.5829 60.0000 0.0000
vt 5.9673 58.6229 0.0000
vt 5.8053 40.0000 0.0000
vt 5.7829 37.4266 0.0000
vt 7.5000 33.8016 0.0000
vt 25.1082 43.5055 0.0000
# 45 texture coords

g innerwings
s off
f 1/1/1 2/2/1 3/3/1 
f 3/4/2 4/5/2 5/6/2 
s 32768
f 6/7/3 7/8/3 3/9/3 
s off
f 3/10/4 5/6/4 6/7/4 
s 327680
f 8/11/5 9/11/6 10/11/7 11/11/8 
s off
f 12/12/9 13/12/9 14/12/9 
f 15/13/10 16/13/10 17/12/10 18/12/10 
f 19/12/11 17/12/11 16/13/11 20/13/11 
f 10/14/12 21/14/12 22/15/12 23/15/12 
f 23/16/13 22/16/13 24/16/13 25/16/13 
f 24/15/14 9/15/14 25/16/14 
f 9/14/15 24/14/15 26/11/15 
f 9/11/16 26/11/16 21/11/16 10/11/16 
f 27/17/17 28/17/17 29/18/17 
f 30/19/18 31/20/18 32/20/18 33/19/18 
s 4
f 31/21/19 34/22/20 35/22/21 32/21/22 
f 34/23/20 36/24/23 37/24/24 35/23/21 
s off
f 36/25/25 38/26/25 39/26/25 37/25/25 
s 1
f 38/27/26 28/28/27 39/28/28 
f 40/29/29 39/28/28 28/28/27 
f 28/29/27 27/17/30 41/17/31 40/29/29 
f 29/30/32 30/31/33 33/31/34 42/30/35 
s off
f 43/18/36 29/18/36 42/18/36 
f 43/17/37 27/17/37 29/18/37 
f 44/32/38 45/33/38 46/34/38 47/35/38 
f 48/36/39 49/37/39 4/5/39 
f 50/2/40 2/2/40 51/38/40 52/38/40 
f 53/3/41 3/3/41 2/2/41 50/2/41 
f 54/4/42 4/4/42 3/3/42 53/3/42 
f 55/11/43 10/11/43 4/5/43 54/5/43 
f 56/39/44 11/39/44 10/39/44 55/39/44 
f 57/40/45 58/41/45 11/39/45 56/39/45 
f 59/42/46 60/42/46 58/41/46 57/40/46 
f 61/43/47 62/43/47 60/42/47 59/42/47 
f 63/43/48 64/43/48 62/43/48 61/43/48 
f 64/43/49 63/43/49 65/44/49 
f 52/38/50 51/38/50 65/44/50 
f 12/12/51 14/12/51 16/13/51 66/45/51 
f 67/2/52 68/1/52 69/3/52 
f 70/5/53 69/4/53 71/6/53 
s 32768
f 72/8/54 73/7/54 69/9/54 
s off
f 71/6/55 69/10/55 73/7/55 
s 327680
f 74/11/56 9/11/6 8/11/5 75/11/57 
s off
f 13/12/9 12/12/9 76/12/9 
f 77/12/11 78/13/11 79/13/11 80/12/11 
f 78/13/10 77/12/10 81/12/10 82/13/10 
f 83/15/58 84/14/58 74/14/58 85/15/58 
f 86/16/59 83/16/59 85/16/59 87/16/59 
f 9/15/60 86/15/60 87/16/60 
f 86/14/61 9/14/61 88/11/61 
f 84/11/62 88/11/62 9/11/62 74/11/62 
f 89/17/63 90/17/63 91/18/63 
f 92/20/64 93/20/64 94/19/64 95/19/64 
s 4
f 96/22/65 97/22/66 93/21/67 92/21/68 
f 98/24/69 99/24/70 97/23/66 96/23/65 
s off
f 100/26/71 101/26/71 99/25/71 98/25/71 
s 1
f 89/28/72 101/27/73 100/28/74 
f 100/28/74 102/29/75 89/28/72 
f 103/17/76 90/17/77 89/29/72 102/29/75 
f 95/31/78 94/31/79 91/30/80 104/30/81 
s off
f 91/18/82 105/18/82 104/18/82 
f 90/17/83 105/17/83 91/18/83 
f 106/34/84 107/33/84 108/32/84 109/35/84 
f 110/37/85 111/36/85 70/5/85 
f 112/38/86 67/2/86 113/2/86 114/38/86 
f 67/2/87 69/3/87 115/3/87 113/2/87 
f 69/3/88 70/4/88 116/4/88 115/3/88 
f 70/5/89 74/11/89 117/11/89 116/5/89 
f 74/39/90 75/39/90 118/39/90 117/39/90 
f 75/39/91 119/41/91 120/40/91 118/39/91 
f 119/41/92 121/42/92 122/42/92 120/40/92 
f 121/42/93 123/43/93 124/43/93 122/42/93 
f 123/43/94 125/43/94 126/43/94 124/43/94 
f 126/43/95 125/43/95 127/44/95 
f 112/38/96 114/38/96 127/44/96 
f 78/13/9 76/12/9 12/12/9 66/45/9 
# 46 polygons - 30 triangles

