# 3ds Max Wavefront OBJ Exporter v0.94b - (c)2007 guruware
# File Created: 08.10.2010 03:39:33

#
# object cockpit
#

v  -0.0000 -0.4363 -2.9261
v  -0.0000 -0.3794 -3.2328
v  -0.5000 -0.4531 -3.2328
v  -0.5000 -0.5099 -2.9261
v  -0.0000 -0.4599 -4.2832
v  -0.5000 -0.5336 -4.2832
v  -0.0000 -0.8047 -5.0787
v  -0.5000 -0.8047 -5.0787
v  -1.0000 -0.7267 -4.2832
v  -1.0000 -0.6463 -3.2328
v  -0.7700 -0.7360 -4.6809
v  -0.7500 -0.5820 -3.0794
v  0.5000 -0.5099 -2.9261
v  0.5000 -0.4531 -3.2328
v  0.5000 -0.5336 -4.2832
v  0.5000 -0.8047 -5.0787
v  1.0000 -0.6463 -3.2328
v  1.0000 -0.7267 -4.2832
v  0.7700 -0.7360 -4.6809
v  0.7500 -0.5820 -3.0794
v  -0.5000 0.4813 -3.0586
v  0.0000 0.5549 -3.0586
v  0.5000 0.4813 -3.0586
v  0.7500 0.4092 -3.2119
v  1.0000 0.3449 -3.3653
v  1.0000 0.2645 -4.4157
v  0.7700 0.2552 -4.8134
v  0.5000 0.1865 -5.2112
v  0.0000 0.1865 -5.2112
v  -0.5000 0.1865 -5.2112
v  -0.7700 0.2552 -4.8134
v  -1.0000 0.2645 -4.4157
v  -1.0000 0.3449 -3.3653
v  -0.7500 0.4092 -3.2119
# 34 vertices

vn 0.0000 0.9832 0.1823
vn -0.0000 0.9986 0.0528
vn -0.2541 0.9657 0.0530
vn -0.2380 0.9550 0.1769
vn -0.0000 0.9772 -0.2122
vn -0.2383 0.9538 -0.1828
vn 0.0000 0.9175 -0.3977
vn -0.0975 0.9288 -0.3575
vn -0.3570 0.9243 -0.1351
vn -0.3604 0.9328 -0.0039
vn -0.2742 0.9195 -0.2818
vn -0.3584 0.9151 0.1849
vn 0.2380 0.9550 0.1769
vn 0.2541 0.9657 0.0530
vn 0.2383 0.9538 -0.1828
vn 0.0975 0.9288 -0.3575
vn 0.3604 0.9328 -0.0039
vn 0.3570 0.9243 -0.1351
vn 0.2742 0.9195 -0.2818
vn 0.3584 0.9151 0.1849
vn 0.0195 -0.1325 -0.9910
vn -0.0195 -0.1325 -0.9910
vn -0.5426 -0.1113 -0.8326
vn -0.5404 -0.1115 -0.8340
vn -1.0000 0.0000 0.0000
vn -0.8644 0.0666 0.4984
vn -0.8310 0.0737 0.5513
vn 0.0000 0.1325 0.9912
vn 0.8310 0.0737 0.5513
vn 0.8644 0.0666 0.4984
vn 1.0000 0.0000 0.0000
vn 0.5404 -0.1115 -0.8340
vn 0.5426 -0.1113 -0.8326
# 33 vertex normals

vt 0.5044 0.2397 0.0000
vt 0.4339 0.2397 0.0000
vt 0.4339 0.1248 0.0000
vt 0.5044 0.1248 0.0000
vt 0.1927 0.2397 0.0000
vt 0.1927 0.1248 0.0000
vt 0.0100 0.2397 0.0000
vt 0.0100 0.1248 0.0000
vt 0.1927 0.0100 0.0000
vt 0.4339 0.0100 0.0000
vt 0.1014 0.0628 0.0000
vt 0.4692 0.0674 0.0000
vt 0.5044 0.3545 0.0000
vt 0.4339 0.3545 0.0000
vt 0.1927 0.3545 0.0000
vt 0.0100 0.3545 0.0000
vt 0.4339 0.4693 0.0000
vt 0.1927 0.4693 0.0000
vt 0.1014 0.4165 0.0000
vt 0.4692 0.4119 0.0000
vt 0.3545 0.7597 0.0000
vt 0.2397 0.7766 0.0000
vt 0.2397 0.5490 0.0000
vt 0.3545 0.5321 0.0000
vt 0.1248 0.7597 0.0000
vt 0.1248 0.5321 0.0000
vt 0.0674 0.7432 0.0000
vt 0.0674 0.5155 0.0000
vt 0.0100 0.7284 0.0000
vt 0.0100 0.5007 0.0000
vt 0.9184 0.7339 0.0000
vt 0.6764 0.7339 0.0000
vt 0.6894 0.5046 0.0000
vt 0.9313 0.5046 0.0000
vt 0.5852 0.7388 0.0000
vt 0.5981 0.5095 0.0000
vt 0.4929 0.7301 0.0000
vt 0.5058 0.5007 0.0000
vt 0.4929 0.7624 0.0000
vt 0.6077 0.7624 0.0000
vt 0.6077 0.9900 0.0000
vt 0.4929 0.9900 0.0000
vt 0.7226 0.7624 0.0000
vt 0.7226 0.9900 0.0000
vt 0.9650 0.2525 0.0000
vt 0.8725 0.2576 0.0000
vt 0.8685 0.0280 0.0000
vt 0.9611 0.0228 0.0000
vt 0.7815 0.2492 0.0000
vt 0.7776 0.0195 0.0000
vt 0.5397 0.2396 0.0000
vt 0.5358 0.0100 0.0000
vt 0.4693 0.7284 0.0000
vt 0.4119 0.7432 0.0000
vt 0.4119 0.5155 0.0000
vt 0.4693 0.5007 0.0000
# 56 texture coords

g cockpit
s 1
f 1/1/1 2/2/2 3/3/3 4/4/4 
f 2/2/2 5/5/5 6/6/6 3/3/3 
f 5/5/5 7/7/7 8/8/8 6/6/6 
f 3/3/3 6/6/6 9/9/9 10/10/10 
f 6/6/6 8/8/8 11/11/11 
f 9/9/9 6/6/6 11/11/11 
f 4/4/4 3/3/3 12/12/12 
f 3/3/3 10/10/10 12/12/12 
f 1/1/1 13/13/13 14/14/14 2/2/2 
f 2/2/2 14/14/14 15/15/15 5/5/5 
f 5/5/5 15/15/15 16/16/16 7/7/7 
f 14/14/14 17/17/17 18/18/18 15/15/15 
f 15/15/15 19/19/19 16/16/16 
f 18/18/18 19/19/19 15/15/15 
f 13/13/13 20/20/20 14/14/14 
f 14/14/14 20/20/20 17/17/17 
s off
f 21/21/21 22/22/21 1/23/21 4/24/21 
f 22/22/22 23/25/22 13/26/22 1/23/22 
f 23/25/23 24/27/23 20/28/23 13/26/23 
f 24/27/24 25/29/24 17/30/24 20/28/24 
f 25/31/25 26/32/25 18/33/25 17/34/25 
f 26/32/26 27/35/26 19/36/26 18/33/26 
f 27/35/27 28/37/27 16/38/27 19/36/27 
f 28/39/28 29/40/28 7/41/28 16/42/28 
f 29/40/28 30/43/28 8/44/28 7/41/28 
f 30/45/29 31/46/29 11/47/29 8/48/29 
f 31/46/30 32/49/30 9/50/30 11/47/30 
f 32/49/31 33/51/31 10/52/31 9/50/31 
f 33/53/32 34/54/32 12/55/32 10/56/32 
f 34/54/33 21/21/33 4/24/33 12/55/33 
# 22 polygons - 8 triangles

