# 3ds Max Wavefront OBJ Exporter v0.94b - (c)2007 guruware
# File Created: 12.10.2010 07:02:57

#
# object back_gear
#

v  1.2731 -1.8134 2.9414
v  2.8000 -1.1224 2.9414
v  1.4500 -1.7987 5.9550
v  1.2731 -1.8724 3.6191
v  2.8000 -1.1193 6.7607
# 5 vertices

vn 0.4455 -0.8950 -0.0218
vn 0.4232 -0.9059 -0.0137
vn 0.4470 -0.8945 -0.0049
vn 0.8419 -0.5376 -0.0468
vn 0.4492 -0.8934 0.0007
# 5 vertex normals

vt 0.7554 0.5457 0.0000
vt 0.7525 0.4560 0.0000
vt 0.9321 0.5297 0.0000
vt 0.7952 0.5444 0.0000
vt 0.9769 0.4489 0.0000
# 5 texture coords

g back_gear
s 256
f 1/1/1 2/2/2 3/3/3 4/4/4 
f 5/5/5 3/3/3 2/2/2 
# 1 polygons - 1 triangles

