# 3ds Max Wavefront OBJ Exporter v0.94b - (c)2007 guruware
# File Created: 12.10.2010 07:02:00

#
# object back_gear
#

v  -1.3290 -1.4038 2.9424
v  -1.3351 -1.4541 3.3747
v  -1.5007 -1.3844 5.5657
v  -2.4333 -0.9207 2.9420
v  -2.4310 -0.9134 6.1216
v  1.3290 -1.4038 2.9424
v  2.4333 -0.9207 2.9420
v  1.5007 -1.3844 5.5657
v  1.3351 -1.4541 3.3747
v  2.4310 -0.9134 6.1216
v  -2.8000 -1.1193 6.7607
v  -2.8000 -1.1224 2.9414
v  -1.2731 -1.8134 2.9414
v  -1.2731 -1.8724 3.6191
v  -1.4500 -1.7987 5.9550
v  2.8000 -1.1224 2.9414
v  2.8000 -1.1193 6.7607
v  1.4500 -1.7987 5.9550
v  1.2731 -1.8724 3.6191
v  1.2731 -1.8134 2.9414
# 20 vertices

vn -0.4527 -0.8914 -0.0230
vn -0.9222 -0.3824 -0.0575
vn -0.4476 -0.8942 -0.0028
vn -0.4128 -0.9107 -0.0142
vn -0.4505 -0.8928 0.0024
vn 0.4527 -0.8914 -0.0230
vn 0.4128 -0.9107 -0.0142
vn 0.4476 -0.8942 -0.0028
vn 0.9222 -0.3824 -0.0575
vn 0.4505 -0.8928 0.0024
vn 0.4854 -0.8743 0.0011
vn -0.0011 -0.0021 1.0000
vn -0.9890 -0.1467 -0.0199
vn -0.9804 -0.1847 -0.0683
vn -0.6131 -0.5781 -0.5384
vn -0.4854 -0.8743 0.0011
vn 0.6131 -0.5781 -0.5384
vn 0.9804 -0.1847 -0.0683
vn 0.9890 -0.1467 -0.0199
vn 0.0011 -0.0021 1.0000
# 20 vertex normals

vt 0.7601 0.6952 0.0000
vt 0.7999 0.6940 0.0000
vt 0.9375 0.7000 0.0000
vt 0.7629 0.7849 0.0000
vt 0.9873 0.7778 0.0000
vt 0.7554 0.5457 0.0000
vt 0.7525 0.4560 0.0000
vt 0.9321 0.5297 0.0000
vt 0.7952 0.5444 0.0000
vt 0.9769 0.4489 0.0000
# 10 texture coords

g back_gear
s 256
f 1/1/1 2/2/2 3/3/3 4/4/4 
f 5/5/5 4/4/4 3/3/3 
f 6/6/6 7/7/7 8/8/8 9/9/9 
f 10/10/10 8/8/8 7/7/7 
s off
f 11/5/11 12/4/11 4/4/11 5/5/11 
f 12/4/12 13/1/12 1/1/12 4/4/12 
f 13/1/13 14/2/13 2/2/13 1/1/13 
f 14/2/14 15/3/14 3/3/14 2/2/14 
f 15/3/15 11/5/15 5/5/15 3/3/15 
f 16/7/16 17/10/16 10/10/16 7/7/16 
f 17/10/17 18/8/17 8/8/17 10/10/17 
f 18/8/18 19/9/18 9/9/18 8/8/18 
f 19/9/19 20/6/19 6/6/19 9/9/19 
f 20/6/20 16/7/20 7/7/20 6/6/20 
# 12 polygons - 2 triangles

