o glengg_v
v 2.024779 -0.283855 0.001216
v 2.024779 -0.142019 -0.244451
v -2.119069 -0.283855 0.001216
v -2.119069 -0.142019 -0.244451
v 2.024779 0.141652 -0.244451
v -2.119069 0.141652 -0.244451
v 2.024779 0.283487 0.001216
v -2.119069 0.283487 0.001216
v 2.024779 0.141651 0.246881
v -2.119069 0.141651 0.246881
v 2.024779 -0.142020 0.246881
v -2.119069 -0.142020 0.246881
v -0.000000 -0.180733 4.526331
v -0.000000 -0.090708 4.370355
v -0.660638 -0.180733 4.526331
v -0.660638 -0.090708 4.370355
v -0.000000 0.089379 4.370355
v -0.660638 0.089379 4.370355
v -0.000000 0.179404 4.526331
v -0.660638 0.179404 4.526331
v -0.000000 0.089379 4.682312
v -0.660638 0.089379 4.682312
v -0.000000 -0.090708 4.682312
v -0.660638 -0.090708 4.682312
v -0.660638 -0.000664 4.526331
v -0.233905 -0.000370 7.610108
v -0.117268 -0.202144 7.726724
v -0.233905 -0.000370 0.000001
v -0.117268 -0.202144 0.000001
v 0.115694 -0.201958 7.726270
v 0.115695 -0.201958 0.000001
v 0.232331 -0.000000 7.610635
v 0.232332 -0.000001 0.000001
v 0.115383 0.201773 7.726270
v 0.115384 0.201773 0.000001
v -0.117580 0.201588 7.726724
v -0.117579 0.201588 0.000001
v -0.654732 -0.000372 7.609615
v -0.654732 -0.202143 7.726327
v 0.657607 -0.000372 7.609615
v 0.657765 -0.202143 7.726327
v -0.654732 -0.201956 7.959419
v 0.657918 -0.201956 7.959419
v -0.654732 0.000001 8.075809
v 0.657636 0.000001 8.075809
v -0.654732 0.201776 7.959097
v 0.657607 0.201776 7.959097
v -0.654732 0.201587 7.726005
v 0.657765 0.201587 7.726009
vt 0.626813 0.119909
vt 0.647018 0.084830
vt 0.720058 0.119909
vt 0.720058 0.084830
vt 0.349915 0.158163
vt 0.390433 0.117646
vt 0.483678 0.158163
vt 0.483678 0.117646
vt 0.566036 0.084895
vt 0.586295 0.119941
vt 0.720058 0.084895
vt 0.720058 0.119941
vt 0.586241 0.049817
vt 0.720058 0.049817
vt 0.390433 0.117754
vt 0.349861 0.158218
vt 0.483678 0.158218
vt 0.483678 0.117754
vt 0.626813 0.049784
vt 0.720058 0.049784
vt 0.027888 0.397281
vt 0.027888 0.362202
vt 0.900746 0.362202
vt 0.921005 0.397281
vt 0.043302 0.266708
vt 0.043302 0.226244
vt 0.936418 0.226244
vt 0.976936 0.266708
vt 0.027888 0.362267
vt 0.027888 0.397313
vt 0.961523 0.397313
vt 0.981566 0.362267
vt 0.027888 0.327188
vt 0.961523 0.327188
vt 0.043302 0.226298
vt 0.043302 0.266762
vt 0.936418 0.226298
vt 0.976936 0.266762
vt 0.027888 0.327156
vt 0.921005 0.327156
vt 0.335715 0.362151
vt 0.335715 0.334311
vt 0.359863 0.348230
vt 0.359863 0.376073
vt 0.335715 0.389992
vt 0.311620 0.376073
vt 0.311620 0.348230
vt 0.314519 0.166660
vt 0.314519 0.142511
vt 0.201070 0.142511
vt 0.201070 0.166660
vt 0.715898 0.098701
vt 0.715898 0.070858
vt 0.602448 0.070858
vt 0.602448 0.098701
vt 0.314519 0.118417
vt 0.201070 0.118417
vt 0.051021 0.059899
vt 0.051021 0.102578
vt 0.478023 0.102578
vt 0.478023 0.059899
vt 0.974400 0.109498
vt 0.974400 0.060227
vt 0.547398 0.060227
vt 0.547398 0.109498
vt 0.478023 0.017221
vt 0.051021 0.017221
vt 0.974400 0.109499
vt 0.547398 0.109499
vn 0.000000 0.867946 -0.496597
vn 0.000000 -0.000793 -0.999969
vn 0.000000 0.863247 -0.504715
vn 0.000000 0.864071 0.503342
vn 0.000000 0.868740 0.495224
vn 0.000000 0.000763 0.999969
vn 0.000000 -0.863247 0.504715
vn 0.000000 -0.867946 0.496597
vn 0.000000 -0.868740 -0.495224
vn 0.000000 -0.864071 -0.503342
vn -0.504837 0.863186 0.000000
vn -0.999969 -0.000763 0.000000
vn -0.496689 0.867885 0.000000
vn 0.494827 0.868954 0.000000
vn 0.502976 0.864284 0.000000
vn 0.999969 0.000763 0.000000
vn 0.496200 -0.868191 0.000000
vn 0.504318 -0.863491 0.000000
vn -0.503464 -0.863979 0.000000
vn -0.495346 -0.868679 0.000000
vn -1.000000 0.000000 0.000000
vn -0.570330 -0.821375 -0.001556
vn -0.570330 -0.412091 0.710532
vn -0.570330 0.409375 0.712088
vn -0.570330 0.821375 0.001556
vn -0.570330 0.412091 -0.710532
vn -0.570330 -0.409375 -0.712119
vn 0.000000 -0.999969 0.004669
vn 0.000000 -0.495987 0.868313
vn 0.000000 0.504105 0.863613
vn 0.000000 0.999969 -0.004669
vn 0.000000 0.495987 -0.868313
vn 0.000000 -0.504105 -0.863613
vn 0.000000 -0.495926 0.868343
vn 0.000000 -0.504044 0.863643
vn 0.000000 -0.999969 -0.004669
vn 0.000000 0.495926 0.868343
vn 0.000000 0.504044 0.863643
vn 0.000000 0.999969 0.004669
vn 0.000000 0.504044 -0.863643
vn 0.000000 0.495926 -0.868343
vn 0.000000 -0.495926 -0.868343
vn 0.000000 -0.504044 -0.863643
s 1
f 49/1/1 40/2/2 48/3/3
f 40/2/2 38/4/2 48/3/3
f 47/5/4 49/6/1 46/7/5
f 49/6/1 48/8/3 46/7/5
f 45/9/6 47/10/4 44/11/6
f 47/10/4 46/12/5 44/11/6
f 43/13/7 45/9/6 44/11/6
f 43/13/7 44/11/6 42/14/8
f 41/15/9 43/16/7 42/17/8
f 41/15/9 42/17/8 39/18/10
f 40/2/2 41/19/9 39/20/10
f 40/2/2 39/20/10 38/4/2
f 37/21/11 28/22/12 26/23/12
f 37/21/11 26/23/12 36/24/13
f 35/25/14 37/26/11 36/27/13
f 35/25/14 36/27/13 34/28/15
f 33/29/16 35/30/14 34/31/15
f 33/29/16 34/31/15 32/32/16
f 31/33/17 33/29/16 30/34/18
f 33/29/16 32/32/16 30/34/18
f 29/35/19 31/36/17 27/37/20
f 31/36/17 30/38/18 27/37/20
f 28/22/12 29/39/19 26/23/12
f 29/39/19 27/40/20 26/23/12
f 25/41/21 15/42/22 24/43/23
f 25/41/21 24/43/23 22/44/24
f 25/41/21 22/44/24 20/45/25
f 25/41/21 20/45/25 18/46/26
f 25/41/21 18/46/26 16/47/27
f 25/41/21 16/47/27 15/42/22
f 24/48/23 15/49/22 13/50/28
f 24/48/23 13/50/28 23/51/29
f 22/52/24 24/53/23 23/54/29
f 22/52/24 23/54/29 21/55/30
f 20/49/25 22/48/24 21/51/30
f 20/49/25 21/51/30 19/50/31
f 18/56/26 20/49/25 19/50/31
f 18/56/26 19/50/31 17/57/32
f 16/53/27 18/52/26 17/55/32
f 16/53/27 17/55/32 14/54/33
f 15/49/22 16/56/27 14/57/33
f 15/49/22 14/57/33 13/50/28
f 1/58/28 11/59/34 12/60/35
f 1/58/28 12/60/35 3/61/36
f 10/62/37 12/63/35 11/64/34
f 10/62/37 11/64/34 9/65/38
f 8/61/39 10/60/37 9/59/38
f 8/61/39 9/59/38 7/58/31
f 6/66/40 8/61/39 7/58/31
f 6/66/40 7/58/31 5/67/41
f 4/63/42 6/68/40 5/69/41
f 4/63/42 5/69/41 2/64/43
f 2/67/43 1/58/28 3/61/36
f 2/67/43 3/61/36 4/66/42
