o glengg_h
v 5.445894 -0.283648 -0.001158
v 5.445894 -0.141764 0.244482
v 11.058788 -0.283647 -0.001158
v 11.058788 -0.141764 0.244481
v 5.445894 0.141907 0.244418
v 11.058788 0.141907 0.244418
v 5.445894 0.283695 -0.001273
v 11.058788 0.283695 -0.001273
v 5.445894 0.141812 -0.246912
v 11.058788 0.141812 -0.246912
v 5.445894 -0.141860 -0.246856
v 11.058788 -0.141860 -0.246857
v 8.282283 -0.161084 -3.601090
v 8.282283 -0.080922 -3.462264
v 8.935267 -0.161084 -3.601090
v 8.935267 -0.080922 -3.462264
v 8.282283 0.079384 -3.462293
v 8.935267 0.079384 -3.462293
v 8.282283 0.159491 -3.601146
v 8.935267 0.159491 -3.601146
v 8.282283 0.079330 -3.739978
v 8.935267 0.079330 -3.739978
v 8.282283 -0.080974 -3.739957
v 8.935267 -0.080974 -3.739957
v 8.935267 -0.000796 -3.601125
v 8.538648 -0.000942 -5.271285
v 8.421935 -0.202739 -5.387438
v 8.538646 -0.000167 -0.000004
v 8.421933 -0.201937 0.000036
v 8.188848 -0.202597 -5.387411
v 8.188848 -0.201751 0.000034
v 8.072455 -0.000659 -5.271028
v 8.072453 0.000206 0.000000
v 8.189168 0.201133 -5.387429
v 8.189168 0.201980 -0.000038
v 8.422254 0.200993 -5.387534
v 8.422254 0.201795 -0.000039
v 8.860894 -0.000944 -5.270803
v 8.860894 -0.202736 -5.387478
v 7.767914 -0.000944 -5.270803
v 7.767708 -0.202737 -5.387485
v 8.860894 -0.202593 -5.620564
v 7.767995 -0.202593 -5.620564
v 8.860894 -0.000660 -5.736987
v 7.768023 -0.000660 -5.736987
v 8.860894 0.201137 -5.620326
v 7.768420 0.201137 -5.620326
v 8.860894 0.200992 -5.387234
v 7.767708 0.200993 -5.387234
v -5.493090 -0.283648 -0.001128
v -5.493090 -0.141740 0.244499
v -11.058788 -0.283648 -0.001128
v -11.058788 -0.141740 0.244500
v -5.493090 0.141931 0.244412
v -11.058788 0.141931 0.244413
v -5.493090 0.283695 -0.001292
v -11.058788 0.283694 -0.001297
v -5.493090 0.141787 -0.246917
v -11.058788 0.141787 -0.246917
v -5.493090 -0.141884 -0.246832
v -11.058788 -0.141885 -0.246832
v -8.250238 -0.161261 -3.601064
v -8.250238 -0.081085 -3.462246
v -8.903221 -0.161261 -3.601064
v -8.903221 -0.081085 -3.462246
v -8.250238 0.079221 -3.462291
v -8.903221 0.079221 -3.462291
v -8.250238 0.159312 -3.601158
v -8.903221 0.159312 -3.601158
v -8.250238 0.079138 -3.739976
v -8.903221 0.079138 -3.739976
v -8.250238 -0.081166 -3.739939
v -8.903221 -0.081166 -3.739939
v -8.903221 -0.000974 -3.601115
v -8.506601 -0.000729 -5.270124
v -8.389889 -0.202537 -5.385942
v -8.506601 -0.000167 0.000005
v -8.389889 -0.201937 0.000066
v -8.156803 -0.202419 -5.385954
v -8.156803 -0.201751 0.000064
v -8.040409 -0.000493 -5.269910
v -8.040409 0.000206 0.000004
v -8.157122 0.201311 -5.385924
v -8.157122 0.201980 -0.000049
v -8.390209 0.201194 -5.386012
v -8.390209 0.201794 -0.000055
v -8.818660 -0.000731 -5.269642
v -8.818660 -0.202535 -5.386304
v -7.730458 -0.000731 -5.269642
v -7.730371 -0.202535 -5.386304
v -8.818660 -0.202415 -5.619389
v -7.730126 -0.202415 -5.619389
v -8.818660 -0.000494 -5.735826
v -7.730217 -0.000493 -5.735826
v -8.818660 0.201315 -5.619185
v -7.730553 0.201315 -5.619185
v -8.818660 0.201194 -5.386094
v -7.730371 0.201194 -5.386094
vt 0.639612 0.111404
vt 0.666942 0.127555
vt 0.639287 0.143140
vt 0.612285 0.095252
vt 0.639936 0.079667
vt 0.715184 0.203104
vt 0.641093 0.203104
vt 0.692152 0.245565
vt 0.641093 0.245565
vt 0.260362 0.238341
vt 0.140084 0.238341
vt 0.214175 0.284158
vt 0.140084 0.284158
vt 0.784484 0.234442
vt 0.641093 0.234442
vt 0.761370 0.197542
vt 0.641093 0.197542
vt 0.761453 0.276901
vt 0.641093 0.276901
vt 0.214175 0.274523
vt 0.140084 0.274523
vt 0.140084 0.228707
vt 0.260444 0.228707
vt 0.641093 0.282463
vt 0.715184 0.282463
vt 0.990933 0.074950
vt 0.098024 0.065813
vt 0.120708 0.106036
vt 0.990523 0.114938
vt 0.939716 0.466822
vt 0.007326 0.466822
vt 0.053174 0.512976
vt 0.939708 0.512976
vt 0.990526 0.114864
vt 0.028570 0.105020
vt 0.051843 0.065304
vt 0.990937 0.074913
vt 0.990116 0.154851
vt 0.051029 0.145241
vt 0.941933 0.512912
vt 0.055398 0.512912
vt 0.941937 0.466759
vt 0.009555 0.466759
vt 0.990116 0.154888
vt 0.097207 0.145751
vt 0.611957 0.126992
vt 0.667266 0.095815
vt 0.404428 0.219960
vt 0.533724 0.219960
vt 0.533724 0.245357
vt 0.404428 0.245357
vt 0.613662 0.288684
vt 0.742957 0.288684
vt 0.742957 0.320197
vt 0.613662 0.320197
vt 0.404428 0.252956
vt 0.533724 0.252956
vt 0.533724 0.223763
vt 0.404428 0.223763
vt 0.404428 0.278352
vt 0.533724 0.278352
vt 0.613662 0.326779
vt 0.742957 0.326779
vt 0.742957 0.295265
vt 0.613662 0.295265
vt 0.533724 0.274553
vt 0.404428 0.274553
vt 0.679820 0.590613
vt 0.094662 0.590613
vt 0.094662 0.545682
vt 0.679820 0.545682
vt 0.303895 0.315913
vt 0.889053 0.315913
vt 0.889053 0.371678
vt 0.303895 0.371678
vt 0.094662 0.604058
vt 0.679820 0.604058
vt 0.679820 0.552406
vt 0.094662 0.552406
vt 0.094662 0.648993
vt 0.679820 0.648993
vt 0.303895 0.383324
vt 0.889053 0.383324
vt 0.889053 0.327559
vt 0.303895 0.327559
vt 0.679820 0.642269
vt 0.094662 0.642269
vn 1.000000 0.000000 0.000000
vn 0.570330 -0.409223 0.712180
vn 0.570330 -0.821375 0.001740
vn 0.570330 0.409253 -0.712180
vn 0.570330 0.821375 -0.001709
vn -1.000000 0.000000 0.000000
vn -0.570330 -0.821375 0.001801
vn -0.570330 -0.409162 0.712210
vn -0.570330 0.821375 -0.001801
vn -0.570330 0.409192 -0.712210
vn 0.000000 0.868099 0.496353
vn 0.000000 0.863399 0.504471
vn 0.000000 -0.000519 0.999969
vn 0.000000 0.863887 -0.503616
vn 0.000000 0.868587 -0.495499
vn 0.000000 0.000488 -0.999969
vn 0.000000 -0.863399 -0.504501
vn 0.000000 -0.868099 -0.496353
vn 0.000000 -0.868618 0.495437
vn 0.000000 -0.863918 0.503586
vn -0.504715 0.863277 -0.000092
vn -0.500473 0.865719 -0.000092
vn -0.999969 -0.000793 0.000000
vn 0.499252 0.866421 -0.000092
vn 0.503494 0.863979 -0.000092
vn 0.999969 0.000671 0.000000
vn 0.500381 -0.865780 0.000092
vn 0.504593 -0.863338 0.000092
vn -0.503372 -0.864040 0.000092
vn -0.499161 -0.866482 0.000092
vn -0.570330 -0.412305 -0.710410
vn -0.570330 0.412305 0.710410
vn 0.000000 -0.496200 -0.868191
vn 0.000000 -0.999969 -0.004364
vn 0.000000 0.503891 -0.863765
vn 0.000000 0.999969 0.004364
vn 0.000000 0.496231 0.868160
vn 0.000000 -0.503861 0.863765
vn 0.000000 -0.999969 -0.004395
vn 0.000000 -0.999969 0.004975
vn 0.000000 -0.504288 -0.863521
vn 0.000000 -0.496170 -0.868191
vn 0.000000 0.495651 -0.868496
vn 0.000000 0.503800 -0.863796
vn 0.000000 0.999969 -0.004975
vn 0.000000 0.999969 0.004395
vn 0.000000 0.504288 0.863491
vn 0.000000 0.496170 0.868191
vn 0.000000 -0.495651 0.868496
vn 0.000000 -0.503800 0.863796
vn 0.000000 0.868038 0.496445
vn 0.000000 -0.000580 0.999969
vn 0.000000 0.863338 0.504562
vn 0.000000 0.863948 -0.503525
vn 0.000000 0.868648 -0.495407
vn 0.000000 0.000580 -0.999969
vn 0.000000 -0.863338 -0.504562
vn 0.000000 -0.868038 -0.496445
vn 0.000000 -0.868648 0.495376
vn 0.000000 -0.863979 0.503494
vn 0.504715 0.863277 -0.000122
vn 0.999969 -0.000793 0.000000
vn 0.496597 0.867977 -0.000122
vn -0.495285 0.868709 -0.000122
vn -0.503433 0.864009 -0.000122
vn -0.999969 0.000702 0.000000
vn -0.496506 -0.868007 0.000122
vn -0.504624 -0.863308 0.000122
vn 0.503342 -0.864071 0.000122
vn 0.495224 -0.868740 0.000122
vn 0.570330 -0.412214 -0.710471
vn 0.570330 0.412244 0.710440
vn 0.000000 -0.999969 -0.004486
vn 0.000000 -0.496139 -0.868221
vn 0.000000 0.503983 -0.863704
vn 0.000000 0.999969 0.004486
vn 0.000000 0.496139 0.868221
vn 0.000000 -0.503952 0.863704
vn 0.000000 -0.496078 -0.868252
vn 0.000000 -0.504227 -0.863552
vn 0.000000 -0.999969 0.004883
vn 0.000000 0.495743 -0.868435
vn 0.000000 0.503861 -0.863765
vn 0.000000 0.999969 -0.004883
vn 0.000000 0.504227 0.863552
vn 0.000000 0.496078 0.868252
vn 0.000000 -0.495743 0.868465
s 1
f 25/1/1 16/2/2 15/3/3
f 25/1/1 22/4/4 20/5/5
f 74/1/6 64/3/7 65/2/8
f 74/1/6 69/5/9 71/4/10
f 98/6/11 97/7/12 89/8/13
f 97/7/12 87/9/13 89/8/13
f 96/10/14 95/11/15 98/12/11
f 95/11/15 97/13/12 98/12/11
f 94/14/16 93/15/16 96/16/14
f 93/15/16 95/17/15 96/16/14
f 92/18/17 91/19/18 93/15/16
f 92/18/17 93/15/16 94/14/16
f 90/20/19 88/21/20 91/22/18
f 90/20/19 91/22/18 92/23/17
f 89/8/13 87/9/13 88/24/20
f 89/8/13 88/24/20 90/25/19
f 86/26/21 85/27/22 75/28/23
f 86/26/21 75/28/23 77/29/23
f 84/30/24 83/31/25 85/32/22
f 84/30/24 85/32/22 86/33/21
f 82/34/26 81/35/26 83/36/25
f 82/34/26 83/36/25 84/37/24
f 80/38/27 79/39/28 82/34/26
f 79/39/28 81/35/26 82/34/26
f 78/40/29 76/41/30 80/42/27
f 76/41/30 79/43/28 80/42/27
f 77/29/23 75/28/23 78/44/29
f 75/28/23 76/45/30 78/44/29
f 74/1/6 71/4/10 73/46/31
f 74/1/6 73/46/31 64/3/7
f 74/1/6 65/2/8 67/47/32
f 74/1/6 67/47/32 69/5/9
f 73/48/31 72/49/33 62/50/34
f 73/48/31 62/50/34 64/51/7
f 71/52/10 70/53/35 72/54/33
f 71/52/10 72/54/33 73/55/31
f 69/56/9 68/57/36 70/58/35
f 69/56/9 70/58/35 71/59/10
f 67/60/32 66/61/37 68/57/36
f 67/60/32 68/57/36 69/56/9
f 65/62/8 63/63/38 66/64/37
f 65/62/8 66/64/37 67/65/32
f 64/51/7 62/50/34 63/66/38
f 64/51/7 63/66/38 65/67/8
f 50/68/39 52/69/40 61/70/41
f 50/68/39 61/70/41 60/71/42
f 59/72/43 58/73/44 60/74/42
f 59/72/43 60/74/42 61/75/41
f 57/76/45 56/77/46 58/78/44
f 57/76/45 58/78/44 59/79/43
f 55/80/47 54/81/48 56/77/46
f 55/80/47 56/77/46 57/76/45
f 53/82/49 51/83/50 54/84/48
f 53/82/49 54/84/48 55/85/47
f 52/69/40 50/68/39 51/86/50
f 52/69/40 51/86/50 53/87/49
f 49/6/51 40/8/52 48/7/53
f 40/8/52 38/9/52 48/7/53
f 47/10/54 49/12/51 46/11/55
f 49/12/51 48/13/53 46/11/55
f 45/14/56 47/16/54 44/15/56
f 47/16/54 46/17/55 44/15/56
f 43/18/57 45/14/56 44/15/56
f 43/18/57 44/15/56 42/19/58
f 41/20/59 43/23/57 42/22/58
f 41/20/59 42/22/58 39/21/60
f 40/8/52 41/25/59 39/24/60
f 40/8/52 39/24/60 38/9/52
f 37/26/61 28/29/62 26/28/62
f 37/26/61 26/28/62 36/27/63
f 35/30/64 37/33/61 36/32/63
f 35/30/64 36/32/63 34/31/65
f 33/34/66 35/37/64 34/36/65
f 33/34/66 34/36/65 32/35/66
f 31/38/67 33/34/66 30/39/68
f 33/34/66 32/35/66 30/39/68
f 29/40/69 31/42/67 27/41/70
f 31/42/67 30/43/68 27/41/70
f 28/29/62 29/44/69 26/28/62
f 29/44/69 27/45/70 26/28/62
f 25/1/1 15/3/3 24/46/71
f 25/1/1 24/46/71 22/4/4
f 25/1/1 20/5/5 18/47/72
f 25/1/1 18/47/72 16/2/2
f 24/48/71 15/51/3 13/50/73
f 24/48/71 13/50/73 23/49/74
f 22/52/4 24/55/71 23/54/74
f 22/52/4 23/54/74 21/53/75
f 20/56/5 22/59/4 21/58/75
f 20/56/5 21/58/75 19/57/76
f 18/60/72 20/56/5 19/57/76
f 18/60/72 19/57/76 17/61/77
f 16/62/2 18/65/72 17/64/77
f 16/62/2 17/64/77 14/63/78
f 15/51/3 16/67/2 14/66/78
f 15/51/3 14/66/78 13/50/73
f 1/68/73 11/71/79 12/70/80
f 1/68/73 12/70/80 3/69/81
f 10/72/82 12/75/80 11/74/79
f 10/72/82 11/74/79 9/73/83
f 8/76/84 10/79/82 9/78/83
f 8/76/84 9/78/83 7/77/76
f 6/80/85 8/76/84 7/77/76
f 6/80/85 7/77/76 5/81/86
f 4/82/87 6/85/85 5/84/86
f 4/82/87 5/84/86 2/83/38
f 2/86/38 1/68/73 3/69/81
f 2/86/38 3/69/81 4/87/87
