o klappe_hr_l
v -0.000001 0.000001 7.006011
v 0.000000 -0.000000 -7.006012
v 2.577794 0.001162 -7.005721
v 2.577792 0.001163 7.006310
v 2.578982 0.179755 -7.005721
v 2.578981 0.179756 7.006310
v 0.001179 0.178594 7.006011
v 0.001190 0.178593 -7.006012
v 2.577792 0.001163 7.006310
v 2.577794 0.001162 -7.005721
v -0.000001 0.000001 7.006011
v 2.578981 0.179756 7.006310
v 2.577792 0.001163 7.006310
v 0.000000 -0.000000 -7.006012
v 0.001179 0.178594 7.006011
v -0.000001 0.000001 7.006011
v 2.578982 0.179755 -7.005721
v 2.577794 0.001162 -7.005721
v 0.001190 0.178593 -7.006012
v 0.000000 -0.000000 -7.006012
v 2.578981 0.179756 7.006310
v 2.578982 0.179755 -7.005721
v 0.001179 0.178594 7.006011
v 0.001190 0.178593 -7.006012
v -0.000001 0.000001 7.006011
v 2.577794 0.001162 -7.005721
v 2.578982 0.179755 -7.005721
v 2.577792 0.001163 7.006310
v 2.578981 0.179756 7.006310
v -0.000001 0.000001 7.006011
v 0.001179 0.178594 7.006011
v 0.000000 -0.000000 -7.006012
v 0.001190 0.178593 -7.006012
v 2.577794 0.001162 -7.005721
v 0.001179 0.178594 7.006011
v 2.578982 0.179755 -7.005721
v 1.263516 0.000581 0.000145
v -0.000000 0.000000 -0.000000
v 1.263517 0.000581 -7.005866
v 1.263515 0.000582 7.006161
v 1.263516 0.000581 0.000145
v 2.577793 0.001162 0.000295
v 2.578387 0.090460 7.006310
v 2.578387 0.090459 0.000295
v 2.578982 0.179756 0.000295
v 2.578388 0.090459 -7.005721
v 2.578387 0.090459 0.000295
v 2.577793 0.001162 0.000295
v 0.000589 0.089298 7.006011
v 1.264110 0.089879 7.006161
v 1.264700 0.179175 7.006161
v 2.578387 0.090460 7.006310
v 1.264110 0.089879 7.006161
v 1.263515 0.000582 7.006161
v 0.000595 0.089297 -7.006012
v 0.000589 0.089297 -0.000000
v 0.001184 0.178594 -0.000000
v 0.000589 0.089298 7.006011
v 0.000589 0.089297 -0.000000
v -0.000000 0.000000 -0.000000
v 2.578388 0.090459 -7.005721
v 1.264112 0.089878 -7.005866
v 1.264706 0.179174 -7.005866
v 0.000595 0.089297 -7.006012
v 1.264112 0.089878 -7.005866
v 1.263517 0.000581 -7.005866
v 2.578982 0.179756 0.000295
v 1.264700 0.179175 0.000145
v 1.264700 0.179175 7.006161
v 0.001184 0.178594 -0.000000
v 1.264700 0.179175 0.000145
v 1.264706 0.179174 -7.005866
vt 0.746180 0.202832
vt 0.505856 0.202839
vt 0.746180 0.566827
vt 0.986504 0.930815
vt 0.986504 0.566819
vt 0.505856 0.566835
vt 0.746180 0.930823
vt 0.506050 0.202839
vt 0.506050 0.566835
vt 0.505953 0.566835
vt 0.505954 0.930831
vt 0.505856 0.930831
vt 0.505953 0.202839
vt 0.506050 0.930831
vt 0.746374 0.930823
vt 0.746278 0.930823
vt 0.986600 0.930815
vt 0.986696 0.930815
vt 0.986697 0.566819
vt 0.986600 0.566819
vt 0.986601 0.202824
vt 0.986504 0.202824
vt 0.986698 0.202824
vt 0.746374 0.202832
vt 0.746278 0.202832
vt 0.746374 0.566827
vn 0.000427 -0.999969 0.000000
vn 0.000458 -0.999969 0.000000
vn 0.999969 -0.006653 0.000000
vn -0.000092 0.000000 1.000000
vn -0.999969 0.006653 0.000000
vn -0.999969 0.006592 0.000000
vn 0.000092 0.000000 -1.000000
vn -0.000458 0.999969 0.000000
vn -0.000427 0.999969 0.000000
s 1
f 39/1/1 3/2/1 37/3/1
f 37/3/1 1/4/2 38/5/2
f 26/2/1 42/6/1 41/3/1
f 41/3/1 40/7/1 25/4/2
f 5/8/3 45/9/3 44/10/3
f 44/10/3 43/11/3 9/12/3
f 28/12/3 48/6/3 47/10/3
f 47/10/3 46/13/3 27/8/3
f 12/14/4 51/15/4 50/16/4
f 50/16/4 49/17/4 11/4/4
f 30/4/4 54/7/4 53/16/4
f 53/16/4 52/11/4 29/14/4
f 15/18/5 57/19/5 56/20/5
f 56/20/5 55/21/5 14/22/5
f 32/22/6 60/5/6 59/20/6
f 59/20/6 58/17/6 31/18/6
f 19/23/7 63/24/7 62/25/7
f 62/25/7 61/13/7 18/2/7
f 34/2/7 66/1/7 65/25/7
f 65/25/7 64/21/7 33/23/7
f 23/18/8 69/15/9 68/26/9
f 68/26/9 67/9/9 22/8/9
f 36/8/9 72/24/9 71/26/9
f 71/26/9 70/19/8 35/18/8
f 24/23/8 70/19/8 72/24/9
f 70/19/8 71/26/9 72/24/9
f 21/14/9 67/9/9 69/15/9
f 67/9/9 68/26/9 69/15/9
f 20/22/7 64/21/7 66/25/7
f 64/22/7 65/25/7 66/1/7
f 17/8/7 61/13/7 63/25/7
f 61/8/7 62/25/7 63/24/7
f 16/4/6 58/17/6 59/20/6
f 16/4/6 59/20/6 60/5/6
f 8/23/5 55/21/5 56/20/5
f 8/23/5 56/20/5 57/19/5
f 13/12/4 52/11/4 53/7/4
f 13/11/4 53/16/4 54/7/4
f 7/18/4 49/17/4 50/15/4
f 7/17/4 50/16/4 51/15/4
f 10/2/3 46/13/3 47/10/3
f 10/2/3 47/10/3 48/6/3
f 6/14/3 43/11/3 44/10/3
f 6/14/3 44/10/3 45/9/3
f 4/12/1 40/7/1 42/6/1
f 40/7/1 41/3/1 42/6/1
f 37/3/1 38/5/2 39/1/1
f 38/5/2 2/22/2 39/1/1
