o lüchtä
v -23.128937 -2.022960 10.669851
v -23.750790 -2.710870 9.427482
v -23.750790 -2.905123 7.758734
v -23.125095 -2.524147 6.335647
v -22.120884 -1.692962 5.732543
v -21.179546 -0.810033 6.101787
v -20.597748 -0.166442 7.264126
v -20.530785 0.049274 8.971847
v -22.144787 -1.121229 11.030007
v -21.156471 -0.331711 10.394933
v 23.128948 -2.022960 10.669855
v 23.750801 -2.710870 9.427485
v 23.750801 -2.905123 7.758738
v 23.125114 -2.524147 6.335651
v 22.120903 -1.692962 5.732547
v 21.179558 -0.810033 6.101791
v 20.597755 -0.166442 7.264130
v 20.530796 0.049274 8.971850
v 21.156483 -0.331711 10.394937
v 22.144794 -1.121229 11.030011
v -23.112782 -0.306751 8.199775
v -23.416759 -1.079729 9.839203
v -23.837738 -1.545422 8.998161
v -23.837738 -1.681054 7.833014
v -23.409096 -1.420060 6.858094
v -22.724411 -0.893720 6.447649
v -22.090755 -0.330856 6.677888
v -21.696880 0.104848 7.464765
v -21.705593 0.280606 8.682703
v -22.779663 -0.495992 10.072358
v -22.134235 0.019611 9.657615
v 23.112804 -0.306751 8.199780
v 23.416767 -1.079729 9.839207
v 23.837746 -1.545422 8.998166
v 23.837746 -1.681054 7.833018
v 23.409107 -1.420060 6.858098
v 22.724419 -0.893720 6.447653
v 22.090763 -0.330856 6.677892
v 21.696903 0.104848 7.464768
v 21.705616 0.280606 8.682707
v 22.134243 0.019611 9.657619
v 22.779686 -0.495992 10.072362
vt 0.601563 0.750000
vt 0.515625 0.500000
vt 0.742188 0.648438
vt 0.429688 0.242188
vt 0.281250 0.351563
vt 0.742188 0.359375
vt 0.507813 0.507813
vt 0.593750 0.250000
vt 0.273438 0.656250
vt 0.414063 0.765625
vt 0.085938 0.781250
vt 0.000000 0.484375
vt 0.218750 0.492188
vt 0.335938 0.992188
vt 0.671875 0.992188
vt 0.609375 0.765625
vt 0.906250 0.812500
vt 0.742188 0.671875
vt 1.000000 0.539063
vt 0.789063 0.531250
vt 0.921875 0.226563
vt 0.671875 0.007813
vt 0.335938 0.007813
vt 0.414063 0.242188
vt 0.085938 0.195313
vt 0.273438 0.343750
vt 0.093750 0.218750
vt 0.226563 0.507813
vt 0.007813 0.507813
vt 0.351563 0.015625
vt 0.687500 0.015625
vt 0.617188 0.250000
vt 0.921875 0.203125
vt 0.750000 0.335938
vt 1.007813 0.484375
vt 0.796875 0.484375
vt 0.929688 0.789063
vt 0.664063 0.992188
vt 0.421875 0.757813
vt 0.093750 0.796875
vt 0.281250 0.656250
vn -0.963836 0.189062 -0.187719
vn -0.650990 0.753105 -0.094760
vn -0.788781 0.428358 -0.440779
vn -0.070956 0.996887 0.034242
vn -0.356273 0.894131 0.271249
vn 0.788781 0.428358 -0.440779
vn 0.650990 0.753105 -0.094760
vn 0.963836 0.189062 -0.187719
vn 0.356273 0.894131 0.271249
vn 0.070956 0.996887 0.034242
vn 0.048433 0.875210 0.481246
vn 0.425336 0.602466 0.675344
vn 0.558855 0.717948 0.414899
vn -0.170476 0.981017 0.092196
vn -0.167394 0.926481 -0.336985
vn 0.068575 0.952879 -0.295419
vn 0.051424 0.726218 -0.685507
vn 0.354350 0.800317 -0.483596
vn 0.432875 0.397137 -0.809229
vn 0.561632 0.587298 -0.582720
vn 0.786126 0.087527 -0.611805
vn 0.976836 -0.056856 -0.206183
vn 0.975982 0.007355 0.217658
vn 0.962218 0.235084 0.137181
vn 0.786767 0.254921 0.562090
vn 0.787011 0.528306 0.318552
vn -0.048433 0.875210 0.481246
vn -0.558855 0.717948 0.414930
vn -0.425336 0.602466 0.675314
vn 0.170476 0.981017 0.092196
vn 0.167394 0.926481 -0.336985
vn -0.068575 0.952879 -0.295419
vn -0.051424 0.726218 -0.685507
vn -0.354350 0.800317 -0.483596
vn -0.432875 0.397137 -0.809229
vn -0.561632 0.587298 -0.582720
vn -0.786126 0.087527 -0.611835
vn -0.976836 -0.056856 -0.206183
vn -0.975982 0.007355 0.217658
vn -0.962218 0.235084 0.137181
vn -0.786767 0.254921 0.562090
vn -0.787011 0.528306 0.318552
s 1
f 24/1/1 21/2/2 25/3/3
f 29/4/4 21/2/2 31/5/5
f 36/6/6 32/7/7 35/8/8
f 41/9/9 32/7/7 40/10/10
f 19/11/11 20/12/12 42/13/13
f 19/11/11 42/13/13 41/9/9
f 18/14/14 19/11/11 41/9/9
f 18/14/14 41/9/9 40/10/10
f 17/15/15 18/14/14 40/10/10
f 17/15/15 40/10/10 39/16/16
f 16/17/17 17/15/15 38/18/18
f 17/15/15 39/16/16 38/18/18
f 15/19/19 16/17/17 37/20/20
f 16/17/17 38/18/18 37/20/20
f 14/21/21 15/19/19 37/20/20
f 14/21/21 37/20/20 36/6/6
f 13/22/22 14/21/21 36/6/6
f 13/22/22 36/6/6 35/8/8
f 12/23/23 13/22/22 34/24/24
f 13/22/22 35/8/8 34/24/24
f 11/25/25 12/23/23 33/26/26
f 12/23/23 34/24/24 33/26/26
f 20/12/12 11/25/25 42/13/13
f 11/25/25 33/26/26 42/13/13
f 40/10/10 32/7/7 39/16/16
f 32/7/7 38/18/18 39/16/16
f 38/18/18 32/7/7 36/6/6
f 38/18/18 36/6/6 37/20/20
f 35/8/8 32/7/7 34/24/24
f 32/7/7 33/26/26 34/24/24
f 41/9/9 42/13/13 33/26/26
f 41/9/9 33/26/26 32/7/7
f 10/27/27 31/5/5 30/28/28
f 10/27/27 30/28/28 9/29/29
f 8/30/30 29/4/4 31/5/5
f 8/30/30 31/5/5 10/27/27
f 7/31/31 28/32/32 29/4/4
f 7/31/31 29/4/4 8/30/30
f 6/33/33 27/34/34 7/31/31
f 27/34/34 28/32/32 7/31/31
f 5/35/35 26/36/36 6/33/33
f 26/36/36 27/34/34 6/33/33
f 4/37/37 25/3/3 26/36/36
f 4/37/37 26/36/36 5/35/35
f 3/38/38 24/1/1 25/3/3
f 3/38/38 25/3/3 4/37/37
f 2/14/39 23/39/40 3/38/38
f 23/39/40 24/1/1 3/38/38
f 1/40/41 22/41/42 2/14/39
f 22/41/42 23/39/40 2/14/39
f 22/41/42 1/40/41 30/28/28
f 1/40/41 9/29/29 30/28/28
f 31/5/5 21/2/2 22/41/42
f 31/5/5 22/41/42 30/28/28
f 29/4/4 28/32/32 21/2/2
f 28/32/32 27/34/34 21/2/2
f 27/34/34 26/36/36 25/3/3
f 27/34/34 25/3/3 21/2/2
f 24/1/1 23/39/40 21/2/2
f 23/39/40 22/41/42 21/2/2
