o chair
v 0.247040 -0.135094 -0.004546
v 0.247040 0.787285 0.374127
v 0.130931 -0.141820 0.012956
v 0.000000 -0.144063 0.018790
v 0.000000 0.894994 0.442308
v -0.130931 0.868067 0.425263
v -0.130931 -0.141820 0.012956
v -0.247040 -0.135094 -0.004546
v -0.333504 -0.150790 0.036291
v -0.247040 -0.162001 0.065461
v -0.130931 -0.168728 0.082963
v 0.000000 -0.170970 0.088797
v 0.000000 0.868087 0.512315
v 0.130931 -0.168728 0.082963
v 0.130931 0.841159 0.495270
v 0.247040 0.760377 0.444134
v 0.247040 -0.162001 0.065461
v 0.333504 -0.150790 0.036291
v -0.333504 0.625740 0.358907
v -0.247040 0.787285 0.374127
v -0.247040 0.760377 0.444134
v -0.130931 0.841159 0.495270
v 0.130931 0.868067 0.425263
v 0.333504 0.625740 0.358907
v 0.333504 -0.123882 -0.033716
v 0.333504 0.652648 0.288900
v -0.333504 0.652648 0.288900
v -0.333504 -0.123882 -0.033716
v -0.371917 -0.029606 0.085447
v -0.371917 0.029994 -0.400032
v -0.371917 -0.090742 -0.400032
v 0.371917 0.029994 -0.400032
v 0.371917 -0.029606 0.085447
v 0.371917 -0.090742 -0.400032
v -0.285000 -0.299813 0.314246
v -0.285000 -0.299813 -0.585888
v -0.380682 0.266076 -0.404173
v -0.285000 0.346360 0.199491
v -0.380682 -0.299813 -0.585888
v -0.380682 -0.299813 0.314246
v -0.380682 0.346360 0.199491
v -0.285000 0.266076 -0.404173
v 0.285000 -0.299813 0.314246
v 0.285000 -0.299813 -0.585888
v 0.380682 -0.299813 0.314246
v 0.380682 -0.299813 -0.585888
v 0.285000 0.266076 -0.404173
v 0.380682 0.346360 0.199491
v 0.380682 0.266076 -0.404173
v 0.285000 0.346360 0.199491
v 0.380682 0.030090 -0.404173
v 0.380682 -0.016869 0.050265
v 0.285000 0.030090 -0.404173
v 0.285000 -0.016869 0.050265
v -0.285000 0.030090 -0.404173
v -0.285000 -0.016869 0.050265
v -0.380682 0.030090 -0.404173
v -0.380682 -0.016869 0.050265
v -0.333504 0.652648 0.288900
v -0.247040 0.787285 0.374127
v -0.130931 0.868067 0.425263
v 0.000000 0.894994 0.442308
v 0.130931 0.868067 0.425263
v 0.247040 0.787285 0.374127
v 0.333504 0.652648 0.288900
v 0.333504 -0.123882 -0.033716
v -0.333504 -0.123882 -0.033716
v 0.380682 0.346360 0.199491
v 0.380682 0.346360 0.199491
v 0.285000 0.346360 0.199491
v 0.285000 0.346360 0.199491
v 0.285000 0.266076 -0.404173
v 0.285000 0.266076 -0.404173
v 0.380682 0.266076 -0.404173
v 0.380682 0.266076 -0.404173
v 0.380682 0.030090 -0.404173
v 0.285000 0.030090 -0.404173
v 0.285000 -0.016869 0.050265
v 0.285000 -0.016869 0.050265
v 0.285000 -0.299813 0.314246
v 0.380682 -0.016869 0.050265
v 0.380682 -0.016869 0.050265
v 0.380682 -0.299813 0.314246
v -0.285000 0.346360 0.199491
v -0.285000 0.346360 0.199491
v -0.380682 0.346360 0.199491
v -0.380682 0.346360 0.199491
v -0.380682 0.266076 -0.404173
v -0.380682 0.266076 -0.404173
v -0.285000 0.266076 -0.404173
v -0.285000 0.266076 -0.404173
v -0.285000 0.030090 -0.404173
v -0.380682 0.030090 -0.404173
v -0.380682 -0.016869 0.050265
v -0.380682 -0.016869 0.050265
v -0.380682 -0.299813 0.314246
v -0.285000 -0.016869 0.050265
v -0.285000 -0.016869 0.050265
v -0.285000 -0.299813 0.314246
v -0.371917 0.029994 -0.400032
v 0.371917 0.029994 -0.400032
v -0.333504 -0.150790 0.036291
v -0.333504 0.625740 0.358907
v -0.247040 0.760377 0.444134
v -0.130931 0.841159 0.495270
v 0.000000 0.868087 0.512315
v 0.130931 0.841159 0.495270
v 0.247040 0.760377 0.444134
v 0.333504 0.625740 0.358907
v 0.333504 -0.150790 0.036291
v 0.380682 -0.299813 -0.585888
v 0.380682 0.030090 -0.404173
v -0.380682 -0.299813 -0.585888
v -0.380682 0.030090 -0.404173
vt 0.020620 0.442488
vt 0.020620 0.411153
vt 0.259625 0.423921
vt 0.259625 0.455256
vt 0.599427 0.009273
vt 0.834067 0.009273
vt 0.834067 0.046140
vt 0.599427 0.046140
vt 0.599427 0.113358
vt 0.832068 0.113358
vt 0.832068 0.149911
vt 0.599427 0.149911
vt 0.293530 0.445401
vt 0.293532 0.633438
vt 0.007575 0.633441
vt 0.007573 0.445404
vt 0.599427 0.196430
vt 0.886026 0.149911
vt 0.886026 0.196430
vt 0.885595 0.438874
vt 0.646057 0.455265
vt 0.646057 0.423926
vt 0.885595 0.407536
vt 0.650322 0.445401
vt 0.580307 0.572513
vt 0.405212 0.554420
vt 0.303500 0.445401
vt 0.580307 0.663438
vt 0.347715 0.694372
vt 0.927129 0.476334
vt 0.927129 0.567259
vt 0.752034 0.585353
vt 0.694537 0.445401
vt 0.997144 0.694371
vt 0.650322 0.694371
vt 0.724055 0.694371
vt 0.724055 0.785297
vt 0.687189 0.785297
vt 0.687189 0.694371
vt 0.220940 0.633441
vt 0.220940 0.778180
vt 0.185152 0.778180
vt 0.185152 0.633441
vt 0.185152 0.780442
vt 0.149333 0.780442
vt 0.149333 0.633441
vt 0.650322 0.694372
vt 0.580307 0.821483
vt 0.405212 0.803390
vt 0.303500 0.694372
vt 0.580307 0.912409
vt 0.347715 0.943342
vt 0.876234 0.227364
vt 0.876234 0.318289
vt 0.701139 0.336382
vt 0.643642 0.196430
vt 0.946249 0.445401
vt 0.599427 0.445401
vt 0.650322 0.785297
vt 0.257713 0.633441
vt 0.257713 0.778180
vt 0.221925 0.778180
vt 0.221925 0.633441
vt 0.293532 0.633441
vt 0.293532 0.780442
vt 0.257713 0.780442
vt 0.009681 0.009273
vt 0.052161 0.010865
vt 0.049686 0.395115
vt 0.007573 0.333469
vt 0.571438 0.468322
vt 0.571439 0.436983
vt 0.558917 0.012233
vt 0.599427 0.011112
vt 0.599427 0.319935
vt 0.557004 0.392408
vt 0.261078 0.392408
vt 0.262990 0.012233
vt 0.303500 0.011113
vt 0.303500 0.319935
vt 0.334237 0.436978
vt 0.334237 0.468314
vt 0.348088 0.010865
vt 0.345612 0.395115
vt 0.303500 0.333469
vt 0.305607 0.009273
vt 0.506345 0.432531
vt 0.508967 0.012780
vt 0.509082 0.444816
vt 0.509081 0.476155
vt 0.102623 0.012049
vt 0.099923 0.432362
vt 0.398549 0.012049
vt 0.395850 0.432362
vt 0.213041 0.012781
vt 0.210418 0.432531
vt 0.396590 0.444813
vt 0.396590 0.476150
vt 0.453787 0.013082
vt 0.451014 0.445401
vt 0.452835 0.447426
vt 0.452834 0.478764
vt 0.157860 0.013082
vt 0.155087 0.445401
vt 0.149333 0.920003
vt 0.007573 0.920003
vt 0.007574 0.633441
vn 1.000000 0.000000 0.000000
vn 0.968230 0.233375 0.089694
vn 0.000000 0.991272 -0.131809
vn 0.000000 0.992523 0.121830
vn 0.000000 0.000000 -1.000000
vn -1.000000 0.000000 0.000000
vn -0.968230 0.233375 0.089694
vn 0.000000 0.682150 0.731162
vn 0.000000 -0.379986 0.924955
vn -0.321146 -0.361339 0.875362
vn -0.236976 -0.369335 0.898556
vn -0.765801 0.600238 0.230689
vn 0.236976 0.369335 -0.898556
vn 0.321146 0.361339 -0.875362
vn 0.236976 -0.369335 0.898556
vn 0.321146 -0.361339 0.875362
vn 0.765801 0.600238 0.230689
vn -0.236976 0.369335 -0.898556
vn -0.321146 0.361339 -0.875362
vn 0.098239 0.376415 -0.921201
vn -0.441054 0.837703 0.321970
vn -0.098239 -0.376415 0.921201
vn -0.098239 0.376415 -0.921201
vn 0.098239 -0.376415 0.921201
vn 0.441054 0.837733 0.321970
vn 0.000000 0.377697 -0.925901
vn 0.000000 0.933409 0.358745
vn 0.000000 -0.377697 0.925901
vn 0.000000 0.482437 -0.875912
s 1
f 18/1/1 25/2/1 26/3/2 24/4/2
f 38/5/3 42/6/3 37/7/3 41/8/3
f 48/9/3 49/10/3 47/11/3 50/12/3
f 33/13/4 32/14/4 30/15/4 29/16/4
f 31/17/5 100/12/5 101/18/5 34/19/5
f 9/20/6 103/21/7 27/22/7 28/23/6
f 46/24/1 51/25/1 52/26/1 45/27/1
f 51/25/1 75/28/1 68/29/1 52/26/1
f 73/30/6 53/31/6 54/32/6 71/33/6
f 53/31/6 44/34/6 43/35/6 54/32/6
f 77/36/5 72/37/5 74/38/5 76/39/5
f 83/40/8 82/41/8 79/42/8 80/43/8
f 81/43/9 69/44/9 70/45/9 78/46/9
f 36/47/1 55/48/1 56/49/1 35/50/1
f 55/48/1 91/51/1 84/52/1 56/49/1
f 89/53/6 57/54/6 58/55/6 87/56/6
f 57/54/6 39/57/6 40/58/6 58/55/6
f 93/39/5 88/38/5 90/59/5 92/35/5
f 99/60/8 98/61/8 95/62/8 96/63/8
f 97/64/9 85/65/9 86/66/9 94/60/9
f 102/67/10 10/68/11 104/69/11 19/70/10
f 103/21/7 21/71/12 60/72/12 27/22/7
f 8/73/13 67/74/14 59/75/14 20/76/13
f 16/77/15 17/78/15 110/79/16 109/80/16
f 2/81/17 108/82/17 24/4/2 26/3/2
f 1/83/18 64/84/18 65/85/19 66/86/19
f 6/87/20 7/88/20 8/73/13 20/76/13
f 61/89/21 60/72/12 21/71/12 22/90/21
f 10/68/11 11/91/22 105/92/22 104/69/11
f 1/83/18 3/93/23 23/94/23 64/84/18
f 14/95/24 17/78/15 16/77/15 15/96/24
f 2/81/17 63/97/25 107/98/25 108/82/17
f 4/99/26 7/88/20 6/87/20 5/100/26
f 62/101/27 61/89/21 22/90/21 13/102/27
f 11/91/22 12/103/28 106/104/28 105/92/22
f 3/93/23 4/99/26 5/100/26 23/94/23
f 62/101/27 13/102/27 107/98/25 63/97/25
f 12/103/28 14/95/24 15/96/24 106/104/28
f 113/105/29 114/106/29 112/107/29 111/46/29
