o feet
v -0.183456 -0.298145 -0.919460
v -0.183456 -0.265214 -0.908450
v -0.095589 -0.265214 -0.916031
v -0.095589 -0.298145 -0.927041
v -0.093884 -0.298145 -0.643267
v -0.093884 -0.235186 -0.643267
v -0.093884 -0.235186 -0.643267
v -0.105995 -0.214307 -0.753720
v -0.173505 -0.214307 -0.753720
v -0.181475 -0.235186 -0.643267
v -0.181475 -0.235186 -0.643267
v -0.181475 -0.298145 -0.643267
v 0.183648 -0.298145 -0.919460
v 0.183648 -0.265214 -0.908450
v 0.095781 -0.298145 -0.927041
v 0.095781 -0.265214 -0.916031
v 0.094076 -0.298145 -0.643267
v 0.094076 -0.235186 -0.643267
v 0.094076 -0.235186 -0.643267
v 0.106187 -0.214307 -0.753720
v 0.181667 -0.298145 -0.643267
v 0.181667 -0.235186 -0.643267
v 0.181667 -0.235186 -0.643267
v -0.095589 -0.265214 -0.916031
v -0.183456 -0.265214 -0.908450
v -0.203017 -0.298145 -0.710236
v -0.093884 -0.298145 -0.643267
v -0.072343 -0.298145 -0.710236
v 0.173697 -0.214307 -0.753720
v 0.183648 -0.265214 -0.908450
v 0.095781 -0.265214 -0.916031
v 0.203209 -0.298145 -0.710236
v 0.095781 -0.298145 -0.927041
v 0.094076 -0.298145 -0.643267
v 0.072535 -0.298145 -0.710236
v 0.181667 -0.298145 -0.643267
v -0.183456 -0.298145 -0.919460
v -0.181475 -0.298145 -0.643267
v -0.095589 -0.298145 -0.927041
v 0.183648 -0.298145 -0.919460
vt 0.667265 0.632136
vt 0.717627 0.632136
vt 0.717627 0.595937
vt 0.667265 0.595937
vt 0.179943 0.634360
vt 0.129423 0.634360
vt 0.129423 0.615426
vt 0.179943 0.615426
vt 0.557099 0.620343
vt 0.607620 0.615984
vt 0.601898 0.527019
vt 0.563082 0.527019
vt 0.618867 0.502017
vt 0.606481 0.463512
vt 0.556119 0.463512
vt 0.543733 0.502017
vt 0.607620 0.622315
vt 0.557099 0.626673
vt 0.460433 0.502017
vt 0.441084 0.527019
vt 0.447067 0.620343
vt 0.447067 0.626673
vt 0.396546 0.615984
vt 0.402268 0.527019
vt 0.385299 0.502017
vt 0.396546 0.622315
vt 0.448047 0.463512
vt 0.397685 0.463512
vt 0.340496 0.615426
vt 0.340496 0.634360
vt 0.289975 0.634360
vt 0.289975 0.615426
vt 0.876061 0.632136
vt 0.876061 0.595937
vt 0.825699 0.595937
vt 0.825699 0.632136
vn 0.000000 0.000000 1.000000
vn -0.081545 0.316019 -0.945219
vn 0.700217 0.686758 -0.195044
vn -0.712424 0.675161 -0.191137
vn -0.609638 0.765038 -0.207465
vn 0.571032 0.792138 -0.215308
vn -0.982269 0.176214 0.063723
vn -0.973449 0.169042 0.154180
vn -0.951933 0.000000 0.306192
vn 0.972900 0.183996 0.139958
vn 0.980499 0.189428 0.051912
vn 0.951933 0.000000 0.306192
vn -0.995148 0.031098 -0.093020
vn 0.993652 0.035615 -0.106540
vn -0.980499 0.189428 0.051912
vn -0.571032 0.792138 -0.215308
vn -0.700217 0.686758 -0.195044
vn -0.993652 0.035615 -0.106540
vn 0.712424 0.675161 -0.191137
vn 0.609638 0.765038 -0.207465
vn 0.982269 0.176214 0.063723
vn 0.995148 0.031098 -0.093020
vn -0.972900 0.183996 0.139958
vn 0.973449 0.169042 0.154180
vn 0.081545 0.316019 -0.945219
s 1
f 12/1/1 5/2/1 7/3/1 11/4/1
f 4/5/2 1/6/2 2/7/2 3/8/2
f 24/9/3 25/10/4 9/11/5 8/12/6
f 9/11/5 26/13/7 10/14/8
f 10/14/8 26/13/7 38/14/9
f 6/15/10 28/16/11 8/12/6
f 6/15/10 27/15/12 28/16/11
f 26/13/7 25/10/4 37/17/13
f 25/10/4 26/13/7 9/11/5
f 24/9/3 28/16/11 39/18/14
f 28/16/11 24/9/3 8/12/6
f 35/19/15 20/20/16 16/21/17
f 16/21/17 15/22/18 35/19/15
f 14/23/19 29/24/20 32/25/21
f 32/25/21 13/26/22 14/23/19
f 19/27/23 35/19/15 17/27/9
f 19/27/23 20/20/16 35/19/15
f 23/28/24 21/28/12 32/25/21
f 29/24/20 23/28/24 32/25/21
f 16/21/17 20/20/16 29/24/20 14/23/19
f 30/29/25 40/30/25 33/31/25 31/32/25
f 36/33/1 22/34/1 18/35/1 34/36/1
