o padd
v 0.131634 0.800705 0.155885
v 0.142480 0.862316 0.155885
v 0.131634 0.923927 0.155885
v -0.131634 0.800705 0.155885
v -0.142480 0.862316 0.155885
v -0.131634 0.923927 0.155885
v -0.105767 0.977732 0.103169
v -0.093079 0.748474 0.083112
v -0.065787 0.748474 0.027513
v -0.080951 0.977732 0.058479
v -0.043810 0.977732 0.028618
v -0.050374 0.784027 -0.025930
v -0.000000 0.784027 -0.039914
v -0.000000 0.977732 0.018132
v 0.043810 0.977732 0.028618
v 0.050374 0.784027 -0.025930
v 0.065787 0.748474 0.027513
v 0.080951 0.977732 0.058479
v 0.105767 0.977732 0.103169
v 0.093079 0.748474 0.083112
vt 0.654419 -0.784395
vt 0.495607 -0.855745
vt 0.336947 -0.782836
vt 0.703351 -0.443593
vt 0.288741 -0.441557
vt 0.789657 -0.157235
vt 0.203045 -0.154355
vt 0.082062 0.323651
vt 0.911656 0.319579
vt 0.636493 1.809193
vt 0.360390 1.810549
vt 0.498499 1.863956
vt 0.753364 1.654595
vt 0.243191 1.657100
vt 0.831319 1.423699
vt 0.164746 1.426971
vt 0.912396 1.015526
vt 0.082802 1.019599
vt 0.946202 0.667385
vt 0.048256 0.671793
vn 0.000000 0.957213 0.289315
vn 0.000000 1.000000 0.000000
vn 0.000000 0.951933 -0.306253
vn 0.000000 0.456557 -0.889676
vn 0.000000 -1.000000 0.000000
vn 0.000000 -0.921903 -0.387371
vn 0.000000 -0.377941 -0.925810
vn 0.000000 0.000000 -1.000000
s 1
f 16/1/1 13/2/2 12/3/1
f 17/4/1 16/1/1 12/3/1 9/5/1
f 20/6/3 17/4/1 9/5/1 8/7/3
f 4/8/4 1/9/4 20/6/3 8/7/3
f 15/10/5 11/11/5 14/12/5
f 18/13/5 10/14/5 11/11/5 15/10/5
f 19/15/6 7/16/6 10/14/5 18/13/5
f 19/15/6 3/17/7 6/18/7 7/16/6
f 6/18/7 3/17/7 2/19/8 5/20/8
f 1/9/4 4/8/4 5/20/8 2/19/8
