o body_m
v 0.274958 0.420201 -0.325867
v -0.022018 0.724484 0.219646
v -0.027228 0.721630 0.084015
v 0.186812 0.151360 -0.484206
v 0.015429 0.200921 -0.126081
v 0.276217 0.328823 -0.294251
v 0.357803 0.376602 -0.306769
v 0.387307 0.408450 0.007085
v 0.128972 0.000000 -0.000000
v -0.129356 0.000000 -0.000000
v 0.131601 0.662128 0.203480
v -0.131985 0.695966 0.110225
v 0.131600 0.695966 0.110225
v -0.134304 0.179695 0.064015
v -0.118290 0.242940 -0.110282
v -0.147222 0.378026 0.137335
v -0.129355 0.081883 -0.174297
v -0.196712 0.679047 0.156853
v 0.196328 0.679047 0.156853
v -0.015237 0.200921 -0.126081
v -0.060262 0.088121 -0.420844
v -0.186620 0.036496 -0.403503
v -0.149907 -0.262998 -0.643289
v -0.168111 0.500540 0.181945
v -0.279282 0.661125 0.153127
v -0.250322 0.615828 0.203647
v -0.155425 0.617945 0.118101
v -0.357723 0.463655 -0.040845
v -0.329927 0.434510 -0.310042
v -0.330899 0.346107 -0.325867
v 0.181667 -0.235186 -0.643267
v 0.060453 0.088121 -0.420844
v 0.093071 0.036496 -0.403503
v 0.129785 -0.262998 -0.643289
v 0.186812 0.036496 -0.403503
v 0.150099 -0.262998 -0.643289
v 0.209508 0.088112 -0.420627
v 0.191787 0.185487 -0.024574
v 0.250198 0.592606 0.125487
v 0.146838 0.378026 0.137335
v 0.124023 0.179695 0.064015
v 0.167727 0.500540 0.181945
v 0.305722 0.360670 0.019603
v 0.295057 0.452095 -0.059246
v 0.357915 0.463655 -0.040845
v 0.256965 0.376930 -0.325867
v 0.330852 0.323758 -0.298873
v 0.360356 0.355606 0.014981
v 0.349085 0.389378 -0.325867
v 0.246505 0.684832 0.085094
v 0.331091 0.346107 -0.325867
v 0.167727 0.637465 0.001861
v 0.155617 0.617945 0.118101
v 0.250515 0.615828 0.203647
v -0.000192 0.723139 0.159760
v -0.330659 0.323758 -0.298873
v -0.276025 0.328823 -0.294251
v -0.256773 0.376930 -0.325867
v -0.274766 0.420201 -0.325867
v -0.246312 0.684832 0.085094
v -0.129215 0.451619 -0.065480
v -0.219433 0.406279 0.059471
v -0.191595 0.185487 -0.024575
v -0.192216 0.078290 -0.050793
v -0.092879 0.036496 -0.403503
v -0.105995 -0.214307 -0.753720
v -0.173505 -0.214307 -0.753720
v -0.186620 0.151360 -0.484206
v -0.209316 0.088112 -0.420627
v -0.093884 -0.235186 -0.643267
v -0.129593 -0.262998 -0.643289
v -0.128780 0.000000 -0.000000
v -0.250582 0.592606 0.125487
v 0.108008 0.242940 -0.110282
v 0.128831 0.451619 -0.065480
v 0.219050 0.406279 0.059471
v -0.280562 0.404365 -0.014556
v -0.305529 0.360670 0.019603
v -0.248341 0.386731 -0.297524
v -0.275292 0.439575 -0.305420
v -0.387115 0.408450 0.007085
v -0.357610 0.376602 -0.306769
v -0.348892 0.389378 -0.325867
v -0.131984 0.662128 0.203480
v 0.128972 0.081883 -0.174297
v 0.000096 0.000000 -0.000000
v 0.000096 0.081584 -0.162414
v 0.093071 0.151360 -0.495211
v 0.248534 0.386731 -0.297524
v 0.280754 0.404365 -0.014556
v 0.275485 0.439575 -0.305420
v 0.330119 0.434510 -0.310042
v -0.049365 0.662095 0.203348
v 0.020946 0.724484 0.219646
v 0.048293 0.662095 0.203348
v 0.080594 0.703693 0.158483
v 0.061416 0.723139 0.159760
v 0.022963 0.679552 0.084422
v 0.026156 0.721630 0.084015
v -0.081666 0.703693 0.158483
v -0.062488 0.723139 0.159760
v -0.024034 0.679552 0.084422
v 0.106187 -0.214307 -0.753720
v 0.279474 0.661125 0.153127
v 0.192408 0.078290 -0.050793
v -0.181475 -0.235186 -0.643267
v -0.092879 0.151360 -0.495211
v -0.167535 0.637465 0.001861
v -0.294865 0.452095 -0.059246
v -0.360164 0.355606 0.014980
v 0.094076 -0.235186 -0.643267
v 0.349085 0.389378 -0.325867
v 0.357803 0.376602 -0.306769
v 0.387307 0.408450 0.007085
v 0.387307 0.408450 0.007085
v 0.279474 0.661125 0.153127
v 0.196328 0.679047 0.156853
v -0.000192 0.723139 0.159760
v -0.196712 0.679047 0.156853
v -0.279282 0.661125 0.153127
v -0.387115 0.408450 0.007085
v -0.387115 0.408450 0.007085
v -0.357610 0.376602 -0.306769
v -0.348892 0.389378 -0.325867
v -0.256773 0.376930 -0.325867
v -0.248341 0.386731 -0.297524
v -0.280562 0.404365 -0.014556
v -0.280562 0.404365 -0.014556
v -0.280562 0.404365 -0.014556
v -0.294865 0.452095 -0.059246
v -0.357723 0.463655 -0.040845
v -0.155425 0.617945 0.118101
v -0.305529 0.360670 0.019603
v -0.360164 0.355606 0.014980
v -0.387115 0.408450 0.007085
v 0.360356 0.355606 0.014981
v 0.305722 0.360670 0.019603
v 0.280754 0.404365 -0.014556
v 0.280754 0.404365 -0.014556
v 0.295057 0.452095 -0.059246
v 0.357915 0.463655 -0.040845
v 0.387307 0.408450 0.007085
v 0.155617 0.617945 0.118101
v 0.256965 0.376930 -0.325867
v 0.248534 0.386731 -0.297524
v 0.280754 0.404365 -0.014556
v 0.181667 -0.235186 -0.643267
v 0.181667 -0.235186 -0.643267
v 0.173697 -0.214307 -0.753720
v 0.173697 -0.214307 -0.753720
v 0.106187 -0.214307 -0.753720
v 0.094076 -0.235186 -0.643267
v 0.094076 -0.235186 -0.643267
v 0.060453 0.088121 -0.420844
v 0.060453 0.088121 -0.420844
v 0.060453 0.088121 -0.420844
v 0.093071 0.036496 -0.403503
v 0.186812 0.036496 -0.403503
v 0.209508 0.088112 -0.420627
v 0.209508 0.088112 -0.420627
v 0.186812 0.151360 -0.484206
v 0.093071 0.151360 -0.495211
v 0.192408 0.078290 -0.050793
v 0.192408 0.078290 -0.050793
v 0.192408 0.078290 -0.050793
v 0.128972 0.000000 -0.000000
v 0.000096 0.000000 -0.000000
v 0.191787 0.185487 -0.024574
v 0.191787 0.185487 -0.024574
v 0.219050 0.406279 0.059471
v 0.250198 0.592606 0.125487
v 0.000096 0.081584 -0.162414
v 0.209508 0.088112 -0.420627
v -0.060262 0.088121 -0.420844
v -0.060262 0.088121 -0.420844
v -0.060262 0.088121 -0.420844
v -0.093884 -0.235186 -0.643267
v -0.092879 0.151360 -0.495211
v -0.186620 0.151360 -0.484206
v -0.209316 0.088112 -0.420627
v -0.209316 0.088112 -0.420627
v -0.186620 0.036496 -0.403503
v -0.092879 0.036496 -0.403503
v -0.192216 0.078290 -0.050793
v 0.000096 0.081584 -0.162414
v -0.181475 -0.235186 -0.643267
v -0.181475 -0.235186 -0.643267
v -0.209316 0.088112 -0.420627
v -0.173505 -0.214307 -0.753720
v -0.105995 -0.214307 -0.753720
v -0.093884 -0.235186 -0.643267
v -0.081666 0.703693 0.158483
v -0.062488 0.723139 0.159760
v 0.080594 0.703693 0.158483
v 0.061416 0.723139 0.159760
v -0.191595 0.185487 -0.024575
v -0.191595 0.185487 -0.024575
v -0.219433 0.406279 0.059471
v -0.250582 0.592606 0.125487
v -0.192216 0.078290 -0.050793
v -0.192216 0.078290 -0.050793
vt 0.832662 0.583337
vt 0.825699 0.595342
vt 0.876061 0.595342
vt 0.871478 0.583337
vt 0.820322 0.033274
vt 0.783651 0.036221
vt 0.799375 0.079433
vt 0.829609 0.057986
vt 0.743224 0.079433
vt 0.722277 0.033274
vt 0.712991 0.057986
vt 0.758948 0.036221
vt 0.249943 0.047426
vt 0.248107 0.071619
vt 0.221085 0.071619
vt 0.219249 0.047426
vt 0.185573 0.035498
vt 0.176287 0.060210
vt 0.283619 0.035498
vt 0.292905 0.060210
vt 0.892068 0.409455
vt 0.879019 0.439133
vt 0.857910 0.611333
vt 0.825121 0.439133
vt 0.846230 0.611333
vt 0.806367 0.409450
vt 0.295958 0.585561
vt 0.288417 0.375313
vt 0.342315 0.375313
vt 0.334774 0.585561
vt 0.852444 0.904745
vt 0.842612 0.692102
vt 0.806138 0.662898
vt 0.839394 0.894899
vt 0.732038 0.662898
vt 0.785496 0.894899
vt 0.732038 0.756281
vt 0.766742 0.904870
vt 0.890800 0.832083
vt 0.907764 0.651627
vt 0.893408 0.671267
vt 0.874882 0.833965
vt 0.120431 0.826768
vt 0.101905 0.664069
vt 0.093681 0.689765
vt 0.104935 0.831307
vt 0.057540 0.679185
vt 0.073522 0.833965
vt 0.040640 0.651627
vt 0.057605 0.832083
vt 0.937709 0.839280
vt 0.954673 0.658824
vt 0.939177 0.654284
vt 0.922213 0.834740
vt 0.347787 0.071909
vt 0.395593 0.082214
vt 0.376637 0.068583
vt 0.884490 0.069686
vt 0.915646 0.106035
vt 0.932297 0.079990
vt 0.947388 0.252742
vt 0.868046 0.172322
vt 0.861083 0.104817
vt 0.933033 0.227619
vt 0.396329 0.229843
vt 0.324379 0.107041
vt 0.331342 0.095818
vt 0.404553 0.202400
vt 0.440694 0.195754
vt 0.457594 0.227494
vt 0.994298 0.225271
vt 0.978802 0.255654
vt 0.771497 0.046439
vt 0.847274 0.079414
vt 0.695721 0.079414
vt 0.658504 0.069686
vt 0.234794 0.048663
vt 0.159017 0.062182
vt 0.121801 0.071910
vt 0.310570 0.062182
vt 0.674949 0.172322
vt 0.138577 0.095818
vt 0.882236 0.415103
vt 0.881879 0.353467
vt 0.842917 0.356798
vt 0.845762 0.460117
vt 0.697232 0.460117
vt 0.694387 0.356798
vt 0.661446 0.353467
vt 0.661089 0.415103
vt 0.124386 0.417327
vt 0.124743 0.355691
vt 0.166891 0.322658
vt 0.160529 0.415261
vt 0.297005 0.322658
vt 0.309059 0.415261
vt 0.345176 0.355691
vt 0.345533 0.417327
vt 0.897555 0.226519
vt 0.856035 0.242764
vt 0.915464 0.119387
vt 0.686960 0.242764
vt 0.645440 0.226519
vt 0.627531 0.119387
vt 0.108736 0.228743
vt 0.160609 0.202674
vt 0.090827 0.121610
vt 0.308978 0.202674
vt 0.378760 0.121610
vt 0.360851 0.228743
vt 0.771663 0.460117
vt 0.152702 0.684905
vt 0.142870 0.897548
vt 0.153059 0.669830
vt 0.155919 0.934104
vt 0.228571 0.897673
vt 0.263275 0.749083
vt 0.254459 0.728193
vt 0.209817 0.940432
vt 0.062617 0.843064
vt 0.105238 0.843064
vt 0.115583 0.843064
vt 0.879730 0.850261
vt 0.922351 0.850261
vt 0.932696 0.850261
vt 0.269663 0.411674
vt 0.288995 0.597566
vt 0.355365 0.411679
vt 0.339357 0.597566
vt 0.135144 0.585561
vt 0.114554 0.411679
vt 0.127603 0.375313
vt 0.130561 0.597566
vt 0.173960 0.585561
vt 0.200256 0.411674
vt 0.180923 0.597566
vt 0.181501 0.375313
vt 0.272091 0.728193
vt 0.370631 0.934104
vt 0.373492 0.669830
vt 0.316733 0.940432
vt 0.297979 0.897673
vt 0.383681 0.897548
vt 0.373849 0.684905
vt 0.678580 0.894899
vt 0.697335 0.904870
vt 0.624682 0.894899
vt 0.657939 0.662898
vt 0.611633 0.904745
vt 0.621465 0.692102
vt 0.697096 0.611333
vt 0.717627 0.595342
vt 0.736959 0.409450
vt 0.718205 0.439133
vt 0.685416 0.611333
vt 0.664307 0.439133
vt 0.667265 0.595342
vt 0.651257 0.409455
vt 0.710664 0.583337
vt 0.671848 0.583337
vt 0.541726 0.850261
vt 0.573277 0.832083
vt 0.541864 0.834740
vt 0.584347 0.850261
vt 0.531381 0.850261
vt 0.526368 0.839280
vt 0.589194 0.833965
vt 0.421312 0.843064
vt 0.406119 0.826768
vt 0.410967 0.843064
vt 0.421615 0.831307
vt 0.453028 0.833965
vt 0.463933 0.843064
vt 0.468945 0.832083
vt 0.029224 0.195754
vt 0.065366 0.202400
vt 0.093282 0.068583
vt 0.627680 0.106035
vt 0.564524 0.255654
vt 0.595938 0.252742
vt 0.549028 0.225271
vt 0.611029 0.079990
vt 0.012325 0.227494
vt 0.074326 0.082214
vt 0.073589 0.229843
vt 0.145540 0.107041
vt 0.610293 0.227619
vt 0.682243 0.104817
vt 0.556313 0.651627
vt 0.524900 0.654284
vt 0.509404 0.658824
vt 0.485910 0.651627
vt 0.469010 0.679185
vt 0.432869 0.689765
vt 0.424645 0.664069
vt 0.570668 0.671267
vn 0.000000 0.982574 0.185736
vn 0.667653 0.332163 0.666219
vn 0.473006 -0.022736 0.880734
vn 0.545061 0.093142 0.833186
vn 0.490493 0.434095 0.755608
vn -0.545061 0.093142 0.833186
vn -0.667653 0.332163 0.666219
vn -0.490493 0.434095 0.755608
vn -0.473006 -0.022736 0.880734
vn 0.536760 -0.048860 -0.842280
vn 0.660878 0.094760 -0.744438
vn -0.660878 0.094760 -0.744438
vn -0.536760 -0.048860 -0.842280
vn -0.783959 0.272469 -0.557787
vn -0.543413 0.576006 -0.610614
vn 0.783959 0.272469 -0.557787
vn 0.543413 0.576006 -0.610614
vn 0.773400 -0.427595 0.467940
vn 0.427992 -0.582507 0.690970
vn -0.373608 -0.594928 0.711631
vn -0.692984 -0.478469 0.539262
vn -0.672597 0.409406 -0.616382
vn -0.560137 0.469008 -0.682791
vn 0.632984 0.440291 -0.636738
vn 0.721671 0.386639 -0.574175
vn 0.844203 -0.533677 0.049837
vn 0.483047 -0.875271 -0.023011
vn 0.000000 -0.957579 -0.288125
vn -0.475784 -0.860775 -0.180670
vn 0.000000 -0.913907 -0.405866
vn -0.831294 -0.507950 -0.225562
vn -0.521928 -0.815424 -0.250282
vn -0.566179 -0.812922 0.136113
vn -0.899014 -0.418806 0.127689
vn -0.903043 -0.429487 0.005951
vn -0.900601 0.402509 -0.163884
vn -0.910611 0.407941 0.065859
vn -0.563097 0.826350 -0.006104
vn -0.510086 0.796533 -0.324473
vn 0.521378 0.844050 -0.125370
vn 0.420118 0.771111 -0.478347
vn 0.907651 0.398724 -0.130894
vn 0.902707 0.410352 -0.129215
vn 0.838191 -0.441786 -0.319681
vn 0.887967 -0.458388 -0.036958
vn 0.485305 -0.873257 0.042970
vn 0.388104 -0.876095 -0.285958
vn 0.178076 0.973083 0.146245
vn 0.602191 0.796808 0.049043
vn 0.439100 0.856990 -0.269692
vn 0.228950 0.736045 0.637013
vn 0.379742 0.108005 0.918760
vn 0.547716 0.345836 0.761834
vn -0.478042 -0.770440 0.421735
vn -0.057436 -0.591388 0.804315
vn -0.868129 -0.388012 -0.309427
vn -0.864376 -0.397443 -0.307932
vn 0.017670 0.400250 -0.916196
vn -0.494430 0.015656 -0.869045
vn 0.572649 0.576464 -0.582842
vn 0.865993 0.480361 -0.138798
vn 0.779962 -0.074465 0.621357
vn 0.578112 -0.310465 0.754540
vn 0.000000 0.715262 0.698843
vn 0.086886 0.398297 0.913114
vn -0.087130 0.398206 0.913114
vn -0.229682 0.735649 0.637165
vn 0.000000 0.974761 -0.223151
vn -0.093814 0.981414 -0.167333
vn -0.178625 0.972991 0.146001
vn 0.093722 0.981475 -0.166967
vn 0.056978 -0.591693 0.804102
vn -0.017273 0.400372 -0.916166
vn 0.767907 -0.178564 0.615131
vn 0.764916 -0.243110 0.596454
vn 0.446547 -0.318735 0.836024
vn 0.424085 -0.283914 0.859951
vn -0.445448 -0.294565 0.845424
vn -0.457747 -0.320261 0.829371
vn -0.791742 -0.237953 0.562548
vn -0.797601 -0.191870 0.571795
vn -0.846706 0.202368 -0.492019
vn -0.829920 0.151891 -0.536790
vn -0.465072 0.253883 -0.848048
vn -0.483718 0.326609 -0.811975
vn 0.457717 0.258889 -0.850551
vn 0.466903 0.343730 -0.814753
vn 0.810755 0.166631 -0.561113
vn 0.825587 0.238441 -0.511368
vn 0.755364 -0.318705 0.572527
vn 0.421033 -0.365184 0.830256
vn 0.752190 -0.330851 0.569842
vn -0.436018 -0.359905 0.824793
vn -0.768487 -0.307321 0.561205
vn -0.752190 -0.330851 0.569842
vn -0.818567 0.073458 -0.569659
vn -0.446455 0.201788 -0.871731
vn -0.827265 0.046175 -0.559862
vn 0.442122 0.198950 -0.874599
vn 0.827937 0.044465 -0.559038
vn 0.809351 0.069063 -0.583209
vn 0.000000 -0.335582 0.941984
vn 0.998901 -0.005463 0.046022
vn 0.988159 0.153233 0.006531
vn 0.764702 0.642537 -0.048006
vn 0.583850 0.808802 -0.070132
vn -0.952849 0.204718 -0.223884
vn -0.957183 0.189581 -0.218757
vn -0.551439 0.804132 -0.221900
vn -0.594073 0.771233 -0.228492
vn 0.627247 0.478896 -0.614124
vn -0.339488 0.638691 -0.690481
vn -0.855098 0.355541 -0.377300
vn -0.644765 -0.582934 -0.494369
vn 0.377514 -0.687246 -0.620594
vn 0.764122 -0.317728 -0.561357
vn -0.977935 0.069063 -0.197119
vn -0.993194 -0.025086 -0.113620
vn 0.987610 0.047609 -0.149419
vn 0.996429 -0.032105 -0.077975
vn -0.721671 0.386639 -0.574175
vn -0.987610 0.047609 -0.149419
vn -0.632984 0.440291 -0.636738
vn -0.996429 -0.032105 -0.077975
vn 0.672597 0.409406 -0.616382
vn 0.977935 0.069063 -0.197119
vn 0.993194 -0.025086 -0.113620
vn 0.560137 0.469008 -0.682791
vn 0.551439 0.804132 -0.221900
vn -0.583850 0.808802 -0.070132
vn -0.764702 0.642537 -0.048006
vn 0.594073 0.771233 -0.228492
vn 0.952849 0.204718 -0.223884
vn 0.957183 0.189581 -0.218757
vn -0.988159 0.153233 0.006531
vn -0.998901 -0.005463 0.046022
vn 0.475784 -0.860775 -0.180670
vn 0.831294 -0.507950 -0.225562
vn -0.483047 -0.875271 -0.023011
vn -0.844203 -0.533677 0.049837
vn 0.373608 -0.594928 0.711631
vn 0.692984 -0.478469 0.539262
vn -0.427992 -0.582507 0.690970
vn -0.773400 -0.427595 0.467940
vn -0.377514 -0.687246 -0.620594
vn 0.521928 -0.815424 -0.250282
vn -0.388104 -0.876095 -0.285958
vn 0.644765 -0.582934 -0.494369
vn -0.764122 -0.317728 -0.561357
vn -0.838191 -0.441786 -0.319681
vn 0.903043 -0.429487 0.005951
vn 0.339488 0.638691 -0.690481
vn 0.900601 0.402509 -0.163884
vn 0.855098 0.355541 -0.377300
vn 0.510086 0.796533 -0.324473
vn -0.420118 0.771111 -0.478347
vn -0.627247 0.478896 -0.614124
vn -0.902707 0.410352 -0.129215
vn -0.572649 0.576464 -0.582842
vn 0.494430 0.015656 -0.869045
vn -0.439253 0.856838 -0.269936
vn -0.380047 0.107425 0.918699
vn -0.578539 -0.310221 0.754295
vn 0.476821 -0.770226 0.423505
vn -0.779962 -0.074465 0.621357
vn -0.548173 0.345408 0.761681
vn -0.865993 0.480361 -0.138798
vn -0.602741 0.796411 0.048585
vn 0.864376 -0.397443 -0.307932
vn 0.868557 -0.389416 -0.306436
vn 0.566179 -0.812922 0.136113
vn -0.485305 -0.873257 0.042970
vn -0.887967 -0.458388 -0.036958
vn -0.907651 0.398724 -0.130894
vn -0.521378 0.844050 -0.125370
vn 0.563097 0.826350 -0.006104
vn 0.910611 0.407941 0.065859
vn 0.899014 -0.418806 0.127689
s 1
f 103/1/1 152/2/1 148/3/1 150/4/1
f 97/5/2 94/6/3 95/7/4
f 96/8/5 97/5/2 95/7/4
f 93/9/6 101/10/7 100/11/8
f 2/12/9 101/10/7 93/9/6
f 2/12/9 93/9/6 95/7/4 94/6/3
f 99/13/10 98/14/11 102/15/12 3/16/13
f 193/17/14 3/16/13 102/15/12
f 102/15/12 192/18/15 193/17/14
f 195/19/16 194/20/17 98/14/11
f 98/14/11 99/13/10 195/19/16
f 31/3/18 37/21/18 35/22/19 36/23/19
f 36/23/19 35/22/19 33/24/20 34/25/20
f 34/25/20 33/24/20 32/26/21 111/2/21
f 151/27/22 88/28/23 4/29/24 149/30/25
f 160/31/26 105/32/26 9/33/27 158/34/27
f 158/34/27 9/33/27 86/35/28 157/36/29
f 157/36/29 86/35/28 185/37/30 156/38/31
f 6/39/32 43/40/33 90/41/34 89/42/35
f 145/43/36 146/44/37 44/45/38 91/46/39
f 91/46/39 44/45/38 45/47/40 92/48/41
f 92/48/41 45/47/40 8/49/42 7/50/43
f 113/51/44 115/52/45 48/53/46 47/54/47
f 43/40/33 6/39/32 47/54/47 48/53/46
f 117/55/48 104/56/49 50/57/50
f 19/58/51 54/59/52 116/60/53
f 137/61/54 42/62/55 53/63/56 139/64/56
f 138/65/57 143/66/57 52/67/58 140/68/59
f 141/69/60 50/57/50 104/56/49 142/70/61
f 114/71/62 116/60/53 54/59/52 136/72/63
f 42/62/55 137/61/54 136/72/63 54/59/52
f 55/73/64 11/74/65 19/58/51
f 55/73/64 84/75/66 11/74/65
f 55/73/64 18/76/67 84/75/66
f 118/77/68 12/78/69 119/79/70
f 118/77/68 13/80/71 12/78/69
f 118/77/68 117/55/48 13/80/71
f 42/62/55 11/74/65 84/75/66 24/81/72
f 108/82/73 12/78/69 13/80/71 52/67/58
f 165/83/74 169/84/75 41/85/76 166/86/77
f 10/87/78 14/88/79 63/89/80 64/90/81
f 200/91/82 197/92/83 15/93/84 17/94/85
f 17/94/85 15/93/84 74/95/86 85/96/87
f 168/97/88 164/98/89 85/96/87 74/95/86
f 169/84/75 76/99/90 40/100/91 41/85/76
f 76/99/90 39/101/92 42/62/55 40/100/91
f 41/85/76 40/100/91 16/102/93 14/88/79
f 14/88/79 16/102/93 62/103/94 63/89/80
f 16/102/93 24/81/72 73/104/95 62/103/94
f 197/92/83 198/105/96 61/106/97 15/93/84
f 198/105/96 199/107/98 108/82/73 61/106/97
f 15/93/84 61/106/97 75/108/99 74/95/86
f 171/109/100 170/110/101 75/108/99 52/67/58
f 170/110/101 168/97/88 74/95/86 75/108/99
f 54/59/52 19/58/51 11/74/65
f 54/59/52 11/74/65 42/62/55
f 50/57/50 13/80/71 117/55/48
f 50/57/50 52/67/58 13/80/71
f 167/111/102 41/85/76 14/88/79
f 10/87/78 167/111/102 14/88/79
f 167/111/102 166/86/77 41/85/76
f 163/112/103 159/113/104 38/114/105
f 159/113/104 161/115/106 38/114/105
f 155/116/107 172/117/108 5/118/109
f 155/116/107 5/118/109 162/119/110
f 162/119/110 5/118/109 161/115/106
f 5/118/109 38/114/105 161/115/106
f 52/67/58 50/57/50 141/69/60
f 141/69/60 140/68/59 52/67/58
f 49/120/111 92/48/41 7/50/43
f 1/121/112 91/46/39 92/48/41
f 49/120/111 1/121/112 92/48/41
f 91/46/39 1/121/112 145/43/36
f 1/121/112 46/122/113 145/43/36
f 144/123/114 6/39/32 89/42/35
f 51/124/115 113/51/44 47/54/47
f 112/125/116 113/51/44 51/124/115
f 6/39/32 144/123/114 51/124/115
f 51/124/115 47/54/47 6/39/32
f 154/126/117 88/28/23 151/27/22
f 151/27/22 153/127/118 154/126/117
f 173/128/119 147/129/120 149/30/25
f 149/30/25 4/29/24 173/128/119
f 67/130/121 69/131/122 68/132/123
f 69/131/122 67/130/121 106/133/124
f 66/134/125 21/135/126 70/136/127
f 21/135/126 66/134/125 178/137/128
f 20/138/129 179/139/130 196/140/131
f 107/141/132 179/139/130 20/138/129
f 175/142/133 107/141/132 20/138/129
f 175/142/133 20/138/129 87/117/134
f 181/143/135 196/140/131 179/139/130
f 201/144/136 196/140/131 181/143/135
f 65/145/137 174/146/138 185/37/30 86/35/28
f 22/147/139 65/145/137 86/35/28 72/148/139
f 180/149/140 22/147/139 72/148/139 184/150/140
f 66/134/125 67/130/121 68/132/123 178/137/128
f 71/151/141 177/152/142 176/153/142 183/154/141
f 23/155/143 71/151/141 183/154/141 182/156/143
f 187/157/144 23/155/143 182/156/143 188/158/144
f 190/159/1 189/160/1 186/157/1 191/152/1
f 30/161/145 57/162/146 56/163/147
f 57/162/146 30/161/145 58/164/148
f 124/165/149 30/161/145 82/166/150
f 30/161/145 56/163/147 82/166/150
f 58/164/148 126/167/151 57/162/146
f 59/168/152 79/169/153 125/170/154
f 79/169/153 59/168/152 80/171/155
f 29/172/156 59/168/152 83/173/157
f 59/168/152 29/172/156 80/171/155
f 83/173/157 123/174/158 29/172/156
f 28/175/159 108/82/73 109/176/160
f 108/82/73 28/175/159 60/177/161
f 24/81/72 26/178/162 110/179/163 78/180/164
f 81/181/165 110/179/163 26/178/162 25/182/166
f 28/175/159 122/183/167 120/184/168 60/177/161
f 77/185/169 109/176/160 108/82/73 27/186/169
f 78/180/164 128/187/170 132/188/170 24/81/72
f 133/189/171 134/190/172 56/163/147 57/162/146
f 82/166/150 56/163/147 134/190/172 135/191/173
f 29/172/156 123/174/158 121/192/174 131/193/175
f 80/171/155 29/172/156 131/193/175 130/194/176
f 79/169/153 80/171/155 130/194/176 129/195/177
f 57/162/146 126/167/151 127/196/178 133/189/171
f 84/75/66 26/178/162 24/81/72
f 84/75/66 18/76/67 26/178/162
f 18/76/67 25/182/166 26/178/162
f 119/79/70 60/177/161 120/184/168
f 12/78/69 60/177/161 119/79/70
f 12/78/69 108/82/73 60/177/161
f 42/62/55 24/81/72 16/102/93
f 16/102/93 40/100/91 42/62/55
f 108/82/73 52/67/58 75/108/99
f 75/108/99 61/106/97 108/82/73
