o pipe
v -0.085089 0.706108 0.025255
v -0.080235 0.708980 0.041787
v -0.078748 0.718789 0.036237
v -0.071095 0.722851 0.029876
v -0.061760 0.718789 0.026429
v -0.056210 0.708980 0.027916
v -0.057697 0.699172 0.033466
v -0.065350 0.695109 0.039827
v -0.074686 0.699172 0.043274
v -0.061464 0.708980 0.074300
v -0.057946 0.718789 0.072269
v -0.049451 0.722851 0.067364
v -0.040957 0.718789 0.062460
v -0.037439 0.708980 0.060429
v -0.040957 0.699172 0.062460
v -0.049451 0.695109 0.067364
v -0.057946 0.699172 0.072269
v -0.090044 0.608576 0.024799
v -0.091429 0.608576 0.014273
v -0.084967 0.608576 0.005850
v -0.074441 0.608576 0.004465
v -0.066018 0.608576 0.010927
v -0.064633 0.608576 0.021453
v -0.071095 0.608576 0.029876
v -0.081621 0.608576 0.031261
v -0.090044 0.689364 0.024799
v -0.091429 0.693426 0.014273
v -0.084967 0.695109 0.005850
v -0.074441 0.693426 0.004465
v -0.066018 0.689364 0.010927
v -0.064633 0.685301 0.021453
v -0.071095 0.683618 0.029876
v -0.081621 0.685301 0.031261
v -0.085140 0.699172 0.033293
v -0.078031 0.708980 0.017863
v -0.068100 0.706108 0.015447
v -0.061114 0.699172 0.019422
v -0.061165 0.692236 0.027460
v -0.068223 0.689364 0.034852
v -0.078153 0.692236 0.037268
v 0.066118 0.706108 0.014302
v 0.054228 0.708980 0.026772
v 0.059778 0.718789 0.025285
v 0.069113 0.722852 0.028731
v 0.076766 0.718789 0.035093
v 0.078253 0.708980 0.040643
v 0.072704 0.699172 0.042130
v 0.063368 0.695109 0.038683
v 0.055715 0.699172 0.032322
v 0.035457 0.708980 0.059285
v 0.038975 0.718789 0.061316
v 0.047469 0.722852 0.066220
v 0.055964 0.718789 0.071124
v 0.059482 0.708980 0.073156
v 0.055964 0.699172 0.071124
v 0.047469 0.695109 0.066220
v 0.038975 0.699172 0.061316
v 0.064036 0.608576 0.009783
v 0.072459 0.608576 0.003320
v 0.082985 0.608576 0.004706
v 0.089447 0.608576 0.013129
v 0.088062 0.608576 0.023654
v 0.079639 0.608576 0.030117
v 0.069113 0.608576 0.028731
v 0.062651 0.608576 0.020309
v 0.064036 0.689364 0.009783
v 0.072459 0.693426 0.003320
v 0.082985 0.695109 0.004706
v 0.089447 0.693426 0.013129
v 0.088062 0.689364 0.023654
v 0.079639 0.685301 0.030117
v 0.069113 0.683618 0.028731
v 0.062651 0.685301 0.020309
v 0.059132 0.699172 0.018277
v 0.076049 0.708980 0.016719
v 0.083107 0.706108 0.024111
v 0.083158 0.699172 0.032149
v 0.076171 0.692237 0.036124
v 0.066241 0.689364 0.033707
v 0.059183 0.692237 0.026315
vt 0.278766 0.716917
vt 0.063052 0.716637
vt 0.152531 1.008882
vt 0.414382 1.008781
vt 0.139230 1.547794
vt 0.400916 1.547574
vt 0.590115 0.718951
vt 0.680195 1.009519
vt 0.681792 1.546273
vt 0.823609 0.726184
vt 0.814213 1.011852
vt 0.802136 1.549919
vt 0.823599 0.722128
vt 0.679654 1.011272
vt 0.704799 1.547472
vt 0.598986 0.717210
vt 0.408906 1.006737
vt 0.420871 1.543056
vt 0.287638 0.715177
vt 0.156437 1.001365
vt 0.157790 1.532766
vt 0.071939 0.717218
vt 0.049109 1.015257
vt 0.032996 1.545347
vt 0.260838 -0.669390
vt 0.080382 -0.669390
vt 0.060395 0.487696
vt 0.272721 0.491384
vt 0.554735 -0.669390
vt 0.587609 0.496316
vt 0.789913 -0.669390
vt 0.820602 0.499602
vt 0.828604 -0.669390
vt 0.845953 0.499947
vt 0.648147 -0.669390
vt 0.598039 0.493940
vt 0.354251 -0.669390
vt 0.283152 0.489009
vt 0.119074 -0.669390
vt 0.085746 0.488041
vt 0.624671 0.705953
vt 0.313323 0.703918
vt 0.168832 0.987235
vt 0.421300 0.992608
vt 0.159438 1.516138
vt 0.422520 1.526427
vt 0.849282 0.710869
vt 0.692048 0.997145
vt 0.706445 1.530844
vt 0.849292 0.714926
vt 0.826607 0.997723
vt 0.803786 1.533290
vt 0.615798 0.707693
vt 0.692590 0.995390
vt 0.683439 1.529645
vt 0.304451 0.705659
vt 0.426776 0.994653
vt 0.402565 1.530946
vt 0.088735 0.705378
vt 0.164924 0.994752
vt 0.140879 1.531167
vt 0.097623 0.705959
vt 0.061504 1.001128
vt 0.034644 1.528720
vt 0.680099 -0.669389
vt 0.386202 -0.669389
vt 0.313291 0.483483
vt 0.628180 0.488415
vt 0.860556 -0.669389
vt 0.876094 0.494421
vt 0.821863 -0.669389
vt 0.850742 0.494077
vt 0.586687 -0.669389
vt 0.617750 0.490790
vt 0.292790 -0.669389
vt 0.302863 0.485859
vt 0.112333 -0.669389
vt 0.090535 0.482170
vt 0.151025 -0.669389
vt 0.115887 0.482515
vn -0.866024 0.000000 0.499985
vn -0.362346 -0.499985 0.786554
vn -0.455061 -0.672018 0.584155
vn -0.612354 -0.707083 0.353526
vn -0.862362 0.499985 -0.079440
vn -0.733421 0.672018 0.102023
vn -0.612354 0.707083 0.353526
vn -0.353526 0.707083 -0.612354
vn -0.191321 0.923856 -0.331400
vn 0.000000 1.000000 0.000000
vn 0.362346 0.499985 -0.786554
vn 0.455061 0.672018 -0.584155
vn 0.612354 0.707083 -0.353526
vn 0.866024 0.000000 -0.499985
vn 0.862362 -0.499985 0.079440
vn 0.733451 -0.672018 -0.102023
vn 0.612354 -0.707083 -0.353526
vn 0.353526 -0.707083 0.612354
vn 0.191321 -0.923856 0.331400
vn 0.000000 -1.000000 0.000000
vn -0.258797 0.000000 0.965911
vn -0.258217 -0.278359 0.925077
vn -0.965911 0.000000 -0.258797
vn -0.930265 0.278359 -0.238899
vn -0.499985 0.000000 -0.866024
vn -0.461928 0.382672 -0.800073
vn 0.258797 0.000000 -0.965911
vn 0.258217 0.278359 -0.925077
vn 0.965911 0.000000 0.258797
vn 0.930265 -0.278359 0.238899
vn 0.499985 0.000000 0.866024
vn 0.461928 -0.382672 0.800073
vn -0.866024 0.000000 -0.499985
vn -0.862362 -0.499985 0.079440
vn -0.733451 -0.672018 -0.102023
vn -0.612354 -0.707083 -0.353526
vn -0.362346 0.499985 -0.786554
vn -0.455061 0.672018 -0.584155
vn -0.612354 0.707083 -0.353526
vn 0.353526 0.707083 -0.612354
vn 0.191321 0.923856 -0.331400
vn 0.862362 0.499985 -0.079440
vn 0.733451 0.672018 0.102023
vn 0.612354 0.707083 0.353526
vn 0.866024 0.000000 0.499985
vn 0.362346 -0.499985 0.786554
vn 0.455061 -0.672018 0.584155
vn 0.612354 -0.707083 0.353526
vn -0.353526 -0.707083 0.612354
vn -0.191321 -0.923856 0.331400
vn -0.965911 0.000000 0.258797
vn -0.930265 -0.278359 0.238899
vn -0.258797 0.000000 -0.965911
vn -0.258217 0.278359 -0.925077
vn 0.499985 0.000000 -0.866024
vn 0.461928 0.382672 -0.800073
vn 0.965911 0.000000 -0.258797
vn 0.930265 0.278359 -0.238899
vn 0.258797 0.000000 0.965911
vn 0.258217 -0.278359 0.925077
vn -0.499985 0.000000 0.866024
vn -0.461928 -0.382672 0.800073
s 1
f 34/1/1 40/2/2 9/3/3 2/4/1
f 2/4/1 9/3/3 17/5/4 10/6/1
f 1/7/5 34/1/1 2/4/1 3/8/6
f 3/8/6 2/4/1 10/6/1 11/9/7
f 35/10/8 1/7/5 3/8/6 4/11/9
f 4/11/9 3/8/6 11/9/7 12/12/10
f 36/13/11 35/10/8 4/11/9 5/14/12
f 5/14/12 4/11/9 12/12/10 13/15/13
f 37/16/14 36/13/11 5/14/12 6/17/14
f 6/17/14 5/14/12 13/15/13 14/18/14
f 38/19/15 37/16/14 6/17/14 7/20/16
f 7/20/16 6/17/14 14/18/14 15/21/17
f 39/22/18 38/19/15 7/20/16 8/23/19
f 8/23/19 7/20/16 15/21/17 16/24/20
f 40/2/2 39/22/18 8/23/19 9/3/3
f 9/3/3 8/23/19 16/24/20 17/5/4
f 18/25/1 25/26/21 33/27/22 26/28/1
f 26/28/1 33/27/22 40/2/2 34/1/1
f 19/29/23 18/25/1 26/28/1 27/30/24
f 34/1/1 1/7/5 27/30/24 26/28/1
f 20/31/25 19/29/23 27/30/24 28/32/26
f 1/7/5 35/10/8 28/32/26 27/30/24
f 21/33/27 20/31/25 28/32/26 29/34/28
f 29/34/28 28/32/26 35/10/8 36/13/11
f 22/35/14 21/33/27 29/34/28 30/36/14
f 30/36/14 29/34/28 36/13/11 37/16/14
f 23/37/29 22/35/14 30/36/14 31/38/30
f 31/38/30 30/36/14 37/16/14 38/19/15
f 24/39/31 23/37/29 31/38/30 32/40/32
f 32/40/32 31/38/30 38/19/15 39/22/18
f 25/26/21 24/39/31 32/40/32 33/27/22
f 33/27/22 32/40/32 39/22/18 40/2/2
f 74/41/33 80/42/34 49/43/35 42/44/33
f 42/44/33 49/43/35 57/45/36 50/46/33
f 41/47/37 74/41/33 42/44/33 43/48/38
f 43/48/38 42/44/33 50/46/33 51/49/39
f 75/50/40 41/47/37 43/48/38 44/51/41
f 44/51/41 43/48/38 51/49/39 52/52/10
f 76/53/42 75/50/40 44/51/41 45/54/43
f 45/54/43 44/51/41 52/52/10 53/55/44
f 77/56/45 76/53/42 45/54/43 46/57/45
f 46/57/45 45/54/43 53/55/44 54/58/45
f 78/59/46 77/56/45 46/57/45 47/60/47
f 47/60/47 46/57/45 54/58/45 55/61/48
f 79/62/49 78/59/46 47/60/47 48/63/50
f 48/63/50 47/60/47 55/61/48 56/64/20
f 80/42/34 79/62/49 48/63/50 49/43/35
f 49/43/35 48/63/50 56/64/20 57/45/36
f 58/65/33 65/66/51 73/67/52 66/68/33
f 66/68/33 73/67/52 80/42/34 74/41/33
f 59/69/53 58/65/33 66/68/33 67/70/54
f 74/41/33 41/47/37 67/70/54 66/68/33
f 60/71/55 59/69/53 67/70/54 68/72/56
f 41/47/37 75/50/40 68/72/56 67/70/54
f 61/73/57 60/71/55 68/72/56 69/74/58
f 69/74/58 68/72/56 75/50/40 76/53/42
f 62/75/45 61/73/57 69/74/58 70/76/45
f 70/76/45 69/74/58 76/53/42 77/56/45
f 63/77/59 62/75/45 70/76/45 71/78/60
f 71/78/60 70/76/45 77/56/45 78/59/46
f 64/79/61 63/77/59 71/78/60 72/80/62
f 72/80/62 71/78/60 78/59/46 79/62/49
f 65/66/51 64/79/61 72/80/62 73/67/52
f 73/67/52 72/80/62 79/62/49 80/42/34
