o body2
v -29.937817 -7.524398 157.487442
v -24.506908 0.286236 157.488068
v -24.506908 0.286236 157.488068
v -29.870934 7.558315 157.487442
v 6.804545 0.286236 157.488068
v -6.816092 0.286236 157.488068
v 19.728662 -14.611750 157.487442
v 29.940023 7.460035 157.487442
v 24.495361 0.286236 157.488083
v 24.495361 0.286236 157.488083
v 29.873127 -7.622697 157.487442
v 29.873127 -7.622697 157.487442
v -20.084204 -7.374112 157.488068
v -29.937817 -7.524398 157.487442
v 20.072657 7.946581 157.488083
v 19.987457 14.593028 157.487442
v 19.987457 14.593028 157.487442
v -20.084204 7.946581 157.488068
v -19.726456 14.625674 157.487442
v 19.728668 -14.611753 88.189018
v 29.873133 -7.622700 88.189018
v 29.906582 -0.081334 88.189018
v -29.904377 0.016956 88.189011
v -29.937811 -7.524401 88.189011
v 19.728668 -14.611753 88.189018
v -19.985254 -14.579104 88.189011
v -19.985254 -14.579104 88.189011
v -19.985260 -14.579103 122.992691
v -19.985260 -14.579103 122.992691
v -19.985260 -14.579102 157.487442
v -19.985260 -14.579102 157.487442
v -19.985260 -14.579102 157.487442
v 20.072657 -7.374112 157.488083
v 19.728662 -14.611750 157.487442
v 19.728662 -14.611750 157.487442
v 19.728662 -14.611752 122.992691
v 19.728662 -14.611752 122.992691
v 29.906582 -0.081334 88.189018
v 29.906574 -0.081331 157.487442
v 29.906576 -0.081332 122.992691
v -29.904375 0.016959 157.487442
v -29.904377 0.016956 88.189011
v -29.904383 0.016957 122.992691
v -19.985260 -14.579103 122.992691
v -20.084204 -7.374112 157.488068
v -20.084204 7.946581 157.488068
v 6.804545 0.286236 157.488068
v -19.726456 14.625674 157.487442
v -29.870934 7.558315 157.487442
v -24.506908 0.286236 157.488068
v -19.985260 -14.579102 157.487442
v 29.873133 -7.622700 88.189018
v 19.728668 -14.611753 88.189018
v -29.937811 -7.524401 88.189011
v 19.728662 -14.611752 122.992691
v -29.937817 -7.524398 157.487442
v 29.873127 -7.622699 122.992691
v 19.728662 -14.611750 157.487442
v -29.937817 -7.524400 122.992691
v -11.238795 -7.374112 157.488068
v 24.495361 0.286236 157.488083
v 11.227248 -7.374112 157.488083
v 11.227248 7.946581 157.488083
v 20.072657 -7.374112 157.488083
v -6.816092 0.286236 157.488068
v -19.985254 -14.579104 88.189011
v 29.940023 7.460035 157.487442
v 29.873127 -7.622697 157.487442
v 20.072657 7.946581 157.488083
v -11.238795 7.946581 157.488068
vt 0.592691 0.004879
vt 0.596797 0.108896
vt 0.117462 0.108896
vt 0.118643 0.005348
vt 0.596797 0.329081
vt 0.595780 0.424601
vt 0.121732 0.425070
vt 0.117462 0.329081
vt 0.000553 0.213038
vt 0.000953 0.104634
vt 0.715899 0.106047
vt 0.715499 0.214451
vt 0.000642 0.323500
vt -0.000156 0.106736
vt 0.064670 0.218988
vt 0.713781 0.105324
vt 0.714580 0.322088
vt 0.649590 0.218988
vt 0.596932 0.004639
vt 0.122214 0.004169
vt 0.175278 0.423748
vt 0.210647 0.537266
vt 0.319574 0.537266
vt 0.354943 0.423748
vt 0.354943 0.650783
vt 0.175278 0.650783
vt 0.357902 0.106601
vt 0.357902 0.214301
vt -0.000227 0.214301
vt -0.000227 0.106601
vt 0.714589 0.106601
vt 0.714589 0.214301
vt 0.357902 0.005717
vt -0.000227 0.005717
vt 0.712894 0.998198
vt 0.355879 0.998198
vt 0.355879 0.425613
vt 0.712894 0.425613
vt 0.714589 0.005717
vt 0.356583 0.998198
vt 0.001080 0.998198
vt 0.001080 0.425613
vt 0.356583 0.425613
vn 0.000000 -0.000061 1.000000
vn 0.000000 0.000092 1.000000
vn 0.000000 0.000000 -1.000000
vn -0.000092 0.000000 1.000000
vn 0.000092 0.000000 1.000000
vn -0.000061 0.000061 1.000000
vn 0.000061 0.000061 1.000000
vn -0.000061 -0.000061 1.000000
vn 0.000061 -0.000061 1.000000
vn 0.000000 0.000000 1.000000
vn 0.884213 -0.467055 0.000000
vn 0.999969 -0.004425 0.000000
vn -0.889340 -0.457198 0.000000
vn -0.999969 0.004425 0.000000
vn -0.578265 -0.815821 0.000000
vn -0.000793 -0.999969 0.000000
vn 0.567339 -0.823481 0.000000
s 1
f 35/1/1 33/2/1 13/3/1 32/4/1
f 15/5/2 17/6/2 19/7/2 18/8/2
f 22/9/3 52/10/3 24/11/3 23/12/3
f 4/13/4 1/14/4 3/15/4
f 11/16/5 8/17/5 10/18/5
f 66/19/3 24/11/3 52/10/3 53/20/3
f 50/15/6 46/8/6 48/7/6 49/13/6
f 9/18/7 67/17/7 16/6/7 69/5/7
f 2/15/8 56/14/8 30/4/8 45/3/8
f 61/18/9 64/2/9 58/1/9 68/16/9
f 62/21/10 5/22/10 6/23/10 60/24/10
f 70/25/10 65/23/10 47/22/10 63/26/10
f 57/27/11 40/28/12 39/29/12 12/30/11
f 21/31/11 38/32/12 40/28/12 57/27/11
f 59/27/13 43/28/14 42/32/14 54/31/13
f 14/30/13 41/29/14 43/28/14 59/27/13
f 14/30/13 59/27/13 29/33/15 31/34/15
f 36/35/16 34/36/16 51/37/16 44/38/16
f 57/27/11 12/30/11 7/34/17 55/33/17
f 59/27/13 54/31/13 27/39/15 29/33/15
f 25/40/16 37/41/16 28/42/16 26/43/16
f 21/31/11 57/27/11 55/33/17 20/39/17
