o body2_cv1
v -14.635339 -16.049677 -128.889465
v -14.781814 -15.965113 -128.889465
v -14.684166 -16.008091 -131.423843
v -14.204817 -16.050577 -131.497437
v 29.940023 7.460034 122.992691
v -29.870947 7.558314 122.992691
v 29.940029 7.460032 88.189018
v 19.987457 14.593026 122.992691
v 19.987457 14.593028 157.487442
v 19.987463 14.593025 88.189011
v -19.726450 14.625671 88.189011
v -29.870941 7.558312 88.189011
v -19.726456 14.625672 122.992691
v -29.904383 0.016957 122.992691
v -29.904377 0.016956 88.189011
v -29.904375 0.016959 157.487442
v 29.906576 -0.081332 122.992691
v 29.906574 -0.081331 157.487442
v 29.906582 -0.081334 88.189018
v -29.904377 0.016956 88.189011
v -29.870941 7.558312 88.189011
v -19.726450 14.625671 88.189011
v -19.726450 14.625671 88.189011
v 19.987463 14.593025 88.189011
v 19.987463 14.593025 88.189011
v 29.940029 7.460032 88.189018
v 29.906582 -0.081334 88.189018
v 19.987457 14.593026 122.992691
v 19.987457 14.593026 122.992691
v -19.726456 14.625672 122.992691
v -19.726456 14.625672 122.992691
v -19.726456 14.625674 157.487442
v 19.987457 14.593028 157.487442
v 29.940023 7.460035 157.487442
v -29.870934 7.558315 157.487442
v -19.726456 14.625674 157.487442
vt 0.000153 0.321443
vt 0.715100 0.322855
vt 0.593838 0.424446
vt 0.119121 0.423976
vt 0.000553 0.213038
vt 0.715499 0.214451
vt 0.714589 0.322002
vt 0.357902 0.322002
vt 0.357902 0.425613
vt 0.714589 0.425613
vt 0.357175 0.998198
vt 0.000488 0.998198
vt 0.000488 0.425613
vt 0.357175 0.425613
vt -0.000227 0.322002
vt -0.000227 0.425613
vt 0.355949 0.998198
vt 0.000769 0.998198
vt 0.000769 0.425613
vt 0.355949 0.425613
vt -0.000227 0.214301
vt 0.357902 0.214301
vt 0.714589 0.214301
vn 0.000000 0.000000 -1.000000
vn -0.885403 0.464766 0.000000
vn -0.571612 0.820490 0.000000
vn 0.000793 0.999969 0.000000
vn 0.582507 0.812799 0.000000
vn 0.890530 0.454878 0.000000
vn -0.999969 0.004425 0.000000
vn 0.999969 -0.004425 0.000000
s 1
f 26/1/1 12/2/1 11/3/1 10/4/1
f 26/1/1 27/5/1 20/6/1 12/2/1
f 21/7/2 6/8/2 31/9/3 23/10/3
f 22/11/4 13/12/4 8/13/4 25/14/4
f 24/10/5 28/9/5 5/8/6 7/7/6
f 6/8/2 35/15/2 36/16/3 31/9/3
f 30/17/4 32/18/4 9/19/4 29/20/4
f 28/9/5 33/16/5 34/15/6 5/8/6
f 16/21/7 35/15/2 6/8/2 14/22/7
f 14/22/7 6/8/2 21/7/2 15/23/7
f 19/23/8 7/7/6 5/8/6 17/22/8
f 17/22/8 5/8/6 34/15/6 18/21/8
