o top
v 19.987457 14.593026 122.992691
v 19.987457 14.593028 157.487442
v -19.726456 14.625672 122.992691
v -19.726450 14.625671 88.189011
v 19.987463 14.593025 88.189011
v 19.987457 14.593026 122.992691
v -19.726456 14.625672 122.992691
v -19.726456 14.625674 157.487442
v 19.987482 14.593017 -95.003395
v -19.726437 14.625663 -95.003403
v 19.987482 14.593017 -95.003395
v 19.987482 14.593016 -129.697952
v -19.726442 14.625665 -60.399517
v 19.987476 14.593019 -60.399513
v -19.726435 14.625662 -129.697952
v -19.726437 14.625663 -95.003403
vt 0.000488 0.425613
vt 0.357175 0.425613
vt 0.357175 0.998198
vt 0.000488 0.998198
vt 0.355949 0.998198
vt 0.000769 0.998198
vt 0.000769 0.425613
vt 0.355949 0.425613
vt 0.356222 0.425613
vt 0.714589 0.425613
vt 0.714589 0.998198
vt 0.356222 0.998198
vt 0.713325 0.425613
vt 0.356095 0.425613
vt 0.356095 0.998198
vt 0.713325 0.998198
vn 0.000793 0.999969 0.000000
s 1
f 1/1/1 5/2/1 4/3/1 3/4/1
f 7/5/1 8/6/1 2/7/1 6/8/1
f 9/9/1 12/10/1 15/11/1 10/12/1
f 16/13/1 13/14/1 14/15/1 11/16/1
