o light
v -1.843160 1.993549 -13.277810
v -1.870860 1.993549 -13.383631
v -1.903710 2.133969 -13.277810
v -1.923290 2.115149 -13.383631
v -1.976800 2.063759 -13.461100
v -1.946520 1.993549 -13.461100
v -2.049880 1.993549 -13.489450
v -2.049880 2.092839 -13.461100
v -2.049880 2.165519 -13.383631
v -2.049880 2.192129 -13.277810
v -2.196060 2.133969 -13.277810
v -2.176480 2.115149 -13.383631
v -2.122970 2.063759 -13.461100
v -2.153250 1.993549 -13.461100
v -2.228910 1.993549 -13.383631
v -2.256610 1.993549 -13.277810
v -2.196060 1.853129 -13.277810
v -2.176480 1.871939 -13.383631
v -2.122970 1.923339 -13.461100
v -2.049880 1.894249 -13.461100
v -2.049880 1.821569 -13.383631
v -2.049880 1.794959 -13.277810
v -1.903710 1.853129 -13.277810
v -1.923290 1.871939 -13.383631
v -1.976800 1.923339 -13.461100
v 2.319860 1.993549 -13.277810
v 2.292170 1.993549 -13.383631
v 2.259320 2.133959 -13.277810
v 2.239730 2.115149 -13.383631
v 2.186230 2.063750 -13.461100
v 2.216500 1.993549 -13.461100
v 2.113140 1.993549 -13.489450
v 2.113140 2.092839 -13.461100
v 2.113140 2.165519 -13.383631
v 2.113140 2.192129 -13.277810
v 1.966960 2.133959 -13.277810
v 1.986550 2.115149 -13.383631
v 2.040050 2.063750 -13.461100
v 2.009780 1.993549 -13.461100
v 1.934110 1.993549 -13.383631
v 1.906420 1.993549 -13.277810
v 1.966960 1.853129 -13.277810
v 1.986550 1.871939 -13.383631
v 2.040050 1.923339 -13.461100
v 2.113140 1.894249 -13.461100
v 2.113140 1.821569 -13.383631
v 2.113140 1.794959 -13.277810
v 2.259320 1.853129 -13.277810
v 2.239730 1.871939 -13.383631
v 2.186230 1.923339 -13.461100
vt 0.056641 0.994141
vt 0.054688 0.984375
vt 0.060547 0.976563
vt 0.070313 0.982422
vt 0.054688 0.974609
vt 0.050781 0.978516
vt 0.042969 0.976563
vt 0.048828 0.972656
vt 0.046875 0.978516
vt 0.044922 0.984375
vt 0.039063 0.994141
vt 0.027344 0.982422
vt 0.037109 0.978516
vt 0.046875 0.966797
vt 0.042969 0.970703
vt 0.037109 0.968750
vt 0.027344 0.964844
vt 0.039063 0.953125
vt 0.042969 0.960938
vt 0.054688 0.970703
vt 0.050781 0.966797
vt 0.052734 0.960938
vt 0.056641 0.951172
vt 0.070313 0.962891
vt 0.060547 0.966797
vt 0.060547 0.968750
vt 0.070313 0.964844
vt 0.060547 0.978516
vt 0.054688 0.972656
vt 0.054688 0.976563
vt 0.052734 0.986328
vt 0.050781 0.980469
vt 0.058594 0.996094
vt 0.039063 0.996094
vt 0.042969 0.986328
vt 0.046875 0.980469
vt 0.048828 0.974609
vt 0.044922 0.960938
vt 0.046875 0.968750
vt 0.041016 0.951172
vt 0.058594 0.951172
vt 0.054688 0.962891
vt 0.050781 0.968750
vn 0.678091 -0.691671 -0.248451
vn 0.614429 -0.632435 -0.471664
vn 0.879360 0.000000 -0.476119
vn 0.967406 0.000000 -0.253121
vn 0.549333 0.000000 -0.835566
vn 0.383770 -0.400281 -0.832118
vn -0.383770 -0.400281 -0.832118
vn 0.000000 0.000000 -1.000000
vn 0.000000 -0.559435 -0.828852
vn 0.000000 -0.884060 -0.467330
vn 0.000000 -0.969787 -0.243843
vn -0.678091 -0.691671 -0.248482
vn -0.614429 -0.632435 -0.471664
vn -0.383770 0.400311 -0.832118
vn -0.549333 0.000000 -0.835566
vn -0.879360 0.000000 -0.476119
vn -0.967406 0.000000 -0.253121
vn -0.678060 0.691702 -0.248451
vn -0.614399 0.632466 -0.471633
vn 0.383770 0.400311 -0.832118
vn 0.000000 0.559435 -0.828852
vn 0.000000 0.884060 -0.467330
vn 0.000000 0.969787 -0.243843
vn 0.678060 0.691702 -0.248482
vn 0.614399 0.632466 -0.471633
vn 0.879360 0.000000 -0.476089
vn 0.967376 0.000000 -0.253212
vn 0.678121 -0.691671 -0.248421
vn 0.614429 -0.632435 -0.471633
vn 0.549303 0.000000 -0.835597
vn 0.383740 -0.400311 -0.832148
vn -0.678121 -0.691671 -0.248421
vn -0.614429 -0.632466 -0.471633
vn -0.383709 -0.400311 -0.832148
vn -0.879360 0.000000 -0.476089
vn -0.549303 0.000000 -0.835597
vn -0.967376 0.000000 -0.253212
vn -0.678060 0.691702 -0.248482
vn -0.614429 0.632466 -0.471633
vn -0.383709 0.400311 -0.832148
vn 0.000000 0.884091 -0.467299
vn 0.678091 0.691671 -0.248482
vn 0.614429 0.632466 -0.471633
vn 0.383740 0.400311 -0.832118
s 1
f 48/1/1 49/2/2 27/3/3
f 48/1/1 27/3/3 26/4/4
f 31/5/5 27/3/3 49/2/2
f 31/5/5 49/2/2 50/6/6
f 44/7/7 32/8/8 45/9/9
f 32/8/8 50/6/6 45/9/9
f 46/10/10 45/9/9 50/6/6
f 46/10/10 50/6/6 49/2/2
f 47/11/11 46/10/10 49/2/2
f 47/11/11 49/2/2 48/1/1
f 42/12/12 43/13/13 47/11/11
f 43/13/13 46/10/10 47/11/11
f 43/13/13 44/7/7 46/10/10
f 44/7/7 45/9/9 46/10/10
f 38/14/14 32/8/8 39/15/15
f 32/8/8 44/7/7 39/15/15
f 40/16/16 39/15/15 43/13/13
f 39/15/15 44/7/7 43/13/13
f 41/17/17 40/16/16 42/12/12
f 40/16/16 43/13/13 42/12/12
f 36/18/18 37/19/19 40/16/16
f 36/18/18 40/16/16 41/17/17
f 37/19/19 38/14/14 39/15/15
f 37/19/19 39/15/15 40/16/16
f 30/20/20 32/8/8 33/21/21
f 32/8/8 38/14/14 33/21/21
f 34/22/22 33/21/21 38/14/14
f 34/22/22 38/14/14 37/19/19
f 35/23/23 34/22/22 37/19/19
f 35/23/23 37/19/19 36/18/18
f 28/24/24 29/25/25 35/23/23
f 29/25/25 34/22/22 35/23/23
f 33/21/21 34/22/22 30/20/20
f 34/22/22 29/25/25 30/20/20
f 30/20/20 31/5/5 32/8/8
f 31/5/5 50/6/6 32/8/8
f 30/20/20 29/25/25 31/5/5
f 29/25/25 27/3/3 31/5/5
f 26/4/4 27/3/3 28/24/24
f 27/3/3 29/25/25 28/24/24
f 2/26/26 1/27/27 23/4/28
f 2/26/26 23/4/28 24/28/29
f 6/29/30 2/26/26 24/28/29
f 6/29/30 24/28/29 25/30/31
f 21/31/10 20/32/9 25/30/31
f 21/31/10 25/30/31 24/28/29
f 22/33/11 21/31/10 24/28/29
f 22/33/11 24/28/29 23/4/28
f 17/34/32 18/35/33 22/33/11
f 18/35/33 21/31/10 22/33/11
f 18/35/33 19/36/34 21/31/10
f 19/36/34 20/32/9 21/31/10
f 19/36/34 7/37/8 20/32/9
f 7/37/8 25/30/31 20/32/9
f 15/13/35 14/7/36 18/35/33
f 14/7/36 19/36/34 18/35/33
f 16/12/37 15/13/35 17/34/32
f 15/13/35 18/35/33 17/34/32
f 11/17/38 12/16/39 15/13/35
f 11/17/38 15/13/35 16/12/37
f 12/16/39 13/15/40 14/7/36
f 12/16/39 14/7/36 15/13/35
f 13/15/40 7/37/8 14/7/36
f 7/37/8 19/36/34 14/7/36
f 9/38/41 8/39/21 13/15/40
f 9/38/41 13/15/40 12/16/39
f 10/40/23 9/38/41 12/16/39
f 10/40/23 12/16/39 11/17/38
f 3/41/42 4/42/43 10/40/23
f 4/42/43 9/38/41 10/40/23
f 8/39/21 9/38/41 5/43/44
f 9/38/41 4/42/43 5/43/44
f 5/43/44 7/37/8 8/39/21
f 7/37/8 13/15/40 8/39/21
f 5/43/44 6/29/30 7/37/8
f 6/29/30 25/30/31 7/37/8
f 5/43/44 4/42/43 6/29/30
f 4/42/43 2/26/26 6/29/30
f 1/27/27 2/26/26 3/41/42
f 2/26/26 4/42/43 3/41/42
