# OBJ written from C:\Users\rivalin\Desktop\high_development_hab_3.obj

o Mesh
v -14.5 7 -22.8284
v -10.3284 7 -27
v 10.3284 7 -27
v 14.5 7 -22.8284
v 14.5 7 22.8284
v 10.3284 7 27
v -14.5 7 22.8284
v -10.3284 7 27
v 26 7 -10.347
v 21.8284 7 -14.5185
v 21.8284 7 14.5185
v 26 7 10.347
v -14.5 7 -9.51855
v -14.5 7 9.51855
v 14.5 7 -14.5185
v 14.5 7 14.5185
v -16.5 3 -23.6569
v -11.1569 3 -29
v 11.1569 3 -29
v 16.5 3 -23.6569
v 16.5 3 23.6569
v 11.1569 3 29
v -16.5 3 23.6569
v -11.1569 3 29
v 28 3 -11.1754
v 22.6569 3 -16.5185
v 22.6569 3 16.5185
v 28 3 11.1754
v -16.5 3 -9.51855
v -16.5 3 9.51855
v 16.5 3 -16.5185
v 16.5 3 16.5185
v -18.5 3 -24.4853
v -11.9853 3 -31
v 11.9853 3 -31
v 18.5 3 -24.4853
v 18.5 3 24.4853
v 11.9853 3 31
v -18.5 3 24.4853
v -11.9853 3 31
v 30 3 -12.0038
v 23.4853 3 -18.5185
v 23.4853 3 18.5185
v 30 3 12.0038
v -18.5 3 -9.51855
v -18.5 3 9.51855
v 18.5 3 -18.5185
v 18.5 3 18.5185
v -18.5 -27 -24.4853
v -11.9853 -27 -31
v 11.9853 -27 -31
v 18.5 -27 -24.4853
v 18.5 -27 24.4853
v 11.9853 -27 31
v -18.5 -27 24.4853
v -11.9853 -27 31
v 30 -27 -12.0038
v 23.4853 -27 -18.5185
v 23.4853 -27 18.5185
v 30 -27 12.0038
v -18.5 -27 -9.51855
v -18.5 -27 9.51855
v 18.5 -27 -18.5185
v 18.5 -27 18.5185
v -12.5 16 -22
v -9.5 16 -25
v 9.5 16 -25
v 12.5 16 -22
v 12.5 16 22
v 9.5 16 25
v -9.5 16 25
v -12.5 16 22
v -9.5 19 -19
v -6.5 19 -22
v 6.5 19 -22
v 9.5 19 -19
v 9.5 19 19
v 6.5 19 22
v -6.5 19 22
v -9.5 19 19
v -12.5 11 -22
v -9.5 11 -25
v 9.5 11 -25
v 12.5 11 -22
v 12.5 11 22
v 9.5 11 25
v -12.5 11 22
v -9.5 11 25
v -12.5 14 -22
v -9.5 14 -25
v 9.5 14 -25
v 12.5 14 -22
v 12.5 14 22
v 9.5 14 25
v -9.5 14 25
v -12.5 14 22
v -12.5 16 -9.51855
v -9.5 19 -9.51855
v -12.5 16 9.51855
v -9.5 19 9.51855
v -12.5 14 -9.51855
v -12.5 14 9.51855
v -12.5 11 -9.51855
v -12.5 11 9.51855
v 24 16 -9.51855
v 21 16 -12.5185
v 24 16 9.51855
v 21 16 12.5185
v 18 19 -9.51855
v 21 19 -6.51855
v 21 19 6.51855
v 18 19 9.51855
v 24 11 9.51855
v 21 11 12.5185
v 24 14 9.51855
v 21 14 12.5185
v 21 11 -12.5185
v 24 11 -9.51855
v 21 14 -12.5185
v 24 14 -9.51855
v 12.5 16 -12.5185
v 12.5 14 -12.5185
v 12.5 11 -12.5185
v 9.5 19 -9.51855
v 9.5 19 9.51855
v 12.5 16 12.5185
v 12.5 14 12.5185
v 12.5 11 12.5185
v -12.5 7 -22
v -9.5 7 -25
v 9.5 7 -25
v 12.5 7 -22
v 12.5 7 -12.5185
v 24 7 -9.51855
v 21 7 -12.5185
v 12.5 7 12.5185
v 21 7 12.5185
v 24 7 9.51855
v -12.5 7 22
v -9.5 7 25
v 12.5 7 22
v 9.5 7 25
v -12.5 7 -9.51855
v -12.5 7 9.51855
v -12.5 14 -15.5833
v -12.5 14 15.5833
v 12.5 14 -15.5833
v 12.5 14 15.5833
v 12.5 11 -15.5833
v 12.5 11 15.5833
v -12.5 11 -15.5833
v -12.5 11 15.5833
v -12 11 -21.7929
v -9.29291 11 -24.5
v 9.29291 11 -24.5
v 12 11 -21.7929
v 12 11 21.7929
v 9.29291 11 24.5
v -12 11 21.7929
v -9.29291 11 24.5
v -12 14 -21.7929
v -9.29291 14 -24.5
v 9.29291 14 -24.5
v 12 14 -21.7929
v 12 14 21.7929
v 9.29291 14 24.5
v -9.29291 14 24.5
v -12 14 21.7929
v -12 14 -15.5833
v -12 14 15.5833
v 12 14 -15.5833
v 12 14 15.5833
v 12 11 -15.5833
v 12 11 15.5833
v -12 11 -15.5833
v -12 11 15.5833
v -12.5 14 -9.51855
v -12.5 14 9.51855
v 12.5 14 -9.51855
v 12.5 14 9.51855
v 12.5 11 -9.51855
v 12.5 11 9.51855
v -12.5 11 -9.51855
v -12.5 11 9.51855
v -12 14 -9.51855
v -12 14 9.51855
v -12 11 -9.51855
v -12 11 9.51855
v -12.5 11 -22
v -9.5 11 -25
v 9.5 11 -25
v 12.5 11 -22
v 12.5 11 22
v 9.5 11 25
v -12.5 11 22
v -9.5 11 25
v -12.5 14 -22
v -9.5 14 -25
v 9.5 14 -25
v 12.5 14 -22
v 12.5 14 22
v 9.5 14 25
v -9.5 14 25
v -12.5 14 22
v -12.5 14 -15.5833
v -12.5 14 15.5833
v 12.5 14 -15.5833
v 12.5 14 15.5833
v 12.5 11 -15.5833
v 12.5 11 15.5833
v -12.5 11 -15.5833
v -12.5 11 15.5833
v -12 11 -21.7929
v -9.29291 11 -24.5
v 9.29291 11 -24.5
v 12 11 -21.7929
v 12 11 21.7929
v 9.29291 11 24.5
v -12 11 21.7929
v -9.29291 11 24.5
v -12 14 -21.7929
v -9.29291 14 -24.5
v 9.29291 14 -24.5
v 12 14 -21.7929
v 12 14 21.7929
v 9.29291 14 24.5
v -9.29291 14 24.5
v -12 14 21.7929
v -12 14 -15.5833
v -12 14 15.5833
v 12 14 -15.5833
v 12 14 15.5833
v 12 11 -15.5833
v 12 11 15.5833
v -12 11 -15.5833
v -12 11 15.5833
v -12.5 14 -9.51855
v -12.5 14 9.51855
v -12.5 11 -9.51855
v -12.5 11 9.51855
v -12 14 -9.51855
v -12 14 9.51855
v -12 11 -9.51855
v -12 11 9.51855
vn 0 1 0
vn -0.707107 -0 -0.707107
vn 0 0 -1
vn 0.707107 0 -0.707107
vn 1 0 0
vn 0.707107 0 -0.707107
vn 0.707107 0 0.707107
vn 0 0 1
vn 0.707107 0 0.707107
vn -0.707107 0 0.707107
vn -1 -0 -0
vn 0.632452 0.447223 -0.632452
vn 0.894427 0.447214 0
vn 0 0.447213 -0.894427
vn 0.632457 0.44721 -0.632457
vn 0.894427 0.447214 0
vn 0.632452 0.447223 0.632452
vn 0 0.447213 0.894427
vn 0.632452 0.447223 0.632452
vn 0 0.447214 0.894427
vn -0.632452 0.447223 0.632452
vn -0.894427 0.447214 0
vn -0.632452 0.447223 -0.632452
vn 0 0.447214 -0.894427
vn 0.408248 0.816497 0.408248
vn -0.408248 0.816497 0.408248
vn -0.408248 0.816497 -0.408248
vn 0.408248 0.816497 -0.408248
vn 0 0.707107 -0.707107
vn 0 0.707107 0.707107
vn -0.707107 0.707107 0
vn 0.408245 0.816497 0.408252
vn 0.707107 0.707107 0
vn 0.707101 0 0.707113
vn 0.707101 0 -0.707113
vn 0 0.707101 0.707113
vn 0 0.707101 -0.707113
vn 0.707101 0 0.707113
vn 0.707101 0 -0.707113
vn 0 -1 0
vn -0.707108 0 0.707106
vn 0.707108 0 0.707106
vn 0.707108 0 -0.707106
vn -0.707108 0 -0.707106
vt 0.343059 0.232943
vt 0.450817 0.232943
vt 0.450817 0.259957
vt 0.343059 0.259957
vt 0.193188 0.259957
vt 0.193188 0.232943
vt 0.0743091 0.232943
vt 0.0743091 0.259957
vt 0.00200179 0.232943
vt 0.00200179 0.259957
vt 0.450082 0.711143
vt 0.650291 0.711143
vt 0.650291 0.738157
vt 0.450082 0.738157
vt 0.374556 0.738157
vt 0.374556 0.711143
vt 0.3288 0.738157
vt 0.3288 0.711143
vt 0.285342 0.738157
vt 0.285342 0.711143
vt 0.198419 0.711143
vt 0.198419 0.738157
vt 0.0022166 0.711143
vt 0.0022166 0.738157
vt 0.959017 0.232943
vt 0.959017 0.259957
vt 0.882745 0.259957
vt 0.882745 0.232943
vt 0.839969 0.259957
vt 0.839969 0.232943
vt 0.790158 0.259957
vt 0.790158 0.232943
vt 0.713151 0.232943
vt 0.713151 0.259957
vt 0.524248 0.232943
vt 0.524248 0.259957
vt 0.00200179 0.002
vt 0.0743091 0.002
vt 0.450082 0.4802
vt 0.650291 0.4802
vt 0.374556 0.4802
vt 0.3288 0.4802
vt 0.285342 0.4802
vt 0.198419 0.4802
vt 0.0022166 0.4802
vt 0.882745 0.002
vt 0.959017 0.002
vt 0.839969 0.002
vt 0.790158 0.002
vt 0.713151 0.002
vt 0.524248 0.002
vt 0.450817 0.002
vt 0.343059 0.002
vt 0.193188 0.002
vt 0.450082 0.787928
vt 0.374556 0.787928
vt 0.3288 0.787928
vt 0.285342 0.787928
vt 0.198419 0.787928
vt 0.0022166 0.787928
vt 0.959017 0.309728
vt 0.882745 0.309728
vt 0.839969 0.309728
vt 0.790158 0.309728
vt 0.713151 0.309728
vt 0.524248 0.309728
vt 0.450817 0.309728
vt 0.343059 0.309728
vt 0.193188 0.309728
vt 0.0743091 0.309728
vt 0.00200179 0.309728
vt 0.650291 0.787928
vt 0.790158 0.422028
vt 0.790158 0.477081
vt 0.713151 0.477081
vt 0.713151 0.422028
vt 0.450817 0.477081
vt 0.450817 0.422028
vt 0.524248 0.422028
vt 0.524248 0.477081
vt 0.0743091 0.422028
vt 0.0743091 0.477081
vt 0.00200179 0.477081
vt 0.00200179 0.422028
vt 0.374556 0.955281
vt 0.374556 0.900228
vt 0.450082 0.900228
vt 0.450082 0.955281
vt 0.650291 0.900228
vt 0.650291 0.955281
vt 0.00200179 0.392684
vt 0.0743091 0.392684
vt 0.450082 0.870884
vt 0.650291 0.870884
vt 0.374556 0.870884
vt 0.713151 0.392684
vt 0.790158 0.392684
vt 0.524248 0.392684
vt 0.450817 0.392684
vt 0.193188 0.422028
vt 0.343059 0.422028
vt 0.343059 0.477081
vt 0.193188 0.477081
vt 0.193188 0.392684
vt 0.343059 0.392684
vt 0.959017 0.422028
vt 0.959017 0.477081
vt 0.882745 0.477081
vt 0.882745 0.422028
vt 0.198419 0.955281
vt 0.198419 0.900228
vt 0.285342 0.900228
vt 0.285342 0.955281
vt 0.0022166 0.955281
vt 0.0022166 0.900228
vt 0.959017 0.392684
vt 0.882745 0.392684
vt 0.285342 0.870884
vt 0.198419 0.870884
vt 0.0022166 0.870884
vt 0.960737 0.623378
vt 0.960606 0.810182
vt 0.774166 0.810052
vt 0.774296 0.623247
vt 0.839969 0.477081
vt 0.839969 0.422028
vt 0.3288 0.900228
vt 0.3288 0.955281
vt 0.839969 0.392684
vt 0.3288 0.870884
vt 0.769326 0.764192
vt 0.769196 0.950997
vt 0.685788 0.950939
vt 0.656371 0.92148
vt 0.65646 0.793552
vt 0.685918 0.764134
vt 0.524248 0.343124
vt 0.450817 0.343124
vt 0.0743091 0.343124
vt 0.00200179 0.343124
vt 0.650291 0.821324
vt 0.450082 0.821324
vt 0.374556 0.821324
vt 0.3288 0.821324
vt 0.285342 0.821324
vt 0.198419 0.821324
vt 0.0022166 0.821324
vt 0.959017 0.343124
vt 0.882745 0.343124
vt 0.839969 0.343124
vt 0.790158 0.343124
vt 0.713151 0.343124
vt 0.713151 0.390038
vt 0.524248 0.390038
vt 0.790158 0.390038
vt 0.450082 0.868238
vt 0.374556 0.868238
vt 0.650291 0.868238
vt 0.0743091 0.390038
vt 0.00200179 0.390038
vt 0.450817 0.390038
vt 0.959017 0.390038
vt 0.882745 0.390038
vt 0.285342 0.868238
vt 0.198419 0.868238
vt 0.0022166 0.868238
vt 0.839969 0.390038
vt 0.3288 0.868238
vt 0.774361 0.530209
vt 0.80382 0.500792
vt 0.931384 0.500881
vt 0.960802 0.530339
vt 0.960541 0.90322
vt 0.931083 0.932637
vt 0.803518 0.932548
vt 0.774101 0.90309
vt 0.343059 0.343124
vt 0.193188 0.343124
vt 0.343059 0.390038
vt 0.193188 0.390038
vt 0.965132 0.939329
vt 0.995527 0.939277
vt 0.995527 0.943961
vt 0.965132 0.944015
vt 0.315648 0.962176
vt 0.315696 0.992571
vt 0.310979 0.992571
vt 0.31093 0.962176
vt 0.610294 0.992571
vt 0.61026 0.962176
vt 0.614992 0.962176
vt 0.615024 0.992571
vt 0.995527 0.65061
vt 0.965132 0.650665
vt 0.965132 0.645985
vt 0.995527 0.645929
vt 0.372932 0.962176
vt 0.372974 0.992571
vt 0.552938 0.992571
vt 0.552898 0.962176
vt 0.965132 0.88352
vt 0.995527 0.883468
vt 0.995527 0.707387
vt 0.965132 0.707441
vt 0.965132 0.878839
vt 0.995527 0.878786
vt 0.995527 0.712068
vt 0.965132 0.712122
vt 0.995526 0.585429
vt 0.965131 0.585429
vt 0.965131 0.474095
vt 0.995526 0.474095
vt 0.965131 0.418524
vt 0.995526 0.418524
vt 0.965131 0.169175
vt 0.995526 0.169175
vt 0.965131 0.113605
vt 0.995526 0.113605
vt 0.965131 0.00227125
vt 0.995526 0.00217147
vt 0.752384 0.497118
vt 0.693535 0.496978
vt 0.695423 0.501568
vt 0.752373 0.501703
vt 0.665953 0.524424
vt 0.670534 0.526335
vt 0.665507 0.698699
vt 0.670099 0.696811
vt 0.756229 0.551095
vt 0.728617 0.578572
vt 0.733206 0.580486
vt 0.758118 0.555687
vt 0.728469 0.637538
vt 0.733064 0.63755
vt 0.738628 0.638994
vt 0.738501 0.580129
vt 0.743094 0.58202
vt 0.743215 0.638984
vt 0.765986 0.552513
vt 0.767897 0.557098
vt 0.676185 0.709442
vt 0.6758 0.535056
vt 0.680393 0.536946
vt 0.680771 0.707531
vt 0.703249 0.507467
vt 0.70516 0.512046
vt 0.76207 0.507308
vt 0.762083 0.511891
vt 0.714735 0.516904
vt 0.773715 0.516752
vt 0.773726 0.521348
vt 0.71665 0.521493
vt 0.724632 0.725802
vt 0.724825 0.666965
vt 0.729405 0.668879
vt 0.729217 0.725818
vt 0.752434 0.639521
vt 0.754322 0.644115
vt 0.656677 0.689799
vt 0.657146 0.515439
vt 0.661729 0.517352
vt 0.661271 0.687911
vt 0.684751 0.48799
vt 0.686639 0.492585
vt 0.743648 0.488161
vt 0.743635 0.49275
vt 0.739598 0.727295
vt 0.739437 0.668434
vt 0.744028 0.670321
vt 0.744184 0.727283
vt 0.766878 0.640845
vt 0.768789 0.645426
vt 0.687695 0.718767
vt 0.687258 0.544517
vt 0.691849 0.546406
vt 0.692276 0.716856
vt 0.710996 0.560134
vt 0.710996 0.734815
vt 0.706408 0.734815
vt 0.706408 0.560134
vt 0.714933 0.734815
vt 0.714933 0.560134
vt 0.719521 0.560134
vt 0.719521 0.734815
vt 0.00574197 0.962176
vt 0.0416841 0.962176
vt 0.0417391 0.992571
vt 0.00579657 0.992571
vt 0.216374 0.962176
vt 0.216429 0.992571
vt 0.252402 0.962176
vt 0.252453 0.992571
vt 0.67376 0.962176
vt 0.710008 0.962176
vt 0.71003 0.992571
vt 0.673788 0.992571
vt 0.874494 0.962176
vt 0.874516 0.992571
vt 0.874516 0.962176
vt 0.934012 0.962176
vt 0.934069 0.992571
vt 0.965132 0.997742
vt 0.995527 0.997687
vt 0.995527 0.587802
vt 0.965132 0.587859
mtllib high_development_hab_3.mtl
usemtl material1
g Default
f 46/1/1 39/2/1 23/3/1 30/4/1
f 30/4/1 29/5/1 45/6/1 46/1/1
f 33/7/1 45/6/1 29/5/1 17/8/1
f 34/9/1 33/7/1 17/8/1 18/10/1
f 35/11/1 34/12/1 18/13/1 19/14/1
f 35/11/1 19/14/1 20/15/1 36/16/1
f 20/15/1 31/17/1 47/18/1 36/16/1
f 31/17/1 26/19/1 42/20/1 47/18/1
f 41/21/1 42/20/1 26/19/1 25/22/1
f 44/23/1 41/21/1 25/22/1 28/24/1
f 44/25/1 28/26/1 27/27/1 43/28/1
f 27/27/1 32/29/1 48/30/1 43/28/1
f 32/29/1 21/31/1 37/32/1 48/30/1
f 38/33/1 37/32/1 21/31/1 22/34/1
f 40/35/1 38/33/1 22/34/1 24/36/1
f 40/35/1 24/36/1 23/3/1 39/2/1
f 33/7/2 34/9/2 50/37/2 49/38/2
f 34/12/3 35/11/3 51/39/3 50/40/3
f 35/11/4 36/16/4 52/41/4 51/39/4
f 36/16/5 47/18/5 63/42/5 52/41/5
f 47/18/3 42/20/3 58/43/3 63/42/3
f 42/20/6 41/21/6 57/44/6 58/43/6
f 41/21/5 44/23/5 60/45/5 57/44/5
f 44/25/7 43/28/7 59/46/7 60/47/7
f 43/28/8 48/30/8 64/48/8 59/46/8
f 48/30/5 37/32/5 53/49/5 64/48/5
f 37/32/9 38/33/9 54/50/9 53/49/9
f 38/33/8 40/35/8 56/51/8 54/50/8
f 40/35/10 39/2/10 55/52/10 56/51/10
f 39/2/11 46/1/11 62/53/11 55/52/11
f 46/1/11 45/6/11 61/54/11 62/53/11
f 45/6/11 33/7/11 49/38/11 61/54/11
f 20/15/12 19/14/12 3/55/12 4/56/12
f 4/56/13 15/57/13 31/17/13 20/15/13
f 15/57/14 10/58/14 26/19/14 31/17/14
f 25/22/15 26/19/15 10/58/15 9/59/15
f 28/24/16 25/22/16 9/59/16 12/60/16
f 27/27/17 28/26/17 12/61/17 11/62/17
f 11/62/18 16/63/18 32/29/18 27/27/18
f 16/63/13 5/64/13 21/31/13 32/29/13
f 22/34/19 21/31/19 5/64/19 6/65/19
f 24/36/20 22/34/20 6/65/20 8/66/20
f 23/3/21 24/36/21 8/66/21 7/67/21
f 30/4/22 23/3/22 7/67/22 14/68/22
f 14/68/22 13/69/22 29/5/22 30/4/22
f 17/8/22 29/5/22 13/69/22 1/70/22
f 18/10/23 17/8/23 1/70/23 2/71/23
f 19/14/24 18/13/24 2/72/24 3/55/24
f 69/73/25 77/74/25 78/75/25 70/76/25
f 80/77/26 72/78/26 71/79/26 79/80/26
f 65/81/27 73/82/27 74/83/27 66/84/27
f 76/85/28 68/86/28 67/87/28 75/88/28
f 66/89/29 74/90/29 75/88/29 67/87/29
f 70/76/30 78/75/30 79/80/30 71/79/30
f 65/81/2 66/84/2 90/91/2 89/92/2
f 66/89/3 67/87/3 91/93/3 90/94/3
f 67/87/4 68/86/4 92/95/4 91/93/4
f 69/73/9 70/76/9 94/96/9 93/97/9
f 70/76/8 71/79/8 95/98/8 94/96/8
f 71/79/10 72/78/10 96/99/10 95/98/10
f 97/100/31 99/101/31 100/102/31 98/103/31
f 101/104/11 102/105/11 99/101/11 97/100/11
f 107/106/32 111/107/32 112/108/32 108/109/32
f 110/110/28 105/111/28 106/112/28 109/113/28
f 105/111/33 110/110/33 111/114/33 107/115/33
f 115/116/34 107/106/34 108/109/34 116/117/34
f 119/118/35 106/112/35 105/111/35 120/119/35
f 120/119/5 105/111/5 107/115/5 115/120/5
f 98/121/1 100/122/1 125/123/1 124/124/1
f 108/109/36 112/108/36 125/125/36 126/126/36
f 121/127/37 124/128/37 109/113/37 106/112/37
f 116/117/8 108/109/8 126/126/8 127/129/8
f 122/130/3 121/127/3 106/112/3 119/118/3
f 124/131/1 125/132/1 112/133/1 111/134/1 110/135/1 109/136/1
f 7/67/1 8/66/1 140/137/1 139/138/1
f 2/71/1 1/70/1 129/139/1 130/140/1
f 3/55/1 2/72/1 130/141/1 131/142/1
f 4/56/1 3/55/1 131/142/1 132/143/1
f 132/143/1 133/144/1 15/57/1 4/56/1
f 133/144/1 135/145/1 10/58/1 15/57/1
f 9/59/1 10/58/1 135/145/1 134/146/1
f 12/60/1 9/59/1 134/146/1 138/147/1
f 11/62/1 12/61/1 138/148/1 137/149/1
f 137/149/1 136/150/1 16/63/1 11/62/1
f 136/150/1 141/151/1 5/64/1 16/63/1
f 6/65/1 5/64/1 141/151/1 142/152/1
f 8/66/1 6/65/1 142/152/1 140/137/1
f 140/137/8 142/152/8 86/153/8 88/154/8
f 142/152/9 141/151/9 85/155/9 86/153/9
f 132/143/4 131/142/4 83/156/4 84/157/4
f 131/142/3 130/141/3 82/158/3 83/156/3
f 130/140/2 129/139/2 81/159/2 82/160/2
f 139/138/10 140/137/10 88/154/10 87/161/10
f 138/148/34 113/162/34 114/163/34 137/149/34
f 135/145/35 117/164/35 118/165/35 134/146/35
f 134/146/5 118/165/5 113/166/5 138/147/5
f 137/149/8 114/163/8 128/167/8 136/150/8
f 133/144/3 123/168/3 117/164/3 135/145/3
f 72/78/31 80/77/31 100/102/31 99/101/31
f 93/97/5 127/129/5 126/126/5 69/73/5
f 98/121/1 124/124/1 76/169/1 75/170/1 74/171/1 73/172/1
f 89/92/11 101/104/11 97/100/11 65/81/11
f 84/157/5 123/168/5 133/144/5 132/143/5
f 125/123/1 100/122/1 80/173/1 79/174/1 78/175/1 77/176/1
f 68/86/33 76/85/33 124/128/33 121/127/33
f 141/151/5 136/150/5 128/167/5 85/155/5
f 72/78/11 99/101/11 102/105/11 96/99/11
f 69/73/33 126/126/33 125/125/33 77/74/33
f 65/81/31 97/100/31 98/103/31 73/82/31
f 68/86/5 121/127/5 122/130/5 92/95/5
f 144/177/1 143/178/1 13/69/1 14/68/1
f 143/178/11 144/177/11 104/179/11 103/180/11
f 14/68/1 7/67/1 139/138/1 144/177/1
f 1/70/1 13/69/1 143/178/1 129/139/1
f 81/159/11 129/139/11 143/178/11 103/180/11
f 139/138/11 87/161/11 104/179/11 144/177/11
f 146/181/8 152/182/8 176/183/8 170/184/8
f 150/185/8 148/186/8 172/187/8 174/188/8
f 147/189/3 149/190/3 173/191/3 171/192/3
f 151/193/3 145/194/3 169/195/3 175/196/3
f 150/185/5 182/197/5 180/198/5 148/186/5
f 147/189/5 179/199/5 181/200/5 149/190/5
f 179/199/5 180/198/5 182/197/5 181/200/5
f 146/181/11 178/201/11 184/202/11 152/182/11
f 151/193/11 183/203/11 177/204/11 145/194/11
f 184/202/3 178/201/3 186/205/3 188/206/3
f 177/204/8 183/203/8 187/207/8 185/208/8
f 127/209/8 128/210/8 114/211/8 116/212/8
f 116/212/38 114/211/38 113/213/38 115/214/38
f 115/214/5 113/213/5 118/215/5 120/216/5
f 120/216/39 118/215/39 117/217/39 119/218/39
f 119/218/3 117/217/3 123/219/3 122/220/3
f 208/221/40 201/222/40 225/223/40 232/224/40
f 201/222/40 202/225/40 226/226/40 225/223/40
f 202/225/40 203/227/40 227/228/40 226/226/40
f 203/229/40 204/230/40 228/231/40 227/232/40
f 204/230/40 206/233/40 230/234/40 228/231/40
f 212/235/1 195/236/1 219/237/1 236/238/1
f 195/236/1 196/239/1 220/240/1 219/237/1
f 196/241/1 194/242/1 218/243/1 220/244/1
f 194/242/1 193/245/1 217/246/1 218/243/1
f 193/245/1 210/247/1 234/248/1 217/246/1
f 200/249/40 207/250/40 231/251/40 224/252/40
f 209/253/1 192/254/1 216/255/1 233/256/1
f 192/254/1 191/257/1 215/258/1 216/255/1
f 191/259/1 190/260/1 214/261/1 215/262/1
f 190/260/1 189/263/1 213/264/1 214/261/1
f 189/263/1 211/265/1 235/266/1 213/264/1
f 205/267/40 197/268/40 221/269/40 229/270/40
f 197/268/40 198/271/40 222/272/40 221/269/40
f 198/273/40 199/274/40 223/275/40 222/276/40
f 199/274/40 200/249/40 224/252/40 223/275/40
f 239/277/1 240/278/1 244/279/1 243/280/1
f 238/281/40 237/282/40 241/283/40 242/284/40
f 159/285/41 160/286/41 167/287/41 168/288/41
f 160/286/8 158/289/8 166/290/8 167/287/8
f 158/289/42 157/291/42 165/292/42 166/290/42
f 156/293/43 155/294/43 163/295/43 164/296/43
f 155/294/3 154/297/3 162/298/3 163/295/3
f 154/299/44 153/300/44 161/301/44 162/298/44
f 164/296/5 171/192/5 173/191/5 156/293/5
f 157/291/5 174/188/5 172/187/5 165/292/5
f 168/302/11 170/184/11 176/183/11 159/303/11
f 153/304/11 175/196/11 169/195/11 161/305/11
f 187/207/11 188/206/11 186/205/11 185/208/11
